G04 #@! TF.GenerationSoftware,KiCad,Pcbnew,6.0.2+dfsg-1*
G04 #@! TF.CreationDate,2024-06-30T21:42:03-06:00*
G04 #@! TF.ProjectId,mss-cascade-basic,6d73732d-6361-4736-9361-64652d626173,rev?*
G04 #@! TF.SameCoordinates,Original*
G04 #@! TF.FileFunction,Copper,L2,Bot*
G04 #@! TF.FilePolarity,Positive*
%FSLAX46Y46*%
G04 Gerber Fmt 4.6, Leading zero omitted, Abs format (unit mm)*
G04 Created by KiCad (PCBNEW 6.0.2+dfsg-1) date 2024-06-30 21:42:03*
%MOMM*%
%LPD*%
G01*
G04 APERTURE LIST*
G04 #@! TA.AperFunction,ComponentPad*
%ADD10C,6.400000*%
G04 #@! TD*
G04 #@! TA.AperFunction,ComponentPad*
%ADD11R,2.500000X2.500000*%
G04 #@! TD*
G04 #@! TA.AperFunction,ComponentPad*
%ADD12C,2.500000*%
G04 #@! TD*
G04 #@! TA.AperFunction,ComponentPad*
%ADD13R,2.300000X2.300000*%
G04 #@! TD*
G04 #@! TA.AperFunction,ComponentPad*
%ADD14C,2.300000*%
G04 #@! TD*
G04 #@! TA.AperFunction,ComponentPad*
%ADD15R,1.500000X1.500000*%
G04 #@! TD*
G04 #@! TA.AperFunction,ComponentPad*
%ADD16C,1.500000*%
G04 #@! TD*
G04 #@! TA.AperFunction,SMDPad,CuDef*
%ADD17C,2.000000*%
G04 #@! TD*
G04 #@! TA.AperFunction,ViaPad*
%ADD18C,0.609600*%
G04 #@! TD*
G04 #@! TA.AperFunction,Conductor*
%ADD19C,1.016000*%
G04 #@! TD*
G04 #@! TA.AperFunction,Conductor*
%ADD20C,0.508000*%
G04 #@! TD*
G04 #@! TA.AperFunction,Conductor*
%ADD21C,0.254000*%
G04 #@! TD*
G04 APERTURE END LIST*
D10*
X103632000Y-187452000D03*
X103632000Y-119888000D03*
D11*
X32339000Y-175300000D03*
D12*
X32339000Y-180300000D03*
D13*
X35179000Y-127254000D03*
D14*
X35179000Y-130754000D03*
X35179000Y-134254000D03*
D13*
X35179000Y-152654000D03*
D14*
X35179000Y-156154000D03*
X35179000Y-159654000D03*
D13*
X35179000Y-139954000D03*
D14*
X35179000Y-143454000D03*
X35179000Y-146954000D03*
D15*
X93436500Y-130195000D03*
D16*
X92166500Y-132735000D03*
X90896500Y-130195000D03*
X89626500Y-132735000D03*
X88356500Y-130195000D03*
X87086500Y-132735000D03*
X85816500Y-130195000D03*
X84546500Y-132735000D03*
D10*
X29718000Y-187452000D03*
X29718000Y-119888000D03*
D15*
X84617500Y-177018000D03*
D16*
X85887500Y-174478000D03*
X87157500Y-177018000D03*
X88427500Y-174478000D03*
X89697500Y-177018000D03*
X90967500Y-174478000D03*
X92237500Y-177018000D03*
X93507500Y-174478000D03*
D17*
X73025000Y-184785000D03*
X30226000Y-127254000D03*
X76454000Y-175895000D03*
X30226000Y-156210000D03*
X30226000Y-130810000D03*
X73025000Y-178943000D03*
X73025000Y-173101000D03*
X69215000Y-181864000D03*
X76454000Y-181864000D03*
X30226000Y-159639000D03*
X28194000Y-175260000D03*
X28194000Y-180340000D03*
X30226000Y-152654000D03*
X76454000Y-170180000D03*
X100457000Y-158750000D03*
X30226000Y-134239000D03*
D18*
X34798000Y-177800000D03*
X34798000Y-175768000D03*
X60198000Y-190627000D03*
X61341000Y-190627000D03*
X34798000Y-176784000D03*
X59055000Y-190627000D03*
X106426000Y-153670000D03*
X102616000Y-172021500D03*
X50546000Y-183134000D03*
X92202000Y-139319000D03*
X90932000Y-171450000D03*
X102616000Y-142367000D03*
X39243000Y-173609000D03*
X93726000Y-135763000D03*
X102616000Y-156654500D03*
X95250000Y-139319000D03*
X80010000Y-146050000D03*
X57785000Y-170180000D03*
X66578500Y-147193000D03*
X63754000Y-125349000D03*
X95250000Y-135763000D03*
X80899000Y-148971000D03*
X80899000Y-154813000D03*
X44577000Y-186436000D03*
X80899000Y-157734000D03*
X102616000Y-157543500D03*
X56261000Y-163035000D03*
X43053000Y-173609000D03*
X55626000Y-188214000D03*
X57404000Y-125349000D03*
X80899000Y-160655000D03*
X56515000Y-125349000D03*
X41656000Y-189357000D03*
X92456000Y-171450000D03*
X63881000Y-182118000D03*
X106553000Y-168910000D03*
X39243000Y-175387000D03*
X67467500Y-147193000D03*
X93980000Y-167894000D03*
X40767000Y-186436000D03*
X80899000Y-146050000D03*
X40767000Y-188214000D03*
X94361000Y-170307000D03*
X95631000Y-138176000D03*
X68453000Y-160020000D03*
X92202000Y-135763000D03*
X48133000Y-188214000D03*
X70104000Y-125349000D03*
X58801000Y-170180000D03*
X80010000Y-151892000D03*
X43053000Y-175387000D03*
X51562000Y-183134000D03*
X80010000Y-157734000D03*
X63246000Y-154940000D03*
X47117000Y-188214000D03*
X106553000Y-138430000D03*
X80010000Y-148971000D03*
X44577000Y-188214000D03*
X52578000Y-183134000D03*
X43688000Y-189357000D03*
X80010000Y-154813000D03*
X54610000Y-164338000D03*
X93726000Y-139319000D03*
X43053000Y-174498000D03*
X56642000Y-188214000D03*
X63881000Y-179324000D03*
X69215000Y-125349000D03*
X44577000Y-187325000D03*
X80010000Y-160655000D03*
X53848000Y-156210000D03*
X95631000Y-136906000D03*
X62357000Y-154940000D03*
X42672000Y-189357000D03*
X40767000Y-187325000D03*
X102616000Y-141478000D03*
X90932000Y-167894000D03*
X48768000Y-141986000D03*
X93980000Y-171450000D03*
X94361000Y-169037000D03*
X52959000Y-156210000D03*
X92456000Y-167894000D03*
X49911000Y-141986000D03*
X62865000Y-125349000D03*
X69342000Y-160020000D03*
X102616000Y-172910500D03*
X80899000Y-151892000D03*
X39243000Y-174498000D03*
X70993000Y-149733000D03*
X70993000Y-148844000D03*
X68072000Y-156210000D03*
X67183000Y-156210000D03*
X45212000Y-141986000D03*
X46228000Y-141986000D03*
X68961000Y-156210000D03*
X69215000Y-177419000D03*
X51562000Y-148844000D03*
X51562000Y-151765000D03*
X78994000Y-184785000D03*
X96012000Y-169672000D03*
X96012000Y-167640000D03*
X96012000Y-150749000D03*
X96012000Y-149860000D03*
X96012000Y-168656000D03*
X96012000Y-148971000D03*
X97028000Y-169672000D03*
X78521500Y-172049500D03*
X87249000Y-127254000D03*
X88265000Y-127254000D03*
X89281000Y-127254000D03*
X97028000Y-167640000D03*
X97028000Y-168656000D03*
X100457000Y-161671000D03*
X83820000Y-166497000D03*
X83820000Y-167386000D03*
X95250000Y-145415000D03*
X94615000Y-146050000D03*
X83820000Y-168275000D03*
X78486000Y-170180000D03*
X92011500Y-149923500D03*
X92011500Y-150812500D03*
X78359000Y-181864000D03*
X94996000Y-158877000D03*
X94996000Y-159766000D03*
X78486000Y-174498000D03*
X93980000Y-156591000D03*
X76073000Y-178943000D03*
X93980000Y-155702000D03*
X53213000Y-151130000D03*
X59817000Y-137922000D03*
X52832000Y-151892000D03*
X62738000Y-137160000D03*
X52324000Y-150241000D03*
X51054000Y-141097000D03*
X56896000Y-137160000D03*
D19*
X60198000Y-190627000D02*
X61341000Y-190627000D01*
X59055000Y-190627000D02*
X36322000Y-190627000D01*
X36322000Y-190627000D02*
X34798000Y-189103000D01*
X34798000Y-189103000D02*
X34798000Y-175768000D01*
X59055000Y-190627000D02*
X60198000Y-190627000D01*
D20*
X70993000Y-155194000D02*
X70993000Y-149733000D01*
X42982000Y-143454000D02*
X44450000Y-141986000D01*
X69977000Y-156210000D02*
X70993000Y-155194000D01*
X67183000Y-156210000D02*
X69977000Y-156210000D01*
X45212000Y-141986000D02*
X46228000Y-141986000D01*
X70993000Y-149733000D02*
X70993000Y-148844000D01*
X44450000Y-141986000D02*
X45212000Y-141986000D01*
X35179000Y-143454000D02*
X42982000Y-143454000D01*
D19*
X28194000Y-175260000D02*
X32172000Y-175260000D01*
X32172000Y-175260000D02*
X32212000Y-175300000D01*
X32172000Y-180340000D02*
X32212000Y-180300000D01*
X28194000Y-180340000D02*
X32172000Y-180340000D01*
D20*
X69215000Y-177419000D02*
X69215000Y-181864000D01*
D21*
X51562000Y-151765000D02*
X51562000Y-148844000D01*
D20*
X96012000Y-167640000D02*
X96012000Y-150749000D01*
X95250000Y-172847000D02*
X96012000Y-172085000D01*
X96012000Y-149860000D02*
X96012000Y-148971000D01*
X92598500Y-172847000D02*
X95250000Y-172847000D01*
X96012000Y-169672000D02*
X96012000Y-168656000D01*
X96012000Y-168656000D02*
X96012000Y-167640000D01*
X96012000Y-150749000D02*
X96012000Y-149860000D01*
X78994000Y-184785000D02*
X73025000Y-184785000D01*
X96012000Y-172085000D02*
X96012000Y-169672000D01*
X90967500Y-174478000D02*
X92598500Y-172847000D01*
X74076500Y-172049500D02*
X73025000Y-173101000D01*
X89281000Y-127254000D02*
X88265000Y-127254000D01*
X97028000Y-169672000D02*
X97028000Y-146177000D01*
X78521500Y-172049500D02*
X74076500Y-172049500D01*
X100584000Y-130175000D02*
X97663000Y-127254000D01*
X97663000Y-127254000D02*
X89281000Y-127254000D01*
X97028000Y-146177000D02*
X100584000Y-142621000D01*
X88265000Y-127254000D02*
X87249000Y-127254000D01*
X100584000Y-142621000D02*
X100584000Y-130175000D01*
X100457000Y-161671000D02*
X100457000Y-158750000D01*
X83820000Y-166497000D02*
X83820000Y-167386000D01*
X86106000Y-162941000D02*
X83820000Y-165227000D01*
X92964000Y-162179000D02*
X92202000Y-162941000D01*
X92964000Y-147701000D02*
X92964000Y-162179000D01*
X97790000Y-130175000D02*
X98552000Y-130937000D01*
X83820000Y-167386000D02*
X83820000Y-168275000D01*
X93218000Y-130175000D02*
X97790000Y-130175000D01*
X94615000Y-146050000D02*
X95250000Y-145415000D01*
X98552000Y-142113000D02*
X95250000Y-145415000D01*
X98552000Y-130937000D02*
X98552000Y-142113000D01*
X83820000Y-165227000D02*
X83820000Y-166497000D01*
X94615000Y-146050000D02*
X92964000Y-147701000D01*
X78486000Y-170180000D02*
X76454000Y-170180000D01*
X92202000Y-162941000D02*
X86106000Y-162941000D01*
X97536000Y-141732000D02*
X97536000Y-133477000D01*
X92011500Y-161353500D02*
X92011500Y-150812500D01*
X86233000Y-179070000D02*
X83693000Y-179070000D01*
X92011500Y-150812500D02*
X92011500Y-149923500D01*
X78359000Y-181864000D02*
X76454000Y-181864000D01*
X83693000Y-179070000D02*
X82804000Y-178181000D01*
X82804000Y-164846000D02*
X85725000Y-161925000D01*
X92011500Y-147256500D02*
X97536000Y-141732000D01*
X91440000Y-161925000D02*
X92011500Y-161353500D01*
X85725000Y-161925000D02*
X91440000Y-161925000D01*
X82804000Y-178181000D02*
X82804000Y-164846000D01*
X97536000Y-133477000D02*
X96794000Y-132735000D01*
X92011500Y-149923500D02*
X92011500Y-147256500D01*
X96794000Y-132735000D02*
X91912500Y-132735000D01*
X87157500Y-177018000D02*
X87157500Y-178145500D01*
X87157500Y-178145500D02*
X86233000Y-179070000D01*
X85887500Y-174478000D02*
X85887500Y-166080500D01*
X94996000Y-162941000D02*
X94996000Y-146939000D01*
X92964000Y-164973000D02*
X94996000Y-162941000D01*
X85887500Y-166080500D02*
X86995000Y-164973000D01*
X99568000Y-130556000D02*
X97282000Y-128270000D01*
X86995000Y-164973000D02*
X92964000Y-164973000D01*
X91567000Y-128270000D02*
X90932000Y-128905000D01*
X77851000Y-174498000D02*
X76454000Y-175895000D01*
X90932000Y-128905000D02*
X90932000Y-129905500D01*
X97282000Y-128270000D02*
X91567000Y-128270000D01*
X99568000Y-142367000D02*
X99568000Y-130556000D01*
X78486000Y-174498000D02*
X77851000Y-174498000D01*
X94996000Y-146939000D02*
X99568000Y-142367000D01*
X90932000Y-129905500D02*
X90642500Y-130195000D01*
X101600000Y-129794000D02*
X101600000Y-143002000D01*
X98044000Y-174752000D02*
X95778000Y-177018000D01*
X85816500Y-127162500D02*
X86614000Y-126365000D01*
X101600000Y-143002000D02*
X98044000Y-146558000D01*
X95778000Y-177018000D02*
X92237500Y-177018000D01*
X98044000Y-146558000D02*
X98044000Y-174752000D01*
X98171000Y-126365000D02*
X101600000Y-129794000D01*
X86614000Y-126365000D02*
X98171000Y-126365000D01*
X85816500Y-130195000D02*
X85816500Y-127162500D01*
X84617500Y-175676500D02*
X84617500Y-177018000D01*
X76073000Y-178943000D02*
X73025000Y-178943000D01*
X84201000Y-173482000D02*
X84201000Y-175260000D01*
X86487000Y-163957000D02*
X84836000Y-165608000D01*
X93980000Y-156591000D02*
X93980000Y-162560000D01*
X92583000Y-163957000D02*
X86487000Y-163957000D01*
X84836000Y-172847000D02*
X84201000Y-173482000D01*
X84836000Y-165608000D02*
X84836000Y-172847000D01*
X93980000Y-155702000D02*
X93980000Y-156591000D01*
X93980000Y-162560000D02*
X92583000Y-163957000D01*
X84201000Y-175260000D02*
X84617500Y-175676500D01*
D21*
X53213000Y-142875000D02*
X58166000Y-137922000D01*
X53213000Y-151130000D02*
X53213000Y-142875000D01*
X58166000Y-137922000D02*
X59817000Y-137922000D01*
X52832000Y-151892000D02*
X52324000Y-151384000D01*
X57912000Y-137160000D02*
X62738000Y-137160000D01*
X52324000Y-142748000D02*
X57912000Y-137160000D01*
X52324000Y-150241000D02*
X52324000Y-142748000D01*
X52324000Y-151384000D02*
X52324000Y-150241000D01*
X51054000Y-141097000D02*
X52959000Y-141097000D01*
X52959000Y-141097000D02*
X56896000Y-137160000D01*
D20*
X30226000Y-127254000D02*
X35179000Y-127254000D01*
X35123000Y-130810000D02*
X35179000Y-130754000D01*
X30226000Y-130810000D02*
X35123000Y-130810000D01*
X30226000Y-134239000D02*
X35164000Y-134239000D01*
X35164000Y-134239000D02*
X35179000Y-134254000D01*
X30226000Y-152654000D02*
X35179000Y-152654000D01*
X30226000Y-156210000D02*
X35123000Y-156210000D01*
X35123000Y-156210000D02*
X35179000Y-156154000D01*
X35164000Y-159639000D02*
X35179000Y-159654000D01*
X30226000Y-159639000D02*
X35164000Y-159639000D01*
G04 #@! TA.AperFunction,Conductor*
G36*
X101946521Y-116225002D02*
G01*
X101993014Y-116278658D01*
X102003118Y-116348932D01*
X101973624Y-116413512D01*
X101939293Y-116441309D01*
X101611060Y-116622503D01*
X101611052Y-116622508D01*
X101608264Y-116624047D01*
X101288781Y-116845268D01*
X100993289Y-117097642D01*
X100724814Y-117378585D01*
X100486105Y-117685220D01*
X100484409Y-117687924D01*
X100484406Y-117687928D01*
X100355575Y-117893303D01*
X100279605Y-118014410D01*
X100107429Y-118362782D01*
X99971339Y-118726770D01*
X99970531Y-118729849D01*
X99970529Y-118729856D01*
X99873537Y-119099567D01*
X99872729Y-119102647D01*
X99812609Y-119486566D01*
X99791594Y-119874594D01*
X99791744Y-119877775D01*
X99793571Y-119916505D01*
X99809900Y-120262760D01*
X99810371Y-120265913D01*
X99810372Y-120265921D01*
X99836787Y-120442664D01*
X99867338Y-120647089D01*
X99963321Y-121023646D01*
X100096866Y-121388575D01*
X100266606Y-121738141D01*
X100397705Y-121950408D01*
X100468265Y-122064654D01*
X100470803Y-122068764D01*
X100472744Y-122071294D01*
X100472745Y-122071295D01*
X100641977Y-122291841D01*
X100707366Y-122377058D01*
X100973873Y-122659869D01*
X100976278Y-122661952D01*
X100976284Y-122661958D01*
X101203406Y-122858696D01*
X101267596Y-122914299D01*
X101585526Y-123137745D01*
X101588301Y-123139302D01*
X101827408Y-123273482D01*
X101924410Y-123327917D01*
X101927324Y-123329184D01*
X101927328Y-123329186D01*
X101965101Y-123345610D01*
X102280777Y-123482870D01*
X102429896Y-123530460D01*
X102647935Y-123600046D01*
X102647944Y-123600048D01*
X102650979Y-123601017D01*
X102755035Y-123622945D01*
X103028106Y-123680490D01*
X103028111Y-123680491D01*
X103031225Y-123681147D01*
X103417621Y-123722441D01*
X103420809Y-123722458D01*
X103420814Y-123722458D01*
X103597023Y-123723381D01*
X103806213Y-123724476D01*
X103999617Y-123705853D01*
X104189856Y-123687535D01*
X104189861Y-123687534D01*
X104193021Y-123687230D01*
X104196141Y-123686607D01*
X104196145Y-123686606D01*
X104570958Y-123611711D01*
X104570957Y-123611711D01*
X104574086Y-123611086D01*
X104859689Y-123523223D01*
X104942462Y-123497759D01*
X104942465Y-123497758D01*
X104945504Y-123496823D01*
X104948432Y-123495586D01*
X104948438Y-123495584D01*
X105300530Y-123346854D01*
X105300537Y-123346851D01*
X105303474Y-123345610D01*
X105644331Y-123158997D01*
X105964584Y-122938893D01*
X106260955Y-122687552D01*
X106263160Y-122685260D01*
X106263166Y-122685255D01*
X106528194Y-122409850D01*
X106528196Y-122409847D01*
X106530409Y-122407548D01*
X106658267Y-122244484D01*
X106768213Y-122104265D01*
X106768216Y-122104260D01*
X106770187Y-122101747D01*
X106977835Y-121773281D01*
X106979255Y-121770433D01*
X106979260Y-121770424D01*
X107076238Y-121575915D01*
X107124534Y-121523876D01*
X107193297Y-121506209D01*
X107260696Y-121528523D01*
X107305332Y-121583733D01*
X107315000Y-121632136D01*
X107315000Y-185708063D01*
X107294998Y-185776184D01*
X107241342Y-185822677D01*
X107171068Y-185832781D01*
X107106488Y-185803287D01*
X107075849Y-185763495D01*
X106992326Y-185593003D01*
X106992325Y-185593001D01*
X106990915Y-185590123D01*
X106785565Y-185260215D01*
X106641343Y-185073613D01*
X106549880Y-184955273D01*
X106549875Y-184955268D01*
X106547928Y-184952748D01*
X106417317Y-184815113D01*
X106282634Y-184673186D01*
X106282631Y-184673184D01*
X106280435Y-184670869D01*
X106165260Y-184571803D01*
X105988241Y-184419543D01*
X105988238Y-184419541D01*
X105985826Y-184417466D01*
X105983218Y-184415646D01*
X105983212Y-184415642D01*
X105704019Y-184220874D01*
X105667117Y-184195131D01*
X105327572Y-184006143D01*
X105324652Y-184004885D01*
X105324647Y-184004883D01*
X104973600Y-183853698D01*
X104973590Y-183853694D01*
X104970666Y-183852435D01*
X104600054Y-183735582D01*
X104300505Y-183673548D01*
X104222656Y-183657426D01*
X104222653Y-183657426D01*
X104219531Y-183656779D01*
X103922323Y-183626065D01*
X103836149Y-183617160D01*
X103836146Y-183617160D01*
X103832993Y-183616834D01*
X103829827Y-183616828D01*
X103829818Y-183616828D01*
X103637969Y-183616494D01*
X103444396Y-183616156D01*
X103290545Y-183631512D01*
X103060893Y-183654434D01*
X103060887Y-183654435D01*
X103057720Y-183654751D01*
X102921133Y-183682540D01*
X102680049Y-183731589D01*
X102680045Y-183731590D01*
X102676924Y-183732225D01*
X102673882Y-183733172D01*
X102673876Y-183733174D01*
X102520432Y-183780967D01*
X102305907Y-183847784D01*
X102302979Y-183849033D01*
X101951397Y-183998995D01*
X101951393Y-183998997D01*
X101948467Y-184000245D01*
X101945688Y-184001779D01*
X101945682Y-184001782D01*
X101737913Y-184116477D01*
X101608264Y-184188047D01*
X101288781Y-184409268D01*
X101104890Y-184566326D01*
X101019808Y-184638993D01*
X100993289Y-184661642D01*
X100724814Y-184942585D01*
X100722857Y-184945099D01*
X100722856Y-184945100D01*
X100506967Y-185222422D01*
X100486105Y-185249220D01*
X100484409Y-185251924D01*
X100484406Y-185251928D01*
X100385462Y-185409659D01*
X100279605Y-185578410D01*
X100107429Y-185926782D01*
X99971339Y-186290770D01*
X99970531Y-186293849D01*
X99970529Y-186293856D01*
X99873537Y-186663567D01*
X99872729Y-186666647D01*
X99812609Y-187050566D01*
X99791594Y-187438594D01*
X99791744Y-187441775D01*
X99793571Y-187480505D01*
X99809900Y-187826760D01*
X99810371Y-187829913D01*
X99810372Y-187829921D01*
X99836787Y-188006664D01*
X99867338Y-188211089D01*
X99963321Y-188587646D01*
X100096866Y-188952575D01*
X100266606Y-189302141D01*
X100470803Y-189632764D01*
X100472744Y-189635294D01*
X100472745Y-189635295D01*
X100684137Y-189910785D01*
X100707366Y-189941058D01*
X100973873Y-190223869D01*
X100976278Y-190225952D01*
X100976284Y-190225958D01*
X101189037Y-190410249D01*
X101267596Y-190478299D01*
X101585526Y-190701745D01*
X101924410Y-190891917D01*
X101927324Y-190893184D01*
X101927338Y-190893191D01*
X101927932Y-190893449D01*
X101928040Y-190893539D01*
X101930193Y-190894608D01*
X101929937Y-190895123D01*
X101982429Y-190938953D01*
X102003673Y-191006697D01*
X101984920Y-191075172D01*
X101932123Y-191122638D01*
X101877694Y-191135000D01*
X62146655Y-191135000D01*
X62078534Y-191114998D01*
X62032041Y-191061342D01*
X62021937Y-190991068D01*
X62037703Y-190945711D01*
X62041345Y-190939441D01*
X62045019Y-190933116D01*
X62096558Y-190762946D01*
X62107568Y-190585484D01*
X62093023Y-190500834D01*
X62078697Y-190417465D01*
X62077457Y-190410249D01*
X62007841Y-190246641D01*
X61902454Y-190103436D01*
X61880358Y-190084664D01*
X61772528Y-189993055D01*
X61772524Y-189993052D01*
X61766949Y-189988316D01*
X61608596Y-189907457D01*
X61601491Y-189905718D01*
X61601487Y-189905717D01*
X61518896Y-189885508D01*
X61435888Y-189865196D01*
X61430286Y-189864848D01*
X61430283Y-189864848D01*
X61426609Y-189864620D01*
X61426599Y-189864620D01*
X61424670Y-189864500D01*
X36690028Y-189864500D01*
X36621907Y-189844498D01*
X36600933Y-189827595D01*
X35597405Y-188824067D01*
X35563379Y-188761755D01*
X35560500Y-188734972D01*
X35560500Y-184785000D01*
X71765708Y-184785000D01*
X71784839Y-185003674D01*
X71841653Y-185215703D01*
X71866282Y-185268521D01*
X71932095Y-185409659D01*
X71932098Y-185409664D01*
X71934421Y-185414646D01*
X71937577Y-185419153D01*
X71937578Y-185419155D01*
X72049090Y-185578410D01*
X72060326Y-185594457D01*
X72215543Y-185749674D01*
X72220051Y-185752831D01*
X72220054Y-185752833D01*
X72253403Y-185776184D01*
X72395354Y-185875579D01*
X72400336Y-185877902D01*
X72400341Y-185877905D01*
X72499029Y-185923923D01*
X72594297Y-185968347D01*
X72806326Y-186025161D01*
X73025000Y-186044292D01*
X73243674Y-186025161D01*
X73455703Y-185968347D01*
X73550971Y-185923923D01*
X73649659Y-185877905D01*
X73649664Y-185877902D01*
X73654646Y-185875579D01*
X73796597Y-185776184D01*
X73829946Y-185752833D01*
X73829949Y-185752831D01*
X73834457Y-185749674D01*
X73989674Y-185594457D01*
X74000911Y-185578410D01*
X74112422Y-185419155D01*
X74112423Y-185419153D01*
X74115579Y-185414646D01*
X74117904Y-185409661D01*
X74117907Y-185409655D01*
X74138146Y-185366251D01*
X74185063Y-185312965D01*
X74252341Y-185293500D01*
X78735042Y-185293500D01*
X78783260Y-185303091D01*
X78840364Y-185326744D01*
X78847993Y-185329904D01*
X78856177Y-185330981D01*
X78856179Y-185330982D01*
X78985812Y-185348048D01*
X78994000Y-185349126D01*
X79002188Y-185348048D01*
X79131821Y-185330982D01*
X79131823Y-185330981D01*
X79140007Y-185329904D01*
X79276063Y-185273547D01*
X79392897Y-185183897D01*
X79482547Y-185067063D01*
X79538904Y-184931007D01*
X79558126Y-184785000D01*
X79538904Y-184638993D01*
X79482547Y-184502937D01*
X79392897Y-184386103D01*
X79276063Y-184296453D01*
X79140007Y-184240096D01*
X79131823Y-184239019D01*
X79131821Y-184239018D01*
X79002188Y-184221952D01*
X78994000Y-184220874D01*
X78985812Y-184221952D01*
X78856179Y-184239018D01*
X78856177Y-184239019D01*
X78847993Y-184240096D01*
X78840364Y-184243256D01*
X78783260Y-184266909D01*
X78735042Y-184276500D01*
X74252341Y-184276500D01*
X74184220Y-184256498D01*
X74138146Y-184203749D01*
X74117907Y-184160345D01*
X74117904Y-184160339D01*
X74115579Y-184155354D01*
X74088357Y-184116477D01*
X73992833Y-183980054D01*
X73992831Y-183980051D01*
X73989674Y-183975543D01*
X73834457Y-183820326D01*
X73829949Y-183817169D01*
X73829946Y-183817167D01*
X73659155Y-183697578D01*
X73659153Y-183697577D01*
X73654646Y-183694421D01*
X73649664Y-183692098D01*
X73649659Y-183692095D01*
X73548884Y-183645104D01*
X73455703Y-183601653D01*
X73243674Y-183544839D01*
X73025000Y-183525708D01*
X72806326Y-183544839D01*
X72594297Y-183601653D01*
X72501116Y-183645104D01*
X72400341Y-183692095D01*
X72400336Y-183692098D01*
X72395354Y-183694421D01*
X72390847Y-183697577D01*
X72390845Y-183697578D01*
X72220054Y-183817167D01*
X72220051Y-183817169D01*
X72215543Y-183820326D01*
X72060326Y-183975543D01*
X72057169Y-183980051D01*
X72057167Y-183980054D01*
X71961643Y-184116477D01*
X71934421Y-184155354D01*
X71932098Y-184160336D01*
X71932095Y-184160341D01*
X71911854Y-184203749D01*
X71841653Y-184354297D01*
X71784839Y-184566326D01*
X71765708Y-184785000D01*
X35560500Y-184785000D01*
X35560500Y-183410186D01*
X81488518Y-183410186D01*
X81514079Y-183678100D01*
X81515164Y-183682534D01*
X81515165Y-183682540D01*
X81556503Y-183851474D01*
X81578047Y-183939518D01*
X81679083Y-184188963D01*
X81815069Y-184421210D01*
X81983158Y-184631395D01*
X82179827Y-184815113D01*
X82400957Y-184968516D01*
X82641916Y-185088391D01*
X82646250Y-185089812D01*
X82646253Y-185089813D01*
X82893323Y-185170807D01*
X82893329Y-185170808D01*
X82897656Y-185172227D01*
X82902147Y-185173007D01*
X82902148Y-185173007D01*
X83159038Y-185217611D01*
X83159046Y-185217612D01*
X83162819Y-185218267D01*
X83166656Y-185218458D01*
X83246277Y-185222422D01*
X83246285Y-185222422D01*
X83247848Y-185222500D01*
X83415874Y-185222500D01*
X83418142Y-185222335D01*
X83418154Y-185222335D01*
X83548957Y-185212844D01*
X83615925Y-185207985D01*
X83620380Y-185207001D01*
X83620383Y-185207001D01*
X83874270Y-185150947D01*
X83874272Y-185150946D01*
X83878726Y-185149963D01*
X84130400Y-185054613D01*
X84332089Y-184942585D01*
X84361679Y-184926149D01*
X84361680Y-184926148D01*
X84365672Y-184923931D01*
X84512342Y-184811996D01*
X84575991Y-184763421D01*
X84575995Y-184763417D01*
X84579616Y-184760654D01*
X84665122Y-184673186D01*
X84764563Y-184571462D01*
X84767749Y-184568203D01*
X84926130Y-184350610D01*
X85051441Y-184112433D01*
X85141057Y-183858662D01*
X85173887Y-183692095D01*
X85192220Y-183599083D01*
X85192221Y-183599077D01*
X85193101Y-183594611D01*
X85202282Y-183410186D01*
X92918518Y-183410186D01*
X92944079Y-183678100D01*
X92945164Y-183682534D01*
X92945165Y-183682540D01*
X92986503Y-183851474D01*
X93008047Y-183939518D01*
X93109083Y-184188963D01*
X93245069Y-184421210D01*
X93413158Y-184631395D01*
X93609827Y-184815113D01*
X93830957Y-184968516D01*
X94071916Y-185088391D01*
X94076250Y-185089812D01*
X94076253Y-185089813D01*
X94323323Y-185170807D01*
X94323329Y-185170808D01*
X94327656Y-185172227D01*
X94332147Y-185173007D01*
X94332148Y-185173007D01*
X94589038Y-185217611D01*
X94589046Y-185217612D01*
X94592819Y-185218267D01*
X94596656Y-185218458D01*
X94676277Y-185222422D01*
X94676285Y-185222422D01*
X94677848Y-185222500D01*
X94845874Y-185222500D01*
X94848142Y-185222335D01*
X94848154Y-185222335D01*
X94978957Y-185212844D01*
X95045925Y-185207985D01*
X95050380Y-185207001D01*
X95050383Y-185207001D01*
X95304270Y-185150947D01*
X95304272Y-185150946D01*
X95308726Y-185149963D01*
X95560400Y-185054613D01*
X95762089Y-184942585D01*
X95791679Y-184926149D01*
X95791680Y-184926148D01*
X95795672Y-184923931D01*
X95942342Y-184811996D01*
X96005991Y-184763421D01*
X96005995Y-184763417D01*
X96009616Y-184760654D01*
X96095122Y-184673186D01*
X96194563Y-184571462D01*
X96197749Y-184568203D01*
X96356130Y-184350610D01*
X96481441Y-184112433D01*
X96571057Y-183858662D01*
X96603887Y-183692095D01*
X96622220Y-183599083D01*
X96622221Y-183599077D01*
X96623101Y-183594611D01*
X96632282Y-183410186D01*
X96636255Y-183330383D01*
X96636255Y-183330377D01*
X96636482Y-183325814D01*
X96610921Y-183057900D01*
X96584867Y-182951422D01*
X96548039Y-182800920D01*
X96546953Y-182796482D01*
X96445917Y-182547037D01*
X96309931Y-182314790D01*
X96141842Y-182104605D01*
X95945173Y-181920887D01*
X95724043Y-181767484D01*
X95483084Y-181647609D01*
X95478750Y-181646188D01*
X95478747Y-181646187D01*
X95231677Y-181565193D01*
X95231671Y-181565192D01*
X95227344Y-181563773D01*
X95222852Y-181562993D01*
X94965962Y-181518389D01*
X94965954Y-181518388D01*
X94962181Y-181517733D01*
X94952218Y-181517237D01*
X94878723Y-181513578D01*
X94878715Y-181513578D01*
X94877152Y-181513500D01*
X94709126Y-181513500D01*
X94706858Y-181513665D01*
X94706846Y-181513665D01*
X94576043Y-181523156D01*
X94509075Y-181528015D01*
X94504620Y-181528999D01*
X94504617Y-181528999D01*
X94250730Y-181585053D01*
X94250728Y-181585054D01*
X94246274Y-181586037D01*
X93994600Y-181681387D01*
X93990614Y-181683601D01*
X93990612Y-181683602D01*
X93763321Y-181809851D01*
X93759328Y-181812069D01*
X93755696Y-181814841D01*
X93549009Y-181972579D01*
X93549005Y-181972583D01*
X93545384Y-181975346D01*
X93357251Y-182167797D01*
X93354566Y-182171486D01*
X93201558Y-182381696D01*
X93201553Y-182381703D01*
X93198870Y-182385390D01*
X93073559Y-182623567D01*
X93072038Y-182627875D01*
X93000013Y-182831833D01*
X92983943Y-182877338D01*
X92958812Y-183004844D01*
X92939237Y-183104161D01*
X92931899Y-183141389D01*
X92931672Y-183145942D01*
X92931672Y-183145945D01*
X92922491Y-183330383D01*
X92918518Y-183410186D01*
X85202282Y-183410186D01*
X85206255Y-183330383D01*
X85206255Y-183330377D01*
X85206482Y-183325814D01*
X85180921Y-183057900D01*
X85154867Y-182951422D01*
X85118039Y-182800920D01*
X85116953Y-182796482D01*
X85015917Y-182547037D01*
X84879931Y-182314790D01*
X84711842Y-182104605D01*
X84515173Y-181920887D01*
X84294043Y-181767484D01*
X84053084Y-181647609D01*
X84048750Y-181646188D01*
X84048747Y-181646187D01*
X83801677Y-181565193D01*
X83801671Y-181565192D01*
X83797344Y-181563773D01*
X83792852Y-181562993D01*
X83535962Y-181518389D01*
X83535954Y-181518388D01*
X83532181Y-181517733D01*
X83522218Y-181517237D01*
X83448723Y-181513578D01*
X83448715Y-181513578D01*
X83447152Y-181513500D01*
X83279126Y-181513500D01*
X83276858Y-181513665D01*
X83276846Y-181513665D01*
X83146043Y-181523156D01*
X83079075Y-181528015D01*
X83074620Y-181528999D01*
X83074617Y-181528999D01*
X82820730Y-181585053D01*
X82820728Y-181585054D01*
X82816274Y-181586037D01*
X82564600Y-181681387D01*
X82560614Y-181683601D01*
X82560612Y-181683602D01*
X82333321Y-181809851D01*
X82329328Y-181812069D01*
X82325696Y-181814841D01*
X82119009Y-181972579D01*
X82119005Y-181972583D01*
X82115384Y-181975346D01*
X81927251Y-182167797D01*
X81924566Y-182171486D01*
X81771558Y-182381696D01*
X81771553Y-182381703D01*
X81768870Y-182385390D01*
X81643559Y-182623567D01*
X81642038Y-182627875D01*
X81570013Y-182831833D01*
X81553943Y-182877338D01*
X81528812Y-183004844D01*
X81509237Y-183104161D01*
X81501899Y-183141389D01*
X81501672Y-183145942D01*
X81501672Y-183145945D01*
X81492491Y-183330383D01*
X81488518Y-183410186D01*
X35560500Y-183410186D01*
X35560500Y-181864000D01*
X67955708Y-181864000D01*
X67974839Y-182082674D01*
X68031653Y-182294703D01*
X68056282Y-182347521D01*
X68122095Y-182488659D01*
X68122098Y-182488664D01*
X68124421Y-182493646D01*
X68127577Y-182498153D01*
X68127578Y-182498155D01*
X68215393Y-182623567D01*
X68250326Y-182673457D01*
X68405543Y-182828674D01*
X68410051Y-182831831D01*
X68410054Y-182831833D01*
X68475042Y-182877338D01*
X68585354Y-182954579D01*
X68590336Y-182956902D01*
X68590341Y-182956905D01*
X68691116Y-183003896D01*
X68784297Y-183047347D01*
X68996326Y-183104161D01*
X69215000Y-183123292D01*
X69433674Y-183104161D01*
X69645703Y-183047347D01*
X69738884Y-183003896D01*
X69839659Y-182956905D01*
X69839664Y-182956902D01*
X69844646Y-182954579D01*
X69954958Y-182877338D01*
X70019946Y-182831833D01*
X70019949Y-182831831D01*
X70024457Y-182828674D01*
X70179674Y-182673457D01*
X70214608Y-182623567D01*
X70302422Y-182498155D01*
X70302423Y-182498153D01*
X70305579Y-182493646D01*
X70307902Y-182488664D01*
X70307905Y-182488659D01*
X70373718Y-182347521D01*
X70398347Y-182294703D01*
X70455161Y-182082674D01*
X70474292Y-181864000D01*
X75194708Y-181864000D01*
X75213839Y-182082674D01*
X75270653Y-182294703D01*
X75295282Y-182347521D01*
X75361095Y-182488659D01*
X75361098Y-182488664D01*
X75363421Y-182493646D01*
X75366577Y-182498153D01*
X75366578Y-182498155D01*
X75454393Y-182623567D01*
X75489326Y-182673457D01*
X75644543Y-182828674D01*
X75649051Y-182831831D01*
X75649054Y-182831833D01*
X75714042Y-182877338D01*
X75824354Y-182954579D01*
X75829336Y-182956902D01*
X75829341Y-182956905D01*
X75930116Y-183003896D01*
X76023297Y-183047347D01*
X76235326Y-183104161D01*
X76454000Y-183123292D01*
X76672674Y-183104161D01*
X76884703Y-183047347D01*
X76977884Y-183003896D01*
X77078659Y-182956905D01*
X77078664Y-182956902D01*
X77083646Y-182954579D01*
X77193958Y-182877338D01*
X77258946Y-182831833D01*
X77258949Y-182831831D01*
X77263457Y-182828674D01*
X77418674Y-182673457D01*
X77453608Y-182623567D01*
X77541422Y-182498155D01*
X77541423Y-182498153D01*
X77544579Y-182493646D01*
X77546904Y-182488661D01*
X77546907Y-182488655D01*
X77567146Y-182445251D01*
X77614063Y-182391965D01*
X77681341Y-182372500D01*
X78100042Y-182372500D01*
X78148260Y-182382091D01*
X78205364Y-182405744D01*
X78212993Y-182408904D01*
X78221177Y-182409981D01*
X78221179Y-182409982D01*
X78350812Y-182427048D01*
X78359000Y-182428126D01*
X78367188Y-182427048D01*
X78496821Y-182409982D01*
X78496823Y-182409981D01*
X78505007Y-182408904D01*
X78641063Y-182352547D01*
X78757897Y-182262897D01*
X78847547Y-182146063D01*
X78903904Y-182010007D01*
X78908832Y-181972579D01*
X78922048Y-181872188D01*
X78923126Y-181864000D01*
X78903904Y-181717993D01*
X78847547Y-181581937D01*
X78757897Y-181465103D01*
X78641063Y-181375453D01*
X78505007Y-181319096D01*
X78496823Y-181318019D01*
X78496821Y-181318018D01*
X78367188Y-181300952D01*
X78359000Y-181299874D01*
X78350812Y-181300952D01*
X78221179Y-181318018D01*
X78221177Y-181318019D01*
X78212993Y-181319096D01*
X78205364Y-181322256D01*
X78148260Y-181345909D01*
X78100042Y-181355500D01*
X77681341Y-181355500D01*
X77613220Y-181335498D01*
X77567146Y-181282749D01*
X77546907Y-181239345D01*
X77546904Y-181239339D01*
X77544579Y-181234354D01*
X77514098Y-181190822D01*
X77421833Y-181059054D01*
X77421831Y-181059051D01*
X77418674Y-181054543D01*
X77263457Y-180899326D01*
X77258949Y-180896169D01*
X77258946Y-180896167D01*
X77088155Y-180776578D01*
X77088153Y-180776577D01*
X77083646Y-180773421D01*
X77078664Y-180771098D01*
X77078659Y-180771095D01*
X76955118Y-180713488D01*
X76884703Y-180680653D01*
X76672674Y-180623839D01*
X76454000Y-180604708D01*
X76235326Y-180623839D01*
X76023297Y-180680653D01*
X75952882Y-180713488D01*
X75829341Y-180771095D01*
X75829336Y-180771098D01*
X75824354Y-180773421D01*
X75819847Y-180776577D01*
X75819845Y-180776578D01*
X75649054Y-180896167D01*
X75649051Y-180896169D01*
X75644543Y-180899326D01*
X75489326Y-181054543D01*
X75486169Y-181059051D01*
X75486167Y-181059054D01*
X75393902Y-181190822D01*
X75363421Y-181234354D01*
X75361098Y-181239336D01*
X75361095Y-181239341D01*
X75332366Y-181300952D01*
X75270653Y-181433297D01*
X75213839Y-181645326D01*
X75194708Y-181864000D01*
X70474292Y-181864000D01*
X70455161Y-181645326D01*
X70398347Y-181433297D01*
X70336634Y-181300952D01*
X70307905Y-181239341D01*
X70307902Y-181239336D01*
X70305579Y-181234354D01*
X70275098Y-181190822D01*
X70182833Y-181059054D01*
X70182831Y-181059051D01*
X70179674Y-181054543D01*
X70024457Y-180899326D01*
X70019949Y-180896169D01*
X70019946Y-180896167D01*
X69849155Y-180776578D01*
X69849153Y-180776577D01*
X69844646Y-180773421D01*
X69839658Y-180771095D01*
X69839655Y-180771093D01*
X69796251Y-180750854D01*
X69742965Y-180703937D01*
X69723500Y-180636659D01*
X69723500Y-178943000D01*
X71765708Y-178943000D01*
X71784839Y-179161674D01*
X71841653Y-179373703D01*
X71873114Y-179441171D01*
X71932095Y-179567659D01*
X71932098Y-179567664D01*
X71934421Y-179572646D01*
X71937577Y-179577153D01*
X71937578Y-179577155D01*
X71967182Y-179619433D01*
X72060326Y-179752457D01*
X72215543Y-179907674D01*
X72220051Y-179910831D01*
X72220054Y-179910833D01*
X72390845Y-180030422D01*
X72395354Y-180033579D01*
X72400336Y-180035902D01*
X72400341Y-180035905D01*
X72501116Y-180082896D01*
X72594297Y-180126347D01*
X72806326Y-180183161D01*
X73025000Y-180202292D01*
X73243674Y-180183161D01*
X73455703Y-180126347D01*
X73548884Y-180082896D01*
X73649659Y-180035905D01*
X73649664Y-180035902D01*
X73654646Y-180033579D01*
X73659155Y-180030422D01*
X73829946Y-179910833D01*
X73829949Y-179910831D01*
X73834457Y-179907674D01*
X73989674Y-179752457D01*
X74082819Y-179619433D01*
X74112422Y-179577155D01*
X74112423Y-179577153D01*
X74115579Y-179572646D01*
X74117904Y-179567661D01*
X74117907Y-179567655D01*
X74138146Y-179524251D01*
X74185063Y-179470965D01*
X74252341Y-179451500D01*
X75814042Y-179451500D01*
X75862260Y-179461091D01*
X75919364Y-179484744D01*
X75926993Y-179487904D01*
X75935177Y-179488981D01*
X75935179Y-179488982D01*
X76064812Y-179506048D01*
X76073000Y-179507126D01*
X76081188Y-179506048D01*
X76210821Y-179488982D01*
X76210823Y-179488981D01*
X76219007Y-179487904D01*
X76355063Y-179431547D01*
X76471897Y-179341897D01*
X76561547Y-179225063D01*
X76617904Y-179089007D01*
X76619213Y-179079070D01*
X76634067Y-178966232D01*
X76637126Y-178943000D01*
X76617904Y-178796993D01*
X76561547Y-178660937D01*
X76471897Y-178544103D01*
X76355063Y-178454453D01*
X76219007Y-178398096D01*
X76210823Y-178397019D01*
X76210821Y-178397018D01*
X76081188Y-178379952D01*
X76073000Y-178378874D01*
X76064812Y-178379952D01*
X75935179Y-178397018D01*
X75935177Y-178397019D01*
X75926993Y-178398096D01*
X75919364Y-178401256D01*
X75862260Y-178424909D01*
X75814042Y-178434500D01*
X74252341Y-178434500D01*
X74184220Y-178414498D01*
X74138146Y-178361749D01*
X74117907Y-178318345D01*
X74117904Y-178318339D01*
X74115579Y-178313354D01*
X74109498Y-178304669D01*
X73992833Y-178138054D01*
X73992831Y-178138051D01*
X73989674Y-178133543D01*
X73834457Y-177978326D01*
X73829949Y-177975169D01*
X73829946Y-177975167D01*
X73659155Y-177855578D01*
X73659153Y-177855577D01*
X73654646Y-177852421D01*
X73649664Y-177850098D01*
X73649659Y-177850095D01*
X73527358Y-177793066D01*
X73455703Y-177759653D01*
X73243674Y-177702839D01*
X73025000Y-177683708D01*
X72806326Y-177702839D01*
X72594297Y-177759653D01*
X72522642Y-177793066D01*
X72400341Y-177850095D01*
X72400336Y-177850098D01*
X72395354Y-177852421D01*
X72390847Y-177855577D01*
X72390845Y-177855578D01*
X72220054Y-177975167D01*
X72220051Y-177975169D01*
X72215543Y-177978326D01*
X72060326Y-178133543D01*
X72057169Y-178138051D01*
X72057167Y-178138054D01*
X71940502Y-178304669D01*
X71934421Y-178313354D01*
X71932098Y-178318336D01*
X71932095Y-178318341D01*
X71904440Y-178377649D01*
X71841653Y-178512297D01*
X71784839Y-178724326D01*
X71765708Y-178943000D01*
X69723500Y-178943000D01*
X69723500Y-177677958D01*
X69733091Y-177629740D01*
X69756744Y-177572636D01*
X69759904Y-177565007D01*
X69763077Y-177540911D01*
X69777163Y-177433907D01*
X69779126Y-177419000D01*
X69768980Y-177341934D01*
X69760982Y-177281179D01*
X69760981Y-177281177D01*
X69759904Y-177272993D01*
X69703547Y-177136937D01*
X69613897Y-177020103D01*
X69497063Y-176930453D01*
X69361007Y-176874096D01*
X69352823Y-176873019D01*
X69352821Y-176873018D01*
X69223188Y-176855952D01*
X69215000Y-176854874D01*
X69206812Y-176855952D01*
X69077179Y-176873018D01*
X69077177Y-176873019D01*
X69068993Y-176874096D01*
X68932937Y-176930453D01*
X68816103Y-177020103D01*
X68726453Y-177136937D01*
X68670096Y-177272993D01*
X68669019Y-177281177D01*
X68669018Y-177281179D01*
X68661020Y-177341934D01*
X68650874Y-177419000D01*
X68652837Y-177433907D01*
X68666924Y-177540911D01*
X68670096Y-177565007D01*
X68673256Y-177572636D01*
X68696909Y-177629740D01*
X68706500Y-177677958D01*
X68706500Y-180636659D01*
X68686498Y-180704780D01*
X68633749Y-180750854D01*
X68590345Y-180771093D01*
X68590342Y-180771095D01*
X68585354Y-180773421D01*
X68580847Y-180776577D01*
X68580845Y-180776578D01*
X68410054Y-180896167D01*
X68410051Y-180896169D01*
X68405543Y-180899326D01*
X68250326Y-181054543D01*
X68247169Y-181059051D01*
X68247167Y-181059054D01*
X68154902Y-181190822D01*
X68124421Y-181234354D01*
X68122098Y-181239336D01*
X68122095Y-181239341D01*
X68093366Y-181300952D01*
X68031653Y-181433297D01*
X67974839Y-181645326D01*
X67955708Y-181864000D01*
X35560500Y-181864000D01*
X35560500Y-175895000D01*
X75194708Y-175895000D01*
X75213839Y-176113674D01*
X75270653Y-176325703D01*
X75296948Y-176382093D01*
X75361095Y-176519659D01*
X75361098Y-176519664D01*
X75363421Y-176524646D01*
X75366577Y-176529153D01*
X75366578Y-176529155D01*
X75450642Y-176649210D01*
X75489326Y-176704457D01*
X75644543Y-176859674D01*
X75649051Y-176862831D01*
X75649054Y-176862833D01*
X75819845Y-176982422D01*
X75824354Y-176985579D01*
X75829336Y-176987902D01*
X75829341Y-176987905D01*
X75905623Y-177023475D01*
X76023297Y-177078347D01*
X76235326Y-177135161D01*
X76454000Y-177154292D01*
X76672674Y-177135161D01*
X76884703Y-177078347D01*
X77002377Y-177023475D01*
X77078659Y-176987905D01*
X77078664Y-176987902D01*
X77083646Y-176985579D01*
X77088155Y-176982422D01*
X77258946Y-176862833D01*
X77258949Y-176862831D01*
X77263457Y-176859674D01*
X77418674Y-176704457D01*
X77457359Y-176649210D01*
X77541422Y-176529155D01*
X77541423Y-176529153D01*
X77544579Y-176524646D01*
X77546902Y-176519664D01*
X77546905Y-176519659D01*
X77611052Y-176382093D01*
X77637347Y-176325703D01*
X77694161Y-176113674D01*
X77713292Y-175895000D01*
X77694161Y-175676326D01*
X77692738Y-175671014D01*
X77692736Y-175671005D01*
X77649093Y-175508130D01*
X77650782Y-175437153D01*
X77681704Y-175386423D01*
X78024722Y-175043405D01*
X78087034Y-175009379D01*
X78113817Y-175006500D01*
X78227042Y-175006500D01*
X78275260Y-175016091D01*
X78318615Y-175034049D01*
X78339993Y-175042904D01*
X78348177Y-175043981D01*
X78348179Y-175043982D01*
X78477812Y-175061048D01*
X78486000Y-175062126D01*
X78494188Y-175061048D01*
X78623821Y-175043982D01*
X78623823Y-175043981D01*
X78632007Y-175042904D01*
X78768063Y-174986547D01*
X78884897Y-174896897D01*
X78974547Y-174780063D01*
X79030904Y-174644007D01*
X79032702Y-174630354D01*
X79049048Y-174506188D01*
X79050126Y-174498000D01*
X79030904Y-174351993D01*
X78974547Y-174215937D01*
X78884897Y-174099103D01*
X78768063Y-174009453D01*
X78632007Y-173953096D01*
X78623823Y-173952019D01*
X78623821Y-173952018D01*
X78494188Y-173934952D01*
X78486000Y-173933874D01*
X78477812Y-173934952D01*
X78348179Y-173952018D01*
X78348177Y-173952019D01*
X78339993Y-173953096D01*
X78332364Y-173956256D01*
X78275260Y-173979909D01*
X78227042Y-173989500D01*
X77922073Y-173989500D01*
X77909944Y-173988145D01*
X77909905Y-173988627D01*
X77900954Y-173987907D01*
X77892200Y-173985926D01*
X77838491Y-173989258D01*
X77830689Y-173989500D01*
X77814487Y-173989500D01*
X77805571Y-173990777D01*
X77804122Y-173990984D01*
X77794072Y-173992013D01*
X77755781Y-173994389D01*
X77755780Y-173994389D01*
X77746822Y-173994945D01*
X77738381Y-173997993D01*
X77735467Y-173998596D01*
X77718548Y-174002815D01*
X77715702Y-174003647D01*
X77706813Y-174004920D01*
X77663691Y-174024526D01*
X77654336Y-174028334D01*
X77609819Y-174044405D01*
X77602571Y-174049700D01*
X77599964Y-174051086D01*
X77584877Y-174059901D01*
X77582386Y-174061494D01*
X77574218Y-174065208D01*
X77538345Y-174096118D01*
X77530445Y-174102390D01*
X77519447Y-174110425D01*
X77508472Y-174121400D01*
X77501624Y-174127758D01*
X77470676Y-174154424D01*
X77470672Y-174154429D01*
X77463873Y-174160287D01*
X77458991Y-174167820D01*
X77453540Y-174174068D01*
X77443949Y-174185923D01*
X77183223Y-174446650D01*
X76962577Y-174667296D01*
X76900264Y-174701321D01*
X76840869Y-174699907D01*
X76677994Y-174656264D01*
X76677988Y-174656263D01*
X76672674Y-174654839D01*
X76454000Y-174635708D01*
X76235326Y-174654839D01*
X76023297Y-174711653D01*
X76000439Y-174722312D01*
X75829341Y-174802095D01*
X75829336Y-174802098D01*
X75824354Y-174804421D01*
X75819847Y-174807577D01*
X75819845Y-174807578D01*
X75649054Y-174927167D01*
X75649051Y-174927169D01*
X75644543Y-174930326D01*
X75489326Y-175085543D01*
X75486169Y-175090051D01*
X75486167Y-175090054D01*
X75367170Y-175260000D01*
X75363421Y-175265354D01*
X75361098Y-175270336D01*
X75361095Y-175270341D01*
X75332965Y-175330667D01*
X75270653Y-175464297D01*
X75213839Y-175676326D01*
X75194708Y-175895000D01*
X35560500Y-175895000D01*
X35560500Y-175723475D01*
X35548386Y-175619572D01*
X35545949Y-175598665D01*
X35545949Y-175598663D01*
X35545101Y-175591393D01*
X35538299Y-175572652D01*
X35486931Y-175431138D01*
X35484434Y-175424259D01*
X35386946Y-175275565D01*
X35257865Y-175153286D01*
X35104116Y-175063981D01*
X34933946Y-175012442D01*
X34756484Y-175001432D01*
X34749268Y-175002672D01*
X34749266Y-175002672D01*
X34588465Y-175030303D01*
X34581249Y-175031543D01*
X34417641Y-175101159D01*
X34274436Y-175206546D01*
X34258877Y-175224860D01*
X34164055Y-175336472D01*
X34164052Y-175336476D01*
X34159316Y-175342051D01*
X34155987Y-175348571D01*
X34155986Y-175348572D01*
X34121418Y-175416270D01*
X34085231Y-175487139D01*
X34081717Y-175494020D01*
X34032924Y-175545593D01*
X33963994Y-175562600D01*
X33896813Y-175539640D01*
X33852709Y-175484004D01*
X33843500Y-175436720D01*
X33843499Y-174031123D01*
X33843499Y-174024934D01*
X33835851Y-173986482D01*
X33831156Y-173962874D01*
X33831155Y-173962872D01*
X33828734Y-173950699D01*
X33772484Y-173866516D01*
X33688301Y-173810266D01*
X33614067Y-173795500D01*
X32339207Y-173795500D01*
X31063934Y-173795501D01*
X31028182Y-173802612D01*
X31001874Y-173807844D01*
X31001872Y-173807845D01*
X30989699Y-173810266D01*
X30979379Y-173817161D01*
X30979378Y-173817162D01*
X30918985Y-173857516D01*
X30905516Y-173866516D01*
X30849266Y-173950699D01*
X30834500Y-174024933D01*
X30834500Y-174371500D01*
X30814498Y-174439621D01*
X30760842Y-174486114D01*
X30708500Y-174497500D01*
X29256204Y-174497500D01*
X29188083Y-174477498D01*
X29160611Y-174453309D01*
X29158674Y-174450543D01*
X29003457Y-174295326D01*
X28998949Y-174292169D01*
X28998946Y-174292167D01*
X28828155Y-174172578D01*
X28828153Y-174172577D01*
X28823646Y-174169421D01*
X28818664Y-174167098D01*
X28818659Y-174167095D01*
X28697128Y-174110425D01*
X28624703Y-174076653D01*
X28412674Y-174019839D01*
X28194000Y-174000708D01*
X27975326Y-174019839D01*
X27763297Y-174076653D01*
X27690872Y-174110425D01*
X27569341Y-174167095D01*
X27569336Y-174167098D01*
X27564354Y-174169421D01*
X27559847Y-174172577D01*
X27559845Y-174172578D01*
X27389054Y-174292167D01*
X27389051Y-174292169D01*
X27384543Y-174295326D01*
X27229326Y-174450543D01*
X27226169Y-174455051D01*
X27226167Y-174455054D01*
X27165726Y-174541373D01*
X27103421Y-174630354D01*
X27101098Y-174635336D01*
X27101095Y-174635341D01*
X27070329Y-174701321D01*
X27010653Y-174829297D01*
X26953839Y-175041326D01*
X26934708Y-175260000D01*
X26953839Y-175478674D01*
X27010653Y-175690703D01*
X27012978Y-175695688D01*
X27101095Y-175884659D01*
X27101098Y-175884664D01*
X27103421Y-175889646D01*
X27106577Y-175894153D01*
X27106578Y-175894155D01*
X27205312Y-176035161D01*
X27229326Y-176069457D01*
X27384543Y-176224674D01*
X27389051Y-176227831D01*
X27389054Y-176227833D01*
X27559845Y-176347422D01*
X27564354Y-176350579D01*
X27569336Y-176352902D01*
X27569341Y-176352905D01*
X27631936Y-176382093D01*
X27763297Y-176443347D01*
X27975326Y-176500161D01*
X28194000Y-176519292D01*
X28412674Y-176500161D01*
X28624703Y-176443347D01*
X28756064Y-176382093D01*
X28818659Y-176352905D01*
X28818664Y-176352902D01*
X28823646Y-176350579D01*
X28828155Y-176347422D01*
X28998946Y-176227833D01*
X28998949Y-176227831D01*
X29003457Y-176224674D01*
X29158674Y-176069457D01*
X29160349Y-176067064D01*
X29218795Y-176028182D01*
X29256204Y-176022500D01*
X30708501Y-176022500D01*
X30776622Y-176042502D01*
X30823115Y-176096158D01*
X30834501Y-176148500D01*
X30834501Y-176575066D01*
X30837751Y-176591405D01*
X30845595Y-176630843D01*
X30849266Y-176649301D01*
X30856161Y-176659621D01*
X30856162Y-176659622D01*
X30888724Y-176708354D01*
X30905516Y-176733484D01*
X30989699Y-176789734D01*
X31063933Y-176804500D01*
X32338793Y-176804500D01*
X33614066Y-176804499D01*
X33649818Y-176797388D01*
X33676126Y-176792156D01*
X33676128Y-176792155D01*
X33688301Y-176789734D01*
X33698621Y-176782839D01*
X33698622Y-176782838D01*
X33762168Y-176740377D01*
X33772484Y-176733484D01*
X33789276Y-176708354D01*
X33804736Y-176685217D01*
X33859213Y-176639690D01*
X33929656Y-176630843D01*
X33993700Y-176661484D01*
X34031011Y-176721886D01*
X34035500Y-176755220D01*
X34035500Y-179857098D01*
X34015498Y-179925219D01*
X33961842Y-179971712D01*
X33891568Y-179981816D01*
X33826988Y-179952322D01*
X33786981Y-179886512D01*
X33775444Y-179838458D01*
X33774289Y-179833646D01*
X33772395Y-179829073D01*
X33685559Y-179619433D01*
X33685557Y-179619429D01*
X33683664Y-179614859D01*
X33559930Y-179412943D01*
X33406132Y-179232868D01*
X33226057Y-179079070D01*
X33024141Y-178955336D01*
X33019571Y-178953443D01*
X33019567Y-178953441D01*
X32809927Y-178866605D01*
X32809925Y-178866604D01*
X32805354Y-178864711D01*
X32725501Y-178845540D01*
X32579896Y-178810583D01*
X32579890Y-178810582D01*
X32575083Y-178809428D01*
X32339000Y-178790848D01*
X32102917Y-178809428D01*
X32098110Y-178810582D01*
X32098104Y-178810583D01*
X31952499Y-178845540D01*
X31872646Y-178864711D01*
X31868075Y-178866604D01*
X31868073Y-178866605D01*
X31658433Y-178953441D01*
X31658429Y-178953443D01*
X31653859Y-178955336D01*
X31451943Y-179079070D01*
X31271868Y-179232868D01*
X31118070Y-179412943D01*
X31115486Y-179417160D01*
X31115482Y-179417166D01*
X31054099Y-179517334D01*
X31001452Y-179564966D01*
X30946666Y-179577500D01*
X29256204Y-179577500D01*
X29188083Y-179557498D01*
X29160611Y-179533309D01*
X29158674Y-179530543D01*
X29003457Y-179375326D01*
X28998949Y-179372169D01*
X28998946Y-179372167D01*
X28828155Y-179252578D01*
X28828153Y-179252577D01*
X28823646Y-179249421D01*
X28818664Y-179247098D01*
X28818659Y-179247095D01*
X28717884Y-179200104D01*
X28624703Y-179156653D01*
X28412674Y-179099839D01*
X28194000Y-179080708D01*
X27975326Y-179099839D01*
X27763297Y-179156653D01*
X27670116Y-179200104D01*
X27569341Y-179247095D01*
X27569336Y-179247098D01*
X27564354Y-179249421D01*
X27559847Y-179252577D01*
X27559845Y-179252578D01*
X27389054Y-179372167D01*
X27389051Y-179372169D01*
X27384543Y-179375326D01*
X27229326Y-179530543D01*
X27226169Y-179535051D01*
X27226167Y-179535054D01*
X27106578Y-179705845D01*
X27103421Y-179710354D01*
X27101098Y-179715336D01*
X27101095Y-179715341D01*
X27083788Y-179752457D01*
X27010653Y-179909297D01*
X26953839Y-180121326D01*
X26934708Y-180340000D01*
X26953839Y-180558674D01*
X27010653Y-180770703D01*
X27012978Y-180775688D01*
X27101095Y-180964659D01*
X27101098Y-180964664D01*
X27103421Y-180969646D01*
X27106577Y-180974153D01*
X27106578Y-180974155D01*
X27162867Y-181054543D01*
X27229326Y-181149457D01*
X27384543Y-181304674D01*
X27389051Y-181307831D01*
X27389054Y-181307833D01*
X27559845Y-181427422D01*
X27564354Y-181430579D01*
X27569336Y-181432902D01*
X27569341Y-181432905D01*
X27627613Y-181460077D01*
X27763297Y-181523347D01*
X27975326Y-181580161D01*
X28194000Y-181599292D01*
X28412674Y-181580161D01*
X28624703Y-181523347D01*
X28760387Y-181460077D01*
X28818659Y-181432905D01*
X28818664Y-181432902D01*
X28823646Y-181430579D01*
X28828155Y-181427422D01*
X28998946Y-181307833D01*
X28998949Y-181307831D01*
X29003457Y-181304674D01*
X29158674Y-181149457D01*
X29160349Y-181147064D01*
X29218795Y-181108182D01*
X29256204Y-181102500D01*
X30995690Y-181102500D01*
X31063811Y-181122502D01*
X31103122Y-181162665D01*
X31115481Y-181182833D01*
X31115485Y-181182838D01*
X31118070Y-181187057D01*
X31271868Y-181367132D01*
X31451943Y-181520930D01*
X31653859Y-181644664D01*
X31658429Y-181646557D01*
X31658433Y-181646559D01*
X31868073Y-181733395D01*
X31868075Y-181733396D01*
X31872646Y-181735289D01*
X31952499Y-181754460D01*
X32098104Y-181789417D01*
X32098110Y-181789418D01*
X32102917Y-181790572D01*
X32339000Y-181809152D01*
X32575083Y-181790572D01*
X32579890Y-181789418D01*
X32579896Y-181789417D01*
X32725501Y-181754460D01*
X32805354Y-181735289D01*
X32809925Y-181733396D01*
X32809927Y-181733395D01*
X33019567Y-181646559D01*
X33019571Y-181646557D01*
X33024141Y-181644664D01*
X33226057Y-181520930D01*
X33406132Y-181367132D01*
X33559930Y-181187057D01*
X33683664Y-180985141D01*
X33690083Y-180969646D01*
X33772395Y-180770927D01*
X33772396Y-180770925D01*
X33774289Y-180766354D01*
X33786981Y-180713488D01*
X33822333Y-180651919D01*
X33885360Y-180619236D01*
X33956051Y-180625817D01*
X34011962Y-180669571D01*
X34035500Y-180742902D01*
X34035500Y-189035624D01*
X34034067Y-189054574D01*
X34031876Y-189068973D01*
X34031876Y-189068979D01*
X34030776Y-189076208D01*
X34031369Y-189083500D01*
X34031369Y-189083503D01*
X34035085Y-189129183D01*
X34035500Y-189139398D01*
X34035500Y-189147525D01*
X34038811Y-189175924D01*
X34039238Y-189180244D01*
X34045191Y-189253426D01*
X34047447Y-189260388D01*
X34048643Y-189266376D01*
X34050051Y-189272333D01*
X34050899Y-189279607D01*
X34053397Y-189286489D01*
X34053398Y-189286493D01*
X34075945Y-189348607D01*
X34077355Y-189352711D01*
X34099987Y-189422575D01*
X34103787Y-189428838D01*
X34106325Y-189434380D01*
X34109067Y-189439856D01*
X34111566Y-189446741D01*
X34115581Y-189452865D01*
X34151815Y-189508132D01*
X34154130Y-189511800D01*
X34192227Y-189574581D01*
X34195941Y-189578786D01*
X34195943Y-189578789D01*
X34199667Y-189583005D01*
X34199638Y-189583031D01*
X34202238Y-189585962D01*
X34205042Y-189589316D01*
X34209054Y-189595435D01*
X34251131Y-189635295D01*
X34265586Y-189648988D01*
X34268028Y-189651366D01*
X35536567Y-190919905D01*
X35570593Y-190982217D01*
X35565528Y-191053032D01*
X35522981Y-191109868D01*
X35456461Y-191134679D01*
X35447472Y-191135000D01*
X31470313Y-191135000D01*
X31402192Y-191114998D01*
X31355699Y-191061342D01*
X31345595Y-190991068D01*
X31375089Y-190926488D01*
X31409805Y-190898479D01*
X31424635Y-190890360D01*
X31730331Y-190722997D01*
X32050584Y-190502893D01*
X32346955Y-190251552D01*
X32349160Y-190249260D01*
X32349166Y-190249255D01*
X32614194Y-189973850D01*
X32614196Y-189973847D01*
X32616409Y-189971548D01*
X32698753Y-189866531D01*
X32854213Y-189668265D01*
X32854216Y-189668260D01*
X32856187Y-189665747D01*
X33063835Y-189337281D01*
X33065255Y-189334433D01*
X33065260Y-189334424D01*
X33235806Y-188992360D01*
X33237226Y-188989512D01*
X33374585Y-188626001D01*
X33384791Y-188587646D01*
X33473685Y-188253555D01*
X33474506Y-188250470D01*
X33535966Y-187866764D01*
X33538091Y-187829921D01*
X33558237Y-187480505D01*
X33558335Y-187478811D01*
X33558429Y-187452000D01*
X33538769Y-187063900D01*
X33479989Y-186679775D01*
X33382692Y-186303555D01*
X33381587Y-186300567D01*
X33248983Y-185942091D01*
X33248980Y-185942085D01*
X33247874Y-185939094D01*
X33076915Y-185590123D01*
X32871565Y-185260215D01*
X32727343Y-185073613D01*
X32635880Y-184955273D01*
X32635875Y-184955268D01*
X32633928Y-184952748D01*
X32503317Y-184815113D01*
X32368634Y-184673186D01*
X32368631Y-184673184D01*
X32366435Y-184670869D01*
X32251260Y-184571803D01*
X32074241Y-184419543D01*
X32074238Y-184419541D01*
X32071826Y-184417466D01*
X32069218Y-184415646D01*
X32069212Y-184415642D01*
X31790019Y-184220874D01*
X31753117Y-184195131D01*
X31413572Y-184006143D01*
X31410652Y-184004885D01*
X31410647Y-184004883D01*
X31059600Y-183853698D01*
X31059590Y-183853694D01*
X31056666Y-183852435D01*
X30686054Y-183735582D01*
X30386505Y-183673548D01*
X30308656Y-183657426D01*
X30308653Y-183657426D01*
X30305531Y-183656779D01*
X30008323Y-183626065D01*
X29922149Y-183617160D01*
X29922146Y-183617160D01*
X29918993Y-183616834D01*
X29915827Y-183616828D01*
X29915818Y-183616828D01*
X29723969Y-183616494D01*
X29530396Y-183616156D01*
X29376545Y-183631512D01*
X29146893Y-183654434D01*
X29146887Y-183654435D01*
X29143720Y-183654751D01*
X29007133Y-183682540D01*
X28766049Y-183731589D01*
X28766045Y-183731590D01*
X28762924Y-183732225D01*
X28759882Y-183733172D01*
X28759876Y-183733174D01*
X28606432Y-183780967D01*
X28391907Y-183847784D01*
X28388979Y-183849033D01*
X28037397Y-183998995D01*
X28037393Y-183998997D01*
X28034467Y-184000245D01*
X28031688Y-184001779D01*
X28031682Y-184001782D01*
X27823913Y-184116477D01*
X27694264Y-184188047D01*
X27374781Y-184409268D01*
X27190890Y-184566326D01*
X27105808Y-184638993D01*
X27079289Y-184661642D01*
X26810814Y-184942585D01*
X26808857Y-184945099D01*
X26808856Y-184945100D01*
X26592967Y-185222422D01*
X26572105Y-185249220D01*
X26570409Y-185251924D01*
X26570406Y-185251928D01*
X26471462Y-185409659D01*
X26365605Y-185578410D01*
X26277426Y-185756828D01*
X26273957Y-185763846D01*
X26225843Y-185816053D01*
X26157142Y-185833960D01*
X26089666Y-185811882D01*
X26044838Y-185756828D01*
X26035000Y-185708019D01*
X26035000Y-173101000D01*
X71765708Y-173101000D01*
X71784839Y-173319674D01*
X71841653Y-173531703D01*
X71870312Y-173593162D01*
X71932095Y-173725659D01*
X71932098Y-173725664D01*
X71934421Y-173730646D01*
X71937577Y-173735153D01*
X71937578Y-173735155D01*
X72036782Y-173876832D01*
X72060326Y-173910457D01*
X72215543Y-174065674D01*
X72220051Y-174068831D01*
X72220054Y-174068833D01*
X72387276Y-174185923D01*
X72395354Y-174191579D01*
X72400336Y-174193902D01*
X72400341Y-174193905D01*
X72445975Y-174215184D01*
X72594297Y-174284347D01*
X72806326Y-174341161D01*
X73025000Y-174360292D01*
X73243674Y-174341161D01*
X73455703Y-174284347D01*
X73604025Y-174215184D01*
X73649659Y-174193905D01*
X73649664Y-174193902D01*
X73654646Y-174191579D01*
X73662724Y-174185923D01*
X73829946Y-174068833D01*
X73829949Y-174068831D01*
X73834457Y-174065674D01*
X73989674Y-173910457D01*
X74013219Y-173876832D01*
X74112422Y-173735155D01*
X74112423Y-173735153D01*
X74115579Y-173730646D01*
X74117902Y-173725664D01*
X74117905Y-173725659D01*
X74179688Y-173593162D01*
X74208347Y-173531703D01*
X74265161Y-173319674D01*
X74284292Y-173101000D01*
X74265161Y-172882326D01*
X74263738Y-172877014D01*
X74263736Y-172877005D01*
X74220758Y-172716612D01*
X74222447Y-172645635D01*
X74262240Y-172586839D01*
X74327505Y-172558891D01*
X74342464Y-172558000D01*
X78262542Y-172558000D01*
X78310760Y-172567591D01*
X78367864Y-172591244D01*
X78375493Y-172594404D01*
X78383677Y-172595481D01*
X78383679Y-172595482D01*
X78513312Y-172612548D01*
X78521500Y-172613626D01*
X78529688Y-172612548D01*
X78659321Y-172595482D01*
X78659323Y-172595481D01*
X78667507Y-172594404D01*
X78803563Y-172538047D01*
X78920397Y-172448397D01*
X79010047Y-172331563D01*
X79066404Y-172195507D01*
X79067608Y-172186366D01*
X79084548Y-172057688D01*
X79085626Y-172049500D01*
X79080175Y-172008095D01*
X79067482Y-171911679D01*
X79067481Y-171911677D01*
X79066404Y-171903493D01*
X79010047Y-171767437D01*
X78920397Y-171650603D01*
X78803563Y-171560953D01*
X78667507Y-171504596D01*
X78659323Y-171503519D01*
X78659321Y-171503518D01*
X78529688Y-171486452D01*
X78521500Y-171485374D01*
X78513312Y-171486452D01*
X78383679Y-171503518D01*
X78383677Y-171503519D01*
X78375493Y-171504596D01*
X78367864Y-171507756D01*
X78310760Y-171531409D01*
X78262542Y-171541000D01*
X77072076Y-171541000D01*
X77003955Y-171520998D01*
X76957462Y-171467342D01*
X76947358Y-171397068D01*
X76976852Y-171332488D01*
X77018826Y-171300805D01*
X77078659Y-171272905D01*
X77078664Y-171272902D01*
X77083646Y-171270579D01*
X77088155Y-171267422D01*
X77258946Y-171147833D01*
X77258949Y-171147831D01*
X77263457Y-171144674D01*
X77418674Y-170989457D01*
X77544579Y-170809646D01*
X77546904Y-170804661D01*
X77546907Y-170804655D01*
X77567146Y-170761251D01*
X77614063Y-170707965D01*
X77681341Y-170688500D01*
X78227042Y-170688500D01*
X78275260Y-170698091D01*
X78332364Y-170721744D01*
X78339993Y-170724904D01*
X78348177Y-170725981D01*
X78348179Y-170725982D01*
X78477812Y-170743048D01*
X78486000Y-170744126D01*
X78494188Y-170743048D01*
X78623821Y-170725982D01*
X78623823Y-170725981D01*
X78632007Y-170724904D01*
X78768063Y-170668547D01*
X78884897Y-170578897D01*
X78974547Y-170462063D01*
X79030904Y-170326007D01*
X79041824Y-170243065D01*
X79049048Y-170188188D01*
X79050126Y-170180000D01*
X79046904Y-170155523D01*
X79031982Y-170042179D01*
X79031981Y-170042177D01*
X79030904Y-170033993D01*
X78974547Y-169897937D01*
X78884897Y-169781103D01*
X78768063Y-169691453D01*
X78632007Y-169635096D01*
X78623823Y-169634019D01*
X78623821Y-169634018D01*
X78494188Y-169616952D01*
X78486000Y-169615874D01*
X78477812Y-169616952D01*
X78348179Y-169634018D01*
X78348177Y-169634019D01*
X78339993Y-169635096D01*
X78332364Y-169638256D01*
X78275260Y-169661909D01*
X78227042Y-169671500D01*
X77681341Y-169671500D01*
X77613220Y-169651498D01*
X77567146Y-169598749D01*
X77546907Y-169555345D01*
X77546904Y-169555339D01*
X77544579Y-169550354D01*
X77527521Y-169525993D01*
X77421833Y-169375054D01*
X77421831Y-169375051D01*
X77418674Y-169370543D01*
X77263457Y-169215326D01*
X77258949Y-169212169D01*
X77258946Y-169212167D01*
X77088155Y-169092578D01*
X77088153Y-169092577D01*
X77083646Y-169089421D01*
X77078664Y-169087098D01*
X77078659Y-169087095D01*
X76977884Y-169040104D01*
X76884703Y-168996653D01*
X76672674Y-168939839D01*
X76454000Y-168920708D01*
X76235326Y-168939839D01*
X76023297Y-168996653D01*
X75930116Y-169040104D01*
X75829341Y-169087095D01*
X75829336Y-169087098D01*
X75824354Y-169089421D01*
X75819847Y-169092577D01*
X75819845Y-169092578D01*
X75649054Y-169212167D01*
X75649051Y-169212169D01*
X75644543Y-169215326D01*
X75489326Y-169370543D01*
X75486169Y-169375051D01*
X75486167Y-169375054D01*
X75380479Y-169525993D01*
X75363421Y-169550354D01*
X75361098Y-169555336D01*
X75361095Y-169555341D01*
X75340854Y-169598749D01*
X75270653Y-169749297D01*
X75213839Y-169961326D01*
X75194708Y-170180000D01*
X75213839Y-170398674D01*
X75270653Y-170610703D01*
X75272978Y-170615688D01*
X75361095Y-170804659D01*
X75361098Y-170804664D01*
X75363421Y-170809646D01*
X75489326Y-170989457D01*
X75644543Y-171144674D01*
X75649051Y-171147831D01*
X75649054Y-171147833D01*
X75819845Y-171267422D01*
X75824354Y-171270579D01*
X75829336Y-171272902D01*
X75829341Y-171272905D01*
X75889174Y-171300805D01*
X75942459Y-171347722D01*
X75961920Y-171415999D01*
X75941378Y-171483959D01*
X75887355Y-171530025D01*
X75835924Y-171541000D01*
X74147573Y-171541000D01*
X74135443Y-171539645D01*
X74135404Y-171540127D01*
X74126457Y-171539407D01*
X74117701Y-171537426D01*
X74063992Y-171540758D01*
X74056190Y-171541000D01*
X74039987Y-171541000D01*
X74031071Y-171542277D01*
X74029622Y-171542484D01*
X74019572Y-171543513D01*
X73981282Y-171545889D01*
X73981281Y-171545889D01*
X73972323Y-171546445D01*
X73963882Y-171549493D01*
X73960968Y-171550096D01*
X73944034Y-171554318D01*
X73941195Y-171555148D01*
X73932313Y-171556420D01*
X73889200Y-171576023D01*
X73879849Y-171579829D01*
X73843762Y-171592856D01*
X73843760Y-171592857D01*
X73835320Y-171595904D01*
X73828076Y-171601196D01*
X73825482Y-171602575D01*
X73810343Y-171611422D01*
X73807883Y-171612995D01*
X73799718Y-171616708D01*
X73792924Y-171622562D01*
X73792921Y-171622564D01*
X73777838Y-171635561D01*
X73763843Y-171647619D01*
X73755928Y-171653903D01*
X73748882Y-171659050D01*
X73748875Y-171659056D01*
X73744948Y-171661925D01*
X73733973Y-171672900D01*
X73727126Y-171679258D01*
X73689373Y-171711787D01*
X73684489Y-171719322D01*
X73679042Y-171725566D01*
X73669442Y-171737431D01*
X73533577Y-171873296D01*
X73471265Y-171907322D01*
X73411870Y-171905907D01*
X73248995Y-171862264D01*
X73248986Y-171862262D01*
X73243674Y-171860839D01*
X73025000Y-171841708D01*
X72806326Y-171860839D01*
X72594297Y-171917653D01*
X72571439Y-171928312D01*
X72400341Y-172008095D01*
X72400336Y-172008098D01*
X72395354Y-172010421D01*
X72390847Y-172013577D01*
X72390845Y-172013578D01*
X72220054Y-172133167D01*
X72220051Y-172133169D01*
X72215543Y-172136326D01*
X72060326Y-172291543D01*
X72057169Y-172296051D01*
X72057167Y-172296054D01*
X71946976Y-172453423D01*
X71934421Y-172471354D01*
X71932098Y-172476336D01*
X71932095Y-172476341D01*
X71893602Y-172558891D01*
X71841653Y-172670297D01*
X71784839Y-172882326D01*
X71765708Y-173101000D01*
X26035000Y-173101000D01*
X26035000Y-164880941D01*
X82291461Y-164880941D01*
X82293335Y-164889720D01*
X82293898Y-164897978D01*
X82295500Y-164913161D01*
X82295500Y-178109928D01*
X82294145Y-178122058D01*
X82294627Y-178122097D01*
X82293907Y-178131044D01*
X82291926Y-178139800D01*
X82292482Y-178148760D01*
X82295258Y-178193508D01*
X82295500Y-178201310D01*
X82295500Y-178217513D01*
X82296136Y-178221953D01*
X82296984Y-178227878D01*
X82298013Y-178237928D01*
X82300945Y-178285177D01*
X82303994Y-178293623D01*
X82304593Y-178296514D01*
X82308822Y-178313480D01*
X82309648Y-178316305D01*
X82310920Y-178325187D01*
X82330522Y-178368298D01*
X82334327Y-178377647D01*
X82350404Y-178422181D01*
X82355699Y-178429429D01*
X82357080Y-178432027D01*
X82365915Y-178447145D01*
X82367494Y-178449614D01*
X82371208Y-178457782D01*
X82377064Y-178464578D01*
X82402115Y-178493652D01*
X82408401Y-178501569D01*
X82413548Y-178508615D01*
X82413553Y-178508620D01*
X82416425Y-178512552D01*
X82427400Y-178523527D01*
X82433758Y-178530375D01*
X82451231Y-178550653D01*
X82466287Y-178568127D01*
X82473822Y-178573011D01*
X82480066Y-178578458D01*
X82491931Y-178588058D01*
X83283177Y-179379304D01*
X83290800Y-179388844D01*
X83291168Y-179388530D01*
X83296986Y-179395366D01*
X83301776Y-179402958D01*
X83308504Y-179408900D01*
X83342125Y-179438593D01*
X83347812Y-179443939D01*
X83359255Y-179455382D01*
X83366020Y-179460452D01*
X83367630Y-179461659D01*
X83375459Y-179468033D01*
X83410951Y-179499378D01*
X83419074Y-179503192D01*
X83421562Y-179504826D01*
X83436523Y-179513814D01*
X83439108Y-179515229D01*
X83446295Y-179520616D01*
X83477977Y-179532493D01*
X83490642Y-179537241D01*
X83499958Y-179541167D01*
X83542800Y-179561281D01*
X83551669Y-179562662D01*
X83554502Y-179563528D01*
X83571389Y-179567958D01*
X83574274Y-179568592D01*
X83582684Y-179571745D01*
X83611842Y-179573912D01*
X83629906Y-179575254D01*
X83639952Y-179576408D01*
X83648575Y-179577751D01*
X83648578Y-179577751D01*
X83653386Y-179578500D01*
X83668906Y-179578500D01*
X83678243Y-179578846D01*
X83727941Y-179582539D01*
X83736720Y-179580665D01*
X83744978Y-179580102D01*
X83760161Y-179578500D01*
X86161928Y-179578500D01*
X86174058Y-179579855D01*
X86174097Y-179579373D01*
X86183044Y-179580093D01*
X86191800Y-179582074D01*
X86245508Y-179578742D01*
X86253310Y-179578500D01*
X86269513Y-179578500D01*
X86278907Y-179577155D01*
X86279878Y-179577016D01*
X86289928Y-179575987D01*
X86328216Y-179573611D01*
X86337177Y-179573055D01*
X86345623Y-179570006D01*
X86348514Y-179569407D01*
X86365480Y-179565178D01*
X86368305Y-179564352D01*
X86377187Y-179563080D01*
X86420298Y-179543478D01*
X86429649Y-179539672D01*
X86449536Y-179532493D01*
X86474181Y-179523596D01*
X86481429Y-179518301D01*
X86484027Y-179516920D01*
X86499145Y-179508085D01*
X86501614Y-179506506D01*
X86509782Y-179502792D01*
X86545653Y-179471884D01*
X86553569Y-179465599D01*
X86560615Y-179460452D01*
X86560620Y-179460447D01*
X86564552Y-179457575D01*
X86575527Y-179446600D01*
X86582375Y-179440242D01*
X86613323Y-179413576D01*
X86613324Y-179413575D01*
X86620127Y-179407713D01*
X86625011Y-179400178D01*
X86630451Y-179393942D01*
X86640056Y-179382071D01*
X87466811Y-178555317D01*
X87476345Y-178547700D01*
X87476031Y-178547331D01*
X87482864Y-178541516D01*
X87490458Y-178536724D01*
X87526085Y-178496383D01*
X87531431Y-178490697D01*
X87542882Y-178479246D01*
X87549166Y-178470862D01*
X87555540Y-178463033D01*
X87558679Y-178459479D01*
X87586878Y-178427549D01*
X87590692Y-178419425D01*
X87592320Y-178416947D01*
X87601322Y-178401966D01*
X87602735Y-178399385D01*
X87608116Y-178392205D01*
X87624744Y-178347850D01*
X87628664Y-178338548D01*
X87640433Y-178313480D01*
X87648781Y-178295700D01*
X87650162Y-178286834D01*
X87651018Y-178284033D01*
X87655462Y-178267096D01*
X87656095Y-178264216D01*
X87659244Y-178255816D01*
X87661761Y-178221953D01*
X87662752Y-178208611D01*
X87663906Y-178198563D01*
X87665250Y-178189929D01*
X87666000Y-178185114D01*
X87666000Y-178169577D01*
X87666347Y-178160239D01*
X87669374Y-178119510D01*
X87669374Y-178119509D01*
X87670039Y-178110559D01*
X87668166Y-178101784D01*
X87667603Y-178093527D01*
X87666000Y-178078338D01*
X87666000Y-178068161D01*
X89011893Y-178068161D01*
X89021187Y-178080175D01*
X89061588Y-178108464D01*
X89071084Y-178113947D01*
X89260613Y-178202326D01*
X89270905Y-178206072D01*
X89472901Y-178260196D01*
X89483696Y-178262099D01*
X89692025Y-178280326D01*
X89702975Y-178280326D01*
X89911304Y-178262099D01*
X89922099Y-178260196D01*
X90124095Y-178206072D01*
X90134387Y-178202326D01*
X90323916Y-178113947D01*
X90333412Y-178108464D01*
X90374648Y-178079590D01*
X90383023Y-178069112D01*
X90375957Y-178055668D01*
X89710311Y-177390021D01*
X89696368Y-177382408D01*
X89694534Y-177382539D01*
X89687920Y-177386790D01*
X89018320Y-178056391D01*
X89011893Y-178068161D01*
X87666000Y-178068161D01*
X87666000Y-177956954D01*
X87686002Y-177888833D01*
X87714426Y-177857665D01*
X87749996Y-177829874D01*
X87853574Y-177748950D01*
X87857600Y-177744286D01*
X87857603Y-177744283D01*
X87978264Y-177604496D01*
X87978265Y-177604494D01*
X87982293Y-177599828D01*
X87985339Y-177594467D01*
X88006724Y-177556821D01*
X88079596Y-177428544D01*
X88141777Y-177241622D01*
X88166466Y-177046183D01*
X88166739Y-177026653D01*
X88166784Y-177023475D01*
X88435174Y-177023475D01*
X88453401Y-177231804D01*
X88455304Y-177242599D01*
X88509428Y-177444595D01*
X88513174Y-177454887D01*
X88601554Y-177644417D01*
X88607034Y-177653907D01*
X88635911Y-177695149D01*
X88646387Y-177703523D01*
X88659834Y-177696455D01*
X89325479Y-177030811D01*
X89331856Y-177019132D01*
X90061908Y-177019132D01*
X90062039Y-177020966D01*
X90066290Y-177027580D01*
X90735891Y-177697180D01*
X90747661Y-177703607D01*
X90759676Y-177694311D01*
X90787966Y-177653907D01*
X90793446Y-177644417D01*
X90881826Y-177454887D01*
X90885572Y-177444595D01*
X90939696Y-177242599D01*
X90941599Y-177231804D01*
X90959826Y-177023475D01*
X90959826Y-177012525D01*
X90941599Y-176804196D01*
X90939696Y-176793401D01*
X90885572Y-176591405D01*
X90881826Y-176581113D01*
X90793446Y-176391583D01*
X90787966Y-176382093D01*
X90759089Y-176340851D01*
X90748613Y-176332477D01*
X90735166Y-176339545D01*
X90069521Y-177005189D01*
X90061908Y-177019132D01*
X89331856Y-177019132D01*
X89333092Y-177016868D01*
X89332961Y-177015034D01*
X89328710Y-177008420D01*
X88659109Y-176338820D01*
X88647339Y-176332393D01*
X88635324Y-176341689D01*
X88607034Y-176382093D01*
X88601554Y-176391583D01*
X88513174Y-176581113D01*
X88509428Y-176591405D01*
X88455304Y-176793401D01*
X88453401Y-176804196D01*
X88435174Y-177012525D01*
X88435174Y-177023475D01*
X88166784Y-177023475D01*
X88166811Y-177021522D01*
X88166811Y-177021518D01*
X88166860Y-177018000D01*
X88147637Y-176821948D01*
X88090700Y-176633363D01*
X88080918Y-176614966D01*
X88001111Y-176464871D01*
X88001109Y-176464868D01*
X87998217Y-176459429D01*
X87873712Y-176306770D01*
X87808394Y-176252734D01*
X87726677Y-176185132D01*
X87726674Y-176185130D01*
X87721927Y-176181203D01*
X87548643Y-176087508D01*
X87360460Y-176029256D01*
X87354335Y-176028612D01*
X87354334Y-176028612D01*
X87170676Y-176009309D01*
X87170674Y-176009309D01*
X87164547Y-176008665D01*
X87098157Y-176014707D01*
X86974504Y-176025960D01*
X86974501Y-176025961D01*
X86968365Y-176026519D01*
X86962459Y-176028257D01*
X86962455Y-176028258D01*
X86837801Y-176064946D01*
X86779387Y-176082138D01*
X86773927Y-176084992D01*
X86773928Y-176084992D01*
X86610272Y-176170549D01*
X86610268Y-176170552D01*
X86604812Y-176173404D01*
X86451288Y-176296840D01*
X86324663Y-176447745D01*
X86229762Y-176620371D01*
X86227898Y-176626246D01*
X86227897Y-176626249D01*
X86216720Y-176661484D01*
X86170197Y-176808142D01*
X86148238Y-177003907D01*
X86149717Y-177021522D01*
X86159260Y-177135161D01*
X86164722Y-177200209D01*
X86183406Y-177265367D01*
X86217005Y-177382539D01*
X86219021Y-177389570D01*
X86228725Y-177408452D01*
X86296800Y-177540911D01*
X86309066Y-177564779D01*
X86312889Y-177569603D01*
X86312892Y-177569607D01*
X86372186Y-177644417D01*
X86431427Y-177719160D01*
X86436120Y-177723154D01*
X86436121Y-177723155D01*
X86466430Y-177748950D01*
X86518267Y-177793066D01*
X86561516Y-177829874D01*
X86600429Y-177889257D01*
X86601060Y-177960250D01*
X86568949Y-178014923D01*
X86059278Y-178524595D01*
X85996965Y-178558620D01*
X85970182Y-178561500D01*
X83955817Y-178561500D01*
X83887696Y-178541498D01*
X83866722Y-178524595D01*
X83349405Y-178007278D01*
X83315379Y-177944966D01*
X83312500Y-177918183D01*
X83312500Y-168846065D01*
X83332502Y-168777944D01*
X83386158Y-168731451D01*
X83456432Y-168721347D01*
X83515202Y-168746102D01*
X83537937Y-168763547D01*
X83673993Y-168819904D01*
X83682177Y-168820981D01*
X83682179Y-168820982D01*
X83811812Y-168838048D01*
X83820000Y-168839126D01*
X83828188Y-168838048D01*
X83957821Y-168820982D01*
X83957823Y-168820981D01*
X83966007Y-168819904D01*
X84102063Y-168763547D01*
X84124798Y-168746102D01*
X84191015Y-168720502D01*
X84260564Y-168734766D01*
X84311361Y-168784367D01*
X84327500Y-168846065D01*
X84327500Y-172584183D01*
X84307498Y-172652304D01*
X84290595Y-172673278D01*
X83891696Y-173072177D01*
X83882156Y-173079800D01*
X83882470Y-173080168D01*
X83875634Y-173085986D01*
X83868042Y-173090776D01*
X83862100Y-173097504D01*
X83832407Y-173131125D01*
X83827061Y-173136812D01*
X83815618Y-173148255D01*
X83809978Y-173155780D01*
X83809341Y-173156630D01*
X83802967Y-173164459D01*
X83771622Y-173199951D01*
X83767808Y-173208074D01*
X83766174Y-173210562D01*
X83757186Y-173225523D01*
X83755771Y-173228108D01*
X83750384Y-173235295D01*
X83745171Y-173249200D01*
X83733759Y-173279642D01*
X83729833Y-173288958D01*
X83709719Y-173331800D01*
X83708338Y-173340669D01*
X83707472Y-173343502D01*
X83703042Y-173360389D01*
X83702408Y-173363274D01*
X83699255Y-173371684D01*
X83697088Y-173400842D01*
X83695746Y-173418906D01*
X83694592Y-173428952D01*
X83692500Y-173442386D01*
X83692500Y-173457906D01*
X83692154Y-173467243D01*
X83688461Y-173516941D01*
X83690335Y-173525720D01*
X83690898Y-173533978D01*
X83692500Y-173549161D01*
X83692500Y-175188928D01*
X83691145Y-175201058D01*
X83691627Y-175201097D01*
X83690907Y-175210044D01*
X83688926Y-175218800D01*
X83689482Y-175227760D01*
X83692258Y-175272508D01*
X83692500Y-175280310D01*
X83692500Y-175296513D01*
X83693136Y-175300953D01*
X83693984Y-175306878D01*
X83695013Y-175316928D01*
X83697945Y-175364177D01*
X83700994Y-175372623D01*
X83701593Y-175375514D01*
X83705822Y-175392480D01*
X83706648Y-175395305D01*
X83707920Y-175404187D01*
X83727522Y-175447298D01*
X83731327Y-175456647D01*
X83747404Y-175501181D01*
X83752699Y-175508429D01*
X83754080Y-175511027D01*
X83762915Y-175526145D01*
X83764494Y-175528614D01*
X83768208Y-175536782D01*
X83799115Y-175572652D01*
X83805401Y-175580569D01*
X83810548Y-175587615D01*
X83810553Y-175587620D01*
X83813425Y-175591552D01*
X83824400Y-175602527D01*
X83830758Y-175609375D01*
X83857135Y-175639987D01*
X83863287Y-175647127D01*
X83870822Y-175652011D01*
X83877066Y-175657458D01*
X83888931Y-175667058D01*
X84020279Y-175798406D01*
X84054305Y-175860718D01*
X84049240Y-175931533D01*
X84006693Y-175988369D01*
X83940173Y-176013180D01*
X83931184Y-176013501D01*
X83842434Y-176013501D01*
X83806682Y-176020612D01*
X83780374Y-176025844D01*
X83780372Y-176025845D01*
X83768199Y-176028266D01*
X83757879Y-176035161D01*
X83757878Y-176035162D01*
X83713304Y-176064946D01*
X83684016Y-176084516D01*
X83627766Y-176168699D01*
X83613000Y-176242933D01*
X83613001Y-177793066D01*
X83620112Y-177828818D01*
X83624344Y-177850095D01*
X83627766Y-177867301D01*
X83634661Y-177877620D01*
X83634662Y-177877622D01*
X83661765Y-177918183D01*
X83684016Y-177951484D01*
X83768199Y-178007734D01*
X83842433Y-178022500D01*
X84617374Y-178022500D01*
X85392566Y-178022499D01*
X85428318Y-178015388D01*
X85454626Y-178010156D01*
X85454628Y-178010155D01*
X85466801Y-178007734D01*
X85477121Y-178000839D01*
X85477122Y-178000838D01*
X85540668Y-177958377D01*
X85550984Y-177951484D01*
X85607234Y-177867301D01*
X85622000Y-177793067D01*
X85621999Y-176242934D01*
X85614888Y-176207182D01*
X85609656Y-176180874D01*
X85609655Y-176180872D01*
X85607234Y-176168699D01*
X85593738Y-176148500D01*
X85557877Y-176094832D01*
X85550984Y-176084516D01*
X85466801Y-176028266D01*
X85392567Y-176013500D01*
X85252000Y-176013500D01*
X85183879Y-175993498D01*
X85160821Y-175966887D01*
X89011977Y-175966887D01*
X89019045Y-175980334D01*
X89684689Y-176645979D01*
X89698632Y-176653592D01*
X89700466Y-176653461D01*
X89707080Y-176649210D01*
X90376680Y-175979609D01*
X90383107Y-175967839D01*
X90373813Y-175955825D01*
X90333412Y-175927536D01*
X90323916Y-175922053D01*
X90134387Y-175833674D01*
X90124095Y-175829928D01*
X89922099Y-175775804D01*
X89911304Y-175773901D01*
X89702975Y-175755674D01*
X89692025Y-175755674D01*
X89483696Y-175773901D01*
X89472901Y-175775804D01*
X89270905Y-175829928D01*
X89260613Y-175833674D01*
X89071083Y-175922054D01*
X89061593Y-175927534D01*
X89020351Y-175956411D01*
X89011977Y-175966887D01*
X85160821Y-175966887D01*
X85137386Y-175939842D01*
X85126000Y-175887500D01*
X85126000Y-175747572D01*
X85127355Y-175735442D01*
X85126873Y-175735403D01*
X85127593Y-175726456D01*
X85129574Y-175717700D01*
X85126242Y-175663992D01*
X85126000Y-175656190D01*
X85126000Y-175639987D01*
X85124516Y-175629622D01*
X85123487Y-175619572D01*
X85121111Y-175581284D01*
X85120555Y-175572323D01*
X85117506Y-175563877D01*
X85116907Y-175560986D01*
X85112678Y-175544020D01*
X85111852Y-175541195D01*
X85110580Y-175532313D01*
X85090978Y-175489202D01*
X85087172Y-175479851D01*
X85074145Y-175443765D01*
X85071096Y-175435319D01*
X85065800Y-175428069D01*
X85064420Y-175425474D01*
X85053530Y-175406839D01*
X85050357Y-175399862D01*
X85040364Y-175329573D01*
X85069959Y-175265038D01*
X85129745Y-175226749D01*
X85200742Y-175226861D01*
X85246716Y-175251747D01*
X85290927Y-175289373D01*
X85311445Y-175306835D01*
X85316823Y-175309841D01*
X85316825Y-175309842D01*
X85477897Y-175399862D01*
X85483404Y-175402940D01*
X85670755Y-175463814D01*
X85866362Y-175487139D01*
X85872497Y-175486667D01*
X85872499Y-175486667D01*
X85932301Y-175482065D01*
X86062774Y-175472026D01*
X86252509Y-175419050D01*
X86276683Y-175406839D01*
X86422841Y-175333010D01*
X86422843Y-175333009D01*
X86428342Y-175330231D01*
X86583574Y-175208950D01*
X86587600Y-175204286D01*
X86587603Y-175204283D01*
X86708264Y-175064496D01*
X86708265Y-175064494D01*
X86712293Y-175059828D01*
X86809596Y-174888544D01*
X86871777Y-174701622D01*
X86896466Y-174506183D01*
X86896860Y-174478000D01*
X86895478Y-174463907D01*
X87418238Y-174463907D01*
X87420413Y-174489812D01*
X87434002Y-174651633D01*
X87434722Y-174660209D01*
X87461872Y-174754890D01*
X87484731Y-174834608D01*
X87489021Y-174849570D01*
X87510055Y-174890498D01*
X87576251Y-175019301D01*
X87579066Y-175024779D01*
X87582889Y-175029603D01*
X87582892Y-175029607D01*
X87667612Y-175136496D01*
X87701427Y-175179160D01*
X87706120Y-175183154D01*
X87706121Y-175183155D01*
X87844534Y-175300953D01*
X87851445Y-175306835D01*
X87856823Y-175309841D01*
X87856825Y-175309842D01*
X88017897Y-175399862D01*
X88023404Y-175402940D01*
X88210755Y-175463814D01*
X88406362Y-175487139D01*
X88412497Y-175486667D01*
X88412499Y-175486667D01*
X88472301Y-175482065D01*
X88602774Y-175472026D01*
X88792509Y-175419050D01*
X88816683Y-175406839D01*
X88962841Y-175333010D01*
X88962843Y-175333009D01*
X88968342Y-175330231D01*
X89123574Y-175208950D01*
X89127600Y-175204286D01*
X89127603Y-175204283D01*
X89248264Y-175064496D01*
X89248265Y-175064494D01*
X89252293Y-175059828D01*
X89349596Y-174888544D01*
X89411777Y-174701622D01*
X89436466Y-174506183D01*
X89436860Y-174478000D01*
X89417637Y-174281948D01*
X89360700Y-174093363D01*
X89351815Y-174076653D01*
X89271111Y-173924871D01*
X89271109Y-173924868D01*
X89268217Y-173919429D01*
X89143712Y-173766770D01*
X89009478Y-173655722D01*
X88996677Y-173645132D01*
X88996674Y-173645130D01*
X88991927Y-173641203D01*
X88818643Y-173547508D01*
X88630460Y-173489256D01*
X88624335Y-173488612D01*
X88624334Y-173488612D01*
X88440676Y-173469309D01*
X88440674Y-173469309D01*
X88434547Y-173468665D01*
X88352518Y-173476130D01*
X88244504Y-173485960D01*
X88244501Y-173485961D01*
X88238365Y-173486519D01*
X88232459Y-173488257D01*
X88232455Y-173488258D01*
X88092275Y-173529516D01*
X88049387Y-173542138D01*
X88043927Y-173544992D01*
X88043928Y-173544992D01*
X87880272Y-173630549D01*
X87880268Y-173630552D01*
X87874812Y-173633404D01*
X87721288Y-173756840D01*
X87594663Y-173907745D01*
X87588240Y-173919429D01*
X87507842Y-174065674D01*
X87499762Y-174080371D01*
X87497898Y-174086246D01*
X87497897Y-174086249D01*
X87485696Y-174124712D01*
X87440197Y-174268142D01*
X87418238Y-174463907D01*
X86895478Y-174463907D01*
X86877637Y-174281948D01*
X86820700Y-174093363D01*
X86811815Y-174076653D01*
X86731111Y-173924871D01*
X86731109Y-173924868D01*
X86728217Y-173919429D01*
X86603712Y-173766770D01*
X86451927Y-173641203D01*
X86450533Y-173640449D01*
X86406253Y-173586996D01*
X86396000Y-173537210D01*
X86396000Y-166343318D01*
X86416002Y-166275197D01*
X86432905Y-166254222D01*
X87168724Y-165518404D01*
X87231036Y-165484379D01*
X87257819Y-165481500D01*
X92892928Y-165481500D01*
X92905058Y-165482855D01*
X92905097Y-165482373D01*
X92914044Y-165483093D01*
X92922800Y-165485074D01*
X92976508Y-165481742D01*
X92984310Y-165481500D01*
X93000513Y-165481500D01*
X93009429Y-165480223D01*
X93010878Y-165480016D01*
X93020928Y-165478987D01*
X93059216Y-165476611D01*
X93068177Y-165476055D01*
X93076623Y-165473006D01*
X93079514Y-165472407D01*
X93096480Y-165468178D01*
X93099305Y-165467352D01*
X93108187Y-165466080D01*
X93151298Y-165446478D01*
X93160649Y-165442672D01*
X93196735Y-165429645D01*
X93205181Y-165426596D01*
X93212429Y-165421301D01*
X93215027Y-165419920D01*
X93230145Y-165411085D01*
X93232614Y-165409506D01*
X93240782Y-165405792D01*
X93276653Y-165374884D01*
X93284569Y-165368599D01*
X93291615Y-165363452D01*
X93291620Y-165363447D01*
X93295552Y-165360575D01*
X93306527Y-165349600D01*
X93313375Y-165343242D01*
X93344323Y-165316576D01*
X93344324Y-165316575D01*
X93351127Y-165310713D01*
X93356011Y-165303178D01*
X93361458Y-165296934D01*
X93371058Y-165285069D01*
X95288405Y-163367722D01*
X95350717Y-163333696D01*
X95421532Y-163338761D01*
X95478368Y-163381308D01*
X95503179Y-163447828D01*
X95503500Y-163456817D01*
X95503500Y-167381042D01*
X95493909Y-167429260D01*
X95470256Y-167486364D01*
X95467096Y-167493993D01*
X95447874Y-167640000D01*
X95467096Y-167786007D01*
X95470256Y-167793636D01*
X95493909Y-167850740D01*
X95503500Y-167898958D01*
X95503500Y-168397042D01*
X95493909Y-168445260D01*
X95470256Y-168502364D01*
X95467096Y-168509993D01*
X95447874Y-168656000D01*
X95448952Y-168664188D01*
X95464774Y-168784367D01*
X95467096Y-168802007D01*
X95470256Y-168809636D01*
X95493909Y-168866740D01*
X95503500Y-168914958D01*
X95503500Y-169413042D01*
X95493909Y-169461260D01*
X95470256Y-169518364D01*
X95467096Y-169525993D01*
X95466019Y-169534177D01*
X95466018Y-169534179D01*
X95455263Y-169615874D01*
X95447874Y-169672000D01*
X95448952Y-169680188D01*
X95462238Y-169781103D01*
X95467096Y-169818007D01*
X95470256Y-169825636D01*
X95493909Y-169882740D01*
X95503500Y-169930958D01*
X95503500Y-171822183D01*
X95483498Y-171890304D01*
X95466595Y-171911278D01*
X95076278Y-172301595D01*
X95013966Y-172335621D01*
X94987183Y-172338500D01*
X92669573Y-172338500D01*
X92657444Y-172337145D01*
X92657405Y-172337627D01*
X92648454Y-172336907D01*
X92639700Y-172334926D01*
X92588328Y-172338113D01*
X92585991Y-172338258D01*
X92578189Y-172338500D01*
X92561987Y-172338500D01*
X92553071Y-172339777D01*
X92551622Y-172339984D01*
X92541572Y-172341013D01*
X92503281Y-172343389D01*
X92503280Y-172343389D01*
X92494322Y-172343945D01*
X92485881Y-172346993D01*
X92482967Y-172347596D01*
X92466048Y-172351815D01*
X92463202Y-172352647D01*
X92454313Y-172353920D01*
X92411191Y-172373526D01*
X92401836Y-172377334D01*
X92357319Y-172393405D01*
X92350071Y-172398700D01*
X92347464Y-172400086D01*
X92332377Y-172408901D01*
X92329886Y-172410494D01*
X92321718Y-172414208D01*
X92285845Y-172445118D01*
X92277945Y-172451390D01*
X92266947Y-172459425D01*
X92255972Y-172470400D01*
X92249124Y-172476758D01*
X92218176Y-172503424D01*
X92218172Y-172503429D01*
X92211373Y-172509287D01*
X92206491Y-172516819D01*
X92201038Y-172523070D01*
X92191446Y-172534926D01*
X91273228Y-173453144D01*
X91210916Y-173487170D01*
X91170653Y-173487416D01*
X91170460Y-173489256D01*
X90980676Y-173469309D01*
X90980674Y-173469309D01*
X90974547Y-173468665D01*
X90892518Y-173476130D01*
X90784504Y-173485960D01*
X90784501Y-173485961D01*
X90778365Y-173486519D01*
X90772459Y-173488257D01*
X90772455Y-173488258D01*
X90632275Y-173529516D01*
X90589387Y-173542138D01*
X90583927Y-173544992D01*
X90583928Y-173544992D01*
X90420272Y-173630549D01*
X90420268Y-173630552D01*
X90414812Y-173633404D01*
X90261288Y-173756840D01*
X90134663Y-173907745D01*
X90128240Y-173919429D01*
X90047842Y-174065674D01*
X90039762Y-174080371D01*
X90037898Y-174086246D01*
X90037897Y-174086249D01*
X90025696Y-174124712D01*
X89980197Y-174268142D01*
X89958238Y-174463907D01*
X89960413Y-174489812D01*
X89974002Y-174651633D01*
X89974722Y-174660209D01*
X90001872Y-174754890D01*
X90024731Y-174834608D01*
X90029021Y-174849570D01*
X90050055Y-174890498D01*
X90116251Y-175019301D01*
X90119066Y-175024779D01*
X90122889Y-175029603D01*
X90122892Y-175029607D01*
X90207612Y-175136496D01*
X90241427Y-175179160D01*
X90246120Y-175183154D01*
X90246121Y-175183155D01*
X90384534Y-175300953D01*
X90391445Y-175306835D01*
X90396823Y-175309841D01*
X90396825Y-175309842D01*
X90557897Y-175399862D01*
X90563404Y-175402940D01*
X90750755Y-175463814D01*
X90946362Y-175487139D01*
X90952497Y-175486667D01*
X90952499Y-175486667D01*
X91012301Y-175482065D01*
X91142774Y-175472026D01*
X91332509Y-175419050D01*
X91356683Y-175406839D01*
X91502841Y-175333010D01*
X91502843Y-175333009D01*
X91508342Y-175330231D01*
X91663574Y-175208950D01*
X91667600Y-175204286D01*
X91667603Y-175204283D01*
X91788264Y-175064496D01*
X91788265Y-175064494D01*
X91792293Y-175059828D01*
X91889596Y-174888544D01*
X91951777Y-174701622D01*
X91976466Y-174506183D01*
X91976860Y-174478000D01*
X91957637Y-174281948D01*
X91958166Y-174281896D01*
X91964191Y-174215184D01*
X91992309Y-174172318D01*
X92772222Y-173392405D01*
X92834534Y-173358379D01*
X92861317Y-173355500D01*
X92973413Y-173355500D01*
X93041534Y-173375502D01*
X93088027Y-173429158D01*
X93098131Y-173499432D01*
X93068637Y-173564012D01*
X93031789Y-173593161D01*
X92954812Y-173633404D01*
X92801288Y-173756840D01*
X92674663Y-173907745D01*
X92668240Y-173919429D01*
X92587842Y-174065674D01*
X92579762Y-174080371D01*
X92577898Y-174086246D01*
X92577897Y-174086249D01*
X92565696Y-174124712D01*
X92520197Y-174268142D01*
X92498238Y-174463907D01*
X92500413Y-174489812D01*
X92514002Y-174651633D01*
X92514722Y-174660209D01*
X92541872Y-174754890D01*
X92564731Y-174834608D01*
X92569021Y-174849570D01*
X92590055Y-174890498D01*
X92656251Y-175019301D01*
X92659066Y-175024779D01*
X92662889Y-175029603D01*
X92662892Y-175029607D01*
X92747612Y-175136496D01*
X92781427Y-175179160D01*
X92786120Y-175183154D01*
X92786121Y-175183155D01*
X92924534Y-175300953D01*
X92931445Y-175306835D01*
X92936823Y-175309841D01*
X92936825Y-175309842D01*
X93097897Y-175399862D01*
X93103404Y-175402940D01*
X93290755Y-175463814D01*
X93486362Y-175487139D01*
X93492497Y-175486667D01*
X93492499Y-175486667D01*
X93552301Y-175482065D01*
X93682774Y-175472026D01*
X93872509Y-175419050D01*
X93896683Y-175406839D01*
X94042841Y-175333010D01*
X94042843Y-175333009D01*
X94048342Y-175330231D01*
X94203574Y-175208950D01*
X94207600Y-175204286D01*
X94207603Y-175204283D01*
X94328264Y-175064496D01*
X94328265Y-175064494D01*
X94332293Y-175059828D01*
X94429596Y-174888544D01*
X94491777Y-174701622D01*
X94516466Y-174506183D01*
X94516860Y-174478000D01*
X94497637Y-174281948D01*
X94440700Y-174093363D01*
X94431815Y-174076653D01*
X94351111Y-173924871D01*
X94351109Y-173924868D01*
X94348217Y-173919429D01*
X94223712Y-173766770D01*
X94089478Y-173655722D01*
X94076677Y-173645132D01*
X94076674Y-173645130D01*
X94071927Y-173641203D01*
X93981550Y-173592336D01*
X93931141Y-173542341D01*
X93915764Y-173473029D01*
X93940300Y-173406407D01*
X93996960Y-173363627D01*
X94041479Y-173355500D01*
X95178928Y-173355500D01*
X95191058Y-173356855D01*
X95191097Y-173356373D01*
X95200044Y-173357093D01*
X95208800Y-173359074D01*
X95262508Y-173355742D01*
X95270310Y-173355500D01*
X95286513Y-173355500D01*
X95295429Y-173354223D01*
X95296878Y-173354016D01*
X95306928Y-173352987D01*
X95345216Y-173350611D01*
X95354177Y-173350055D01*
X95362623Y-173347006D01*
X95365514Y-173346407D01*
X95382480Y-173342178D01*
X95385305Y-173341352D01*
X95394187Y-173340080D01*
X95437298Y-173320478D01*
X95446649Y-173316672D01*
X95482735Y-173303645D01*
X95491181Y-173300596D01*
X95498429Y-173295301D01*
X95501027Y-173293920D01*
X95516145Y-173285085D01*
X95518614Y-173283506D01*
X95526782Y-173279792D01*
X95562653Y-173248884D01*
X95570569Y-173242599D01*
X95577615Y-173237452D01*
X95577620Y-173237447D01*
X95581552Y-173234575D01*
X95592527Y-173223600D01*
X95599375Y-173217242D01*
X95630323Y-173190576D01*
X95630324Y-173190575D01*
X95637127Y-173184713D01*
X95642011Y-173177178D01*
X95647451Y-173170942D01*
X95657056Y-173159071D01*
X96321311Y-172494817D01*
X96330845Y-172487200D01*
X96330531Y-172486831D01*
X96337364Y-172481016D01*
X96344958Y-172476224D01*
X96380585Y-172435883D01*
X96385931Y-172430197D01*
X96397383Y-172418745D01*
X96400076Y-172415152D01*
X96403660Y-172410370D01*
X96410045Y-172402527D01*
X96435436Y-172373777D01*
X96441378Y-172367049D01*
X96445194Y-172358922D01*
X96446807Y-172356466D01*
X96455829Y-172341453D01*
X96457237Y-172338882D01*
X96462616Y-172331704D01*
X96479240Y-172287357D01*
X96483159Y-172278057D01*
X96503281Y-172235200D01*
X96504662Y-172226331D01*
X96505526Y-172223505D01*
X96509960Y-172206601D01*
X96510592Y-172203725D01*
X96513745Y-172195316D01*
X96517254Y-172148094D01*
X96518408Y-172138048D01*
X96519751Y-172129425D01*
X96519751Y-172129422D01*
X96520500Y-172124614D01*
X96520500Y-172109094D01*
X96520846Y-172099757D01*
X96523874Y-172059007D01*
X96524539Y-172050059D01*
X96522665Y-172041280D01*
X96522102Y-172033022D01*
X96520500Y-172017839D01*
X96520500Y-170243065D01*
X96540502Y-170174944D01*
X96594158Y-170128451D01*
X96664432Y-170118347D01*
X96723202Y-170143102D01*
X96745937Y-170160547D01*
X96881993Y-170216904D01*
X96890177Y-170217981D01*
X96890179Y-170217982D01*
X97019812Y-170235048D01*
X97028000Y-170236126D01*
X97036188Y-170235048D01*
X97165821Y-170217982D01*
X97165823Y-170217981D01*
X97174007Y-170216904D01*
X97310063Y-170160547D01*
X97332798Y-170143102D01*
X97399015Y-170117502D01*
X97468564Y-170131766D01*
X97519361Y-170181367D01*
X97535500Y-170243065D01*
X97535500Y-174489183D01*
X97515498Y-174557304D01*
X97498595Y-174578278D01*
X95604278Y-176472595D01*
X95541966Y-176506621D01*
X95515183Y-176509500D01*
X93178322Y-176509500D01*
X93110201Y-176489498D01*
X93079013Y-176458779D01*
X93078217Y-176459429D01*
X92953712Y-176306770D01*
X92888394Y-176252734D01*
X92806677Y-176185132D01*
X92806674Y-176185130D01*
X92801927Y-176181203D01*
X92628643Y-176087508D01*
X92440460Y-176029256D01*
X92434335Y-176028612D01*
X92434334Y-176028612D01*
X92250676Y-176009309D01*
X92250674Y-176009309D01*
X92244547Y-176008665D01*
X92178157Y-176014707D01*
X92054504Y-176025960D01*
X92054501Y-176025961D01*
X92048365Y-176026519D01*
X92042459Y-176028257D01*
X92042455Y-176028258D01*
X91917801Y-176064946D01*
X91859387Y-176082138D01*
X91853927Y-176084992D01*
X91853928Y-176084992D01*
X91690272Y-176170549D01*
X91690268Y-176170552D01*
X91684812Y-176173404D01*
X91531288Y-176296840D01*
X91404663Y-176447745D01*
X91309762Y-176620371D01*
X91307898Y-176626246D01*
X91307897Y-176626249D01*
X91296720Y-176661484D01*
X91250197Y-176808142D01*
X91228238Y-177003907D01*
X91229717Y-177021522D01*
X91239260Y-177135161D01*
X91244722Y-177200209D01*
X91263406Y-177265367D01*
X91297005Y-177382539D01*
X91299021Y-177389570D01*
X91308725Y-177408452D01*
X91376800Y-177540911D01*
X91389066Y-177564779D01*
X91392889Y-177569603D01*
X91392892Y-177569607D01*
X91452186Y-177644417D01*
X91511427Y-177719160D01*
X91516120Y-177723154D01*
X91516121Y-177723155D01*
X91605398Y-177799135D01*
X91661445Y-177846835D01*
X91666823Y-177849841D01*
X91666825Y-177849842D01*
X91789107Y-177918183D01*
X91833404Y-177942940D01*
X92020755Y-178003814D01*
X92216362Y-178027139D01*
X92222497Y-178026667D01*
X92222499Y-178026667D01*
X92282301Y-178022065D01*
X92412774Y-178012026D01*
X92602509Y-177959050D01*
X92608013Y-177956270D01*
X92772841Y-177873010D01*
X92772843Y-177873009D01*
X92778342Y-177870231D01*
X92933574Y-177748950D01*
X92937600Y-177744286D01*
X92937603Y-177744283D01*
X93058264Y-177604496D01*
X93058265Y-177604494D01*
X93062293Y-177599828D01*
X93067728Y-177590261D01*
X93118769Y-177540911D01*
X93177283Y-177526500D01*
X95706928Y-177526500D01*
X95719058Y-177527855D01*
X95719097Y-177527373D01*
X95728044Y-177528093D01*
X95736800Y-177530074D01*
X95790508Y-177526742D01*
X95798310Y-177526500D01*
X95814513Y-177526500D01*
X95823429Y-177525223D01*
X95824878Y-177525016D01*
X95834928Y-177523987D01*
X95873216Y-177521611D01*
X95882177Y-177521055D01*
X95890623Y-177518006D01*
X95893514Y-177517407D01*
X95910480Y-177513178D01*
X95913305Y-177512352D01*
X95922187Y-177511080D01*
X95965298Y-177491478D01*
X95974649Y-177487672D01*
X96010735Y-177474645D01*
X96019181Y-177471596D01*
X96026429Y-177466301D01*
X96029027Y-177464920D01*
X96044145Y-177456085D01*
X96046614Y-177454506D01*
X96054782Y-177450792D01*
X96090653Y-177419884D01*
X96098569Y-177413599D01*
X96105615Y-177408452D01*
X96105620Y-177408447D01*
X96109552Y-177405575D01*
X96120527Y-177394600D01*
X96127375Y-177388242D01*
X96158323Y-177361576D01*
X96158324Y-177361575D01*
X96165127Y-177355713D01*
X96170011Y-177348178D01*
X96175458Y-177341934D01*
X96185058Y-177330069D01*
X98353304Y-175161823D01*
X98362844Y-175154200D01*
X98362530Y-175153832D01*
X98369366Y-175148014D01*
X98376958Y-175143224D01*
X98412593Y-175102875D01*
X98417939Y-175097188D01*
X98429382Y-175085745D01*
X98435659Y-175077370D01*
X98442033Y-175069541D01*
X98473378Y-175034049D01*
X98477192Y-175025926D01*
X98478826Y-175023438D01*
X98487814Y-175008477D01*
X98489229Y-175005892D01*
X98494616Y-174998705D01*
X98511241Y-174954357D01*
X98515168Y-174945040D01*
X98531466Y-174910326D01*
X98535281Y-174902200D01*
X98536662Y-174893331D01*
X98537528Y-174890498D01*
X98541958Y-174873611D01*
X98542592Y-174870726D01*
X98545745Y-174862316D01*
X98549254Y-174815094D01*
X98550408Y-174805048D01*
X98551751Y-174796425D01*
X98551751Y-174796422D01*
X98552500Y-174791614D01*
X98552500Y-174776094D01*
X98552846Y-174766757D01*
X98555874Y-174726007D01*
X98556539Y-174717059D01*
X98554665Y-174708280D01*
X98554102Y-174700022D01*
X98552500Y-174684839D01*
X98552500Y-158750000D01*
X99197708Y-158750000D01*
X99216839Y-158968674D01*
X99273653Y-159180703D01*
X99288997Y-159213608D01*
X99364095Y-159374659D01*
X99364098Y-159374664D01*
X99366421Y-159379646D01*
X99492326Y-159559457D01*
X99647543Y-159714674D01*
X99652051Y-159717831D01*
X99652054Y-159717833D01*
X99822845Y-159837422D01*
X99827354Y-159840579D01*
X99832339Y-159842904D01*
X99832345Y-159842907D01*
X99875749Y-159863146D01*
X99929035Y-159910063D01*
X99948500Y-159977341D01*
X99948500Y-161412042D01*
X99938909Y-161460260D01*
X99925676Y-161492208D01*
X99912096Y-161524993D01*
X99911019Y-161533177D01*
X99911018Y-161533179D01*
X99897541Y-161635549D01*
X99892874Y-161671000D01*
X99893952Y-161679188D01*
X99903718Y-161753366D01*
X99912096Y-161817007D01*
X99968453Y-161953063D01*
X100058103Y-162069897D01*
X100174937Y-162159547D01*
X100310993Y-162215904D01*
X100319177Y-162216981D01*
X100319179Y-162216982D01*
X100448812Y-162234048D01*
X100457000Y-162235126D01*
X100465188Y-162234048D01*
X100594821Y-162216982D01*
X100594823Y-162216981D01*
X100603007Y-162215904D01*
X100739063Y-162159547D01*
X100855897Y-162069897D01*
X100945547Y-161953063D01*
X101001904Y-161817007D01*
X101010283Y-161753366D01*
X101020048Y-161679188D01*
X101021126Y-161671000D01*
X101016459Y-161635549D01*
X101002982Y-161533179D01*
X101002981Y-161533177D01*
X101001904Y-161524993D01*
X100988324Y-161492208D01*
X100975091Y-161460260D01*
X100965500Y-161412042D01*
X100965500Y-159977341D01*
X100985502Y-159909220D01*
X101038251Y-159863146D01*
X101081655Y-159842907D01*
X101081661Y-159842904D01*
X101086646Y-159840579D01*
X101091155Y-159837422D01*
X101261946Y-159717833D01*
X101261949Y-159717831D01*
X101266457Y-159714674D01*
X101421674Y-159559457D01*
X101547579Y-159379646D01*
X101549902Y-159374664D01*
X101549905Y-159374659D01*
X101625003Y-159213608D01*
X101640347Y-159180703D01*
X101697161Y-158968674D01*
X101716292Y-158750000D01*
X101697161Y-158531326D01*
X101640347Y-158319297D01*
X101596896Y-158226116D01*
X101549905Y-158125341D01*
X101549902Y-158125336D01*
X101547579Y-158120354D01*
X101421674Y-157940543D01*
X101266457Y-157785326D01*
X101261949Y-157782169D01*
X101261946Y-157782167D01*
X101091155Y-157662578D01*
X101091153Y-157662577D01*
X101086646Y-157659421D01*
X101081664Y-157657098D01*
X101081659Y-157657095D01*
X100980884Y-157610104D01*
X100887703Y-157566653D01*
X100675674Y-157509839D01*
X100457000Y-157490708D01*
X100238326Y-157509839D01*
X100026297Y-157566653D01*
X99933116Y-157610104D01*
X99832341Y-157657095D01*
X99832336Y-157657098D01*
X99827354Y-157659421D01*
X99822847Y-157662577D01*
X99822845Y-157662578D01*
X99652054Y-157782167D01*
X99652051Y-157782169D01*
X99647543Y-157785326D01*
X99492326Y-157940543D01*
X99366421Y-158120354D01*
X99364098Y-158125336D01*
X99364095Y-158125341D01*
X99317104Y-158226116D01*
X99273653Y-158319297D01*
X99216839Y-158531326D01*
X99197708Y-158750000D01*
X98552500Y-158750000D01*
X98552500Y-146820817D01*
X98572502Y-146752696D01*
X98589405Y-146731722D01*
X100239056Y-145082072D01*
X101909308Y-143411820D01*
X101918845Y-143404200D01*
X101918531Y-143403831D01*
X101925364Y-143398016D01*
X101932958Y-143393224D01*
X101968585Y-143352883D01*
X101973931Y-143347197D01*
X101985382Y-143335746D01*
X101991666Y-143327362D01*
X101998040Y-143319533D01*
X102011721Y-143304042D01*
X102029378Y-143284049D01*
X102033192Y-143275925D01*
X102034820Y-143273447D01*
X102043822Y-143258466D01*
X102045235Y-143255885D01*
X102050616Y-143248705D01*
X102067244Y-143204350D01*
X102071164Y-143195048D01*
X102087467Y-143160323D01*
X102091281Y-143152200D01*
X102092662Y-143143334D01*
X102093518Y-143140533D01*
X102097962Y-143123596D01*
X102098595Y-143120716D01*
X102101744Y-143112316D01*
X102105252Y-143065111D01*
X102106406Y-143055063D01*
X102107750Y-143046429D01*
X102108500Y-143041614D01*
X102108500Y-143026077D01*
X102108847Y-143016739D01*
X102111874Y-142976010D01*
X102111874Y-142976009D01*
X102112539Y-142967059D01*
X102110666Y-142958284D01*
X102110103Y-142950027D01*
X102108500Y-142934838D01*
X102108500Y-129865073D01*
X102109855Y-129852944D01*
X102109373Y-129852905D01*
X102110093Y-129843954D01*
X102112074Y-129835200D01*
X102108742Y-129781491D01*
X102108500Y-129773689D01*
X102108500Y-129757487D01*
X102107016Y-129747122D01*
X102105987Y-129737072D01*
X102103611Y-129698781D01*
X102103611Y-129698780D01*
X102103055Y-129689822D01*
X102100007Y-129681381D01*
X102099404Y-129678467D01*
X102095185Y-129661548D01*
X102094353Y-129658702D01*
X102093080Y-129649813D01*
X102073474Y-129606691D01*
X102069666Y-129597335D01*
X102064618Y-129583353D01*
X102053595Y-129552819D01*
X102048300Y-129545571D01*
X102046914Y-129542964D01*
X102038099Y-129527877D01*
X102036506Y-129525386D01*
X102032792Y-129517218D01*
X102001882Y-129481345D01*
X101995604Y-129473438D01*
X101993075Y-129469975D01*
X101992023Y-129468536D01*
X101990447Y-129466378D01*
X101990446Y-129466376D01*
X101987575Y-129462447D01*
X101976600Y-129451472D01*
X101970242Y-129444624D01*
X101943576Y-129413676D01*
X101943571Y-129413672D01*
X101937713Y-129406873D01*
X101930181Y-129401991D01*
X101923930Y-129396538D01*
X101912074Y-129386946D01*
X98580823Y-126055696D01*
X98573200Y-126046156D01*
X98572832Y-126046470D01*
X98567014Y-126039634D01*
X98562224Y-126032042D01*
X98521875Y-125996407D01*
X98516188Y-125991061D01*
X98504745Y-125979618D01*
X98496370Y-125973341D01*
X98488541Y-125966967D01*
X98453049Y-125935622D01*
X98444926Y-125931808D01*
X98442438Y-125930174D01*
X98427477Y-125921186D01*
X98424892Y-125919771D01*
X98417705Y-125914384D01*
X98373357Y-125897759D01*
X98364040Y-125893832D01*
X98329326Y-125877534D01*
X98321200Y-125873719D01*
X98312331Y-125872338D01*
X98309498Y-125871472D01*
X98292611Y-125867042D01*
X98289726Y-125866408D01*
X98281316Y-125863255D01*
X98252158Y-125861088D01*
X98234094Y-125859746D01*
X98224048Y-125858592D01*
X98215425Y-125857249D01*
X98215422Y-125857249D01*
X98210614Y-125856500D01*
X98195094Y-125856500D01*
X98185757Y-125856154D01*
X98168854Y-125854898D01*
X98136059Y-125852461D01*
X98127280Y-125854335D01*
X98119022Y-125854898D01*
X98103839Y-125856500D01*
X95320084Y-125856500D01*
X95251963Y-125836498D01*
X95205470Y-125782842D01*
X95195366Y-125712568D01*
X95224860Y-125647988D01*
X95275444Y-125612673D01*
X95396490Y-125566813D01*
X95489400Y-125531613D01*
X95724672Y-125400931D01*
X95871342Y-125288996D01*
X95934991Y-125240421D01*
X95934995Y-125240417D01*
X95938616Y-125237654D01*
X96126749Y-125045203D01*
X96233742Y-124898210D01*
X96282442Y-124831304D01*
X96282447Y-124831297D01*
X96285130Y-124827610D01*
X96410441Y-124589433D01*
X96500057Y-124335662D01*
X96525188Y-124208156D01*
X96551220Y-124076083D01*
X96551221Y-124076077D01*
X96552101Y-124071611D01*
X96561282Y-123887186D01*
X96565255Y-123807383D01*
X96565255Y-123807377D01*
X96565482Y-123802814D01*
X96539921Y-123534900D01*
X96527428Y-123483842D01*
X96477039Y-123277920D01*
X96475953Y-123273482D01*
X96374917Y-123024037D01*
X96238931Y-122791790D01*
X96070842Y-122581605D01*
X95874173Y-122397887D01*
X95653043Y-122244484D01*
X95412084Y-122124609D01*
X95407750Y-122123188D01*
X95407747Y-122123187D01*
X95160677Y-122042193D01*
X95160671Y-122042192D01*
X95156344Y-122040773D01*
X95151852Y-122039993D01*
X94894962Y-121995389D01*
X94894954Y-121995388D01*
X94891181Y-121994733D01*
X94881218Y-121994237D01*
X94807723Y-121990578D01*
X94807715Y-121990578D01*
X94806152Y-121990500D01*
X94638126Y-121990500D01*
X94635858Y-121990665D01*
X94635846Y-121990665D01*
X94505043Y-122000156D01*
X94438075Y-122005015D01*
X94433620Y-122005999D01*
X94433617Y-122005999D01*
X94179730Y-122062053D01*
X94179728Y-122062054D01*
X94175274Y-122063037D01*
X93923600Y-122158387D01*
X93688328Y-122289069D01*
X93684696Y-122291841D01*
X93478009Y-122449579D01*
X93478005Y-122449583D01*
X93474384Y-122452346D01*
X93286251Y-122644797D01*
X93273760Y-122661958D01*
X93130558Y-122858696D01*
X93130553Y-122858703D01*
X93127870Y-122862390D01*
X93002559Y-123100567D01*
X92912943Y-123354338D01*
X92912060Y-123358820D01*
X92877355Y-123534900D01*
X92860899Y-123618389D01*
X92860672Y-123622942D01*
X92860672Y-123622945D01*
X92851491Y-123807383D01*
X92847518Y-123887186D01*
X92873079Y-124155100D01*
X92937047Y-124416518D01*
X93038083Y-124665963D01*
X93174069Y-124898210D01*
X93342158Y-125108395D01*
X93538827Y-125292113D01*
X93759957Y-125445516D01*
X94000916Y-125565391D01*
X94005250Y-125566812D01*
X94005253Y-125566813D01*
X94139341Y-125610769D01*
X94197841Y-125650996D01*
X94225307Y-125716465D01*
X94213017Y-125786390D01*
X94164874Y-125838570D01*
X94100091Y-125856500D01*
X86685073Y-125856500D01*
X86672944Y-125855145D01*
X86672905Y-125855627D01*
X86663954Y-125854907D01*
X86655200Y-125852926D01*
X86601491Y-125856258D01*
X86593689Y-125856500D01*
X86577487Y-125856500D01*
X86568571Y-125857777D01*
X86567122Y-125857984D01*
X86557072Y-125859013D01*
X86518781Y-125861389D01*
X86518780Y-125861389D01*
X86509822Y-125861945D01*
X86501381Y-125864993D01*
X86498467Y-125865596D01*
X86481548Y-125869815D01*
X86478702Y-125870647D01*
X86469813Y-125871920D01*
X86426691Y-125891526D01*
X86417336Y-125895334D01*
X86372819Y-125911405D01*
X86365571Y-125916700D01*
X86362964Y-125918086D01*
X86347877Y-125926901D01*
X86345386Y-125928494D01*
X86337218Y-125932208D01*
X86301345Y-125963118D01*
X86293445Y-125969390D01*
X86282447Y-125977425D01*
X86271472Y-125988400D01*
X86264624Y-125994758D01*
X86233677Y-126021423D01*
X86233672Y-126021428D01*
X86226873Y-126027287D01*
X86221989Y-126034822D01*
X86216535Y-126041075D01*
X86206944Y-126052929D01*
X85507196Y-126752677D01*
X85497656Y-126760300D01*
X85497970Y-126760668D01*
X85491134Y-126766486D01*
X85483542Y-126771276D01*
X85477600Y-126778004D01*
X85447907Y-126811625D01*
X85442561Y-126817312D01*
X85431118Y-126828755D01*
X85425478Y-126836280D01*
X85424841Y-126837130D01*
X85418467Y-126844959D01*
X85387122Y-126880451D01*
X85383308Y-126888574D01*
X85381674Y-126891062D01*
X85372686Y-126906023D01*
X85371271Y-126908608D01*
X85365884Y-126915795D01*
X85362733Y-126924201D01*
X85349259Y-126960142D01*
X85345333Y-126969458D01*
X85325219Y-127012300D01*
X85323838Y-127021169D01*
X85322972Y-127024002D01*
X85318542Y-127040889D01*
X85317908Y-127043774D01*
X85314755Y-127052184D01*
X85314090Y-127061139D01*
X85311246Y-127099406D01*
X85310092Y-127109452D01*
X85308000Y-127122886D01*
X85308000Y-127138406D01*
X85307654Y-127147743D01*
X85303961Y-127197441D01*
X85305835Y-127206220D01*
X85306398Y-127214478D01*
X85308000Y-127229661D01*
X85308000Y-129254506D01*
X85287998Y-129322627D01*
X85260952Y-129352703D01*
X85116885Y-129468536D01*
X85110288Y-129473840D01*
X84983663Y-129624745D01*
X84977240Y-129636429D01*
X84899637Y-129777590D01*
X84888762Y-129797371D01*
X84886898Y-129803246D01*
X84886897Y-129803249D01*
X84865291Y-129871359D01*
X84829197Y-129985142D01*
X84807238Y-130180907D01*
X84808717Y-130198522D01*
X84817365Y-130301500D01*
X84823722Y-130377209D01*
X84850871Y-130471889D01*
X84876005Y-130559539D01*
X84878021Y-130566570D01*
X84968066Y-130741779D01*
X84971889Y-130746603D01*
X84971892Y-130746607D01*
X85070732Y-130871311D01*
X85090427Y-130896160D01*
X85095120Y-130900154D01*
X85095121Y-130900155D01*
X85184398Y-130976135D01*
X85240445Y-131023835D01*
X85245823Y-131026841D01*
X85245825Y-131026842D01*
X85295532Y-131054622D01*
X85412404Y-131119940D01*
X85599755Y-131180814D01*
X85795362Y-131204139D01*
X85801497Y-131203667D01*
X85801499Y-131203667D01*
X85861301Y-131199065D01*
X85991774Y-131189026D01*
X86181509Y-131136050D01*
X86187013Y-131133270D01*
X86351841Y-131050010D01*
X86351843Y-131050009D01*
X86357342Y-131047231D01*
X86512574Y-130925950D01*
X86516600Y-130921286D01*
X86516603Y-130921283D01*
X86637264Y-130781496D01*
X86637265Y-130781494D01*
X86641293Y-130776828D01*
X86738596Y-130605544D01*
X86800777Y-130418622D01*
X86825466Y-130223183D01*
X86825726Y-130204580D01*
X86825784Y-130200475D01*
X87094174Y-130200475D01*
X87112401Y-130408804D01*
X87114304Y-130419599D01*
X87168428Y-130621595D01*
X87172174Y-130631887D01*
X87260554Y-130821417D01*
X87266034Y-130830907D01*
X87294911Y-130872149D01*
X87305387Y-130880523D01*
X87318834Y-130873455D01*
X87984479Y-130207811D01*
X87990856Y-130196132D01*
X88720908Y-130196132D01*
X88721039Y-130197966D01*
X88725290Y-130204580D01*
X89394891Y-130874180D01*
X89406661Y-130880607D01*
X89418676Y-130871311D01*
X89446966Y-130830907D01*
X89452446Y-130821417D01*
X89540826Y-130631887D01*
X89544572Y-130621595D01*
X89598696Y-130419599D01*
X89600599Y-130408804D01*
X89618826Y-130200475D01*
X89618826Y-130189525D01*
X89600599Y-129981196D01*
X89598696Y-129970401D01*
X89544572Y-129768405D01*
X89540826Y-129758113D01*
X89452446Y-129568583D01*
X89446966Y-129559093D01*
X89418089Y-129517851D01*
X89407613Y-129509477D01*
X89394166Y-129516545D01*
X88728521Y-130182189D01*
X88720908Y-130196132D01*
X87990856Y-130196132D01*
X87992092Y-130193868D01*
X87991961Y-130192034D01*
X87987710Y-130185420D01*
X87318109Y-129515820D01*
X87306339Y-129509393D01*
X87294324Y-129518689D01*
X87266034Y-129559093D01*
X87260554Y-129568583D01*
X87172174Y-129758113D01*
X87168428Y-129768405D01*
X87114304Y-129970401D01*
X87112401Y-129981196D01*
X87094174Y-130189525D01*
X87094174Y-130200475D01*
X86825784Y-130200475D01*
X86825811Y-130198522D01*
X86825811Y-130198518D01*
X86825860Y-130195000D01*
X86806637Y-129998948D01*
X86749700Y-129810363D01*
X86730200Y-129773689D01*
X86660111Y-129641871D01*
X86660109Y-129641868D01*
X86657217Y-129636429D01*
X86532712Y-129483770D01*
X86380927Y-129358203D01*
X86379533Y-129357449D01*
X86335253Y-129303996D01*
X86325000Y-129254210D01*
X86325000Y-129143887D01*
X87670977Y-129143887D01*
X87678045Y-129157334D01*
X88343689Y-129822979D01*
X88357632Y-129830592D01*
X88359466Y-129830461D01*
X88366080Y-129826210D01*
X89035680Y-129156609D01*
X89042107Y-129144839D01*
X89032813Y-129132825D01*
X88992412Y-129104536D01*
X88982916Y-129099053D01*
X88793387Y-129010674D01*
X88783095Y-129006928D01*
X88581099Y-128952804D01*
X88570304Y-128950901D01*
X88361975Y-128932674D01*
X88351025Y-128932674D01*
X88142696Y-128950901D01*
X88131901Y-128952804D01*
X87929905Y-129006928D01*
X87919613Y-129010674D01*
X87730083Y-129099054D01*
X87720593Y-129104534D01*
X87679351Y-129133411D01*
X87670977Y-129143887D01*
X86325000Y-129143887D01*
X86325000Y-127425317D01*
X86345002Y-127357196D01*
X86361905Y-127336222D01*
X86476199Y-127221928D01*
X86538511Y-127187902D01*
X86609326Y-127192967D01*
X86666162Y-127235514D01*
X86690216Y-127294577D01*
X86695699Y-127336222D01*
X86704096Y-127400007D01*
X86760453Y-127536063D01*
X86850103Y-127652897D01*
X86966937Y-127742547D01*
X87102993Y-127798904D01*
X87111177Y-127799981D01*
X87111179Y-127799982D01*
X87240812Y-127817048D01*
X87249000Y-127818126D01*
X87257188Y-127817048D01*
X87386821Y-127799982D01*
X87386823Y-127799981D01*
X87395007Y-127798904D01*
X87402636Y-127795744D01*
X87459740Y-127772091D01*
X87507958Y-127762500D01*
X88006042Y-127762500D01*
X88054260Y-127772091D01*
X88111364Y-127795744D01*
X88118993Y-127798904D01*
X88127177Y-127799981D01*
X88127179Y-127799982D01*
X88256812Y-127817048D01*
X88265000Y-127818126D01*
X88273188Y-127817048D01*
X88402821Y-127799982D01*
X88402823Y-127799981D01*
X88411007Y-127798904D01*
X88418636Y-127795744D01*
X88475740Y-127772091D01*
X88523958Y-127762500D01*
X89022042Y-127762500D01*
X89070260Y-127772091D01*
X89127364Y-127795744D01*
X89134993Y-127798904D01*
X89143177Y-127799981D01*
X89143179Y-127799982D01*
X89272812Y-127817048D01*
X89281000Y-127818126D01*
X89289188Y-127817048D01*
X89418821Y-127799982D01*
X89418823Y-127799981D01*
X89427007Y-127798904D01*
X89434636Y-127795744D01*
X89491740Y-127772091D01*
X89539958Y-127762500D01*
X91051183Y-127762500D01*
X91119304Y-127782502D01*
X91165797Y-127836158D01*
X91175901Y-127906432D01*
X91146407Y-127971012D01*
X91140278Y-127977595D01*
X90622696Y-128495177D01*
X90613156Y-128502800D01*
X90613470Y-128503168D01*
X90606634Y-128508986D01*
X90599042Y-128513776D01*
X90593100Y-128520504D01*
X90563407Y-128554125D01*
X90558061Y-128559812D01*
X90546618Y-128571255D01*
X90540978Y-128578780D01*
X90540341Y-128579630D01*
X90533967Y-128587459D01*
X90502622Y-128622951D01*
X90498808Y-128631074D01*
X90497174Y-128633562D01*
X90488186Y-128648523D01*
X90486771Y-128651108D01*
X90481384Y-128658295D01*
X90478233Y-128666701D01*
X90464759Y-128702642D01*
X90460833Y-128711958D01*
X90440719Y-128754800D01*
X90439338Y-128763669D01*
X90438472Y-128766502D01*
X90434042Y-128783389D01*
X90433408Y-128786274D01*
X90430255Y-128794684D01*
X90428088Y-128823842D01*
X90426746Y-128841906D01*
X90425592Y-128851952D01*
X90423500Y-128865386D01*
X90423500Y-128880906D01*
X90423154Y-128890243D01*
X90419461Y-128939941D01*
X90421335Y-128948720D01*
X90421898Y-128956978D01*
X90423500Y-128972161D01*
X90423500Y-129232436D01*
X90403498Y-129300557D01*
X90355874Y-129344098D01*
X90343812Y-129350404D01*
X90339012Y-129354264D01*
X90339011Y-129354264D01*
X90196885Y-129468536D01*
X90190288Y-129473840D01*
X90063663Y-129624745D01*
X90057240Y-129636429D01*
X89979637Y-129777590D01*
X89968762Y-129797371D01*
X89966898Y-129803246D01*
X89966897Y-129803249D01*
X89945291Y-129871359D01*
X89909197Y-129985142D01*
X89887238Y-130180907D01*
X89888717Y-130198522D01*
X89897365Y-130301500D01*
X89903722Y-130377209D01*
X89930871Y-130471889D01*
X89956005Y-130559539D01*
X89958021Y-130566570D01*
X90048066Y-130741779D01*
X90051889Y-130746603D01*
X90051892Y-130746607D01*
X90150732Y-130871311D01*
X90170427Y-130896160D01*
X90175120Y-130900154D01*
X90175121Y-130900155D01*
X90264398Y-130976135D01*
X90320445Y-131023835D01*
X90325823Y-131026841D01*
X90325825Y-131026842D01*
X90375532Y-131054622D01*
X90492404Y-131119940D01*
X90679755Y-131180814D01*
X90875362Y-131204139D01*
X90881497Y-131203667D01*
X90881499Y-131203667D01*
X90941301Y-131199065D01*
X91071774Y-131189026D01*
X91261509Y-131136050D01*
X91267013Y-131133270D01*
X91431841Y-131050010D01*
X91431843Y-131050009D01*
X91437342Y-131047231D01*
X91592574Y-130925950D01*
X91596600Y-130921286D01*
X91596603Y-130921283D01*
X91717264Y-130781496D01*
X91717265Y-130781494D01*
X91721293Y-130776828D01*
X91818596Y-130605544D01*
X91880777Y-130418622D01*
X91905466Y-130223183D01*
X91905726Y-130204580D01*
X91905811Y-130198522D01*
X91905811Y-130198518D01*
X91905860Y-130195000D01*
X91886637Y-129998948D01*
X91829700Y-129810363D01*
X91810200Y-129773689D01*
X91740111Y-129641871D01*
X91740109Y-129641868D01*
X91737217Y-129636429D01*
X91612712Y-129483770D01*
X91500009Y-129390534D01*
X91486185Y-129379098D01*
X91446446Y-129320264D01*
X91440500Y-129282013D01*
X91440500Y-129167818D01*
X91460502Y-129099697D01*
X91477405Y-129078722D01*
X91740724Y-128815404D01*
X91803036Y-128781379D01*
X91829819Y-128778500D01*
X97019183Y-128778500D01*
X97087304Y-128798502D01*
X97108278Y-128815405D01*
X97744278Y-129451405D01*
X97778304Y-129513717D01*
X97773239Y-129584532D01*
X97730692Y-129641368D01*
X97664172Y-129666179D01*
X97655183Y-129666500D01*
X94566999Y-129666500D01*
X94498878Y-129646498D01*
X94452385Y-129592842D01*
X94440999Y-129540500D01*
X94440999Y-129419934D01*
X94426234Y-129345699D01*
X94369984Y-129261516D01*
X94285801Y-129205266D01*
X94211567Y-129190500D01*
X93436626Y-129190500D01*
X92661434Y-129190501D01*
X92625682Y-129197612D01*
X92599374Y-129202844D01*
X92599372Y-129202845D01*
X92587199Y-129205266D01*
X92576879Y-129212161D01*
X92576878Y-129212162D01*
X92516485Y-129252516D01*
X92503016Y-129261516D01*
X92446766Y-129345699D01*
X92432000Y-129419933D01*
X92432001Y-130970066D01*
X92439112Y-131005818D01*
X92443658Y-131028674D01*
X92446766Y-131044301D01*
X92503016Y-131128484D01*
X92587199Y-131184734D01*
X92661433Y-131199500D01*
X93436374Y-131199500D01*
X94211566Y-131199499D01*
X94247318Y-131192388D01*
X94273626Y-131187156D01*
X94273628Y-131187155D01*
X94285801Y-131184734D01*
X94296121Y-131177839D01*
X94296122Y-131177838D01*
X94359668Y-131135377D01*
X94369984Y-131128484D01*
X94426234Y-131044301D01*
X94441000Y-130970067D01*
X94441000Y-130809500D01*
X94461002Y-130741379D01*
X94514658Y-130694886D01*
X94567000Y-130683500D01*
X97527182Y-130683500D01*
X97595303Y-130703502D01*
X97616278Y-130720405D01*
X98006596Y-131110724D01*
X98040621Y-131173036D01*
X98043500Y-131199819D01*
X98043500Y-132961183D01*
X98023498Y-133029304D01*
X97969842Y-133075797D01*
X97899568Y-133085901D01*
X97834988Y-133056407D01*
X97828405Y-133050278D01*
X97203823Y-132425696D01*
X97196200Y-132416156D01*
X97195832Y-132416470D01*
X97190014Y-132409634D01*
X97185224Y-132402042D01*
X97144875Y-132366407D01*
X97139188Y-132361061D01*
X97127745Y-132349618D01*
X97119370Y-132343341D01*
X97111541Y-132336967D01*
X97076049Y-132305622D01*
X97067926Y-132301808D01*
X97065438Y-132300174D01*
X97050477Y-132291186D01*
X97047892Y-132289771D01*
X97040705Y-132284384D01*
X96996357Y-132267759D01*
X96987040Y-132263832D01*
X96952326Y-132247534D01*
X96944200Y-132243719D01*
X96935331Y-132242338D01*
X96932498Y-132241472D01*
X96915611Y-132237042D01*
X96912726Y-132236408D01*
X96904316Y-132233255D01*
X96875158Y-132231088D01*
X96857094Y-132229746D01*
X96847048Y-132228592D01*
X96838425Y-132227249D01*
X96838422Y-132227249D01*
X96833614Y-132226500D01*
X96818094Y-132226500D01*
X96808757Y-132226154D01*
X96791854Y-132224898D01*
X96759059Y-132222461D01*
X96750280Y-132224335D01*
X96742022Y-132224898D01*
X96726839Y-132226500D01*
X93107322Y-132226500D01*
X93039201Y-132206498D01*
X93008013Y-132175779D01*
X93007217Y-132176429D01*
X92882712Y-132023770D01*
X92736611Y-131902905D01*
X92735677Y-131902132D01*
X92735674Y-131902130D01*
X92730927Y-131898203D01*
X92557643Y-131804508D01*
X92369460Y-131746256D01*
X92363335Y-131745612D01*
X92363334Y-131745612D01*
X92179676Y-131726309D01*
X92179674Y-131726309D01*
X92173547Y-131725665D01*
X92091518Y-131733130D01*
X91983504Y-131742960D01*
X91983501Y-131742961D01*
X91977365Y-131743519D01*
X91971459Y-131745257D01*
X91971455Y-131745258D01*
X91831275Y-131786516D01*
X91788387Y-131799138D01*
X91782927Y-131801992D01*
X91782928Y-131801992D01*
X91619272Y-131887549D01*
X91619268Y-131887552D01*
X91613812Y-131890404D01*
X91609012Y-131894264D01*
X91609011Y-131894264D01*
X91591377Y-131908442D01*
X91460288Y-132013840D01*
X91333663Y-132164745D01*
X91327597Y-132175779D01*
X91267892Y-132284384D01*
X91238762Y-132337371D01*
X91236898Y-132343246D01*
X91236897Y-132343249D01*
X91233869Y-132352795D01*
X91179197Y-132525142D01*
X91157238Y-132720907D01*
X91157754Y-132727051D01*
X91170989Y-132884660D01*
X91173722Y-132917209D01*
X91187945Y-132966810D01*
X91221364Y-133083353D01*
X91228021Y-133106570D01*
X91250807Y-133150907D01*
X91314236Y-133274326D01*
X91318066Y-133281779D01*
X91321889Y-133286603D01*
X91321892Y-133286607D01*
X91431678Y-133425122D01*
X91440427Y-133436160D01*
X91445120Y-133440154D01*
X91445121Y-133440155D01*
X91578437Y-133553615D01*
X91590445Y-133563835D01*
X91595823Y-133566841D01*
X91595825Y-133566842D01*
X91680822Y-133614345D01*
X91762404Y-133659940D01*
X91949755Y-133720814D01*
X92145362Y-133744139D01*
X92151497Y-133743667D01*
X92151499Y-133743667D01*
X92211301Y-133739065D01*
X92341774Y-133729026D01*
X92531509Y-133676050D01*
X92537013Y-133673270D01*
X92701841Y-133590010D01*
X92701843Y-133590009D01*
X92707342Y-133587231D01*
X92862574Y-133465950D01*
X92866600Y-133461286D01*
X92866603Y-133461283D01*
X92987264Y-133321496D01*
X92987265Y-133321494D01*
X92991293Y-133316828D01*
X92996728Y-133307261D01*
X93047769Y-133257911D01*
X93106283Y-133243500D01*
X96531182Y-133243500D01*
X96599303Y-133263502D01*
X96620278Y-133280405D01*
X96990596Y-133650724D01*
X97024621Y-133713036D01*
X97027500Y-133739819D01*
X97027500Y-141469183D01*
X97007498Y-141537304D01*
X96990595Y-141558278D01*
X91702196Y-146846677D01*
X91692656Y-146854300D01*
X91692970Y-146854668D01*
X91686134Y-146860486D01*
X91678542Y-146865276D01*
X91672600Y-146872004D01*
X91642907Y-146905625D01*
X91637561Y-146911312D01*
X91626118Y-146922755D01*
X91620478Y-146930280D01*
X91619841Y-146931130D01*
X91613467Y-146938959D01*
X91582122Y-146974451D01*
X91578308Y-146982574D01*
X91576674Y-146985062D01*
X91567686Y-147000023D01*
X91566271Y-147002608D01*
X91560884Y-147009795D01*
X91544259Y-147054142D01*
X91540333Y-147063458D01*
X91520219Y-147106300D01*
X91518838Y-147115169D01*
X91517972Y-147118002D01*
X91513542Y-147134889D01*
X91512908Y-147137774D01*
X91509755Y-147146184D01*
X91509090Y-147155139D01*
X91506246Y-147193406D01*
X91505092Y-147203452D01*
X91503000Y-147216886D01*
X91503000Y-147232406D01*
X91502654Y-147241743D01*
X91498961Y-147291441D01*
X91500835Y-147300220D01*
X91501398Y-147308478D01*
X91503000Y-147323661D01*
X91503000Y-149664542D01*
X91493409Y-149712760D01*
X91481634Y-149741188D01*
X91466596Y-149777493D01*
X91447374Y-149923500D01*
X91448452Y-149931688D01*
X91456387Y-149991958D01*
X91466596Y-150069507D01*
X91469756Y-150077136D01*
X91493409Y-150134240D01*
X91503000Y-150182458D01*
X91503000Y-150553542D01*
X91493409Y-150601760D01*
X91472083Y-150653246D01*
X91466596Y-150666493D01*
X91447374Y-150812500D01*
X91466596Y-150958507D01*
X91469756Y-150966136D01*
X91493409Y-151023240D01*
X91503000Y-151071458D01*
X91503000Y-161090681D01*
X91482998Y-161158802D01*
X91466096Y-161179776D01*
X91266278Y-161379595D01*
X91203966Y-161413620D01*
X91177182Y-161416500D01*
X85796072Y-161416500D01*
X85783942Y-161415145D01*
X85783903Y-161415627D01*
X85774956Y-161414907D01*
X85766200Y-161412926D01*
X85722663Y-161415627D01*
X85712492Y-161416258D01*
X85704690Y-161416500D01*
X85688487Y-161416500D01*
X85679571Y-161417777D01*
X85678122Y-161417984D01*
X85668072Y-161419013D01*
X85630215Y-161421362D01*
X85620823Y-161421945D01*
X85612377Y-161424994D01*
X85609486Y-161425593D01*
X85592520Y-161429822D01*
X85589695Y-161430648D01*
X85580813Y-161431920D01*
X85537702Y-161451522D01*
X85528353Y-161455327D01*
X85483819Y-161471404D01*
X85476571Y-161476699D01*
X85473973Y-161478080D01*
X85458855Y-161486915D01*
X85456386Y-161488494D01*
X85448218Y-161492208D01*
X85412348Y-161523115D01*
X85404431Y-161529401D01*
X85397385Y-161534548D01*
X85397380Y-161534553D01*
X85393448Y-161537425D01*
X85382473Y-161548400D01*
X85375626Y-161554758D01*
X85337873Y-161587287D01*
X85332989Y-161594822D01*
X85327542Y-161601066D01*
X85317942Y-161612931D01*
X82494696Y-164436177D01*
X82485156Y-164443800D01*
X82485470Y-164444168D01*
X82478634Y-164449986D01*
X82471042Y-164454776D01*
X82465100Y-164461504D01*
X82435407Y-164495125D01*
X82430061Y-164500812D01*
X82418618Y-164512255D01*
X82413260Y-164519404D01*
X82412341Y-164520630D01*
X82405967Y-164528459D01*
X82374622Y-164563951D01*
X82370808Y-164572074D01*
X82369174Y-164574562D01*
X82360186Y-164589523D01*
X82358771Y-164592108D01*
X82353384Y-164599295D01*
X82350233Y-164607701D01*
X82336759Y-164643642D01*
X82332833Y-164652958D01*
X82312719Y-164695800D01*
X82311338Y-164704669D01*
X82310472Y-164707502D01*
X82306042Y-164724389D01*
X82305408Y-164727274D01*
X82302255Y-164735684D01*
X82301590Y-164744639D01*
X82298746Y-164782906D01*
X82297592Y-164792952D01*
X82295500Y-164806386D01*
X82295500Y-164821906D01*
X82295154Y-164831243D01*
X82291461Y-164880941D01*
X26035000Y-164880941D01*
X26035000Y-159639000D01*
X28966708Y-159639000D01*
X28985839Y-159857674D01*
X29042653Y-160069703D01*
X29044978Y-160074688D01*
X29133095Y-160263659D01*
X29133098Y-160263664D01*
X29135421Y-160268646D01*
X29138577Y-160273153D01*
X29138578Y-160273155D01*
X29216228Y-160384050D01*
X29261326Y-160448457D01*
X29416543Y-160603674D01*
X29421051Y-160606831D01*
X29421054Y-160606833D01*
X29492706Y-160657004D01*
X29596354Y-160729579D01*
X29601336Y-160731902D01*
X29601341Y-160731905D01*
X29702116Y-160778896D01*
X29795297Y-160822347D01*
X30007326Y-160879161D01*
X30226000Y-160898292D01*
X30444674Y-160879161D01*
X30656703Y-160822347D01*
X30749884Y-160778896D01*
X30850659Y-160731905D01*
X30850664Y-160731902D01*
X30855646Y-160729579D01*
X30959294Y-160657004D01*
X31030946Y-160606833D01*
X31030949Y-160606831D01*
X31035457Y-160603674D01*
X31190674Y-160448457D01*
X31235773Y-160384050D01*
X31313422Y-160273155D01*
X31313423Y-160273153D01*
X31316579Y-160268646D01*
X31318904Y-160263661D01*
X31318907Y-160263655D01*
X31339146Y-160220251D01*
X31386063Y-160166965D01*
X31453341Y-160147500D01*
X33778607Y-160147500D01*
X33846728Y-160167502D01*
X33895350Y-160226096D01*
X33919122Y-160284642D01*
X33919125Y-160284648D01*
X33921066Y-160289428D01*
X34041740Y-160486349D01*
X34192955Y-160660916D01*
X34370651Y-160808442D01*
X34375103Y-160811044D01*
X34375108Y-160811047D01*
X34565598Y-160922360D01*
X34570056Y-160924965D01*
X34785814Y-161007355D01*
X34790880Y-161008386D01*
X34790881Y-161008386D01*
X34843674Y-161019127D01*
X35012132Y-161053400D01*
X35142323Y-161058174D01*
X35237767Y-161061674D01*
X35237771Y-161061674D01*
X35242931Y-161061863D01*
X35248051Y-161061207D01*
X35248053Y-161061207D01*
X35319088Y-161052107D01*
X35472013Y-161032517D01*
X35476961Y-161031032D01*
X35476968Y-161031031D01*
X35688276Y-160967635D01*
X35688275Y-160967635D01*
X35693226Y-160966150D01*
X35900629Y-160864544D01*
X35904834Y-160861544D01*
X35904840Y-160861541D01*
X36084449Y-160733427D01*
X36084451Y-160733425D01*
X36088653Y-160730428D01*
X36252247Y-160567404D01*
X36387018Y-160379850D01*
X36489347Y-160172803D01*
X36548733Y-159977341D01*
X36554982Y-159956775D01*
X36554983Y-159956769D01*
X36556486Y-159951823D01*
X36586631Y-159722845D01*
X36588314Y-159654000D01*
X36569390Y-159423822D01*
X36513126Y-159199826D01*
X36421033Y-158988028D01*
X36295585Y-158794114D01*
X36140150Y-158623293D01*
X36045346Y-158548421D01*
X35962956Y-158483353D01*
X35962951Y-158483350D01*
X35958902Y-158480152D01*
X35954386Y-158477659D01*
X35954383Y-158477657D01*
X35761234Y-158371033D01*
X35761230Y-158371031D01*
X35756710Y-158368536D01*
X35751841Y-158366812D01*
X35751837Y-158366810D01*
X35543878Y-158293168D01*
X35543874Y-158293167D01*
X35539003Y-158291442D01*
X35533913Y-158290535D01*
X35533908Y-158290534D01*
X35410550Y-158268561D01*
X35311628Y-158250941D01*
X35225124Y-158249884D01*
X35085861Y-158248182D01*
X35085859Y-158248182D01*
X35080691Y-158248119D01*
X34852394Y-158283053D01*
X34632869Y-158354805D01*
X34628277Y-158357195D01*
X34628278Y-158357195D01*
X34441876Y-158454230D01*
X34428010Y-158461448D01*
X34423877Y-158464551D01*
X34423874Y-158464553D01*
X34307968Y-158551578D01*
X34243319Y-158600118D01*
X34217523Y-158627112D01*
X34094857Y-158755475D01*
X34083757Y-158767090D01*
X33953609Y-158957881D01*
X33951436Y-158962562D01*
X33951431Y-158962571D01*
X33907343Y-159057551D01*
X33860519Y-159110918D01*
X33793056Y-159130500D01*
X31453341Y-159130500D01*
X31385220Y-159110498D01*
X31339146Y-159057749D01*
X31318907Y-159014345D01*
X31318904Y-159014339D01*
X31316579Y-159009354D01*
X31313422Y-159004845D01*
X31193833Y-158834054D01*
X31193831Y-158834051D01*
X31190674Y-158829543D01*
X31035457Y-158674326D01*
X31030949Y-158671169D01*
X31030946Y-158671167D01*
X30860155Y-158551578D01*
X30860153Y-158551577D01*
X30855646Y-158548421D01*
X30850664Y-158546098D01*
X30850659Y-158546095D01*
X30716106Y-158483353D01*
X30656703Y-158455653D01*
X30444674Y-158398839D01*
X30226000Y-158379708D01*
X30007326Y-158398839D01*
X29795297Y-158455653D01*
X29735894Y-158483353D01*
X29601341Y-158546095D01*
X29601336Y-158546098D01*
X29596354Y-158548421D01*
X29591847Y-158551577D01*
X29591845Y-158551578D01*
X29421054Y-158671167D01*
X29421051Y-158671169D01*
X29416543Y-158674326D01*
X29261326Y-158829543D01*
X29258169Y-158834051D01*
X29258167Y-158834054D01*
X29138578Y-159004845D01*
X29135421Y-159009354D01*
X29133098Y-159014336D01*
X29133095Y-159014341D01*
X29112854Y-159057749D01*
X29042653Y-159208297D01*
X28985839Y-159420326D01*
X28966708Y-159639000D01*
X26035000Y-159639000D01*
X26035000Y-156210000D01*
X28966708Y-156210000D01*
X28985839Y-156428674D01*
X29042653Y-156640703D01*
X29071099Y-156701705D01*
X29133095Y-156834659D01*
X29133098Y-156834664D01*
X29135421Y-156839646D01*
X29138577Y-156844153D01*
X29138578Y-156844155D01*
X29238144Y-156986349D01*
X29261326Y-157019457D01*
X29416543Y-157174674D01*
X29421051Y-157177831D01*
X29421054Y-157177833D01*
X29496168Y-157230428D01*
X29596354Y-157300579D01*
X29601336Y-157302902D01*
X29601341Y-157302905D01*
X29702116Y-157349896D01*
X29795297Y-157393347D01*
X30007326Y-157450161D01*
X30226000Y-157469292D01*
X30444674Y-157450161D01*
X30656703Y-157393347D01*
X30749884Y-157349896D01*
X30850659Y-157302905D01*
X30850664Y-157302902D01*
X30855646Y-157300579D01*
X30955832Y-157230428D01*
X31030946Y-157177833D01*
X31030949Y-157177831D01*
X31035457Y-157174674D01*
X31190674Y-157019457D01*
X31213857Y-156986349D01*
X31313422Y-156844155D01*
X31313423Y-156844153D01*
X31316579Y-156839646D01*
X31318904Y-156834661D01*
X31318907Y-156834655D01*
X31339146Y-156791251D01*
X31386063Y-156737965D01*
X31453341Y-156718500D01*
X33808196Y-156718500D01*
X33876317Y-156738502D01*
X33920112Y-156787079D01*
X33921066Y-156789428D01*
X34041740Y-156986349D01*
X34045124Y-156990255D01*
X34045125Y-156990257D01*
X34070419Y-157019457D01*
X34192955Y-157160916D01*
X34370651Y-157308442D01*
X34375103Y-157311044D01*
X34375108Y-157311047D01*
X34565598Y-157422360D01*
X34570056Y-157424965D01*
X34785814Y-157507355D01*
X34790880Y-157508386D01*
X34790881Y-157508386D01*
X34798023Y-157509839D01*
X35012132Y-157553400D01*
X35142323Y-157558174D01*
X35237767Y-157561674D01*
X35237771Y-157561674D01*
X35242931Y-157561863D01*
X35248051Y-157561207D01*
X35248053Y-157561207D01*
X35319088Y-157552107D01*
X35472013Y-157532517D01*
X35476961Y-157531032D01*
X35476968Y-157531031D01*
X35688276Y-157467635D01*
X35688275Y-157467635D01*
X35693226Y-157466150D01*
X35900629Y-157364544D01*
X35904834Y-157361544D01*
X35904840Y-157361541D01*
X36084449Y-157233427D01*
X36084451Y-157233425D01*
X36088653Y-157230428D01*
X36252247Y-157067404D01*
X36387018Y-156879850D01*
X36489347Y-156672803D01*
X36525571Y-156553576D01*
X36554982Y-156456775D01*
X36554983Y-156456769D01*
X36556486Y-156451823D01*
X36586631Y-156222845D01*
X36586945Y-156210000D01*
X66618874Y-156210000D01*
X66638096Y-156356007D01*
X66694453Y-156492063D01*
X66784103Y-156608897D01*
X66900937Y-156698547D01*
X67036993Y-156754904D01*
X67045177Y-156755981D01*
X67045179Y-156755982D01*
X67174812Y-156773048D01*
X67183000Y-156774126D01*
X67191188Y-156773048D01*
X67320821Y-156755982D01*
X67320823Y-156755981D01*
X67329007Y-156754904D01*
X67336636Y-156751744D01*
X67393740Y-156728091D01*
X67441958Y-156718500D01*
X67813042Y-156718500D01*
X67861260Y-156728091D01*
X67918364Y-156751744D01*
X67925993Y-156754904D01*
X67934177Y-156755981D01*
X67934179Y-156755982D01*
X68063812Y-156773048D01*
X68072000Y-156774126D01*
X68080188Y-156773048D01*
X68209821Y-156755982D01*
X68209823Y-156755981D01*
X68218007Y-156754904D01*
X68225636Y-156751744D01*
X68282740Y-156728091D01*
X68330958Y-156718500D01*
X68702042Y-156718500D01*
X68750260Y-156728091D01*
X68807364Y-156751744D01*
X68814993Y-156754904D01*
X68823177Y-156755981D01*
X68823179Y-156755982D01*
X68952812Y-156773048D01*
X68961000Y-156774126D01*
X68969188Y-156773048D01*
X69098821Y-156755982D01*
X69098823Y-156755981D01*
X69107007Y-156754904D01*
X69114636Y-156751744D01*
X69171740Y-156728091D01*
X69219958Y-156718500D01*
X69905928Y-156718500D01*
X69918058Y-156719855D01*
X69918097Y-156719373D01*
X69927044Y-156720093D01*
X69935800Y-156722074D01*
X69989508Y-156718742D01*
X69997310Y-156718500D01*
X70013513Y-156718500D01*
X70022429Y-156717223D01*
X70023878Y-156717016D01*
X70033928Y-156715987D01*
X70072216Y-156713611D01*
X70081177Y-156713055D01*
X70089623Y-156710006D01*
X70092514Y-156709407D01*
X70109480Y-156705178D01*
X70112305Y-156704352D01*
X70121187Y-156703080D01*
X70164298Y-156683478D01*
X70173649Y-156679672D01*
X70209735Y-156666645D01*
X70218181Y-156663596D01*
X70225429Y-156658301D01*
X70228027Y-156656920D01*
X70243145Y-156648085D01*
X70245614Y-156646506D01*
X70253782Y-156642792D01*
X70289653Y-156611884D01*
X70297569Y-156605599D01*
X70304615Y-156600452D01*
X70304620Y-156600447D01*
X70308552Y-156597575D01*
X70319527Y-156586600D01*
X70326375Y-156580242D01*
X70357323Y-156553576D01*
X70357324Y-156553575D01*
X70364127Y-156547713D01*
X70369011Y-156540178D01*
X70374458Y-156533934D01*
X70384058Y-156522069D01*
X71302304Y-155603823D01*
X71311844Y-155596200D01*
X71311530Y-155595832D01*
X71318366Y-155590014D01*
X71325958Y-155585224D01*
X71361593Y-155544875D01*
X71366939Y-155539188D01*
X71378382Y-155527745D01*
X71384659Y-155519370D01*
X71391033Y-155511541D01*
X71422378Y-155476049D01*
X71426192Y-155467926D01*
X71427826Y-155465438D01*
X71436814Y-155450477D01*
X71438229Y-155447892D01*
X71443616Y-155440705D01*
X71460241Y-155396357D01*
X71464168Y-155387040D01*
X71480466Y-155352326D01*
X71484281Y-155344200D01*
X71485662Y-155335331D01*
X71486528Y-155332498D01*
X71490958Y-155315611D01*
X71491592Y-155312726D01*
X71494745Y-155304316D01*
X71498254Y-155257094D01*
X71499408Y-155247048D01*
X71500751Y-155238425D01*
X71500751Y-155238422D01*
X71501500Y-155233614D01*
X71501500Y-155218094D01*
X71501846Y-155208757D01*
X71504874Y-155168007D01*
X71505539Y-155159059D01*
X71503665Y-155150280D01*
X71503102Y-155142022D01*
X71501500Y-155126839D01*
X71501500Y-149991958D01*
X71511091Y-149943740D01*
X71534744Y-149886636D01*
X71537904Y-149879007D01*
X71542763Y-149842103D01*
X71556048Y-149741188D01*
X71557126Y-149733000D01*
X71551413Y-149689607D01*
X71538982Y-149595179D01*
X71538981Y-149595177D01*
X71537904Y-149586993D01*
X71534744Y-149579364D01*
X71511091Y-149522260D01*
X71501500Y-149474042D01*
X71501500Y-149102958D01*
X71511091Y-149054740D01*
X71534744Y-148997636D01*
X71534745Y-148997633D01*
X71537904Y-148990007D01*
X71557126Y-148844000D01*
X71537904Y-148697993D01*
X71481547Y-148561937D01*
X71391897Y-148445103D01*
X71275063Y-148355453D01*
X71139007Y-148299096D01*
X71130823Y-148298019D01*
X71130821Y-148298018D01*
X71001188Y-148280952D01*
X70993000Y-148279874D01*
X70984812Y-148280952D01*
X70855179Y-148298018D01*
X70855177Y-148298019D01*
X70846993Y-148299096D01*
X70710937Y-148355453D01*
X70594103Y-148445103D01*
X70504453Y-148561937D01*
X70448096Y-148697993D01*
X70428874Y-148844000D01*
X70448096Y-148990007D01*
X70451255Y-148997633D01*
X70451256Y-148997636D01*
X70474909Y-149054740D01*
X70484500Y-149102958D01*
X70484500Y-149474042D01*
X70474909Y-149522260D01*
X70451256Y-149579364D01*
X70448096Y-149586993D01*
X70447019Y-149595177D01*
X70447018Y-149595179D01*
X70434587Y-149689607D01*
X70428874Y-149733000D01*
X70429952Y-149741188D01*
X70443238Y-149842103D01*
X70448096Y-149879007D01*
X70451256Y-149886636D01*
X70474909Y-149943740D01*
X70484500Y-149991958D01*
X70484500Y-154931183D01*
X70464498Y-154999304D01*
X70447595Y-155020278D01*
X69803278Y-155664595D01*
X69740966Y-155698621D01*
X69714183Y-155701500D01*
X69219958Y-155701500D01*
X69171740Y-155691909D01*
X69114636Y-155668256D01*
X69107007Y-155665096D01*
X69098823Y-155664019D01*
X69098821Y-155664018D01*
X68969188Y-155646952D01*
X68961000Y-155645874D01*
X68952812Y-155646952D01*
X68823179Y-155664018D01*
X68823177Y-155664019D01*
X68814993Y-155665096D01*
X68807364Y-155668256D01*
X68750260Y-155691909D01*
X68702042Y-155701500D01*
X68330958Y-155701500D01*
X68282740Y-155691909D01*
X68225636Y-155668256D01*
X68218007Y-155665096D01*
X68209823Y-155664019D01*
X68209821Y-155664018D01*
X68080188Y-155646952D01*
X68072000Y-155645874D01*
X68063812Y-155646952D01*
X67934179Y-155664018D01*
X67934177Y-155664019D01*
X67925993Y-155665096D01*
X67918364Y-155668256D01*
X67861260Y-155691909D01*
X67813042Y-155701500D01*
X67441958Y-155701500D01*
X67393740Y-155691909D01*
X67336636Y-155668256D01*
X67329007Y-155665096D01*
X67320823Y-155664019D01*
X67320821Y-155664018D01*
X67191188Y-155646952D01*
X67183000Y-155645874D01*
X67174812Y-155646952D01*
X67045179Y-155664018D01*
X67045177Y-155664019D01*
X67036993Y-155665096D01*
X66900937Y-155721453D01*
X66784103Y-155811103D01*
X66694453Y-155927937D01*
X66638096Y-156063993D01*
X66618874Y-156210000D01*
X36586945Y-156210000D01*
X36588314Y-156154000D01*
X36569390Y-155923822D01*
X36513126Y-155699826D01*
X36421033Y-155488028D01*
X36302185Y-155304316D01*
X36298393Y-155298454D01*
X36298391Y-155298451D01*
X36295585Y-155294114D01*
X36140150Y-155123293D01*
X36066068Y-155064786D01*
X35962956Y-154983353D01*
X35962951Y-154983350D01*
X35958902Y-154980152D01*
X35954386Y-154977659D01*
X35954383Y-154977657D01*
X35761234Y-154871033D01*
X35761230Y-154871031D01*
X35756710Y-154868536D01*
X35751841Y-154866812D01*
X35751837Y-154866810D01*
X35543878Y-154793168D01*
X35543874Y-154793167D01*
X35539003Y-154791442D01*
X35533913Y-154790535D01*
X35533908Y-154790534D01*
X35410550Y-154768561D01*
X35311628Y-154750941D01*
X35225124Y-154749884D01*
X35085861Y-154748182D01*
X35085859Y-154748182D01*
X35080691Y-154748119D01*
X34852394Y-154783053D01*
X34632869Y-154854805D01*
X34428010Y-154961448D01*
X34423877Y-154964551D01*
X34423874Y-154964553D01*
X34247454Y-155097013D01*
X34243319Y-155100118D01*
X34217784Y-155126839D01*
X34102910Y-155247048D01*
X34083757Y-155267090D01*
X33953609Y-155457881D01*
X33951435Y-155462565D01*
X33951433Y-155462568D01*
X33874386Y-155628551D01*
X33827562Y-155681918D01*
X33760099Y-155701500D01*
X31453341Y-155701500D01*
X31385220Y-155681498D01*
X31339146Y-155628749D01*
X31318907Y-155585345D01*
X31318904Y-155585339D01*
X31316579Y-155580354D01*
X31313422Y-155575845D01*
X31193833Y-155405054D01*
X31193831Y-155405051D01*
X31190674Y-155400543D01*
X31035457Y-155245326D01*
X31030949Y-155242169D01*
X31030946Y-155242167D01*
X30860155Y-155122578D01*
X30860153Y-155122577D01*
X30855646Y-155119421D01*
X30850664Y-155117098D01*
X30850659Y-155117095D01*
X30749884Y-155070104D01*
X30656703Y-155026653D01*
X30444674Y-154969839D01*
X30226000Y-154950708D01*
X30007326Y-154969839D01*
X29795297Y-155026653D01*
X29702116Y-155070104D01*
X29601341Y-155117095D01*
X29601336Y-155117098D01*
X29596354Y-155119421D01*
X29591847Y-155122577D01*
X29591845Y-155122578D01*
X29421054Y-155242167D01*
X29421051Y-155242169D01*
X29416543Y-155245326D01*
X29261326Y-155400543D01*
X29258169Y-155405051D01*
X29258167Y-155405054D01*
X29138578Y-155575845D01*
X29135421Y-155580354D01*
X29133098Y-155585336D01*
X29133095Y-155585341D01*
X29112854Y-155628749D01*
X29042653Y-155779297D01*
X28985839Y-155991326D01*
X28966708Y-156210000D01*
X26035000Y-156210000D01*
X26035000Y-152654000D01*
X28966708Y-152654000D01*
X28985839Y-152872674D01*
X29042653Y-153084703D01*
X29044978Y-153089688D01*
X29133095Y-153278659D01*
X29133098Y-153278664D01*
X29135421Y-153283646D01*
X29261326Y-153463457D01*
X29416543Y-153618674D01*
X29421051Y-153621831D01*
X29421054Y-153621833D01*
X29591845Y-153741422D01*
X29596354Y-153744579D01*
X29601336Y-153746902D01*
X29601341Y-153746905D01*
X29702116Y-153793896D01*
X29795297Y-153837347D01*
X30007326Y-153894161D01*
X30226000Y-153913292D01*
X30444674Y-153894161D01*
X30656703Y-153837347D01*
X30749884Y-153793896D01*
X30850659Y-153746905D01*
X30850664Y-153746902D01*
X30855646Y-153744579D01*
X30860155Y-153741422D01*
X31030946Y-153621833D01*
X31030949Y-153621831D01*
X31035457Y-153618674D01*
X31190674Y-153463457D01*
X31316579Y-153283646D01*
X31318904Y-153278661D01*
X31318907Y-153278655D01*
X31339146Y-153235251D01*
X31386063Y-153181965D01*
X31453341Y-153162500D01*
X33648501Y-153162500D01*
X33716622Y-153182502D01*
X33763115Y-153236158D01*
X33774501Y-153288500D01*
X33774501Y-153829066D01*
X33789266Y-153903301D01*
X33845516Y-153987484D01*
X33929699Y-154043734D01*
X34003933Y-154058500D01*
X35178810Y-154058500D01*
X36354066Y-154058499D01*
X36389818Y-154051388D01*
X36416126Y-154046156D01*
X36416128Y-154046155D01*
X36428301Y-154043734D01*
X36438621Y-154036839D01*
X36438622Y-154036838D01*
X36502168Y-153994377D01*
X36512484Y-153987484D01*
X36568734Y-153903301D01*
X36583500Y-153829067D01*
X36583499Y-151478934D01*
X36576388Y-151443182D01*
X36571156Y-151416874D01*
X36571155Y-151416872D01*
X36568734Y-151404699D01*
X36512484Y-151320516D01*
X36428301Y-151264266D01*
X36354067Y-151249500D01*
X35179190Y-151249500D01*
X34003934Y-151249501D01*
X33968182Y-151256612D01*
X33941874Y-151261844D01*
X33941872Y-151261845D01*
X33929699Y-151264266D01*
X33919379Y-151271161D01*
X33919378Y-151271162D01*
X33875232Y-151300660D01*
X33845516Y-151320516D01*
X33789266Y-151404699D01*
X33774500Y-151478933D01*
X33774500Y-152019500D01*
X33754498Y-152087621D01*
X33700842Y-152134114D01*
X33648500Y-152145500D01*
X31453341Y-152145500D01*
X31385220Y-152125498D01*
X31339146Y-152072749D01*
X31318907Y-152029345D01*
X31318904Y-152029339D01*
X31316579Y-152024354D01*
X31287449Y-151982752D01*
X31193833Y-151849054D01*
X31193831Y-151849051D01*
X31190674Y-151844543D01*
X31035457Y-151689326D01*
X31030949Y-151686169D01*
X31030946Y-151686167D01*
X30860155Y-151566578D01*
X30860153Y-151566577D01*
X30855646Y-151563421D01*
X30850664Y-151561098D01*
X30850659Y-151561095D01*
X30687734Y-151485123D01*
X30656703Y-151470653D01*
X30444674Y-151413839D01*
X30226000Y-151394708D01*
X30007326Y-151413839D01*
X29795297Y-151470653D01*
X29764266Y-151485123D01*
X29601341Y-151561095D01*
X29601336Y-151561098D01*
X29596354Y-151563421D01*
X29591847Y-151566577D01*
X29591845Y-151566578D01*
X29421054Y-151686167D01*
X29421051Y-151686169D01*
X29416543Y-151689326D01*
X29261326Y-151844543D01*
X29258169Y-151849051D01*
X29258167Y-151849054D01*
X29164551Y-151982752D01*
X29135421Y-152024354D01*
X29133098Y-152029336D01*
X29133095Y-152029341D01*
X29121777Y-152053613D01*
X29042653Y-152223297D01*
X28985839Y-152435326D01*
X28966708Y-152654000D01*
X26035000Y-152654000D01*
X26035000Y-146919567D01*
X33770107Y-146919567D01*
X33770404Y-146924720D01*
X33770404Y-146924723D01*
X33776253Y-147026167D01*
X33783401Y-147150139D01*
X33784538Y-147155185D01*
X33784539Y-147155191D01*
X33801941Y-147232406D01*
X33834176Y-147375442D01*
X33921066Y-147589428D01*
X34041740Y-147786349D01*
X34192955Y-147960916D01*
X34370651Y-148108442D01*
X34375103Y-148111044D01*
X34375108Y-148111047D01*
X34540432Y-148207654D01*
X34570056Y-148224965D01*
X34785814Y-148307355D01*
X34790880Y-148308386D01*
X34790881Y-148308386D01*
X34843674Y-148319127D01*
X35012132Y-148353400D01*
X35142323Y-148358174D01*
X35237767Y-148361674D01*
X35237771Y-148361674D01*
X35242931Y-148361863D01*
X35248051Y-148361207D01*
X35248053Y-148361207D01*
X35319088Y-148352107D01*
X35472013Y-148332517D01*
X35476961Y-148331032D01*
X35476968Y-148331031D01*
X35688276Y-148267635D01*
X35688275Y-148267635D01*
X35693226Y-148266150D01*
X35900629Y-148164544D01*
X35904834Y-148161544D01*
X35904840Y-148161541D01*
X36084449Y-148033427D01*
X36084451Y-148033425D01*
X36088653Y-148030428D01*
X36252247Y-147867404D01*
X36387018Y-147679850D01*
X36489347Y-147472803D01*
X36504397Y-147423267D01*
X36554982Y-147256775D01*
X36554983Y-147256769D01*
X36556486Y-147251823D01*
X36571880Y-147134889D01*
X36586194Y-147026167D01*
X36586194Y-147026161D01*
X36586631Y-147022845D01*
X36588314Y-146954000D01*
X36569390Y-146723822D01*
X36513126Y-146499826D01*
X36421033Y-146288028D01*
X36371810Y-146211941D01*
X36298393Y-146098454D01*
X36298391Y-146098451D01*
X36295585Y-146094114D01*
X36140150Y-145923293D01*
X36062317Y-145861824D01*
X35962956Y-145783353D01*
X35962951Y-145783350D01*
X35958902Y-145780152D01*
X35954386Y-145777659D01*
X35954383Y-145777657D01*
X35761234Y-145671033D01*
X35761230Y-145671031D01*
X35756710Y-145668536D01*
X35751841Y-145666812D01*
X35751837Y-145666810D01*
X35543878Y-145593168D01*
X35543874Y-145593167D01*
X35539003Y-145591442D01*
X35533913Y-145590535D01*
X35533908Y-145590534D01*
X35410550Y-145568561D01*
X35311628Y-145550941D01*
X35225124Y-145549884D01*
X35085861Y-145548182D01*
X35085859Y-145548182D01*
X35080691Y-145548119D01*
X34852394Y-145583053D01*
X34632869Y-145654805D01*
X34428010Y-145761448D01*
X34423877Y-145764551D01*
X34423874Y-145764553D01*
X34281903Y-145871148D01*
X34243319Y-145900118D01*
X34217523Y-145927112D01*
X34113678Y-146035780D01*
X34083757Y-146067090D01*
X33953609Y-146257881D01*
X33951435Y-146262565D01*
X33951433Y-146262568D01*
X33873794Y-146429828D01*
X33856369Y-146467366D01*
X33794649Y-146689921D01*
X33770107Y-146919567D01*
X26035000Y-146919567D01*
X26035000Y-145328824D01*
X49284201Y-145328824D01*
X49313810Y-145501141D01*
X49316676Y-145507875D01*
X49316676Y-145507877D01*
X49352234Y-145591442D01*
X49382267Y-145662024D01*
X49485898Y-145802843D01*
X49619146Y-145916045D01*
X49774862Y-145995558D01*
X49781967Y-145997297D01*
X49781971Y-145997298D01*
X49863084Y-146017146D01*
X49944693Y-146037115D01*
X49950295Y-146037463D01*
X49950298Y-146037463D01*
X49953795Y-146037680D01*
X49953805Y-146037680D01*
X49955734Y-146037800D01*
X50081779Y-146037800D01*
X50173182Y-146027144D01*
X50204393Y-146023505D01*
X50204395Y-146023505D01*
X50211665Y-146022657D01*
X50218543Y-146020161D01*
X50218545Y-146020160D01*
X50369136Y-145965498D01*
X50376015Y-145963001D01*
X50522233Y-145867136D01*
X50642475Y-145740205D01*
X50646150Y-145733878D01*
X50646153Y-145733874D01*
X50726615Y-145595347D01*
X50730292Y-145589017D01*
X50741550Y-145551848D01*
X50778851Y-145428688D01*
X50780973Y-145421682D01*
X50791799Y-145247176D01*
X50762190Y-145074859D01*
X50739432Y-145021375D01*
X50696600Y-144920713D01*
X50696599Y-144920711D01*
X50693733Y-144913976D01*
X50590102Y-144773157D01*
X50456854Y-144659955D01*
X50360007Y-144610502D01*
X50307654Y-144583769D01*
X50307652Y-144583768D01*
X50301138Y-144580442D01*
X50294033Y-144578703D01*
X50294029Y-144578702D01*
X50200597Y-144555840D01*
X50131307Y-144538885D01*
X50125705Y-144538537D01*
X50125702Y-144538537D01*
X50122205Y-144538320D01*
X50122195Y-144538320D01*
X50120266Y-144538200D01*
X49994221Y-144538200D01*
X49902818Y-144548856D01*
X49871607Y-144552495D01*
X49871605Y-144552495D01*
X49864335Y-144553343D01*
X49857457Y-144555839D01*
X49857455Y-144555840D01*
X49721631Y-144605142D01*
X49699985Y-144612999D01*
X49553767Y-144708864D01*
X49433525Y-144835795D01*
X49429850Y-144842122D01*
X49429847Y-144842126D01*
X49388114Y-144913976D01*
X49345708Y-144986983D01*
X49343587Y-144993987D01*
X49343585Y-144993991D01*
X49335265Y-145021463D01*
X49295027Y-145154318D01*
X49284201Y-145328824D01*
X26035000Y-145328824D01*
X26035000Y-143419567D01*
X33770107Y-143419567D01*
X33770404Y-143424720D01*
X33770404Y-143424723D01*
X33781853Y-143623287D01*
X33783401Y-143650139D01*
X33784538Y-143655185D01*
X33784539Y-143655191D01*
X33806450Y-143752414D01*
X33834176Y-143875442D01*
X33921066Y-144089428D01*
X34041740Y-144286349D01*
X34192955Y-144460916D01*
X34370651Y-144608442D01*
X34375103Y-144611044D01*
X34375108Y-144611047D01*
X34535637Y-144704852D01*
X34570056Y-144724965D01*
X34785814Y-144807355D01*
X34790880Y-144808386D01*
X34790881Y-144808386D01*
X34843674Y-144819127D01*
X35012132Y-144853400D01*
X35142323Y-144858174D01*
X35237767Y-144861674D01*
X35237771Y-144861674D01*
X35242931Y-144861863D01*
X35248051Y-144861207D01*
X35248053Y-144861207D01*
X35319088Y-144852107D01*
X35472013Y-144832517D01*
X35476961Y-144831032D01*
X35476968Y-144831031D01*
X35669870Y-144773157D01*
X35693226Y-144766150D01*
X35900629Y-144664544D01*
X35904834Y-144661544D01*
X35904840Y-144661541D01*
X36084449Y-144533427D01*
X36084451Y-144533425D01*
X36088653Y-144530428D01*
X36252247Y-144367404D01*
X36291467Y-144312824D01*
X44204201Y-144312824D01*
X44233810Y-144485141D01*
X44236676Y-144491875D01*
X44236676Y-144491877D01*
X44288215Y-144612999D01*
X44302267Y-144646024D01*
X44405898Y-144786843D01*
X44539146Y-144900045D01*
X44694862Y-144979558D01*
X44701967Y-144981297D01*
X44701971Y-144981298D01*
X44753845Y-144993991D01*
X44864693Y-145021115D01*
X44870295Y-145021463D01*
X44870298Y-145021463D01*
X44873795Y-145021680D01*
X44873805Y-145021680D01*
X44875734Y-145021800D01*
X45001779Y-145021800D01*
X45093182Y-145011144D01*
X45124393Y-145007505D01*
X45124395Y-145007505D01*
X45131665Y-145006657D01*
X45138543Y-145004161D01*
X45138545Y-145004160D01*
X45289136Y-144949498D01*
X45296015Y-144947001D01*
X45442233Y-144851136D01*
X45562475Y-144724205D01*
X45566150Y-144717878D01*
X45566153Y-144717874D01*
X45628519Y-144610502D01*
X45650292Y-144573017D01*
X45655495Y-144555840D01*
X45698851Y-144412688D01*
X45700973Y-144405682D01*
X45711799Y-144231176D01*
X45682190Y-144058859D01*
X45659432Y-144005375D01*
X45616600Y-143904713D01*
X45616599Y-143904711D01*
X45613733Y-143897976D01*
X45510102Y-143757157D01*
X45376854Y-143643955D01*
X45221138Y-143564442D01*
X45214033Y-143562703D01*
X45214029Y-143562702D01*
X45120597Y-143539840D01*
X45051307Y-143522885D01*
X45045705Y-143522537D01*
X45045702Y-143522537D01*
X45042205Y-143522320D01*
X45042195Y-143522320D01*
X45040266Y-143522200D01*
X44914221Y-143522200D01*
X44822818Y-143532856D01*
X44791607Y-143536495D01*
X44791605Y-143536495D01*
X44784335Y-143537343D01*
X44777457Y-143539839D01*
X44777455Y-143539840D01*
X44626864Y-143594502D01*
X44619985Y-143596999D01*
X44473767Y-143692864D01*
X44353525Y-143819795D01*
X44349850Y-143826122D01*
X44349847Y-143826126D01*
X44308114Y-143897976D01*
X44265708Y-143970983D01*
X44263587Y-143977987D01*
X44263585Y-143977991D01*
X44223992Y-144108719D01*
X44215027Y-144138318D01*
X44204201Y-144312824D01*
X36291467Y-144312824D01*
X36387018Y-144179850D01*
X36459758Y-144032672D01*
X36507870Y-143980466D01*
X36572714Y-143962500D01*
X42910928Y-143962500D01*
X42923058Y-143963855D01*
X42923097Y-143963373D01*
X42932044Y-143964093D01*
X42940800Y-143966074D01*
X42994508Y-143962742D01*
X43002310Y-143962500D01*
X43018513Y-143962500D01*
X43027429Y-143961223D01*
X43028878Y-143961016D01*
X43038928Y-143959987D01*
X43077216Y-143957611D01*
X43086177Y-143957055D01*
X43094623Y-143954006D01*
X43097514Y-143953407D01*
X43114480Y-143949178D01*
X43117305Y-143948352D01*
X43126187Y-143947080D01*
X43169298Y-143927478D01*
X43178649Y-143923672D01*
X43214735Y-143910645D01*
X43223181Y-143907596D01*
X43230429Y-143902301D01*
X43233027Y-143900920D01*
X43248145Y-143892085D01*
X43250614Y-143890506D01*
X43258782Y-143886792D01*
X43294653Y-143855884D01*
X43302569Y-143849599D01*
X43309615Y-143844452D01*
X43309620Y-143844447D01*
X43313552Y-143841575D01*
X43324527Y-143830600D01*
X43331375Y-143824242D01*
X43362323Y-143797576D01*
X43362324Y-143797575D01*
X43369127Y-143791713D01*
X43374011Y-143784178D01*
X43379458Y-143777934D01*
X43389058Y-143766069D01*
X43858303Y-143296824D01*
X49284201Y-143296824D01*
X49285441Y-143304040D01*
X49285441Y-143304042D01*
X49293332Y-143349965D01*
X49313810Y-143469141D01*
X49316676Y-143475875D01*
X49316676Y-143475877D01*
X49368215Y-143596999D01*
X49382267Y-143630024D01*
X49485898Y-143770843D01*
X49619146Y-143884045D01*
X49641325Y-143895370D01*
X49767869Y-143959987D01*
X49774862Y-143963558D01*
X49781967Y-143965297D01*
X49781971Y-143965298D01*
X49863084Y-143985146D01*
X49944693Y-144005115D01*
X49950295Y-144005463D01*
X49950298Y-144005463D01*
X49953795Y-144005680D01*
X49953805Y-144005680D01*
X49955734Y-144005800D01*
X50081779Y-144005800D01*
X50173182Y-143995144D01*
X50204393Y-143991505D01*
X50204395Y-143991505D01*
X50211665Y-143990657D01*
X50218543Y-143988161D01*
X50218545Y-143988160D01*
X50369136Y-143933498D01*
X50376015Y-143931001D01*
X50522233Y-143835136D01*
X50642475Y-143708205D01*
X50646150Y-143701878D01*
X50646153Y-143701874D01*
X50726615Y-143563347D01*
X50730292Y-143557017D01*
X50735495Y-143539840D01*
X50778851Y-143396688D01*
X50780973Y-143389682D01*
X50791799Y-143215176D01*
X50788341Y-143195048D01*
X50777459Y-143131721D01*
X50762190Y-143042859D01*
X50759324Y-143036123D01*
X50696600Y-142888713D01*
X50696599Y-142888711D01*
X50693733Y-142881976D01*
X50590102Y-142741157D01*
X50456854Y-142627955D01*
X50364897Y-142580999D01*
X50307654Y-142551769D01*
X50307652Y-142551768D01*
X50301138Y-142548442D01*
X50294033Y-142546703D01*
X50294029Y-142546702D01*
X50200597Y-142523840D01*
X50131307Y-142506885D01*
X50125705Y-142506537D01*
X50125702Y-142506537D01*
X50122205Y-142506320D01*
X50122195Y-142506320D01*
X50120266Y-142506200D01*
X49994221Y-142506200D01*
X49906424Y-142516436D01*
X49871607Y-142520495D01*
X49871605Y-142520495D01*
X49864335Y-142521343D01*
X49857457Y-142523839D01*
X49857455Y-142523840D01*
X49736477Y-142567753D01*
X49699985Y-142580999D01*
X49553767Y-142676864D01*
X49433525Y-142803795D01*
X49429850Y-142810122D01*
X49429847Y-142810126D01*
X49388114Y-142881976D01*
X49345708Y-142954983D01*
X49343587Y-142961987D01*
X49343585Y-142961991D01*
X49313882Y-143060064D01*
X49295027Y-143122318D01*
X49284201Y-143296824D01*
X43858303Y-143296824D01*
X44623723Y-142531405D01*
X44686035Y-142497379D01*
X44712818Y-142494500D01*
X44953042Y-142494500D01*
X45001260Y-142504091D01*
X45048939Y-142523840D01*
X45065993Y-142530904D01*
X45074177Y-142531981D01*
X45074179Y-142531982D01*
X45203812Y-142549048D01*
X45212000Y-142550126D01*
X45220188Y-142549048D01*
X45349821Y-142531982D01*
X45349823Y-142531981D01*
X45358007Y-142530904D01*
X45375061Y-142523840D01*
X45422740Y-142504091D01*
X45470958Y-142494500D01*
X45969042Y-142494500D01*
X46017260Y-142504091D01*
X46064939Y-142523840D01*
X46081993Y-142530904D01*
X46090177Y-142531981D01*
X46090179Y-142531982D01*
X46219812Y-142549048D01*
X46228000Y-142550126D01*
X46236188Y-142549048D01*
X46365821Y-142531982D01*
X46365823Y-142531981D01*
X46374007Y-142530904D01*
X46510063Y-142474547D01*
X46626897Y-142384897D01*
X46716547Y-142268063D01*
X46772904Y-142132007D01*
X46778245Y-142091442D01*
X46791048Y-141994188D01*
X46792126Y-141986000D01*
X46772904Y-141839993D01*
X46716547Y-141703937D01*
X46626897Y-141587103D01*
X46510063Y-141497453D01*
X46374007Y-141441096D01*
X46365823Y-141440019D01*
X46365821Y-141440018D01*
X46236188Y-141422952D01*
X46228000Y-141421874D01*
X46219812Y-141422952D01*
X46090179Y-141440018D01*
X46090177Y-141440019D01*
X46081993Y-141441096D01*
X46074364Y-141444256D01*
X46017260Y-141467909D01*
X45969042Y-141477500D01*
X45470958Y-141477500D01*
X45422740Y-141467909D01*
X45365636Y-141444256D01*
X45358007Y-141441096D01*
X45349823Y-141440019D01*
X45349821Y-141440018D01*
X45220188Y-141422952D01*
X45212000Y-141421874D01*
X45203812Y-141422952D01*
X45074179Y-141440018D01*
X45074177Y-141440019D01*
X45065993Y-141441096D01*
X45058364Y-141444256D01*
X45001260Y-141467909D01*
X44953042Y-141477500D01*
X44521073Y-141477500D01*
X44508943Y-141476145D01*
X44508904Y-141476627D01*
X44499957Y-141475907D01*
X44491201Y-141473926D01*
X44437492Y-141477258D01*
X44429690Y-141477500D01*
X44413487Y-141477500D01*
X44404571Y-141478777D01*
X44403122Y-141478984D01*
X44393072Y-141480013D01*
X44354782Y-141482389D01*
X44354781Y-141482389D01*
X44345823Y-141482945D01*
X44337382Y-141485993D01*
X44334468Y-141486596D01*
X44317534Y-141490818D01*
X44314695Y-141491648D01*
X44305813Y-141492920D01*
X44262700Y-141512523D01*
X44253349Y-141516329D01*
X44217262Y-141529356D01*
X44217260Y-141529357D01*
X44208820Y-141532404D01*
X44201576Y-141537696D01*
X44198982Y-141539075D01*
X44183843Y-141547922D01*
X44181383Y-141549495D01*
X44173218Y-141553208D01*
X44166424Y-141559062D01*
X44166421Y-141559064D01*
X44151338Y-141572061D01*
X44137343Y-141584119D01*
X44129428Y-141590403D01*
X44122382Y-141595550D01*
X44122375Y-141595556D01*
X44118448Y-141598425D01*
X44107473Y-141609400D01*
X44100626Y-141615758D01*
X44062873Y-141648287D01*
X44057989Y-141655822D01*
X44052542Y-141662066D01*
X44042942Y-141673931D01*
X42808278Y-142908595D01*
X42745966Y-142942621D01*
X42719183Y-142945500D01*
X36572114Y-142945500D01*
X36503993Y-142925498D01*
X36456565Y-142869743D01*
X36423097Y-142792772D01*
X36423090Y-142792760D01*
X36421033Y-142788028D01*
X36404563Y-142762568D01*
X36298393Y-142598454D01*
X36298391Y-142598451D01*
X36295585Y-142594114D01*
X36140150Y-142423293D01*
X36066068Y-142364786D01*
X35962956Y-142283353D01*
X35962951Y-142283350D01*
X35958902Y-142280152D01*
X35954386Y-142277659D01*
X35954383Y-142277657D01*
X35761234Y-142171033D01*
X35761230Y-142171031D01*
X35756710Y-142168536D01*
X35751841Y-142166812D01*
X35751837Y-142166810D01*
X35543878Y-142093168D01*
X35543874Y-142093167D01*
X35539003Y-142091442D01*
X35533913Y-142090535D01*
X35533908Y-142090534D01*
X35410550Y-142068561D01*
X35311628Y-142050941D01*
X35225124Y-142049884D01*
X35085861Y-142048182D01*
X35085859Y-142048182D01*
X35080691Y-142048119D01*
X34852394Y-142083053D01*
X34632869Y-142154805D01*
X34428010Y-142261448D01*
X34423877Y-142264551D01*
X34423874Y-142264553D01*
X34398835Y-142283353D01*
X34243319Y-142400118D01*
X34217523Y-142427112D01*
X34096751Y-142553493D01*
X34083757Y-142567090D01*
X33953609Y-142757881D01*
X33951435Y-142762565D01*
X33951433Y-142762568D01*
X33864418Y-142950027D01*
X33856369Y-142967366D01*
X33794649Y-143189921D01*
X33770107Y-143419567D01*
X26035000Y-143419567D01*
X26035000Y-138778933D01*
X33774500Y-138778933D01*
X33774501Y-141129066D01*
X33789266Y-141203301D01*
X33796161Y-141213620D01*
X33796162Y-141213622D01*
X33836516Y-141274015D01*
X33845516Y-141287484D01*
X33929699Y-141343734D01*
X34003933Y-141358500D01*
X35178810Y-141358500D01*
X36354066Y-141358499D01*
X36389818Y-141351388D01*
X36416126Y-141346156D01*
X36416128Y-141346155D01*
X36428301Y-141343734D01*
X36438621Y-141336839D01*
X36438622Y-141336838D01*
X36502168Y-141294377D01*
X36512484Y-141287484D01*
X36568734Y-141203301D01*
X36583500Y-141129067D01*
X36583500Y-141097000D01*
X50489874Y-141097000D01*
X50490952Y-141105188D01*
X50503869Y-141203301D01*
X50509096Y-141243007D01*
X50565453Y-141379063D01*
X50655103Y-141495897D01*
X50771937Y-141585547D01*
X50907993Y-141641904D01*
X50916177Y-141642981D01*
X50916179Y-141642982D01*
X51045812Y-141660048D01*
X51054000Y-141661126D01*
X51062188Y-141660048D01*
X51191821Y-141642982D01*
X51191823Y-141642981D01*
X51200007Y-141641904D01*
X51336063Y-141585547D01*
X51441638Y-141504536D01*
X51507856Y-141478937D01*
X51518340Y-141478500D01*
X52749787Y-141478500D01*
X52817908Y-141498502D01*
X52864401Y-141552158D01*
X52874505Y-141622432D01*
X52845011Y-141687012D01*
X52838882Y-141693595D01*
X52092521Y-142439956D01*
X52073505Y-142455315D01*
X52072444Y-142456281D01*
X52063696Y-142461929D01*
X52057250Y-142470106D01*
X52042771Y-142488472D01*
X52038794Y-142492947D01*
X52038865Y-142493008D01*
X52035512Y-142496965D01*
X52031829Y-142500648D01*
X52028803Y-142504883D01*
X52028801Y-142504885D01*
X52020547Y-142516436D01*
X52016982Y-142521185D01*
X51994167Y-142550126D01*
X51985066Y-142561670D01*
X51982015Y-142570357D01*
X51976666Y-142577843D01*
X51973683Y-142587819D01*
X51973682Y-142587820D01*
X51961902Y-142627211D01*
X51960072Y-142632843D01*
X51942984Y-142681502D01*
X51942500Y-142687091D01*
X51942500Y-142689802D01*
X51942385Y-142692469D01*
X51942366Y-142692532D01*
X51942192Y-142692525D01*
X51942145Y-142693271D01*
X51940275Y-142699524D01*
X51940684Y-142709928D01*
X51942403Y-142753678D01*
X51942500Y-142758625D01*
X51942500Y-148207654D01*
X51922498Y-148275775D01*
X51868842Y-148322268D01*
X51798568Y-148332372D01*
X51768281Y-148324062D01*
X51715640Y-148302257D01*
X51715633Y-148302255D01*
X51708007Y-148299096D01*
X51699823Y-148298019D01*
X51699821Y-148298018D01*
X51570188Y-148280952D01*
X51562000Y-148279874D01*
X51553812Y-148280952D01*
X51424179Y-148298018D01*
X51424177Y-148298019D01*
X51415993Y-148299096D01*
X51279937Y-148355453D01*
X51163103Y-148445103D01*
X51073453Y-148561937D01*
X51017096Y-148697993D01*
X50997874Y-148844000D01*
X51017096Y-148990007D01*
X51073453Y-149126063D01*
X51154464Y-149231638D01*
X51180063Y-149297856D01*
X51180500Y-149308340D01*
X51180500Y-151300660D01*
X51160498Y-151368781D01*
X51154473Y-151377350D01*
X51073453Y-151482937D01*
X51017096Y-151618993D01*
X51016019Y-151627177D01*
X51016018Y-151627179D01*
X51006792Y-151697257D01*
X50997874Y-151765000D01*
X50998952Y-151773188D01*
X51015672Y-151900188D01*
X51017096Y-151911007D01*
X51073453Y-152047063D01*
X51163103Y-152163897D01*
X51279937Y-152253547D01*
X51415993Y-152309904D01*
X51424177Y-152310981D01*
X51424179Y-152310982D01*
X51553812Y-152328048D01*
X51562000Y-152329126D01*
X51570188Y-152328048D01*
X51699821Y-152310982D01*
X51699823Y-152310981D01*
X51708007Y-152309904D01*
X51844063Y-152253547D01*
X51960897Y-152163897D01*
X52050547Y-152047063D01*
X52053704Y-152039442D01*
X52053706Y-152039438D01*
X52054287Y-152038034D01*
X52055095Y-152037031D01*
X52057839Y-152032279D01*
X52058580Y-152032707D01*
X52098835Y-151982752D01*
X52166198Y-151960330D01*
X52234989Y-151977887D01*
X52283368Y-152029848D01*
X52287105Y-152038030D01*
X52343453Y-152174063D01*
X52433103Y-152290897D01*
X52549937Y-152380547D01*
X52685993Y-152436904D01*
X52694177Y-152437981D01*
X52694179Y-152437982D01*
X52823812Y-152455048D01*
X52832000Y-152456126D01*
X52840188Y-152455048D01*
X52969821Y-152437982D01*
X52969823Y-152437981D01*
X52978007Y-152436904D01*
X53114063Y-152380547D01*
X53230897Y-152290897D01*
X53320547Y-152174063D01*
X53376904Y-152038007D01*
X53378045Y-152029345D01*
X53395048Y-151900188D01*
X53396126Y-151892000D01*
X53379723Y-151767406D01*
X53390662Y-151697257D01*
X53437791Y-151644159D01*
X53456427Y-151634551D01*
X53487436Y-151621707D01*
X53487441Y-151621704D01*
X53495063Y-151618547D01*
X53611897Y-151528897D01*
X53701547Y-151412063D01*
X53757904Y-151276007D01*
X53759769Y-151261845D01*
X53776048Y-151138188D01*
X53777126Y-151130000D01*
X53757904Y-150983993D01*
X53701547Y-150847937D01*
X53620536Y-150742362D01*
X53594937Y-150676144D01*
X53594500Y-150665660D01*
X53594500Y-143085212D01*
X53614502Y-143017091D01*
X53631405Y-142996117D01*
X58287117Y-138340405D01*
X58349429Y-138306379D01*
X58376212Y-138303500D01*
X59352660Y-138303500D01*
X59420781Y-138323502D01*
X59429350Y-138329527D01*
X59534937Y-138410547D01*
X59670993Y-138466904D01*
X59679177Y-138467981D01*
X59679179Y-138467982D01*
X59808812Y-138485048D01*
X59817000Y-138486126D01*
X59825188Y-138485048D01*
X59954821Y-138467982D01*
X59954823Y-138467981D01*
X59963007Y-138466904D01*
X60099063Y-138410547D01*
X60215897Y-138320897D01*
X60305547Y-138204063D01*
X60361904Y-138068007D01*
X60381126Y-137922000D01*
X60361904Y-137775993D01*
X60358744Y-137768365D01*
X60358743Y-137768360D01*
X60336938Y-137715719D01*
X60329348Y-137645130D01*
X60361126Y-137581642D01*
X60422184Y-137545414D01*
X60453346Y-137541500D01*
X62273660Y-137541500D01*
X62341781Y-137561502D01*
X62350350Y-137567527D01*
X62455937Y-137648547D01*
X62591993Y-137704904D01*
X62600177Y-137705981D01*
X62600179Y-137705982D01*
X62729812Y-137723048D01*
X62738000Y-137724126D01*
X62746188Y-137723048D01*
X62875821Y-137705982D01*
X62875823Y-137705981D01*
X62884007Y-137704904D01*
X63020063Y-137648547D01*
X63136897Y-137558897D01*
X63226547Y-137442063D01*
X63282904Y-137306007D01*
X63302126Y-137160000D01*
X63299067Y-137136768D01*
X63283982Y-137022179D01*
X63283981Y-137022177D01*
X63282904Y-137013993D01*
X63226547Y-136877937D01*
X63136897Y-136761103D01*
X63020063Y-136671453D01*
X62884007Y-136615096D01*
X62875823Y-136614019D01*
X62875821Y-136614018D01*
X62746188Y-136596952D01*
X62738000Y-136595874D01*
X62729812Y-136596952D01*
X62600179Y-136614018D01*
X62600177Y-136614019D01*
X62591993Y-136615096D01*
X62455937Y-136671453D01*
X62350362Y-136752464D01*
X62284144Y-136778063D01*
X62273660Y-136778500D01*
X57966136Y-136778500D01*
X57941847Y-136775915D01*
X57940400Y-136775847D01*
X57930220Y-136773655D01*
X57897356Y-136777545D01*
X57896660Y-136777627D01*
X57890679Y-136777980D01*
X57890687Y-136778072D01*
X57885508Y-136778500D01*
X57880308Y-136778500D01*
X57875181Y-136779353D01*
X57875173Y-136779354D01*
X57861151Y-136781688D01*
X57855275Y-136782525D01*
X57814431Y-136787359D01*
X57814429Y-136787360D01*
X57804092Y-136788583D01*
X57795795Y-136792567D01*
X57786717Y-136794078D01*
X57777555Y-136799022D01*
X57777551Y-136799023D01*
X57741356Y-136818553D01*
X57736072Y-136821246D01*
X57689602Y-136843560D01*
X57685308Y-136847170D01*
X57683376Y-136849102D01*
X57681427Y-136850889D01*
X57681374Y-136850918D01*
X57681255Y-136850788D01*
X57680687Y-136851289D01*
X57674943Y-136854388D01*
X57667876Y-136862033D01*
X57638133Y-136894209D01*
X57634703Y-136897775D01*
X57596967Y-136935511D01*
X57534655Y-136969537D01*
X57463840Y-136964472D01*
X57407004Y-136921925D01*
X57391462Y-136894631D01*
X57387707Y-136885564D01*
X57387704Y-136885559D01*
X57384547Y-136877937D01*
X57294897Y-136761103D01*
X57178063Y-136671453D01*
X57042007Y-136615096D01*
X57033823Y-136614019D01*
X57033821Y-136614018D01*
X56904188Y-136596952D01*
X56896000Y-136595874D01*
X56887812Y-136596952D01*
X56758179Y-136614018D01*
X56758177Y-136614019D01*
X56749993Y-136615096D01*
X56613937Y-136671453D01*
X56497103Y-136761103D01*
X56407453Y-136877937D01*
X56351096Y-137013993D01*
X56350019Y-137022177D01*
X56350018Y-137022179D01*
X56333727Y-137145928D01*
X56305005Y-137210855D01*
X56297900Y-137218577D01*
X52837882Y-140678595D01*
X52775570Y-140712621D01*
X52748787Y-140715500D01*
X51518340Y-140715500D01*
X51450219Y-140695498D01*
X51441650Y-140689473D01*
X51336063Y-140608453D01*
X51200007Y-140552096D01*
X51191823Y-140551019D01*
X51191821Y-140551018D01*
X51062188Y-140533952D01*
X51054000Y-140532874D01*
X51045812Y-140533952D01*
X50916179Y-140551018D01*
X50916177Y-140551019D01*
X50907993Y-140552096D01*
X50771937Y-140608453D01*
X50655103Y-140698103D01*
X50565453Y-140814937D01*
X50509096Y-140950993D01*
X50489874Y-141097000D01*
X36583500Y-141097000D01*
X36583499Y-138778934D01*
X36568734Y-138704699D01*
X36512484Y-138620516D01*
X36428301Y-138564266D01*
X36354067Y-138549500D01*
X35179190Y-138549500D01*
X34003934Y-138549501D01*
X33968182Y-138556612D01*
X33941874Y-138561844D01*
X33941872Y-138561845D01*
X33929699Y-138564266D01*
X33919379Y-138571161D01*
X33919378Y-138571162D01*
X33858985Y-138611516D01*
X33845516Y-138620516D01*
X33789266Y-138704699D01*
X33774500Y-138778933D01*
X26035000Y-138778933D01*
X26035000Y-134239000D01*
X28966708Y-134239000D01*
X28985839Y-134457674D01*
X29042653Y-134669703D01*
X29044978Y-134674688D01*
X29133095Y-134863659D01*
X29133098Y-134863664D01*
X29135421Y-134868646D01*
X29138577Y-134873153D01*
X29138578Y-134873155D01*
X29216228Y-134984050D01*
X29261326Y-135048457D01*
X29416543Y-135203674D01*
X29421051Y-135206831D01*
X29421054Y-135206833D01*
X29492706Y-135257004D01*
X29596354Y-135329579D01*
X29601336Y-135331902D01*
X29601341Y-135331905D01*
X29702116Y-135378896D01*
X29795297Y-135422347D01*
X30007326Y-135479161D01*
X30226000Y-135498292D01*
X30444674Y-135479161D01*
X30656703Y-135422347D01*
X30749884Y-135378896D01*
X30850659Y-135331905D01*
X30850664Y-135331902D01*
X30855646Y-135329579D01*
X30959294Y-135257004D01*
X31030946Y-135206833D01*
X31030949Y-135206831D01*
X31035457Y-135203674D01*
X31190674Y-135048457D01*
X31235773Y-134984050D01*
X31313422Y-134873155D01*
X31313423Y-134873153D01*
X31316579Y-134868646D01*
X31318904Y-134863661D01*
X31318907Y-134863655D01*
X31339146Y-134820251D01*
X31386063Y-134766965D01*
X31453341Y-134747500D01*
X33778607Y-134747500D01*
X33846728Y-134767502D01*
X33895350Y-134826096D01*
X33919122Y-134884642D01*
X33919125Y-134884648D01*
X33921066Y-134889428D01*
X34041740Y-135086349D01*
X34192955Y-135260916D01*
X34370651Y-135408442D01*
X34375103Y-135411044D01*
X34375108Y-135411047D01*
X34565598Y-135522360D01*
X34570056Y-135524965D01*
X34785814Y-135607355D01*
X34790880Y-135608386D01*
X34790881Y-135608386D01*
X34843674Y-135619127D01*
X35012132Y-135653400D01*
X35142323Y-135658174D01*
X35237767Y-135661674D01*
X35237771Y-135661674D01*
X35242931Y-135661863D01*
X35248051Y-135661207D01*
X35248053Y-135661207D01*
X35319088Y-135652107D01*
X35472013Y-135632517D01*
X35476961Y-135631032D01*
X35476968Y-135631031D01*
X35688276Y-135567635D01*
X35688275Y-135567635D01*
X35693226Y-135566150D01*
X35900629Y-135464544D01*
X35904834Y-135461544D01*
X35904840Y-135461541D01*
X36084449Y-135333427D01*
X36084451Y-135333425D01*
X36088653Y-135330428D01*
X36252247Y-135167404D01*
X36387018Y-134979850D01*
X36489347Y-134772803D01*
X36522285Y-134664392D01*
X36554982Y-134556775D01*
X36554983Y-134556769D01*
X36556486Y-134551823D01*
X36586631Y-134322845D01*
X36588314Y-134254000D01*
X36569390Y-134023822D01*
X36513126Y-133799826D01*
X36421033Y-133588028D01*
X36342058Y-133465950D01*
X36298393Y-133398454D01*
X36298391Y-133398451D01*
X36295585Y-133394114D01*
X36140150Y-133223293D01*
X36049343Y-133151578D01*
X35962956Y-133083353D01*
X35962951Y-133083350D01*
X35958902Y-133080152D01*
X35954386Y-133077659D01*
X35954383Y-133077657D01*
X35761234Y-132971033D01*
X35761230Y-132971031D01*
X35756710Y-132968536D01*
X35751841Y-132966812D01*
X35751837Y-132966810D01*
X35543878Y-132893168D01*
X35543874Y-132893167D01*
X35539003Y-132891442D01*
X35533913Y-132890535D01*
X35533908Y-132890534D01*
X35410550Y-132868561D01*
X35311628Y-132850941D01*
X35225124Y-132849884D01*
X35085861Y-132848182D01*
X35085859Y-132848182D01*
X35080691Y-132848119D01*
X34852394Y-132883053D01*
X34632869Y-132954805D01*
X34628277Y-132957195D01*
X34628278Y-132957195D01*
X34437694Y-133056407D01*
X34428010Y-133061448D01*
X34423877Y-133064551D01*
X34423874Y-133064553D01*
X34247454Y-133197013D01*
X34243319Y-133200118D01*
X34217523Y-133227112D01*
X34136911Y-133311468D01*
X34083757Y-133367090D01*
X33953609Y-133557881D01*
X33951436Y-133562562D01*
X33951431Y-133562571D01*
X33907343Y-133657551D01*
X33860519Y-133710918D01*
X33793056Y-133730500D01*
X31453341Y-133730500D01*
X31385220Y-133710498D01*
X31339146Y-133657749D01*
X31318907Y-133614345D01*
X31318904Y-133614339D01*
X31316579Y-133609354D01*
X31313422Y-133604845D01*
X31193833Y-133434054D01*
X31193831Y-133434051D01*
X31190674Y-133429543D01*
X31035457Y-133274326D01*
X31030949Y-133271169D01*
X31030946Y-133271167D01*
X30860155Y-133151578D01*
X30860153Y-133151577D01*
X30855646Y-133148421D01*
X30850664Y-133146098D01*
X30850659Y-133146095D01*
X30749884Y-133099104D01*
X30656703Y-133055653D01*
X30444674Y-132998839D01*
X30226000Y-132979708D01*
X30007326Y-132998839D01*
X29795297Y-133055653D01*
X29702116Y-133099104D01*
X29601341Y-133146095D01*
X29601336Y-133146098D01*
X29596354Y-133148421D01*
X29591847Y-133151577D01*
X29591845Y-133151578D01*
X29421054Y-133271167D01*
X29421051Y-133271169D01*
X29416543Y-133274326D01*
X29261326Y-133429543D01*
X29258169Y-133434051D01*
X29258167Y-133434054D01*
X29138578Y-133604845D01*
X29135421Y-133609354D01*
X29133098Y-133614336D01*
X29133095Y-133614341D01*
X29104320Y-133676050D01*
X29042653Y-133808297D01*
X28985839Y-134020326D01*
X28966708Y-134239000D01*
X26035000Y-134239000D01*
X26035000Y-132720907D01*
X83537238Y-132720907D01*
X83537754Y-132727051D01*
X83550989Y-132884660D01*
X83553722Y-132917209D01*
X83567945Y-132966810D01*
X83601364Y-133083353D01*
X83608021Y-133106570D01*
X83630807Y-133150907D01*
X83694236Y-133274326D01*
X83698066Y-133281779D01*
X83701889Y-133286603D01*
X83701892Y-133286607D01*
X83811678Y-133425122D01*
X83820427Y-133436160D01*
X83825120Y-133440154D01*
X83825121Y-133440155D01*
X83958437Y-133553615D01*
X83970445Y-133563835D01*
X83975823Y-133566841D01*
X83975825Y-133566842D01*
X84060822Y-133614345D01*
X84142404Y-133659940D01*
X84329755Y-133720814D01*
X84525362Y-133744139D01*
X84531497Y-133743667D01*
X84531499Y-133743667D01*
X84591301Y-133739065D01*
X84721774Y-133729026D01*
X84911509Y-133676050D01*
X84917013Y-133673270D01*
X85081841Y-133590010D01*
X85081843Y-133590009D01*
X85087342Y-133587231D01*
X85242574Y-133465950D01*
X85246600Y-133461286D01*
X85246603Y-133461283D01*
X85367264Y-133321496D01*
X85367265Y-133321494D01*
X85371293Y-133316828D01*
X85374339Y-133311467D01*
X85401586Y-133263502D01*
X85468596Y-133145544D01*
X85530777Y-132958622D01*
X85555466Y-132763183D01*
X85555860Y-132735000D01*
X85554478Y-132720907D01*
X86077238Y-132720907D01*
X86077754Y-132727051D01*
X86090989Y-132884660D01*
X86093722Y-132917209D01*
X86107945Y-132966810D01*
X86141364Y-133083353D01*
X86148021Y-133106570D01*
X86170807Y-133150907D01*
X86234236Y-133274326D01*
X86238066Y-133281779D01*
X86241889Y-133286603D01*
X86241892Y-133286607D01*
X86351678Y-133425122D01*
X86360427Y-133436160D01*
X86365120Y-133440154D01*
X86365121Y-133440155D01*
X86498437Y-133553615D01*
X86510445Y-133563835D01*
X86515823Y-133566841D01*
X86515825Y-133566842D01*
X86600822Y-133614345D01*
X86682404Y-133659940D01*
X86869755Y-133720814D01*
X87065362Y-133744139D01*
X87071497Y-133743667D01*
X87071499Y-133743667D01*
X87131301Y-133739065D01*
X87261774Y-133729026D01*
X87451509Y-133676050D01*
X87457013Y-133673270D01*
X87621841Y-133590010D01*
X87621843Y-133590009D01*
X87627342Y-133587231D01*
X87782574Y-133465950D01*
X87786600Y-133461286D01*
X87786603Y-133461283D01*
X87907264Y-133321496D01*
X87907265Y-133321494D01*
X87911293Y-133316828D01*
X87914339Y-133311467D01*
X87941586Y-133263502D01*
X88008596Y-133145544D01*
X88070777Y-132958622D01*
X88095466Y-132763183D01*
X88095860Y-132735000D01*
X88094478Y-132720907D01*
X88617238Y-132720907D01*
X88617754Y-132727051D01*
X88630989Y-132884660D01*
X88633722Y-132917209D01*
X88647945Y-132966810D01*
X88681364Y-133083353D01*
X88688021Y-133106570D01*
X88710807Y-133150907D01*
X88774236Y-133274326D01*
X88778066Y-133281779D01*
X88781889Y-133286603D01*
X88781892Y-133286607D01*
X88891678Y-133425122D01*
X88900427Y-133436160D01*
X88905120Y-133440154D01*
X88905121Y-133440155D01*
X89038437Y-133553615D01*
X89050445Y-133563835D01*
X89055823Y-133566841D01*
X89055825Y-133566842D01*
X89140822Y-133614345D01*
X89222404Y-133659940D01*
X89409755Y-133720814D01*
X89605362Y-133744139D01*
X89611497Y-133743667D01*
X89611499Y-133743667D01*
X89671301Y-133739065D01*
X89801774Y-133729026D01*
X89991509Y-133676050D01*
X89997013Y-133673270D01*
X90161841Y-133590010D01*
X90161843Y-133590009D01*
X90167342Y-133587231D01*
X90322574Y-133465950D01*
X90326600Y-133461286D01*
X90326603Y-133461283D01*
X90447264Y-133321496D01*
X90447265Y-133321494D01*
X90451293Y-133316828D01*
X90454339Y-133311467D01*
X90481586Y-133263502D01*
X90548596Y-133145544D01*
X90610777Y-132958622D01*
X90635466Y-132763183D01*
X90635860Y-132735000D01*
X90616637Y-132538948D01*
X90559700Y-132350363D01*
X90552792Y-132337371D01*
X90470111Y-132181871D01*
X90470109Y-132181868D01*
X90467217Y-132176429D01*
X90342712Y-132023770D01*
X90196611Y-131902905D01*
X90195677Y-131902132D01*
X90195674Y-131902130D01*
X90190927Y-131898203D01*
X90017643Y-131804508D01*
X89829460Y-131746256D01*
X89823335Y-131745612D01*
X89823334Y-131745612D01*
X89639676Y-131726309D01*
X89639674Y-131726309D01*
X89633547Y-131725665D01*
X89551518Y-131733130D01*
X89443504Y-131742960D01*
X89443501Y-131742961D01*
X89437365Y-131743519D01*
X89431459Y-131745257D01*
X89431455Y-131745258D01*
X89291275Y-131786516D01*
X89248387Y-131799138D01*
X89242927Y-131801992D01*
X89242928Y-131801992D01*
X89079272Y-131887549D01*
X89079268Y-131887552D01*
X89073812Y-131890404D01*
X89069012Y-131894264D01*
X89069011Y-131894264D01*
X89051377Y-131908442D01*
X88920288Y-132013840D01*
X88793663Y-132164745D01*
X88787597Y-132175779D01*
X88727892Y-132284384D01*
X88698762Y-132337371D01*
X88696898Y-132343246D01*
X88696897Y-132343249D01*
X88693869Y-132352795D01*
X88639197Y-132525142D01*
X88617238Y-132720907D01*
X88094478Y-132720907D01*
X88076637Y-132538948D01*
X88019700Y-132350363D01*
X88012792Y-132337371D01*
X87930111Y-132181871D01*
X87930109Y-132181868D01*
X87927217Y-132176429D01*
X87802712Y-132023770D01*
X87656611Y-131902905D01*
X87655677Y-131902132D01*
X87655674Y-131902130D01*
X87650927Y-131898203D01*
X87477643Y-131804508D01*
X87289460Y-131746256D01*
X87283335Y-131745612D01*
X87283334Y-131745612D01*
X87099676Y-131726309D01*
X87099674Y-131726309D01*
X87093547Y-131725665D01*
X87011518Y-131733130D01*
X86903504Y-131742960D01*
X86903501Y-131742961D01*
X86897365Y-131743519D01*
X86891459Y-131745257D01*
X86891455Y-131745258D01*
X86751275Y-131786516D01*
X86708387Y-131799138D01*
X86702927Y-131801992D01*
X86702928Y-131801992D01*
X86539272Y-131887549D01*
X86539268Y-131887552D01*
X86533812Y-131890404D01*
X86529012Y-131894264D01*
X86529011Y-131894264D01*
X86511377Y-131908442D01*
X86380288Y-132013840D01*
X86253663Y-132164745D01*
X86247597Y-132175779D01*
X86187892Y-132284384D01*
X86158762Y-132337371D01*
X86156898Y-132343246D01*
X86156897Y-132343249D01*
X86153869Y-132352795D01*
X86099197Y-132525142D01*
X86077238Y-132720907D01*
X85554478Y-132720907D01*
X85536637Y-132538948D01*
X85479700Y-132350363D01*
X85472792Y-132337371D01*
X85390111Y-132181871D01*
X85390109Y-132181868D01*
X85387217Y-132176429D01*
X85262712Y-132023770D01*
X85116611Y-131902905D01*
X85115677Y-131902132D01*
X85115674Y-131902130D01*
X85110927Y-131898203D01*
X84937643Y-131804508D01*
X84749460Y-131746256D01*
X84743335Y-131745612D01*
X84743334Y-131745612D01*
X84559676Y-131726309D01*
X84559674Y-131726309D01*
X84553547Y-131725665D01*
X84471518Y-131733130D01*
X84363504Y-131742960D01*
X84363501Y-131742961D01*
X84357365Y-131743519D01*
X84351459Y-131745257D01*
X84351455Y-131745258D01*
X84211275Y-131786516D01*
X84168387Y-131799138D01*
X84162927Y-131801992D01*
X84162928Y-131801992D01*
X83999272Y-131887549D01*
X83999268Y-131887552D01*
X83993812Y-131890404D01*
X83989012Y-131894264D01*
X83989011Y-131894264D01*
X83971377Y-131908442D01*
X83840288Y-132013840D01*
X83713663Y-132164745D01*
X83707597Y-132175779D01*
X83647892Y-132284384D01*
X83618762Y-132337371D01*
X83616898Y-132343246D01*
X83616897Y-132343249D01*
X83613869Y-132352795D01*
X83559197Y-132525142D01*
X83537238Y-132720907D01*
X26035000Y-132720907D01*
X26035000Y-130810000D01*
X28966708Y-130810000D01*
X28985839Y-131028674D01*
X29042653Y-131240703D01*
X29066082Y-131290947D01*
X29133095Y-131434659D01*
X29133098Y-131434664D01*
X29135421Y-131439646D01*
X29138577Y-131444153D01*
X29138578Y-131444155D01*
X29238144Y-131586349D01*
X29261326Y-131619457D01*
X29416543Y-131774674D01*
X29421051Y-131777831D01*
X29421054Y-131777833D01*
X29591845Y-131897422D01*
X29596354Y-131900579D01*
X29601336Y-131902902D01*
X29601341Y-131902905D01*
X29702116Y-131949896D01*
X29795297Y-131993347D01*
X30007326Y-132050161D01*
X30226000Y-132069292D01*
X30444674Y-132050161D01*
X30656703Y-131993347D01*
X30749884Y-131949896D01*
X30850659Y-131902905D01*
X30850664Y-131902902D01*
X30855646Y-131900579D01*
X30860155Y-131897422D01*
X31030946Y-131777833D01*
X31030949Y-131777831D01*
X31035457Y-131774674D01*
X31190674Y-131619457D01*
X31213857Y-131586349D01*
X31313422Y-131444155D01*
X31313423Y-131444153D01*
X31316579Y-131439646D01*
X31318904Y-131434661D01*
X31318907Y-131434655D01*
X31339146Y-131391251D01*
X31386063Y-131337965D01*
X31453341Y-131318500D01*
X33808196Y-131318500D01*
X33876317Y-131338502D01*
X33920112Y-131387079D01*
X33921066Y-131389428D01*
X34041740Y-131586349D01*
X34045124Y-131590255D01*
X34045125Y-131590257D01*
X34070419Y-131619457D01*
X34192955Y-131760916D01*
X34276683Y-131830428D01*
X34363051Y-131902132D01*
X34370651Y-131908442D01*
X34375103Y-131911044D01*
X34375108Y-131911047D01*
X34544404Y-132009975D01*
X34570056Y-132024965D01*
X34785814Y-132107355D01*
X34790880Y-132108386D01*
X34790881Y-132108386D01*
X34843674Y-132119127D01*
X35012132Y-132153400D01*
X35142323Y-132158174D01*
X35237767Y-132161674D01*
X35237771Y-132161674D01*
X35242931Y-132161863D01*
X35248051Y-132161207D01*
X35248053Y-132161207D01*
X35319088Y-132152107D01*
X35472013Y-132132517D01*
X35476961Y-132131032D01*
X35476968Y-132131031D01*
X35688276Y-132067635D01*
X35688275Y-132067635D01*
X35693226Y-132066150D01*
X35900629Y-131964544D01*
X35904834Y-131961544D01*
X35904840Y-131961541D01*
X36084449Y-131833427D01*
X36084451Y-131833425D01*
X36088653Y-131830428D01*
X36252247Y-131667404D01*
X36387018Y-131479850D01*
X36407159Y-131439099D01*
X36437135Y-131378447D01*
X36489347Y-131272803D01*
X36497745Y-131245161D01*
X87670893Y-131245161D01*
X87680187Y-131257175D01*
X87720588Y-131285464D01*
X87730084Y-131290947D01*
X87919613Y-131379326D01*
X87929905Y-131383072D01*
X88131901Y-131437196D01*
X88142696Y-131439099D01*
X88351025Y-131457326D01*
X88361975Y-131457326D01*
X88570304Y-131439099D01*
X88581099Y-131437196D01*
X88783095Y-131383072D01*
X88793387Y-131379326D01*
X88982916Y-131290947D01*
X88992412Y-131285464D01*
X89033648Y-131256590D01*
X89042023Y-131246112D01*
X89034957Y-131232668D01*
X88369311Y-130567021D01*
X88355368Y-130559408D01*
X88353534Y-130559539D01*
X88346920Y-130563790D01*
X87677320Y-131233391D01*
X87670893Y-131245161D01*
X36497745Y-131245161D01*
X36514657Y-131189498D01*
X36554982Y-131056775D01*
X36554983Y-131056769D01*
X36556486Y-131051823D01*
X36580140Y-130872149D01*
X36586194Y-130826167D01*
X36586194Y-130826161D01*
X36586631Y-130822845D01*
X36587887Y-130771468D01*
X36588232Y-130757364D01*
X36588232Y-130757360D01*
X36588314Y-130754000D01*
X36569390Y-130523822D01*
X36513126Y-130299826D01*
X36421033Y-130088028D01*
X36295585Y-129894114D01*
X36140150Y-129723293D01*
X36037052Y-129641871D01*
X35962956Y-129583353D01*
X35962951Y-129583350D01*
X35958902Y-129580152D01*
X35954386Y-129577659D01*
X35954383Y-129577657D01*
X35761234Y-129471033D01*
X35761230Y-129471031D01*
X35756710Y-129468536D01*
X35751841Y-129466812D01*
X35751837Y-129466810D01*
X35543878Y-129393168D01*
X35543874Y-129393167D01*
X35539003Y-129391442D01*
X35533913Y-129390535D01*
X35533908Y-129390534D01*
X35410550Y-129368561D01*
X35311628Y-129350941D01*
X35225124Y-129349884D01*
X35085861Y-129348182D01*
X35085859Y-129348182D01*
X35080691Y-129348119D01*
X34852394Y-129383053D01*
X34632869Y-129454805D01*
X34428010Y-129561448D01*
X34423877Y-129564551D01*
X34423874Y-129564553D01*
X34279097Y-129673255D01*
X34243319Y-129700118D01*
X34217523Y-129727112D01*
X34137967Y-129810363D01*
X34083757Y-129867090D01*
X33953609Y-130057881D01*
X33951435Y-130062565D01*
X33951433Y-130062568D01*
X33874386Y-130228551D01*
X33827562Y-130281918D01*
X33760099Y-130301500D01*
X31453341Y-130301500D01*
X31385220Y-130281498D01*
X31339146Y-130228749D01*
X31318907Y-130185345D01*
X31318904Y-130185339D01*
X31316579Y-130180354D01*
X31313422Y-130175845D01*
X31193833Y-130005054D01*
X31193831Y-130005051D01*
X31190674Y-130000543D01*
X31035457Y-129845326D01*
X31030949Y-129842169D01*
X31030946Y-129842167D01*
X30860155Y-129722578D01*
X30860153Y-129722577D01*
X30855646Y-129719421D01*
X30850664Y-129717098D01*
X30850659Y-129717095D01*
X30706370Y-129649813D01*
X30656703Y-129626653D01*
X30444674Y-129569839D01*
X30226000Y-129550708D01*
X30007326Y-129569839D01*
X29795297Y-129626653D01*
X29745630Y-129649813D01*
X29601341Y-129717095D01*
X29601336Y-129717098D01*
X29596354Y-129719421D01*
X29591847Y-129722577D01*
X29591845Y-129722578D01*
X29421054Y-129842167D01*
X29421051Y-129842169D01*
X29416543Y-129845326D01*
X29261326Y-130000543D01*
X29258169Y-130005051D01*
X29258167Y-130005054D01*
X29138578Y-130175845D01*
X29135421Y-130180354D01*
X29133098Y-130185336D01*
X29133095Y-130185341D01*
X29112854Y-130228749D01*
X29042653Y-130379297D01*
X28985839Y-130591326D01*
X28966708Y-130810000D01*
X26035000Y-130810000D01*
X26035000Y-127254000D01*
X28966708Y-127254000D01*
X28985839Y-127472674D01*
X29042653Y-127684703D01*
X29085654Y-127776920D01*
X29133095Y-127878659D01*
X29133098Y-127878664D01*
X29135421Y-127883646D01*
X29138577Y-127888153D01*
X29138578Y-127888155D01*
X29201205Y-127977595D01*
X29261326Y-128063457D01*
X29416543Y-128218674D01*
X29421051Y-128221831D01*
X29421054Y-128221833D01*
X29591845Y-128341422D01*
X29596354Y-128344579D01*
X29601336Y-128346902D01*
X29601341Y-128346905D01*
X29702116Y-128393896D01*
X29795297Y-128437347D01*
X30007326Y-128494161D01*
X30226000Y-128513292D01*
X30444674Y-128494161D01*
X30656703Y-128437347D01*
X30749884Y-128393896D01*
X30850659Y-128346905D01*
X30850664Y-128346902D01*
X30855646Y-128344579D01*
X30860155Y-128341422D01*
X31030946Y-128221833D01*
X31030949Y-128221831D01*
X31035457Y-128218674D01*
X31190674Y-128063457D01*
X31250796Y-127977595D01*
X31313422Y-127888155D01*
X31313423Y-127888153D01*
X31316579Y-127883646D01*
X31318904Y-127878661D01*
X31318907Y-127878655D01*
X31339146Y-127835251D01*
X31386063Y-127781965D01*
X31453341Y-127762500D01*
X33648501Y-127762500D01*
X33716622Y-127782502D01*
X33763115Y-127836158D01*
X33774501Y-127888500D01*
X33774501Y-128429066D01*
X33789266Y-128503301D01*
X33845516Y-128587484D01*
X33929699Y-128643734D01*
X34003933Y-128658500D01*
X35178810Y-128658500D01*
X36354066Y-128658499D01*
X36389818Y-128651388D01*
X36416126Y-128646156D01*
X36416128Y-128646155D01*
X36428301Y-128643734D01*
X36438621Y-128636839D01*
X36438622Y-128636838D01*
X36502168Y-128594377D01*
X36512484Y-128587484D01*
X36568734Y-128503301D01*
X36583500Y-128429067D01*
X36583499Y-126078934D01*
X36575969Y-126041075D01*
X36571156Y-126016874D01*
X36571155Y-126016872D01*
X36568734Y-126004699D01*
X36560057Y-125991712D01*
X36519377Y-125930832D01*
X36512484Y-125920516D01*
X36428301Y-125864266D01*
X36354067Y-125849500D01*
X35179190Y-125849500D01*
X34003934Y-125849501D01*
X33968745Y-125856500D01*
X33941874Y-125861844D01*
X33941872Y-125861845D01*
X33929699Y-125864266D01*
X33919379Y-125871161D01*
X33919378Y-125871162D01*
X33885451Y-125893832D01*
X33845516Y-125920516D01*
X33789266Y-126004699D01*
X33774500Y-126078933D01*
X33774500Y-126619500D01*
X33754498Y-126687621D01*
X33700842Y-126734114D01*
X33648500Y-126745500D01*
X31453341Y-126745500D01*
X31385220Y-126725498D01*
X31339146Y-126672749D01*
X31318907Y-126629345D01*
X31318904Y-126629339D01*
X31316579Y-126624354D01*
X31190674Y-126444543D01*
X31035457Y-126289326D01*
X31030949Y-126286169D01*
X31030946Y-126286167D01*
X30860155Y-126166578D01*
X30860153Y-126166577D01*
X30855646Y-126163421D01*
X30850664Y-126161098D01*
X30850659Y-126161095D01*
X30687734Y-126085123D01*
X30656703Y-126070653D01*
X30444674Y-126013839D01*
X30226000Y-125994708D01*
X30007326Y-126013839D01*
X29795297Y-126070653D01*
X29764266Y-126085123D01*
X29601341Y-126161095D01*
X29601336Y-126161098D01*
X29596354Y-126163421D01*
X29591847Y-126166577D01*
X29591845Y-126166578D01*
X29421054Y-126286167D01*
X29421051Y-126286169D01*
X29416543Y-126289326D01*
X29261326Y-126444543D01*
X29135421Y-126624354D01*
X29133098Y-126629336D01*
X29133095Y-126629341D01*
X29112854Y-126672749D01*
X29042653Y-126823297D01*
X28985839Y-127035326D01*
X28966708Y-127254000D01*
X26035000Y-127254000D01*
X26035000Y-123887186D01*
X81417518Y-123887186D01*
X81443079Y-124155100D01*
X81507047Y-124416518D01*
X81608083Y-124665963D01*
X81744069Y-124898210D01*
X81912158Y-125108395D01*
X82108827Y-125292113D01*
X82329957Y-125445516D01*
X82570916Y-125565391D01*
X82575250Y-125566812D01*
X82575253Y-125566813D01*
X82822323Y-125647807D01*
X82822329Y-125647808D01*
X82826656Y-125649227D01*
X82831147Y-125650007D01*
X82831148Y-125650007D01*
X83088038Y-125694611D01*
X83088046Y-125694612D01*
X83091819Y-125695267D01*
X83095656Y-125695458D01*
X83175277Y-125699422D01*
X83175285Y-125699422D01*
X83176848Y-125699500D01*
X83344874Y-125699500D01*
X83347142Y-125699335D01*
X83347154Y-125699335D01*
X83477957Y-125689844D01*
X83544925Y-125684985D01*
X83549380Y-125684001D01*
X83549383Y-125684001D01*
X83803270Y-125627947D01*
X83803272Y-125627946D01*
X83807726Y-125626963D01*
X84059400Y-125531613D01*
X84294672Y-125400931D01*
X84441342Y-125288996D01*
X84504991Y-125240421D01*
X84504995Y-125240417D01*
X84508616Y-125237654D01*
X84696749Y-125045203D01*
X84803742Y-124898210D01*
X84852442Y-124831304D01*
X84852447Y-124831297D01*
X84855130Y-124827610D01*
X84980441Y-124589433D01*
X85070057Y-124335662D01*
X85095188Y-124208156D01*
X85121220Y-124076083D01*
X85121221Y-124076077D01*
X85122101Y-124071611D01*
X85131282Y-123887186D01*
X85135255Y-123807383D01*
X85135255Y-123807377D01*
X85135482Y-123802814D01*
X85109921Y-123534900D01*
X85097428Y-123483842D01*
X85047039Y-123277920D01*
X85045953Y-123273482D01*
X84944917Y-123024037D01*
X84808931Y-122791790D01*
X84640842Y-122581605D01*
X84444173Y-122397887D01*
X84223043Y-122244484D01*
X83982084Y-122124609D01*
X83977750Y-122123188D01*
X83977747Y-122123187D01*
X83730677Y-122042193D01*
X83730671Y-122042192D01*
X83726344Y-122040773D01*
X83721852Y-122039993D01*
X83464962Y-121995389D01*
X83464954Y-121995388D01*
X83461181Y-121994733D01*
X83451218Y-121994237D01*
X83377723Y-121990578D01*
X83377715Y-121990578D01*
X83376152Y-121990500D01*
X83208126Y-121990500D01*
X83205858Y-121990665D01*
X83205846Y-121990665D01*
X83075043Y-122000156D01*
X83008075Y-122005015D01*
X83003620Y-122005999D01*
X83003617Y-122005999D01*
X82749730Y-122062053D01*
X82749728Y-122062054D01*
X82745274Y-122063037D01*
X82493600Y-122158387D01*
X82258328Y-122289069D01*
X82254696Y-122291841D01*
X82048009Y-122449579D01*
X82048005Y-122449583D01*
X82044384Y-122452346D01*
X81856251Y-122644797D01*
X81843760Y-122661958D01*
X81700558Y-122858696D01*
X81700553Y-122858703D01*
X81697870Y-122862390D01*
X81572559Y-123100567D01*
X81482943Y-123354338D01*
X81482060Y-123358820D01*
X81447355Y-123534900D01*
X81430899Y-123618389D01*
X81430672Y-123622942D01*
X81430672Y-123622945D01*
X81421491Y-123807383D01*
X81417518Y-123887186D01*
X26035000Y-123887186D01*
X26035000Y-121632004D01*
X26055002Y-121563883D01*
X26108658Y-121517390D01*
X26178932Y-121507286D01*
X26243512Y-121536780D01*
X26274344Y-121576967D01*
X26301069Y-121632004D01*
X26352606Y-121738141D01*
X26483705Y-121950408D01*
X26554265Y-122064654D01*
X26556803Y-122068764D01*
X26558744Y-122071294D01*
X26558745Y-122071295D01*
X26727977Y-122291841D01*
X26793366Y-122377058D01*
X27059873Y-122659869D01*
X27062278Y-122661952D01*
X27062284Y-122661958D01*
X27289406Y-122858696D01*
X27353596Y-122914299D01*
X27671526Y-123137745D01*
X27674301Y-123139302D01*
X27913408Y-123273482D01*
X28010410Y-123327917D01*
X28013324Y-123329184D01*
X28013328Y-123329186D01*
X28051101Y-123345610D01*
X28366777Y-123482870D01*
X28515896Y-123530460D01*
X28733935Y-123600046D01*
X28733944Y-123600048D01*
X28736979Y-123601017D01*
X28841035Y-123622945D01*
X29114106Y-123680490D01*
X29114111Y-123680491D01*
X29117225Y-123681147D01*
X29503621Y-123722441D01*
X29506809Y-123722458D01*
X29506814Y-123722458D01*
X29683023Y-123723381D01*
X29892213Y-123724476D01*
X30085617Y-123705853D01*
X30275856Y-123687535D01*
X30275861Y-123687534D01*
X30279021Y-123687230D01*
X30282141Y-123686607D01*
X30282145Y-123686606D01*
X30656958Y-123611711D01*
X30656957Y-123611711D01*
X30660086Y-123611086D01*
X30945689Y-123523223D01*
X31028462Y-123497759D01*
X31028465Y-123497758D01*
X31031504Y-123496823D01*
X31034432Y-123495586D01*
X31034438Y-123495584D01*
X31386530Y-123346854D01*
X31386537Y-123346851D01*
X31389474Y-123345610D01*
X31730331Y-123158997D01*
X32050584Y-122938893D01*
X32346955Y-122687552D01*
X32349160Y-122685260D01*
X32349166Y-122685255D01*
X32614194Y-122409850D01*
X32614196Y-122409847D01*
X32616409Y-122407548D01*
X32744267Y-122244484D01*
X32854213Y-122104265D01*
X32854216Y-122104260D01*
X32856187Y-122101747D01*
X33063835Y-121773281D01*
X33065255Y-121770433D01*
X33065260Y-121770424D01*
X33235806Y-121428360D01*
X33237226Y-121425512D01*
X33374585Y-121062001D01*
X33384791Y-121023646D01*
X33473685Y-120689555D01*
X33474506Y-120686470D01*
X33535966Y-120302764D01*
X33538091Y-120265921D01*
X33558237Y-119916505D01*
X33558335Y-119914811D01*
X33558429Y-119888000D01*
X33538769Y-119499900D01*
X33479989Y-119115775D01*
X33382692Y-118739555D01*
X33381587Y-118736567D01*
X33248983Y-118378091D01*
X33248980Y-118378085D01*
X33247874Y-118375094D01*
X33076915Y-118026123D01*
X32871565Y-117696215D01*
X32633928Y-117388748D01*
X32366435Y-117106869D01*
X32071826Y-116853466D01*
X32069218Y-116851646D01*
X32069212Y-116851642D01*
X31755730Y-116632954D01*
X31753117Y-116631131D01*
X31413572Y-116442143D01*
X31414059Y-116441269D01*
X31364802Y-116396036D01*
X31346772Y-116327366D01*
X31368731Y-116259851D01*
X31423705Y-116214925D01*
X31472720Y-116205000D01*
X101878400Y-116205000D01*
X101946521Y-116225002D01*
G37*
G04 #@! TD.AperFunction*
M02*
