G04 #@! TF.GenerationSoftware,KiCad,Pcbnew,6.0.2+dfsg-1*
G04 #@! TF.CreationDate,2024-06-30T21:42:03-06:00*
G04 #@! TF.ProjectId,mss-cascade-basic,6d73732d-6361-4736-9361-64652d626173,rev?*
G04 #@! TF.SameCoordinates,Original*
G04 #@! TF.FileFunction,Soldermask,Bot*
G04 #@! TF.FilePolarity,Negative*
%FSLAX46Y46*%
G04 Gerber Fmt 4.6, Leading zero omitted, Abs format (unit mm)*
G04 Created by KiCad (PCBNEW 6.0.2+dfsg-1) date 2024-06-30 21:42:03*
%MOMM*%
%LPD*%
G01*
G04 APERTURE LIST*
%ADD10C,6.552400*%
%ADD11C,2.652400*%
%ADD12C,2.452400*%
%ADD13C,3.352400*%
%ADD14C,1.652400*%
%ADD15C,1.143000*%
%ADD16C,2.152400*%
G04 APERTURE END LIST*
D10*
X103632000Y-187452000D03*
X103632000Y-119888000D03*
G36*
G01*
X31089000Y-173973800D02*
X33589000Y-173973800D01*
G75*
G02*
X33665200Y-174050000I0J-76200D01*
G01*
X33665200Y-176550000D01*
G75*
G02*
X33589000Y-176626200I-76200J0D01*
G01*
X31089000Y-176626200D01*
G75*
G02*
X31012800Y-176550000I0J76200D01*
G01*
X31012800Y-174050000D01*
G75*
G02*
X31089000Y-173973800I76200J0D01*
G01*
G37*
D11*
X32339000Y-180300000D03*
G36*
G01*
X34029000Y-126027800D02*
X36329000Y-126027800D01*
G75*
G02*
X36405200Y-126104000I0J-76200D01*
G01*
X36405200Y-128404000D01*
G75*
G02*
X36329000Y-128480200I-76200J0D01*
G01*
X34029000Y-128480200D01*
G75*
G02*
X33952800Y-128404000I0J76200D01*
G01*
X33952800Y-126104000D01*
G75*
G02*
X34029000Y-126027800I76200J0D01*
G01*
G37*
D12*
X35179000Y-130754000D03*
X35179000Y-134254000D03*
G36*
G01*
X34029000Y-151427800D02*
X36329000Y-151427800D01*
G75*
G02*
X36405200Y-151504000I0J-76200D01*
G01*
X36405200Y-153804000D01*
G75*
G02*
X36329000Y-153880200I-76200J0D01*
G01*
X34029000Y-153880200D01*
G75*
G02*
X33952800Y-153804000I0J76200D01*
G01*
X33952800Y-151504000D01*
G75*
G02*
X34029000Y-151427800I76200J0D01*
G01*
G37*
X35179000Y-156154000D03*
X35179000Y-159654000D03*
G36*
G01*
X34029000Y-138727800D02*
X36329000Y-138727800D01*
G75*
G02*
X36405200Y-138804000I0J-76200D01*
G01*
X36405200Y-141104000D01*
G75*
G02*
X36329000Y-141180200I-76200J0D01*
G01*
X34029000Y-141180200D01*
G75*
G02*
X33952800Y-141104000I0J76200D01*
G01*
X33952800Y-138804000D01*
G75*
G02*
X34029000Y-138727800I76200J0D01*
G01*
G37*
X35179000Y-143454000D03*
X35179000Y-146954000D03*
D13*
X94706500Y-123845000D03*
X83276500Y-123845000D03*
G36*
G01*
X94262700Y-129445000D02*
X94262700Y-130945000D01*
G75*
G02*
X94186500Y-131021200I-76200J0D01*
G01*
X92686500Y-131021200D01*
G75*
G02*
X92610300Y-130945000I0J76200D01*
G01*
X92610300Y-129445000D01*
G75*
G02*
X92686500Y-129368800I76200J0D01*
G01*
X94186500Y-129368800D01*
G75*
G02*
X94262700Y-129445000I0J-76200D01*
G01*
G37*
D14*
X92166500Y-132735000D03*
X90896500Y-130195000D03*
X89626500Y-132735000D03*
X88356500Y-130195000D03*
X87086500Y-132735000D03*
X85816500Y-130195000D03*
X84546500Y-132735000D03*
D10*
X29718000Y-187452000D03*
X29718000Y-119888000D03*
D13*
X94777500Y-183368000D03*
X83347500Y-183368000D03*
G36*
G01*
X83791300Y-177768000D02*
X83791300Y-176268000D01*
G75*
G02*
X83867500Y-176191800I76200J0D01*
G01*
X85367500Y-176191800D01*
G75*
G02*
X85443700Y-176268000I0J-76200D01*
G01*
X85443700Y-177768000D01*
G75*
G02*
X85367500Y-177844200I-76200J0D01*
G01*
X83867500Y-177844200D01*
G75*
G02*
X83791300Y-177768000I0J76200D01*
G01*
G37*
D14*
X85887500Y-174478000D03*
X87157500Y-177018000D03*
X88427500Y-174478000D03*
X89697500Y-177018000D03*
X90967500Y-174478000D03*
X92237500Y-177018000D03*
X93507500Y-174478000D03*
D15*
X44958000Y-144272000D03*
X50038000Y-143256000D03*
X50038000Y-145288000D03*
D16*
X73025000Y-184785000D03*
X30226000Y-127254000D03*
X76454000Y-175895000D03*
X30226000Y-156210000D03*
X30226000Y-130810000D03*
X73025000Y-178943000D03*
X73025000Y-173101000D03*
X69215000Y-181864000D03*
X76454000Y-181864000D03*
X30226000Y-159639000D03*
X28194000Y-175260000D03*
X28194000Y-180340000D03*
X30226000Y-152654000D03*
X76454000Y-170180000D03*
X100457000Y-158750000D03*
X30226000Y-134239000D03*
M02*
