G04 #@! TF.GenerationSoftware,KiCad,Pcbnew,6.0.2+dfsg-1*
G04 #@! TF.CreationDate,2024-06-30T21:42:03-06:00*
G04 #@! TF.ProjectId,mss-cascade-basic,6d73732d-6361-4736-9361-64652d626173,rev?*
G04 #@! TF.SameCoordinates,Original*
G04 #@! TF.FileFunction,Copper,L1,Top*
G04 #@! TF.FilePolarity,Positive*
%FSLAX46Y46*%
G04 Gerber Fmt 4.6, Leading zero omitted, Abs format (unit mm)*
G04 Created by KiCad (PCBNEW 6.0.2+dfsg-1) date 2024-06-30 21:42:03*
%MOMM*%
%LPD*%
G01*
G04 APERTURE LIST*
G04 #@! TA.AperFunction,SMDPad,CuDef*
%ADD10R,0.900000X1.200000*%
G04 #@! TD*
G04 #@! TA.AperFunction,ComponentPad*
%ADD11C,6.400000*%
G04 #@! TD*
G04 #@! TA.AperFunction,SMDPad,CuDef*
%ADD12R,2.500000X1.800000*%
G04 #@! TD*
G04 #@! TA.AperFunction,ComponentPad*
%ADD13R,2.500000X2.500000*%
G04 #@! TD*
G04 #@! TA.AperFunction,ComponentPad*
%ADD14C,2.500000*%
G04 #@! TD*
G04 #@! TA.AperFunction,SMDPad,CuDef*
%ADD15R,1.900000X1.400000*%
G04 #@! TD*
G04 #@! TA.AperFunction,ComponentPad*
%ADD16R,2.300000X2.300000*%
G04 #@! TD*
G04 #@! TA.AperFunction,ComponentPad*
%ADD17C,2.300000*%
G04 #@! TD*
G04 #@! TA.AperFunction,ComponentPad*
%ADD18R,1.500000X1.500000*%
G04 #@! TD*
G04 #@! TA.AperFunction,ComponentPad*
%ADD19C,1.500000*%
G04 #@! TD*
G04 #@! TA.AperFunction,SMDPad,CuDef*
%ADD20R,2.108200X5.562600*%
G04 #@! TD*
G04 #@! TA.AperFunction,ConnectorPad*
%ADD21C,0.787400*%
G04 #@! TD*
G04 #@! TA.AperFunction,SMDPad,CuDef*
%ADD22R,0.550000X1.300000*%
G04 #@! TD*
G04 #@! TA.AperFunction,ViaPad*
%ADD23C,0.609600*%
G04 #@! TD*
G04 #@! TA.AperFunction,Conductor*
%ADD24C,1.016000*%
G04 #@! TD*
G04 #@! TA.AperFunction,Conductor*
%ADD25C,0.508000*%
G04 #@! TD*
G04 #@! TA.AperFunction,Conductor*
%ADD26C,0.635000*%
G04 #@! TD*
G04 #@! TA.AperFunction,Conductor*
%ADD27C,0.254000*%
G04 #@! TD*
G04 APERTURE END LIST*
G04 #@! TA.AperFunction,SMDPad,CuDef*
G36*
G01*
X66098000Y-184403000D02*
X66998000Y-184403000D01*
G75*
G02*
X67248000Y-184653000I0J-250000D01*
G01*
X67248000Y-185178000D01*
G75*
G02*
X66998000Y-185428000I-250000J0D01*
G01*
X66098000Y-185428000D01*
G75*
G02*
X65848000Y-185178000I0J250000D01*
G01*
X65848000Y-184653000D01*
G75*
G02*
X66098000Y-184403000I250000J0D01*
G01*
G37*
G04 #@! TD.AperFunction*
G04 #@! TA.AperFunction,SMDPad,CuDef*
G36*
G01*
X66098000Y-186228000D02*
X66998000Y-186228000D01*
G75*
G02*
X67248000Y-186478000I0J-250000D01*
G01*
X67248000Y-187003000D01*
G75*
G02*
X66998000Y-187253000I-250000J0D01*
G01*
X66098000Y-187253000D01*
G75*
G02*
X65848000Y-187003000I0J250000D01*
G01*
X65848000Y-186478000D01*
G75*
G02*
X66098000Y-186228000I250000J0D01*
G01*
G37*
G04 #@! TD.AperFunction*
D10*
X92709000Y-142113000D03*
X89409000Y-142113000D03*
G04 #@! TA.AperFunction,SMDPad,CuDef*
G36*
G01*
X88083064Y-149421000D02*
X88083064Y-148521000D01*
G75*
G02*
X88333064Y-148271000I250000J0D01*
G01*
X88858064Y-148271000D01*
G75*
G02*
X89108064Y-148521000I0J-250000D01*
G01*
X89108064Y-149421000D01*
G75*
G02*
X88858064Y-149671000I-250000J0D01*
G01*
X88333064Y-149671000D01*
G75*
G02*
X88083064Y-149421000I0J250000D01*
G01*
G37*
G04 #@! TD.AperFunction*
G04 #@! TA.AperFunction,SMDPad,CuDef*
G36*
G01*
X89908064Y-149421000D02*
X89908064Y-148521000D01*
G75*
G02*
X90158064Y-148271000I250000J0D01*
G01*
X90683064Y-148271000D01*
G75*
G02*
X90933064Y-148521000I0J-250000D01*
G01*
X90933064Y-149421000D01*
G75*
G02*
X90683064Y-149671000I-250000J0D01*
G01*
X90158064Y-149671000D01*
G75*
G02*
X89908064Y-149421000I0J250000D01*
G01*
G37*
G04 #@! TD.AperFunction*
G04 #@! TA.AperFunction,SMDPad,CuDef*
G36*
G01*
X88083064Y-158184000D02*
X88083064Y-157284000D01*
G75*
G02*
X88333064Y-157034000I250000J0D01*
G01*
X88858064Y-157034000D01*
G75*
G02*
X89108064Y-157284000I0J-250000D01*
G01*
X89108064Y-158184000D01*
G75*
G02*
X88858064Y-158434000I-250000J0D01*
G01*
X88333064Y-158434000D01*
G75*
G02*
X88083064Y-158184000I0J250000D01*
G01*
G37*
G04 #@! TD.AperFunction*
G04 #@! TA.AperFunction,SMDPad,CuDef*
G36*
G01*
X89908064Y-158184000D02*
X89908064Y-157284000D01*
G75*
G02*
X90158064Y-157034000I250000J0D01*
G01*
X90683064Y-157034000D01*
G75*
G02*
X90933064Y-157284000I0J-250000D01*
G01*
X90933064Y-158184000D01*
G75*
G02*
X90683064Y-158434000I-250000J0D01*
G01*
X90158064Y-158434000D01*
G75*
G02*
X89908064Y-158184000I0J250000D01*
G01*
G37*
G04 #@! TD.AperFunction*
G04 #@! TA.AperFunction,SMDPad,CuDef*
G36*
G01*
X39850000Y-127704000D02*
X39850000Y-126804000D01*
G75*
G02*
X40100000Y-126554000I250000J0D01*
G01*
X40625000Y-126554000D01*
G75*
G02*
X40875000Y-126804000I0J-250000D01*
G01*
X40875000Y-127704000D01*
G75*
G02*
X40625000Y-127954000I-250000J0D01*
G01*
X40100000Y-127954000D01*
G75*
G02*
X39850000Y-127704000I0J250000D01*
G01*
G37*
G04 #@! TD.AperFunction*
G04 #@! TA.AperFunction,SMDPad,CuDef*
G36*
G01*
X41675000Y-127704000D02*
X41675000Y-126804000D01*
G75*
G02*
X41925000Y-126554000I250000J0D01*
G01*
X42450000Y-126554000D01*
G75*
G02*
X42700000Y-126804000I0J-250000D01*
G01*
X42700000Y-127704000D01*
G75*
G02*
X42450000Y-127954000I-250000J0D01*
G01*
X41925000Y-127954000D01*
G75*
G02*
X41675000Y-127704000I0J250000D01*
G01*
G37*
G04 #@! TD.AperFunction*
G04 #@! TA.AperFunction,SMDPad,CuDef*
G36*
G01*
X88083064Y-152342000D02*
X88083064Y-151442000D01*
G75*
G02*
X88333064Y-151192000I250000J0D01*
G01*
X88858064Y-151192000D01*
G75*
G02*
X89108064Y-151442000I0J-250000D01*
G01*
X89108064Y-152342000D01*
G75*
G02*
X88858064Y-152592000I-250000J0D01*
G01*
X88333064Y-152592000D01*
G75*
G02*
X88083064Y-152342000I0J250000D01*
G01*
G37*
G04 #@! TD.AperFunction*
G04 #@! TA.AperFunction,SMDPad,CuDef*
G36*
G01*
X89908064Y-152342000D02*
X89908064Y-151442000D01*
G75*
G02*
X90158064Y-151192000I250000J0D01*
G01*
X90683064Y-151192000D01*
G75*
G02*
X90933064Y-151442000I0J-250000D01*
G01*
X90933064Y-152342000D01*
G75*
G02*
X90683064Y-152592000I-250000J0D01*
G01*
X90158064Y-152592000D01*
G75*
G02*
X89908064Y-152342000I0J250000D01*
G01*
G37*
G04 #@! TD.AperFunction*
G04 #@! TA.AperFunction,SMDPad,CuDef*
G36*
G01*
X41698000Y-181615000D02*
X40598000Y-181615000D01*
G75*
G02*
X40348000Y-181365000I0J250000D01*
G01*
X40348000Y-178365000D01*
G75*
G02*
X40598000Y-178115000I250000J0D01*
G01*
X41698000Y-178115000D01*
G75*
G02*
X41948000Y-178365000I0J-250000D01*
G01*
X41948000Y-181365000D01*
G75*
G02*
X41698000Y-181615000I-250000J0D01*
G01*
G37*
G04 #@! TD.AperFunction*
G04 #@! TA.AperFunction,SMDPad,CuDef*
G36*
G01*
X41698000Y-176215000D02*
X40598000Y-176215000D01*
G75*
G02*
X40348000Y-175965000I0J250000D01*
G01*
X40348000Y-172965000D01*
G75*
G02*
X40598000Y-172715000I250000J0D01*
G01*
X41698000Y-172715000D01*
G75*
G02*
X41948000Y-172965000I0J-250000D01*
G01*
X41948000Y-175965000D01*
G75*
G02*
X41698000Y-176215000I-250000J0D01*
G01*
G37*
G04 #@! TD.AperFunction*
G04 #@! TA.AperFunction,SMDPad,CuDef*
G36*
G01*
X103273000Y-155470000D02*
X102023000Y-155470000D01*
G75*
G02*
X101873000Y-155320000I0J150000D01*
G01*
X101873000Y-155020000D01*
G75*
G02*
X102023000Y-154870000I150000J0D01*
G01*
X103273000Y-154870000D01*
G75*
G02*
X103423000Y-155020000I0J-150000D01*
G01*
X103423000Y-155320000D01*
G75*
G02*
X103273000Y-155470000I-150000J0D01*
G01*
G37*
G04 #@! TD.AperFunction*
G04 #@! TA.AperFunction,SMDPad,CuDef*
G36*
G01*
X103273000Y-154470000D02*
X102023000Y-154470000D01*
G75*
G02*
X101873000Y-154320000I0J150000D01*
G01*
X101873000Y-154020000D01*
G75*
G02*
X102023000Y-153870000I150000J0D01*
G01*
X103273000Y-153870000D01*
G75*
G02*
X103423000Y-154020000I0J-150000D01*
G01*
X103423000Y-154320000D01*
G75*
G02*
X103273000Y-154470000I-150000J0D01*
G01*
G37*
G04 #@! TD.AperFunction*
G04 #@! TA.AperFunction,SMDPad,CuDef*
G36*
G01*
X103273000Y-153470000D02*
X102023000Y-153470000D01*
G75*
G02*
X101873000Y-153320000I0J150000D01*
G01*
X101873000Y-153020000D01*
G75*
G02*
X102023000Y-152870000I150000J0D01*
G01*
X103273000Y-152870000D01*
G75*
G02*
X103423000Y-153020000I0J-150000D01*
G01*
X103423000Y-153320000D01*
G75*
G02*
X103273000Y-153470000I-150000J0D01*
G01*
G37*
G04 #@! TD.AperFunction*
G04 #@! TA.AperFunction,SMDPad,CuDef*
G36*
G01*
X103273000Y-152470000D02*
X102023000Y-152470000D01*
G75*
G02*
X101873000Y-152320000I0J150000D01*
G01*
X101873000Y-152020000D01*
G75*
G02*
X102023000Y-151870000I150000J0D01*
G01*
X103273000Y-151870000D01*
G75*
G02*
X103423000Y-152020000I0J-150000D01*
G01*
X103423000Y-152320000D01*
G75*
G02*
X103273000Y-152470000I-150000J0D01*
G01*
G37*
G04 #@! TD.AperFunction*
G04 #@! TA.AperFunction,SMDPad,CuDef*
G36*
G01*
X107173000Y-151470000D02*
X105873000Y-151470000D01*
G75*
G02*
X105623000Y-151220000I0J250000D01*
G01*
X105623000Y-150520000D01*
G75*
G02*
X105873000Y-150270000I250000J0D01*
G01*
X107173000Y-150270000D01*
G75*
G02*
X107423000Y-150520000I0J-250000D01*
G01*
X107423000Y-151220000D01*
G75*
G02*
X107173000Y-151470000I-250000J0D01*
G01*
G37*
G04 #@! TD.AperFunction*
G04 #@! TA.AperFunction,SMDPad,CuDef*
G36*
G01*
X107173000Y-157070000D02*
X105873000Y-157070000D01*
G75*
G02*
X105623000Y-156820000I0J250000D01*
G01*
X105623000Y-156120000D01*
G75*
G02*
X105873000Y-155870000I250000J0D01*
G01*
X107173000Y-155870000D01*
G75*
G02*
X107423000Y-156120000I0J-250000D01*
G01*
X107423000Y-156820000D01*
G75*
G02*
X107173000Y-157070000I-250000J0D01*
G01*
G37*
G04 #@! TD.AperFunction*
D11*
X103632000Y-187452000D03*
G04 #@! TA.AperFunction,SMDPad,CuDef*
G36*
G01*
X60267000Y-136299000D02*
X59367000Y-136299000D01*
G75*
G02*
X59117000Y-136049000I0J250000D01*
G01*
X59117000Y-135524000D01*
G75*
G02*
X59367000Y-135274000I250000J0D01*
G01*
X60267000Y-135274000D01*
G75*
G02*
X60517000Y-135524000I0J-250000D01*
G01*
X60517000Y-136049000D01*
G75*
G02*
X60267000Y-136299000I-250000J0D01*
G01*
G37*
G04 #@! TD.AperFunction*
G04 #@! TA.AperFunction,SMDPad,CuDef*
G36*
G01*
X60267000Y-134474000D02*
X59367000Y-134474000D01*
G75*
G02*
X59117000Y-134224000I0J250000D01*
G01*
X59117000Y-133699000D01*
G75*
G02*
X59367000Y-133449000I250000J0D01*
G01*
X60267000Y-133449000D01*
G75*
G02*
X60517000Y-133699000I0J-250000D01*
G01*
X60517000Y-134224000D01*
G75*
G02*
X60267000Y-134474000I-250000J0D01*
G01*
G37*
G04 #@! TD.AperFunction*
G04 #@! TA.AperFunction,SMDPad,CuDef*
G36*
G01*
X61567000Y-184119000D02*
X61567000Y-183219000D01*
G75*
G02*
X61817000Y-182969000I250000J0D01*
G01*
X62342000Y-182969000D01*
G75*
G02*
X62592000Y-183219000I0J-250000D01*
G01*
X62592000Y-184119000D01*
G75*
G02*
X62342000Y-184369000I-250000J0D01*
G01*
X61817000Y-184369000D01*
G75*
G02*
X61567000Y-184119000I0J250000D01*
G01*
G37*
G04 #@! TD.AperFunction*
G04 #@! TA.AperFunction,SMDPad,CuDef*
G36*
G01*
X63392000Y-184119000D02*
X63392000Y-183219000D01*
G75*
G02*
X63642000Y-182969000I250000J0D01*
G01*
X64167000Y-182969000D01*
G75*
G02*
X64417000Y-183219000I0J-250000D01*
G01*
X64417000Y-184119000D01*
G75*
G02*
X64167000Y-184369000I-250000J0D01*
G01*
X63642000Y-184369000D01*
G75*
G02*
X63392000Y-184119000I0J250000D01*
G01*
G37*
G04 #@! TD.AperFunction*
G04 #@! TA.AperFunction,SMDPad,CuDef*
G36*
G01*
X84889000Y-157259000D02*
X84889000Y-158209000D01*
G75*
G02*
X84639000Y-158459000I-250000J0D01*
G01*
X84139000Y-158459000D01*
G75*
G02*
X83889000Y-158209000I0J250000D01*
G01*
X83889000Y-157259000D01*
G75*
G02*
X84139000Y-157009000I250000J0D01*
G01*
X84639000Y-157009000D01*
G75*
G02*
X84889000Y-157259000I0J-250000D01*
G01*
G37*
G04 #@! TD.AperFunction*
G04 #@! TA.AperFunction,SMDPad,CuDef*
G36*
G01*
X82989000Y-157259000D02*
X82989000Y-158209000D01*
G75*
G02*
X82739000Y-158459000I-250000J0D01*
G01*
X82239000Y-158459000D01*
G75*
G02*
X81989000Y-158209000I0J250000D01*
G01*
X81989000Y-157259000D01*
G75*
G02*
X82239000Y-157009000I250000J0D01*
G01*
X82739000Y-157009000D01*
G75*
G02*
X82989000Y-157259000I0J-250000D01*
G01*
G37*
G04 #@! TD.AperFunction*
G04 #@! TA.AperFunction,SMDPad,CuDef*
G36*
G01*
X74473500Y-184335000D02*
X74473500Y-185235000D01*
G75*
G02*
X74223500Y-185485000I-250000J0D01*
G01*
X73698500Y-185485000D01*
G75*
G02*
X73448500Y-185235000I0J250000D01*
G01*
X73448500Y-184335000D01*
G75*
G02*
X73698500Y-184085000I250000J0D01*
G01*
X74223500Y-184085000D01*
G75*
G02*
X74473500Y-184335000I0J-250000D01*
G01*
G37*
G04 #@! TD.AperFunction*
G04 #@! TA.AperFunction,SMDPad,CuDef*
G36*
G01*
X72648500Y-184335000D02*
X72648500Y-185235000D01*
G75*
G02*
X72398500Y-185485000I-250000J0D01*
G01*
X71873500Y-185485000D01*
G75*
G02*
X71623500Y-185235000I0J250000D01*
G01*
X71623500Y-184335000D01*
G75*
G02*
X71873500Y-184085000I250000J0D01*
G01*
X72398500Y-184085000D01*
G75*
G02*
X72648500Y-184335000I0J-250000D01*
G01*
G37*
G04 #@! TD.AperFunction*
G04 #@! TA.AperFunction,SMDPad,CuDef*
G36*
X47729000Y-134989000D02*
G01*
X47229000Y-134989000D01*
X47229000Y-134984033D01*
X47149059Y-134982568D01*
X47013744Y-134940293D01*
X46895734Y-134861738D01*
X46804514Y-134753219D01*
X46747419Y-134623460D01*
X46729836Y-134489000D01*
X46729000Y-134489000D01*
X46729000Y-133989000D01*
X46729836Y-133989000D01*
X46729037Y-133982891D01*
X46750848Y-133842814D01*
X46811096Y-133714489D01*
X46904940Y-133608231D01*
X47024835Y-133532583D01*
X47161142Y-133493626D01*
X47229000Y-133494041D01*
X47229000Y-133489000D01*
X47729000Y-133489000D01*
X47729000Y-134989000D01*
G37*
G04 #@! TD.AperFunction*
G04 #@! TA.AperFunction,SMDPad,CuDef*
G36*
X48529000Y-133494041D02*
G01*
X48602905Y-133494492D01*
X48738726Y-133535111D01*
X48857688Y-133612218D01*
X48950226Y-133719615D01*
X49008903Y-133848667D01*
X49029000Y-133989000D01*
X49029000Y-134489000D01*
X49028851Y-134501216D01*
X49005331Y-134641017D01*
X48943519Y-134768596D01*
X48848384Y-134873700D01*
X48727574Y-134947877D01*
X48590801Y-134985166D01*
X48529000Y-134984033D01*
X48529000Y-134989000D01*
X48029000Y-134989000D01*
X48029000Y-133489000D01*
X48529000Y-133489000D01*
X48529000Y-133494041D01*
G37*
G04 #@! TD.AperFunction*
G04 #@! TA.AperFunction,SMDPad,CuDef*
G36*
G01*
X51844000Y-168587000D02*
X51844000Y-169487000D01*
G75*
G02*
X51594000Y-169737000I-250000J0D01*
G01*
X51069000Y-169737000D01*
G75*
G02*
X50819000Y-169487000I0J250000D01*
G01*
X50819000Y-168587000D01*
G75*
G02*
X51069000Y-168337000I250000J0D01*
G01*
X51594000Y-168337000D01*
G75*
G02*
X51844000Y-168587000I0J-250000D01*
G01*
G37*
G04 #@! TD.AperFunction*
G04 #@! TA.AperFunction,SMDPad,CuDef*
G36*
G01*
X50019000Y-168587000D02*
X50019000Y-169487000D01*
G75*
G02*
X49769000Y-169737000I-250000J0D01*
G01*
X49244000Y-169737000D01*
G75*
G02*
X48994000Y-169487000I0J250000D01*
G01*
X48994000Y-168587000D01*
G75*
G02*
X49244000Y-168337000I250000J0D01*
G01*
X49769000Y-168337000D01*
G75*
G02*
X50019000Y-168587000I0J-250000D01*
G01*
G37*
G04 #@! TD.AperFunction*
G04 #@! TA.AperFunction,SMDPad,CuDef*
G36*
G01*
X47150000Y-184224000D02*
X48100000Y-184224000D01*
G75*
G02*
X48350000Y-184474000I0J-250000D01*
G01*
X48350000Y-184974000D01*
G75*
G02*
X48100000Y-185224000I-250000J0D01*
G01*
X47150000Y-185224000D01*
G75*
G02*
X46900000Y-184974000I0J250000D01*
G01*
X46900000Y-184474000D01*
G75*
G02*
X47150000Y-184224000I250000J0D01*
G01*
G37*
G04 #@! TD.AperFunction*
G04 #@! TA.AperFunction,SMDPad,CuDef*
G36*
G01*
X47150000Y-186124000D02*
X48100000Y-186124000D01*
G75*
G02*
X48350000Y-186374000I0J-250000D01*
G01*
X48350000Y-186874000D01*
G75*
G02*
X48100000Y-187124000I-250000J0D01*
G01*
X47150000Y-187124000D01*
G75*
G02*
X46900000Y-186874000I0J250000D01*
G01*
X46900000Y-186374000D01*
G75*
G02*
X47150000Y-186124000I250000J0D01*
G01*
G37*
G04 #@! TD.AperFunction*
D12*
X88424000Y-169672000D03*
X92424000Y-169672000D03*
G04 #@! TA.AperFunction,SMDPad,CuDef*
G36*
X72540000Y-124599000D02*
G01*
X73040000Y-124599000D01*
X73040000Y-124603967D01*
X73119941Y-124605432D01*
X73255256Y-124647707D01*
X73373266Y-124726262D01*
X73464486Y-124834781D01*
X73521581Y-124964540D01*
X73539164Y-125099000D01*
X73540000Y-125099000D01*
X73540000Y-125599000D01*
X73539164Y-125599000D01*
X73539963Y-125605109D01*
X73518152Y-125745186D01*
X73457904Y-125873511D01*
X73364060Y-125979769D01*
X73244165Y-126055417D01*
X73107858Y-126094374D01*
X73040000Y-126093959D01*
X73040000Y-126099000D01*
X72540000Y-126099000D01*
X72540000Y-124599000D01*
G37*
G04 #@! TD.AperFunction*
G04 #@! TA.AperFunction,SMDPad,CuDef*
G36*
X71740000Y-126093959D02*
G01*
X71666095Y-126093508D01*
X71530274Y-126052889D01*
X71411312Y-125975782D01*
X71318774Y-125868385D01*
X71260097Y-125739333D01*
X71240000Y-125599000D01*
X71240000Y-125099000D01*
X71240149Y-125086784D01*
X71263669Y-124946983D01*
X71325481Y-124819404D01*
X71420616Y-124714300D01*
X71541426Y-124640123D01*
X71678199Y-124602834D01*
X71740000Y-124603967D01*
X71740000Y-124599000D01*
X72240000Y-124599000D01*
X72240000Y-126099000D01*
X71740000Y-126099000D01*
X71740000Y-126093959D01*
G37*
G04 #@! TD.AperFunction*
G04 #@! TA.AperFunction,SMDPad,CuDef*
G36*
G01*
X39850000Y-153104000D02*
X39850000Y-152204000D01*
G75*
G02*
X40100000Y-151954000I250000J0D01*
G01*
X40625000Y-151954000D01*
G75*
G02*
X40875000Y-152204000I0J-250000D01*
G01*
X40875000Y-153104000D01*
G75*
G02*
X40625000Y-153354000I-250000J0D01*
G01*
X40100000Y-153354000D01*
G75*
G02*
X39850000Y-153104000I0J250000D01*
G01*
G37*
G04 #@! TD.AperFunction*
G04 #@! TA.AperFunction,SMDPad,CuDef*
G36*
G01*
X41675000Y-153104000D02*
X41675000Y-152204000D01*
G75*
G02*
X41925000Y-151954000I250000J0D01*
G01*
X42450000Y-151954000D01*
G75*
G02*
X42700000Y-152204000I0J-250000D01*
G01*
X42700000Y-153104000D01*
G75*
G02*
X42450000Y-153354000I-250000J0D01*
G01*
X41925000Y-153354000D01*
G75*
G02*
X41675000Y-153104000I0J250000D01*
G01*
G37*
G04 #@! TD.AperFunction*
D11*
X103632000Y-119888000D03*
G04 #@! TA.AperFunction,SMDPad,CuDef*
G36*
G01*
X48953000Y-162532000D02*
X49853000Y-162532000D01*
G75*
G02*
X50103000Y-162782000I0J-250000D01*
G01*
X50103000Y-163307000D01*
G75*
G02*
X49853000Y-163557000I-250000J0D01*
G01*
X48953000Y-163557000D01*
G75*
G02*
X48703000Y-163307000I0J250000D01*
G01*
X48703000Y-162782000D01*
G75*
G02*
X48953000Y-162532000I250000J0D01*
G01*
G37*
G04 #@! TD.AperFunction*
G04 #@! TA.AperFunction,SMDPad,CuDef*
G36*
G01*
X48953000Y-164357000D02*
X49853000Y-164357000D01*
G75*
G02*
X50103000Y-164607000I0J-250000D01*
G01*
X50103000Y-165132000D01*
G75*
G02*
X49853000Y-165382000I-250000J0D01*
G01*
X48953000Y-165382000D01*
G75*
G02*
X48703000Y-165132000I0J250000D01*
G01*
X48703000Y-164607000D01*
G75*
G02*
X48953000Y-164357000I250000J0D01*
G01*
G37*
G04 #@! TD.AperFunction*
G04 #@! TA.AperFunction,SMDPad,CuDef*
G36*
X47729000Y-153404000D02*
G01*
X47229000Y-153404000D01*
X47229000Y-153399033D01*
X47149059Y-153397568D01*
X47013744Y-153355293D01*
X46895734Y-153276738D01*
X46804514Y-153168219D01*
X46747419Y-153038460D01*
X46729836Y-152904000D01*
X46729000Y-152904000D01*
X46729000Y-152404000D01*
X46729836Y-152404000D01*
X46729037Y-152397891D01*
X46750848Y-152257814D01*
X46811096Y-152129489D01*
X46904940Y-152023231D01*
X47024835Y-151947583D01*
X47161142Y-151908626D01*
X47229000Y-151909041D01*
X47229000Y-151904000D01*
X47729000Y-151904000D01*
X47729000Y-153404000D01*
G37*
G04 #@! TD.AperFunction*
G04 #@! TA.AperFunction,SMDPad,CuDef*
G36*
X48529000Y-151909041D02*
G01*
X48602905Y-151909492D01*
X48738726Y-151950111D01*
X48857688Y-152027218D01*
X48950226Y-152134615D01*
X49008903Y-152263667D01*
X49029000Y-152404000D01*
X49029000Y-152904000D01*
X49028851Y-152916216D01*
X49005331Y-153056017D01*
X48943519Y-153183596D01*
X48848384Y-153288700D01*
X48727574Y-153362877D01*
X48590801Y-153400166D01*
X48529000Y-153399033D01*
X48529000Y-153404000D01*
X48029000Y-153404000D01*
X48029000Y-151904000D01*
X48529000Y-151904000D01*
X48529000Y-151909041D01*
G37*
G04 #@! TD.AperFunction*
G04 #@! TA.AperFunction,SMDPad,CuDef*
G36*
G01*
X39850000Y-156524000D02*
X39850000Y-155624000D01*
G75*
G02*
X40100000Y-155374000I250000J0D01*
G01*
X40625000Y-155374000D01*
G75*
G02*
X40875000Y-155624000I0J-250000D01*
G01*
X40875000Y-156524000D01*
G75*
G02*
X40625000Y-156774000I-250000J0D01*
G01*
X40100000Y-156774000D01*
G75*
G02*
X39850000Y-156524000I0J250000D01*
G01*
G37*
G04 #@! TD.AperFunction*
G04 #@! TA.AperFunction,SMDPad,CuDef*
G36*
G01*
X41675000Y-156524000D02*
X41675000Y-155624000D01*
G75*
G02*
X41925000Y-155374000I250000J0D01*
G01*
X42450000Y-155374000D01*
G75*
G02*
X42700000Y-155624000I0J-250000D01*
G01*
X42700000Y-156524000D01*
G75*
G02*
X42450000Y-156774000I-250000J0D01*
G01*
X41925000Y-156774000D01*
G75*
G02*
X41675000Y-156524000I0J250000D01*
G01*
G37*
G04 #@! TD.AperFunction*
G04 #@! TA.AperFunction,SMDPad,CuDef*
G36*
G01*
X84889000Y-154338000D02*
X84889000Y-155288000D01*
G75*
G02*
X84639000Y-155538000I-250000J0D01*
G01*
X84139000Y-155538000D01*
G75*
G02*
X83889000Y-155288000I0J250000D01*
G01*
X83889000Y-154338000D01*
G75*
G02*
X84139000Y-154088000I250000J0D01*
G01*
X84639000Y-154088000D01*
G75*
G02*
X84889000Y-154338000I0J-250000D01*
G01*
G37*
G04 #@! TD.AperFunction*
G04 #@! TA.AperFunction,SMDPad,CuDef*
G36*
G01*
X82989000Y-154338000D02*
X82989000Y-155288000D01*
G75*
G02*
X82739000Y-155538000I-250000J0D01*
G01*
X82239000Y-155538000D01*
G75*
G02*
X81989000Y-155288000I0J250000D01*
G01*
X81989000Y-154338000D01*
G75*
G02*
X82239000Y-154088000I250000J0D01*
G01*
X82739000Y-154088000D01*
G75*
G02*
X82989000Y-154338000I0J-250000D01*
G01*
G37*
G04 #@! TD.AperFunction*
G04 #@! TA.AperFunction,SMDPad,CuDef*
G36*
G01*
X57346000Y-136299000D02*
X56446000Y-136299000D01*
G75*
G02*
X56196000Y-136049000I0J250000D01*
G01*
X56196000Y-135524000D01*
G75*
G02*
X56446000Y-135274000I250000J0D01*
G01*
X57346000Y-135274000D01*
G75*
G02*
X57596000Y-135524000I0J-250000D01*
G01*
X57596000Y-136049000D01*
G75*
G02*
X57346000Y-136299000I-250000J0D01*
G01*
G37*
G04 #@! TD.AperFunction*
G04 #@! TA.AperFunction,SMDPad,CuDef*
G36*
G01*
X57346000Y-134474000D02*
X56446000Y-134474000D01*
G75*
G02*
X56196000Y-134224000I0J250000D01*
G01*
X56196000Y-133699000D01*
G75*
G02*
X56446000Y-133449000I250000J0D01*
G01*
X57346000Y-133449000D01*
G75*
G02*
X57596000Y-133699000I0J-250000D01*
G01*
X57596000Y-134224000D01*
G75*
G02*
X57346000Y-134474000I-250000J0D01*
G01*
G37*
G04 #@! TD.AperFunction*
D13*
X32339000Y-175300000D03*
D14*
X32339000Y-180300000D03*
G04 #@! TA.AperFunction,SMDPad,CuDef*
G36*
G01*
X84889000Y-151417000D02*
X84889000Y-152367000D01*
G75*
G02*
X84639000Y-152617000I-250000J0D01*
G01*
X84139000Y-152617000D01*
G75*
G02*
X83889000Y-152367000I0J250000D01*
G01*
X83889000Y-151417000D01*
G75*
G02*
X84139000Y-151167000I250000J0D01*
G01*
X84639000Y-151167000D01*
G75*
G02*
X84889000Y-151417000I0J-250000D01*
G01*
G37*
G04 #@! TD.AperFunction*
G04 #@! TA.AperFunction,SMDPad,CuDef*
G36*
G01*
X82989000Y-151417000D02*
X82989000Y-152367000D01*
G75*
G02*
X82739000Y-152617000I-250000J0D01*
G01*
X82239000Y-152617000D01*
G75*
G02*
X81989000Y-152367000I0J250000D01*
G01*
X81989000Y-151417000D01*
G75*
G02*
X82239000Y-151167000I250000J0D01*
G01*
X82739000Y-151167000D01*
G75*
G02*
X82989000Y-151417000I0J-250000D01*
G01*
G37*
G04 #@! TD.AperFunction*
D15*
X31496000Y-167260000D03*
X31496000Y-170560000D03*
G04 #@! TA.AperFunction,SMDPad,CuDef*
G36*
X47729000Y-160389000D02*
G01*
X47229000Y-160389000D01*
X47229000Y-160384033D01*
X47149059Y-160382568D01*
X47013744Y-160340293D01*
X46895734Y-160261738D01*
X46804514Y-160153219D01*
X46747419Y-160023460D01*
X46729836Y-159889000D01*
X46729000Y-159889000D01*
X46729000Y-159389000D01*
X46729836Y-159389000D01*
X46729037Y-159382891D01*
X46750848Y-159242814D01*
X46811096Y-159114489D01*
X46904940Y-159008231D01*
X47024835Y-158932583D01*
X47161142Y-158893626D01*
X47229000Y-158894041D01*
X47229000Y-158889000D01*
X47729000Y-158889000D01*
X47729000Y-160389000D01*
G37*
G04 #@! TD.AperFunction*
G04 #@! TA.AperFunction,SMDPad,CuDef*
G36*
X48529000Y-158894041D02*
G01*
X48602905Y-158894492D01*
X48738726Y-158935111D01*
X48857688Y-159012218D01*
X48950226Y-159119615D01*
X49008903Y-159248667D01*
X49029000Y-159389000D01*
X49029000Y-159889000D01*
X49028851Y-159901216D01*
X49005331Y-160041017D01*
X48943519Y-160168596D01*
X48848384Y-160273700D01*
X48727574Y-160347877D01*
X48590801Y-160385166D01*
X48529000Y-160384033D01*
X48529000Y-160389000D01*
X48029000Y-160389000D01*
X48029000Y-158889000D01*
X48529000Y-158889000D01*
X48529000Y-158894041D01*
G37*
G04 #@! TD.AperFunction*
G04 #@! TA.AperFunction,SMDPad,CuDef*
G36*
G01*
X70083000Y-151280000D02*
X70083000Y-150980000D01*
G75*
G02*
X70233000Y-150830000I150000J0D01*
G01*
X71683000Y-150830000D01*
G75*
G02*
X71833000Y-150980000I0J-150000D01*
G01*
X71833000Y-151280000D01*
G75*
G02*
X71683000Y-151430000I-150000J0D01*
G01*
X70233000Y-151430000D01*
G75*
G02*
X70083000Y-151280000I0J150000D01*
G01*
G37*
G04 #@! TD.AperFunction*
G04 #@! TA.AperFunction,SMDPad,CuDef*
G36*
G01*
X70083000Y-152550000D02*
X70083000Y-152250000D01*
G75*
G02*
X70233000Y-152100000I150000J0D01*
G01*
X71683000Y-152100000D01*
G75*
G02*
X71833000Y-152250000I0J-150000D01*
G01*
X71833000Y-152550000D01*
G75*
G02*
X71683000Y-152700000I-150000J0D01*
G01*
X70233000Y-152700000D01*
G75*
G02*
X70083000Y-152550000I0J150000D01*
G01*
G37*
G04 #@! TD.AperFunction*
G04 #@! TA.AperFunction,SMDPad,CuDef*
G36*
G01*
X70083000Y-153820000D02*
X70083000Y-153520000D01*
G75*
G02*
X70233000Y-153370000I150000J0D01*
G01*
X71683000Y-153370000D01*
G75*
G02*
X71833000Y-153520000I0J-150000D01*
G01*
X71833000Y-153820000D01*
G75*
G02*
X71683000Y-153970000I-150000J0D01*
G01*
X70233000Y-153970000D01*
G75*
G02*
X70083000Y-153820000I0J150000D01*
G01*
G37*
G04 #@! TD.AperFunction*
G04 #@! TA.AperFunction,SMDPad,CuDef*
G36*
G01*
X70083000Y-155090000D02*
X70083000Y-154790000D01*
G75*
G02*
X70233000Y-154640000I150000J0D01*
G01*
X71683000Y-154640000D01*
G75*
G02*
X71833000Y-154790000I0J-150000D01*
G01*
X71833000Y-155090000D01*
G75*
G02*
X71683000Y-155240000I-150000J0D01*
G01*
X70233000Y-155240000D01*
G75*
G02*
X70083000Y-155090000I0J150000D01*
G01*
G37*
G04 #@! TD.AperFunction*
G04 #@! TA.AperFunction,SMDPad,CuDef*
G36*
G01*
X70083000Y-156360000D02*
X70083000Y-156060000D01*
G75*
G02*
X70233000Y-155910000I150000J0D01*
G01*
X71683000Y-155910000D01*
G75*
G02*
X71833000Y-156060000I0J-150000D01*
G01*
X71833000Y-156360000D01*
G75*
G02*
X71683000Y-156510000I-150000J0D01*
G01*
X70233000Y-156510000D01*
G75*
G02*
X70083000Y-156360000I0J150000D01*
G01*
G37*
G04 #@! TD.AperFunction*
G04 #@! TA.AperFunction,SMDPad,CuDef*
G36*
G01*
X70083000Y-157630000D02*
X70083000Y-157330000D01*
G75*
G02*
X70233000Y-157180000I150000J0D01*
G01*
X71683000Y-157180000D01*
G75*
G02*
X71833000Y-157330000I0J-150000D01*
G01*
X71833000Y-157630000D01*
G75*
G02*
X71683000Y-157780000I-150000J0D01*
G01*
X70233000Y-157780000D01*
G75*
G02*
X70083000Y-157630000I0J150000D01*
G01*
G37*
G04 #@! TD.AperFunction*
G04 #@! TA.AperFunction,SMDPad,CuDef*
G36*
G01*
X70083000Y-158900000D02*
X70083000Y-158600000D01*
G75*
G02*
X70233000Y-158450000I150000J0D01*
G01*
X71683000Y-158450000D01*
G75*
G02*
X71833000Y-158600000I0J-150000D01*
G01*
X71833000Y-158900000D01*
G75*
G02*
X71683000Y-159050000I-150000J0D01*
G01*
X70233000Y-159050000D01*
G75*
G02*
X70083000Y-158900000I0J150000D01*
G01*
G37*
G04 #@! TD.AperFunction*
G04 #@! TA.AperFunction,SMDPad,CuDef*
G36*
G01*
X70083000Y-160170000D02*
X70083000Y-159870000D01*
G75*
G02*
X70233000Y-159720000I150000J0D01*
G01*
X71683000Y-159720000D01*
G75*
G02*
X71833000Y-159870000I0J-150000D01*
G01*
X71833000Y-160170000D01*
G75*
G02*
X71683000Y-160320000I-150000J0D01*
G01*
X70233000Y-160320000D01*
G75*
G02*
X70083000Y-160170000I0J150000D01*
G01*
G37*
G04 #@! TD.AperFunction*
G04 #@! TA.AperFunction,SMDPad,CuDef*
G36*
G01*
X75233000Y-160170000D02*
X75233000Y-159870000D01*
G75*
G02*
X75383000Y-159720000I150000J0D01*
G01*
X76833000Y-159720000D01*
G75*
G02*
X76983000Y-159870000I0J-150000D01*
G01*
X76983000Y-160170000D01*
G75*
G02*
X76833000Y-160320000I-150000J0D01*
G01*
X75383000Y-160320000D01*
G75*
G02*
X75233000Y-160170000I0J150000D01*
G01*
G37*
G04 #@! TD.AperFunction*
G04 #@! TA.AperFunction,SMDPad,CuDef*
G36*
G01*
X75233000Y-158900000D02*
X75233000Y-158600000D01*
G75*
G02*
X75383000Y-158450000I150000J0D01*
G01*
X76833000Y-158450000D01*
G75*
G02*
X76983000Y-158600000I0J-150000D01*
G01*
X76983000Y-158900000D01*
G75*
G02*
X76833000Y-159050000I-150000J0D01*
G01*
X75383000Y-159050000D01*
G75*
G02*
X75233000Y-158900000I0J150000D01*
G01*
G37*
G04 #@! TD.AperFunction*
G04 #@! TA.AperFunction,SMDPad,CuDef*
G36*
G01*
X75233000Y-157630000D02*
X75233000Y-157330000D01*
G75*
G02*
X75383000Y-157180000I150000J0D01*
G01*
X76833000Y-157180000D01*
G75*
G02*
X76983000Y-157330000I0J-150000D01*
G01*
X76983000Y-157630000D01*
G75*
G02*
X76833000Y-157780000I-150000J0D01*
G01*
X75383000Y-157780000D01*
G75*
G02*
X75233000Y-157630000I0J150000D01*
G01*
G37*
G04 #@! TD.AperFunction*
G04 #@! TA.AperFunction,SMDPad,CuDef*
G36*
G01*
X75233000Y-156360000D02*
X75233000Y-156060000D01*
G75*
G02*
X75383000Y-155910000I150000J0D01*
G01*
X76833000Y-155910000D01*
G75*
G02*
X76983000Y-156060000I0J-150000D01*
G01*
X76983000Y-156360000D01*
G75*
G02*
X76833000Y-156510000I-150000J0D01*
G01*
X75383000Y-156510000D01*
G75*
G02*
X75233000Y-156360000I0J150000D01*
G01*
G37*
G04 #@! TD.AperFunction*
G04 #@! TA.AperFunction,SMDPad,CuDef*
G36*
G01*
X75233000Y-155090000D02*
X75233000Y-154790000D01*
G75*
G02*
X75383000Y-154640000I150000J0D01*
G01*
X76833000Y-154640000D01*
G75*
G02*
X76983000Y-154790000I0J-150000D01*
G01*
X76983000Y-155090000D01*
G75*
G02*
X76833000Y-155240000I-150000J0D01*
G01*
X75383000Y-155240000D01*
G75*
G02*
X75233000Y-155090000I0J150000D01*
G01*
G37*
G04 #@! TD.AperFunction*
G04 #@! TA.AperFunction,SMDPad,CuDef*
G36*
G01*
X75233000Y-153820000D02*
X75233000Y-153520000D01*
G75*
G02*
X75383000Y-153370000I150000J0D01*
G01*
X76833000Y-153370000D01*
G75*
G02*
X76983000Y-153520000I0J-150000D01*
G01*
X76983000Y-153820000D01*
G75*
G02*
X76833000Y-153970000I-150000J0D01*
G01*
X75383000Y-153970000D01*
G75*
G02*
X75233000Y-153820000I0J150000D01*
G01*
G37*
G04 #@! TD.AperFunction*
G04 #@! TA.AperFunction,SMDPad,CuDef*
G36*
G01*
X75233000Y-152550000D02*
X75233000Y-152250000D01*
G75*
G02*
X75383000Y-152100000I150000J0D01*
G01*
X76833000Y-152100000D01*
G75*
G02*
X76983000Y-152250000I0J-150000D01*
G01*
X76983000Y-152550000D01*
G75*
G02*
X76833000Y-152700000I-150000J0D01*
G01*
X75383000Y-152700000D01*
G75*
G02*
X75233000Y-152550000I0J150000D01*
G01*
G37*
G04 #@! TD.AperFunction*
G04 #@! TA.AperFunction,SMDPad,CuDef*
G36*
G01*
X75233000Y-151280000D02*
X75233000Y-150980000D01*
G75*
G02*
X75383000Y-150830000I150000J0D01*
G01*
X76833000Y-150830000D01*
G75*
G02*
X76983000Y-150980000I0J-150000D01*
G01*
X76983000Y-151280000D01*
G75*
G02*
X76833000Y-151430000I-150000J0D01*
G01*
X75383000Y-151430000D01*
G75*
G02*
X75233000Y-151280000I0J150000D01*
G01*
G37*
G04 #@! TD.AperFunction*
G04 #@! TA.AperFunction,SMDPad,CuDef*
G36*
G01*
X64417000Y-180298000D02*
X64417000Y-181198000D01*
G75*
G02*
X64167000Y-181448000I-250000J0D01*
G01*
X63642000Y-181448000D01*
G75*
G02*
X63392000Y-181198000I0J250000D01*
G01*
X63392000Y-180298000D01*
G75*
G02*
X63642000Y-180048000I250000J0D01*
G01*
X64167000Y-180048000D01*
G75*
G02*
X64417000Y-180298000I0J-250000D01*
G01*
G37*
G04 #@! TD.AperFunction*
G04 #@! TA.AperFunction,SMDPad,CuDef*
G36*
G01*
X62592000Y-180298000D02*
X62592000Y-181198000D01*
G75*
G02*
X62342000Y-181448000I-250000J0D01*
G01*
X61817000Y-181448000D01*
G75*
G02*
X61567000Y-181198000I0J250000D01*
G01*
X61567000Y-180298000D01*
G75*
G02*
X61817000Y-180048000I250000J0D01*
G01*
X62342000Y-180048000D01*
G75*
G02*
X62592000Y-180298000I0J-250000D01*
G01*
G37*
G04 #@! TD.AperFunction*
G04 #@! TA.AperFunction,SMDPad,CuDef*
G36*
G01*
X58727000Y-163863000D02*
X58727000Y-164813000D01*
G75*
G02*
X58477000Y-165063000I-250000J0D01*
G01*
X57977000Y-165063000D01*
G75*
G02*
X57727000Y-164813000I0J250000D01*
G01*
X57727000Y-163863000D01*
G75*
G02*
X57977000Y-163613000I250000J0D01*
G01*
X58477000Y-163613000D01*
G75*
G02*
X58727000Y-163863000I0J-250000D01*
G01*
G37*
G04 #@! TD.AperFunction*
G04 #@! TA.AperFunction,SMDPad,CuDef*
G36*
G01*
X56827000Y-163863000D02*
X56827000Y-164813000D01*
G75*
G02*
X56577000Y-165063000I-250000J0D01*
G01*
X56077000Y-165063000D01*
G75*
G02*
X55827000Y-164813000I0J250000D01*
G01*
X55827000Y-163863000D01*
G75*
G02*
X56077000Y-163613000I250000J0D01*
G01*
X56577000Y-163613000D01*
G75*
G02*
X56827000Y-163863000I0J-250000D01*
G01*
G37*
G04 #@! TD.AperFunction*
G04 #@! TA.AperFunction,SMDPad,CuDef*
G36*
G01*
X63188000Y-136299000D02*
X62288000Y-136299000D01*
G75*
G02*
X62038000Y-136049000I0J250000D01*
G01*
X62038000Y-135524000D01*
G75*
G02*
X62288000Y-135274000I250000J0D01*
G01*
X63188000Y-135274000D01*
G75*
G02*
X63438000Y-135524000I0J-250000D01*
G01*
X63438000Y-136049000D01*
G75*
G02*
X63188000Y-136299000I-250000J0D01*
G01*
G37*
G04 #@! TD.AperFunction*
G04 #@! TA.AperFunction,SMDPad,CuDef*
G36*
G01*
X63188000Y-134474000D02*
X62288000Y-134474000D01*
G75*
G02*
X62038000Y-134224000I0J250000D01*
G01*
X62038000Y-133699000D01*
G75*
G02*
X62288000Y-133449000I250000J0D01*
G01*
X63188000Y-133449000D01*
G75*
G02*
X63438000Y-133699000I0J-250000D01*
G01*
X63438000Y-134224000D01*
G75*
G02*
X63188000Y-134474000I-250000J0D01*
G01*
G37*
G04 #@! TD.AperFunction*
G04 #@! TA.AperFunction,SMDPad,CuDef*
G36*
G01*
X88083064Y-161105000D02*
X88083064Y-160205000D01*
G75*
G02*
X88333064Y-159955000I250000J0D01*
G01*
X88858064Y-159955000D01*
G75*
G02*
X89108064Y-160205000I0J-250000D01*
G01*
X89108064Y-161105000D01*
G75*
G02*
X88858064Y-161355000I-250000J0D01*
G01*
X88333064Y-161355000D01*
G75*
G02*
X88083064Y-161105000I0J250000D01*
G01*
G37*
G04 #@! TD.AperFunction*
G04 #@! TA.AperFunction,SMDPad,CuDef*
G36*
G01*
X89908064Y-161105000D02*
X89908064Y-160205000D01*
G75*
G02*
X90158064Y-159955000I250000J0D01*
G01*
X90683064Y-159955000D01*
G75*
G02*
X90933064Y-160205000I0J-250000D01*
G01*
X90933064Y-161105000D01*
G75*
G02*
X90683064Y-161355000I-250000J0D01*
G01*
X90158064Y-161355000D01*
G75*
G02*
X89908064Y-161105000I0J250000D01*
G01*
G37*
G04 #@! TD.AperFunction*
G04 #@! TA.AperFunction,SMDPad,CuDef*
G36*
X66190000Y-124599000D02*
G01*
X66690000Y-124599000D01*
X66690000Y-124603967D01*
X66769941Y-124605432D01*
X66905256Y-124647707D01*
X67023266Y-124726262D01*
X67114486Y-124834781D01*
X67171581Y-124964540D01*
X67189164Y-125099000D01*
X67190000Y-125099000D01*
X67190000Y-125599000D01*
X67189164Y-125599000D01*
X67189963Y-125605109D01*
X67168152Y-125745186D01*
X67107904Y-125873511D01*
X67014060Y-125979769D01*
X66894165Y-126055417D01*
X66757858Y-126094374D01*
X66690000Y-126093959D01*
X66690000Y-126099000D01*
X66190000Y-126099000D01*
X66190000Y-124599000D01*
G37*
G04 #@! TD.AperFunction*
G04 #@! TA.AperFunction,SMDPad,CuDef*
G36*
X65390000Y-126093959D02*
G01*
X65316095Y-126093508D01*
X65180274Y-126052889D01*
X65061312Y-125975782D01*
X64968774Y-125868385D01*
X64910097Y-125739333D01*
X64890000Y-125599000D01*
X64890000Y-125099000D01*
X64890149Y-125086784D01*
X64913669Y-124946983D01*
X64975481Y-124819404D01*
X65070616Y-124714300D01*
X65191426Y-124640123D01*
X65328199Y-124602834D01*
X65390000Y-124603967D01*
X65390000Y-124599000D01*
X65890000Y-124599000D01*
X65890000Y-126099000D01*
X65390000Y-126099000D01*
X65390000Y-126093959D01*
G37*
G04 #@! TD.AperFunction*
D16*
X35179000Y-127254000D03*
D17*
X35179000Y-130754000D03*
X35179000Y-134254000D03*
G04 #@! TA.AperFunction,SMDPad,CuDef*
G36*
G01*
X74473500Y-181414000D02*
X74473500Y-182314000D01*
G75*
G02*
X74223500Y-182564000I-250000J0D01*
G01*
X73698500Y-182564000D01*
G75*
G02*
X73448500Y-182314000I0J250000D01*
G01*
X73448500Y-181414000D01*
G75*
G02*
X73698500Y-181164000I250000J0D01*
G01*
X74223500Y-181164000D01*
G75*
G02*
X74473500Y-181414000I0J-250000D01*
G01*
G37*
G04 #@! TD.AperFunction*
G04 #@! TA.AperFunction,SMDPad,CuDef*
G36*
G01*
X72648500Y-181414000D02*
X72648500Y-182314000D01*
G75*
G02*
X72398500Y-182564000I-250000J0D01*
G01*
X71873500Y-182564000D01*
G75*
G02*
X71623500Y-182314000I0J250000D01*
G01*
X71623500Y-181414000D01*
G75*
G02*
X71873500Y-181164000I250000J0D01*
G01*
X72398500Y-181164000D01*
G75*
G02*
X72648500Y-181414000I0J-250000D01*
G01*
G37*
G04 #@! TD.AperFunction*
D16*
X35179000Y-152654000D03*
D17*
X35179000Y-156154000D03*
X35179000Y-159654000D03*
G04 #@! TA.AperFunction,SMDPad,CuDef*
G36*
X59840000Y-124599000D02*
G01*
X60340000Y-124599000D01*
X60340000Y-124603967D01*
X60419941Y-124605432D01*
X60555256Y-124647707D01*
X60673266Y-124726262D01*
X60764486Y-124834781D01*
X60821581Y-124964540D01*
X60839164Y-125099000D01*
X60840000Y-125099000D01*
X60840000Y-125599000D01*
X60839164Y-125599000D01*
X60839963Y-125605109D01*
X60818152Y-125745186D01*
X60757904Y-125873511D01*
X60664060Y-125979769D01*
X60544165Y-126055417D01*
X60407858Y-126094374D01*
X60340000Y-126093959D01*
X60340000Y-126099000D01*
X59840000Y-126099000D01*
X59840000Y-124599000D01*
G37*
G04 #@! TD.AperFunction*
G04 #@! TA.AperFunction,SMDPad,CuDef*
G36*
X59040000Y-126093959D02*
G01*
X58966095Y-126093508D01*
X58830274Y-126052889D01*
X58711312Y-125975782D01*
X58618774Y-125868385D01*
X58560097Y-125739333D01*
X58540000Y-125599000D01*
X58540000Y-125099000D01*
X58540149Y-125086784D01*
X58563669Y-124946983D01*
X58625481Y-124819404D01*
X58720616Y-124714300D01*
X58841426Y-124640123D01*
X58978199Y-124602834D01*
X59040000Y-124603967D01*
X59040000Y-124599000D01*
X59540000Y-124599000D01*
X59540000Y-126099000D01*
X59040000Y-126099000D01*
X59040000Y-126093959D01*
G37*
G04 #@! TD.AperFunction*
G04 #@! TA.AperFunction,SMDPad,CuDef*
G36*
G01*
X103273000Y-140230000D02*
X102023000Y-140230000D01*
G75*
G02*
X101873000Y-140080000I0J150000D01*
G01*
X101873000Y-139780000D01*
G75*
G02*
X102023000Y-139630000I150000J0D01*
G01*
X103273000Y-139630000D01*
G75*
G02*
X103423000Y-139780000I0J-150000D01*
G01*
X103423000Y-140080000D01*
G75*
G02*
X103273000Y-140230000I-150000J0D01*
G01*
G37*
G04 #@! TD.AperFunction*
G04 #@! TA.AperFunction,SMDPad,CuDef*
G36*
G01*
X103273000Y-139230000D02*
X102023000Y-139230000D01*
G75*
G02*
X101873000Y-139080000I0J150000D01*
G01*
X101873000Y-138780000D01*
G75*
G02*
X102023000Y-138630000I150000J0D01*
G01*
X103273000Y-138630000D01*
G75*
G02*
X103423000Y-138780000I0J-150000D01*
G01*
X103423000Y-139080000D01*
G75*
G02*
X103273000Y-139230000I-150000J0D01*
G01*
G37*
G04 #@! TD.AperFunction*
G04 #@! TA.AperFunction,SMDPad,CuDef*
G36*
G01*
X103273000Y-138230000D02*
X102023000Y-138230000D01*
G75*
G02*
X101873000Y-138080000I0J150000D01*
G01*
X101873000Y-137780000D01*
G75*
G02*
X102023000Y-137630000I150000J0D01*
G01*
X103273000Y-137630000D01*
G75*
G02*
X103423000Y-137780000I0J-150000D01*
G01*
X103423000Y-138080000D01*
G75*
G02*
X103273000Y-138230000I-150000J0D01*
G01*
G37*
G04 #@! TD.AperFunction*
G04 #@! TA.AperFunction,SMDPad,CuDef*
G36*
G01*
X103273000Y-137230000D02*
X102023000Y-137230000D01*
G75*
G02*
X101873000Y-137080000I0J150000D01*
G01*
X101873000Y-136780000D01*
G75*
G02*
X102023000Y-136630000I150000J0D01*
G01*
X103273000Y-136630000D01*
G75*
G02*
X103423000Y-136780000I0J-150000D01*
G01*
X103423000Y-137080000D01*
G75*
G02*
X103273000Y-137230000I-150000J0D01*
G01*
G37*
G04 #@! TD.AperFunction*
G04 #@! TA.AperFunction,SMDPad,CuDef*
G36*
G01*
X107173000Y-141830000D02*
X105873000Y-141830000D01*
G75*
G02*
X105623000Y-141580000I0J250000D01*
G01*
X105623000Y-140880000D01*
G75*
G02*
X105873000Y-140630000I250000J0D01*
G01*
X107173000Y-140630000D01*
G75*
G02*
X107423000Y-140880000I0J-250000D01*
G01*
X107423000Y-141580000D01*
G75*
G02*
X107173000Y-141830000I-250000J0D01*
G01*
G37*
G04 #@! TD.AperFunction*
G04 #@! TA.AperFunction,SMDPad,CuDef*
G36*
G01*
X107173000Y-136230000D02*
X105873000Y-136230000D01*
G75*
G02*
X105623000Y-135980000I0J250000D01*
G01*
X105623000Y-135280000D01*
G75*
G02*
X105873000Y-135030000I250000J0D01*
G01*
X107173000Y-135030000D01*
G75*
G02*
X107423000Y-135280000I0J-250000D01*
G01*
X107423000Y-135980000D01*
G75*
G02*
X107173000Y-136230000I-250000J0D01*
G01*
G37*
G04 #@! TD.AperFunction*
D15*
X41402000Y-167387000D03*
X41402000Y-170687000D03*
G04 #@! TA.AperFunction,SMDPad,CuDef*
G36*
G01*
X39850000Y-131133000D02*
X39850000Y-130233000D01*
G75*
G02*
X40100000Y-129983000I250000J0D01*
G01*
X40625000Y-129983000D01*
G75*
G02*
X40875000Y-130233000I0J-250000D01*
G01*
X40875000Y-131133000D01*
G75*
G02*
X40625000Y-131383000I-250000J0D01*
G01*
X40100000Y-131383000D01*
G75*
G02*
X39850000Y-131133000I0J250000D01*
G01*
G37*
G04 #@! TD.AperFunction*
G04 #@! TA.AperFunction,SMDPad,CuDef*
G36*
G01*
X41675000Y-131133000D02*
X41675000Y-130233000D01*
G75*
G02*
X41925000Y-129983000I250000J0D01*
G01*
X42450000Y-129983000D01*
G75*
G02*
X42700000Y-130233000I0J-250000D01*
G01*
X42700000Y-131133000D01*
G75*
G02*
X42450000Y-131383000I-250000J0D01*
G01*
X41925000Y-131383000D01*
G75*
G02*
X41675000Y-131133000I0J250000D01*
G01*
G37*
G04 #@! TD.AperFunction*
G04 #@! TA.AperFunction,SMDPad,CuDef*
G36*
G01*
X84889000Y-148496000D02*
X84889000Y-149446000D01*
G75*
G02*
X84639000Y-149696000I-250000J0D01*
G01*
X84139000Y-149696000D01*
G75*
G02*
X83889000Y-149446000I0J250000D01*
G01*
X83889000Y-148496000D01*
G75*
G02*
X84139000Y-148246000I250000J0D01*
G01*
X84639000Y-148246000D01*
G75*
G02*
X84889000Y-148496000I0J-250000D01*
G01*
G37*
G04 #@! TD.AperFunction*
G04 #@! TA.AperFunction,SMDPad,CuDef*
G36*
G01*
X82989000Y-148496000D02*
X82989000Y-149446000D01*
G75*
G02*
X82739000Y-149696000I-250000J0D01*
G01*
X82239000Y-149696000D01*
G75*
G02*
X81989000Y-149446000I0J250000D01*
G01*
X81989000Y-148496000D01*
G75*
G02*
X82239000Y-148246000I250000J0D01*
G01*
X82739000Y-148246000D01*
G75*
G02*
X82989000Y-148496000I0J-250000D01*
G01*
G37*
G04 #@! TD.AperFunction*
D16*
X35179000Y-139954000D03*
D17*
X35179000Y-143454000D03*
X35179000Y-146954000D03*
G04 #@! TA.AperFunction,SMDPad,CuDef*
G36*
X47729000Y-156833000D02*
G01*
X47229000Y-156833000D01*
X47229000Y-156828033D01*
X47149059Y-156826568D01*
X47013744Y-156784293D01*
X46895734Y-156705738D01*
X46804514Y-156597219D01*
X46747419Y-156467460D01*
X46729836Y-156333000D01*
X46729000Y-156333000D01*
X46729000Y-155833000D01*
X46729836Y-155833000D01*
X46729037Y-155826891D01*
X46750848Y-155686814D01*
X46811096Y-155558489D01*
X46904940Y-155452231D01*
X47024835Y-155376583D01*
X47161142Y-155337626D01*
X47229000Y-155338041D01*
X47229000Y-155333000D01*
X47729000Y-155333000D01*
X47729000Y-156833000D01*
G37*
G04 #@! TD.AperFunction*
G04 #@! TA.AperFunction,SMDPad,CuDef*
G36*
X48529000Y-155338041D02*
G01*
X48602905Y-155338492D01*
X48738726Y-155379111D01*
X48857688Y-155456218D01*
X48950226Y-155563615D01*
X49008903Y-155692667D01*
X49029000Y-155833000D01*
X49029000Y-156333000D01*
X49028851Y-156345216D01*
X49005331Y-156485017D01*
X48943519Y-156612596D01*
X48848384Y-156717700D01*
X48727574Y-156791877D01*
X48590801Y-156829166D01*
X48529000Y-156828033D01*
X48529000Y-156833000D01*
X48029000Y-156833000D01*
X48029000Y-155333000D01*
X48529000Y-155333000D01*
X48529000Y-155338041D01*
G37*
G04 #@! TD.AperFunction*
G04 #@! TA.AperFunction,SMDPad,CuDef*
G36*
G01*
X103273000Y-170710000D02*
X102023000Y-170710000D01*
G75*
G02*
X101873000Y-170560000I0J150000D01*
G01*
X101873000Y-170260000D01*
G75*
G02*
X102023000Y-170110000I150000J0D01*
G01*
X103273000Y-170110000D01*
G75*
G02*
X103423000Y-170260000I0J-150000D01*
G01*
X103423000Y-170560000D01*
G75*
G02*
X103273000Y-170710000I-150000J0D01*
G01*
G37*
G04 #@! TD.AperFunction*
G04 #@! TA.AperFunction,SMDPad,CuDef*
G36*
G01*
X103273000Y-169710000D02*
X102023000Y-169710000D01*
G75*
G02*
X101873000Y-169560000I0J150000D01*
G01*
X101873000Y-169260000D01*
G75*
G02*
X102023000Y-169110000I150000J0D01*
G01*
X103273000Y-169110000D01*
G75*
G02*
X103423000Y-169260000I0J-150000D01*
G01*
X103423000Y-169560000D01*
G75*
G02*
X103273000Y-169710000I-150000J0D01*
G01*
G37*
G04 #@! TD.AperFunction*
G04 #@! TA.AperFunction,SMDPad,CuDef*
G36*
G01*
X103273000Y-168710000D02*
X102023000Y-168710000D01*
G75*
G02*
X101873000Y-168560000I0J150000D01*
G01*
X101873000Y-168260000D01*
G75*
G02*
X102023000Y-168110000I150000J0D01*
G01*
X103273000Y-168110000D01*
G75*
G02*
X103423000Y-168260000I0J-150000D01*
G01*
X103423000Y-168560000D01*
G75*
G02*
X103273000Y-168710000I-150000J0D01*
G01*
G37*
G04 #@! TD.AperFunction*
G04 #@! TA.AperFunction,SMDPad,CuDef*
G36*
G01*
X103273000Y-167710000D02*
X102023000Y-167710000D01*
G75*
G02*
X101873000Y-167560000I0J150000D01*
G01*
X101873000Y-167260000D01*
G75*
G02*
X102023000Y-167110000I150000J0D01*
G01*
X103273000Y-167110000D01*
G75*
G02*
X103423000Y-167260000I0J-150000D01*
G01*
X103423000Y-167560000D01*
G75*
G02*
X103273000Y-167710000I-150000J0D01*
G01*
G37*
G04 #@! TD.AperFunction*
G04 #@! TA.AperFunction,SMDPad,CuDef*
G36*
G01*
X107173000Y-172310000D02*
X105873000Y-172310000D01*
G75*
G02*
X105623000Y-172060000I0J250000D01*
G01*
X105623000Y-171360000D01*
G75*
G02*
X105873000Y-171110000I250000J0D01*
G01*
X107173000Y-171110000D01*
G75*
G02*
X107423000Y-171360000I0J-250000D01*
G01*
X107423000Y-172060000D01*
G75*
G02*
X107173000Y-172310000I-250000J0D01*
G01*
G37*
G04 #@! TD.AperFunction*
G04 #@! TA.AperFunction,SMDPad,CuDef*
G36*
G01*
X107173000Y-166710000D02*
X105873000Y-166710000D01*
G75*
G02*
X105623000Y-166460000I0J250000D01*
G01*
X105623000Y-165760000D01*
G75*
G02*
X105873000Y-165510000I250000J0D01*
G01*
X107173000Y-165510000D01*
G75*
G02*
X107423000Y-165760000I0J-250000D01*
G01*
X107423000Y-166460000D01*
G75*
G02*
X107173000Y-166710000I-250000J0D01*
G01*
G37*
G04 #@! TD.AperFunction*
D15*
X38100000Y-170560000D03*
X38100000Y-167260000D03*
G04 #@! TA.AperFunction,SMDPad,CuDef*
G36*
G01*
X74473500Y-172651000D02*
X74473500Y-173551000D01*
G75*
G02*
X74223500Y-173801000I-250000J0D01*
G01*
X73698500Y-173801000D01*
G75*
G02*
X73448500Y-173551000I0J250000D01*
G01*
X73448500Y-172651000D01*
G75*
G02*
X73698500Y-172401000I250000J0D01*
G01*
X74223500Y-172401000D01*
G75*
G02*
X74473500Y-172651000I0J-250000D01*
G01*
G37*
G04 #@! TD.AperFunction*
G04 #@! TA.AperFunction,SMDPad,CuDef*
G36*
G01*
X72648500Y-172651000D02*
X72648500Y-173551000D01*
G75*
G02*
X72398500Y-173801000I-250000J0D01*
G01*
X71873500Y-173801000D01*
G75*
G02*
X71623500Y-173551000I0J250000D01*
G01*
X71623500Y-172651000D01*
G75*
G02*
X71873500Y-172401000I250000J0D01*
G01*
X72398500Y-172401000D01*
G75*
G02*
X72648500Y-172651000I0J-250000D01*
G01*
G37*
G04 #@! TD.AperFunction*
G04 #@! TA.AperFunction,SMDPad,CuDef*
G36*
G01*
X84889000Y-160180000D02*
X84889000Y-161130000D01*
G75*
G02*
X84639000Y-161380000I-250000J0D01*
G01*
X84139000Y-161380000D01*
G75*
G02*
X83889000Y-161130000I0J250000D01*
G01*
X83889000Y-160180000D01*
G75*
G02*
X84139000Y-159930000I250000J0D01*
G01*
X84639000Y-159930000D01*
G75*
G02*
X84889000Y-160180000I0J-250000D01*
G01*
G37*
G04 #@! TD.AperFunction*
G04 #@! TA.AperFunction,SMDPad,CuDef*
G36*
G01*
X82989000Y-160180000D02*
X82989000Y-161130000D01*
G75*
G02*
X82739000Y-161380000I-250000J0D01*
G01*
X82239000Y-161380000D01*
G75*
G02*
X81989000Y-161130000I0J250000D01*
G01*
X81989000Y-160180000D01*
G75*
G02*
X82239000Y-159930000I250000J0D01*
G01*
X82739000Y-159930000D01*
G75*
G02*
X82989000Y-160180000I0J-250000D01*
G01*
G37*
G04 #@! TD.AperFunction*
G04 #@! TA.AperFunction,SMDPad,CuDef*
G36*
G01*
X74473500Y-178493000D02*
X74473500Y-179393000D01*
G75*
G02*
X74223500Y-179643000I-250000J0D01*
G01*
X73698500Y-179643000D01*
G75*
G02*
X73448500Y-179393000I0J250000D01*
G01*
X73448500Y-178493000D01*
G75*
G02*
X73698500Y-178243000I250000J0D01*
G01*
X74223500Y-178243000D01*
G75*
G02*
X74473500Y-178493000I0J-250000D01*
G01*
G37*
G04 #@! TD.AperFunction*
G04 #@! TA.AperFunction,SMDPad,CuDef*
G36*
G01*
X72648500Y-178493000D02*
X72648500Y-179393000D01*
G75*
G02*
X72398500Y-179643000I-250000J0D01*
G01*
X71873500Y-179643000D01*
G75*
G02*
X71623500Y-179393000I0J250000D01*
G01*
X71623500Y-178493000D01*
G75*
G02*
X71873500Y-178243000I250000J0D01*
G01*
X72398500Y-178243000D01*
G75*
G02*
X72648500Y-178493000I0J-250000D01*
G01*
G37*
G04 #@! TD.AperFunction*
G04 #@! TA.AperFunction,SMDPad,CuDef*
G36*
G01*
X71427000Y-146718000D02*
X71427000Y-147668000D01*
G75*
G02*
X71177000Y-147918000I-250000J0D01*
G01*
X70677000Y-147918000D01*
G75*
G02*
X70427000Y-147668000I0J250000D01*
G01*
X70427000Y-146718000D01*
G75*
G02*
X70677000Y-146468000I250000J0D01*
G01*
X71177000Y-146468000D01*
G75*
G02*
X71427000Y-146718000I0J-250000D01*
G01*
G37*
G04 #@! TD.AperFunction*
G04 #@! TA.AperFunction,SMDPad,CuDef*
G36*
G01*
X69527000Y-146718000D02*
X69527000Y-147668000D01*
G75*
G02*
X69277000Y-147918000I-250000J0D01*
G01*
X68777000Y-147918000D01*
G75*
G02*
X68527000Y-147668000I0J250000D01*
G01*
X68527000Y-146718000D01*
G75*
G02*
X68777000Y-146468000I250000J0D01*
G01*
X69277000Y-146468000D01*
G75*
G02*
X69527000Y-146718000I0J-250000D01*
G01*
G37*
G04 #@! TD.AperFunction*
D18*
X93436500Y-130195000D03*
D19*
X92166500Y-132735000D03*
X90896500Y-130195000D03*
X89626500Y-132735000D03*
X88356500Y-130195000D03*
X87086500Y-132735000D03*
X85816500Y-130195000D03*
X84546500Y-132735000D03*
D11*
X29718000Y-187452000D03*
D12*
X89440000Y-137541000D03*
X93440000Y-137541000D03*
G04 #@! TA.AperFunction,SMDPad,CuDef*
G36*
G01*
X88059564Y-146500000D02*
X88059564Y-145600000D01*
G75*
G02*
X88309564Y-145350000I250000J0D01*
G01*
X88834564Y-145350000D01*
G75*
G02*
X89084564Y-145600000I0J-250000D01*
G01*
X89084564Y-146500000D01*
G75*
G02*
X88834564Y-146750000I-250000J0D01*
G01*
X88309564Y-146750000D01*
G75*
G02*
X88059564Y-146500000I0J250000D01*
G01*
G37*
G04 #@! TD.AperFunction*
G04 #@! TA.AperFunction,SMDPad,CuDef*
G36*
G01*
X89884564Y-146500000D02*
X89884564Y-145600000D01*
G75*
G02*
X90134564Y-145350000I250000J0D01*
G01*
X90659564Y-145350000D01*
G75*
G02*
X90909564Y-145600000I0J-250000D01*
G01*
X90909564Y-146500000D01*
G75*
G02*
X90659564Y-146750000I-250000J0D01*
G01*
X90134564Y-146750000D01*
G75*
G02*
X89884564Y-146500000I0J250000D01*
G01*
G37*
G04 #@! TD.AperFunction*
D15*
X34798000Y-170560000D03*
X34798000Y-167260000D03*
D11*
X29718000Y-119888000D03*
G04 #@! TA.AperFunction,SMDPad,CuDef*
G36*
G01*
X74473500Y-175572000D02*
X74473500Y-176472000D01*
G75*
G02*
X74223500Y-176722000I-250000J0D01*
G01*
X73698500Y-176722000D01*
G75*
G02*
X73448500Y-176472000I0J250000D01*
G01*
X73448500Y-175572000D01*
G75*
G02*
X73698500Y-175322000I250000J0D01*
G01*
X74223500Y-175322000D01*
G75*
G02*
X74473500Y-175572000I0J-250000D01*
G01*
G37*
G04 #@! TD.AperFunction*
G04 #@! TA.AperFunction,SMDPad,CuDef*
G36*
G01*
X72648500Y-175572000D02*
X72648500Y-176472000D01*
G75*
G02*
X72398500Y-176722000I-250000J0D01*
G01*
X71873500Y-176722000D01*
G75*
G02*
X71623500Y-176472000I0J250000D01*
G01*
X71623500Y-175572000D01*
G75*
G02*
X71873500Y-175322000I250000J0D01*
G01*
X72398500Y-175322000D01*
G75*
G02*
X72648500Y-175572000I0J-250000D01*
G01*
G37*
G04 #@! TD.AperFunction*
D18*
X84617500Y-177018000D03*
D19*
X85887500Y-174478000D03*
X87157500Y-177018000D03*
X88427500Y-174478000D03*
X89697500Y-177018000D03*
X90967500Y-174478000D03*
X92237500Y-177018000D03*
X93507500Y-174478000D03*
G04 #@! TA.AperFunction,SMDPad,CuDef*
G36*
G01*
X39850000Y-134689000D02*
X39850000Y-133789000D01*
G75*
G02*
X40100000Y-133539000I250000J0D01*
G01*
X40625000Y-133539000D01*
G75*
G02*
X40875000Y-133789000I0J-250000D01*
G01*
X40875000Y-134689000D01*
G75*
G02*
X40625000Y-134939000I-250000J0D01*
G01*
X40100000Y-134939000D01*
G75*
G02*
X39850000Y-134689000I0J250000D01*
G01*
G37*
G04 #@! TD.AperFunction*
G04 #@! TA.AperFunction,SMDPad,CuDef*
G36*
G01*
X41675000Y-134689000D02*
X41675000Y-133789000D01*
G75*
G02*
X41925000Y-133539000I250000J0D01*
G01*
X42450000Y-133539000D01*
G75*
G02*
X42700000Y-133789000I0J-250000D01*
G01*
X42700000Y-134689000D01*
G75*
G02*
X42450000Y-134939000I-250000J0D01*
G01*
X41925000Y-134939000D01*
G75*
G02*
X41675000Y-134689000I0J250000D01*
G01*
G37*
G04 #@! TD.AperFunction*
D20*
X50279300Y-179451000D03*
X54876700Y-179451000D03*
G04 #@! TA.AperFunction,SMDPad,CuDef*
G36*
G01*
X56543000Y-168580750D02*
X56543000Y-169493250D01*
G75*
G02*
X56299250Y-169737000I-243750J0D01*
G01*
X55811750Y-169737000D01*
G75*
G02*
X55568000Y-169493250I0J243750D01*
G01*
X55568000Y-168580750D01*
G75*
G02*
X55811750Y-168337000I243750J0D01*
G01*
X56299250Y-168337000D01*
G75*
G02*
X56543000Y-168580750I0J-243750D01*
G01*
G37*
G04 #@! TD.AperFunction*
G04 #@! TA.AperFunction,SMDPad,CuDef*
G36*
G01*
X54668000Y-168580750D02*
X54668000Y-169493250D01*
G75*
G02*
X54424250Y-169737000I-243750J0D01*
G01*
X53936750Y-169737000D01*
G75*
G02*
X53693000Y-169493250I0J243750D01*
G01*
X53693000Y-168580750D01*
G75*
G02*
X53936750Y-168337000I243750J0D01*
G01*
X54424250Y-168337000D01*
G75*
G02*
X54668000Y-168580750I0J-243750D01*
G01*
G37*
G04 #@! TD.AperFunction*
G04 #@! TA.AperFunction,SMDPad,CuDef*
G36*
G01*
X55659000Y-184224000D02*
X56609000Y-184224000D01*
G75*
G02*
X56859000Y-184474000I0J-250000D01*
G01*
X56859000Y-184974000D01*
G75*
G02*
X56609000Y-185224000I-250000J0D01*
G01*
X55659000Y-185224000D01*
G75*
G02*
X55409000Y-184974000I0J250000D01*
G01*
X55409000Y-184474000D01*
G75*
G02*
X55659000Y-184224000I250000J0D01*
G01*
G37*
G04 #@! TD.AperFunction*
G04 #@! TA.AperFunction,SMDPad,CuDef*
G36*
G01*
X55659000Y-186124000D02*
X56609000Y-186124000D01*
G75*
G02*
X56859000Y-186374000I0J-250000D01*
G01*
X56859000Y-186874000D01*
G75*
G02*
X56609000Y-187124000I-250000J0D01*
G01*
X55659000Y-187124000D01*
G75*
G02*
X55409000Y-186874000I0J250000D01*
G01*
X55409000Y-186374000D01*
G75*
G02*
X55659000Y-186124000I250000J0D01*
G01*
G37*
G04 #@! TD.AperFunction*
G04 #@! TA.AperFunction,SMDPad,CuDef*
G36*
X47729000Y-131433000D02*
G01*
X47229000Y-131433000D01*
X47229000Y-131428033D01*
X47149059Y-131426568D01*
X47013744Y-131384293D01*
X46895734Y-131305738D01*
X46804514Y-131197219D01*
X46747419Y-131067460D01*
X46729836Y-130933000D01*
X46729000Y-130933000D01*
X46729000Y-130433000D01*
X46729836Y-130433000D01*
X46729037Y-130426891D01*
X46750848Y-130286814D01*
X46811096Y-130158489D01*
X46904940Y-130052231D01*
X47024835Y-129976583D01*
X47161142Y-129937626D01*
X47229000Y-129938041D01*
X47229000Y-129933000D01*
X47729000Y-129933000D01*
X47729000Y-131433000D01*
G37*
G04 #@! TD.AperFunction*
G04 #@! TA.AperFunction,SMDPad,CuDef*
G36*
X48529000Y-129938041D02*
G01*
X48602905Y-129938492D01*
X48738726Y-129979111D01*
X48857688Y-130056218D01*
X48950226Y-130163615D01*
X49008903Y-130292667D01*
X49029000Y-130433000D01*
X49029000Y-130933000D01*
X49028851Y-130945216D01*
X49005331Y-131085017D01*
X48943519Y-131212596D01*
X48848384Y-131317700D01*
X48727574Y-131391877D01*
X48590801Y-131429166D01*
X48529000Y-131428033D01*
X48529000Y-131433000D01*
X48029000Y-131433000D01*
X48029000Y-129933000D01*
X48529000Y-129933000D01*
X48529000Y-129938041D01*
G37*
G04 #@! TD.AperFunction*
G04 #@! TA.AperFunction,SMDPad,CuDef*
G36*
G01*
X54523000Y-150010000D02*
X54523000Y-149710000D01*
G75*
G02*
X54673000Y-149560000I150000J0D01*
G01*
X56423000Y-149560000D01*
G75*
G02*
X56573000Y-149710000I0J-150000D01*
G01*
X56573000Y-150010000D01*
G75*
G02*
X56423000Y-150160000I-150000J0D01*
G01*
X54673000Y-150160000D01*
G75*
G02*
X54523000Y-150010000I0J150000D01*
G01*
G37*
G04 #@! TD.AperFunction*
G04 #@! TA.AperFunction,SMDPad,CuDef*
G36*
G01*
X54523000Y-151280000D02*
X54523000Y-150980000D01*
G75*
G02*
X54673000Y-150830000I150000J0D01*
G01*
X56423000Y-150830000D01*
G75*
G02*
X56573000Y-150980000I0J-150000D01*
G01*
X56573000Y-151280000D01*
G75*
G02*
X56423000Y-151430000I-150000J0D01*
G01*
X54673000Y-151430000D01*
G75*
G02*
X54523000Y-151280000I0J150000D01*
G01*
G37*
G04 #@! TD.AperFunction*
G04 #@! TA.AperFunction,SMDPad,CuDef*
G36*
G01*
X54523000Y-152550000D02*
X54523000Y-152250000D01*
G75*
G02*
X54673000Y-152100000I150000J0D01*
G01*
X56423000Y-152100000D01*
G75*
G02*
X56573000Y-152250000I0J-150000D01*
G01*
X56573000Y-152550000D01*
G75*
G02*
X56423000Y-152700000I-150000J0D01*
G01*
X54673000Y-152700000D01*
G75*
G02*
X54523000Y-152550000I0J150000D01*
G01*
G37*
G04 #@! TD.AperFunction*
G04 #@! TA.AperFunction,SMDPad,CuDef*
G36*
G01*
X54523000Y-153820000D02*
X54523000Y-153520000D01*
G75*
G02*
X54673000Y-153370000I150000J0D01*
G01*
X56423000Y-153370000D01*
G75*
G02*
X56573000Y-153520000I0J-150000D01*
G01*
X56573000Y-153820000D01*
G75*
G02*
X56423000Y-153970000I-150000J0D01*
G01*
X54673000Y-153970000D01*
G75*
G02*
X54523000Y-153820000I0J150000D01*
G01*
G37*
G04 #@! TD.AperFunction*
G04 #@! TA.AperFunction,SMDPad,CuDef*
G36*
G01*
X54523000Y-155090000D02*
X54523000Y-154790000D01*
G75*
G02*
X54673000Y-154640000I150000J0D01*
G01*
X56423000Y-154640000D01*
G75*
G02*
X56573000Y-154790000I0J-150000D01*
G01*
X56573000Y-155090000D01*
G75*
G02*
X56423000Y-155240000I-150000J0D01*
G01*
X54673000Y-155240000D01*
G75*
G02*
X54523000Y-155090000I0J150000D01*
G01*
G37*
G04 #@! TD.AperFunction*
G04 #@! TA.AperFunction,SMDPad,CuDef*
G36*
G01*
X54523000Y-156360000D02*
X54523000Y-156060000D01*
G75*
G02*
X54673000Y-155910000I150000J0D01*
G01*
X56423000Y-155910000D01*
G75*
G02*
X56573000Y-156060000I0J-150000D01*
G01*
X56573000Y-156360000D01*
G75*
G02*
X56423000Y-156510000I-150000J0D01*
G01*
X54673000Y-156510000D01*
G75*
G02*
X54523000Y-156360000I0J150000D01*
G01*
G37*
G04 #@! TD.AperFunction*
G04 #@! TA.AperFunction,SMDPad,CuDef*
G36*
G01*
X54523000Y-157630000D02*
X54523000Y-157330000D01*
G75*
G02*
X54673000Y-157180000I150000J0D01*
G01*
X56423000Y-157180000D01*
G75*
G02*
X56573000Y-157330000I0J-150000D01*
G01*
X56573000Y-157630000D01*
G75*
G02*
X56423000Y-157780000I-150000J0D01*
G01*
X54673000Y-157780000D01*
G75*
G02*
X54523000Y-157630000I0J150000D01*
G01*
G37*
G04 #@! TD.AperFunction*
G04 #@! TA.AperFunction,SMDPad,CuDef*
G36*
G01*
X54523000Y-158900000D02*
X54523000Y-158600000D01*
G75*
G02*
X54673000Y-158450000I150000J0D01*
G01*
X56423000Y-158450000D01*
G75*
G02*
X56573000Y-158600000I0J-150000D01*
G01*
X56573000Y-158900000D01*
G75*
G02*
X56423000Y-159050000I-150000J0D01*
G01*
X54673000Y-159050000D01*
G75*
G02*
X54523000Y-158900000I0J150000D01*
G01*
G37*
G04 #@! TD.AperFunction*
G04 #@! TA.AperFunction,SMDPad,CuDef*
G36*
G01*
X54523000Y-160170000D02*
X54523000Y-159870000D01*
G75*
G02*
X54673000Y-159720000I150000J0D01*
G01*
X56423000Y-159720000D01*
G75*
G02*
X56573000Y-159870000I0J-150000D01*
G01*
X56573000Y-160170000D01*
G75*
G02*
X56423000Y-160320000I-150000J0D01*
G01*
X54673000Y-160320000D01*
G75*
G02*
X54523000Y-160170000I0J150000D01*
G01*
G37*
G04 #@! TD.AperFunction*
G04 #@! TA.AperFunction,SMDPad,CuDef*
G36*
G01*
X54523000Y-161440000D02*
X54523000Y-161140000D01*
G75*
G02*
X54673000Y-160990000I150000J0D01*
G01*
X56423000Y-160990000D01*
G75*
G02*
X56573000Y-161140000I0J-150000D01*
G01*
X56573000Y-161440000D01*
G75*
G02*
X56423000Y-161590000I-150000J0D01*
G01*
X54673000Y-161590000D01*
G75*
G02*
X54523000Y-161440000I0J150000D01*
G01*
G37*
G04 #@! TD.AperFunction*
G04 #@! TA.AperFunction,SMDPad,CuDef*
G36*
G01*
X63823000Y-161440000D02*
X63823000Y-161140000D01*
G75*
G02*
X63973000Y-160990000I150000J0D01*
G01*
X65723000Y-160990000D01*
G75*
G02*
X65873000Y-161140000I0J-150000D01*
G01*
X65873000Y-161440000D01*
G75*
G02*
X65723000Y-161590000I-150000J0D01*
G01*
X63973000Y-161590000D01*
G75*
G02*
X63823000Y-161440000I0J150000D01*
G01*
G37*
G04 #@! TD.AperFunction*
G04 #@! TA.AperFunction,SMDPad,CuDef*
G36*
G01*
X63823000Y-160170000D02*
X63823000Y-159870000D01*
G75*
G02*
X63973000Y-159720000I150000J0D01*
G01*
X65723000Y-159720000D01*
G75*
G02*
X65873000Y-159870000I0J-150000D01*
G01*
X65873000Y-160170000D01*
G75*
G02*
X65723000Y-160320000I-150000J0D01*
G01*
X63973000Y-160320000D01*
G75*
G02*
X63823000Y-160170000I0J150000D01*
G01*
G37*
G04 #@! TD.AperFunction*
G04 #@! TA.AperFunction,SMDPad,CuDef*
G36*
G01*
X63823000Y-158900000D02*
X63823000Y-158600000D01*
G75*
G02*
X63973000Y-158450000I150000J0D01*
G01*
X65723000Y-158450000D01*
G75*
G02*
X65873000Y-158600000I0J-150000D01*
G01*
X65873000Y-158900000D01*
G75*
G02*
X65723000Y-159050000I-150000J0D01*
G01*
X63973000Y-159050000D01*
G75*
G02*
X63823000Y-158900000I0J150000D01*
G01*
G37*
G04 #@! TD.AperFunction*
G04 #@! TA.AperFunction,SMDPad,CuDef*
G36*
G01*
X63823000Y-157630000D02*
X63823000Y-157330000D01*
G75*
G02*
X63973000Y-157180000I150000J0D01*
G01*
X65723000Y-157180000D01*
G75*
G02*
X65873000Y-157330000I0J-150000D01*
G01*
X65873000Y-157630000D01*
G75*
G02*
X65723000Y-157780000I-150000J0D01*
G01*
X63973000Y-157780000D01*
G75*
G02*
X63823000Y-157630000I0J150000D01*
G01*
G37*
G04 #@! TD.AperFunction*
G04 #@! TA.AperFunction,SMDPad,CuDef*
G36*
G01*
X63823000Y-156360000D02*
X63823000Y-156060000D01*
G75*
G02*
X63973000Y-155910000I150000J0D01*
G01*
X65723000Y-155910000D01*
G75*
G02*
X65873000Y-156060000I0J-150000D01*
G01*
X65873000Y-156360000D01*
G75*
G02*
X65723000Y-156510000I-150000J0D01*
G01*
X63973000Y-156510000D01*
G75*
G02*
X63823000Y-156360000I0J150000D01*
G01*
G37*
G04 #@! TD.AperFunction*
G04 #@! TA.AperFunction,SMDPad,CuDef*
G36*
G01*
X63823000Y-155090000D02*
X63823000Y-154790000D01*
G75*
G02*
X63973000Y-154640000I150000J0D01*
G01*
X65723000Y-154640000D01*
G75*
G02*
X65873000Y-154790000I0J-150000D01*
G01*
X65873000Y-155090000D01*
G75*
G02*
X65723000Y-155240000I-150000J0D01*
G01*
X63973000Y-155240000D01*
G75*
G02*
X63823000Y-155090000I0J150000D01*
G01*
G37*
G04 #@! TD.AperFunction*
G04 #@! TA.AperFunction,SMDPad,CuDef*
G36*
G01*
X63823000Y-153820000D02*
X63823000Y-153520000D01*
G75*
G02*
X63973000Y-153370000I150000J0D01*
G01*
X65723000Y-153370000D01*
G75*
G02*
X65873000Y-153520000I0J-150000D01*
G01*
X65873000Y-153820000D01*
G75*
G02*
X65723000Y-153970000I-150000J0D01*
G01*
X63973000Y-153970000D01*
G75*
G02*
X63823000Y-153820000I0J150000D01*
G01*
G37*
G04 #@! TD.AperFunction*
G04 #@! TA.AperFunction,SMDPad,CuDef*
G36*
G01*
X63823000Y-152550000D02*
X63823000Y-152250000D01*
G75*
G02*
X63973000Y-152100000I150000J0D01*
G01*
X65723000Y-152100000D01*
G75*
G02*
X65873000Y-152250000I0J-150000D01*
G01*
X65873000Y-152550000D01*
G75*
G02*
X65723000Y-152700000I-150000J0D01*
G01*
X63973000Y-152700000D01*
G75*
G02*
X63823000Y-152550000I0J150000D01*
G01*
G37*
G04 #@! TD.AperFunction*
G04 #@! TA.AperFunction,SMDPad,CuDef*
G36*
G01*
X63823000Y-151280000D02*
X63823000Y-150980000D01*
G75*
G02*
X63973000Y-150830000I150000J0D01*
G01*
X65723000Y-150830000D01*
G75*
G02*
X65873000Y-150980000I0J-150000D01*
G01*
X65873000Y-151280000D01*
G75*
G02*
X65723000Y-151430000I-150000J0D01*
G01*
X63973000Y-151430000D01*
G75*
G02*
X63823000Y-151280000I0J150000D01*
G01*
G37*
G04 #@! TD.AperFunction*
G04 #@! TA.AperFunction,SMDPad,CuDef*
G36*
G01*
X63823000Y-150010000D02*
X63823000Y-149710000D01*
G75*
G02*
X63973000Y-149560000I150000J0D01*
G01*
X65723000Y-149560000D01*
G75*
G02*
X65873000Y-149710000I0J-150000D01*
G01*
X65873000Y-150010000D01*
G75*
G02*
X65723000Y-150160000I-150000J0D01*
G01*
X63973000Y-150160000D01*
G75*
G02*
X63823000Y-150010000I0J150000D01*
G01*
G37*
G04 #@! TD.AperFunction*
D21*
X46228000Y-144907000D03*
X46228000Y-143637000D03*
X47498000Y-144907000D03*
X47498000Y-143637000D03*
X48768000Y-144907000D03*
X48768000Y-143637000D03*
D15*
X58293000Y-181101000D03*
X58293000Y-177801000D03*
G04 #@! TA.AperFunction,SMDPad,CuDef*
G36*
G01*
X88083064Y-155263000D02*
X88083064Y-154363000D01*
G75*
G02*
X88333064Y-154113000I250000J0D01*
G01*
X88858064Y-154113000D01*
G75*
G02*
X89108064Y-154363000I0J-250000D01*
G01*
X89108064Y-155263000D01*
G75*
G02*
X88858064Y-155513000I-250000J0D01*
G01*
X88333064Y-155513000D01*
G75*
G02*
X88083064Y-155263000I0J250000D01*
G01*
G37*
G04 #@! TD.AperFunction*
G04 #@! TA.AperFunction,SMDPad,CuDef*
G36*
G01*
X89908064Y-155263000D02*
X89908064Y-154363000D01*
G75*
G02*
X90158064Y-154113000I250000J0D01*
G01*
X90683064Y-154113000D01*
G75*
G02*
X90933064Y-154363000I0J-250000D01*
G01*
X90933064Y-155263000D01*
G75*
G02*
X90683064Y-155513000I-250000J0D01*
G01*
X90158064Y-155513000D01*
G75*
G02*
X89908064Y-155263000I0J250000D01*
G01*
G37*
G04 #@! TD.AperFunction*
G04 #@! TA.AperFunction,SMDPad,CuDef*
G36*
G01*
X64417000Y-186140000D02*
X64417000Y-187040000D01*
G75*
G02*
X64167000Y-187290000I-250000J0D01*
G01*
X63642000Y-187290000D01*
G75*
G02*
X63392000Y-187040000I0J250000D01*
G01*
X63392000Y-186140000D01*
G75*
G02*
X63642000Y-185890000I250000J0D01*
G01*
X64167000Y-185890000D01*
G75*
G02*
X64417000Y-186140000I0J-250000D01*
G01*
G37*
G04 #@! TD.AperFunction*
G04 #@! TA.AperFunction,SMDPad,CuDef*
G36*
G01*
X62592000Y-186140000D02*
X62592000Y-187040000D01*
G75*
G02*
X62342000Y-187290000I-250000J0D01*
G01*
X61817000Y-187290000D01*
G75*
G02*
X61567000Y-187040000I0J250000D01*
G01*
X61567000Y-186140000D01*
G75*
G02*
X61817000Y-185890000I250000J0D01*
G01*
X62342000Y-185890000D01*
G75*
G02*
X62592000Y-186140000I0J-250000D01*
G01*
G37*
G04 #@! TD.AperFunction*
G04 #@! TA.AperFunction,SMDPad,CuDef*
G36*
G01*
X53378000Y-183874000D02*
X53678000Y-183874000D01*
G75*
G02*
X53828000Y-184024000I0J-150000D01*
G01*
X53828000Y-185049000D01*
G75*
G02*
X53678000Y-185199000I-150000J0D01*
G01*
X53378000Y-185199000D01*
G75*
G02*
X53228000Y-185049000I0J150000D01*
G01*
X53228000Y-184024000D01*
G75*
G02*
X53378000Y-183874000I150000J0D01*
G01*
G37*
G04 #@! TD.AperFunction*
G04 #@! TA.AperFunction,SMDPad,CuDef*
G36*
G01*
X52428000Y-183874000D02*
X52728000Y-183874000D01*
G75*
G02*
X52878000Y-184024000I0J-150000D01*
G01*
X52878000Y-185049000D01*
G75*
G02*
X52728000Y-185199000I-150000J0D01*
G01*
X52428000Y-185199000D01*
G75*
G02*
X52278000Y-185049000I0J150000D01*
G01*
X52278000Y-184024000D01*
G75*
G02*
X52428000Y-183874000I150000J0D01*
G01*
G37*
G04 #@! TD.AperFunction*
G04 #@! TA.AperFunction,SMDPad,CuDef*
G36*
G01*
X51478000Y-183874000D02*
X51778000Y-183874000D01*
G75*
G02*
X51928000Y-184024000I0J-150000D01*
G01*
X51928000Y-185049000D01*
G75*
G02*
X51778000Y-185199000I-150000J0D01*
G01*
X51478000Y-185199000D01*
G75*
G02*
X51328000Y-185049000I0J150000D01*
G01*
X51328000Y-184024000D01*
G75*
G02*
X51478000Y-183874000I150000J0D01*
G01*
G37*
G04 #@! TD.AperFunction*
G04 #@! TA.AperFunction,SMDPad,CuDef*
G36*
G01*
X51478000Y-186149000D02*
X51778000Y-186149000D01*
G75*
G02*
X51928000Y-186299000I0J-150000D01*
G01*
X51928000Y-187324000D01*
G75*
G02*
X51778000Y-187474000I-150000J0D01*
G01*
X51478000Y-187474000D01*
G75*
G02*
X51328000Y-187324000I0J150000D01*
G01*
X51328000Y-186299000D01*
G75*
G02*
X51478000Y-186149000I150000J0D01*
G01*
G37*
G04 #@! TD.AperFunction*
G04 #@! TA.AperFunction,SMDPad,CuDef*
G36*
G01*
X53378000Y-186149000D02*
X53678000Y-186149000D01*
G75*
G02*
X53828000Y-186299000I0J-150000D01*
G01*
X53828000Y-187324000D01*
G75*
G02*
X53678000Y-187474000I-150000J0D01*
G01*
X53378000Y-187474000D01*
G75*
G02*
X53228000Y-187324000I0J150000D01*
G01*
X53228000Y-186299000D01*
G75*
G02*
X53378000Y-186149000I150000J0D01*
G01*
G37*
G04 #@! TD.AperFunction*
G04 #@! TA.AperFunction,SMDPad,CuDef*
G36*
G01*
X39850000Y-160089000D02*
X39850000Y-159189000D01*
G75*
G02*
X40100000Y-158939000I250000J0D01*
G01*
X40625000Y-158939000D01*
G75*
G02*
X40875000Y-159189000I0J-250000D01*
G01*
X40875000Y-160089000D01*
G75*
G02*
X40625000Y-160339000I-250000J0D01*
G01*
X40100000Y-160339000D01*
G75*
G02*
X39850000Y-160089000I0J250000D01*
G01*
G37*
G04 #@! TD.AperFunction*
G04 #@! TA.AperFunction,SMDPad,CuDef*
G36*
G01*
X41675000Y-160089000D02*
X41675000Y-159189000D01*
G75*
G02*
X41925000Y-158939000I250000J0D01*
G01*
X42450000Y-158939000D01*
G75*
G02*
X42700000Y-159189000I0J-250000D01*
G01*
X42700000Y-160089000D01*
G75*
G02*
X42450000Y-160339000I-250000J0D01*
G01*
X41925000Y-160339000D01*
G75*
G02*
X41675000Y-160089000I0J250000D01*
G01*
G37*
G04 #@! TD.AperFunction*
G04 #@! TA.AperFunction,SMDPad,CuDef*
G36*
G01*
X74473500Y-169730000D02*
X74473500Y-170630000D01*
G75*
G02*
X74223500Y-170880000I-250000J0D01*
G01*
X73698500Y-170880000D01*
G75*
G02*
X73448500Y-170630000I0J250000D01*
G01*
X73448500Y-169730000D01*
G75*
G02*
X73698500Y-169480000I250000J0D01*
G01*
X74223500Y-169480000D01*
G75*
G02*
X74473500Y-169730000I0J-250000D01*
G01*
G37*
G04 #@! TD.AperFunction*
G04 #@! TA.AperFunction,SMDPad,CuDef*
G36*
G01*
X72648500Y-169730000D02*
X72648500Y-170630000D01*
G75*
G02*
X72398500Y-170880000I-250000J0D01*
G01*
X71873500Y-170880000D01*
G75*
G02*
X71623500Y-170630000I0J250000D01*
G01*
X71623500Y-169730000D01*
G75*
G02*
X71873500Y-169480000I250000J0D01*
G01*
X72398500Y-169480000D01*
G75*
G02*
X72648500Y-169730000I0J-250000D01*
G01*
G37*
G04 #@! TD.AperFunction*
D22*
X44172000Y-184697500D03*
G04 #@! TA.AperFunction,SMDPad,CuDef*
G36*
X41747000Y-188647500D02*
G01*
X41747000Y-186047500D01*
X42272000Y-185522500D01*
X42272000Y-184047500D01*
X43072000Y-184047500D01*
X43072000Y-185522500D01*
X43597000Y-186047500D01*
X43597000Y-188647500D01*
X41747000Y-188647500D01*
G37*
G04 #@! TD.AperFunction*
X41172000Y-184697500D03*
G04 #@! TA.AperFunction,SMDPad,CuDef*
G36*
G01*
X52103000Y-162507000D02*
X53053000Y-162507000D01*
G75*
G02*
X53303000Y-162757000I0J-250000D01*
G01*
X53303000Y-163257000D01*
G75*
G02*
X53053000Y-163507000I-250000J0D01*
G01*
X52103000Y-163507000D01*
G75*
G02*
X51853000Y-163257000I0J250000D01*
G01*
X51853000Y-162757000D01*
G75*
G02*
X52103000Y-162507000I250000J0D01*
G01*
G37*
G04 #@! TD.AperFunction*
G04 #@! TA.AperFunction,SMDPad,CuDef*
G36*
G01*
X52103000Y-164407000D02*
X53053000Y-164407000D01*
G75*
G02*
X53303000Y-164657000I0J-250000D01*
G01*
X53303000Y-165157000D01*
G75*
G02*
X53053000Y-165407000I-250000J0D01*
G01*
X52103000Y-165407000D01*
G75*
G02*
X51853000Y-165157000I0J250000D01*
G01*
X51853000Y-164657000D01*
G75*
G02*
X52103000Y-164407000I250000J0D01*
G01*
G37*
G04 #@! TD.AperFunction*
G04 #@! TA.AperFunction,SMDPad,CuDef*
G36*
X47729000Y-128004000D02*
G01*
X47229000Y-128004000D01*
X47229000Y-127999033D01*
X47149059Y-127997568D01*
X47013744Y-127955293D01*
X46895734Y-127876738D01*
X46804514Y-127768219D01*
X46747419Y-127638460D01*
X46729836Y-127504000D01*
X46729000Y-127504000D01*
X46729000Y-127004000D01*
X46729836Y-127004000D01*
X46729037Y-126997891D01*
X46750848Y-126857814D01*
X46811096Y-126729489D01*
X46904940Y-126623231D01*
X47024835Y-126547583D01*
X47161142Y-126508626D01*
X47229000Y-126509041D01*
X47229000Y-126504000D01*
X47729000Y-126504000D01*
X47729000Y-128004000D01*
G37*
G04 #@! TD.AperFunction*
G04 #@! TA.AperFunction,SMDPad,CuDef*
G36*
X48529000Y-126509041D02*
G01*
X48602905Y-126509492D01*
X48738726Y-126550111D01*
X48857688Y-126627218D01*
X48950226Y-126734615D01*
X49008903Y-126863667D01*
X49029000Y-127004000D01*
X49029000Y-127504000D01*
X49028851Y-127516216D01*
X49005331Y-127656017D01*
X48943519Y-127783596D01*
X48848384Y-127888700D01*
X48727574Y-127962877D01*
X48590801Y-128000166D01*
X48529000Y-127999033D01*
X48529000Y-128004000D01*
X48029000Y-128004000D01*
X48029000Y-126504000D01*
X48529000Y-126504000D01*
X48529000Y-126509041D01*
G37*
G04 #@! TD.AperFunction*
G04 #@! TA.AperFunction,SMDPad,CuDef*
G36*
G01*
X84889000Y-145575000D02*
X84889000Y-146525000D01*
G75*
G02*
X84639000Y-146775000I-250000J0D01*
G01*
X84139000Y-146775000D01*
G75*
G02*
X83889000Y-146525000I0J250000D01*
G01*
X83889000Y-145575000D01*
G75*
G02*
X84139000Y-145325000I250000J0D01*
G01*
X84639000Y-145325000D01*
G75*
G02*
X84889000Y-145575000I0J-250000D01*
G01*
G37*
G04 #@! TD.AperFunction*
G04 #@! TA.AperFunction,SMDPad,CuDef*
G36*
G01*
X82989000Y-145575000D02*
X82989000Y-146525000D01*
G75*
G02*
X82739000Y-146775000I-250000J0D01*
G01*
X82239000Y-146775000D01*
G75*
G02*
X81989000Y-146525000I0J250000D01*
G01*
X81989000Y-145575000D01*
G75*
G02*
X82239000Y-145325000I250000J0D01*
G01*
X82739000Y-145325000D01*
G75*
G02*
X82989000Y-145575000I0J-250000D01*
G01*
G37*
G04 #@! TD.AperFunction*
D10*
X91693000Y-165227000D03*
X88393000Y-165227000D03*
G04 #@! TA.AperFunction,SMDPad,CuDef*
G36*
G01*
X59632000Y-187099000D02*
X58732000Y-187099000D01*
G75*
G02*
X58482000Y-186849000I0J250000D01*
G01*
X58482000Y-186324000D01*
G75*
G02*
X58732000Y-186074000I250000J0D01*
G01*
X59632000Y-186074000D01*
G75*
G02*
X59882000Y-186324000I0J-250000D01*
G01*
X59882000Y-186849000D01*
G75*
G02*
X59632000Y-187099000I-250000J0D01*
G01*
G37*
G04 #@! TD.AperFunction*
G04 #@! TA.AperFunction,SMDPad,CuDef*
G36*
G01*
X59632000Y-185274000D02*
X58732000Y-185274000D01*
G75*
G02*
X58482000Y-185024000I0J250000D01*
G01*
X58482000Y-184499000D01*
G75*
G02*
X58732000Y-184249000I250000J0D01*
G01*
X59632000Y-184249000D01*
G75*
G02*
X59882000Y-184499000I0J-250000D01*
G01*
X59882000Y-185024000D01*
G75*
G02*
X59632000Y-185274000I-250000J0D01*
G01*
G37*
G04 #@! TD.AperFunction*
D23*
X34798000Y-177800000D03*
X34798000Y-175768000D03*
X60198000Y-190627000D03*
X61341000Y-190627000D03*
X34798000Y-176784000D03*
X59055000Y-190627000D03*
X106426000Y-153670000D03*
X102616000Y-172021500D03*
X50546000Y-183134000D03*
X92202000Y-139319000D03*
X90932000Y-171450000D03*
X102616000Y-142367000D03*
X39243000Y-173609000D03*
X93726000Y-135763000D03*
X102616000Y-156654500D03*
X95250000Y-139319000D03*
X80010000Y-146050000D03*
X57785000Y-170180000D03*
X66578500Y-147193000D03*
X63754000Y-125349000D03*
X95250000Y-135763000D03*
X80899000Y-148971000D03*
X80899000Y-154813000D03*
X44577000Y-186436000D03*
X80899000Y-157734000D03*
X102616000Y-157543500D03*
X56261000Y-163035000D03*
X43053000Y-173609000D03*
X55626000Y-188214000D03*
X57404000Y-125349000D03*
X80899000Y-160655000D03*
X56515000Y-125349000D03*
X41656000Y-189357000D03*
X92456000Y-171450000D03*
X63881000Y-182118000D03*
X106553000Y-168910000D03*
X39243000Y-175387000D03*
X67467500Y-147193000D03*
X93980000Y-167894000D03*
X40767000Y-186436000D03*
X80899000Y-146050000D03*
X40767000Y-188214000D03*
X94361000Y-170307000D03*
X95631000Y-138176000D03*
X68453000Y-160020000D03*
X92202000Y-135763000D03*
X48133000Y-188214000D03*
X70104000Y-125349000D03*
X58801000Y-170180000D03*
X80010000Y-151892000D03*
X43053000Y-175387000D03*
X51562000Y-183134000D03*
X80010000Y-157734000D03*
X63246000Y-154940000D03*
X47117000Y-188214000D03*
X106553000Y-138430000D03*
X80010000Y-148971000D03*
X44577000Y-188214000D03*
X52578000Y-183134000D03*
X43688000Y-189357000D03*
X80010000Y-154813000D03*
X54610000Y-164338000D03*
X93726000Y-139319000D03*
X43053000Y-174498000D03*
X56642000Y-188214000D03*
X63881000Y-179324000D03*
X69215000Y-125349000D03*
X44577000Y-187325000D03*
X80010000Y-160655000D03*
X53848000Y-156210000D03*
X95631000Y-136906000D03*
X62357000Y-154940000D03*
X42672000Y-189357000D03*
X40767000Y-187325000D03*
X102616000Y-141478000D03*
X90932000Y-167894000D03*
X48768000Y-141986000D03*
X93980000Y-171450000D03*
X94361000Y-169037000D03*
X52959000Y-156210000D03*
X92456000Y-167894000D03*
X49911000Y-141986000D03*
X62865000Y-125349000D03*
X69342000Y-160020000D03*
X102616000Y-172910500D03*
X80899000Y-151892000D03*
X39243000Y-174498000D03*
X70993000Y-149733000D03*
X70993000Y-148844000D03*
X68072000Y-156210000D03*
X67183000Y-156210000D03*
X45212000Y-141986000D03*
X46228000Y-141986000D03*
X68961000Y-156210000D03*
X69215000Y-177419000D03*
X51562000Y-148844000D03*
X51562000Y-151765000D03*
X78994000Y-184785000D03*
X96012000Y-169672000D03*
X96012000Y-167640000D03*
X96012000Y-150749000D03*
X96012000Y-149860000D03*
X96012000Y-168656000D03*
X96012000Y-148971000D03*
X97028000Y-169672000D03*
X78521500Y-172049500D03*
X87249000Y-127254000D03*
X88265000Y-127254000D03*
X89281000Y-127254000D03*
X97028000Y-167640000D03*
X97028000Y-168656000D03*
X100457000Y-161671000D03*
X83820000Y-166497000D03*
X83820000Y-167386000D03*
X95250000Y-145415000D03*
X94615000Y-146050000D03*
X83820000Y-168275000D03*
X78486000Y-170180000D03*
X92011500Y-149923500D03*
X92011500Y-150812500D03*
X78359000Y-181864000D03*
X94996000Y-158877000D03*
X94996000Y-159766000D03*
X78486000Y-174498000D03*
X93980000Y-156591000D03*
X76073000Y-178943000D03*
X93980000Y-155702000D03*
X53213000Y-151130000D03*
X59817000Y-137922000D03*
X52832000Y-151892000D03*
X62738000Y-137160000D03*
X52324000Y-150241000D03*
X51054000Y-141097000D03*
X56896000Y-137160000D03*
D24*
X34798000Y-170560000D02*
X34798000Y-175768000D01*
X41172000Y-184697500D02*
X41172000Y-179889000D01*
X34798000Y-178054000D02*
X36609000Y-179865000D01*
X34823750Y-170560000D02*
X37921850Y-170560000D01*
X104394000Y-179324000D02*
X104394000Y-169164000D01*
X34798000Y-176784000D02*
X34798000Y-177800000D01*
D25*
X104148000Y-169410000D02*
X104394000Y-169164000D01*
D24*
X104394000Y-138938000D02*
X104394000Y-154178000D01*
X36609000Y-179865000D02*
X41148000Y-179865000D01*
X37921850Y-170560000D02*
X37947600Y-170534250D01*
D25*
X104386000Y-138930000D02*
X104394000Y-138938000D01*
D24*
X34798000Y-175768000D02*
X34798000Y-176784000D01*
X104394000Y-154178000D02*
X104394000Y-169164000D01*
X59055000Y-190627000D02*
X93091000Y-190627000D01*
X93091000Y-190627000D02*
X104394000Y-179324000D01*
D25*
X102648000Y-154170000D02*
X104386000Y-154170000D01*
X102648000Y-138930000D02*
X104386000Y-138930000D01*
X104386000Y-154170000D02*
X104394000Y-154178000D01*
X102648000Y-169410000D02*
X104148000Y-169410000D01*
X58801000Y-170180000D02*
X57198500Y-170180000D01*
D24*
X41084500Y-169545000D02*
X41084500Y-172847000D01*
D25*
X102616000Y-142367000D02*
X102616000Y-141478000D01*
X102616000Y-172021500D02*
X102616000Y-170505500D01*
X68453000Y-160020000D02*
X70932000Y-160020000D01*
D24*
X56007000Y-164277000D02*
X55946000Y-164338000D01*
D25*
X80010000Y-148971000D02*
X82489000Y-148971000D01*
D24*
X31559500Y-169545000D02*
X32194500Y-168910000D01*
D25*
X102616000Y-156654500D02*
X102616000Y-155138500D01*
D26*
X52578000Y-184536500D02*
X52578000Y-183134000D01*
D25*
X62865000Y-125349000D02*
X65344000Y-125349000D01*
X80010000Y-157734000D02*
X82489000Y-157734000D01*
X63881000Y-182118000D02*
X63881000Y-179324000D01*
D24*
X54041000Y-164907000D02*
X54610000Y-164338000D01*
D25*
X55548000Y-156210000D02*
X52959000Y-156210000D01*
X53848000Y-156210000D02*
X56125789Y-156210000D01*
D24*
X40449500Y-168910000D02*
X41084500Y-169545000D01*
D25*
X102616000Y-141478000D02*
X102616000Y-139962000D01*
X80010000Y-151892000D02*
X82489000Y-151892000D01*
X53848000Y-156210000D02*
X52959000Y-156210000D01*
X80010000Y-146050000D02*
X82489000Y-146050000D01*
X80010000Y-154813000D02*
X82489000Y-154813000D01*
D24*
X52578000Y-164907000D02*
X54041000Y-164907000D01*
D25*
X57198500Y-170180000D02*
X56055500Y-169037000D01*
X102616000Y-172910500D02*
X102616000Y-172021500D01*
X49911000Y-141986000D02*
X48768000Y-141986000D01*
X48768000Y-143637000D02*
X48768000Y-141986000D01*
X56515000Y-125349000D02*
X58994000Y-125349000D01*
X62357000Y-154940000D02*
X64848000Y-154940000D01*
D24*
X32194500Y-168910000D02*
X40449500Y-168910000D01*
D25*
X102616000Y-157543500D02*
X102616000Y-156654500D01*
X80010000Y-160655000D02*
X82489000Y-160655000D01*
D24*
X56261000Y-163035000D02*
X56261000Y-164371000D01*
D25*
X66578500Y-147193000D02*
X69057500Y-147193000D01*
D24*
X54610000Y-164338000D02*
X55946000Y-164338000D01*
D25*
X69215000Y-125349000D02*
X71694000Y-125349000D01*
D24*
X31559500Y-170560000D02*
X31559500Y-169545000D01*
D26*
X50546000Y-183134000D02*
X52578000Y-183134000D01*
D25*
X102616000Y-139962000D02*
X102648000Y-139930000D01*
D24*
X34036000Y-163449000D02*
X45212000Y-163449000D01*
X47625000Y-165862000D02*
X47625000Y-166624000D01*
D25*
X67183000Y-156210000D02*
X68072000Y-156210000D01*
D24*
X35179000Y-146954000D02*
X32639000Y-149494000D01*
X32639000Y-149494000D02*
X32639000Y-162052000D01*
X44172000Y-184697500D02*
X47156500Y-184697500D01*
D25*
X51628000Y-186811500D02*
X50794500Y-186811500D01*
X55548000Y-154940000D02*
X57658000Y-154940000D01*
D24*
X57531000Y-166624000D02*
X58166000Y-165989000D01*
X35179000Y-139954000D02*
X35179000Y-146954000D01*
X47625000Y-166624000D02*
X47625000Y-179324000D01*
D25*
X45212000Y-141986000D02*
X46228000Y-141986000D01*
X70993000Y-148844000D02*
X70993000Y-147259000D01*
D24*
X58293000Y-157226000D02*
X58293000Y-156210000D01*
D25*
X57658000Y-154940000D02*
X58293000Y-155575000D01*
D24*
X47752000Y-179451000D02*
X47625000Y-179324000D01*
X58293000Y-165862000D02*
X58293000Y-157226000D01*
D25*
X64848000Y-156210000D02*
X67183000Y-156210000D01*
X49403000Y-166497000D02*
X49530000Y-166624000D01*
D24*
X47625000Y-166624000D02*
X49530000Y-166624000D01*
D25*
X64848000Y-156210000D02*
X58293000Y-156210000D01*
X49596000Y-184724000D02*
X47625000Y-184724000D01*
X49506500Y-169037000D02*
X49506500Y-166647500D01*
D24*
X45212000Y-163449000D02*
X47625000Y-165862000D01*
D25*
X50794500Y-186811500D02*
X50165000Y-186182000D01*
X70993000Y-151095000D02*
X70958000Y-151130000D01*
X51628000Y-186811500D02*
X53528000Y-186811500D01*
D24*
X47625000Y-184724000D02*
X47625000Y-179324000D01*
D25*
X50165000Y-185293000D02*
X49596000Y-184724000D01*
X68072000Y-156210000D02*
X68961000Y-156210000D01*
X58293000Y-155575000D02*
X58293000Y-157226000D01*
D24*
X32639000Y-162052000D02*
X34036000Y-163449000D01*
D25*
X49403000Y-164869500D02*
X49403000Y-166497000D01*
X70993000Y-147259000D02*
X70927000Y-147193000D01*
D24*
X49530000Y-166624000D02*
X57531000Y-166624000D01*
D25*
X70993000Y-148844000D02*
X70993000Y-151095000D01*
X46228000Y-143637000D02*
X46228000Y-141986000D01*
D24*
X58166000Y-165989000D02*
X58293000Y-165862000D01*
D25*
X49506500Y-166647500D02*
X49530000Y-166624000D01*
D24*
X50279300Y-179451000D02*
X47752000Y-179451000D01*
D25*
X50165000Y-186182000D02*
X50165000Y-185293000D01*
D27*
X72009000Y-153670000D02*
X70958000Y-153670000D01*
D25*
X84389000Y-146050000D02*
X88572064Y-146050000D01*
D27*
X72263000Y-153416000D02*
X72009000Y-153670000D01*
X84389000Y-146050000D02*
X84389000Y-147132000D01*
X75057000Y-147574000D02*
X72263000Y-150368000D01*
X72263000Y-150368000D02*
X72263000Y-153416000D01*
X84389000Y-147132000D02*
X83947000Y-147574000D01*
X83947000Y-147574000D02*
X75057000Y-147574000D01*
D24*
X29337000Y-174625000D02*
X30012000Y-175300000D01*
X30012000Y-175300000D02*
X32339000Y-175300000D01*
X34798000Y-167234250D02*
X30122750Y-167234250D01*
X30122750Y-167234250D02*
X29337000Y-168020000D01*
X29337000Y-168020000D02*
X29337000Y-174625000D01*
X36703000Y-165481000D02*
X37845000Y-165481000D01*
X37845000Y-165481000D02*
X37845000Y-167131650D01*
X37845000Y-167131650D02*
X37947600Y-167234250D01*
X40513000Y-165481000D02*
X36703000Y-165481000D01*
X29678000Y-180300000D02*
X27686000Y-178308000D01*
X41122600Y-166090600D02*
X40513000Y-165481000D01*
X41122600Y-167234250D02*
X41122600Y-166090600D01*
X27686000Y-166878000D02*
X29083000Y-165481000D01*
X32339000Y-180300000D02*
X29678000Y-180300000D01*
X27686000Y-178308000D02*
X27686000Y-166878000D01*
X29083000Y-165481000D02*
X36703000Y-165481000D01*
D27*
X77597000Y-153670000D02*
X76108000Y-153670000D01*
X80264000Y-156337000D02*
X77597000Y-153670000D01*
D25*
X84389000Y-154813000D02*
X88595564Y-154813000D01*
D27*
X84074000Y-156337000D02*
X80264000Y-156337000D01*
X84389000Y-156022000D02*
X84074000Y-156337000D01*
X84389000Y-154813000D02*
X84389000Y-156022000D01*
D25*
X84389000Y-157734000D02*
X88595564Y-157734000D01*
D27*
X76108000Y-157480000D02*
X78486000Y-157480000D01*
X80264000Y-159258000D02*
X84074000Y-159258000D01*
X84074000Y-159258000D02*
X84389000Y-158943000D01*
X78486000Y-157480000D02*
X80264000Y-159258000D01*
X84389000Y-158943000D02*
X84389000Y-157734000D01*
X84389000Y-153101000D02*
X84074000Y-153416000D01*
X78994000Y-152019000D02*
X78994000Y-150876000D01*
X78994000Y-150876000D02*
X78232000Y-150114000D01*
X80391000Y-153416000D02*
X78994000Y-152019000D01*
X74295000Y-150114000D02*
X73152000Y-151257000D01*
X72136000Y-158750000D02*
X70958000Y-158750000D01*
X84074000Y-153416000D02*
X80391000Y-153416000D01*
X73152000Y-157734000D02*
X72136000Y-158750000D01*
X78232000Y-150114000D02*
X74295000Y-150114000D01*
X73152000Y-151257000D02*
X73152000Y-157734000D01*
X84389000Y-151892000D02*
X84389000Y-153101000D01*
D25*
X84389000Y-151892000D02*
X88595564Y-151892000D01*
D27*
X84389000Y-161991000D02*
X84389000Y-160655000D01*
X76108000Y-160020000D02*
X78105000Y-160020000D01*
D25*
X84389000Y-160655000D02*
X88595564Y-160655000D01*
D27*
X84201000Y-162179000D02*
X84389000Y-161991000D01*
X80264000Y-162179000D02*
X84201000Y-162179000D01*
X78105000Y-160020000D02*
X80264000Y-162179000D01*
D24*
X56134000Y-183515000D02*
X56134000Y-184724000D01*
X72032500Y-177419000D02*
X72136000Y-177522500D01*
X72136000Y-170180000D02*
X72136000Y-177546000D01*
X56134000Y-184724000D02*
X59144500Y-184724000D01*
X58293000Y-181356000D02*
X56134000Y-183515000D01*
X69215000Y-177419000D02*
X72009000Y-177419000D01*
X60452000Y-178689000D02*
X61722000Y-177419000D01*
X59182000Y-184761500D02*
X59182000Y-184658000D01*
X59144500Y-184724000D02*
X59182000Y-184761500D01*
X61722000Y-177419000D02*
X69215000Y-177419000D01*
D25*
X72136000Y-173101000D02*
X72136000Y-170180000D01*
D24*
X58293000Y-181101000D02*
X58293000Y-181356000D01*
D25*
X72136000Y-177522500D02*
X72136000Y-173101000D01*
D24*
X72009000Y-177419000D02*
X72136000Y-177546000D01*
X59182000Y-184658000D02*
X60452000Y-183388000D01*
X60452000Y-183388000D02*
X60452000Y-178689000D01*
D25*
X72136000Y-184785000D02*
X72136000Y-177522500D01*
D24*
X72136000Y-177546000D02*
X72136000Y-184785000D01*
D27*
X55548000Y-161290000D02*
X56769000Y-161290000D01*
X51562000Y-151765000D02*
X51562000Y-152622184D01*
X51562000Y-152622184D02*
X54484616Y-155544800D01*
X54484616Y-155544800D02*
X56611384Y-155544800D01*
D25*
X55548000Y-161290000D02*
X53086000Y-161290000D01*
X52540500Y-163044500D02*
X52578000Y-163007000D01*
X52578000Y-161798000D02*
X52578000Y-163007000D01*
D27*
X56611384Y-155544800D02*
X57023000Y-155956416D01*
X56769000Y-161290000D02*
X57023000Y-161036000D01*
D25*
X49403000Y-163044500D02*
X52540500Y-163044500D01*
D27*
X48768000Y-146050000D02*
X48768000Y-144907000D01*
X51562000Y-148844000D02*
X48768000Y-146050000D01*
X57023000Y-161036000D02*
X57023000Y-155956416D01*
D25*
X53086000Y-161290000D02*
X52578000Y-161798000D01*
X78994000Y-184785000D02*
X73961000Y-184785000D01*
X96012000Y-148971000D02*
X96012000Y-144653000D01*
X89409000Y-142113000D02*
X89409000Y-140463000D01*
X80899000Y-185928000D02*
X79756000Y-184785000D01*
X96012000Y-151003000D02*
X95123000Y-151892000D01*
X89409000Y-140463000D02*
X89535000Y-140589000D01*
X89409000Y-137572000D02*
X89440000Y-137541000D01*
X95377000Y-144018000D02*
X90043000Y-144018000D01*
X89409000Y-140463000D02*
X89409000Y-137572000D01*
X96012000Y-167640000D02*
X96012000Y-177546000D01*
X90043000Y-144018000D02*
X89409000Y-143384000D01*
X96012000Y-150749000D02*
X96012000Y-148971000D01*
X99941000Y-137930000D02*
X102648000Y-137930000D01*
X96012000Y-177546000D02*
X87630000Y-185928000D01*
X89409000Y-143384000D02*
X89409000Y-142113000D01*
X95123000Y-151892000D02*
X90420564Y-151892000D01*
X89626500Y-137354500D02*
X89440000Y-137541000D01*
X89535000Y-140589000D02*
X97282000Y-140589000D01*
X96012000Y-144653000D02*
X95377000Y-144018000D01*
X79756000Y-184785000D02*
X78994000Y-184785000D01*
X97282000Y-140589000D02*
X99941000Y-137930000D01*
X87630000Y-185928000D02*
X80899000Y-185928000D01*
X89626500Y-132735000D02*
X89626500Y-137354500D01*
X96012000Y-150749000D02*
X96012000Y-151003000D01*
X96901000Y-166624000D02*
X97028000Y-166751000D01*
X88427500Y-172049500D02*
X88427500Y-169675500D01*
X78521500Y-172049500D02*
X88427500Y-172049500D01*
X88393000Y-165227000D02*
X88393000Y-163702000D01*
X98933000Y-166624000D02*
X100719000Y-168410000D01*
X88427500Y-174478000D02*
X88427500Y-172049500D01*
X88393000Y-169641000D02*
X88424000Y-169672000D01*
X82296000Y-127889000D02*
X82296000Y-133604000D01*
X86106000Y-134747000D02*
X87086500Y-133766500D01*
X97028000Y-168656000D02*
X97028000Y-169672000D01*
X75946000Y-173101000D02*
X73961000Y-173101000D01*
X78521500Y-172049500D02*
X76997500Y-172049500D01*
X97028000Y-166751000D02*
X97028000Y-167640000D01*
X82296000Y-133604000D02*
X83439000Y-134747000D01*
X88393000Y-163702000D02*
X90420564Y-161674436D01*
X83439000Y-134747000D02*
X86106000Y-134747000D01*
X97028000Y-167640000D02*
X97028000Y-168656000D01*
X87249000Y-127254000D02*
X82931000Y-127254000D01*
X87086500Y-132989000D02*
X86832500Y-132735000D01*
X82931000Y-127254000D02*
X82296000Y-127889000D01*
X89281000Y-127254000D02*
X87249000Y-127254000D01*
X88427500Y-169675500D02*
X88424000Y-169672000D01*
X100719000Y-168410000D02*
X102648000Y-168410000D01*
X88393000Y-165227000D02*
X88393000Y-169641000D01*
X88648000Y-166624000D02*
X96901000Y-166624000D01*
X76997500Y-172049500D02*
X75946000Y-173101000D01*
X90420564Y-161674436D02*
X90420564Y-160655000D01*
X87086500Y-133766500D02*
X87086500Y-132989000D01*
X96901000Y-166624000D02*
X98933000Y-166624000D01*
X100457000Y-161671000D02*
X100457000Y-163703000D01*
X100457000Y-143637000D02*
X98933000Y-142113000D01*
X100457000Y-153289000D02*
X100457000Y-161671000D01*
X98933000Y-165227000D02*
X91693000Y-165227000D01*
X100457000Y-163703000D02*
X98933000Y-165227000D01*
X100457000Y-153289000D02*
X100457000Y-143637000D01*
X100584000Y-153162000D02*
X100457000Y-153289000D01*
X102648000Y-153170000D02*
X100592000Y-153170000D01*
X100592000Y-153170000D02*
X100584000Y-153162000D01*
X98933000Y-142113000D02*
X92709000Y-142113000D01*
X51331500Y-169037000D02*
X54180500Y-169037000D01*
D26*
X54876700Y-182867300D02*
X54876700Y-179451000D01*
D24*
X54876700Y-177914300D02*
X54991000Y-177800000D01*
D26*
X53528000Y-184216000D02*
X54876700Y-182867300D01*
D24*
X54992000Y-177801000D02*
X58293000Y-177801000D01*
X54876700Y-179451000D02*
X54876700Y-177914300D01*
X54991000Y-177800000D02*
X54992000Y-177801000D01*
D26*
X53528000Y-184536500D02*
X53528000Y-184216000D01*
D27*
X70958000Y-156210000D02*
X72136000Y-156210000D01*
X78994000Y-149479000D02*
X80010000Y-150495000D01*
D25*
X88595564Y-148971000D02*
X84389000Y-148971000D01*
D27*
X72694800Y-150825200D02*
X74041000Y-149479000D01*
X80010000Y-150495000D02*
X83947000Y-150495000D01*
X72694800Y-155651200D02*
X72694800Y-150825200D01*
X84389000Y-150053000D02*
X84389000Y-148971000D01*
X74041000Y-149479000D02*
X78994000Y-149479000D01*
X83947000Y-150495000D02*
X84389000Y-150053000D01*
X72136000Y-156210000D02*
X72694800Y-155651200D01*
D25*
X78486000Y-170180000D02*
X83058000Y-170180000D01*
X83058000Y-170180000D02*
X83820000Y-169418000D01*
X90397064Y-146050000D02*
X94615000Y-146050000D01*
X73961000Y-170180000D02*
X78486000Y-170180000D01*
X83820000Y-169418000D02*
X83820000Y-166497000D01*
X95250000Y-145415000D02*
X94615000Y-146050000D01*
X79906500Y-180340000D02*
X86233000Y-180340000D01*
X91567000Y-148971000D02*
X92011500Y-149415500D01*
X92011500Y-149415500D02*
X92011500Y-150812500D01*
X78382500Y-181864000D02*
X78359000Y-181864000D01*
X87157500Y-179415500D02*
X87157500Y-177018000D01*
X78382500Y-181864000D02*
X79906500Y-180340000D01*
X90420564Y-148971000D02*
X91567000Y-148971000D01*
X86233000Y-180340000D02*
X87157500Y-179415500D01*
X78359000Y-181864000D02*
X73961000Y-181864000D01*
X90420564Y-157734000D02*
X94488000Y-157734000D01*
X77851000Y-174498000D02*
X76327000Y-176022000D01*
X94996000Y-158242000D02*
X94996000Y-158877000D01*
X94488000Y-157734000D02*
X94996000Y-158242000D01*
X76327000Y-176022000D02*
X73961000Y-176022000D01*
X85887500Y-174478000D02*
X78486000Y-174498000D01*
X94996000Y-159766000D02*
X94996000Y-158877000D01*
X78486000Y-174498000D02*
X77851000Y-174498000D01*
X76073000Y-178943000D02*
X73961000Y-178943000D01*
X84617500Y-177018000D02*
X84617500Y-177891500D01*
X93472000Y-154813000D02*
X93980000Y-155321000D01*
X83566000Y-178943000D02*
X76073000Y-178943000D01*
X93980000Y-155321000D02*
X93980000Y-156591000D01*
X84617500Y-177891500D02*
X83566000Y-178943000D01*
X90420564Y-154813000D02*
X93472000Y-154813000D01*
D27*
X53213000Y-151130000D02*
X51435000Y-151130000D01*
X51435000Y-151130000D02*
X46228000Y-145923000D01*
X46228000Y-145923000D02*
X46228000Y-144907000D01*
X59817000Y-135786500D02*
X59817000Y-137922000D01*
X55548000Y-151130000D02*
X53213000Y-151130000D01*
X51689000Y-150241000D02*
X47498000Y-146050000D01*
X62738000Y-135786500D02*
X62738000Y-137160000D01*
X52324000Y-150241000D02*
X51689000Y-150241000D01*
X47498000Y-146050000D02*
X47498000Y-144907000D01*
X53340000Y-152400000D02*
X55548000Y-152400000D01*
X52832000Y-151892000D02*
X53340000Y-152400000D01*
X51054000Y-141097000D02*
X47879000Y-141097000D01*
X56896000Y-135786500D02*
X56896000Y-137160000D01*
X51562000Y-147447000D02*
X53975000Y-149860000D01*
X51562000Y-141605000D02*
X51562000Y-147447000D01*
X47879000Y-141097000D02*
X47498000Y-141478000D01*
X53975000Y-149860000D02*
X55548000Y-149860000D01*
X51562000Y-141605000D02*
X51054000Y-141097000D01*
X47498000Y-141478000D02*
X47498000Y-143637000D01*
D25*
X48529000Y-128255000D02*
X48529000Y-127254000D01*
X39482000Y-128539000D02*
X42149000Y-128539000D01*
X35164000Y-127284000D02*
X38227000Y-127284000D01*
X48245000Y-128539000D02*
X48529000Y-128255000D01*
X38227000Y-127284000D02*
X39482000Y-128539000D01*
X42172500Y-127269000D02*
X42172500Y-128515500D01*
X42172500Y-128515500D02*
X42149000Y-128539000D01*
X42149000Y-128539000D02*
X48245000Y-128539000D01*
X39520500Y-132009000D02*
X42187500Y-132009000D01*
X42187500Y-132009000D02*
X48283500Y-132009000D01*
X35202500Y-130754000D02*
X38265500Y-130754000D01*
X42211000Y-130739000D02*
X42211000Y-131985500D01*
X38265500Y-130754000D02*
X39520500Y-132009000D01*
X48283500Y-132009000D02*
X48552500Y-131740000D01*
X42211000Y-131985500D02*
X42187500Y-132009000D01*
X48552500Y-131740000D02*
X48552500Y-130739000D01*
X48529000Y-135240000D02*
X48529000Y-134239000D01*
X42164000Y-135509000D02*
X48260000Y-135509000D01*
X48260000Y-135509000D02*
X48529000Y-135240000D01*
X35179000Y-134254000D02*
X38242000Y-134254000D01*
X38242000Y-134254000D02*
X39497000Y-135509000D01*
X42187500Y-135485500D02*
X42164000Y-135509000D01*
X42187500Y-134239000D02*
X42187500Y-135485500D01*
X39497000Y-135509000D02*
X42164000Y-135509000D01*
X42149000Y-153939000D02*
X48245000Y-153939000D01*
X48529000Y-153655000D02*
X48529000Y-152654000D01*
X35164000Y-152684000D02*
X38227000Y-152684000D01*
X42172500Y-152669000D02*
X42172500Y-153915500D01*
X42172500Y-153915500D02*
X42149000Y-153939000D01*
X39482000Y-153939000D02*
X42149000Y-153939000D01*
X48245000Y-153939000D02*
X48529000Y-153655000D01*
X38227000Y-152684000D02*
X39482000Y-153939000D01*
X35202500Y-156154000D02*
X38265500Y-156154000D01*
X48552500Y-157140000D02*
X48552500Y-156139000D01*
X39520500Y-157409000D02*
X42187500Y-157409000D01*
X38265500Y-156154000D02*
X39520500Y-157409000D01*
X42211000Y-157385500D02*
X42187500Y-157409000D01*
X42211000Y-156139000D02*
X42211000Y-157385500D01*
X48283500Y-157409000D02*
X48552500Y-157140000D01*
X42187500Y-157409000D02*
X48283500Y-157409000D01*
X42187500Y-160885500D02*
X42164000Y-160909000D01*
X35179000Y-159654000D02*
X38242000Y-159654000D01*
X38242000Y-159654000D02*
X39497000Y-160909000D01*
X48260000Y-160909000D02*
X48529000Y-160640000D01*
X48529000Y-160640000D02*
X48529000Y-159639000D01*
X42187500Y-159639000D02*
X42187500Y-160885500D01*
X39497000Y-160909000D02*
X42164000Y-160909000D01*
X42164000Y-160909000D02*
X48260000Y-160909000D01*
X52959000Y-128858000D02*
X52959000Y-137668000D01*
X63119000Y-149098000D02*
X63881000Y-149860000D01*
X50061500Y-125960500D02*
X52959000Y-128858000D01*
X40790500Y-125960500D02*
X50061500Y-125960500D01*
X47252500Y-127230500D02*
X47252500Y-126121900D01*
X61722000Y-138811000D02*
X63119000Y-140208000D01*
X52959000Y-137668000D02*
X54102000Y-138811000D01*
X63119000Y-140208000D02*
X63119000Y-149098000D01*
X40386000Y-127230500D02*
X40386000Y-126365000D01*
X40386000Y-126365000D02*
X40790500Y-125960500D01*
X54102000Y-138811000D02*
X61722000Y-138811000D01*
X63881000Y-149860000D02*
X64848000Y-149860000D01*
X40386000Y-129794000D02*
X40790500Y-129389500D01*
X47252500Y-130659500D02*
X47252500Y-129550900D01*
X40386000Y-130659500D02*
X40386000Y-129794000D01*
X51943000Y-131271000D02*
X51943000Y-137922000D01*
X50061500Y-129389500D02*
X51943000Y-131271000D01*
X53721000Y-139700000D02*
X61341000Y-139700000D01*
X61341000Y-139700000D02*
X62103000Y-140462000D01*
X62992000Y-151130000D02*
X64848000Y-151130000D01*
X62103000Y-140462000D02*
X62103000Y-150241000D01*
X51943000Y-137922000D02*
X53721000Y-139700000D01*
X40790500Y-129389500D02*
X50061500Y-129389500D01*
X62103000Y-150241000D02*
X62992000Y-151130000D01*
X50038000Y-132969000D02*
X50927000Y-133858000D01*
X40362500Y-134239000D02*
X40362500Y-133373500D01*
X57531000Y-153670000D02*
X55548000Y-153670000D01*
X57150000Y-140589000D02*
X57912000Y-141351000D01*
X40362500Y-133373500D02*
X40767000Y-132969000D01*
X53213000Y-140589000D02*
X57150000Y-140589000D01*
X57912000Y-153289000D02*
X57531000Y-153670000D01*
X40767000Y-132969000D02*
X50038000Y-132969000D01*
X57912000Y-141351000D02*
X57912000Y-153289000D01*
X47229000Y-134239000D02*
X47229000Y-133130400D01*
X50927000Y-133858000D02*
X50927000Y-138303000D01*
X50927000Y-138303000D02*
X53213000Y-140589000D01*
X51308000Y-154940000D02*
X49911000Y-153543000D01*
X40386000Y-151765000D02*
X40790500Y-151360500D01*
X51308000Y-156591000D02*
X51308000Y-154940000D01*
X55548000Y-157480000D02*
X52197000Y-157480000D01*
X52197000Y-157480000D02*
X51308000Y-156591000D01*
X40790500Y-151360500D02*
X49252500Y-151360500D01*
X49911000Y-152019000D02*
X49252500Y-151360500D01*
X49911000Y-153543000D02*
X49911000Y-152019000D01*
X47252500Y-152630500D02*
X47252500Y-151521900D01*
X40386000Y-152630500D02*
X40386000Y-151765000D01*
X50419000Y-155448000D02*
X49760500Y-154789500D01*
X40386000Y-156059500D02*
X40386000Y-155194000D01*
X50419000Y-157226000D02*
X50419000Y-155448000D01*
X55548000Y-158750000D02*
X51943000Y-158750000D01*
X40386000Y-155194000D02*
X40790500Y-154789500D01*
X47252500Y-156059500D02*
X47252500Y-154950900D01*
X40790500Y-154789500D02*
X49760500Y-154789500D01*
X51943000Y-158750000D02*
X50419000Y-157226000D01*
X47229000Y-159639000D02*
X47229000Y-158530400D01*
X40362500Y-158773500D02*
X40767000Y-158369000D01*
X40362500Y-159639000D02*
X40362500Y-158773500D01*
X55548000Y-160020000D02*
X51689000Y-160020000D01*
X51689000Y-160020000D02*
X50038000Y-158369000D01*
X40767000Y-158369000D02*
X50038000Y-158369000D01*
X60340000Y-128128000D02*
X60340000Y-125349000D01*
X56896000Y-133961500D02*
X56896000Y-131572000D01*
X56896000Y-131572000D02*
X60340000Y-128128000D01*
X63119000Y-127508000D02*
X65913000Y-127508000D01*
X59817000Y-130810000D02*
X63119000Y-127508000D01*
X59817000Y-133961500D02*
X59817000Y-130810000D01*
X66690000Y-126731000D02*
X66690000Y-125349000D01*
X65913000Y-127508000D02*
X66690000Y-126731000D01*
X72136000Y-128651000D02*
X73040000Y-127747000D01*
X64389000Y-128651000D02*
X72136000Y-128651000D01*
X62738000Y-133961500D02*
X62738000Y-130302000D01*
X73040000Y-127747000D02*
X73040000Y-125349000D01*
X62738000Y-130302000D02*
X64389000Y-128651000D01*
X62076000Y-186586500D02*
X62079500Y-186590000D01*
X59182000Y-186586500D02*
X62076000Y-186586500D01*
D27*
X60960000Y-185674000D02*
X61468000Y-185166000D01*
X51628000Y-184536500D02*
X51628000Y-185232000D01*
D25*
X63904500Y-186590000D02*
X66397500Y-186590000D01*
D27*
X61468000Y-185166000D02*
X63500000Y-185166000D01*
X51628000Y-185232000D02*
X52070000Y-185674000D01*
X63500000Y-185166000D02*
X63904500Y-185570500D01*
D25*
X66397500Y-186590000D02*
X66548000Y-186740500D01*
D27*
X63904500Y-185570500D02*
X63904500Y-186590000D01*
X52070000Y-185674000D02*
X60960000Y-185674000D01*
D25*
X66548000Y-184023000D02*
X66548000Y-184915500D01*
X63904500Y-183669000D02*
X66194000Y-183669000D01*
X66194000Y-183669000D02*
X66548000Y-184023000D01*
X62079500Y-180748000D02*
X62079500Y-183669000D01*
D27*
X74676000Y-161671000D02*
X73914000Y-162433000D01*
X75184000Y-158750000D02*
X74676000Y-159258000D01*
X67437000Y-162433000D02*
X66294000Y-161290000D01*
X66294000Y-161290000D02*
X64848000Y-161290000D01*
X74676000Y-159258000D02*
X74676000Y-161671000D01*
X76108000Y-158750000D02*
X75184000Y-158750000D01*
X73914000Y-162433000D02*
X67437000Y-162433000D01*
X67691000Y-161925000D02*
X67183000Y-161417000D01*
X76108000Y-156210000D02*
X74599800Y-156210000D01*
X73533000Y-161925000D02*
X67691000Y-161925000D01*
X74168000Y-156641800D02*
X74168000Y-161290000D01*
X74168000Y-161290000D02*
X73533000Y-161925000D01*
X67183000Y-160401000D02*
X66802000Y-160020000D01*
X67183000Y-161417000D02*
X67183000Y-160401000D01*
X74599800Y-156210000D02*
X74168000Y-156641800D01*
X66802000Y-160020000D02*
X64848000Y-160020000D01*
X73660000Y-160909000D02*
X73660000Y-152908000D01*
X74168000Y-152400000D02*
X76108000Y-152400000D01*
X73660000Y-152908000D02*
X74168000Y-152400000D01*
X67056000Y-158750000D02*
X67691000Y-159385000D01*
X67691000Y-159385000D02*
X67691000Y-161036000D01*
X64848000Y-158750000D02*
X67056000Y-158750000D01*
X68072000Y-161417000D02*
X73152000Y-161417000D01*
X73152000Y-161417000D02*
X73660000Y-160909000D01*
X67691000Y-161036000D02*
X68072000Y-161417000D01*
X70958000Y-157480000D02*
X64848000Y-157480000D01*
X67564000Y-153670000D02*
X68834000Y-154940000D01*
X68834000Y-154940000D02*
X70958000Y-154940000D01*
X64848000Y-153670000D02*
X67564000Y-153670000D01*
X64848000Y-152400000D02*
X70958000Y-152400000D01*
G04 #@! TA.AperFunction,Conductor*
G36*
X96335121Y-135275002D02*
G01*
X96381614Y-135328658D01*
X96393000Y-135381000D01*
X96393000Y-139701000D01*
X96372998Y-139769121D01*
X96319342Y-139815614D01*
X96267000Y-139827000D01*
X91693000Y-139827000D01*
X91624879Y-139806998D01*
X91578386Y-139753342D01*
X91567000Y-139701000D01*
X91567000Y-135381000D01*
X91587002Y-135312879D01*
X91640658Y-135266386D01*
X91693000Y-135255000D01*
X96267000Y-135255000D01*
X96335121Y-135275002D01*
G37*
G04 #@! TD.AperFunction*
G04 #@! TA.AperFunction,Conductor*
G36*
X95065121Y-167406002D02*
G01*
X95111614Y-167459658D01*
X95123000Y-167512000D01*
X95123000Y-171832000D01*
X95102998Y-171900121D01*
X95049342Y-171946614D01*
X94997000Y-171958000D01*
X90423000Y-171958000D01*
X90354879Y-171937998D01*
X90308386Y-171884342D01*
X90297000Y-171832000D01*
X90297000Y-167512000D01*
X90317002Y-167443879D01*
X90370658Y-167397386D01*
X90423000Y-167386000D01*
X94997000Y-167386000D01*
X95065121Y-167406002D01*
G37*
G04 #@! TD.AperFunction*
G04 #@! TA.AperFunction,Conductor*
G36*
X51504121Y-176296002D02*
G01*
X51550614Y-176349658D01*
X51562000Y-176402000D01*
X51562000Y-182373000D01*
X51541998Y-182441121D01*
X51488342Y-182487614D01*
X51436000Y-182499000D01*
X47243000Y-182499000D01*
X47174879Y-182478998D01*
X47128386Y-182425342D01*
X47117000Y-182373000D01*
X47117000Y-176402000D01*
X47137002Y-176333879D01*
X47190658Y-176287386D01*
X47243000Y-176276000D01*
X51436000Y-176276000D01*
X51504121Y-176296002D01*
G37*
G04 #@! TD.AperFunction*
G04 #@! TA.AperFunction,Conductor*
G36*
X40060922Y-171724002D02*
G01*
X40081896Y-171740905D01*
X40096276Y-171755285D01*
X40198351Y-171831786D01*
X40213946Y-171840324D01*
X40334394Y-171885478D01*
X40349649Y-171889105D01*
X40400514Y-171894631D01*
X40407328Y-171895000D01*
X41129885Y-171895000D01*
X41145124Y-171890525D01*
X41146329Y-171889135D01*
X41148000Y-171881452D01*
X41148000Y-171704000D01*
X41656000Y-171704000D01*
X41656000Y-171876884D01*
X41660475Y-171892123D01*
X41661865Y-171893328D01*
X41669548Y-171894999D01*
X42396669Y-171894999D01*
X42403490Y-171894629D01*
X42454352Y-171889105D01*
X42469604Y-171885479D01*
X42590054Y-171840324D01*
X42605649Y-171831786D01*
X42707724Y-171755285D01*
X42722104Y-171740905D01*
X42784416Y-171706879D01*
X42811199Y-171704000D01*
X46229000Y-171704000D01*
X46297121Y-171724002D01*
X46343614Y-171777658D01*
X46355000Y-171830000D01*
X46355000Y-183809000D01*
X46334998Y-183877121D01*
X46281342Y-183923614D01*
X46229000Y-183935000D01*
X44745262Y-183935000D01*
X44677141Y-183914998D01*
X44640499Y-183879004D01*
X44630484Y-183864016D01*
X44546301Y-183807766D01*
X44472067Y-183793000D01*
X44172049Y-183793000D01*
X43871934Y-183793001D01*
X43836182Y-183800112D01*
X43809874Y-183805344D01*
X43809872Y-183805345D01*
X43797699Y-183807766D01*
X43787379Y-183814661D01*
X43787378Y-183814662D01*
X43726985Y-183855016D01*
X43713516Y-183864016D01*
X43657266Y-183948199D01*
X43642500Y-184022433D01*
X43642500Y-184097476D01*
X43622498Y-184165597D01*
X43607975Y-184184126D01*
X43557286Y-184237635D01*
X43467981Y-184391384D01*
X43416442Y-184561554D01*
X43405432Y-184739016D01*
X43406672Y-184746232D01*
X43406672Y-184746234D01*
X43413640Y-184786783D01*
X43435543Y-184914251D01*
X43505159Y-185077859D01*
X43609752Y-185219985D01*
X43610546Y-185221064D01*
X43610361Y-185221200D01*
X43640481Y-185281249D01*
X43642501Y-185303721D01*
X43642501Y-185372566D01*
X43657266Y-185446801D01*
X43713516Y-185530984D01*
X43797699Y-185587234D01*
X43871933Y-185602000D01*
X44171951Y-185602000D01*
X44472066Y-185601999D01*
X44507818Y-185594888D01*
X44534126Y-185589656D01*
X44534128Y-185589655D01*
X44546301Y-185587234D01*
X44556621Y-185580339D01*
X44556622Y-185580338D01*
X44620168Y-185537877D01*
X44630484Y-185530984D01*
X44640498Y-185515997D01*
X44694974Y-185470470D01*
X44745262Y-185460000D01*
X46229000Y-185460000D01*
X46297121Y-185480002D01*
X46343614Y-185533658D01*
X46355000Y-185586000D01*
X46355000Y-191135000D01*
X34797000Y-191135000D01*
X34728879Y-191114998D01*
X34682386Y-191061342D01*
X34671000Y-191009000D01*
X34671000Y-179309528D01*
X34691002Y-179241407D01*
X34744658Y-179194914D01*
X34814932Y-179184810D01*
X34879512Y-179214304D01*
X34886095Y-179220433D01*
X36022190Y-180356528D01*
X36034577Y-180370941D01*
X36047546Y-180388564D01*
X36053129Y-180393307D01*
X36088055Y-180422979D01*
X36095571Y-180429909D01*
X36101315Y-180435653D01*
X36104189Y-180437927D01*
X36104196Y-180437933D01*
X36123711Y-180453372D01*
X36127115Y-180456163D01*
X36177472Y-180498945D01*
X36177476Y-180498948D01*
X36183051Y-180503684D01*
X36189568Y-180507012D01*
X36194632Y-180510389D01*
X36199856Y-180513616D01*
X36205600Y-180518160D01*
X36272104Y-180549242D01*
X36276001Y-180551147D01*
X36341404Y-180584543D01*
X36348518Y-180586284D01*
X36354252Y-180588416D01*
X36360048Y-180590344D01*
X36366680Y-180593444D01*
X36438555Y-180608394D01*
X36442839Y-180609364D01*
X36514112Y-180626804D01*
X36519714Y-180627152D01*
X36519717Y-180627152D01*
X36525330Y-180627500D01*
X36525328Y-180627537D01*
X36529227Y-180627773D01*
X36533598Y-180628163D01*
X36540757Y-180629652D01*
X36618577Y-180627546D01*
X36621986Y-180627500D01*
X39967500Y-180627500D01*
X40035621Y-180647502D01*
X40082114Y-180701158D01*
X40093500Y-180753500D01*
X40093500Y-181412756D01*
X40100202Y-181474448D01*
X40150929Y-181609764D01*
X40156309Y-181616943D01*
X40156311Y-181616946D01*
X40222287Y-181704977D01*
X40237596Y-181725404D01*
X40244776Y-181730785D01*
X40353236Y-181812071D01*
X40352061Y-181813639D01*
X40394152Y-181855821D01*
X40409500Y-181916088D01*
X40409500Y-184742025D01*
X40424899Y-184874107D01*
X40427395Y-184880984D01*
X40427396Y-184880987D01*
X40460292Y-184971613D01*
X40485566Y-185041241D01*
X40583054Y-185189935D01*
X40603155Y-185208977D01*
X40638852Y-185270344D01*
X40642501Y-185300448D01*
X40642501Y-185372566D01*
X40657266Y-185446801D01*
X40713516Y-185530984D01*
X40797699Y-185587234D01*
X40871933Y-185602000D01*
X41171951Y-185602000D01*
X41472066Y-185601999D01*
X41507818Y-185594888D01*
X41534126Y-185589656D01*
X41534128Y-185589655D01*
X41546301Y-185587234D01*
X41556621Y-185580339D01*
X41556622Y-185580338D01*
X41620168Y-185537877D01*
X41630484Y-185530984D01*
X41686734Y-185446801D01*
X41701500Y-185372567D01*
X41701500Y-185298263D01*
X41721502Y-185230142D01*
X41731475Y-185216684D01*
X41805945Y-185129028D01*
X41805948Y-185129024D01*
X41810684Y-185123449D01*
X41891543Y-184965096D01*
X41933804Y-184792388D01*
X41934500Y-184781170D01*
X41934500Y-181881292D01*
X41954502Y-181813171D01*
X41984935Y-181780466D01*
X42051224Y-181730785D01*
X42058404Y-181725404D01*
X42073713Y-181704977D01*
X42139689Y-181616946D01*
X42139691Y-181616943D01*
X42145071Y-181609764D01*
X42195798Y-181474448D01*
X42202500Y-181412756D01*
X42202500Y-178317244D01*
X42195798Y-178255552D01*
X42145071Y-178120236D01*
X42139691Y-178113057D01*
X42139689Y-178113054D01*
X42063785Y-178011776D01*
X42058404Y-178004596D01*
X41959363Y-177930369D01*
X41949946Y-177923311D01*
X41949943Y-177923309D01*
X41942764Y-177917929D01*
X41853046Y-177884296D01*
X41814843Y-177869974D01*
X41814841Y-177869974D01*
X41807448Y-177867202D01*
X41799598Y-177866349D01*
X41799597Y-177866349D01*
X41749153Y-177860869D01*
X41749152Y-177860869D01*
X41745756Y-177860500D01*
X40550244Y-177860500D01*
X40546848Y-177860869D01*
X40546847Y-177860869D01*
X40496403Y-177866349D01*
X40496402Y-177866349D01*
X40488552Y-177867202D01*
X40481159Y-177869974D01*
X40481157Y-177869974D01*
X40442954Y-177884296D01*
X40353236Y-177917929D01*
X40346057Y-177923309D01*
X40346054Y-177923311D01*
X40336637Y-177930369D01*
X40237596Y-178004596D01*
X40232215Y-178011776D01*
X40156311Y-178113054D01*
X40156309Y-178113057D01*
X40150929Y-178120236D01*
X40100202Y-178255552D01*
X40093500Y-178317244D01*
X40093500Y-178976500D01*
X40073498Y-179044621D01*
X40019842Y-179091114D01*
X39967500Y-179102500D01*
X36977028Y-179102500D01*
X36908907Y-179082498D01*
X36887933Y-179065595D01*
X35597405Y-177775067D01*
X35563379Y-177712755D01*
X35560500Y-177685972D01*
X35560500Y-171830000D01*
X35580502Y-171761879D01*
X35634158Y-171715386D01*
X35686500Y-171704000D01*
X39992801Y-171704000D01*
X40060922Y-171724002D01*
G37*
G04 #@! TD.AperFunction*
G04 #@! TA.AperFunction,Conductor*
G36*
X107384121Y-123845002D02*
G01*
X107430614Y-123898658D01*
X107442000Y-123951000D01*
X107442000Y-183389000D01*
X107421998Y-183457121D01*
X107368342Y-183503614D01*
X107316000Y-183515000D01*
X105536000Y-183515000D01*
X105467879Y-183494998D01*
X105421386Y-183441342D01*
X105410000Y-183389000D01*
X105410000Y-123951000D01*
X105430002Y-123882879D01*
X105483658Y-123836386D01*
X105536000Y-123825000D01*
X107316000Y-123825000D01*
X107384121Y-123845002D01*
G37*
G04 #@! TD.AperFunction*
G04 #@! TA.AperFunction,Conductor*
G36*
X49598621Y-185821002D02*
G01*
X49645114Y-185874658D01*
X49656500Y-185927000D01*
X49656500Y-186110928D01*
X49655145Y-186123058D01*
X49655627Y-186123097D01*
X49654907Y-186132044D01*
X49652926Y-186140800D01*
X49653482Y-186149760D01*
X49656258Y-186194508D01*
X49656500Y-186202310D01*
X49656500Y-186218513D01*
X49657136Y-186222953D01*
X49657984Y-186228878D01*
X49659013Y-186238928D01*
X49661945Y-186286177D01*
X49664994Y-186294623D01*
X49665593Y-186297514D01*
X49669822Y-186314480D01*
X49670648Y-186317305D01*
X49671920Y-186326187D01*
X49691522Y-186369298D01*
X49695327Y-186378647D01*
X49711404Y-186423181D01*
X49716699Y-186430429D01*
X49718080Y-186433027D01*
X49726915Y-186448145D01*
X49728494Y-186450614D01*
X49732208Y-186458782D01*
X49738064Y-186465578D01*
X49763115Y-186494652D01*
X49769401Y-186502569D01*
X49774548Y-186509615D01*
X49774553Y-186509620D01*
X49777425Y-186513552D01*
X49788400Y-186524527D01*
X49794758Y-186531374D01*
X49827287Y-186569127D01*
X49834822Y-186574011D01*
X49841058Y-186579451D01*
X49852929Y-186589056D01*
X50384683Y-187120811D01*
X50392300Y-187130345D01*
X50392669Y-187130031D01*
X50398484Y-187136864D01*
X50403276Y-187144458D01*
X50443616Y-187180085D01*
X50449303Y-187185431D01*
X50460754Y-187196882D01*
X50469138Y-187203166D01*
X50476963Y-187209537D01*
X50512451Y-187240878D01*
X50520575Y-187244692D01*
X50523053Y-187246320D01*
X50538034Y-187255322D01*
X50540615Y-187256735D01*
X50547795Y-187262116D01*
X50592150Y-187278744D01*
X50601448Y-187282662D01*
X50644300Y-187302781D01*
X50653166Y-187304162D01*
X50655967Y-187305018D01*
X50672904Y-187309462D01*
X50675784Y-187310095D01*
X50684184Y-187313244D01*
X50693129Y-187313909D01*
X50693130Y-187313909D01*
X50731389Y-187316752D01*
X50741437Y-187317906D01*
X50746088Y-187318630D01*
X50754886Y-187320000D01*
X50770423Y-187320000D01*
X50779761Y-187320347D01*
X50820490Y-187323374D01*
X50820491Y-187323374D01*
X50829441Y-187324039D01*
X50838216Y-187322166D01*
X50846473Y-187321603D01*
X50861662Y-187320000D01*
X50960210Y-187320000D01*
X51028331Y-187340002D01*
X51074824Y-187393658D01*
X51084659Y-187426289D01*
X51088502Y-187450555D01*
X51146674Y-187564723D01*
X51237277Y-187655326D01*
X51351445Y-187713498D01*
X51446166Y-187728500D01*
X51809834Y-187728500D01*
X51904555Y-187713498D01*
X52018723Y-187655326D01*
X52109326Y-187564723D01*
X52167498Y-187450555D01*
X52171341Y-187426290D01*
X52201753Y-187362137D01*
X52262021Y-187324610D01*
X52295790Y-187320000D01*
X52860210Y-187320000D01*
X52928331Y-187340002D01*
X52974824Y-187393658D01*
X52984659Y-187426289D01*
X52988502Y-187450555D01*
X53046674Y-187564723D01*
X53137277Y-187655326D01*
X53251445Y-187713498D01*
X53346166Y-187728500D01*
X53709834Y-187728500D01*
X53804555Y-187713498D01*
X53918723Y-187655326D01*
X54009326Y-187564723D01*
X54067498Y-187450555D01*
X54082500Y-187355834D01*
X54082500Y-186267166D01*
X54072054Y-186201210D01*
X54081154Y-186130799D01*
X54126876Y-186076485D01*
X54196503Y-186055500D01*
X57913000Y-186055500D01*
X57981121Y-186075502D01*
X58027614Y-186129158D01*
X58039000Y-186181500D01*
X58039000Y-191009000D01*
X58018998Y-191077121D01*
X57965342Y-191123614D01*
X57913000Y-191135000D01*
X46101000Y-191135000D01*
X46101000Y-185801000D01*
X49530500Y-185801000D01*
X49598621Y-185821002D01*
G37*
G04 #@! TD.AperFunction*
M02*
