G04 #@! TF.GenerationSoftware,KiCad,Pcbnew,6.0.2+dfsg-1*
G04 #@! TF.CreationDate,2024-06-30T21:42:03-06:00*
G04 #@! TF.ProjectId,mss-cascade-basic,6d73732d-6361-4736-9361-64652d626173,rev?*
G04 #@! TF.SameCoordinates,Original*
G04 #@! TF.FileFunction,Soldermask,Top*
G04 #@! TF.FilePolarity,Negative*
%FSLAX46Y46*%
G04 Gerber Fmt 4.6, Leading zero omitted, Abs format (unit mm)*
G04 Created by KiCad (PCBNEW 6.0.2+dfsg-1) date 2024-06-30 21:42:03*
%MOMM*%
%LPD*%
G01*
G04 APERTURE LIST*
%ADD10C,6.552400*%
%ADD11C,2.652400*%
%ADD12C,2.452400*%
%ADD13C,3.352400*%
%ADD14C,1.652400*%
%ADD15C,1.143000*%
%ADD16C,0.939800*%
G04 APERTURE END LIST*
G36*
G01*
X66098000Y-184326800D02*
X66998000Y-184326800D01*
G75*
G02*
X67324200Y-184653000I0J-326200D01*
G01*
X67324200Y-185178000D01*
G75*
G02*
X66998000Y-185504200I-326200J0D01*
G01*
X66098000Y-185504200D01*
G75*
G02*
X65771800Y-185178000I0J326200D01*
G01*
X65771800Y-184653000D01*
G75*
G02*
X66098000Y-184326800I326200J0D01*
G01*
G37*
G36*
G01*
X66098000Y-186151800D02*
X66998000Y-186151800D01*
G75*
G02*
X67324200Y-186478000I0J-326200D01*
G01*
X67324200Y-187003000D01*
G75*
G02*
X66998000Y-187329200I-326200J0D01*
G01*
X66098000Y-187329200D01*
G75*
G02*
X65771800Y-187003000I0J326200D01*
G01*
X65771800Y-186478000D01*
G75*
G02*
X66098000Y-186151800I326200J0D01*
G01*
G37*
G36*
G01*
X93235200Y-141513000D02*
X93235200Y-142713000D01*
G75*
G02*
X93159000Y-142789200I-76200J0D01*
G01*
X92259000Y-142789200D01*
G75*
G02*
X92182800Y-142713000I0J76200D01*
G01*
X92182800Y-141513000D01*
G75*
G02*
X92259000Y-141436800I76200J0D01*
G01*
X93159000Y-141436800D01*
G75*
G02*
X93235200Y-141513000I0J-76200D01*
G01*
G37*
G36*
G01*
X89935200Y-141513000D02*
X89935200Y-142713000D01*
G75*
G02*
X89859000Y-142789200I-76200J0D01*
G01*
X88959000Y-142789200D01*
G75*
G02*
X88882800Y-142713000I0J76200D01*
G01*
X88882800Y-141513000D01*
G75*
G02*
X88959000Y-141436800I76200J0D01*
G01*
X89859000Y-141436800D01*
G75*
G02*
X89935200Y-141513000I0J-76200D01*
G01*
G37*
G36*
G01*
X88006864Y-149421000D02*
X88006864Y-148521000D01*
G75*
G02*
X88333064Y-148194800I326200J0D01*
G01*
X88858064Y-148194800D01*
G75*
G02*
X89184264Y-148521000I0J-326200D01*
G01*
X89184264Y-149421000D01*
G75*
G02*
X88858064Y-149747200I-326200J0D01*
G01*
X88333064Y-149747200D01*
G75*
G02*
X88006864Y-149421000I0J326200D01*
G01*
G37*
G36*
G01*
X89831864Y-149421000D02*
X89831864Y-148521000D01*
G75*
G02*
X90158064Y-148194800I326200J0D01*
G01*
X90683064Y-148194800D01*
G75*
G02*
X91009264Y-148521000I0J-326200D01*
G01*
X91009264Y-149421000D01*
G75*
G02*
X90683064Y-149747200I-326200J0D01*
G01*
X90158064Y-149747200D01*
G75*
G02*
X89831864Y-149421000I0J326200D01*
G01*
G37*
G36*
G01*
X88006864Y-158184000D02*
X88006864Y-157284000D01*
G75*
G02*
X88333064Y-156957800I326200J0D01*
G01*
X88858064Y-156957800D01*
G75*
G02*
X89184264Y-157284000I0J-326200D01*
G01*
X89184264Y-158184000D01*
G75*
G02*
X88858064Y-158510200I-326200J0D01*
G01*
X88333064Y-158510200D01*
G75*
G02*
X88006864Y-158184000I0J326200D01*
G01*
G37*
G36*
G01*
X89831864Y-158184000D02*
X89831864Y-157284000D01*
G75*
G02*
X90158064Y-156957800I326200J0D01*
G01*
X90683064Y-156957800D01*
G75*
G02*
X91009264Y-157284000I0J-326200D01*
G01*
X91009264Y-158184000D01*
G75*
G02*
X90683064Y-158510200I-326200J0D01*
G01*
X90158064Y-158510200D01*
G75*
G02*
X89831864Y-158184000I0J326200D01*
G01*
G37*
G36*
G01*
X39773800Y-127704000D02*
X39773800Y-126804000D01*
G75*
G02*
X40100000Y-126477800I326200J0D01*
G01*
X40625000Y-126477800D01*
G75*
G02*
X40951200Y-126804000I0J-326200D01*
G01*
X40951200Y-127704000D01*
G75*
G02*
X40625000Y-128030200I-326200J0D01*
G01*
X40100000Y-128030200D01*
G75*
G02*
X39773800Y-127704000I0J326200D01*
G01*
G37*
G36*
G01*
X41598800Y-127704000D02*
X41598800Y-126804000D01*
G75*
G02*
X41925000Y-126477800I326200J0D01*
G01*
X42450000Y-126477800D01*
G75*
G02*
X42776200Y-126804000I0J-326200D01*
G01*
X42776200Y-127704000D01*
G75*
G02*
X42450000Y-128030200I-326200J0D01*
G01*
X41925000Y-128030200D01*
G75*
G02*
X41598800Y-127704000I0J326200D01*
G01*
G37*
G36*
G01*
X88006864Y-152342000D02*
X88006864Y-151442000D01*
G75*
G02*
X88333064Y-151115800I326200J0D01*
G01*
X88858064Y-151115800D01*
G75*
G02*
X89184264Y-151442000I0J-326200D01*
G01*
X89184264Y-152342000D01*
G75*
G02*
X88858064Y-152668200I-326200J0D01*
G01*
X88333064Y-152668200D01*
G75*
G02*
X88006864Y-152342000I0J326200D01*
G01*
G37*
G36*
G01*
X89831864Y-152342000D02*
X89831864Y-151442000D01*
G75*
G02*
X90158064Y-151115800I326200J0D01*
G01*
X90683064Y-151115800D01*
G75*
G02*
X91009264Y-151442000I0J-326200D01*
G01*
X91009264Y-152342000D01*
G75*
G02*
X90683064Y-152668200I-326200J0D01*
G01*
X90158064Y-152668200D01*
G75*
G02*
X89831864Y-152342000I0J326200D01*
G01*
G37*
G36*
G01*
X41698000Y-181691200D02*
X40598000Y-181691200D01*
G75*
G02*
X40271800Y-181365000I0J326200D01*
G01*
X40271800Y-178365000D01*
G75*
G02*
X40598000Y-178038800I326200J0D01*
G01*
X41698000Y-178038800D01*
G75*
G02*
X42024200Y-178365000I0J-326200D01*
G01*
X42024200Y-181365000D01*
G75*
G02*
X41698000Y-181691200I-326200J0D01*
G01*
G37*
G36*
G01*
X41698000Y-176291200D02*
X40598000Y-176291200D01*
G75*
G02*
X40271800Y-175965000I0J326200D01*
G01*
X40271800Y-172965000D01*
G75*
G02*
X40598000Y-172638800I326200J0D01*
G01*
X41698000Y-172638800D01*
G75*
G02*
X42024200Y-172965000I0J-326200D01*
G01*
X42024200Y-175965000D01*
G75*
G02*
X41698000Y-176291200I-326200J0D01*
G01*
G37*
G36*
G01*
X103273000Y-155546200D02*
X102023000Y-155546200D01*
G75*
G02*
X101796800Y-155320000I0J226200D01*
G01*
X101796800Y-155020000D01*
G75*
G02*
X102023000Y-154793800I226200J0D01*
G01*
X103273000Y-154793800D01*
G75*
G02*
X103499200Y-155020000I0J-226200D01*
G01*
X103499200Y-155320000D01*
G75*
G02*
X103273000Y-155546200I-226200J0D01*
G01*
G37*
G36*
G01*
X103273000Y-154546200D02*
X102023000Y-154546200D01*
G75*
G02*
X101796800Y-154320000I0J226200D01*
G01*
X101796800Y-154020000D01*
G75*
G02*
X102023000Y-153793800I226200J0D01*
G01*
X103273000Y-153793800D01*
G75*
G02*
X103499200Y-154020000I0J-226200D01*
G01*
X103499200Y-154320000D01*
G75*
G02*
X103273000Y-154546200I-226200J0D01*
G01*
G37*
G36*
G01*
X103273000Y-153546200D02*
X102023000Y-153546200D01*
G75*
G02*
X101796800Y-153320000I0J226200D01*
G01*
X101796800Y-153020000D01*
G75*
G02*
X102023000Y-152793800I226200J0D01*
G01*
X103273000Y-152793800D01*
G75*
G02*
X103499200Y-153020000I0J-226200D01*
G01*
X103499200Y-153320000D01*
G75*
G02*
X103273000Y-153546200I-226200J0D01*
G01*
G37*
G36*
G01*
X103273000Y-152546200D02*
X102023000Y-152546200D01*
G75*
G02*
X101796800Y-152320000I0J226200D01*
G01*
X101796800Y-152020000D01*
G75*
G02*
X102023000Y-151793800I226200J0D01*
G01*
X103273000Y-151793800D01*
G75*
G02*
X103499200Y-152020000I0J-226200D01*
G01*
X103499200Y-152320000D01*
G75*
G02*
X103273000Y-152546200I-226200J0D01*
G01*
G37*
G36*
G01*
X107173000Y-151546200D02*
X105873000Y-151546200D01*
G75*
G02*
X105546800Y-151220000I0J326200D01*
G01*
X105546800Y-150520000D01*
G75*
G02*
X105873000Y-150193800I326200J0D01*
G01*
X107173000Y-150193800D01*
G75*
G02*
X107499200Y-150520000I0J-326200D01*
G01*
X107499200Y-151220000D01*
G75*
G02*
X107173000Y-151546200I-326200J0D01*
G01*
G37*
G36*
G01*
X107173000Y-157146200D02*
X105873000Y-157146200D01*
G75*
G02*
X105546800Y-156820000I0J326200D01*
G01*
X105546800Y-156120000D01*
G75*
G02*
X105873000Y-155793800I326200J0D01*
G01*
X107173000Y-155793800D01*
G75*
G02*
X107499200Y-156120000I0J-326200D01*
G01*
X107499200Y-156820000D01*
G75*
G02*
X107173000Y-157146200I-326200J0D01*
G01*
G37*
D10*
X103632000Y-187452000D03*
G36*
G01*
X60267000Y-136375200D02*
X59367000Y-136375200D01*
G75*
G02*
X59040800Y-136049000I0J326200D01*
G01*
X59040800Y-135524000D01*
G75*
G02*
X59367000Y-135197800I326200J0D01*
G01*
X60267000Y-135197800D01*
G75*
G02*
X60593200Y-135524000I0J-326200D01*
G01*
X60593200Y-136049000D01*
G75*
G02*
X60267000Y-136375200I-326200J0D01*
G01*
G37*
G36*
G01*
X60267000Y-134550200D02*
X59367000Y-134550200D01*
G75*
G02*
X59040800Y-134224000I0J326200D01*
G01*
X59040800Y-133699000D01*
G75*
G02*
X59367000Y-133372800I326200J0D01*
G01*
X60267000Y-133372800D01*
G75*
G02*
X60593200Y-133699000I0J-326200D01*
G01*
X60593200Y-134224000D01*
G75*
G02*
X60267000Y-134550200I-326200J0D01*
G01*
G37*
G36*
G01*
X61490800Y-184119000D02*
X61490800Y-183219000D01*
G75*
G02*
X61817000Y-182892800I326200J0D01*
G01*
X62342000Y-182892800D01*
G75*
G02*
X62668200Y-183219000I0J-326200D01*
G01*
X62668200Y-184119000D01*
G75*
G02*
X62342000Y-184445200I-326200J0D01*
G01*
X61817000Y-184445200D01*
G75*
G02*
X61490800Y-184119000I0J326200D01*
G01*
G37*
G36*
G01*
X63315800Y-184119000D02*
X63315800Y-183219000D01*
G75*
G02*
X63642000Y-182892800I326200J0D01*
G01*
X64167000Y-182892800D01*
G75*
G02*
X64493200Y-183219000I0J-326200D01*
G01*
X64493200Y-184119000D01*
G75*
G02*
X64167000Y-184445200I-326200J0D01*
G01*
X63642000Y-184445200D01*
G75*
G02*
X63315800Y-184119000I0J326200D01*
G01*
G37*
G36*
G01*
X84965200Y-157259000D02*
X84965200Y-158209000D01*
G75*
G02*
X84639000Y-158535200I-326200J0D01*
G01*
X84139000Y-158535200D01*
G75*
G02*
X83812800Y-158209000I0J326200D01*
G01*
X83812800Y-157259000D01*
G75*
G02*
X84139000Y-156932800I326200J0D01*
G01*
X84639000Y-156932800D01*
G75*
G02*
X84965200Y-157259000I0J-326200D01*
G01*
G37*
G36*
G01*
X83065200Y-157259000D02*
X83065200Y-158209000D01*
G75*
G02*
X82739000Y-158535200I-326200J0D01*
G01*
X82239000Y-158535200D01*
G75*
G02*
X81912800Y-158209000I0J326200D01*
G01*
X81912800Y-157259000D01*
G75*
G02*
X82239000Y-156932800I326200J0D01*
G01*
X82739000Y-156932800D01*
G75*
G02*
X83065200Y-157259000I0J-326200D01*
G01*
G37*
G36*
G01*
X74549700Y-184335000D02*
X74549700Y-185235000D01*
G75*
G02*
X74223500Y-185561200I-326200J0D01*
G01*
X73698500Y-185561200D01*
G75*
G02*
X73372300Y-185235000I0J326200D01*
G01*
X73372300Y-184335000D01*
G75*
G02*
X73698500Y-184008800I326200J0D01*
G01*
X74223500Y-184008800D01*
G75*
G02*
X74549700Y-184335000I0J-326200D01*
G01*
G37*
G36*
G01*
X72724700Y-184335000D02*
X72724700Y-185235000D01*
G75*
G02*
X72398500Y-185561200I-326200J0D01*
G01*
X71873500Y-185561200D01*
G75*
G02*
X71547300Y-185235000I0J326200D01*
G01*
X71547300Y-184335000D01*
G75*
G02*
X71873500Y-184008800I326200J0D01*
G01*
X72398500Y-184008800D01*
G75*
G02*
X72724700Y-184335000I0J-326200D01*
G01*
G37*
G36*
X47777980Y-133430627D02*
G01*
X47804042Y-133475768D01*
X47805200Y-133489000D01*
X47805200Y-134989000D01*
X47787373Y-135037980D01*
X47742232Y-135064042D01*
X47729000Y-135065200D01*
X47229000Y-135065200D01*
X47214666Y-135059983D01*
X47147663Y-135058755D01*
X47126336Y-135055301D01*
X46991021Y-135013026D01*
X46971520Y-135003725D01*
X46853510Y-134925170D01*
X46837404Y-134910769D01*
X46746184Y-134802250D01*
X46734767Y-134783908D01*
X46677672Y-134654149D01*
X46671862Y-134633340D01*
X46654940Y-134503932D01*
X46653958Y-134502232D01*
X46652800Y-134489000D01*
X46652800Y-133989000D01*
X46653552Y-133986934D01*
X46653744Y-133971167D01*
X46675555Y-133831090D01*
X46681872Y-133810430D01*
X46742120Y-133682105D01*
X46753982Y-133664047D01*
X46847826Y-133557789D01*
X46864279Y-133543787D01*
X46984174Y-133468139D01*
X47003895Y-133459317D01*
X47140202Y-133420360D01*
X47161608Y-133417427D01*
X47209255Y-133417718D01*
X47215768Y-133413958D01*
X47229000Y-133412800D01*
X47729000Y-133412800D01*
X47777980Y-133430627D01*
G37*
G36*
X48543081Y-133417925D02*
G01*
X48603370Y-133418293D01*
X48624738Y-133421487D01*
X48760559Y-133462106D01*
X48780172Y-133471168D01*
X48899134Y-133548275D01*
X48915415Y-133562478D01*
X49007953Y-133669875D01*
X49019592Y-133688076D01*
X49078269Y-133817128D01*
X49084333Y-133837865D01*
X49104430Y-133978198D01*
X49105200Y-133989000D01*
X49105200Y-134489000D01*
X49105194Y-134489929D01*
X49105045Y-134502145D01*
X49103995Y-134513858D01*
X49080475Y-134653659D01*
X49073906Y-134674242D01*
X49012094Y-134801821D01*
X49000013Y-134819732D01*
X48904878Y-134924836D01*
X48888255Y-134938637D01*
X48767445Y-135012814D01*
X48747617Y-135021394D01*
X48610844Y-135058683D01*
X48589404Y-135061353D01*
X48548198Y-135060598D01*
X48542232Y-135064042D01*
X48529000Y-135065200D01*
X48029000Y-135065200D01*
X47980020Y-135047373D01*
X47953958Y-135002232D01*
X47952800Y-134989000D01*
X47952800Y-133489000D01*
X47970627Y-133440020D01*
X48015768Y-133413958D01*
X48029000Y-133412800D01*
X48529000Y-133412800D01*
X48543081Y-133417925D01*
G37*
G36*
G01*
X51920200Y-168587000D02*
X51920200Y-169487000D01*
G75*
G02*
X51594000Y-169813200I-326200J0D01*
G01*
X51069000Y-169813200D01*
G75*
G02*
X50742800Y-169487000I0J326200D01*
G01*
X50742800Y-168587000D01*
G75*
G02*
X51069000Y-168260800I326200J0D01*
G01*
X51594000Y-168260800D01*
G75*
G02*
X51920200Y-168587000I0J-326200D01*
G01*
G37*
G36*
G01*
X50095200Y-168587000D02*
X50095200Y-169487000D01*
G75*
G02*
X49769000Y-169813200I-326200J0D01*
G01*
X49244000Y-169813200D01*
G75*
G02*
X48917800Y-169487000I0J326200D01*
G01*
X48917800Y-168587000D01*
G75*
G02*
X49244000Y-168260800I326200J0D01*
G01*
X49769000Y-168260800D01*
G75*
G02*
X50095200Y-168587000I0J-326200D01*
G01*
G37*
G36*
G01*
X47150000Y-184147800D02*
X48100000Y-184147800D01*
G75*
G02*
X48426200Y-184474000I0J-326200D01*
G01*
X48426200Y-184974000D01*
G75*
G02*
X48100000Y-185300200I-326200J0D01*
G01*
X47150000Y-185300200D01*
G75*
G02*
X46823800Y-184974000I0J326200D01*
G01*
X46823800Y-184474000D01*
G75*
G02*
X47150000Y-184147800I326200J0D01*
G01*
G37*
G36*
G01*
X47150000Y-186047800D02*
X48100000Y-186047800D01*
G75*
G02*
X48426200Y-186374000I0J-326200D01*
G01*
X48426200Y-186874000D01*
G75*
G02*
X48100000Y-187200200I-326200J0D01*
G01*
X47150000Y-187200200D01*
G75*
G02*
X46823800Y-186874000I0J326200D01*
G01*
X46823800Y-186374000D01*
G75*
G02*
X47150000Y-186047800I326200J0D01*
G01*
G37*
G36*
G01*
X87097800Y-170572000D02*
X87097800Y-168772000D01*
G75*
G02*
X87174000Y-168695800I76200J0D01*
G01*
X89674000Y-168695800D01*
G75*
G02*
X89750200Y-168772000I0J-76200D01*
G01*
X89750200Y-170572000D01*
G75*
G02*
X89674000Y-170648200I-76200J0D01*
G01*
X87174000Y-170648200D01*
G75*
G02*
X87097800Y-170572000I0J76200D01*
G01*
G37*
G36*
G01*
X91097800Y-170572000D02*
X91097800Y-168772000D01*
G75*
G02*
X91174000Y-168695800I76200J0D01*
G01*
X93674000Y-168695800D01*
G75*
G02*
X93750200Y-168772000I0J-76200D01*
G01*
X93750200Y-170572000D01*
G75*
G02*
X93674000Y-170648200I-76200J0D01*
G01*
X91174000Y-170648200D01*
G75*
G02*
X91097800Y-170572000I0J76200D01*
G01*
G37*
G36*
X72491020Y-126157373D02*
G01*
X72464958Y-126112232D01*
X72463800Y-126099000D01*
X72463800Y-124599000D01*
X72481627Y-124550020D01*
X72526768Y-124523958D01*
X72540000Y-124522800D01*
X73040000Y-124522800D01*
X73054334Y-124528017D01*
X73121337Y-124529245D01*
X73142664Y-124532699D01*
X73277979Y-124574974D01*
X73297480Y-124584275D01*
X73415490Y-124662830D01*
X73431596Y-124677231D01*
X73522816Y-124785750D01*
X73534233Y-124804092D01*
X73591328Y-124933851D01*
X73597138Y-124954660D01*
X73614060Y-125084068D01*
X73615042Y-125085768D01*
X73616200Y-125099000D01*
X73616200Y-125599000D01*
X73615448Y-125601066D01*
X73615256Y-125616833D01*
X73593445Y-125756910D01*
X73587128Y-125777570D01*
X73526880Y-125905895D01*
X73515018Y-125923953D01*
X73421174Y-126030211D01*
X73404721Y-126044213D01*
X73284826Y-126119861D01*
X73265105Y-126128683D01*
X73128798Y-126167640D01*
X73107392Y-126170573D01*
X73059745Y-126170282D01*
X73053232Y-126174042D01*
X73040000Y-126175200D01*
X72540000Y-126175200D01*
X72491020Y-126157373D01*
G37*
G36*
X71725919Y-126170075D02*
G01*
X71665630Y-126169707D01*
X71644262Y-126166513D01*
X71508441Y-126125894D01*
X71488828Y-126116832D01*
X71369866Y-126039725D01*
X71353585Y-126025522D01*
X71261047Y-125918125D01*
X71249408Y-125899924D01*
X71190731Y-125770872D01*
X71184667Y-125750135D01*
X71164570Y-125609802D01*
X71163800Y-125599000D01*
X71163800Y-125099000D01*
X71163806Y-125098071D01*
X71163955Y-125085855D01*
X71165005Y-125074142D01*
X71188525Y-124934341D01*
X71195094Y-124913758D01*
X71256906Y-124786179D01*
X71268987Y-124768268D01*
X71364122Y-124663164D01*
X71380745Y-124649363D01*
X71501555Y-124575186D01*
X71521383Y-124566606D01*
X71658156Y-124529317D01*
X71679596Y-124526647D01*
X71720802Y-124527402D01*
X71726768Y-124523958D01*
X71740000Y-124522800D01*
X72240000Y-124522800D01*
X72288980Y-124540627D01*
X72315042Y-124585768D01*
X72316200Y-124599000D01*
X72316200Y-126099000D01*
X72298373Y-126147980D01*
X72253232Y-126174042D01*
X72240000Y-126175200D01*
X71740000Y-126175200D01*
X71725919Y-126170075D01*
G37*
G36*
G01*
X39773800Y-153104000D02*
X39773800Y-152204000D01*
G75*
G02*
X40100000Y-151877800I326200J0D01*
G01*
X40625000Y-151877800D01*
G75*
G02*
X40951200Y-152204000I0J-326200D01*
G01*
X40951200Y-153104000D01*
G75*
G02*
X40625000Y-153430200I-326200J0D01*
G01*
X40100000Y-153430200D01*
G75*
G02*
X39773800Y-153104000I0J326200D01*
G01*
G37*
G36*
G01*
X41598800Y-153104000D02*
X41598800Y-152204000D01*
G75*
G02*
X41925000Y-151877800I326200J0D01*
G01*
X42450000Y-151877800D01*
G75*
G02*
X42776200Y-152204000I0J-326200D01*
G01*
X42776200Y-153104000D01*
G75*
G02*
X42450000Y-153430200I-326200J0D01*
G01*
X41925000Y-153430200D01*
G75*
G02*
X41598800Y-153104000I0J326200D01*
G01*
G37*
X103632000Y-119888000D03*
G36*
G01*
X48953000Y-162455800D02*
X49853000Y-162455800D01*
G75*
G02*
X50179200Y-162782000I0J-326200D01*
G01*
X50179200Y-163307000D01*
G75*
G02*
X49853000Y-163633200I-326200J0D01*
G01*
X48953000Y-163633200D01*
G75*
G02*
X48626800Y-163307000I0J326200D01*
G01*
X48626800Y-162782000D01*
G75*
G02*
X48953000Y-162455800I326200J0D01*
G01*
G37*
G36*
G01*
X48953000Y-164280800D02*
X49853000Y-164280800D01*
G75*
G02*
X50179200Y-164607000I0J-326200D01*
G01*
X50179200Y-165132000D01*
G75*
G02*
X49853000Y-165458200I-326200J0D01*
G01*
X48953000Y-165458200D01*
G75*
G02*
X48626800Y-165132000I0J326200D01*
G01*
X48626800Y-164607000D01*
G75*
G02*
X48953000Y-164280800I326200J0D01*
G01*
G37*
G36*
X47777980Y-151845627D02*
G01*
X47804042Y-151890768D01*
X47805200Y-151904000D01*
X47805200Y-153404000D01*
X47787373Y-153452980D01*
X47742232Y-153479042D01*
X47729000Y-153480200D01*
X47229000Y-153480200D01*
X47214666Y-153474983D01*
X47147663Y-153473755D01*
X47126336Y-153470301D01*
X46991021Y-153428026D01*
X46971520Y-153418725D01*
X46853510Y-153340170D01*
X46837404Y-153325769D01*
X46746184Y-153217250D01*
X46734767Y-153198908D01*
X46677672Y-153069149D01*
X46671862Y-153048340D01*
X46654940Y-152918932D01*
X46653958Y-152917232D01*
X46652800Y-152904000D01*
X46652800Y-152404000D01*
X46653552Y-152401934D01*
X46653744Y-152386167D01*
X46675555Y-152246090D01*
X46681872Y-152225430D01*
X46742120Y-152097105D01*
X46753982Y-152079047D01*
X46847826Y-151972789D01*
X46864279Y-151958787D01*
X46984174Y-151883139D01*
X47003895Y-151874317D01*
X47140202Y-151835360D01*
X47161608Y-151832427D01*
X47209255Y-151832718D01*
X47215768Y-151828958D01*
X47229000Y-151827800D01*
X47729000Y-151827800D01*
X47777980Y-151845627D01*
G37*
G36*
X48543081Y-151832925D02*
G01*
X48603370Y-151833293D01*
X48624738Y-151836487D01*
X48760559Y-151877106D01*
X48780172Y-151886168D01*
X48899134Y-151963275D01*
X48915415Y-151977478D01*
X49007953Y-152084875D01*
X49019592Y-152103076D01*
X49078269Y-152232128D01*
X49084333Y-152252865D01*
X49104430Y-152393198D01*
X49105200Y-152404000D01*
X49105200Y-152904000D01*
X49105194Y-152904929D01*
X49105045Y-152917145D01*
X49103995Y-152928858D01*
X49080475Y-153068659D01*
X49073906Y-153089242D01*
X49012094Y-153216821D01*
X49000013Y-153234732D01*
X48904878Y-153339836D01*
X48888255Y-153353637D01*
X48767445Y-153427814D01*
X48747617Y-153436394D01*
X48610844Y-153473683D01*
X48589404Y-153476353D01*
X48548198Y-153475598D01*
X48542232Y-153479042D01*
X48529000Y-153480200D01*
X48029000Y-153480200D01*
X47980020Y-153462373D01*
X47953958Y-153417232D01*
X47952800Y-153404000D01*
X47952800Y-151904000D01*
X47970627Y-151855020D01*
X48015768Y-151828958D01*
X48029000Y-151827800D01*
X48529000Y-151827800D01*
X48543081Y-151832925D01*
G37*
G36*
G01*
X39773800Y-156524000D02*
X39773800Y-155624000D01*
G75*
G02*
X40100000Y-155297800I326200J0D01*
G01*
X40625000Y-155297800D01*
G75*
G02*
X40951200Y-155624000I0J-326200D01*
G01*
X40951200Y-156524000D01*
G75*
G02*
X40625000Y-156850200I-326200J0D01*
G01*
X40100000Y-156850200D01*
G75*
G02*
X39773800Y-156524000I0J326200D01*
G01*
G37*
G36*
G01*
X41598800Y-156524000D02*
X41598800Y-155624000D01*
G75*
G02*
X41925000Y-155297800I326200J0D01*
G01*
X42450000Y-155297800D01*
G75*
G02*
X42776200Y-155624000I0J-326200D01*
G01*
X42776200Y-156524000D01*
G75*
G02*
X42450000Y-156850200I-326200J0D01*
G01*
X41925000Y-156850200D01*
G75*
G02*
X41598800Y-156524000I0J326200D01*
G01*
G37*
G36*
G01*
X84965200Y-154338000D02*
X84965200Y-155288000D01*
G75*
G02*
X84639000Y-155614200I-326200J0D01*
G01*
X84139000Y-155614200D01*
G75*
G02*
X83812800Y-155288000I0J326200D01*
G01*
X83812800Y-154338000D01*
G75*
G02*
X84139000Y-154011800I326200J0D01*
G01*
X84639000Y-154011800D01*
G75*
G02*
X84965200Y-154338000I0J-326200D01*
G01*
G37*
G36*
G01*
X83065200Y-154338000D02*
X83065200Y-155288000D01*
G75*
G02*
X82739000Y-155614200I-326200J0D01*
G01*
X82239000Y-155614200D01*
G75*
G02*
X81912800Y-155288000I0J326200D01*
G01*
X81912800Y-154338000D01*
G75*
G02*
X82239000Y-154011800I326200J0D01*
G01*
X82739000Y-154011800D01*
G75*
G02*
X83065200Y-154338000I0J-326200D01*
G01*
G37*
G36*
G01*
X57346000Y-136375200D02*
X56446000Y-136375200D01*
G75*
G02*
X56119800Y-136049000I0J326200D01*
G01*
X56119800Y-135524000D01*
G75*
G02*
X56446000Y-135197800I326200J0D01*
G01*
X57346000Y-135197800D01*
G75*
G02*
X57672200Y-135524000I0J-326200D01*
G01*
X57672200Y-136049000D01*
G75*
G02*
X57346000Y-136375200I-326200J0D01*
G01*
G37*
G36*
G01*
X57346000Y-134550200D02*
X56446000Y-134550200D01*
G75*
G02*
X56119800Y-134224000I0J326200D01*
G01*
X56119800Y-133699000D01*
G75*
G02*
X56446000Y-133372800I326200J0D01*
G01*
X57346000Y-133372800D01*
G75*
G02*
X57672200Y-133699000I0J-326200D01*
G01*
X57672200Y-134224000D01*
G75*
G02*
X57346000Y-134550200I-326200J0D01*
G01*
G37*
G36*
G01*
X31089000Y-173973800D02*
X33589000Y-173973800D01*
G75*
G02*
X33665200Y-174050000I0J-76200D01*
G01*
X33665200Y-176550000D01*
G75*
G02*
X33589000Y-176626200I-76200J0D01*
G01*
X31089000Y-176626200D01*
G75*
G02*
X31012800Y-176550000I0J76200D01*
G01*
X31012800Y-174050000D01*
G75*
G02*
X31089000Y-173973800I76200J0D01*
G01*
G37*
D11*
X32339000Y-180300000D03*
G36*
G01*
X84965200Y-151417000D02*
X84965200Y-152367000D01*
G75*
G02*
X84639000Y-152693200I-326200J0D01*
G01*
X84139000Y-152693200D01*
G75*
G02*
X83812800Y-152367000I0J326200D01*
G01*
X83812800Y-151417000D01*
G75*
G02*
X84139000Y-151090800I326200J0D01*
G01*
X84639000Y-151090800D01*
G75*
G02*
X84965200Y-151417000I0J-326200D01*
G01*
G37*
G36*
G01*
X83065200Y-151417000D02*
X83065200Y-152367000D01*
G75*
G02*
X82739000Y-152693200I-326200J0D01*
G01*
X82239000Y-152693200D01*
G75*
G02*
X81912800Y-152367000I0J326200D01*
G01*
X81912800Y-151417000D01*
G75*
G02*
X82239000Y-151090800I326200J0D01*
G01*
X82739000Y-151090800D01*
G75*
G02*
X83065200Y-151417000I0J-326200D01*
G01*
G37*
G36*
G01*
X30546000Y-166483800D02*
X32446000Y-166483800D01*
G75*
G02*
X32522200Y-166560000I0J-76200D01*
G01*
X32522200Y-167960000D01*
G75*
G02*
X32446000Y-168036200I-76200J0D01*
G01*
X30546000Y-168036200D01*
G75*
G02*
X30469800Y-167960000I0J76200D01*
G01*
X30469800Y-166560000D01*
G75*
G02*
X30546000Y-166483800I76200J0D01*
G01*
G37*
G36*
G01*
X30546000Y-169783800D02*
X32446000Y-169783800D01*
G75*
G02*
X32522200Y-169860000I0J-76200D01*
G01*
X32522200Y-171260000D01*
G75*
G02*
X32446000Y-171336200I-76200J0D01*
G01*
X30546000Y-171336200D01*
G75*
G02*
X30469800Y-171260000I0J76200D01*
G01*
X30469800Y-169860000D01*
G75*
G02*
X30546000Y-169783800I76200J0D01*
G01*
G37*
G36*
X47777980Y-158830627D02*
G01*
X47804042Y-158875768D01*
X47805200Y-158889000D01*
X47805200Y-160389000D01*
X47787373Y-160437980D01*
X47742232Y-160464042D01*
X47729000Y-160465200D01*
X47229000Y-160465200D01*
X47214666Y-160459983D01*
X47147663Y-160458755D01*
X47126336Y-160455301D01*
X46991021Y-160413026D01*
X46971520Y-160403725D01*
X46853510Y-160325170D01*
X46837404Y-160310769D01*
X46746184Y-160202250D01*
X46734767Y-160183908D01*
X46677672Y-160054149D01*
X46671862Y-160033340D01*
X46654940Y-159903932D01*
X46653958Y-159902232D01*
X46652800Y-159889000D01*
X46652800Y-159389000D01*
X46653552Y-159386934D01*
X46653744Y-159371167D01*
X46675555Y-159231090D01*
X46681872Y-159210430D01*
X46742120Y-159082105D01*
X46753982Y-159064047D01*
X46847826Y-158957789D01*
X46864279Y-158943787D01*
X46984174Y-158868139D01*
X47003895Y-158859317D01*
X47140202Y-158820360D01*
X47161608Y-158817427D01*
X47209255Y-158817718D01*
X47215768Y-158813958D01*
X47229000Y-158812800D01*
X47729000Y-158812800D01*
X47777980Y-158830627D01*
G37*
G36*
X48543081Y-158817925D02*
G01*
X48603370Y-158818293D01*
X48624738Y-158821487D01*
X48760559Y-158862106D01*
X48780172Y-158871168D01*
X48899134Y-158948275D01*
X48915415Y-158962478D01*
X49007953Y-159069875D01*
X49019592Y-159088076D01*
X49078269Y-159217128D01*
X49084333Y-159237865D01*
X49104430Y-159378198D01*
X49105200Y-159389000D01*
X49105200Y-159889000D01*
X49105194Y-159889929D01*
X49105045Y-159902145D01*
X49103995Y-159913858D01*
X49080475Y-160053659D01*
X49073906Y-160074242D01*
X49012094Y-160201821D01*
X49000013Y-160219732D01*
X48904878Y-160324836D01*
X48888255Y-160338637D01*
X48767445Y-160412814D01*
X48747617Y-160421394D01*
X48610844Y-160458683D01*
X48589404Y-160461353D01*
X48548198Y-160460598D01*
X48542232Y-160464042D01*
X48529000Y-160465200D01*
X48029000Y-160465200D01*
X47980020Y-160447373D01*
X47953958Y-160402232D01*
X47952800Y-160389000D01*
X47952800Y-158889000D01*
X47970627Y-158840020D01*
X48015768Y-158813958D01*
X48029000Y-158812800D01*
X48529000Y-158812800D01*
X48543081Y-158817925D01*
G37*
G36*
G01*
X70006800Y-151280000D02*
X70006800Y-150980000D01*
G75*
G02*
X70233000Y-150753800I226200J0D01*
G01*
X71683000Y-150753800D01*
G75*
G02*
X71909200Y-150980000I0J-226200D01*
G01*
X71909200Y-151280000D01*
G75*
G02*
X71683000Y-151506200I-226200J0D01*
G01*
X70233000Y-151506200D01*
G75*
G02*
X70006800Y-151280000I0J226200D01*
G01*
G37*
G36*
G01*
X70006800Y-152550000D02*
X70006800Y-152250000D01*
G75*
G02*
X70233000Y-152023800I226200J0D01*
G01*
X71683000Y-152023800D01*
G75*
G02*
X71909200Y-152250000I0J-226200D01*
G01*
X71909200Y-152550000D01*
G75*
G02*
X71683000Y-152776200I-226200J0D01*
G01*
X70233000Y-152776200D01*
G75*
G02*
X70006800Y-152550000I0J226200D01*
G01*
G37*
G36*
G01*
X70006800Y-153820000D02*
X70006800Y-153520000D01*
G75*
G02*
X70233000Y-153293800I226200J0D01*
G01*
X71683000Y-153293800D01*
G75*
G02*
X71909200Y-153520000I0J-226200D01*
G01*
X71909200Y-153820000D01*
G75*
G02*
X71683000Y-154046200I-226200J0D01*
G01*
X70233000Y-154046200D01*
G75*
G02*
X70006800Y-153820000I0J226200D01*
G01*
G37*
G36*
G01*
X70006800Y-155090000D02*
X70006800Y-154790000D01*
G75*
G02*
X70233000Y-154563800I226200J0D01*
G01*
X71683000Y-154563800D01*
G75*
G02*
X71909200Y-154790000I0J-226200D01*
G01*
X71909200Y-155090000D01*
G75*
G02*
X71683000Y-155316200I-226200J0D01*
G01*
X70233000Y-155316200D01*
G75*
G02*
X70006800Y-155090000I0J226200D01*
G01*
G37*
G36*
G01*
X70006800Y-156360000D02*
X70006800Y-156060000D01*
G75*
G02*
X70233000Y-155833800I226200J0D01*
G01*
X71683000Y-155833800D01*
G75*
G02*
X71909200Y-156060000I0J-226200D01*
G01*
X71909200Y-156360000D01*
G75*
G02*
X71683000Y-156586200I-226200J0D01*
G01*
X70233000Y-156586200D01*
G75*
G02*
X70006800Y-156360000I0J226200D01*
G01*
G37*
G36*
G01*
X70006800Y-157630000D02*
X70006800Y-157330000D01*
G75*
G02*
X70233000Y-157103800I226200J0D01*
G01*
X71683000Y-157103800D01*
G75*
G02*
X71909200Y-157330000I0J-226200D01*
G01*
X71909200Y-157630000D01*
G75*
G02*
X71683000Y-157856200I-226200J0D01*
G01*
X70233000Y-157856200D01*
G75*
G02*
X70006800Y-157630000I0J226200D01*
G01*
G37*
G36*
G01*
X70006800Y-158900000D02*
X70006800Y-158600000D01*
G75*
G02*
X70233000Y-158373800I226200J0D01*
G01*
X71683000Y-158373800D01*
G75*
G02*
X71909200Y-158600000I0J-226200D01*
G01*
X71909200Y-158900000D01*
G75*
G02*
X71683000Y-159126200I-226200J0D01*
G01*
X70233000Y-159126200D01*
G75*
G02*
X70006800Y-158900000I0J226200D01*
G01*
G37*
G36*
G01*
X70006800Y-160170000D02*
X70006800Y-159870000D01*
G75*
G02*
X70233000Y-159643800I226200J0D01*
G01*
X71683000Y-159643800D01*
G75*
G02*
X71909200Y-159870000I0J-226200D01*
G01*
X71909200Y-160170000D01*
G75*
G02*
X71683000Y-160396200I-226200J0D01*
G01*
X70233000Y-160396200D01*
G75*
G02*
X70006800Y-160170000I0J226200D01*
G01*
G37*
G36*
G01*
X75156800Y-160170000D02*
X75156800Y-159870000D01*
G75*
G02*
X75383000Y-159643800I226200J0D01*
G01*
X76833000Y-159643800D01*
G75*
G02*
X77059200Y-159870000I0J-226200D01*
G01*
X77059200Y-160170000D01*
G75*
G02*
X76833000Y-160396200I-226200J0D01*
G01*
X75383000Y-160396200D01*
G75*
G02*
X75156800Y-160170000I0J226200D01*
G01*
G37*
G36*
G01*
X75156800Y-158900000D02*
X75156800Y-158600000D01*
G75*
G02*
X75383000Y-158373800I226200J0D01*
G01*
X76833000Y-158373800D01*
G75*
G02*
X77059200Y-158600000I0J-226200D01*
G01*
X77059200Y-158900000D01*
G75*
G02*
X76833000Y-159126200I-226200J0D01*
G01*
X75383000Y-159126200D01*
G75*
G02*
X75156800Y-158900000I0J226200D01*
G01*
G37*
G36*
G01*
X75156800Y-157630000D02*
X75156800Y-157330000D01*
G75*
G02*
X75383000Y-157103800I226200J0D01*
G01*
X76833000Y-157103800D01*
G75*
G02*
X77059200Y-157330000I0J-226200D01*
G01*
X77059200Y-157630000D01*
G75*
G02*
X76833000Y-157856200I-226200J0D01*
G01*
X75383000Y-157856200D01*
G75*
G02*
X75156800Y-157630000I0J226200D01*
G01*
G37*
G36*
G01*
X75156800Y-156360000D02*
X75156800Y-156060000D01*
G75*
G02*
X75383000Y-155833800I226200J0D01*
G01*
X76833000Y-155833800D01*
G75*
G02*
X77059200Y-156060000I0J-226200D01*
G01*
X77059200Y-156360000D01*
G75*
G02*
X76833000Y-156586200I-226200J0D01*
G01*
X75383000Y-156586200D01*
G75*
G02*
X75156800Y-156360000I0J226200D01*
G01*
G37*
G36*
G01*
X75156800Y-155090000D02*
X75156800Y-154790000D01*
G75*
G02*
X75383000Y-154563800I226200J0D01*
G01*
X76833000Y-154563800D01*
G75*
G02*
X77059200Y-154790000I0J-226200D01*
G01*
X77059200Y-155090000D01*
G75*
G02*
X76833000Y-155316200I-226200J0D01*
G01*
X75383000Y-155316200D01*
G75*
G02*
X75156800Y-155090000I0J226200D01*
G01*
G37*
G36*
G01*
X75156800Y-153820000D02*
X75156800Y-153520000D01*
G75*
G02*
X75383000Y-153293800I226200J0D01*
G01*
X76833000Y-153293800D01*
G75*
G02*
X77059200Y-153520000I0J-226200D01*
G01*
X77059200Y-153820000D01*
G75*
G02*
X76833000Y-154046200I-226200J0D01*
G01*
X75383000Y-154046200D01*
G75*
G02*
X75156800Y-153820000I0J226200D01*
G01*
G37*
G36*
G01*
X75156800Y-152550000D02*
X75156800Y-152250000D01*
G75*
G02*
X75383000Y-152023800I226200J0D01*
G01*
X76833000Y-152023800D01*
G75*
G02*
X77059200Y-152250000I0J-226200D01*
G01*
X77059200Y-152550000D01*
G75*
G02*
X76833000Y-152776200I-226200J0D01*
G01*
X75383000Y-152776200D01*
G75*
G02*
X75156800Y-152550000I0J226200D01*
G01*
G37*
G36*
G01*
X75156800Y-151280000D02*
X75156800Y-150980000D01*
G75*
G02*
X75383000Y-150753800I226200J0D01*
G01*
X76833000Y-150753800D01*
G75*
G02*
X77059200Y-150980000I0J-226200D01*
G01*
X77059200Y-151280000D01*
G75*
G02*
X76833000Y-151506200I-226200J0D01*
G01*
X75383000Y-151506200D01*
G75*
G02*
X75156800Y-151280000I0J226200D01*
G01*
G37*
G36*
G01*
X64493200Y-180298000D02*
X64493200Y-181198000D01*
G75*
G02*
X64167000Y-181524200I-326200J0D01*
G01*
X63642000Y-181524200D01*
G75*
G02*
X63315800Y-181198000I0J326200D01*
G01*
X63315800Y-180298000D01*
G75*
G02*
X63642000Y-179971800I326200J0D01*
G01*
X64167000Y-179971800D01*
G75*
G02*
X64493200Y-180298000I0J-326200D01*
G01*
G37*
G36*
G01*
X62668200Y-180298000D02*
X62668200Y-181198000D01*
G75*
G02*
X62342000Y-181524200I-326200J0D01*
G01*
X61817000Y-181524200D01*
G75*
G02*
X61490800Y-181198000I0J326200D01*
G01*
X61490800Y-180298000D01*
G75*
G02*
X61817000Y-179971800I326200J0D01*
G01*
X62342000Y-179971800D01*
G75*
G02*
X62668200Y-180298000I0J-326200D01*
G01*
G37*
G36*
G01*
X58803200Y-163863000D02*
X58803200Y-164813000D01*
G75*
G02*
X58477000Y-165139200I-326200J0D01*
G01*
X57977000Y-165139200D01*
G75*
G02*
X57650800Y-164813000I0J326200D01*
G01*
X57650800Y-163863000D01*
G75*
G02*
X57977000Y-163536800I326200J0D01*
G01*
X58477000Y-163536800D01*
G75*
G02*
X58803200Y-163863000I0J-326200D01*
G01*
G37*
G36*
G01*
X56903200Y-163863000D02*
X56903200Y-164813000D01*
G75*
G02*
X56577000Y-165139200I-326200J0D01*
G01*
X56077000Y-165139200D01*
G75*
G02*
X55750800Y-164813000I0J326200D01*
G01*
X55750800Y-163863000D01*
G75*
G02*
X56077000Y-163536800I326200J0D01*
G01*
X56577000Y-163536800D01*
G75*
G02*
X56903200Y-163863000I0J-326200D01*
G01*
G37*
G36*
G01*
X63188000Y-136375200D02*
X62288000Y-136375200D01*
G75*
G02*
X61961800Y-136049000I0J326200D01*
G01*
X61961800Y-135524000D01*
G75*
G02*
X62288000Y-135197800I326200J0D01*
G01*
X63188000Y-135197800D01*
G75*
G02*
X63514200Y-135524000I0J-326200D01*
G01*
X63514200Y-136049000D01*
G75*
G02*
X63188000Y-136375200I-326200J0D01*
G01*
G37*
G36*
G01*
X63188000Y-134550200D02*
X62288000Y-134550200D01*
G75*
G02*
X61961800Y-134224000I0J326200D01*
G01*
X61961800Y-133699000D01*
G75*
G02*
X62288000Y-133372800I326200J0D01*
G01*
X63188000Y-133372800D01*
G75*
G02*
X63514200Y-133699000I0J-326200D01*
G01*
X63514200Y-134224000D01*
G75*
G02*
X63188000Y-134550200I-326200J0D01*
G01*
G37*
G36*
G01*
X88006864Y-161105000D02*
X88006864Y-160205000D01*
G75*
G02*
X88333064Y-159878800I326200J0D01*
G01*
X88858064Y-159878800D01*
G75*
G02*
X89184264Y-160205000I0J-326200D01*
G01*
X89184264Y-161105000D01*
G75*
G02*
X88858064Y-161431200I-326200J0D01*
G01*
X88333064Y-161431200D01*
G75*
G02*
X88006864Y-161105000I0J326200D01*
G01*
G37*
G36*
G01*
X89831864Y-161105000D02*
X89831864Y-160205000D01*
G75*
G02*
X90158064Y-159878800I326200J0D01*
G01*
X90683064Y-159878800D01*
G75*
G02*
X91009264Y-160205000I0J-326200D01*
G01*
X91009264Y-161105000D01*
G75*
G02*
X90683064Y-161431200I-326200J0D01*
G01*
X90158064Y-161431200D01*
G75*
G02*
X89831864Y-161105000I0J326200D01*
G01*
G37*
G36*
X66141020Y-126157373D02*
G01*
X66114958Y-126112232D01*
X66113800Y-126099000D01*
X66113800Y-124599000D01*
X66131627Y-124550020D01*
X66176768Y-124523958D01*
X66190000Y-124522800D01*
X66690000Y-124522800D01*
X66704334Y-124528017D01*
X66771337Y-124529245D01*
X66792664Y-124532699D01*
X66927979Y-124574974D01*
X66947480Y-124584275D01*
X67065490Y-124662830D01*
X67081596Y-124677231D01*
X67172816Y-124785750D01*
X67184233Y-124804092D01*
X67241328Y-124933851D01*
X67247138Y-124954660D01*
X67264060Y-125084068D01*
X67265042Y-125085768D01*
X67266200Y-125099000D01*
X67266200Y-125599000D01*
X67265448Y-125601066D01*
X67265256Y-125616833D01*
X67243445Y-125756910D01*
X67237128Y-125777570D01*
X67176880Y-125905895D01*
X67165018Y-125923953D01*
X67071174Y-126030211D01*
X67054721Y-126044213D01*
X66934826Y-126119861D01*
X66915105Y-126128683D01*
X66778798Y-126167640D01*
X66757392Y-126170573D01*
X66709745Y-126170282D01*
X66703232Y-126174042D01*
X66690000Y-126175200D01*
X66190000Y-126175200D01*
X66141020Y-126157373D01*
G37*
G36*
X65375919Y-126170075D02*
G01*
X65315630Y-126169707D01*
X65294262Y-126166513D01*
X65158441Y-126125894D01*
X65138828Y-126116832D01*
X65019866Y-126039725D01*
X65003585Y-126025522D01*
X64911047Y-125918125D01*
X64899408Y-125899924D01*
X64840731Y-125770872D01*
X64834667Y-125750135D01*
X64814570Y-125609802D01*
X64813800Y-125599000D01*
X64813800Y-125099000D01*
X64813806Y-125098071D01*
X64813955Y-125085855D01*
X64815005Y-125074142D01*
X64838525Y-124934341D01*
X64845094Y-124913758D01*
X64906906Y-124786179D01*
X64918987Y-124768268D01*
X65014122Y-124663164D01*
X65030745Y-124649363D01*
X65151555Y-124575186D01*
X65171383Y-124566606D01*
X65308156Y-124529317D01*
X65329596Y-124526647D01*
X65370802Y-124527402D01*
X65376768Y-124523958D01*
X65390000Y-124522800D01*
X65890000Y-124522800D01*
X65938980Y-124540627D01*
X65965042Y-124585768D01*
X65966200Y-124599000D01*
X65966200Y-126099000D01*
X65948373Y-126147980D01*
X65903232Y-126174042D01*
X65890000Y-126175200D01*
X65390000Y-126175200D01*
X65375919Y-126170075D01*
G37*
G36*
G01*
X34029000Y-126027800D02*
X36329000Y-126027800D01*
G75*
G02*
X36405200Y-126104000I0J-76200D01*
G01*
X36405200Y-128404000D01*
G75*
G02*
X36329000Y-128480200I-76200J0D01*
G01*
X34029000Y-128480200D01*
G75*
G02*
X33952800Y-128404000I0J76200D01*
G01*
X33952800Y-126104000D01*
G75*
G02*
X34029000Y-126027800I76200J0D01*
G01*
G37*
D12*
X35179000Y-130754000D03*
X35179000Y-134254000D03*
G36*
G01*
X74549700Y-181414000D02*
X74549700Y-182314000D01*
G75*
G02*
X74223500Y-182640200I-326200J0D01*
G01*
X73698500Y-182640200D01*
G75*
G02*
X73372300Y-182314000I0J326200D01*
G01*
X73372300Y-181414000D01*
G75*
G02*
X73698500Y-181087800I326200J0D01*
G01*
X74223500Y-181087800D01*
G75*
G02*
X74549700Y-181414000I0J-326200D01*
G01*
G37*
G36*
G01*
X72724700Y-181414000D02*
X72724700Y-182314000D01*
G75*
G02*
X72398500Y-182640200I-326200J0D01*
G01*
X71873500Y-182640200D01*
G75*
G02*
X71547300Y-182314000I0J326200D01*
G01*
X71547300Y-181414000D01*
G75*
G02*
X71873500Y-181087800I326200J0D01*
G01*
X72398500Y-181087800D01*
G75*
G02*
X72724700Y-181414000I0J-326200D01*
G01*
G37*
G36*
G01*
X34029000Y-151427800D02*
X36329000Y-151427800D01*
G75*
G02*
X36405200Y-151504000I0J-76200D01*
G01*
X36405200Y-153804000D01*
G75*
G02*
X36329000Y-153880200I-76200J0D01*
G01*
X34029000Y-153880200D01*
G75*
G02*
X33952800Y-153804000I0J76200D01*
G01*
X33952800Y-151504000D01*
G75*
G02*
X34029000Y-151427800I76200J0D01*
G01*
G37*
X35179000Y-156154000D03*
X35179000Y-159654000D03*
G36*
X59791020Y-126157373D02*
G01*
X59764958Y-126112232D01*
X59763800Y-126099000D01*
X59763800Y-124599000D01*
X59781627Y-124550020D01*
X59826768Y-124523958D01*
X59840000Y-124522800D01*
X60340000Y-124522800D01*
X60354334Y-124528017D01*
X60421337Y-124529245D01*
X60442664Y-124532699D01*
X60577979Y-124574974D01*
X60597480Y-124584275D01*
X60715490Y-124662830D01*
X60731596Y-124677231D01*
X60822816Y-124785750D01*
X60834233Y-124804092D01*
X60891328Y-124933851D01*
X60897138Y-124954660D01*
X60914060Y-125084068D01*
X60915042Y-125085768D01*
X60916200Y-125099000D01*
X60916200Y-125599000D01*
X60915448Y-125601066D01*
X60915256Y-125616833D01*
X60893445Y-125756910D01*
X60887128Y-125777570D01*
X60826880Y-125905895D01*
X60815018Y-125923953D01*
X60721174Y-126030211D01*
X60704721Y-126044213D01*
X60584826Y-126119861D01*
X60565105Y-126128683D01*
X60428798Y-126167640D01*
X60407392Y-126170573D01*
X60359745Y-126170282D01*
X60353232Y-126174042D01*
X60340000Y-126175200D01*
X59840000Y-126175200D01*
X59791020Y-126157373D01*
G37*
G36*
X59025919Y-126170075D02*
G01*
X58965630Y-126169707D01*
X58944262Y-126166513D01*
X58808441Y-126125894D01*
X58788828Y-126116832D01*
X58669866Y-126039725D01*
X58653585Y-126025522D01*
X58561047Y-125918125D01*
X58549408Y-125899924D01*
X58490731Y-125770872D01*
X58484667Y-125750135D01*
X58464570Y-125609802D01*
X58463800Y-125599000D01*
X58463800Y-125099000D01*
X58463806Y-125098071D01*
X58463955Y-125085855D01*
X58465005Y-125074142D01*
X58488525Y-124934341D01*
X58495094Y-124913758D01*
X58556906Y-124786179D01*
X58568987Y-124768268D01*
X58664122Y-124663164D01*
X58680745Y-124649363D01*
X58801555Y-124575186D01*
X58821383Y-124566606D01*
X58958156Y-124529317D01*
X58979596Y-124526647D01*
X59020802Y-124527402D01*
X59026768Y-124523958D01*
X59040000Y-124522800D01*
X59540000Y-124522800D01*
X59588980Y-124540627D01*
X59615042Y-124585768D01*
X59616200Y-124599000D01*
X59616200Y-126099000D01*
X59598373Y-126147980D01*
X59553232Y-126174042D01*
X59540000Y-126175200D01*
X59040000Y-126175200D01*
X59025919Y-126170075D01*
G37*
G36*
G01*
X103273000Y-140306200D02*
X102023000Y-140306200D01*
G75*
G02*
X101796800Y-140080000I0J226200D01*
G01*
X101796800Y-139780000D01*
G75*
G02*
X102023000Y-139553800I226200J0D01*
G01*
X103273000Y-139553800D01*
G75*
G02*
X103499200Y-139780000I0J-226200D01*
G01*
X103499200Y-140080000D01*
G75*
G02*
X103273000Y-140306200I-226200J0D01*
G01*
G37*
G36*
G01*
X103273000Y-139306200D02*
X102023000Y-139306200D01*
G75*
G02*
X101796800Y-139080000I0J226200D01*
G01*
X101796800Y-138780000D01*
G75*
G02*
X102023000Y-138553800I226200J0D01*
G01*
X103273000Y-138553800D01*
G75*
G02*
X103499200Y-138780000I0J-226200D01*
G01*
X103499200Y-139080000D01*
G75*
G02*
X103273000Y-139306200I-226200J0D01*
G01*
G37*
G36*
G01*
X103273000Y-138306200D02*
X102023000Y-138306200D01*
G75*
G02*
X101796800Y-138080000I0J226200D01*
G01*
X101796800Y-137780000D01*
G75*
G02*
X102023000Y-137553800I226200J0D01*
G01*
X103273000Y-137553800D01*
G75*
G02*
X103499200Y-137780000I0J-226200D01*
G01*
X103499200Y-138080000D01*
G75*
G02*
X103273000Y-138306200I-226200J0D01*
G01*
G37*
G36*
G01*
X103273000Y-137306200D02*
X102023000Y-137306200D01*
G75*
G02*
X101796800Y-137080000I0J226200D01*
G01*
X101796800Y-136780000D01*
G75*
G02*
X102023000Y-136553800I226200J0D01*
G01*
X103273000Y-136553800D01*
G75*
G02*
X103499200Y-136780000I0J-226200D01*
G01*
X103499200Y-137080000D01*
G75*
G02*
X103273000Y-137306200I-226200J0D01*
G01*
G37*
G36*
G01*
X107173000Y-141906200D02*
X105873000Y-141906200D01*
G75*
G02*
X105546800Y-141580000I0J326200D01*
G01*
X105546800Y-140880000D01*
G75*
G02*
X105873000Y-140553800I326200J0D01*
G01*
X107173000Y-140553800D01*
G75*
G02*
X107499200Y-140880000I0J-326200D01*
G01*
X107499200Y-141580000D01*
G75*
G02*
X107173000Y-141906200I-326200J0D01*
G01*
G37*
G36*
G01*
X107173000Y-136306200D02*
X105873000Y-136306200D01*
G75*
G02*
X105546800Y-135980000I0J326200D01*
G01*
X105546800Y-135280000D01*
G75*
G02*
X105873000Y-134953800I326200J0D01*
G01*
X107173000Y-134953800D01*
G75*
G02*
X107499200Y-135280000I0J-326200D01*
G01*
X107499200Y-135980000D01*
G75*
G02*
X107173000Y-136306200I-326200J0D01*
G01*
G37*
G36*
G01*
X40452000Y-166610800D02*
X42352000Y-166610800D01*
G75*
G02*
X42428200Y-166687000I0J-76200D01*
G01*
X42428200Y-168087000D01*
G75*
G02*
X42352000Y-168163200I-76200J0D01*
G01*
X40452000Y-168163200D01*
G75*
G02*
X40375800Y-168087000I0J76200D01*
G01*
X40375800Y-166687000D01*
G75*
G02*
X40452000Y-166610800I76200J0D01*
G01*
G37*
G36*
G01*
X40452000Y-169910800D02*
X42352000Y-169910800D01*
G75*
G02*
X42428200Y-169987000I0J-76200D01*
G01*
X42428200Y-171387000D01*
G75*
G02*
X42352000Y-171463200I-76200J0D01*
G01*
X40452000Y-171463200D01*
G75*
G02*
X40375800Y-171387000I0J76200D01*
G01*
X40375800Y-169987000D01*
G75*
G02*
X40452000Y-169910800I76200J0D01*
G01*
G37*
G36*
G01*
X39773800Y-131133000D02*
X39773800Y-130233000D01*
G75*
G02*
X40100000Y-129906800I326200J0D01*
G01*
X40625000Y-129906800D01*
G75*
G02*
X40951200Y-130233000I0J-326200D01*
G01*
X40951200Y-131133000D01*
G75*
G02*
X40625000Y-131459200I-326200J0D01*
G01*
X40100000Y-131459200D01*
G75*
G02*
X39773800Y-131133000I0J326200D01*
G01*
G37*
G36*
G01*
X41598800Y-131133000D02*
X41598800Y-130233000D01*
G75*
G02*
X41925000Y-129906800I326200J0D01*
G01*
X42450000Y-129906800D01*
G75*
G02*
X42776200Y-130233000I0J-326200D01*
G01*
X42776200Y-131133000D01*
G75*
G02*
X42450000Y-131459200I-326200J0D01*
G01*
X41925000Y-131459200D01*
G75*
G02*
X41598800Y-131133000I0J326200D01*
G01*
G37*
G36*
G01*
X84965200Y-148496000D02*
X84965200Y-149446000D01*
G75*
G02*
X84639000Y-149772200I-326200J0D01*
G01*
X84139000Y-149772200D01*
G75*
G02*
X83812800Y-149446000I0J326200D01*
G01*
X83812800Y-148496000D01*
G75*
G02*
X84139000Y-148169800I326200J0D01*
G01*
X84639000Y-148169800D01*
G75*
G02*
X84965200Y-148496000I0J-326200D01*
G01*
G37*
G36*
G01*
X83065200Y-148496000D02*
X83065200Y-149446000D01*
G75*
G02*
X82739000Y-149772200I-326200J0D01*
G01*
X82239000Y-149772200D01*
G75*
G02*
X81912800Y-149446000I0J326200D01*
G01*
X81912800Y-148496000D01*
G75*
G02*
X82239000Y-148169800I326200J0D01*
G01*
X82739000Y-148169800D01*
G75*
G02*
X83065200Y-148496000I0J-326200D01*
G01*
G37*
G36*
G01*
X34029000Y-138727800D02*
X36329000Y-138727800D01*
G75*
G02*
X36405200Y-138804000I0J-76200D01*
G01*
X36405200Y-141104000D01*
G75*
G02*
X36329000Y-141180200I-76200J0D01*
G01*
X34029000Y-141180200D01*
G75*
G02*
X33952800Y-141104000I0J76200D01*
G01*
X33952800Y-138804000D01*
G75*
G02*
X34029000Y-138727800I76200J0D01*
G01*
G37*
X35179000Y-143454000D03*
X35179000Y-146954000D03*
G36*
X47777980Y-155274627D02*
G01*
X47804042Y-155319768D01*
X47805200Y-155333000D01*
X47805200Y-156833000D01*
X47787373Y-156881980D01*
X47742232Y-156908042D01*
X47729000Y-156909200D01*
X47229000Y-156909200D01*
X47214666Y-156903983D01*
X47147663Y-156902755D01*
X47126336Y-156899301D01*
X46991021Y-156857026D01*
X46971520Y-156847725D01*
X46853510Y-156769170D01*
X46837404Y-156754769D01*
X46746184Y-156646250D01*
X46734767Y-156627908D01*
X46677672Y-156498149D01*
X46671862Y-156477340D01*
X46654940Y-156347932D01*
X46653958Y-156346232D01*
X46652800Y-156333000D01*
X46652800Y-155833000D01*
X46653552Y-155830934D01*
X46653744Y-155815167D01*
X46675555Y-155675090D01*
X46681872Y-155654430D01*
X46742120Y-155526105D01*
X46753982Y-155508047D01*
X46847826Y-155401789D01*
X46864279Y-155387787D01*
X46984174Y-155312139D01*
X47003895Y-155303317D01*
X47140202Y-155264360D01*
X47161608Y-155261427D01*
X47209255Y-155261718D01*
X47215768Y-155257958D01*
X47229000Y-155256800D01*
X47729000Y-155256800D01*
X47777980Y-155274627D01*
G37*
G36*
X48543081Y-155261925D02*
G01*
X48603370Y-155262293D01*
X48624738Y-155265487D01*
X48760559Y-155306106D01*
X48780172Y-155315168D01*
X48899134Y-155392275D01*
X48915415Y-155406478D01*
X49007953Y-155513875D01*
X49019592Y-155532076D01*
X49078269Y-155661128D01*
X49084333Y-155681865D01*
X49104430Y-155822198D01*
X49105200Y-155833000D01*
X49105200Y-156333000D01*
X49105194Y-156333929D01*
X49105045Y-156346145D01*
X49103995Y-156357858D01*
X49080475Y-156497659D01*
X49073906Y-156518242D01*
X49012094Y-156645821D01*
X49000013Y-156663732D01*
X48904878Y-156768836D01*
X48888255Y-156782637D01*
X48767445Y-156856814D01*
X48747617Y-156865394D01*
X48610844Y-156902683D01*
X48589404Y-156905353D01*
X48548198Y-156904598D01*
X48542232Y-156908042D01*
X48529000Y-156909200D01*
X48029000Y-156909200D01*
X47980020Y-156891373D01*
X47953958Y-156846232D01*
X47952800Y-156833000D01*
X47952800Y-155333000D01*
X47970627Y-155284020D01*
X48015768Y-155257958D01*
X48029000Y-155256800D01*
X48529000Y-155256800D01*
X48543081Y-155261925D01*
G37*
G36*
G01*
X103273000Y-170786200D02*
X102023000Y-170786200D01*
G75*
G02*
X101796800Y-170560000I0J226200D01*
G01*
X101796800Y-170260000D01*
G75*
G02*
X102023000Y-170033800I226200J0D01*
G01*
X103273000Y-170033800D01*
G75*
G02*
X103499200Y-170260000I0J-226200D01*
G01*
X103499200Y-170560000D01*
G75*
G02*
X103273000Y-170786200I-226200J0D01*
G01*
G37*
G36*
G01*
X103273000Y-169786200D02*
X102023000Y-169786200D01*
G75*
G02*
X101796800Y-169560000I0J226200D01*
G01*
X101796800Y-169260000D01*
G75*
G02*
X102023000Y-169033800I226200J0D01*
G01*
X103273000Y-169033800D01*
G75*
G02*
X103499200Y-169260000I0J-226200D01*
G01*
X103499200Y-169560000D01*
G75*
G02*
X103273000Y-169786200I-226200J0D01*
G01*
G37*
G36*
G01*
X103273000Y-168786200D02*
X102023000Y-168786200D01*
G75*
G02*
X101796800Y-168560000I0J226200D01*
G01*
X101796800Y-168260000D01*
G75*
G02*
X102023000Y-168033800I226200J0D01*
G01*
X103273000Y-168033800D01*
G75*
G02*
X103499200Y-168260000I0J-226200D01*
G01*
X103499200Y-168560000D01*
G75*
G02*
X103273000Y-168786200I-226200J0D01*
G01*
G37*
G36*
G01*
X103273000Y-167786200D02*
X102023000Y-167786200D01*
G75*
G02*
X101796800Y-167560000I0J226200D01*
G01*
X101796800Y-167260000D01*
G75*
G02*
X102023000Y-167033800I226200J0D01*
G01*
X103273000Y-167033800D01*
G75*
G02*
X103499200Y-167260000I0J-226200D01*
G01*
X103499200Y-167560000D01*
G75*
G02*
X103273000Y-167786200I-226200J0D01*
G01*
G37*
G36*
G01*
X107173000Y-172386200D02*
X105873000Y-172386200D01*
G75*
G02*
X105546800Y-172060000I0J326200D01*
G01*
X105546800Y-171360000D01*
G75*
G02*
X105873000Y-171033800I326200J0D01*
G01*
X107173000Y-171033800D01*
G75*
G02*
X107499200Y-171360000I0J-326200D01*
G01*
X107499200Y-172060000D01*
G75*
G02*
X107173000Y-172386200I-326200J0D01*
G01*
G37*
G36*
G01*
X107173000Y-166786200D02*
X105873000Y-166786200D01*
G75*
G02*
X105546800Y-166460000I0J326200D01*
G01*
X105546800Y-165760000D01*
G75*
G02*
X105873000Y-165433800I326200J0D01*
G01*
X107173000Y-165433800D01*
G75*
G02*
X107499200Y-165760000I0J-326200D01*
G01*
X107499200Y-166460000D01*
G75*
G02*
X107173000Y-166786200I-326200J0D01*
G01*
G37*
G36*
G01*
X39050000Y-171336200D02*
X37150000Y-171336200D01*
G75*
G02*
X37073800Y-171260000I0J76200D01*
G01*
X37073800Y-169860000D01*
G75*
G02*
X37150000Y-169783800I76200J0D01*
G01*
X39050000Y-169783800D01*
G75*
G02*
X39126200Y-169860000I0J-76200D01*
G01*
X39126200Y-171260000D01*
G75*
G02*
X39050000Y-171336200I-76200J0D01*
G01*
G37*
G36*
G01*
X39050000Y-168036200D02*
X37150000Y-168036200D01*
G75*
G02*
X37073800Y-167960000I0J76200D01*
G01*
X37073800Y-166560000D01*
G75*
G02*
X37150000Y-166483800I76200J0D01*
G01*
X39050000Y-166483800D01*
G75*
G02*
X39126200Y-166560000I0J-76200D01*
G01*
X39126200Y-167960000D01*
G75*
G02*
X39050000Y-168036200I-76200J0D01*
G01*
G37*
G36*
G01*
X74549700Y-172651000D02*
X74549700Y-173551000D01*
G75*
G02*
X74223500Y-173877200I-326200J0D01*
G01*
X73698500Y-173877200D01*
G75*
G02*
X73372300Y-173551000I0J326200D01*
G01*
X73372300Y-172651000D01*
G75*
G02*
X73698500Y-172324800I326200J0D01*
G01*
X74223500Y-172324800D01*
G75*
G02*
X74549700Y-172651000I0J-326200D01*
G01*
G37*
G36*
G01*
X72724700Y-172651000D02*
X72724700Y-173551000D01*
G75*
G02*
X72398500Y-173877200I-326200J0D01*
G01*
X71873500Y-173877200D01*
G75*
G02*
X71547300Y-173551000I0J326200D01*
G01*
X71547300Y-172651000D01*
G75*
G02*
X71873500Y-172324800I326200J0D01*
G01*
X72398500Y-172324800D01*
G75*
G02*
X72724700Y-172651000I0J-326200D01*
G01*
G37*
G36*
G01*
X84965200Y-160180000D02*
X84965200Y-161130000D01*
G75*
G02*
X84639000Y-161456200I-326200J0D01*
G01*
X84139000Y-161456200D01*
G75*
G02*
X83812800Y-161130000I0J326200D01*
G01*
X83812800Y-160180000D01*
G75*
G02*
X84139000Y-159853800I326200J0D01*
G01*
X84639000Y-159853800D01*
G75*
G02*
X84965200Y-160180000I0J-326200D01*
G01*
G37*
G36*
G01*
X83065200Y-160180000D02*
X83065200Y-161130000D01*
G75*
G02*
X82739000Y-161456200I-326200J0D01*
G01*
X82239000Y-161456200D01*
G75*
G02*
X81912800Y-161130000I0J326200D01*
G01*
X81912800Y-160180000D01*
G75*
G02*
X82239000Y-159853800I326200J0D01*
G01*
X82739000Y-159853800D01*
G75*
G02*
X83065200Y-160180000I0J-326200D01*
G01*
G37*
G36*
G01*
X74549700Y-178493000D02*
X74549700Y-179393000D01*
G75*
G02*
X74223500Y-179719200I-326200J0D01*
G01*
X73698500Y-179719200D01*
G75*
G02*
X73372300Y-179393000I0J326200D01*
G01*
X73372300Y-178493000D01*
G75*
G02*
X73698500Y-178166800I326200J0D01*
G01*
X74223500Y-178166800D01*
G75*
G02*
X74549700Y-178493000I0J-326200D01*
G01*
G37*
G36*
G01*
X72724700Y-178493000D02*
X72724700Y-179393000D01*
G75*
G02*
X72398500Y-179719200I-326200J0D01*
G01*
X71873500Y-179719200D01*
G75*
G02*
X71547300Y-179393000I0J326200D01*
G01*
X71547300Y-178493000D01*
G75*
G02*
X71873500Y-178166800I326200J0D01*
G01*
X72398500Y-178166800D01*
G75*
G02*
X72724700Y-178493000I0J-326200D01*
G01*
G37*
G36*
G01*
X71503200Y-146718000D02*
X71503200Y-147668000D01*
G75*
G02*
X71177000Y-147994200I-326200J0D01*
G01*
X70677000Y-147994200D01*
G75*
G02*
X70350800Y-147668000I0J326200D01*
G01*
X70350800Y-146718000D01*
G75*
G02*
X70677000Y-146391800I326200J0D01*
G01*
X71177000Y-146391800D01*
G75*
G02*
X71503200Y-146718000I0J-326200D01*
G01*
G37*
G36*
G01*
X69603200Y-146718000D02*
X69603200Y-147668000D01*
G75*
G02*
X69277000Y-147994200I-326200J0D01*
G01*
X68777000Y-147994200D01*
G75*
G02*
X68450800Y-147668000I0J326200D01*
G01*
X68450800Y-146718000D01*
G75*
G02*
X68777000Y-146391800I326200J0D01*
G01*
X69277000Y-146391800D01*
G75*
G02*
X69603200Y-146718000I0J-326200D01*
G01*
G37*
D13*
X94706500Y-123845000D03*
X83276500Y-123845000D03*
G36*
G01*
X94262700Y-129445000D02*
X94262700Y-130945000D01*
G75*
G02*
X94186500Y-131021200I-76200J0D01*
G01*
X92686500Y-131021200D01*
G75*
G02*
X92610300Y-130945000I0J76200D01*
G01*
X92610300Y-129445000D01*
G75*
G02*
X92686500Y-129368800I76200J0D01*
G01*
X94186500Y-129368800D01*
G75*
G02*
X94262700Y-129445000I0J-76200D01*
G01*
G37*
D14*
X92166500Y-132735000D03*
X90896500Y-130195000D03*
X89626500Y-132735000D03*
X88356500Y-130195000D03*
X87086500Y-132735000D03*
X85816500Y-130195000D03*
X84546500Y-132735000D03*
D10*
X29718000Y-187452000D03*
G36*
G01*
X88113800Y-138441000D02*
X88113800Y-136641000D01*
G75*
G02*
X88190000Y-136564800I76200J0D01*
G01*
X90690000Y-136564800D01*
G75*
G02*
X90766200Y-136641000I0J-76200D01*
G01*
X90766200Y-138441000D01*
G75*
G02*
X90690000Y-138517200I-76200J0D01*
G01*
X88190000Y-138517200D01*
G75*
G02*
X88113800Y-138441000I0J76200D01*
G01*
G37*
G36*
G01*
X92113800Y-138441000D02*
X92113800Y-136641000D01*
G75*
G02*
X92190000Y-136564800I76200J0D01*
G01*
X94690000Y-136564800D01*
G75*
G02*
X94766200Y-136641000I0J-76200D01*
G01*
X94766200Y-138441000D01*
G75*
G02*
X94690000Y-138517200I-76200J0D01*
G01*
X92190000Y-138517200D01*
G75*
G02*
X92113800Y-138441000I0J76200D01*
G01*
G37*
G36*
G01*
X87983364Y-146500000D02*
X87983364Y-145600000D01*
G75*
G02*
X88309564Y-145273800I326200J0D01*
G01*
X88834564Y-145273800D01*
G75*
G02*
X89160764Y-145600000I0J-326200D01*
G01*
X89160764Y-146500000D01*
G75*
G02*
X88834564Y-146826200I-326200J0D01*
G01*
X88309564Y-146826200D01*
G75*
G02*
X87983364Y-146500000I0J326200D01*
G01*
G37*
G36*
G01*
X89808364Y-146500000D02*
X89808364Y-145600000D01*
G75*
G02*
X90134564Y-145273800I326200J0D01*
G01*
X90659564Y-145273800D01*
G75*
G02*
X90985764Y-145600000I0J-326200D01*
G01*
X90985764Y-146500000D01*
G75*
G02*
X90659564Y-146826200I-326200J0D01*
G01*
X90134564Y-146826200D01*
G75*
G02*
X89808364Y-146500000I0J326200D01*
G01*
G37*
G36*
G01*
X35748000Y-171336200D02*
X33848000Y-171336200D01*
G75*
G02*
X33771800Y-171260000I0J76200D01*
G01*
X33771800Y-169860000D01*
G75*
G02*
X33848000Y-169783800I76200J0D01*
G01*
X35748000Y-169783800D01*
G75*
G02*
X35824200Y-169860000I0J-76200D01*
G01*
X35824200Y-171260000D01*
G75*
G02*
X35748000Y-171336200I-76200J0D01*
G01*
G37*
G36*
G01*
X35748000Y-168036200D02*
X33848000Y-168036200D01*
G75*
G02*
X33771800Y-167960000I0J76200D01*
G01*
X33771800Y-166560000D01*
G75*
G02*
X33848000Y-166483800I76200J0D01*
G01*
X35748000Y-166483800D01*
G75*
G02*
X35824200Y-166560000I0J-76200D01*
G01*
X35824200Y-167960000D01*
G75*
G02*
X35748000Y-168036200I-76200J0D01*
G01*
G37*
X29718000Y-119888000D03*
G36*
G01*
X74549700Y-175572000D02*
X74549700Y-176472000D01*
G75*
G02*
X74223500Y-176798200I-326200J0D01*
G01*
X73698500Y-176798200D01*
G75*
G02*
X73372300Y-176472000I0J326200D01*
G01*
X73372300Y-175572000D01*
G75*
G02*
X73698500Y-175245800I326200J0D01*
G01*
X74223500Y-175245800D01*
G75*
G02*
X74549700Y-175572000I0J-326200D01*
G01*
G37*
G36*
G01*
X72724700Y-175572000D02*
X72724700Y-176472000D01*
G75*
G02*
X72398500Y-176798200I-326200J0D01*
G01*
X71873500Y-176798200D01*
G75*
G02*
X71547300Y-176472000I0J326200D01*
G01*
X71547300Y-175572000D01*
G75*
G02*
X71873500Y-175245800I326200J0D01*
G01*
X72398500Y-175245800D01*
G75*
G02*
X72724700Y-175572000I0J-326200D01*
G01*
G37*
D13*
X94777500Y-183368000D03*
X83347500Y-183368000D03*
G36*
G01*
X83791300Y-177768000D02*
X83791300Y-176268000D01*
G75*
G02*
X83867500Y-176191800I76200J0D01*
G01*
X85367500Y-176191800D01*
G75*
G02*
X85443700Y-176268000I0J-76200D01*
G01*
X85443700Y-177768000D01*
G75*
G02*
X85367500Y-177844200I-76200J0D01*
G01*
X83867500Y-177844200D01*
G75*
G02*
X83791300Y-177768000I0J76200D01*
G01*
G37*
D14*
X85887500Y-174478000D03*
X87157500Y-177018000D03*
X88427500Y-174478000D03*
X89697500Y-177018000D03*
X90967500Y-174478000D03*
X92237500Y-177018000D03*
X93507500Y-174478000D03*
G36*
G01*
X39773800Y-134689000D02*
X39773800Y-133789000D01*
G75*
G02*
X40100000Y-133462800I326200J0D01*
G01*
X40625000Y-133462800D01*
G75*
G02*
X40951200Y-133789000I0J-326200D01*
G01*
X40951200Y-134689000D01*
G75*
G02*
X40625000Y-135015200I-326200J0D01*
G01*
X40100000Y-135015200D01*
G75*
G02*
X39773800Y-134689000I0J326200D01*
G01*
G37*
G36*
G01*
X41598800Y-134689000D02*
X41598800Y-133789000D01*
G75*
G02*
X41925000Y-133462800I326200J0D01*
G01*
X42450000Y-133462800D01*
G75*
G02*
X42776200Y-133789000I0J-326200D01*
G01*
X42776200Y-134689000D01*
G75*
G02*
X42450000Y-135015200I-326200J0D01*
G01*
X41925000Y-135015200D01*
G75*
G02*
X41598800Y-134689000I0J326200D01*
G01*
G37*
G36*
G01*
X49149000Y-182232300D02*
X49149000Y-176669700D01*
G75*
G02*
X49225200Y-176593500I76200J0D01*
G01*
X51333400Y-176593500D01*
G75*
G02*
X51409600Y-176669700I0J-76200D01*
G01*
X51409600Y-182232300D01*
G75*
G02*
X51333400Y-182308500I-76200J0D01*
G01*
X49225200Y-182308500D01*
G75*
G02*
X49149000Y-182232300I0J76200D01*
G01*
G37*
G36*
G01*
X53746400Y-182232300D02*
X53746400Y-176669700D01*
G75*
G02*
X53822600Y-176593500I76200J0D01*
G01*
X55930800Y-176593500D01*
G75*
G02*
X56007000Y-176669700I0J-76200D01*
G01*
X56007000Y-182232300D01*
G75*
G02*
X55930800Y-182308500I-76200J0D01*
G01*
X53822600Y-182308500D01*
G75*
G02*
X53746400Y-182232300I0J76200D01*
G01*
G37*
G36*
G01*
X56619200Y-168580750D02*
X56619200Y-169493250D01*
G75*
G02*
X56299250Y-169813200I-319950J0D01*
G01*
X55811750Y-169813200D01*
G75*
G02*
X55491800Y-169493250I0J319950D01*
G01*
X55491800Y-168580750D01*
G75*
G02*
X55811750Y-168260800I319950J0D01*
G01*
X56299250Y-168260800D01*
G75*
G02*
X56619200Y-168580750I0J-319950D01*
G01*
G37*
G36*
G01*
X54744200Y-168580750D02*
X54744200Y-169493250D01*
G75*
G02*
X54424250Y-169813200I-319950J0D01*
G01*
X53936750Y-169813200D01*
G75*
G02*
X53616800Y-169493250I0J319950D01*
G01*
X53616800Y-168580750D01*
G75*
G02*
X53936750Y-168260800I319950J0D01*
G01*
X54424250Y-168260800D01*
G75*
G02*
X54744200Y-168580750I0J-319950D01*
G01*
G37*
G36*
G01*
X55659000Y-184147800D02*
X56609000Y-184147800D01*
G75*
G02*
X56935200Y-184474000I0J-326200D01*
G01*
X56935200Y-184974000D01*
G75*
G02*
X56609000Y-185300200I-326200J0D01*
G01*
X55659000Y-185300200D01*
G75*
G02*
X55332800Y-184974000I0J326200D01*
G01*
X55332800Y-184474000D01*
G75*
G02*
X55659000Y-184147800I326200J0D01*
G01*
G37*
G36*
G01*
X55659000Y-186047800D02*
X56609000Y-186047800D01*
G75*
G02*
X56935200Y-186374000I0J-326200D01*
G01*
X56935200Y-186874000D01*
G75*
G02*
X56609000Y-187200200I-326200J0D01*
G01*
X55659000Y-187200200D01*
G75*
G02*
X55332800Y-186874000I0J326200D01*
G01*
X55332800Y-186374000D01*
G75*
G02*
X55659000Y-186047800I326200J0D01*
G01*
G37*
G36*
X47777980Y-129874627D02*
G01*
X47804042Y-129919768D01*
X47805200Y-129933000D01*
X47805200Y-131433000D01*
X47787373Y-131481980D01*
X47742232Y-131508042D01*
X47729000Y-131509200D01*
X47229000Y-131509200D01*
X47214666Y-131503983D01*
X47147663Y-131502755D01*
X47126336Y-131499301D01*
X46991021Y-131457026D01*
X46971520Y-131447725D01*
X46853510Y-131369170D01*
X46837404Y-131354769D01*
X46746184Y-131246250D01*
X46734767Y-131227908D01*
X46677672Y-131098149D01*
X46671862Y-131077340D01*
X46654940Y-130947932D01*
X46653958Y-130946232D01*
X46652800Y-130933000D01*
X46652800Y-130433000D01*
X46653552Y-130430934D01*
X46653744Y-130415167D01*
X46675555Y-130275090D01*
X46681872Y-130254430D01*
X46742120Y-130126105D01*
X46753982Y-130108047D01*
X46847826Y-130001789D01*
X46864279Y-129987787D01*
X46984174Y-129912139D01*
X47003895Y-129903317D01*
X47140202Y-129864360D01*
X47161608Y-129861427D01*
X47209255Y-129861718D01*
X47215768Y-129857958D01*
X47229000Y-129856800D01*
X47729000Y-129856800D01*
X47777980Y-129874627D01*
G37*
G36*
X48543081Y-129861925D02*
G01*
X48603370Y-129862293D01*
X48624738Y-129865487D01*
X48760559Y-129906106D01*
X48780172Y-129915168D01*
X48899134Y-129992275D01*
X48915415Y-130006478D01*
X49007953Y-130113875D01*
X49019592Y-130132076D01*
X49078269Y-130261128D01*
X49084333Y-130281865D01*
X49104430Y-130422198D01*
X49105200Y-130433000D01*
X49105200Y-130933000D01*
X49105194Y-130933929D01*
X49105045Y-130946145D01*
X49103995Y-130957858D01*
X49080475Y-131097659D01*
X49073906Y-131118242D01*
X49012094Y-131245821D01*
X49000013Y-131263732D01*
X48904878Y-131368836D01*
X48888255Y-131382637D01*
X48767445Y-131456814D01*
X48747617Y-131465394D01*
X48610844Y-131502683D01*
X48589404Y-131505353D01*
X48548198Y-131504598D01*
X48542232Y-131508042D01*
X48529000Y-131509200D01*
X48029000Y-131509200D01*
X47980020Y-131491373D01*
X47953958Y-131446232D01*
X47952800Y-131433000D01*
X47952800Y-129933000D01*
X47970627Y-129884020D01*
X48015768Y-129857958D01*
X48029000Y-129856800D01*
X48529000Y-129856800D01*
X48543081Y-129861925D01*
G37*
G36*
G01*
X54446800Y-150010000D02*
X54446800Y-149710000D01*
G75*
G02*
X54673000Y-149483800I226200J0D01*
G01*
X56423000Y-149483800D01*
G75*
G02*
X56649200Y-149710000I0J-226200D01*
G01*
X56649200Y-150010000D01*
G75*
G02*
X56423000Y-150236200I-226200J0D01*
G01*
X54673000Y-150236200D01*
G75*
G02*
X54446800Y-150010000I0J226200D01*
G01*
G37*
G36*
G01*
X54446800Y-151280000D02*
X54446800Y-150980000D01*
G75*
G02*
X54673000Y-150753800I226200J0D01*
G01*
X56423000Y-150753800D01*
G75*
G02*
X56649200Y-150980000I0J-226200D01*
G01*
X56649200Y-151280000D01*
G75*
G02*
X56423000Y-151506200I-226200J0D01*
G01*
X54673000Y-151506200D01*
G75*
G02*
X54446800Y-151280000I0J226200D01*
G01*
G37*
G36*
G01*
X54446800Y-152550000D02*
X54446800Y-152250000D01*
G75*
G02*
X54673000Y-152023800I226200J0D01*
G01*
X56423000Y-152023800D01*
G75*
G02*
X56649200Y-152250000I0J-226200D01*
G01*
X56649200Y-152550000D01*
G75*
G02*
X56423000Y-152776200I-226200J0D01*
G01*
X54673000Y-152776200D01*
G75*
G02*
X54446800Y-152550000I0J226200D01*
G01*
G37*
G36*
G01*
X54446800Y-153820000D02*
X54446800Y-153520000D01*
G75*
G02*
X54673000Y-153293800I226200J0D01*
G01*
X56423000Y-153293800D01*
G75*
G02*
X56649200Y-153520000I0J-226200D01*
G01*
X56649200Y-153820000D01*
G75*
G02*
X56423000Y-154046200I-226200J0D01*
G01*
X54673000Y-154046200D01*
G75*
G02*
X54446800Y-153820000I0J226200D01*
G01*
G37*
G36*
G01*
X54446800Y-155090000D02*
X54446800Y-154790000D01*
G75*
G02*
X54673000Y-154563800I226200J0D01*
G01*
X56423000Y-154563800D01*
G75*
G02*
X56649200Y-154790000I0J-226200D01*
G01*
X56649200Y-155090000D01*
G75*
G02*
X56423000Y-155316200I-226200J0D01*
G01*
X54673000Y-155316200D01*
G75*
G02*
X54446800Y-155090000I0J226200D01*
G01*
G37*
G36*
G01*
X54446800Y-156360000D02*
X54446800Y-156060000D01*
G75*
G02*
X54673000Y-155833800I226200J0D01*
G01*
X56423000Y-155833800D01*
G75*
G02*
X56649200Y-156060000I0J-226200D01*
G01*
X56649200Y-156360000D01*
G75*
G02*
X56423000Y-156586200I-226200J0D01*
G01*
X54673000Y-156586200D01*
G75*
G02*
X54446800Y-156360000I0J226200D01*
G01*
G37*
G36*
G01*
X54446800Y-157630000D02*
X54446800Y-157330000D01*
G75*
G02*
X54673000Y-157103800I226200J0D01*
G01*
X56423000Y-157103800D01*
G75*
G02*
X56649200Y-157330000I0J-226200D01*
G01*
X56649200Y-157630000D01*
G75*
G02*
X56423000Y-157856200I-226200J0D01*
G01*
X54673000Y-157856200D01*
G75*
G02*
X54446800Y-157630000I0J226200D01*
G01*
G37*
G36*
G01*
X54446800Y-158900000D02*
X54446800Y-158600000D01*
G75*
G02*
X54673000Y-158373800I226200J0D01*
G01*
X56423000Y-158373800D01*
G75*
G02*
X56649200Y-158600000I0J-226200D01*
G01*
X56649200Y-158900000D01*
G75*
G02*
X56423000Y-159126200I-226200J0D01*
G01*
X54673000Y-159126200D01*
G75*
G02*
X54446800Y-158900000I0J226200D01*
G01*
G37*
G36*
G01*
X54446800Y-160170000D02*
X54446800Y-159870000D01*
G75*
G02*
X54673000Y-159643800I226200J0D01*
G01*
X56423000Y-159643800D01*
G75*
G02*
X56649200Y-159870000I0J-226200D01*
G01*
X56649200Y-160170000D01*
G75*
G02*
X56423000Y-160396200I-226200J0D01*
G01*
X54673000Y-160396200D01*
G75*
G02*
X54446800Y-160170000I0J226200D01*
G01*
G37*
G36*
G01*
X54446800Y-161440000D02*
X54446800Y-161140000D01*
G75*
G02*
X54673000Y-160913800I226200J0D01*
G01*
X56423000Y-160913800D01*
G75*
G02*
X56649200Y-161140000I0J-226200D01*
G01*
X56649200Y-161440000D01*
G75*
G02*
X56423000Y-161666200I-226200J0D01*
G01*
X54673000Y-161666200D01*
G75*
G02*
X54446800Y-161440000I0J226200D01*
G01*
G37*
G36*
G01*
X63746800Y-161440000D02*
X63746800Y-161140000D01*
G75*
G02*
X63973000Y-160913800I226200J0D01*
G01*
X65723000Y-160913800D01*
G75*
G02*
X65949200Y-161140000I0J-226200D01*
G01*
X65949200Y-161440000D01*
G75*
G02*
X65723000Y-161666200I-226200J0D01*
G01*
X63973000Y-161666200D01*
G75*
G02*
X63746800Y-161440000I0J226200D01*
G01*
G37*
G36*
G01*
X63746800Y-160170000D02*
X63746800Y-159870000D01*
G75*
G02*
X63973000Y-159643800I226200J0D01*
G01*
X65723000Y-159643800D01*
G75*
G02*
X65949200Y-159870000I0J-226200D01*
G01*
X65949200Y-160170000D01*
G75*
G02*
X65723000Y-160396200I-226200J0D01*
G01*
X63973000Y-160396200D01*
G75*
G02*
X63746800Y-160170000I0J226200D01*
G01*
G37*
G36*
G01*
X63746800Y-158900000D02*
X63746800Y-158600000D01*
G75*
G02*
X63973000Y-158373800I226200J0D01*
G01*
X65723000Y-158373800D01*
G75*
G02*
X65949200Y-158600000I0J-226200D01*
G01*
X65949200Y-158900000D01*
G75*
G02*
X65723000Y-159126200I-226200J0D01*
G01*
X63973000Y-159126200D01*
G75*
G02*
X63746800Y-158900000I0J226200D01*
G01*
G37*
G36*
G01*
X63746800Y-157630000D02*
X63746800Y-157330000D01*
G75*
G02*
X63973000Y-157103800I226200J0D01*
G01*
X65723000Y-157103800D01*
G75*
G02*
X65949200Y-157330000I0J-226200D01*
G01*
X65949200Y-157630000D01*
G75*
G02*
X65723000Y-157856200I-226200J0D01*
G01*
X63973000Y-157856200D01*
G75*
G02*
X63746800Y-157630000I0J226200D01*
G01*
G37*
G36*
G01*
X63746800Y-156360000D02*
X63746800Y-156060000D01*
G75*
G02*
X63973000Y-155833800I226200J0D01*
G01*
X65723000Y-155833800D01*
G75*
G02*
X65949200Y-156060000I0J-226200D01*
G01*
X65949200Y-156360000D01*
G75*
G02*
X65723000Y-156586200I-226200J0D01*
G01*
X63973000Y-156586200D01*
G75*
G02*
X63746800Y-156360000I0J226200D01*
G01*
G37*
G36*
G01*
X63746800Y-155090000D02*
X63746800Y-154790000D01*
G75*
G02*
X63973000Y-154563800I226200J0D01*
G01*
X65723000Y-154563800D01*
G75*
G02*
X65949200Y-154790000I0J-226200D01*
G01*
X65949200Y-155090000D01*
G75*
G02*
X65723000Y-155316200I-226200J0D01*
G01*
X63973000Y-155316200D01*
G75*
G02*
X63746800Y-155090000I0J226200D01*
G01*
G37*
G36*
G01*
X63746800Y-153820000D02*
X63746800Y-153520000D01*
G75*
G02*
X63973000Y-153293800I226200J0D01*
G01*
X65723000Y-153293800D01*
G75*
G02*
X65949200Y-153520000I0J-226200D01*
G01*
X65949200Y-153820000D01*
G75*
G02*
X65723000Y-154046200I-226200J0D01*
G01*
X63973000Y-154046200D01*
G75*
G02*
X63746800Y-153820000I0J226200D01*
G01*
G37*
G36*
G01*
X63746800Y-152550000D02*
X63746800Y-152250000D01*
G75*
G02*
X63973000Y-152023800I226200J0D01*
G01*
X65723000Y-152023800D01*
G75*
G02*
X65949200Y-152250000I0J-226200D01*
G01*
X65949200Y-152550000D01*
G75*
G02*
X65723000Y-152776200I-226200J0D01*
G01*
X63973000Y-152776200D01*
G75*
G02*
X63746800Y-152550000I0J226200D01*
G01*
G37*
G36*
G01*
X63746800Y-151280000D02*
X63746800Y-150980000D01*
G75*
G02*
X63973000Y-150753800I226200J0D01*
G01*
X65723000Y-150753800D01*
G75*
G02*
X65949200Y-150980000I0J-226200D01*
G01*
X65949200Y-151280000D01*
G75*
G02*
X65723000Y-151506200I-226200J0D01*
G01*
X63973000Y-151506200D01*
G75*
G02*
X63746800Y-151280000I0J226200D01*
G01*
G37*
G36*
G01*
X63746800Y-150010000D02*
X63746800Y-149710000D01*
G75*
G02*
X63973000Y-149483800I226200J0D01*
G01*
X65723000Y-149483800D01*
G75*
G02*
X65949200Y-149710000I0J-226200D01*
G01*
X65949200Y-150010000D01*
G75*
G02*
X65723000Y-150236200I-226200J0D01*
G01*
X63973000Y-150236200D01*
G75*
G02*
X63746800Y-150010000I0J226200D01*
G01*
G37*
D15*
X44958000Y-144272000D03*
X50038000Y-143256000D03*
X50038000Y-145288000D03*
D16*
X46228000Y-144907000D03*
X46228000Y-143637000D03*
X47498000Y-144907000D03*
X47498000Y-143637000D03*
X48768000Y-144907000D03*
X48768000Y-143637000D03*
G36*
G01*
X59243000Y-181877200D02*
X57343000Y-181877200D01*
G75*
G02*
X57266800Y-181801000I0J76200D01*
G01*
X57266800Y-180401000D01*
G75*
G02*
X57343000Y-180324800I76200J0D01*
G01*
X59243000Y-180324800D01*
G75*
G02*
X59319200Y-180401000I0J-76200D01*
G01*
X59319200Y-181801000D01*
G75*
G02*
X59243000Y-181877200I-76200J0D01*
G01*
G37*
G36*
G01*
X59243000Y-178577200D02*
X57343000Y-178577200D01*
G75*
G02*
X57266800Y-178501000I0J76200D01*
G01*
X57266800Y-177101000D01*
G75*
G02*
X57343000Y-177024800I76200J0D01*
G01*
X59243000Y-177024800D01*
G75*
G02*
X59319200Y-177101000I0J-76200D01*
G01*
X59319200Y-178501000D01*
G75*
G02*
X59243000Y-178577200I-76200J0D01*
G01*
G37*
G36*
G01*
X88006864Y-155263000D02*
X88006864Y-154363000D01*
G75*
G02*
X88333064Y-154036800I326200J0D01*
G01*
X88858064Y-154036800D01*
G75*
G02*
X89184264Y-154363000I0J-326200D01*
G01*
X89184264Y-155263000D01*
G75*
G02*
X88858064Y-155589200I-326200J0D01*
G01*
X88333064Y-155589200D01*
G75*
G02*
X88006864Y-155263000I0J326200D01*
G01*
G37*
G36*
G01*
X89831864Y-155263000D02*
X89831864Y-154363000D01*
G75*
G02*
X90158064Y-154036800I326200J0D01*
G01*
X90683064Y-154036800D01*
G75*
G02*
X91009264Y-154363000I0J-326200D01*
G01*
X91009264Y-155263000D01*
G75*
G02*
X90683064Y-155589200I-326200J0D01*
G01*
X90158064Y-155589200D01*
G75*
G02*
X89831864Y-155263000I0J326200D01*
G01*
G37*
G36*
G01*
X64493200Y-186140000D02*
X64493200Y-187040000D01*
G75*
G02*
X64167000Y-187366200I-326200J0D01*
G01*
X63642000Y-187366200D01*
G75*
G02*
X63315800Y-187040000I0J326200D01*
G01*
X63315800Y-186140000D01*
G75*
G02*
X63642000Y-185813800I326200J0D01*
G01*
X64167000Y-185813800D01*
G75*
G02*
X64493200Y-186140000I0J-326200D01*
G01*
G37*
G36*
G01*
X62668200Y-186140000D02*
X62668200Y-187040000D01*
G75*
G02*
X62342000Y-187366200I-326200J0D01*
G01*
X61817000Y-187366200D01*
G75*
G02*
X61490800Y-187040000I0J326200D01*
G01*
X61490800Y-186140000D01*
G75*
G02*
X61817000Y-185813800I326200J0D01*
G01*
X62342000Y-185813800D01*
G75*
G02*
X62668200Y-186140000I0J-326200D01*
G01*
G37*
G36*
G01*
X53378000Y-183797800D02*
X53678000Y-183797800D01*
G75*
G02*
X53904200Y-184024000I0J-226200D01*
G01*
X53904200Y-185049000D01*
G75*
G02*
X53678000Y-185275200I-226200J0D01*
G01*
X53378000Y-185275200D01*
G75*
G02*
X53151800Y-185049000I0J226200D01*
G01*
X53151800Y-184024000D01*
G75*
G02*
X53378000Y-183797800I226200J0D01*
G01*
G37*
G36*
G01*
X52428000Y-183797800D02*
X52728000Y-183797800D01*
G75*
G02*
X52954200Y-184024000I0J-226200D01*
G01*
X52954200Y-185049000D01*
G75*
G02*
X52728000Y-185275200I-226200J0D01*
G01*
X52428000Y-185275200D01*
G75*
G02*
X52201800Y-185049000I0J226200D01*
G01*
X52201800Y-184024000D01*
G75*
G02*
X52428000Y-183797800I226200J0D01*
G01*
G37*
G36*
G01*
X51478000Y-183797800D02*
X51778000Y-183797800D01*
G75*
G02*
X52004200Y-184024000I0J-226200D01*
G01*
X52004200Y-185049000D01*
G75*
G02*
X51778000Y-185275200I-226200J0D01*
G01*
X51478000Y-185275200D01*
G75*
G02*
X51251800Y-185049000I0J226200D01*
G01*
X51251800Y-184024000D01*
G75*
G02*
X51478000Y-183797800I226200J0D01*
G01*
G37*
G36*
G01*
X51478000Y-186072800D02*
X51778000Y-186072800D01*
G75*
G02*
X52004200Y-186299000I0J-226200D01*
G01*
X52004200Y-187324000D01*
G75*
G02*
X51778000Y-187550200I-226200J0D01*
G01*
X51478000Y-187550200D01*
G75*
G02*
X51251800Y-187324000I0J226200D01*
G01*
X51251800Y-186299000D01*
G75*
G02*
X51478000Y-186072800I226200J0D01*
G01*
G37*
G36*
G01*
X53378000Y-186072800D02*
X53678000Y-186072800D01*
G75*
G02*
X53904200Y-186299000I0J-226200D01*
G01*
X53904200Y-187324000D01*
G75*
G02*
X53678000Y-187550200I-226200J0D01*
G01*
X53378000Y-187550200D01*
G75*
G02*
X53151800Y-187324000I0J226200D01*
G01*
X53151800Y-186299000D01*
G75*
G02*
X53378000Y-186072800I226200J0D01*
G01*
G37*
G36*
G01*
X39773800Y-160089000D02*
X39773800Y-159189000D01*
G75*
G02*
X40100000Y-158862800I326200J0D01*
G01*
X40625000Y-158862800D01*
G75*
G02*
X40951200Y-159189000I0J-326200D01*
G01*
X40951200Y-160089000D01*
G75*
G02*
X40625000Y-160415200I-326200J0D01*
G01*
X40100000Y-160415200D01*
G75*
G02*
X39773800Y-160089000I0J326200D01*
G01*
G37*
G36*
G01*
X41598800Y-160089000D02*
X41598800Y-159189000D01*
G75*
G02*
X41925000Y-158862800I326200J0D01*
G01*
X42450000Y-158862800D01*
G75*
G02*
X42776200Y-159189000I0J-326200D01*
G01*
X42776200Y-160089000D01*
G75*
G02*
X42450000Y-160415200I-326200J0D01*
G01*
X41925000Y-160415200D01*
G75*
G02*
X41598800Y-160089000I0J326200D01*
G01*
G37*
G36*
G01*
X74549700Y-169730000D02*
X74549700Y-170630000D01*
G75*
G02*
X74223500Y-170956200I-326200J0D01*
G01*
X73698500Y-170956200D01*
G75*
G02*
X73372300Y-170630000I0J326200D01*
G01*
X73372300Y-169730000D01*
G75*
G02*
X73698500Y-169403800I326200J0D01*
G01*
X74223500Y-169403800D01*
G75*
G02*
X74549700Y-169730000I0J-326200D01*
G01*
G37*
G36*
G01*
X72724700Y-169730000D02*
X72724700Y-170630000D01*
G75*
G02*
X72398500Y-170956200I-326200J0D01*
G01*
X71873500Y-170956200D01*
G75*
G02*
X71547300Y-170630000I0J326200D01*
G01*
X71547300Y-169730000D01*
G75*
G02*
X71873500Y-169403800I326200J0D01*
G01*
X72398500Y-169403800D01*
G75*
G02*
X72724700Y-169730000I0J-326200D01*
G01*
G37*
G36*
G01*
X43897000Y-183971300D02*
X44447000Y-183971300D01*
G75*
G02*
X44523200Y-184047500I0J-76200D01*
G01*
X44523200Y-185347500D01*
G75*
G02*
X44447000Y-185423700I-76200J0D01*
G01*
X43897000Y-185423700D01*
G75*
G02*
X43820800Y-185347500I0J76200D01*
G01*
X43820800Y-184047500D01*
G75*
G02*
X43897000Y-183971300I76200J0D01*
G01*
G37*
G36*
X43655373Y-188696480D02*
G01*
X43610232Y-188722542D01*
X43597000Y-188723700D01*
X41747000Y-188723700D01*
X41698020Y-188705873D01*
X41671958Y-188660732D01*
X41670800Y-188647500D01*
X41670800Y-186047500D01*
X41688627Y-185998520D01*
X41693118Y-185993618D01*
X42195800Y-185490936D01*
X42195800Y-184047500D01*
X42213627Y-183998520D01*
X42258768Y-183972458D01*
X42272000Y-183971300D01*
X43072000Y-183971300D01*
X43120980Y-183989127D01*
X43147042Y-184034268D01*
X43148200Y-184047500D01*
X43148200Y-185490936D01*
X43650882Y-185993618D01*
X43672910Y-186040859D01*
X43673200Y-186047500D01*
X43673200Y-188647500D01*
X43655373Y-188696480D01*
G37*
G36*
G01*
X40897000Y-183971300D02*
X41447000Y-183971300D01*
G75*
G02*
X41523200Y-184047500I0J-76200D01*
G01*
X41523200Y-185347500D01*
G75*
G02*
X41447000Y-185423700I-76200J0D01*
G01*
X40897000Y-185423700D01*
G75*
G02*
X40820800Y-185347500I0J76200D01*
G01*
X40820800Y-184047500D01*
G75*
G02*
X40897000Y-183971300I76200J0D01*
G01*
G37*
G36*
G01*
X52103000Y-162430800D02*
X53053000Y-162430800D01*
G75*
G02*
X53379200Y-162757000I0J-326200D01*
G01*
X53379200Y-163257000D01*
G75*
G02*
X53053000Y-163583200I-326200J0D01*
G01*
X52103000Y-163583200D01*
G75*
G02*
X51776800Y-163257000I0J326200D01*
G01*
X51776800Y-162757000D01*
G75*
G02*
X52103000Y-162430800I326200J0D01*
G01*
G37*
G36*
G01*
X52103000Y-164330800D02*
X53053000Y-164330800D01*
G75*
G02*
X53379200Y-164657000I0J-326200D01*
G01*
X53379200Y-165157000D01*
G75*
G02*
X53053000Y-165483200I-326200J0D01*
G01*
X52103000Y-165483200D01*
G75*
G02*
X51776800Y-165157000I0J326200D01*
G01*
X51776800Y-164657000D01*
G75*
G02*
X52103000Y-164330800I326200J0D01*
G01*
G37*
G36*
X47777980Y-126445627D02*
G01*
X47804042Y-126490768D01*
X47805200Y-126504000D01*
X47805200Y-128004000D01*
X47787373Y-128052980D01*
X47742232Y-128079042D01*
X47729000Y-128080200D01*
X47229000Y-128080200D01*
X47214666Y-128074983D01*
X47147663Y-128073755D01*
X47126336Y-128070301D01*
X46991021Y-128028026D01*
X46971520Y-128018725D01*
X46853510Y-127940170D01*
X46837404Y-127925769D01*
X46746184Y-127817250D01*
X46734767Y-127798908D01*
X46677672Y-127669149D01*
X46671862Y-127648340D01*
X46654940Y-127518932D01*
X46653958Y-127517232D01*
X46652800Y-127504000D01*
X46652800Y-127004000D01*
X46653552Y-127001934D01*
X46653744Y-126986167D01*
X46675555Y-126846090D01*
X46681872Y-126825430D01*
X46742120Y-126697105D01*
X46753982Y-126679047D01*
X46847826Y-126572789D01*
X46864279Y-126558787D01*
X46984174Y-126483139D01*
X47003895Y-126474317D01*
X47140202Y-126435360D01*
X47161608Y-126432427D01*
X47209255Y-126432718D01*
X47215768Y-126428958D01*
X47229000Y-126427800D01*
X47729000Y-126427800D01*
X47777980Y-126445627D01*
G37*
G36*
X48543081Y-126432925D02*
G01*
X48603370Y-126433293D01*
X48624738Y-126436487D01*
X48760559Y-126477106D01*
X48780172Y-126486168D01*
X48899134Y-126563275D01*
X48915415Y-126577478D01*
X49007953Y-126684875D01*
X49019592Y-126703076D01*
X49078269Y-126832128D01*
X49084333Y-126852865D01*
X49104430Y-126993198D01*
X49105200Y-127004000D01*
X49105200Y-127504000D01*
X49105194Y-127504929D01*
X49105045Y-127517145D01*
X49103995Y-127528858D01*
X49080475Y-127668659D01*
X49073906Y-127689242D01*
X49012094Y-127816821D01*
X49000013Y-127834732D01*
X48904878Y-127939836D01*
X48888255Y-127953637D01*
X48767445Y-128027814D01*
X48747617Y-128036394D01*
X48610844Y-128073683D01*
X48589404Y-128076353D01*
X48548198Y-128075598D01*
X48542232Y-128079042D01*
X48529000Y-128080200D01*
X48029000Y-128080200D01*
X47980020Y-128062373D01*
X47953958Y-128017232D01*
X47952800Y-128004000D01*
X47952800Y-126504000D01*
X47970627Y-126455020D01*
X48015768Y-126428958D01*
X48029000Y-126427800D01*
X48529000Y-126427800D01*
X48543081Y-126432925D01*
G37*
G36*
G01*
X84965200Y-145575000D02*
X84965200Y-146525000D01*
G75*
G02*
X84639000Y-146851200I-326200J0D01*
G01*
X84139000Y-146851200D01*
G75*
G02*
X83812800Y-146525000I0J326200D01*
G01*
X83812800Y-145575000D01*
G75*
G02*
X84139000Y-145248800I326200J0D01*
G01*
X84639000Y-145248800D01*
G75*
G02*
X84965200Y-145575000I0J-326200D01*
G01*
G37*
G36*
G01*
X83065200Y-145575000D02*
X83065200Y-146525000D01*
G75*
G02*
X82739000Y-146851200I-326200J0D01*
G01*
X82239000Y-146851200D01*
G75*
G02*
X81912800Y-146525000I0J326200D01*
G01*
X81912800Y-145575000D01*
G75*
G02*
X82239000Y-145248800I326200J0D01*
G01*
X82739000Y-145248800D01*
G75*
G02*
X83065200Y-145575000I0J-326200D01*
G01*
G37*
G36*
G01*
X92219200Y-164627000D02*
X92219200Y-165827000D01*
G75*
G02*
X92143000Y-165903200I-76200J0D01*
G01*
X91243000Y-165903200D01*
G75*
G02*
X91166800Y-165827000I0J76200D01*
G01*
X91166800Y-164627000D01*
G75*
G02*
X91243000Y-164550800I76200J0D01*
G01*
X92143000Y-164550800D01*
G75*
G02*
X92219200Y-164627000I0J-76200D01*
G01*
G37*
G36*
G01*
X88919200Y-164627000D02*
X88919200Y-165827000D01*
G75*
G02*
X88843000Y-165903200I-76200J0D01*
G01*
X87943000Y-165903200D01*
G75*
G02*
X87866800Y-165827000I0J76200D01*
G01*
X87866800Y-164627000D01*
G75*
G02*
X87943000Y-164550800I76200J0D01*
G01*
X88843000Y-164550800D01*
G75*
G02*
X88919200Y-164627000I0J-76200D01*
G01*
G37*
G36*
G01*
X59632000Y-187175200D02*
X58732000Y-187175200D01*
G75*
G02*
X58405800Y-186849000I0J326200D01*
G01*
X58405800Y-186324000D01*
G75*
G02*
X58732000Y-185997800I326200J0D01*
G01*
X59632000Y-185997800D01*
G75*
G02*
X59958200Y-186324000I0J-326200D01*
G01*
X59958200Y-186849000D01*
G75*
G02*
X59632000Y-187175200I-326200J0D01*
G01*
G37*
G36*
G01*
X59632000Y-185350200D02*
X58732000Y-185350200D01*
G75*
G02*
X58405800Y-185024000I0J326200D01*
G01*
X58405800Y-184499000D01*
G75*
G02*
X58732000Y-184172800I326200J0D01*
G01*
X59632000Y-184172800D01*
G75*
G02*
X59958200Y-184499000I0J-326200D01*
G01*
X59958200Y-185024000D01*
G75*
G02*
X59632000Y-185350200I-326200J0D01*
G01*
G37*
M02*
