G04 #@! TF.GenerationSoftware,KiCad,Pcbnew,6.0.2+dfsg-1*
G04 #@! TF.CreationDate,2024-06-30T21:42:03-06:00*
G04 #@! TF.ProjectId,mss-cascade-basic,6d73732d-6361-4736-9361-64652d626173,rev?*
G04 #@! TF.SameCoordinates,Original*
G04 #@! TF.FileFunction,Legend,Top*
G04 #@! TF.FilePolarity,Positive*
%FSLAX46Y46*%
G04 Gerber Fmt 4.6, Leading zero omitted, Abs format (unit mm)*
G04 Created by KiCad (PCBNEW 6.0.2+dfsg-1) date 2024-06-30 21:42:03*
%MOMM*%
%LPD*%
G01*
G04 APERTURE LIST*
%ADD10C,0.000000*%
%ADD11C,0.300000*%
%ADD12C,0.254000*%
%ADD13C,0.152400*%
%ADD14C,0.150000*%
%ADD15C,0.120000*%
G04 APERTURE END LIST*
D10*
G36*
X69728943Y-140686454D02*
G01*
X69723535Y-140662295D01*
X69720133Y-140643531D01*
X69718945Y-140630861D01*
X69719246Y-140627029D01*
X69720179Y-140624983D01*
X69934414Y-140576222D01*
X70398482Y-140476199D01*
X70861889Y-140378424D01*
X71074140Y-140336410D01*
X71075050Y-140338823D01*
X71076654Y-140344734D01*
X71081548Y-140365427D01*
X71088031Y-140395247D01*
X71095307Y-140430955D01*
X71111937Y-140509206D01*
X71130853Y-140584386D01*
X71152024Y-140656448D01*
X71175420Y-140725348D01*
X71201012Y-140791040D01*
X71228768Y-140853478D01*
X71258660Y-140912618D01*
X71290657Y-140968412D01*
X71307436Y-140995041D01*
X71324730Y-141020817D01*
X71342535Y-141045734D01*
X71360848Y-141069786D01*
X71379664Y-141092968D01*
X71398981Y-141115275D01*
X71418794Y-141136699D01*
X71439100Y-141157236D01*
X71459894Y-141176881D01*
X71481174Y-141195626D01*
X71502935Y-141213468D01*
X71525173Y-141230399D01*
X71547886Y-141246415D01*
X71571068Y-141261509D01*
X71594717Y-141275676D01*
X71618829Y-141288910D01*
X71649620Y-141304240D01*
X71680606Y-141317949D01*
X71711788Y-141330037D01*
X71743161Y-141340504D01*
X71774725Y-141349352D01*
X71806476Y-141356578D01*
X71838414Y-141362184D01*
X71870536Y-141366169D01*
X71902839Y-141368534D01*
X71935323Y-141369278D01*
X71967984Y-141368402D01*
X72000821Y-141365905D01*
X72033832Y-141361787D01*
X72067014Y-141356049D01*
X72100365Y-141348690D01*
X72133885Y-141339711D01*
X72183274Y-141323268D01*
X72230054Y-141303382D01*
X72274144Y-141280166D01*
X72315466Y-141253732D01*
X72353939Y-141224194D01*
X72389484Y-141191664D01*
X72422022Y-141156255D01*
X72451473Y-141118078D01*
X72477756Y-141077248D01*
X72500794Y-141033876D01*
X72520506Y-140988075D01*
X72536812Y-140939958D01*
X72549633Y-140889638D01*
X72558889Y-140837227D01*
X72564502Y-140782838D01*
X72566390Y-140726583D01*
X72565790Y-140695508D01*
X72563974Y-140665205D01*
X72560916Y-140635606D01*
X72556589Y-140606639D01*
X72550969Y-140578234D01*
X72544029Y-140550321D01*
X72535743Y-140522830D01*
X72526085Y-140495690D01*
X72515030Y-140468831D01*
X72502552Y-140442184D01*
X72488625Y-140415676D01*
X72473223Y-140389239D01*
X72456321Y-140362802D01*
X72437892Y-140336295D01*
X72417911Y-140309647D01*
X72396351Y-140282788D01*
X72367287Y-140248898D01*
X72336649Y-140215791D01*
X72303935Y-140183126D01*
X72268645Y-140150563D01*
X72230280Y-140117760D01*
X72188339Y-140084376D01*
X72142321Y-140050070D01*
X72091727Y-140014501D01*
X71974809Y-139938210D01*
X71833582Y-139852775D01*
X71664045Y-139755466D01*
X71462196Y-139643556D01*
X71299026Y-139553399D01*
X71158553Y-139474090D01*
X71037279Y-139403446D01*
X70931706Y-139339285D01*
X70838337Y-139279423D01*
X70753675Y-139221677D01*
X70674221Y-139163866D01*
X70596479Y-139103805D01*
X70555302Y-139069733D01*
X70510214Y-139030064D01*
X70462993Y-138986541D01*
X70415416Y-138940910D01*
X70369261Y-138894916D01*
X70326306Y-138850302D01*
X70288329Y-138808813D01*
X70271762Y-138789786D01*
X70257107Y-138772195D01*
X70211877Y-138713689D01*
X70169841Y-138654291D01*
X70130984Y-138593953D01*
X70095292Y-138532625D01*
X70062750Y-138470260D01*
X70033344Y-138406809D01*
X70007059Y-138342223D01*
X69983880Y-138276453D01*
X69963794Y-138209452D01*
X69946786Y-138141170D01*
X69932842Y-138071559D01*
X69921946Y-138000570D01*
X69914084Y-137928155D01*
X69909243Y-137854265D01*
X69907407Y-137778852D01*
X69908562Y-137701867D01*
X69912879Y-137616372D01*
X69919745Y-137532919D01*
X69929164Y-137451500D01*
X69941139Y-137372107D01*
X69955673Y-137294732D01*
X69972769Y-137219366D01*
X69992431Y-137146000D01*
X70014660Y-137074628D01*
X70039461Y-137005239D01*
X70066837Y-136937827D01*
X70096790Y-136872383D01*
X70129324Y-136808898D01*
X70164442Y-136747364D01*
X70202146Y-136687774D01*
X70242441Y-136630118D01*
X70285329Y-136574389D01*
X70296896Y-136560522D01*
X70310030Y-136545508D01*
X70340197Y-136512807D01*
X70374217Y-136477824D01*
X70410477Y-136442097D01*
X70447366Y-136407164D01*
X70483271Y-136374562D01*
X70516579Y-136345830D01*
X70531756Y-136333396D01*
X70545679Y-136322506D01*
X70598523Y-136284697D01*
X70653314Y-136248803D01*
X70710012Y-136214835D01*
X70768580Y-136182806D01*
X70828979Y-136152728D01*
X70891171Y-136124614D01*
X70955118Y-136098476D01*
X71020782Y-136074327D01*
X71088125Y-136052178D01*
X71157108Y-136032043D01*
X71227692Y-136013933D01*
X71299841Y-135997862D01*
X71373514Y-135983841D01*
X71448676Y-135971883D01*
X71525286Y-135962000D01*
X71603307Y-135954206D01*
X71650681Y-135951397D01*
X71712293Y-135949333D01*
X71783265Y-135948029D01*
X71858718Y-135947503D01*
X71933774Y-135947770D01*
X72003555Y-135948848D01*
X72063183Y-135950752D01*
X72107779Y-135953500D01*
X72263414Y-135972758D01*
X72413492Y-136001596D01*
X72486390Y-136019564D01*
X72557830Y-136039873D01*
X72627790Y-136062506D01*
X72696245Y-136087445D01*
X72763174Y-136114673D01*
X72828554Y-136144171D01*
X72892361Y-136175921D01*
X72954574Y-136209906D01*
X73015168Y-136246108D01*
X73074121Y-136284509D01*
X73131411Y-136325092D01*
X73187014Y-136367838D01*
X73240908Y-136412729D01*
X73293069Y-136459748D01*
X73343475Y-136508877D01*
X73392104Y-136560099D01*
X73438931Y-136613394D01*
X73483934Y-136668746D01*
X73527091Y-136726137D01*
X73568378Y-136785548D01*
X73607773Y-136846963D01*
X73645252Y-136910363D01*
X73680794Y-136975729D01*
X73714374Y-137043046D01*
X73745971Y-137112294D01*
X73775561Y-137183456D01*
X73828629Y-137331450D01*
X73839996Y-137367636D01*
X73851967Y-137408344D01*
X73863889Y-137451021D01*
X73875107Y-137493110D01*
X73884970Y-137532058D01*
X73892823Y-137565308D01*
X73898014Y-137590307D01*
X73899407Y-137598914D01*
X73899890Y-137604500D01*
X73898119Y-137606414D01*
X73892636Y-137609298D01*
X73869507Y-137618280D01*
X73767422Y-137651243D01*
X73577231Y-137708283D01*
X73282529Y-137794294D01*
X73042353Y-137863725D01*
X72845437Y-137920059D01*
X72712021Y-137957608D01*
X72675451Y-137967560D01*
X72662346Y-137970683D01*
X72661147Y-137968205D01*
X72658708Y-137962106D01*
X72650704Y-137940697D01*
X72639525Y-137909763D01*
X72626362Y-137872611D01*
X72595748Y-137789094D01*
X72564443Y-137710988D01*
X72532366Y-137638196D01*
X72499439Y-137570622D01*
X72465582Y-137508171D01*
X72430715Y-137450745D01*
X72412878Y-137423887D01*
X72394759Y-137398250D01*
X72376347Y-137373821D01*
X72357634Y-137350588D01*
X72338608Y-137328540D01*
X72319260Y-137307664D01*
X72299580Y-137287949D01*
X72279558Y-137269382D01*
X72259184Y-137251951D01*
X72238449Y-137235645D01*
X72217341Y-137220451D01*
X72195852Y-137206357D01*
X72173971Y-137193352D01*
X72151688Y-137181423D01*
X72128994Y-137170558D01*
X72105879Y-137160745D01*
X72082331Y-137151973D01*
X72058343Y-137144229D01*
X72033903Y-137137501D01*
X72009001Y-137131778D01*
X71992346Y-137128537D01*
X71974513Y-137125694D01*
X71955682Y-137123249D01*
X71936031Y-137121205D01*
X71894986Y-137118321D01*
X71852809Y-137117049D01*
X71810929Y-137117398D01*
X71770777Y-137119376D01*
X71751796Y-137120978D01*
X71733784Y-137122990D01*
X71716918Y-137125414D01*
X71701379Y-137128250D01*
X71655886Y-137139348D01*
X71613063Y-137153067D01*
X71572903Y-137169418D01*
X71535397Y-137188410D01*
X71517637Y-137198899D01*
X71500537Y-137210051D01*
X71484096Y-137221869D01*
X71468314Y-137234352D01*
X71453189Y-137247502D01*
X71438721Y-137261321D01*
X71424907Y-137275810D01*
X71411748Y-137290969D01*
X71399242Y-137306799D01*
X71387389Y-137323303D01*
X71376186Y-137340481D01*
X71365634Y-137358334D01*
X71346475Y-137396071D01*
X71329904Y-137436523D01*
X71315913Y-137479699D01*
X71304493Y-137525609D01*
X71295636Y-137574261D01*
X71289334Y-137625667D01*
X71287518Y-137647121D01*
X71286312Y-137667622D01*
X71285733Y-137687260D01*
X71285796Y-137706122D01*
X71286516Y-137724298D01*
X71287908Y-137741876D01*
X71289989Y-137758947D01*
X71292774Y-137775597D01*
X71296278Y-137791917D01*
X71300517Y-137807995D01*
X71305507Y-137823920D01*
X71311262Y-137839781D01*
X71317799Y-137855666D01*
X71325132Y-137871666D01*
X71333278Y-137887868D01*
X71342251Y-137904361D01*
X71353622Y-137923586D01*
X71366309Y-137942905D01*
X71380323Y-137962327D01*
X71395675Y-137981862D01*
X71412375Y-138001521D01*
X71430432Y-138021315D01*
X71449858Y-138041254D01*
X71470662Y-138061347D01*
X71492856Y-138081606D01*
X71516449Y-138102041D01*
X71541452Y-138122661D01*
X71567875Y-138143478D01*
X71595728Y-138164502D01*
X71625022Y-138185743D01*
X71655767Y-138207211D01*
X71687973Y-138228917D01*
X71733472Y-138258615D01*
X71779177Y-138287378D01*
X71827810Y-138316787D01*
X71882089Y-138348420D01*
X72018471Y-138424675D01*
X72210084Y-138528778D01*
X72341153Y-138599541D01*
X72453766Y-138661103D01*
X72550901Y-138715173D01*
X72635535Y-138763463D01*
X72710643Y-138807686D01*
X72779203Y-138849552D01*
X72844191Y-138890773D01*
X72908584Y-138933061D01*
X73030674Y-139018086D01*
X73144602Y-139104469D01*
X73250475Y-139192378D01*
X73348399Y-139281980D01*
X73438481Y-139373442D01*
X73520826Y-139466932D01*
X73595542Y-139562617D01*
X73662735Y-139660665D01*
X73722512Y-139761243D01*
X73774978Y-139864518D01*
X73820240Y-139970659D01*
X73858406Y-140079831D01*
X73889580Y-140192204D01*
X73913870Y-140307943D01*
X73931382Y-140427218D01*
X73942223Y-140550194D01*
X73945247Y-140625774D01*
X73945376Y-140703719D01*
X73942695Y-140783086D01*
X73937284Y-140862932D01*
X73929228Y-140942315D01*
X73918609Y-141020293D01*
X73905509Y-141095922D01*
X73890012Y-141168261D01*
X73853913Y-141299539D01*
X73808986Y-141425235D01*
X73755431Y-141545171D01*
X73693449Y-141659173D01*
X73623239Y-141767065D01*
X73545004Y-141868671D01*
X73458942Y-141963815D01*
X73365255Y-142052322D01*
X73264143Y-142134016D01*
X73155807Y-142208721D01*
X73040447Y-142276262D01*
X72918264Y-142336462D01*
X72789458Y-142389147D01*
X72654229Y-142434140D01*
X72512778Y-142471266D01*
X72365307Y-142500349D01*
X72259053Y-142515688D01*
X72149748Y-142527282D01*
X72038840Y-142535089D01*
X71927774Y-142539067D01*
X71817998Y-142539176D01*
X71710959Y-142535374D01*
X71608104Y-142527620D01*
X71558697Y-142522248D01*
X71510879Y-142515872D01*
X71396110Y-142495988D01*
X71284647Y-142470740D01*
X71176503Y-142440135D01*
X71071693Y-142404185D01*
X70970232Y-142362897D01*
X70872134Y-142316281D01*
X70777413Y-142264347D01*
X70686085Y-142207103D01*
X70598163Y-142144560D01*
X70513662Y-142076725D01*
X70432596Y-142003610D01*
X70354981Y-141925223D01*
X70280829Y-141841572D01*
X70210157Y-141752669D01*
X70142978Y-141658521D01*
X70079307Y-141559139D01*
X70055727Y-141518564D01*
X70029179Y-141469886D01*
X70000862Y-141415519D01*
X69971974Y-141357879D01*
X69943715Y-141299378D01*
X69917282Y-141242432D01*
X69893876Y-141189455D01*
X69874695Y-141142861D01*
X69847654Y-141071065D01*
X69819497Y-140990108D01*
X69791885Y-140905579D01*
X69766481Y-140823068D01*
X69751620Y-140771378D01*
X69947839Y-140771378D01*
X69948073Y-140774825D01*
X69948770Y-140779157D01*
X69949945Y-140784495D01*
X69951611Y-140790959D01*
X69953784Y-140798671D01*
X69959707Y-140818320D01*
X69967829Y-140844411D01*
X69986171Y-140900996D01*
X70005458Y-140956937D01*
X70025658Y-141012169D01*
X70046741Y-141066628D01*
X70068676Y-141120247D01*
X70091431Y-141172961D01*
X70114976Y-141224706D01*
X70139279Y-141275417D01*
X70164310Y-141325028D01*
X70190038Y-141373474D01*
X70216431Y-141420690D01*
X70243459Y-141466611D01*
X70271090Y-141511173D01*
X70299294Y-141554308D01*
X70328040Y-141595954D01*
X70357296Y-141636044D01*
X70418534Y-141713569D01*
X70482408Y-141786611D01*
X70548940Y-141855184D01*
X70618153Y-141919303D01*
X70690070Y-141978981D01*
X70764713Y-142034234D01*
X70842105Y-142085075D01*
X70922269Y-142131521D01*
X71005228Y-142173583D01*
X71091005Y-142211279D01*
X71179621Y-142244621D01*
X71271100Y-142273624D01*
X71365465Y-142298303D01*
X71462739Y-142318672D01*
X71562943Y-142334746D01*
X71666101Y-142346538D01*
X71721843Y-142350128D01*
X71789640Y-142351973D01*
X71865605Y-142352181D01*
X71945854Y-142350860D01*
X72026500Y-142348116D01*
X72103656Y-142344058D01*
X72173437Y-142338792D01*
X72231957Y-142332427D01*
X72314591Y-142320058D01*
X72395015Y-142305437D01*
X72473235Y-142288563D01*
X72549258Y-142269434D01*
X72623090Y-142248048D01*
X72694738Y-142224403D01*
X72764206Y-142198496D01*
X72831502Y-142170326D01*
X72896632Y-142139890D01*
X72959602Y-142107187D01*
X73020418Y-142072214D01*
X73079086Y-142034970D01*
X73135613Y-141995451D01*
X73190005Y-141953657D01*
X73242267Y-141909585D01*
X73292407Y-141863233D01*
X73338383Y-141816797D01*
X73381874Y-141768997D01*
X73422910Y-141719775D01*
X73461519Y-141669073D01*
X73497731Y-141616833D01*
X73531573Y-141562997D01*
X73563076Y-141507508D01*
X73592268Y-141450307D01*
X73619177Y-141391336D01*
X73643834Y-141330539D01*
X73666266Y-141267856D01*
X73686504Y-141203230D01*
X73704575Y-141136603D01*
X73720508Y-141067918D01*
X73734333Y-140997115D01*
X73746079Y-140924139D01*
X73748652Y-140902841D01*
X73750817Y-140876955D01*
X73753950Y-140814028D01*
X73755530Y-140740584D01*
X73755604Y-140661848D01*
X73754223Y-140583047D01*
X73751437Y-140509404D01*
X73747294Y-140446147D01*
X73741845Y-140398500D01*
X73735118Y-140359753D01*
X73726786Y-140317923D01*
X73717165Y-140274290D01*
X73706568Y-140230136D01*
X73695309Y-140186743D01*
X73683704Y-140145393D01*
X73672065Y-140107366D01*
X73660707Y-140073944D01*
X73649852Y-140045584D01*
X73637962Y-140016662D01*
X73625095Y-139987277D01*
X73611307Y-139957528D01*
X73596654Y-139927514D01*
X73581195Y-139897335D01*
X73548082Y-139836878D01*
X73512423Y-139776949D01*
X73474671Y-139718344D01*
X73455153Y-139689786D01*
X73435283Y-139661856D01*
X73415117Y-139634653D01*
X73394712Y-139608277D01*
X73380924Y-139591545D01*
X73364639Y-139572774D01*
X73325843Y-139530358D01*
X73280846Y-139483510D01*
X73232170Y-139434711D01*
X73182336Y-139386441D01*
X73133866Y-139341181D01*
X73089283Y-139301411D01*
X73051107Y-139269611D01*
X72963647Y-139202399D01*
X72876757Y-139139238D01*
X72786180Y-139077499D01*
X72687658Y-139014553D01*
X72576931Y-138947770D01*
X72449742Y-138874522D01*
X72301833Y-138792179D01*
X72128946Y-138698111D01*
X71955005Y-138603385D01*
X71809913Y-138522251D01*
X71746927Y-138485965D01*
X71689642Y-138452098D01*
X71637556Y-138420323D01*
X71590166Y-138390312D01*
X71546967Y-138361741D01*
X71507457Y-138334281D01*
X71471133Y-138307607D01*
X71437490Y-138281392D01*
X71406026Y-138255309D01*
X71376238Y-138229032D01*
X71347621Y-138202234D01*
X71319673Y-138174589D01*
X71292916Y-138146855D01*
X71268171Y-138119673D01*
X71245380Y-138092930D01*
X71224489Y-138066517D01*
X71205443Y-138040324D01*
X71188184Y-138014239D01*
X71172657Y-137988152D01*
X71158807Y-137961952D01*
X71146577Y-137935529D01*
X71135912Y-137908772D01*
X71126756Y-137881571D01*
X71119053Y-137853815D01*
X71112747Y-137825393D01*
X71107783Y-137796195D01*
X71104105Y-137766110D01*
X71101657Y-137735028D01*
X71099967Y-137686174D01*
X71100940Y-137637618D01*
X71104509Y-137589528D01*
X71110609Y-137542069D01*
X71119172Y-137495409D01*
X71130133Y-137449712D01*
X71143425Y-137405146D01*
X71158983Y-137361877D01*
X71176741Y-137320072D01*
X71196631Y-137279896D01*
X71218589Y-137241517D01*
X71242547Y-137205100D01*
X71268441Y-137170813D01*
X71296203Y-137138821D01*
X71325767Y-137109291D01*
X71341205Y-137095501D01*
X71357068Y-137082389D01*
X71403650Y-137048955D01*
X71453930Y-137019575D01*
X71507456Y-136994267D01*
X71563774Y-136973050D01*
X71622431Y-136955942D01*
X71682977Y-136942962D01*
X71744956Y-136934128D01*
X71807918Y-136929460D01*
X71871408Y-136928975D01*
X71934976Y-136932693D01*
X71998167Y-136940631D01*
X72060529Y-136952809D01*
X72121609Y-136969245D01*
X72180956Y-136989958D01*
X72238115Y-137014966D01*
X72292635Y-137044289D01*
X72308478Y-137054303D01*
X72325457Y-137066228D01*
X72343382Y-137079876D01*
X72362066Y-137095056D01*
X72381320Y-137111579D01*
X72400957Y-137129257D01*
X72420788Y-137147901D01*
X72440625Y-137167320D01*
X72460280Y-137187327D01*
X72479565Y-137207731D01*
X72498293Y-137228344D01*
X72516274Y-137248977D01*
X72533320Y-137269440D01*
X72549245Y-137289545D01*
X72563858Y-137309102D01*
X72576974Y-137327922D01*
X72599044Y-137362875D01*
X72622041Y-137401961D01*
X72645435Y-137444157D01*
X72668696Y-137488436D01*
X72691296Y-137533774D01*
X72712705Y-137579144D01*
X72732394Y-137623523D01*
X72749834Y-137665884D01*
X72754170Y-137676770D01*
X72758194Y-137686695D01*
X72761924Y-137695689D01*
X72765379Y-137703785D01*
X72768577Y-137711012D01*
X72771538Y-137717403D01*
X72772936Y-137720293D01*
X72774280Y-137722987D01*
X72775575Y-137725486D01*
X72776822Y-137727796D01*
X72778023Y-137729919D01*
X72779181Y-137731861D01*
X72780299Y-137733624D01*
X72781378Y-137735212D01*
X72782420Y-137736630D01*
X72783429Y-137737882D01*
X72784406Y-137738971D01*
X72785355Y-137739900D01*
X72786276Y-137740675D01*
X72787173Y-137741299D01*
X72788047Y-137741775D01*
X72788902Y-137742108D01*
X72789739Y-137742301D01*
X72790560Y-137742359D01*
X72791369Y-137742285D01*
X72792168Y-137742083D01*
X73229612Y-137615083D01*
X73534500Y-137526448D01*
X73629960Y-137498105D01*
X73657221Y-137489750D01*
X73668468Y-137485967D01*
X73670194Y-137485118D01*
X73671658Y-137484105D01*
X73672847Y-137482846D01*
X73673748Y-137481259D01*
X73674348Y-137479263D01*
X73674632Y-137476777D01*
X73674587Y-137473717D01*
X73674200Y-137470003D01*
X73673458Y-137465554D01*
X73672347Y-137460287D01*
X73668964Y-137446974D01*
X73663944Y-137429411D01*
X73657179Y-137406944D01*
X73642567Y-137361529D01*
X73626797Y-137316344D01*
X73609906Y-137271452D01*
X73591926Y-137226917D01*
X73572892Y-137182805D01*
X73552838Y-137139178D01*
X73531798Y-137096101D01*
X73509806Y-137053637D01*
X73486896Y-137011852D01*
X73463103Y-136970809D01*
X73438460Y-136930572D01*
X73413001Y-136891205D01*
X73386762Y-136852773D01*
X73359775Y-136815339D01*
X73332074Y-136778967D01*
X73303695Y-136743722D01*
X73291157Y-136729024D01*
X73277207Y-136713353D01*
X73245774Y-136679759D01*
X73210802Y-136644280D01*
X73173697Y-136608256D01*
X73135864Y-136573025D01*
X73098709Y-136539927D01*
X73063638Y-136510302D01*
X73047323Y-136497210D01*
X73032057Y-136485489D01*
X72986570Y-136452555D01*
X72940057Y-136421221D01*
X72892501Y-136391480D01*
X72843883Y-136363328D01*
X72794186Y-136336760D01*
X72743392Y-136311769D01*
X72691484Y-136288352D01*
X72638445Y-136266502D01*
X72584256Y-136246215D01*
X72528901Y-136227486D01*
X72472361Y-136210309D01*
X72414619Y-136194679D01*
X72355657Y-136180591D01*
X72295458Y-136168040D01*
X72234005Y-136157021D01*
X72171279Y-136147528D01*
X72125072Y-136142849D01*
X72062899Y-136138940D01*
X71989894Y-136135907D01*
X71911193Y-136133858D01*
X71831930Y-136132900D01*
X71757239Y-136133141D01*
X71692255Y-136134689D01*
X71642112Y-136137650D01*
X71481075Y-136156408D01*
X71403717Y-136169030D01*
X71328478Y-136183803D01*
X71255365Y-136200720D01*
X71184390Y-136219772D01*
X71115559Y-136240953D01*
X71048883Y-136264253D01*
X70984370Y-136289666D01*
X70922030Y-136317184D01*
X70861870Y-136346799D01*
X70803900Y-136378504D01*
X70748129Y-136412289D01*
X70694566Y-136448149D01*
X70643219Y-136486075D01*
X70594098Y-136526058D01*
X70547211Y-136568093D01*
X70502568Y-136612170D01*
X70460177Y-136658282D01*
X70420047Y-136706421D01*
X70382188Y-136756580D01*
X70346607Y-136808751D01*
X70313315Y-136862926D01*
X70282319Y-136919097D01*
X70253630Y-136977256D01*
X70227255Y-137037397D01*
X70203203Y-137099510D01*
X70181484Y-137163588D01*
X70162107Y-137229624D01*
X70145080Y-137297610D01*
X70130412Y-137367538D01*
X70118112Y-137439400D01*
X70110596Y-137493339D01*
X70104451Y-137546896D01*
X70099673Y-137600006D01*
X70096262Y-137652599D01*
X70094216Y-137704609D01*
X70093531Y-137755970D01*
X70094207Y-137806613D01*
X70096240Y-137856471D01*
X70099630Y-137905478D01*
X70104373Y-137953567D01*
X70110469Y-138000669D01*
X70117914Y-138046718D01*
X70126707Y-138091647D01*
X70136846Y-138135388D01*
X70148328Y-138177874D01*
X70161151Y-138219039D01*
X70175469Y-138259901D01*
X70191657Y-138300934D01*
X70209649Y-138342044D01*
X70229381Y-138383135D01*
X70250787Y-138424116D01*
X70273802Y-138464890D01*
X70298361Y-138505365D01*
X70324399Y-138545446D01*
X70351851Y-138585040D01*
X70380652Y-138624051D01*
X70410737Y-138662386D01*
X70442040Y-138699952D01*
X70474496Y-138736653D01*
X70508041Y-138772397D01*
X70542609Y-138807088D01*
X70578135Y-138840633D01*
X70662206Y-138914565D01*
X70749188Y-138985074D01*
X70842850Y-139054623D01*
X70946964Y-139125677D01*
X71065299Y-139200701D01*
X71201625Y-139282157D01*
X71359714Y-139372509D01*
X71543334Y-139474222D01*
X71749092Y-139587805D01*
X71831118Y-139633877D01*
X71901933Y-139674335D01*
X71963553Y-139710328D01*
X72017997Y-139743006D01*
X72067281Y-139773517D01*
X72113423Y-139803011D01*
X72173634Y-139843288D01*
X72230248Y-139882969D01*
X72283373Y-139922168D01*
X72333116Y-139961000D01*
X72379584Y-139999580D01*
X72422887Y-140038023D01*
X72463129Y-140076443D01*
X72500421Y-140114955D01*
X72534867Y-140153673D01*
X72566577Y-140192713D01*
X72595658Y-140232189D01*
X72622217Y-140272216D01*
X72646362Y-140312909D01*
X72668199Y-140354382D01*
X72687838Y-140396750D01*
X72705384Y-140440128D01*
X72715148Y-140468276D01*
X72723800Y-140497600D01*
X72731336Y-140527970D01*
X72737752Y-140559256D01*
X72743043Y-140591328D01*
X72747205Y-140624054D01*
X72750235Y-140657306D01*
X72752127Y-140690953D01*
X72752879Y-140724864D01*
X72752486Y-140758909D01*
X72750943Y-140792959D01*
X72748247Y-140826882D01*
X72744393Y-140860550D01*
X72739378Y-140893830D01*
X72733197Y-140926594D01*
X72725846Y-140958711D01*
X72706553Y-141023930D01*
X72682893Y-141085901D01*
X72654999Y-141144520D01*
X72623000Y-141199681D01*
X72587028Y-141251277D01*
X72547215Y-141299205D01*
X72503691Y-141343358D01*
X72456588Y-141383632D01*
X72406037Y-141419920D01*
X72352170Y-141452118D01*
X72295117Y-141480119D01*
X72235011Y-141503819D01*
X72171981Y-141523112D01*
X72106160Y-141537892D01*
X72037678Y-141548055D01*
X71966668Y-141553494D01*
X71922995Y-141554283D01*
X71879837Y-141552963D01*
X71837218Y-141549555D01*
X71795165Y-141544083D01*
X71753705Y-141536571D01*
X71712863Y-141527041D01*
X71672666Y-141515517D01*
X71633139Y-141502022D01*
X71594308Y-141486578D01*
X71556200Y-141469209D01*
X71518841Y-141449938D01*
X71482257Y-141428789D01*
X71446474Y-141405783D01*
X71411518Y-141380945D01*
X71377415Y-141354298D01*
X71344192Y-141325864D01*
X71311873Y-141295667D01*
X71280487Y-141263730D01*
X71250057Y-141230076D01*
X71220612Y-141194729D01*
X71164776Y-141119044D01*
X71113188Y-141036862D01*
X71066057Y-140948367D01*
X71023591Y-140853744D01*
X70985999Y-140753179D01*
X70953490Y-140646855D01*
X70948780Y-140629026D01*
X70944252Y-140612305D01*
X70940021Y-140597072D01*
X70936204Y-140583708D01*
X70932916Y-140572593D01*
X70930273Y-140564107D01*
X70928391Y-140558631D01*
X70927771Y-140557140D01*
X70927385Y-140556545D01*
X70462512Y-140653646D01*
X69957951Y-140761861D01*
X69953109Y-140763180D01*
X69951245Y-140764017D01*
X69949771Y-140765135D01*
X69948703Y-140766654D01*
X69948054Y-140768694D01*
X69947839Y-140771378D01*
X69751620Y-140771378D01*
X69744946Y-140748163D01*
X69728943Y-140686454D01*
G37*
G36*
X68085407Y-133626402D02*
G01*
X68128005Y-133627749D01*
X68167692Y-133629907D01*
X68201691Y-133632826D01*
X68215689Y-133634555D01*
X68227223Y-133636456D01*
X68257971Y-133642837D01*
X68288293Y-133650335D01*
X68318176Y-133658941D01*
X68347609Y-133668647D01*
X68376579Y-133679444D01*
X68405073Y-133691324D01*
X68433080Y-133704279D01*
X68460586Y-133718300D01*
X68487580Y-133733380D01*
X68514048Y-133749510D01*
X68539980Y-133766682D01*
X68565361Y-133784887D01*
X68590180Y-133804118D01*
X68614425Y-133824365D01*
X68638082Y-133845621D01*
X68661140Y-133867878D01*
X68680975Y-133888358D01*
X68699999Y-133909314D01*
X68718211Y-133930744D01*
X68735609Y-133952644D01*
X68752193Y-133975011D01*
X68767961Y-133997842D01*
X68782913Y-134021134D01*
X68797048Y-134044884D01*
X68810364Y-134069089D01*
X68822860Y-134093745D01*
X68834535Y-134118850D01*
X68845389Y-134144401D01*
X68855421Y-134170393D01*
X68864628Y-134196825D01*
X68873011Y-134223693D01*
X68880568Y-134250994D01*
X68887059Y-134278396D01*
X68892513Y-134306797D01*
X68896933Y-134336053D01*
X68900323Y-134366022D01*
X68902689Y-134396562D01*
X68904033Y-134427529D01*
X68904360Y-134458782D01*
X68903675Y-134490178D01*
X68901980Y-134521573D01*
X68899282Y-134552826D01*
X68895582Y-134583794D01*
X68890886Y-134614334D01*
X68885199Y-134644303D01*
X68878523Y-134673559D01*
X68870863Y-134701959D01*
X68862223Y-134729361D01*
X68853729Y-134753302D01*
X68844640Y-134776723D01*
X68834938Y-134799650D01*
X68824608Y-134822109D01*
X68813634Y-134844125D01*
X68801998Y-134865725D01*
X68789683Y-134886934D01*
X68776675Y-134907778D01*
X68762955Y-134928284D01*
X68748508Y-134948476D01*
X68733316Y-134968381D01*
X68717364Y-134988024D01*
X68700635Y-135007432D01*
X68683112Y-135026630D01*
X68664778Y-135045644D01*
X68645618Y-135064500D01*
X68617621Y-135090446D01*
X68588923Y-135114841D01*
X68559518Y-135137688D01*
X68529400Y-135158989D01*
X68498562Y-135178749D01*
X68466999Y-135196969D01*
X68434705Y-135213654D01*
X68401672Y-135228806D01*
X68367895Y-135242429D01*
X68333368Y-135254525D01*
X68298085Y-135265097D01*
X68262038Y-135274149D01*
X68225223Y-135281684D01*
X68187632Y-135287705D01*
X68149261Y-135292215D01*
X68110101Y-135295217D01*
X68066376Y-135296545D01*
X68022833Y-135295521D01*
X67979554Y-135292176D01*
X67936623Y-135286540D01*
X67894121Y-135278643D01*
X67852132Y-135268514D01*
X67810739Y-135256184D01*
X67770023Y-135241683D01*
X67730069Y-135225040D01*
X67690957Y-135206285D01*
X67652772Y-135185449D01*
X67615595Y-135162561D01*
X67579510Y-135137652D01*
X67544599Y-135110751D01*
X67510944Y-135081889D01*
X67478629Y-135051094D01*
X67449237Y-135020449D01*
X67421660Y-134988857D01*
X67395907Y-134956347D01*
X67371991Y-134922948D01*
X67349923Y-134888689D01*
X67329714Y-134853599D01*
X67311376Y-134817708D01*
X67294920Y-134781043D01*
X67280357Y-134743634D01*
X67267700Y-134705510D01*
X67256958Y-134666700D01*
X67248144Y-134627232D01*
X67241269Y-134587136D01*
X67236344Y-134546440D01*
X67233380Y-134505174D01*
X67232390Y-134463366D01*
X67233146Y-134426893D01*
X67235398Y-134390784D01*
X67239117Y-134355074D01*
X67244278Y-134319797D01*
X67250855Y-134284987D01*
X67258821Y-134250679D01*
X67268149Y-134216906D01*
X67278814Y-134183702D01*
X67290787Y-134151102D01*
X67304044Y-134119140D01*
X67318557Y-134087849D01*
X67334300Y-134057265D01*
X67351247Y-134027420D01*
X67369371Y-133998349D01*
X67388645Y-133970087D01*
X67409044Y-133942667D01*
X67430540Y-133916123D01*
X67453107Y-133890490D01*
X67476719Y-133865802D01*
X67501349Y-133842092D01*
X67526970Y-133819395D01*
X67553557Y-133797746D01*
X67581083Y-133777177D01*
X67609521Y-133757723D01*
X67638844Y-133739419D01*
X67669027Y-133722298D01*
X67700042Y-133706395D01*
X67731864Y-133691743D01*
X67764466Y-133678377D01*
X67797821Y-133666330D01*
X67831902Y-133655638D01*
X67866685Y-133646334D01*
X67889284Y-133641020D01*
X67910958Y-133636103D01*
X67920662Y-133634000D01*
X67929192Y-133632245D01*
X67936234Y-133630919D01*
X67941473Y-133630106D01*
X67953504Y-133628782D01*
X67967932Y-133627716D01*
X68002592Y-133626335D01*
X68042677Y-133625914D01*
X68085407Y-133626402D01*
G37*
G36*
X78076779Y-136031111D02*
G01*
X78076779Y-137272889D01*
X76002445Y-137272889D01*
X76002445Y-138521722D01*
X77582890Y-138521722D01*
X77582890Y-139756444D01*
X76002445Y-139756444D01*
X76002445Y-141216944D01*
X78161446Y-141216944D01*
X78161446Y-142451666D01*
X74626612Y-142451666D01*
X74626612Y-142268222D01*
X74810056Y-142268222D01*
X77978001Y-142268222D01*
X77978001Y-141400389D01*
X75819000Y-141400389D01*
X75819000Y-139573000D01*
X77399445Y-139573000D01*
X77399445Y-138705167D01*
X75819000Y-138705167D01*
X75819000Y-137082389D01*
X77893334Y-137082389D01*
X77893334Y-136214556D01*
X74810056Y-136214556D01*
X74810056Y-142268222D01*
X74626612Y-142268222D01*
X74626612Y-136031111D01*
X78076779Y-136031111D01*
G37*
G36*
X69419384Y-139865762D02*
G01*
X69434251Y-139867531D01*
X69449034Y-139870200D01*
X69463621Y-139873743D01*
X69477903Y-139878128D01*
X69491768Y-139883328D01*
X69505106Y-139889314D01*
X69517806Y-139896056D01*
X69529758Y-139903525D01*
X69540851Y-139911694D01*
X69546040Y-139916031D01*
X69550974Y-139920532D01*
X69555638Y-139925193D01*
X69560018Y-139930011D01*
X69568768Y-139940556D01*
X69576768Y-139951402D01*
X69584023Y-139962519D01*
X69590537Y-139973878D01*
X69596317Y-139985448D01*
X69601369Y-139997199D01*
X69605697Y-140009102D01*
X69609307Y-140021127D01*
X69612206Y-140033243D01*
X69614398Y-140045422D01*
X69615889Y-140057633D01*
X69616684Y-140069847D01*
X69616790Y-140082033D01*
X69616211Y-140094162D01*
X69614953Y-140106204D01*
X69613023Y-140118129D01*
X69610424Y-140129908D01*
X69607164Y-140141509D01*
X69603247Y-140152905D01*
X69598679Y-140164064D01*
X69593465Y-140174956D01*
X69587612Y-140185553D01*
X69581124Y-140195824D01*
X69574008Y-140205740D01*
X69566268Y-140215269D01*
X69557911Y-140224384D01*
X69548941Y-140233053D01*
X69539365Y-140241247D01*
X69529188Y-140248937D01*
X69518416Y-140256091D01*
X69507053Y-140262681D01*
X69495107Y-140268677D01*
X69485172Y-140272894D01*
X69474731Y-140276549D01*
X69463856Y-140279641D01*
X69452619Y-140282171D01*
X69441093Y-140284139D01*
X69429349Y-140285545D01*
X69417461Y-140286388D01*
X69405501Y-140286669D01*
X69393541Y-140286388D01*
X69381653Y-140285545D01*
X69369909Y-140284139D01*
X69358383Y-140282171D01*
X69347146Y-140279641D01*
X69336271Y-140276549D01*
X69325830Y-140272894D01*
X69315896Y-140268677D01*
X69309261Y-140265231D01*
X69302140Y-140261050D01*
X69294660Y-140256242D01*
X69286946Y-140250917D01*
X69279124Y-140245183D01*
X69271321Y-140239148D01*
X69263663Y-140232920D01*
X69256276Y-140226609D01*
X69249286Y-140220322D01*
X69242818Y-140214169D01*
X69237000Y-140208258D01*
X69231956Y-140202697D01*
X69227814Y-140197595D01*
X69226121Y-140195250D01*
X69224700Y-140193061D01*
X69223567Y-140191040D01*
X69222738Y-140189202D01*
X69222230Y-140187560D01*
X69222057Y-140186128D01*
X69221333Y-140185475D01*
X69219208Y-140184842D01*
X69211043Y-140183647D01*
X69198132Y-140182568D01*
X69181046Y-140181630D01*
X69160355Y-140180857D01*
X69136629Y-140180274D01*
X69082357Y-140179778D01*
X68942657Y-140179778D01*
X68687246Y-140502216D01*
X68431835Y-140825361D01*
X68431835Y-141616994D01*
X68450179Y-141626872D01*
X68455990Y-141630324D01*
X68462007Y-141634546D01*
X68468170Y-141639465D01*
X68474421Y-141645007D01*
X68480702Y-141651099D01*
X68486952Y-141657667D01*
X68493113Y-141664638D01*
X68499127Y-141671939D01*
X68504934Y-141679497D01*
X68510475Y-141687237D01*
X68515692Y-141695087D01*
X68520525Y-141702973D01*
X68524916Y-141710821D01*
X68528806Y-141718559D01*
X68532135Y-141726114D01*
X68534846Y-141733410D01*
X68537757Y-141743538D01*
X68540146Y-141754271D01*
X68542017Y-141765505D01*
X68543378Y-141777133D01*
X68544235Y-141789051D01*
X68544594Y-141801152D01*
X68544461Y-141813333D01*
X68543842Y-141825486D01*
X68542743Y-141837507D01*
X68541171Y-141849290D01*
X68539132Y-141860730D01*
X68536632Y-141871722D01*
X68533677Y-141882159D01*
X68530273Y-141891938D01*
X68526428Y-141900951D01*
X68522146Y-141909094D01*
X68513977Y-141922050D01*
X68505346Y-141934192D01*
X68496254Y-141945518D01*
X68486703Y-141956024D01*
X68476692Y-141965708D01*
X68466224Y-141974566D01*
X68455298Y-141982595D01*
X68443917Y-141989792D01*
X68432081Y-141996154D01*
X68419792Y-142001678D01*
X68407050Y-142006360D01*
X68393856Y-142010198D01*
X68380211Y-142013189D01*
X68366117Y-142015329D01*
X68351575Y-142016615D01*
X68336584Y-142017044D01*
X68325300Y-142016782D01*
X68314209Y-142016001D01*
X68303321Y-142014713D01*
X68292648Y-142012928D01*
X68282202Y-142010659D01*
X68271992Y-142007915D01*
X68262029Y-142004708D01*
X68252326Y-142001048D01*
X68242892Y-141996947D01*
X68233739Y-141992416D01*
X68224878Y-141987466D01*
X68216319Y-141982107D01*
X68208074Y-141976351D01*
X68200154Y-141970208D01*
X68192569Y-141963690D01*
X68185331Y-141956807D01*
X68178451Y-141949571D01*
X68171939Y-141941993D01*
X68165806Y-141934083D01*
X68160065Y-141925852D01*
X68154725Y-141917312D01*
X68149797Y-141908474D01*
X68145293Y-141899348D01*
X68141223Y-141889945D01*
X68137599Y-141880276D01*
X68134431Y-141870353D01*
X68131730Y-141860187D01*
X68129508Y-141849787D01*
X68127775Y-141839166D01*
X68126543Y-141828335D01*
X68125822Y-141817303D01*
X68125623Y-141806083D01*
X68125897Y-141793828D01*
X68126720Y-141781926D01*
X68128098Y-141770367D01*
X68130033Y-141759141D01*
X68132531Y-141748238D01*
X68135595Y-141737647D01*
X68139230Y-141727357D01*
X68143439Y-141717359D01*
X68148227Y-141707643D01*
X68153598Y-141698196D01*
X68159556Y-141689011D01*
X68166105Y-141680075D01*
X68173249Y-141671380D01*
X68180993Y-141662913D01*
X68189341Y-141654666D01*
X68198296Y-141646628D01*
X68234279Y-141615583D01*
X68234279Y-140749866D01*
X68539785Y-140363222D01*
X68844584Y-139975872D01*
X69031557Y-139975166D01*
X69218529Y-139974461D01*
X69237579Y-139946944D01*
X69242164Y-139940655D01*
X69247170Y-139934498D01*
X69252573Y-139928489D01*
X69258349Y-139922647D01*
X69264471Y-139916985D01*
X69270916Y-139911523D01*
X69277659Y-139906275D01*
X69284675Y-139901259D01*
X69291938Y-139896491D01*
X69299425Y-139891988D01*
X69307110Y-139887766D01*
X69314969Y-139883841D01*
X69322977Y-139880231D01*
X69331109Y-139876951D01*
X69339340Y-139874019D01*
X69347646Y-139871450D01*
X69354396Y-139869732D01*
X69361278Y-139868278D01*
X69375379Y-139866153D01*
X69389837Y-139865044D01*
X69404542Y-139864923D01*
X69419384Y-139865762D01*
G37*
G36*
X67232390Y-138966222D02*
G01*
X67232390Y-138740444D01*
X67486390Y-138740444D01*
X67683946Y-138740444D01*
X68453001Y-138740444D01*
X68453001Y-138366500D01*
X67683946Y-138366500D01*
X67683946Y-138740444D01*
X67486390Y-138740444D01*
X67486390Y-138366500D01*
X67232390Y-138366500D01*
X67232390Y-138140722D01*
X67486390Y-138140722D01*
X67683946Y-138140722D01*
X68453001Y-138140722D01*
X68453001Y-137766778D01*
X67683946Y-137766778D01*
X67683946Y-138140722D01*
X67486390Y-138140722D01*
X67486390Y-137766778D01*
X67232390Y-137766778D01*
X67232390Y-137548055D01*
X67486390Y-137548055D01*
X67683946Y-137548055D01*
X68453001Y-137548055D01*
X68453001Y-137174111D01*
X67683946Y-137174111D01*
X67683946Y-137548055D01*
X67486390Y-137548055D01*
X67486390Y-137174111D01*
X67232390Y-137174111D01*
X67232390Y-136948333D01*
X67486390Y-136948333D01*
X67683946Y-136948333D01*
X68453001Y-136948333D01*
X68453001Y-136574389D01*
X67683946Y-136574389D01*
X67683946Y-136948333D01*
X67486390Y-136948333D01*
X67486390Y-136574389D01*
X67232390Y-136574389D01*
X67232390Y-136355667D01*
X67486390Y-136355667D01*
X67486390Y-136002889D01*
X67683946Y-136002889D01*
X67683946Y-136355667D01*
X68453001Y-136355667D01*
X68453001Y-136002889D01*
X68650557Y-136002889D01*
X68650557Y-136355667D01*
X68904557Y-136355667D01*
X68904557Y-136574389D01*
X68650557Y-136574389D01*
X68650557Y-136948333D01*
X68904557Y-136948333D01*
X68904557Y-137174111D01*
X68650557Y-137174111D01*
X68650557Y-137548055D01*
X68904557Y-137548055D01*
X68904557Y-137766778D01*
X68650557Y-137766778D01*
X68650557Y-138140722D01*
X68904557Y-138140722D01*
X68904557Y-138366500D01*
X68650557Y-138366500D01*
X68650557Y-138740444D01*
X68904557Y-138740444D01*
X68904557Y-138966222D01*
X68650557Y-138966222D01*
X68650557Y-139333111D01*
X68904557Y-139333111D01*
X68904557Y-139565945D01*
X68650557Y-139565945D01*
X68650557Y-139894733D01*
X68258973Y-140389327D01*
X67867390Y-140884627D01*
X67867390Y-141996583D01*
X68139029Y-142268222D01*
X68805779Y-142268222D01*
X68805779Y-141683316D01*
X68805751Y-141493049D01*
X68805686Y-141415716D01*
X68805558Y-141349159D01*
X68805465Y-141319666D01*
X68805348Y-141292561D01*
X68805206Y-141267741D01*
X68805035Y-141245104D01*
X68804833Y-141224549D01*
X68804597Y-141205972D01*
X68804326Y-141189272D01*
X68804015Y-141174346D01*
X68803663Y-141161093D01*
X68803267Y-141149409D01*
X68802825Y-141139194D01*
X68802586Y-141134604D01*
X68802334Y-141130344D01*
X68802069Y-141126399D01*
X68801791Y-141122758D01*
X68801499Y-141119406D01*
X68801193Y-141116333D01*
X68800874Y-141113524D01*
X68800539Y-141110967D01*
X68800190Y-141108649D01*
X68799826Y-141106558D01*
X68799446Y-141104680D01*
X68799050Y-141103003D01*
X68798638Y-141101515D01*
X68798210Y-141100202D01*
X68797765Y-141099051D01*
X68797303Y-141098050D01*
X68796823Y-141097187D01*
X68796326Y-141096447D01*
X68795810Y-141095819D01*
X68795276Y-141095290D01*
X68794723Y-141094847D01*
X68794152Y-141094476D01*
X68793561Y-141094167D01*
X68792950Y-141093905D01*
X68791668Y-141093472D01*
X68789338Y-141092580D01*
X68786856Y-141091368D01*
X68781481Y-141088047D01*
X68775644Y-141083632D01*
X68769443Y-141078247D01*
X68762977Y-141072015D01*
X68756346Y-141065058D01*
X68749649Y-141057500D01*
X68742985Y-141049463D01*
X68736453Y-141041070D01*
X68730152Y-141032445D01*
X68724183Y-141023711D01*
X68718643Y-141014990D01*
X68713632Y-141006405D01*
X68709250Y-140998080D01*
X68705596Y-140990137D01*
X68702768Y-140982700D01*
X68699741Y-140972550D01*
X68697269Y-140961987D01*
X68695348Y-140951079D01*
X68693970Y-140939893D01*
X68693130Y-140928496D01*
X68692821Y-140916955D01*
X68693037Y-140905338D01*
X68693772Y-140893712D01*
X68695019Y-140882143D01*
X68696773Y-140870700D01*
X68699027Y-140859449D01*
X68701776Y-140848457D01*
X68705012Y-140837792D01*
X68708729Y-140827520D01*
X68712922Y-140817710D01*
X68717584Y-140808428D01*
X68722113Y-140800344D01*
X68726725Y-140792738D01*
X68731455Y-140785578D01*
X68736337Y-140778827D01*
X68741405Y-140772453D01*
X68746693Y-140766421D01*
X68752235Y-140760696D01*
X68758066Y-140755246D01*
X68764219Y-140750035D01*
X68770728Y-140745031D01*
X68777629Y-140740197D01*
X68784954Y-140735501D01*
X68792738Y-140730909D01*
X68801015Y-140726386D01*
X68809819Y-140721898D01*
X68819184Y-140717411D01*
X68830512Y-140712435D01*
X68835673Y-140710365D01*
X68840616Y-140708558D01*
X68845426Y-140707004D01*
X68850190Y-140705690D01*
X68854996Y-140704606D01*
X68859930Y-140703741D01*
X68865079Y-140703081D01*
X68870530Y-140702617D01*
X68876370Y-140702338D01*
X68882685Y-140702230D01*
X68889562Y-140702284D01*
X68897088Y-140702488D01*
X68914434Y-140703299D01*
X68926491Y-140704097D01*
X68937828Y-140705182D01*
X68948504Y-140706577D01*
X68958576Y-140708304D01*
X68968102Y-140710388D01*
X68977141Y-140712849D01*
X68985749Y-140715712D01*
X68993986Y-140718998D01*
X69001908Y-140722731D01*
X69009574Y-140726933D01*
X69017042Y-140731627D01*
X69024369Y-140736836D01*
X69031613Y-140742582D01*
X69038833Y-140748888D01*
X69046085Y-140755777D01*
X69053429Y-140763272D01*
X69061295Y-140771764D01*
X69068505Y-140780082D01*
X69075077Y-140788283D01*
X69081034Y-140796422D01*
X69086395Y-140804557D01*
X69091182Y-140812745D01*
X69095414Y-140821042D01*
X69099114Y-140829506D01*
X69102300Y-140838193D01*
X69104995Y-140847160D01*
X69107219Y-140856464D01*
X69108991Y-140866162D01*
X69110334Y-140876310D01*
X69111268Y-140886966D01*
X69111813Y-140898186D01*
X69111990Y-140910027D01*
X69111840Y-140923540D01*
X69111122Y-140936567D01*
X69109829Y-140949121D01*
X69107955Y-140961213D01*
X69105494Y-140972855D01*
X69102440Y-140984057D01*
X69098787Y-140994832D01*
X69094527Y-141005190D01*
X69089656Y-141015142D01*
X69086990Y-141019970D01*
X69084167Y-141024701D01*
X69081189Y-141029337D01*
X69078054Y-141033878D01*
X69071310Y-141042683D01*
X69063930Y-141051129D01*
X69055907Y-141059227D01*
X69047234Y-141066987D01*
X69037907Y-141074422D01*
X69004040Y-141100528D01*
X69004040Y-141782799D01*
X69003334Y-142465777D01*
X68054362Y-142465777D01*
X67862451Y-142273867D01*
X67669835Y-142081250D01*
X67669835Y-140808428D01*
X68061418Y-140313128D01*
X68453001Y-139818533D01*
X68453001Y-139565945D01*
X67683946Y-139565945D01*
X67683946Y-139888383D01*
X67683240Y-140211527D01*
X67556946Y-140370277D01*
X67430651Y-140529027D01*
X67429946Y-141474472D01*
X67429946Y-142419916D01*
X67465223Y-142450256D01*
X67474768Y-142458728D01*
X67483569Y-142467237D01*
X67491645Y-142475818D01*
X67499013Y-142484508D01*
X67505690Y-142493342D01*
X67511695Y-142502357D01*
X67517044Y-142511590D01*
X67521756Y-142521075D01*
X67525848Y-142530850D01*
X67529337Y-142540951D01*
X67532241Y-142551413D01*
X67534577Y-142562273D01*
X67536364Y-142573567D01*
X67537619Y-142585332D01*
X67538359Y-142597603D01*
X67538601Y-142610416D01*
X67538680Y-142626955D01*
X67538556Y-142634251D01*
X67538304Y-142640998D01*
X67537906Y-142647274D01*
X67537349Y-142653155D01*
X67536615Y-142658718D01*
X67535691Y-142664039D01*
X67534560Y-142669194D01*
X67533206Y-142674261D01*
X67531615Y-142679315D01*
X67529771Y-142684433D01*
X67527658Y-142689692D01*
X67525260Y-142695168D01*
X67522563Y-142700937D01*
X67519551Y-142707077D01*
X67512227Y-142720809D01*
X67504280Y-142733692D01*
X67495717Y-142745720D01*
X67486544Y-142756885D01*
X67476768Y-142767182D01*
X67466395Y-142776605D01*
X67455430Y-142785147D01*
X67443880Y-142792802D01*
X67431752Y-142799565D01*
X67419051Y-142805428D01*
X67405784Y-142810386D01*
X67391956Y-142814432D01*
X67377574Y-142817561D01*
X67362645Y-142819765D01*
X67347174Y-142821039D01*
X67331168Y-142821377D01*
X67318580Y-142821144D01*
X67306462Y-142820435D01*
X67294792Y-142819238D01*
X67283543Y-142817541D01*
X67272691Y-142815331D01*
X67262211Y-142812596D01*
X67252078Y-142809324D01*
X67242268Y-142805502D01*
X67232755Y-142801118D01*
X67223516Y-142796159D01*
X67214524Y-142790613D01*
X67205755Y-142784468D01*
X67197185Y-142777711D01*
X67188789Y-142770329D01*
X67180541Y-142762311D01*
X67172418Y-142753644D01*
X67165049Y-142745056D01*
X67158282Y-142736466D01*
X67152106Y-142727838D01*
X67146511Y-142719138D01*
X67141486Y-142710331D01*
X67137022Y-142701381D01*
X67133107Y-142692253D01*
X67129732Y-142682912D01*
X67126886Y-142673324D01*
X67124559Y-142663452D01*
X67122740Y-142653261D01*
X67121420Y-142642718D01*
X67120587Y-142631785D01*
X67120232Y-142620429D01*
X67120344Y-142608614D01*
X67120912Y-142596305D01*
X67121970Y-142584416D01*
X67123554Y-142572829D01*
X67125661Y-142561548D01*
X67128288Y-142550577D01*
X67131431Y-142539919D01*
X67135088Y-142529581D01*
X67139256Y-142519564D01*
X67143931Y-142509875D01*
X67149111Y-142500516D01*
X67154791Y-142491492D01*
X67160970Y-142482806D01*
X67167644Y-142474465D01*
X67174810Y-142466470D01*
X67182465Y-142458827D01*
X67190606Y-142451539D01*
X67199229Y-142444611D01*
X67232390Y-142419916D01*
X67232390Y-141908388D01*
X66869029Y-141908388D01*
X66837985Y-141944372D01*
X66828280Y-141954995D01*
X66818109Y-141964777D01*
X66807510Y-141973722D01*
X66796521Y-141981837D01*
X66785180Y-141989126D01*
X66773525Y-141995595D01*
X66761594Y-142001250D01*
X66749426Y-142006097D01*
X66737059Y-142010141D01*
X66724530Y-142013387D01*
X66711878Y-142015841D01*
X66699140Y-142017509D01*
X66686356Y-142018396D01*
X66673563Y-142018507D01*
X66660799Y-142017849D01*
X66648102Y-142016427D01*
X66635511Y-142014246D01*
X66623063Y-142011312D01*
X66610797Y-142007631D01*
X66598750Y-142003207D01*
X66586962Y-141998048D01*
X66575469Y-141992157D01*
X66564311Y-141985541D01*
X66553524Y-141978206D01*
X66543149Y-141970156D01*
X66533221Y-141961398D01*
X66523780Y-141951936D01*
X66514864Y-141941777D01*
X66506510Y-141930926D01*
X66498757Y-141919389D01*
X66491644Y-141907171D01*
X66485207Y-141894278D01*
X66481868Y-141886679D01*
X66478862Y-141878972D01*
X66476186Y-141871167D01*
X66473838Y-141863277D01*
X66471816Y-141855313D01*
X66470116Y-141847285D01*
X66468738Y-141839206D01*
X66467678Y-141831086D01*
X66466505Y-141814772D01*
X66466579Y-141798432D01*
X66467880Y-141782159D01*
X66470390Y-141766043D01*
X66474091Y-141750175D01*
X66478964Y-141734646D01*
X66484991Y-141719547D01*
X66492152Y-141704968D01*
X66496153Y-141697903D01*
X66500430Y-141691002D01*
X66504981Y-141684277D01*
X66509805Y-141677738D01*
X66514898Y-141671398D01*
X66520259Y-141665268D01*
X66525885Y-141659360D01*
X66531774Y-141653683D01*
X66540133Y-141646313D01*
X66548311Y-141639539D01*
X66556360Y-141633343D01*
X66564328Y-141627710D01*
X66572268Y-141622622D01*
X66580229Y-141618063D01*
X66588263Y-141614017D01*
X66596420Y-141610468D01*
X66604750Y-141607397D01*
X66613305Y-141604790D01*
X66622135Y-141602629D01*
X66631290Y-141600899D01*
X66640821Y-141599581D01*
X66650780Y-141598661D01*
X66661215Y-141598120D01*
X66672179Y-141597944D01*
X66685419Y-141598130D01*
X66697928Y-141598708D01*
X66709769Y-141599702D01*
X66721006Y-141601141D01*
X66731701Y-141603051D01*
X66741917Y-141605460D01*
X66751719Y-141608393D01*
X66761167Y-141611879D01*
X66770327Y-141615943D01*
X66779260Y-141620613D01*
X66788029Y-141625915D01*
X66796699Y-141631877D01*
X66805331Y-141638525D01*
X66813989Y-141645886D01*
X66822736Y-141653987D01*
X66831635Y-141662855D01*
X66872557Y-141703777D01*
X67232390Y-141703777D01*
X67232390Y-141301611D01*
X66576224Y-141301611D01*
X66576224Y-140895917D01*
X66540240Y-140864872D01*
X66528914Y-140854534D01*
X66518492Y-140843650D01*
X66508983Y-140832254D01*
X66500398Y-140820378D01*
X66492748Y-140808055D01*
X66486042Y-140795320D01*
X66480291Y-140782203D01*
X66475505Y-140768740D01*
X66471696Y-140754962D01*
X66468872Y-140740904D01*
X66467044Y-140726597D01*
X66466223Y-140712075D01*
X66466419Y-140697371D01*
X66467642Y-140682519D01*
X66469903Y-140667551D01*
X66473212Y-140652500D01*
X66478572Y-140634323D01*
X66485102Y-140617116D01*
X66488794Y-140608885D01*
X66492765Y-140600908D01*
X66497009Y-140593187D01*
X66501523Y-140585726D01*
X66506301Y-140578528D01*
X66511339Y-140571598D01*
X66516633Y-140564938D01*
X66522177Y-140558552D01*
X66527967Y-140552444D01*
X66533998Y-140546616D01*
X66540266Y-140541074D01*
X66546767Y-140535819D01*
X66553494Y-140530855D01*
X66560444Y-140526187D01*
X66567613Y-140521817D01*
X66574994Y-140517748D01*
X66582585Y-140513986D01*
X66590379Y-140510532D01*
X66598374Y-140507390D01*
X66606562Y-140504565D01*
X66614941Y-140502058D01*
X66623506Y-140499875D01*
X66641173Y-140496491D01*
X66659527Y-140494440D01*
X66678529Y-140493750D01*
X66686427Y-140493944D01*
X66694241Y-140494391D01*
X66701969Y-140495091D01*
X66709607Y-140496039D01*
X66717149Y-140497233D01*
X66724591Y-140498672D01*
X66731931Y-140500352D01*
X66739163Y-140502272D01*
X66746283Y-140504428D01*
X66753288Y-140506818D01*
X66760172Y-140509440D01*
X66766933Y-140512291D01*
X66773565Y-140515370D01*
X66780066Y-140518672D01*
X66786429Y-140522197D01*
X66792653Y-140525941D01*
X66798731Y-140529902D01*
X66804661Y-140534078D01*
X66810438Y-140538465D01*
X66816057Y-140543063D01*
X66821516Y-140547868D01*
X66826809Y-140552877D01*
X66831932Y-140558089D01*
X66836882Y-140563501D01*
X66841654Y-140569110D01*
X66846245Y-140574914D01*
X66850649Y-140580910D01*
X66854863Y-140587097D01*
X66858883Y-140593471D01*
X66862704Y-140600030D01*
X66866323Y-140606772D01*
X66869735Y-140613694D01*
X66873356Y-140622122D01*
X66876546Y-140631212D01*
X66879305Y-140640880D01*
X66881630Y-140651045D01*
X66883521Y-140661622D01*
X66884977Y-140672531D01*
X66885997Y-140683687D01*
X66886580Y-140695009D01*
X66886724Y-140706414D01*
X66886430Y-140717819D01*
X66885695Y-140729141D01*
X66884518Y-140740297D01*
X66882900Y-140751206D01*
X66880837Y-140761784D01*
X66878331Y-140771948D01*
X66875379Y-140781617D01*
X66872739Y-140788478D01*
X66869376Y-140795761D01*
X66865377Y-140803358D01*
X66860827Y-140811162D01*
X66855814Y-140819065D01*
X66850426Y-140826959D01*
X66844747Y-140834738D01*
X66838867Y-140842294D01*
X66832870Y-140849519D01*
X66826845Y-140856306D01*
X66820877Y-140862547D01*
X66815054Y-140868135D01*
X66809463Y-140872962D01*
X66804190Y-140876921D01*
X66801700Y-140878542D01*
X66799322Y-140879905D01*
X66797067Y-140880997D01*
X66794946Y-140881805D01*
X66792578Y-140882655D01*
X66790491Y-140883706D01*
X66788666Y-140885093D01*
X66787085Y-140886954D01*
X66785733Y-140889421D01*
X66784590Y-140892632D01*
X66783639Y-140896722D01*
X66782863Y-140901825D01*
X66782244Y-140908078D01*
X66781765Y-140915615D01*
X66781154Y-140935086D01*
X66780891Y-140961319D01*
X66780835Y-140995400D01*
X66780835Y-141104056D01*
X67232390Y-141104056D01*
X67232390Y-140453533D01*
X67359390Y-140294078D01*
X67486390Y-140133916D01*
X67486390Y-139565945D01*
X67232390Y-139565945D01*
X67232390Y-139333111D01*
X67486390Y-139333111D01*
X67683946Y-139333111D01*
X68453001Y-139333111D01*
X68453001Y-138966222D01*
X67683946Y-138966222D01*
X67683946Y-139333111D01*
X67486390Y-139333111D01*
X67486390Y-138966222D01*
X67232390Y-138966222D01*
G37*
D11*
X100182071Y-130579571D02*
X98682071Y-130579571D01*
X99753500Y-130079571D01*
X98682071Y-129579571D01*
X100182071Y-129579571D01*
X100110642Y-128936714D02*
X100182071Y-128722428D01*
X100182071Y-128365285D01*
X100110642Y-128222428D01*
X100039214Y-128151000D01*
X99896357Y-128079571D01*
X99753500Y-128079571D01*
X99610642Y-128151000D01*
X99539214Y-128222428D01*
X99467785Y-128365285D01*
X99396357Y-128651000D01*
X99324928Y-128793857D01*
X99253500Y-128865285D01*
X99110642Y-128936714D01*
X98967785Y-128936714D01*
X98824928Y-128865285D01*
X98753500Y-128793857D01*
X98682071Y-128651000D01*
X98682071Y-128293857D01*
X98753500Y-128079571D01*
X100110642Y-127508142D02*
X100182071Y-127293857D01*
X100182071Y-126936714D01*
X100110642Y-126793857D01*
X100039214Y-126722428D01*
X99896357Y-126651000D01*
X99753500Y-126651000D01*
X99610642Y-126722428D01*
X99539214Y-126793857D01*
X99467785Y-126936714D01*
X99396357Y-127222428D01*
X99324928Y-127365285D01*
X99253500Y-127436714D01*
X99110642Y-127508142D01*
X98967785Y-127508142D01*
X98824928Y-127436714D01*
X98753500Y-127365285D01*
X98682071Y-127222428D01*
X98682071Y-126865285D01*
X98753500Y-126651000D01*
X102168500Y-131793857D02*
X102168500Y-131079571D01*
X102597071Y-131936714D02*
X101097071Y-131436714D01*
X102597071Y-130936714D01*
X101811357Y-129293857D02*
X101811357Y-128793857D01*
X102597071Y-128579571D02*
X102597071Y-129293857D01*
X101097071Y-129293857D01*
X101097071Y-128579571D01*
X102597071Y-127936714D02*
X101097071Y-127936714D01*
X102597071Y-127079571D01*
X101097071Y-127079571D01*
X102597071Y-126365285D02*
X101097071Y-126365285D01*
X101097071Y-126008142D01*
X101168500Y-125793857D01*
X101311357Y-125651000D01*
X101454214Y-125579571D01*
X101739928Y-125508142D01*
X101954214Y-125508142D01*
X102239928Y-125579571D01*
X102382785Y-125651000D01*
X102525642Y-125793857D01*
X102597071Y-126008142D01*
X102597071Y-126365285D01*
D12*
X53013428Y-148971000D02*
X53376285Y-148971000D01*
X53231142Y-149333857D02*
X53376285Y-148971000D01*
X53231142Y-148608142D01*
X53666571Y-149188714D02*
X53376285Y-148971000D01*
X53666571Y-148753285D01*
X53902428Y-183134000D02*
X54265285Y-183134000D01*
X54120142Y-183496857D02*
X54265285Y-183134000D01*
X54120142Y-182771142D01*
X54555571Y-183351714D02*
X54265285Y-183134000D01*
X54555571Y-182916285D01*
D11*
X26499428Y-174208714D02*
X27999428Y-174208714D01*
X27999428Y-174780142D01*
X27928000Y-174923000D01*
X27856571Y-174994428D01*
X27713714Y-175065857D01*
X27499428Y-175065857D01*
X27356571Y-174994428D01*
X27285142Y-174923000D01*
X27213714Y-174780142D01*
X27213714Y-174208714D01*
X27999428Y-175994428D02*
X27999428Y-176280142D01*
X27928000Y-176423000D01*
X27785142Y-176565857D01*
X27499428Y-176637285D01*
X26999428Y-176637285D01*
X26713714Y-176565857D01*
X26570857Y-176423000D01*
X26499428Y-176280142D01*
X26499428Y-175994428D01*
X26570857Y-175851571D01*
X26713714Y-175708714D01*
X26999428Y-175637285D01*
X27499428Y-175637285D01*
X27785142Y-175708714D01*
X27928000Y-175851571D01*
X27999428Y-175994428D01*
X27999428Y-177137285D02*
X26499428Y-177494428D01*
X27570857Y-177780142D01*
X26499428Y-178065857D01*
X27999428Y-178423000D01*
X27285142Y-178994428D02*
X27285142Y-179494428D01*
X26499428Y-179708714D02*
X26499428Y-178994428D01*
X27999428Y-178994428D01*
X27999428Y-179708714D01*
X26499428Y-181208714D02*
X27213714Y-180708714D01*
X26499428Y-180351571D02*
X27999428Y-180351571D01*
X27999428Y-180923000D01*
X27928000Y-181065857D01*
X27856571Y-181137285D01*
X27713714Y-181208714D01*
X27499428Y-181208714D01*
X27356571Y-181137285D01*
X27285142Y-181065857D01*
X27213714Y-180923000D01*
X27213714Y-180351571D01*
X27412142Y-151888571D02*
X27340714Y-152102857D01*
X27269285Y-152174285D01*
X27126428Y-152245714D01*
X26912142Y-152245714D01*
X26769285Y-152174285D01*
X26697857Y-152102857D01*
X26626428Y-151960000D01*
X26626428Y-151388571D01*
X28126428Y-151388571D01*
X28126428Y-151888571D01*
X28055000Y-152031428D01*
X27983571Y-152102857D01*
X27840714Y-152174285D01*
X27697857Y-152174285D01*
X27555000Y-152102857D01*
X27483571Y-152031428D01*
X27412142Y-151888571D01*
X27412142Y-151388571D01*
X26697857Y-153960000D02*
X26626428Y-154174285D01*
X26626428Y-154531428D01*
X26697857Y-154674285D01*
X26769285Y-154745714D01*
X26912142Y-154817142D01*
X27055000Y-154817142D01*
X27197857Y-154745714D01*
X27269285Y-154674285D01*
X27340714Y-154531428D01*
X27412142Y-154245714D01*
X27483571Y-154102857D01*
X27555000Y-154031428D01*
X27697857Y-153960000D01*
X27840714Y-153960000D01*
X27983571Y-154031428D01*
X28055000Y-154102857D01*
X28126428Y-154245714D01*
X28126428Y-154602857D01*
X28055000Y-154817142D01*
X26626428Y-155460000D02*
X28126428Y-155460000D01*
X28055000Y-156960000D02*
X28126428Y-156817142D01*
X28126428Y-156602857D01*
X28055000Y-156388571D01*
X27912142Y-156245714D01*
X27769285Y-156174285D01*
X27483571Y-156102857D01*
X27269285Y-156102857D01*
X26983571Y-156174285D01*
X26840714Y-156245714D01*
X26697857Y-156388571D01*
X26626428Y-156602857D01*
X26626428Y-156745714D01*
X26697857Y-156960000D01*
X26769285Y-157031428D01*
X27269285Y-157031428D01*
X27269285Y-156745714D01*
X26626428Y-157674285D02*
X28126428Y-157674285D01*
X26626428Y-158531428D01*
X28126428Y-158531428D01*
X27055000Y-159174285D02*
X27055000Y-159888571D01*
X26626428Y-159031428D02*
X28126428Y-159531428D01*
X26626428Y-160031428D01*
X26626428Y-161245714D02*
X26626428Y-160531428D01*
X28126428Y-160531428D01*
X100373571Y-159293000D02*
X98873571Y-159293000D01*
X100373571Y-157721571D02*
X99659285Y-158221571D01*
X100373571Y-158578714D02*
X98873571Y-158578714D01*
X98873571Y-158007285D01*
X98945000Y-157864428D01*
X99016428Y-157793000D01*
X99159285Y-157721571D01*
X99373571Y-157721571D01*
X99516428Y-157793000D01*
X99587857Y-157864428D01*
X99659285Y-158007285D01*
X99659285Y-158578714D01*
X100302142Y-156007285D02*
X100373571Y-155793000D01*
X100373571Y-155435857D01*
X100302142Y-155293000D01*
X100230714Y-155221571D01*
X100087857Y-155150142D01*
X99945000Y-155150142D01*
X99802142Y-155221571D01*
X99730714Y-155293000D01*
X99659285Y-155435857D01*
X99587857Y-155721571D01*
X99516428Y-155864428D01*
X99445000Y-155935857D01*
X99302142Y-156007285D01*
X99159285Y-156007285D01*
X99016428Y-155935857D01*
X98945000Y-155864428D01*
X98873571Y-155721571D01*
X98873571Y-155364428D01*
X98945000Y-155150142D01*
X99587857Y-154507285D02*
X99587857Y-154007285D01*
X100373571Y-153793000D02*
X100373571Y-154507285D01*
X98873571Y-154507285D01*
X98873571Y-153793000D01*
X100373571Y-153150142D02*
X98873571Y-153150142D01*
X100373571Y-152293000D01*
X98873571Y-152293000D01*
X100302142Y-151650142D02*
X100373571Y-151435857D01*
X100373571Y-151078714D01*
X100302142Y-150935857D01*
X100230714Y-150864428D01*
X100087857Y-150793000D01*
X99945000Y-150793000D01*
X99802142Y-150864428D01*
X99730714Y-150935857D01*
X99659285Y-151078714D01*
X99587857Y-151364428D01*
X99516428Y-151507285D01*
X99445000Y-151578714D01*
X99302142Y-151650142D01*
X99159285Y-151650142D01*
X99016428Y-151578714D01*
X98945000Y-151507285D01*
X98873571Y-151364428D01*
X98873571Y-151007285D01*
X98945000Y-150793000D01*
X98873571Y-149864428D02*
X98873571Y-149578714D01*
X98945000Y-149435857D01*
X99087857Y-149293000D01*
X99373571Y-149221571D01*
X99873571Y-149221571D01*
X100159285Y-149293000D01*
X100302142Y-149435857D01*
X100373571Y-149578714D01*
X100373571Y-149864428D01*
X100302142Y-150007285D01*
X100159285Y-150150142D01*
X99873571Y-150221571D01*
X99373571Y-150221571D01*
X99087857Y-150150142D01*
X98945000Y-150007285D01*
X98873571Y-149864428D01*
X100373571Y-147721571D02*
X99659285Y-148221571D01*
X100373571Y-148578714D02*
X98873571Y-148578714D01*
X98873571Y-148007285D01*
X98945000Y-147864428D01*
X99016428Y-147793000D01*
X99159285Y-147721571D01*
X99373571Y-147721571D01*
X99516428Y-147793000D01*
X99587857Y-147864428D01*
X99659285Y-148007285D01*
X99659285Y-148578714D01*
X30468000Y-134504857D02*
X30539428Y-134362000D01*
X30539428Y-134147714D01*
X30468000Y-133933428D01*
X30325142Y-133790571D01*
X30182285Y-133719142D01*
X29896571Y-133647714D01*
X29682285Y-133647714D01*
X29396571Y-133719142D01*
X29253714Y-133790571D01*
X29110857Y-133933428D01*
X29039428Y-134147714D01*
X29039428Y-134290571D01*
X29110857Y-134504857D01*
X29182285Y-134576285D01*
X29682285Y-134576285D01*
X29682285Y-134290571D01*
D13*
X29314260Y-164114238D02*
X29314260Y-163920714D01*
X29265880Y-163823952D01*
X29217499Y-163775571D01*
X29072356Y-163678809D01*
X28878832Y-163630428D01*
X28491784Y-163630428D01*
X28395022Y-163678809D01*
X28346641Y-163727190D01*
X28298260Y-163823952D01*
X28298260Y-164017476D01*
X28346641Y-164114238D01*
X28395022Y-164162619D01*
X28491784Y-164211000D01*
X28733689Y-164211000D01*
X28830451Y-164162619D01*
X28878832Y-164114238D01*
X28927213Y-164017476D01*
X28927213Y-163823952D01*
X28878832Y-163727190D01*
X28830451Y-163678809D01*
X28733689Y-163630428D01*
X28685308Y-164646428D02*
X28685308Y-165420523D01*
X29217499Y-165855952D02*
X29265880Y-165904333D01*
X29314260Y-166001095D01*
X29314260Y-166243000D01*
X29265880Y-166339761D01*
X29217499Y-166388142D01*
X29120737Y-166436523D01*
X29023975Y-166436523D01*
X28878832Y-166388142D01*
X28298260Y-165807571D01*
X28298260Y-166436523D01*
X28975594Y-167307380D02*
X28298260Y-167307380D01*
X29362641Y-167065476D02*
X28636927Y-166823571D01*
X28636927Y-167452523D01*
X29314260Y-168468523D02*
X28298260Y-168807190D01*
X29314260Y-169145857D01*
X28298260Y-169629666D02*
X28346641Y-169532904D01*
X28395022Y-169484523D01*
X28491784Y-169436142D01*
X28782070Y-169436142D01*
X28878832Y-169484523D01*
X28927213Y-169532904D01*
X28975594Y-169629666D01*
X28975594Y-169774809D01*
X28927213Y-169871571D01*
X28878832Y-169919952D01*
X28782070Y-169968333D01*
X28491784Y-169968333D01*
X28395022Y-169919952D01*
X28346641Y-169871571D01*
X28298260Y-169774809D01*
X28298260Y-169629666D01*
X28298260Y-170548904D02*
X28346641Y-170452142D01*
X28443403Y-170403761D01*
X29314260Y-170403761D01*
X28975594Y-170790809D02*
X28975594Y-171177857D01*
X29314260Y-170935952D02*
X28443403Y-170935952D01*
X28346641Y-170984333D01*
X28298260Y-171081095D01*
X28298260Y-171177857D01*
X28346641Y-171468142D02*
X28298260Y-171564904D01*
X28298260Y-171758428D01*
X28346641Y-171855190D01*
X28443403Y-171903571D01*
X28491784Y-171903571D01*
X28588546Y-171855190D01*
X28636927Y-171758428D01*
X28636927Y-171613285D01*
X28685308Y-171516523D01*
X28782070Y-171468142D01*
X28830451Y-171468142D01*
X28927213Y-171516523D01*
X28975594Y-171613285D01*
X28975594Y-171758428D01*
X28927213Y-171855190D01*
X26662500Y-163074047D02*
X27678500Y-163074047D01*
X27678500Y-163315952D01*
X27630120Y-163461095D01*
X27533358Y-163557857D01*
X27436596Y-163606238D01*
X27243072Y-163654619D01*
X27097929Y-163654619D01*
X26904405Y-163606238D01*
X26807643Y-163557857D01*
X26710881Y-163461095D01*
X26662500Y-163315952D01*
X26662500Y-163074047D01*
X26759262Y-164670619D02*
X26710881Y-164622238D01*
X26662500Y-164477095D01*
X26662500Y-164380333D01*
X26710881Y-164235190D01*
X26807643Y-164138428D01*
X26904405Y-164090047D01*
X27097929Y-164041666D01*
X27243072Y-164041666D01*
X27436596Y-164090047D01*
X27533358Y-164138428D01*
X27630120Y-164235190D01*
X27678500Y-164380333D01*
X27678500Y-164477095D01*
X27630120Y-164622238D01*
X27581739Y-164670619D01*
X27726881Y-165831761D02*
X26420596Y-164960904D01*
X26952786Y-166122047D02*
X26952786Y-166605857D01*
X26662500Y-166025285D02*
X27678500Y-166363952D01*
X26662500Y-166702619D01*
X26759262Y-167621857D02*
X26710881Y-167573476D01*
X26662500Y-167428333D01*
X26662500Y-167331571D01*
X26710881Y-167186428D01*
X26807643Y-167089666D01*
X26904405Y-167041285D01*
X27097929Y-166992904D01*
X27243072Y-166992904D01*
X27436596Y-167041285D01*
X27533358Y-167089666D01*
X27630120Y-167186428D01*
X27678500Y-167331571D01*
X27678500Y-167428333D01*
X27630120Y-167573476D01*
X27581739Y-167621857D01*
X27726881Y-168783000D02*
X26420596Y-167912142D01*
X26662500Y-169121666D02*
X27678500Y-169121666D01*
X27678500Y-169363571D01*
X27630120Y-169508714D01*
X27533358Y-169605476D01*
X27436596Y-169653857D01*
X27243072Y-169702238D01*
X27097929Y-169702238D01*
X26904405Y-169653857D01*
X26807643Y-169605476D01*
X26710881Y-169508714D01*
X26662500Y-169363571D01*
X26662500Y-169121666D01*
X26759262Y-170718238D02*
X26710881Y-170669857D01*
X26662500Y-170524714D01*
X26662500Y-170427952D01*
X26710881Y-170282809D01*
X26807643Y-170186047D01*
X26904405Y-170137666D01*
X27097929Y-170089285D01*
X27243072Y-170089285D01*
X27436596Y-170137666D01*
X27533358Y-170186047D01*
X27630120Y-170282809D01*
X27678500Y-170427952D01*
X27678500Y-170524714D01*
X27630120Y-170669857D01*
X27581739Y-170718238D01*
X26759262Y-171734238D02*
X26710881Y-171685857D01*
X26662500Y-171540714D01*
X26662500Y-171443952D01*
X26710881Y-171298809D01*
X26807643Y-171202047D01*
X26904405Y-171153666D01*
X27097929Y-171105285D01*
X27243072Y-171105285D01*
X27436596Y-171153666D01*
X27533358Y-171202047D01*
X27630120Y-171298809D01*
X27678500Y-171443952D01*
X27678500Y-171540714D01*
X27630120Y-171685857D01*
X27581739Y-171734238D01*
D11*
X30341000Y-160031857D02*
X30412428Y-159889000D01*
X30412428Y-159674714D01*
X30341000Y-159460428D01*
X30198142Y-159317571D01*
X30055285Y-159246142D01*
X29769571Y-159174714D01*
X29555285Y-159174714D01*
X29269571Y-159246142D01*
X29126714Y-159317571D01*
X28983857Y-159460428D01*
X28912428Y-159674714D01*
X28912428Y-159817571D01*
X28983857Y-160031857D01*
X29055285Y-160103285D01*
X29555285Y-160103285D01*
X29555285Y-159817571D01*
X29626714Y-156210000D02*
X28912428Y-156210000D01*
X30412428Y-155710000D02*
X29626714Y-156210000D01*
X30412428Y-156710000D01*
D13*
X52898523Y-172107739D02*
X52898523Y-171091739D01*
X53285571Y-171091739D01*
X53382333Y-171140120D01*
X53430714Y-171188500D01*
X53479095Y-171285262D01*
X53479095Y-171430405D01*
X53430714Y-171527167D01*
X53382333Y-171575548D01*
X53285571Y-171623929D01*
X52898523Y-171623929D01*
X54108047Y-171091739D02*
X54301571Y-171091739D01*
X54398333Y-171140120D01*
X54495095Y-171236881D01*
X54543476Y-171430405D01*
X54543476Y-171769072D01*
X54495095Y-171962596D01*
X54398333Y-172059358D01*
X54301571Y-172107739D01*
X54108047Y-172107739D01*
X54011285Y-172059358D01*
X53914523Y-171962596D01*
X53866142Y-171769072D01*
X53866142Y-171430405D01*
X53914523Y-171236881D01*
X54011285Y-171140120D01*
X54108047Y-171091739D01*
X54882142Y-171091739D02*
X55124047Y-172107739D01*
X55317571Y-171382024D01*
X55511095Y-172107739D01*
X55753000Y-171091739D01*
X56140047Y-171575548D02*
X56478714Y-171575548D01*
X56623857Y-172107739D02*
X56140047Y-172107739D01*
X56140047Y-171091739D01*
X56623857Y-171091739D01*
X57639857Y-172107739D02*
X57301190Y-171623929D01*
X57059285Y-172107739D02*
X57059285Y-171091739D01*
X57446333Y-171091739D01*
X57543095Y-171140120D01*
X57591476Y-171188500D01*
X57639857Y-171285262D01*
X57639857Y-171430405D01*
X57591476Y-171527167D01*
X57543095Y-171575548D01*
X57446333Y-171623929D01*
X57059285Y-171623929D01*
X54616047Y-172727499D02*
X54809571Y-172727499D01*
X54906333Y-172775880D01*
X55003095Y-172872641D01*
X55051476Y-173066165D01*
X55051476Y-173404832D01*
X55003095Y-173598356D01*
X54906333Y-173695118D01*
X54809571Y-173743499D01*
X54616047Y-173743499D01*
X54519285Y-173695118D01*
X54422523Y-173598356D01*
X54374142Y-173404832D01*
X54374142Y-173066165D01*
X54422523Y-172872641D01*
X54519285Y-172775880D01*
X54616047Y-172727499D01*
X55486904Y-173743499D02*
X55486904Y-172727499D01*
X56067476Y-173743499D01*
X56067476Y-172727499D01*
D11*
X59225714Y-122273285D02*
X59297142Y-122201857D01*
X59511428Y-122130428D01*
X59654285Y-122130428D01*
X59868571Y-122201857D01*
X60011428Y-122344714D01*
X60082857Y-122487571D01*
X60154285Y-122773285D01*
X60154285Y-122987571D01*
X60082857Y-123273285D01*
X60011428Y-123416142D01*
X59868571Y-123559000D01*
X59654285Y-123630428D01*
X59511428Y-123630428D01*
X59297142Y-123559000D01*
X59225714Y-123487571D01*
X29753714Y-130683000D02*
X29039428Y-130683000D01*
X30539428Y-130183000D02*
X29753714Y-130683000D01*
X30539428Y-131183000D01*
X29039428Y-127591285D02*
X29753714Y-127091285D01*
X29039428Y-126734142D02*
X30539428Y-126734142D01*
X30539428Y-127305571D01*
X30468000Y-127448428D01*
X30396571Y-127519857D01*
X30253714Y-127591285D01*
X30039428Y-127591285D01*
X29896571Y-127519857D01*
X29825142Y-127448428D01*
X29753714Y-127305571D01*
X29753714Y-126734142D01*
X28912428Y-153118285D02*
X29626714Y-152618285D01*
X28912428Y-152261142D02*
X30412428Y-152261142D01*
X30412428Y-152832571D01*
X30341000Y-152975428D01*
X30269571Y-153046857D01*
X30126714Y-153118285D01*
X29912428Y-153118285D01*
X29769571Y-153046857D01*
X29698142Y-152975428D01*
X29626714Y-152832571D01*
X29626714Y-152261142D01*
X65932857Y-122916142D02*
X65718571Y-122844714D01*
X65647142Y-122773285D01*
X65575714Y-122630428D01*
X65575714Y-122416142D01*
X65647142Y-122273285D01*
X65718571Y-122201857D01*
X65861428Y-122130428D01*
X66432857Y-122130428D01*
X66432857Y-123630428D01*
X65932857Y-123630428D01*
X65790000Y-123559000D01*
X65718571Y-123487571D01*
X65647142Y-123344714D01*
X65647142Y-123201857D01*
X65718571Y-123059000D01*
X65790000Y-122987571D01*
X65932857Y-122916142D01*
X66432857Y-122916142D01*
X99460857Y-140747428D02*
X99532285Y-140533142D01*
X99603714Y-140461714D01*
X99746571Y-140390285D01*
X99960857Y-140390285D01*
X100103714Y-140461714D01*
X100175142Y-140533142D01*
X100246571Y-140676000D01*
X100246571Y-141247428D01*
X98746571Y-141247428D01*
X98746571Y-140747428D01*
X98818000Y-140604571D01*
X98889428Y-140533142D01*
X99032285Y-140461714D01*
X99175142Y-140461714D01*
X99318000Y-140533142D01*
X99389428Y-140604571D01*
X99460857Y-140747428D01*
X99460857Y-141247428D01*
X100246571Y-139747428D02*
X98746571Y-139747428D01*
X98746571Y-139390285D01*
X98818000Y-139176000D01*
X98960857Y-139033142D01*
X99103714Y-138961714D01*
X99389428Y-138890285D01*
X99603714Y-138890285D01*
X99889428Y-138961714D01*
X100032285Y-139033142D01*
X100175142Y-139176000D01*
X100246571Y-139390285D01*
X100246571Y-139747428D01*
X100246571Y-137461714D02*
X100246571Y-138318857D01*
X100246571Y-137890285D02*
X98746571Y-137890285D01*
X98960857Y-138033142D01*
X99103714Y-138176000D01*
X99175142Y-138318857D01*
X99818000Y-135747428D02*
X99818000Y-135033142D01*
X100246571Y-135890285D02*
X98746571Y-135390285D01*
X100246571Y-134890285D01*
D12*
X68507428Y-150368000D02*
X68870285Y-150368000D01*
X68725142Y-150730857D02*
X68870285Y-150368000D01*
X68725142Y-150005142D01*
X69160571Y-150585714D02*
X68870285Y-150368000D01*
X69160571Y-150150285D01*
D13*
X53769380Y-121191140D02*
X53769380Y-122207140D01*
X53140428Y-121191140D02*
X53237190Y-121239521D01*
X53285571Y-121287902D01*
X53333952Y-121384664D01*
X53333952Y-121674950D01*
X53285571Y-121771712D01*
X53237190Y-121820093D01*
X53140428Y-121868474D01*
X52995285Y-121868474D01*
X52898523Y-121820093D01*
X52850142Y-121771712D01*
X52801761Y-121674950D01*
X52801761Y-121384664D01*
X52850142Y-121287902D01*
X52898523Y-121239521D01*
X52995285Y-121191140D01*
X53140428Y-121191140D01*
X52463095Y-121868474D02*
X52269571Y-121191140D01*
X52076047Y-121674950D01*
X51882523Y-121191140D01*
X51689000Y-121868474D01*
X50866523Y-121191140D02*
X50866523Y-121723331D01*
X50914904Y-121820093D01*
X51011666Y-121868474D01*
X51205190Y-121868474D01*
X51301952Y-121820093D01*
X50866523Y-121239521D02*
X50963285Y-121191140D01*
X51205190Y-121191140D01*
X51301952Y-121239521D01*
X51350333Y-121336283D01*
X51350333Y-121433045D01*
X51301952Y-121529807D01*
X51205190Y-121578188D01*
X50963285Y-121578188D01*
X50866523Y-121626569D01*
X49657000Y-121239521D02*
X49511857Y-121191140D01*
X49269952Y-121191140D01*
X49173190Y-121239521D01*
X49124809Y-121287902D01*
X49076428Y-121384664D01*
X49076428Y-121481426D01*
X49124809Y-121578188D01*
X49173190Y-121626569D01*
X49269952Y-121674950D01*
X49463476Y-121723331D01*
X49560238Y-121771712D01*
X49608619Y-121820093D01*
X49657000Y-121916855D01*
X49657000Y-122013617D01*
X49608619Y-122110379D01*
X49560238Y-122158760D01*
X49463476Y-122207140D01*
X49221571Y-122207140D01*
X49076428Y-122158760D01*
X48205571Y-121239521D02*
X48302333Y-121191140D01*
X48495857Y-121191140D01*
X48592619Y-121239521D01*
X48641000Y-121287902D01*
X48689380Y-121384664D01*
X48689380Y-121674950D01*
X48641000Y-121771712D01*
X48592619Y-121820093D01*
X48495857Y-121868474D01*
X48302333Y-121868474D01*
X48205571Y-121820093D01*
X47334714Y-121191140D02*
X47334714Y-121723331D01*
X47383095Y-121820093D01*
X47479857Y-121868474D01*
X47673380Y-121868474D01*
X47770142Y-121820093D01*
X47334714Y-121239521D02*
X47431476Y-121191140D01*
X47673380Y-121191140D01*
X47770142Y-121239521D01*
X47818523Y-121336283D01*
X47818523Y-121433045D01*
X47770142Y-121529807D01*
X47673380Y-121578188D01*
X47431476Y-121578188D01*
X47334714Y-121626569D01*
X46705761Y-121191140D02*
X46802523Y-121239521D01*
X46850904Y-121336283D01*
X46850904Y-122207140D01*
X45931666Y-121239521D02*
X46028428Y-121191140D01*
X46221952Y-121191140D01*
X46318714Y-121239521D01*
X46367095Y-121336283D01*
X46367095Y-121723331D01*
X46318714Y-121820093D01*
X46221952Y-121868474D01*
X46028428Y-121868474D01*
X45931666Y-121820093D01*
X45883285Y-121723331D01*
X45883285Y-121626569D01*
X46367095Y-121529807D01*
X45012428Y-121191140D02*
X45012428Y-122207140D01*
X45012428Y-121239521D02*
X45109190Y-121191140D01*
X45302714Y-121191140D01*
X45399476Y-121239521D01*
X45447857Y-121287902D01*
X45496238Y-121384664D01*
X45496238Y-121674950D01*
X45447857Y-121771712D01*
X45399476Y-121820093D01*
X45302714Y-121868474D01*
X45109190Y-121868474D01*
X45012428Y-121820093D01*
X43754523Y-121723331D02*
X43415857Y-121723331D01*
X43270714Y-121191140D02*
X43754523Y-121191140D01*
X43754523Y-122207140D01*
X43270714Y-122207140D01*
X42835285Y-121868474D02*
X42835285Y-121191140D01*
X42835285Y-121771712D02*
X42786904Y-121820093D01*
X42690142Y-121868474D01*
X42545000Y-121868474D01*
X42448238Y-121820093D01*
X42399857Y-121723331D01*
X42399857Y-121191140D01*
X41480619Y-121868474D02*
X41480619Y-121045998D01*
X41529000Y-120949236D01*
X41577380Y-120900855D01*
X41674142Y-120852474D01*
X41819285Y-120852474D01*
X41916047Y-120900855D01*
X41480619Y-121239521D02*
X41577380Y-121191140D01*
X41770904Y-121191140D01*
X41867666Y-121239521D01*
X41916047Y-121287902D01*
X41964428Y-121384664D01*
X41964428Y-121674950D01*
X41916047Y-121771712D01*
X41867666Y-121820093D01*
X41770904Y-121868474D01*
X41577380Y-121868474D01*
X41480619Y-121820093D01*
X40996809Y-121191140D02*
X40996809Y-121868474D01*
X40996809Y-122207140D02*
X41045190Y-122158760D01*
X40996809Y-122110379D01*
X40948428Y-122158760D01*
X40996809Y-122207140D01*
X40996809Y-122110379D01*
X40513000Y-121868474D02*
X40513000Y-121191140D01*
X40513000Y-121771712D02*
X40464619Y-121820093D01*
X40367857Y-121868474D01*
X40222714Y-121868474D01*
X40125952Y-121820093D01*
X40077571Y-121723331D01*
X40077571Y-121191140D01*
X39206714Y-121239521D02*
X39303476Y-121191140D01*
X39497000Y-121191140D01*
X39593761Y-121239521D01*
X39642142Y-121336283D01*
X39642142Y-121723331D01*
X39593761Y-121820093D01*
X39497000Y-121868474D01*
X39303476Y-121868474D01*
X39206714Y-121820093D01*
X39158333Y-121723331D01*
X39158333Y-121626569D01*
X39642142Y-121529807D01*
X38335857Y-121239521D02*
X38432619Y-121191140D01*
X38626142Y-121191140D01*
X38722904Y-121239521D01*
X38771285Y-121336283D01*
X38771285Y-121723331D01*
X38722904Y-121820093D01*
X38626142Y-121868474D01*
X38432619Y-121868474D01*
X38335857Y-121820093D01*
X38287476Y-121723331D01*
X38287476Y-121626569D01*
X38771285Y-121529807D01*
X37852047Y-121191140D02*
X37852047Y-121868474D01*
X37852047Y-121674950D02*
X37803666Y-121771712D01*
X37755285Y-121820093D01*
X37658523Y-121868474D01*
X37561761Y-121868474D01*
X37223095Y-121191140D02*
X37223095Y-121868474D01*
X37223095Y-122207140D02*
X37271476Y-122158760D01*
X37223095Y-122110379D01*
X37174714Y-122158760D01*
X37223095Y-122207140D01*
X37223095Y-122110379D01*
X36739285Y-121868474D02*
X36739285Y-121191140D01*
X36739285Y-121771712D02*
X36690904Y-121820093D01*
X36594142Y-121868474D01*
X36449000Y-121868474D01*
X36352238Y-121820093D01*
X36303857Y-121723331D01*
X36303857Y-121191140D01*
X35384619Y-121868474D02*
X35384619Y-121045998D01*
X35433000Y-120949236D01*
X35481380Y-120900855D01*
X35578142Y-120852474D01*
X35723285Y-120852474D01*
X35820047Y-120900855D01*
X35384619Y-121239521D02*
X35481380Y-121191140D01*
X35674904Y-121191140D01*
X35771666Y-121239521D01*
X35820047Y-121287902D01*
X35868428Y-121384664D01*
X35868428Y-121674950D01*
X35820047Y-121771712D01*
X35771666Y-121820093D01*
X35674904Y-121868474D01*
X35481380Y-121868474D01*
X35384619Y-121820093D01*
X54640238Y-119555380D02*
X54640238Y-120571380D01*
X54301571Y-119845666D01*
X53962904Y-120571380D01*
X53962904Y-119555380D01*
X53527476Y-119603761D02*
X53382333Y-119555380D01*
X53140428Y-119555380D01*
X53043666Y-119603761D01*
X52995285Y-119652142D01*
X52946904Y-119748904D01*
X52946904Y-119845666D01*
X52995285Y-119942428D01*
X53043666Y-119990809D01*
X53140428Y-120039190D01*
X53333952Y-120087571D01*
X53430714Y-120135952D01*
X53479095Y-120184333D01*
X53527476Y-120281095D01*
X53527476Y-120377857D01*
X53479095Y-120474619D01*
X53430714Y-120523000D01*
X53333952Y-120571380D01*
X53092047Y-120571380D01*
X52946904Y-120523000D01*
X52559857Y-119603761D02*
X52414714Y-119555380D01*
X52172809Y-119555380D01*
X52076047Y-119603761D01*
X52027666Y-119652142D01*
X51979285Y-119748904D01*
X51979285Y-119845666D01*
X52027666Y-119942428D01*
X52076047Y-119990809D01*
X52172809Y-120039190D01*
X52366333Y-120087571D01*
X52463095Y-120135952D01*
X52511476Y-120184333D01*
X52559857Y-120281095D01*
X52559857Y-120377857D01*
X52511476Y-120474619D01*
X52463095Y-120523000D01*
X52366333Y-120571380D01*
X52124428Y-120571380D01*
X51979285Y-120523000D01*
X51543857Y-119942428D02*
X50769761Y-119942428D01*
X49705380Y-119652142D02*
X49753761Y-119603761D01*
X49898904Y-119555380D01*
X49995666Y-119555380D01*
X50140809Y-119603761D01*
X50237571Y-119700523D01*
X50285952Y-119797285D01*
X50334333Y-119990809D01*
X50334333Y-120135952D01*
X50285952Y-120329476D01*
X50237571Y-120426238D01*
X50140809Y-120523000D01*
X49995666Y-120571380D01*
X49898904Y-120571380D01*
X49753761Y-120523000D01*
X49705380Y-120474619D01*
X49318333Y-119845666D02*
X48834523Y-119845666D01*
X49415095Y-119555380D02*
X49076428Y-120571380D01*
X48737761Y-119555380D01*
X48447476Y-119603761D02*
X48302333Y-119555380D01*
X48060428Y-119555380D01*
X47963666Y-119603761D01*
X47915285Y-119652142D01*
X47866904Y-119748904D01*
X47866904Y-119845666D01*
X47915285Y-119942428D01*
X47963666Y-119990809D01*
X48060428Y-120039190D01*
X48253952Y-120087571D01*
X48350714Y-120135952D01*
X48399095Y-120184333D01*
X48447476Y-120281095D01*
X48447476Y-120377857D01*
X48399095Y-120474619D01*
X48350714Y-120523000D01*
X48253952Y-120571380D01*
X48012047Y-120571380D01*
X47866904Y-120523000D01*
X46850904Y-119652142D02*
X46899285Y-119603761D01*
X47044428Y-119555380D01*
X47141190Y-119555380D01*
X47286333Y-119603761D01*
X47383095Y-119700523D01*
X47431476Y-119797285D01*
X47479857Y-119990809D01*
X47479857Y-120135952D01*
X47431476Y-120329476D01*
X47383095Y-120426238D01*
X47286333Y-120523000D01*
X47141190Y-120571380D01*
X47044428Y-120571380D01*
X46899285Y-120523000D01*
X46850904Y-120474619D01*
X46463857Y-119845666D02*
X45980047Y-119845666D01*
X46560619Y-119555380D02*
X46221952Y-120571380D01*
X45883285Y-119555380D01*
X45544619Y-119555380D02*
X45544619Y-120571380D01*
X45302714Y-120571380D01*
X45157571Y-120523000D01*
X45060809Y-120426238D01*
X45012428Y-120329476D01*
X44964047Y-120135952D01*
X44964047Y-119990809D01*
X45012428Y-119797285D01*
X45060809Y-119700523D01*
X45157571Y-119603761D01*
X45302714Y-119555380D01*
X45544619Y-119555380D01*
X44528619Y-120087571D02*
X44189952Y-120087571D01*
X44044809Y-119555380D02*
X44528619Y-119555380D01*
X44528619Y-120571380D01*
X44044809Y-120571380D01*
X43609380Y-119942428D02*
X42835285Y-119942428D01*
X42012809Y-120087571D02*
X41867666Y-120039190D01*
X41819285Y-119990809D01*
X41770904Y-119894047D01*
X41770904Y-119748904D01*
X41819285Y-119652142D01*
X41867666Y-119603761D01*
X41964428Y-119555380D01*
X42351476Y-119555380D01*
X42351476Y-120571380D01*
X42012809Y-120571380D01*
X41916047Y-120523000D01*
X41867666Y-120474619D01*
X41819285Y-120377857D01*
X41819285Y-120281095D01*
X41867666Y-120184333D01*
X41916047Y-120135952D01*
X42012809Y-120087571D01*
X42351476Y-120087571D01*
X41383857Y-119845666D02*
X40900047Y-119845666D01*
X41480619Y-119555380D02*
X41141952Y-120571380D01*
X40803285Y-119555380D01*
X40513000Y-119603761D02*
X40367857Y-119555380D01*
X40125952Y-119555380D01*
X40029190Y-119603761D01*
X39980809Y-119652142D01*
X39932428Y-119748904D01*
X39932428Y-119845666D01*
X39980809Y-119942428D01*
X40029190Y-119990809D01*
X40125952Y-120039190D01*
X40319476Y-120087571D01*
X40416238Y-120135952D01*
X40464619Y-120184333D01*
X40513000Y-120281095D01*
X40513000Y-120377857D01*
X40464619Y-120474619D01*
X40416238Y-120523000D01*
X40319476Y-120571380D01*
X40077571Y-120571380D01*
X39932428Y-120523000D01*
X39497000Y-119555380D02*
X39497000Y-120571380D01*
X38432619Y-119652142D02*
X38481000Y-119603761D01*
X38626142Y-119555380D01*
X38722904Y-119555380D01*
X38868047Y-119603761D01*
X38964809Y-119700523D01*
X39013190Y-119797285D01*
X39061571Y-119990809D01*
X39061571Y-120135952D01*
X39013190Y-120329476D01*
X38964809Y-120426238D01*
X38868047Y-120523000D01*
X38722904Y-120571380D01*
X38626142Y-120571380D01*
X38481000Y-120523000D01*
X38432619Y-120474619D01*
X37319857Y-120232714D02*
X37077952Y-119555380D01*
X36836047Y-120232714D01*
X35916809Y-119555380D02*
X36497380Y-119555380D01*
X36207095Y-119555380D02*
X36207095Y-120571380D01*
X36303857Y-120426238D01*
X36400619Y-120329476D01*
X36497380Y-120281095D01*
X35481380Y-119652142D02*
X35433000Y-119603761D01*
X35481380Y-119555380D01*
X35529761Y-119603761D01*
X35481380Y-119652142D01*
X35481380Y-119555380D01*
X34804047Y-120571380D02*
X34707285Y-120571380D01*
X34610523Y-120523000D01*
X34562142Y-120474619D01*
X34513761Y-120377857D01*
X34465380Y-120184333D01*
X34465380Y-119942428D01*
X34513761Y-119748904D01*
X34562142Y-119652142D01*
X34610523Y-119603761D01*
X34707285Y-119555380D01*
X34804047Y-119555380D01*
X34900809Y-119603761D01*
X34949190Y-119652142D01*
X34997571Y-119748904D01*
X35045952Y-119942428D01*
X35045952Y-120184333D01*
X34997571Y-120377857D01*
X34949190Y-120474619D01*
X34900809Y-120523000D01*
X34804047Y-120571380D01*
X54446714Y-118596954D02*
X54253190Y-117919620D01*
X54059666Y-118403430D01*
X53866142Y-117919620D01*
X53672619Y-118596954D01*
X53382333Y-118596954D02*
X53188809Y-117919620D01*
X52995285Y-118403430D01*
X52801761Y-117919620D01*
X52608238Y-118596954D01*
X52317952Y-118596954D02*
X52124428Y-117919620D01*
X51930904Y-118403430D01*
X51737380Y-117919620D01*
X51543857Y-118596954D01*
X51156809Y-118016382D02*
X51108428Y-117968001D01*
X51156809Y-117919620D01*
X51205190Y-117968001D01*
X51156809Y-118016382D01*
X51156809Y-117919620D01*
X50673000Y-117919620D02*
X50673000Y-118596954D01*
X50673000Y-118935620D02*
X50721380Y-118887240D01*
X50673000Y-118838859D01*
X50624619Y-118887240D01*
X50673000Y-118935620D01*
X50673000Y-118838859D01*
X49753761Y-117919620D02*
X49753761Y-118451811D01*
X49802142Y-118548573D01*
X49898904Y-118596954D01*
X50092428Y-118596954D01*
X50189190Y-118548573D01*
X49753761Y-117968001D02*
X49850523Y-117919620D01*
X50092428Y-117919620D01*
X50189190Y-117968001D01*
X50237571Y-118064763D01*
X50237571Y-118161525D01*
X50189190Y-118258287D01*
X50092428Y-118306668D01*
X49850523Y-118306668D01*
X49753761Y-118355049D01*
X49318333Y-117968001D02*
X49221571Y-117919620D01*
X49028047Y-117919620D01*
X48931285Y-117968001D01*
X48882904Y-118064763D01*
X48882904Y-118113144D01*
X48931285Y-118209906D01*
X49028047Y-118258287D01*
X49173190Y-118258287D01*
X49269952Y-118306668D01*
X49318333Y-118403430D01*
X49318333Y-118451811D01*
X49269952Y-118548573D01*
X49173190Y-118596954D01*
X49028047Y-118596954D01*
X48931285Y-118548573D01*
X48012047Y-117968001D02*
X48108809Y-117919620D01*
X48302333Y-117919620D01*
X48399095Y-117968001D01*
X48447476Y-118016382D01*
X48495857Y-118113144D01*
X48495857Y-118403430D01*
X48447476Y-118500192D01*
X48399095Y-118548573D01*
X48302333Y-118596954D01*
X48108809Y-118596954D01*
X48012047Y-118548573D01*
X47141190Y-117919620D02*
X47141190Y-118451811D01*
X47189571Y-118548573D01*
X47286333Y-118596954D01*
X47479857Y-118596954D01*
X47576619Y-118548573D01*
X47141190Y-117968001D02*
X47237952Y-117919620D01*
X47479857Y-117919620D01*
X47576619Y-117968001D01*
X47625000Y-118064763D01*
X47625000Y-118161525D01*
X47576619Y-118258287D01*
X47479857Y-118306668D01*
X47237952Y-118306668D01*
X47141190Y-118355049D01*
X46512238Y-117919620D02*
X46609000Y-117968001D01*
X46657380Y-118064763D01*
X46657380Y-118935620D01*
X45738142Y-117968001D02*
X45834904Y-117919620D01*
X46028428Y-117919620D01*
X46125190Y-117968001D01*
X46173571Y-118064763D01*
X46173571Y-118451811D01*
X46125190Y-118548573D01*
X46028428Y-118596954D01*
X45834904Y-118596954D01*
X45738142Y-118548573D01*
X45689761Y-118451811D01*
X45689761Y-118355049D01*
X46173571Y-118258287D01*
X44818904Y-117919620D02*
X44818904Y-118935620D01*
X44818904Y-117968001D02*
X44915666Y-117919620D01*
X45109190Y-117919620D01*
X45205952Y-117968001D01*
X45254333Y-118016382D01*
X45302714Y-118113144D01*
X45302714Y-118403430D01*
X45254333Y-118500192D01*
X45205952Y-118548573D01*
X45109190Y-118596954D01*
X44915666Y-118596954D01*
X44818904Y-118548573D01*
X44335095Y-118016382D02*
X44286714Y-117968001D01*
X44335095Y-117919620D01*
X44383476Y-117968001D01*
X44335095Y-118016382D01*
X44335095Y-117919620D01*
X43415857Y-117968001D02*
X43512619Y-117919620D01*
X43706142Y-117919620D01*
X43802904Y-117968001D01*
X43851285Y-118016382D01*
X43899666Y-118113144D01*
X43899666Y-118403430D01*
X43851285Y-118500192D01*
X43802904Y-118548573D01*
X43706142Y-118596954D01*
X43512619Y-118596954D01*
X43415857Y-118548573D01*
X42835285Y-117919620D02*
X42932047Y-117968001D01*
X42980428Y-118016382D01*
X43028809Y-118113144D01*
X43028809Y-118403430D01*
X42980428Y-118500192D01*
X42932047Y-118548573D01*
X42835285Y-118596954D01*
X42690142Y-118596954D01*
X42593380Y-118548573D01*
X42545000Y-118500192D01*
X42496619Y-118403430D01*
X42496619Y-118113144D01*
X42545000Y-118016382D01*
X42593380Y-117968001D01*
X42690142Y-117919620D01*
X42835285Y-117919620D01*
X42061190Y-117919620D02*
X42061190Y-118596954D01*
X42061190Y-118500192D02*
X42012809Y-118548573D01*
X41916047Y-118596954D01*
X41770904Y-118596954D01*
X41674142Y-118548573D01*
X41625761Y-118451811D01*
X41625761Y-117919620D01*
X41625761Y-118451811D02*
X41577380Y-118548573D01*
X41480619Y-118596954D01*
X41335476Y-118596954D01*
X41238714Y-118548573D01*
X41190333Y-118451811D01*
X41190333Y-117919620D01*
X39109952Y-118693716D02*
X39206714Y-118742097D01*
X39400238Y-118742097D01*
X39497000Y-118693716D01*
X39593761Y-118596954D01*
X39642142Y-118500192D01*
X39642142Y-118306668D01*
X39593761Y-118209906D01*
X39497000Y-118113144D01*
X39400238Y-118064763D01*
X39206714Y-118064763D01*
X39109952Y-118113144D01*
X39303476Y-119080763D02*
X39545380Y-119032382D01*
X39787285Y-118887240D01*
X39932428Y-118645335D01*
X39980809Y-118403430D01*
X39932428Y-118161525D01*
X39787285Y-117919620D01*
X39545380Y-117774478D01*
X39303476Y-117726097D01*
X39061571Y-117774478D01*
X38819666Y-117919620D01*
X38674523Y-118161525D01*
X38626142Y-118403430D01*
X38674523Y-118645335D01*
X38819666Y-118887240D01*
X39061571Y-119032382D01*
X39303476Y-119080763D01*
X38239095Y-118838859D02*
X38190714Y-118887240D01*
X38093952Y-118935620D01*
X37852047Y-118935620D01*
X37755285Y-118887240D01*
X37706904Y-118838859D01*
X37658523Y-118742097D01*
X37658523Y-118645335D01*
X37706904Y-118500192D01*
X38287476Y-117919620D01*
X37658523Y-117919620D01*
X37029571Y-118935620D02*
X36932809Y-118935620D01*
X36836047Y-118887240D01*
X36787666Y-118838859D01*
X36739285Y-118742097D01*
X36690904Y-118548573D01*
X36690904Y-118306668D01*
X36739285Y-118113144D01*
X36787666Y-118016382D01*
X36836047Y-117968001D01*
X36932809Y-117919620D01*
X37029571Y-117919620D01*
X37126333Y-117968001D01*
X37174714Y-118016382D01*
X37223095Y-118113144D01*
X37271476Y-118306668D01*
X37271476Y-118548573D01*
X37223095Y-118742097D01*
X37174714Y-118838859D01*
X37126333Y-118887240D01*
X37029571Y-118935620D01*
X36303857Y-118838859D02*
X36255476Y-118887240D01*
X36158714Y-118935620D01*
X35916809Y-118935620D01*
X35820047Y-118887240D01*
X35771666Y-118838859D01*
X35723285Y-118742097D01*
X35723285Y-118645335D01*
X35771666Y-118500192D01*
X36352238Y-117919620D01*
X35723285Y-117919620D01*
X34852428Y-118596954D02*
X34852428Y-117919620D01*
X35094333Y-118984001D02*
X35336238Y-118258287D01*
X34707285Y-118258287D01*
D11*
X73575714Y-119416785D02*
X73647142Y-119345357D01*
X73861428Y-119273928D01*
X74004285Y-119273928D01*
X74218571Y-119345357D01*
X74361428Y-119488214D01*
X74432857Y-119631071D01*
X74504285Y-119916785D01*
X74504285Y-120131071D01*
X74432857Y-120416785D01*
X74361428Y-120559642D01*
X74218571Y-120702500D01*
X74004285Y-120773928D01*
X73861428Y-120773928D01*
X73647142Y-120702500D01*
X73575714Y-120631071D01*
X72647142Y-120773928D02*
X72361428Y-120773928D01*
X72218571Y-120702500D01*
X72075714Y-120559642D01*
X72004285Y-120273928D01*
X72004285Y-119773928D01*
X72075714Y-119488214D01*
X72218571Y-119345357D01*
X72361428Y-119273928D01*
X72647142Y-119273928D01*
X72790000Y-119345357D01*
X72932857Y-119488214D01*
X73004285Y-119773928D01*
X73004285Y-120273928D01*
X72932857Y-120559642D01*
X72790000Y-120702500D01*
X72647142Y-120773928D01*
X71361428Y-119273928D02*
X71361428Y-120773928D01*
X70504285Y-119273928D01*
X70504285Y-120773928D01*
X69290000Y-120059642D02*
X69790000Y-120059642D01*
X69790000Y-119273928D02*
X69790000Y-120773928D01*
X69075714Y-120773928D01*
X68504285Y-119273928D02*
X68504285Y-120773928D01*
X67004285Y-120702500D02*
X67147142Y-120773928D01*
X67361428Y-120773928D01*
X67575714Y-120702500D01*
X67718571Y-120559642D01*
X67790000Y-120416785D01*
X67861428Y-120131071D01*
X67861428Y-119916785D01*
X67790000Y-119631071D01*
X67718571Y-119488214D01*
X67575714Y-119345357D01*
X67361428Y-119273928D01*
X67218571Y-119273928D01*
X67004285Y-119345357D01*
X66932857Y-119416785D01*
X66932857Y-119916785D01*
X67218571Y-119916785D01*
X66290000Y-120773928D02*
X66290000Y-119559642D01*
X66218571Y-119416785D01*
X66147142Y-119345357D01*
X66004285Y-119273928D01*
X65718571Y-119273928D01*
X65575714Y-119345357D01*
X65504285Y-119416785D01*
X65432857Y-119559642D01*
X65432857Y-120773928D01*
X63861428Y-119273928D02*
X64361428Y-119988214D01*
X64718571Y-119273928D02*
X64718571Y-120773928D01*
X64147142Y-120773928D01*
X64004285Y-120702500D01*
X63932857Y-120631071D01*
X63861428Y-120488214D01*
X63861428Y-120273928D01*
X63932857Y-120131071D01*
X64004285Y-120059642D01*
X64147142Y-119988214D01*
X64718571Y-119988214D01*
X63290000Y-119702500D02*
X62575714Y-119702500D01*
X63432857Y-119273928D02*
X62932857Y-120773928D01*
X62432857Y-119273928D01*
X62147142Y-120773928D02*
X61290000Y-120773928D01*
X61718571Y-119273928D02*
X61718571Y-120773928D01*
X60790000Y-119273928D02*
X60790000Y-120773928D01*
X59790000Y-120773928D02*
X59504285Y-120773928D01*
X59361428Y-120702500D01*
X59218571Y-120559642D01*
X59147142Y-120273928D01*
X59147142Y-119773928D01*
X59218571Y-119488214D01*
X59361428Y-119345357D01*
X59504285Y-119273928D01*
X59790000Y-119273928D01*
X59932857Y-119345357D01*
X60075714Y-119488214D01*
X60147142Y-119773928D01*
X60147142Y-120273928D01*
X60075714Y-120559642D01*
X59932857Y-120702500D01*
X59790000Y-120773928D01*
X58504285Y-119273928D02*
X58504285Y-120773928D01*
X57647142Y-119273928D01*
X57647142Y-120773928D01*
X75718571Y-116930357D02*
X75504285Y-116858928D01*
X75147142Y-116858928D01*
X75004285Y-116930357D01*
X74932857Y-117001785D01*
X74861428Y-117144642D01*
X74861428Y-117287500D01*
X74932857Y-117430357D01*
X75004285Y-117501785D01*
X75147142Y-117573214D01*
X75432857Y-117644642D01*
X75575714Y-117716071D01*
X75647142Y-117787500D01*
X75718571Y-117930357D01*
X75718571Y-118073214D01*
X75647142Y-118216071D01*
X75575714Y-118287500D01*
X75432857Y-118358928D01*
X75075714Y-118358928D01*
X74861428Y-118287500D01*
X73932857Y-118358928D02*
X73647142Y-118358928D01*
X73504285Y-118287500D01*
X73361428Y-118144642D01*
X73290000Y-117858928D01*
X73290000Y-117358928D01*
X73361428Y-117073214D01*
X73504285Y-116930357D01*
X73647142Y-116858928D01*
X73932857Y-116858928D01*
X74075714Y-116930357D01*
X74218571Y-117073214D01*
X74290000Y-117358928D01*
X74290000Y-117858928D01*
X74218571Y-118144642D01*
X74075714Y-118287500D01*
X73932857Y-118358928D01*
X71932857Y-116858928D02*
X72647142Y-116858928D01*
X72647142Y-118358928D01*
X71432857Y-116858928D02*
X71432857Y-118358928D01*
X71075714Y-118358928D01*
X70861428Y-118287500D01*
X70718571Y-118144642D01*
X70647142Y-118001785D01*
X70575714Y-117716071D01*
X70575714Y-117501785D01*
X70647142Y-117216071D01*
X70718571Y-117073214D01*
X70861428Y-116930357D01*
X71075714Y-116858928D01*
X71432857Y-116858928D01*
X69932857Y-117644642D02*
X69432857Y-117644642D01*
X69218571Y-116858928D02*
X69932857Y-116858928D01*
X69932857Y-118358928D01*
X69218571Y-118358928D01*
X67718571Y-116858928D02*
X68218571Y-117573214D01*
X68575714Y-116858928D02*
X68575714Y-118358928D01*
X68004285Y-118358928D01*
X67861428Y-118287500D01*
X67790000Y-118216071D01*
X67718571Y-118073214D01*
X67718571Y-117858928D01*
X67790000Y-117716071D01*
X67861428Y-117644642D01*
X68004285Y-117573214D01*
X68575714Y-117573214D01*
X65504285Y-118358928D02*
X65504285Y-117287500D01*
X65575714Y-117073214D01*
X65718571Y-116930357D01*
X65932857Y-116858928D01*
X66075714Y-116858928D01*
X64790000Y-118358928D02*
X64790000Y-117144642D01*
X64718571Y-117001785D01*
X64647142Y-116930357D01*
X64504285Y-116858928D01*
X64218571Y-116858928D01*
X64075714Y-116930357D01*
X64004285Y-117001785D01*
X63932857Y-117144642D01*
X63932857Y-118358928D01*
X63218571Y-116858928D02*
X63218571Y-118358928D01*
X62718571Y-117287500D01*
X62218571Y-118358928D01*
X62218571Y-116858928D01*
X61504285Y-116858928D02*
X61504285Y-118358928D01*
X60932857Y-118358928D01*
X60790000Y-118287500D01*
X60718571Y-118216071D01*
X60647142Y-118073214D01*
X60647142Y-117858928D01*
X60718571Y-117716071D01*
X60790000Y-117644642D01*
X60932857Y-117573214D01*
X61504285Y-117573214D01*
X60004285Y-117644642D02*
X59504285Y-117644642D01*
X59290000Y-116858928D02*
X60004285Y-116858928D01*
X60004285Y-118358928D01*
X59290000Y-118358928D01*
X57790000Y-116858928D02*
X58290000Y-117573214D01*
X58647142Y-116858928D02*
X58647142Y-118358928D01*
X58075714Y-118358928D01*
X57932857Y-118287500D01*
X57861428Y-118216071D01*
X57790000Y-118073214D01*
X57790000Y-117858928D01*
X57861428Y-117716071D01*
X57932857Y-117644642D01*
X58075714Y-117573214D01*
X58647142Y-117573214D01*
X57218571Y-116930357D02*
X57004285Y-116858928D01*
X56647142Y-116858928D01*
X56504285Y-116930357D01*
X56432857Y-117001785D01*
X56361428Y-117144642D01*
X56361428Y-117287500D01*
X56432857Y-117430357D01*
X56504285Y-117501785D01*
X56647142Y-117573214D01*
X56932857Y-117644642D01*
X57075714Y-117716071D01*
X57147142Y-117787500D01*
X57218571Y-117930357D01*
X57218571Y-118073214D01*
X57147142Y-118216071D01*
X57075714Y-118287500D01*
X56932857Y-118358928D01*
X56575714Y-118358928D01*
X56361428Y-118287500D01*
X29246785Y-140029857D02*
X29175357Y-139958428D01*
X29103928Y-139744142D01*
X29103928Y-139601285D01*
X29175357Y-139387000D01*
X29318214Y-139244142D01*
X29461071Y-139172714D01*
X29746785Y-139101285D01*
X29961071Y-139101285D01*
X30246785Y-139172714D01*
X30389642Y-139244142D01*
X30532500Y-139387000D01*
X30603928Y-139601285D01*
X30603928Y-139744142D01*
X30532500Y-139958428D01*
X30461071Y-140029857D01*
X30603928Y-140958428D02*
X30603928Y-141244142D01*
X30532500Y-141387000D01*
X30389642Y-141529857D01*
X30103928Y-141601285D01*
X29603928Y-141601285D01*
X29318214Y-141529857D01*
X29175357Y-141387000D01*
X29103928Y-141244142D01*
X29103928Y-140958428D01*
X29175357Y-140815571D01*
X29318214Y-140672714D01*
X29603928Y-140601285D01*
X30103928Y-140601285D01*
X30389642Y-140672714D01*
X30532500Y-140815571D01*
X30603928Y-140958428D01*
X29103928Y-142244142D02*
X30603928Y-142244142D01*
X29532500Y-142744142D01*
X30603928Y-143244142D01*
X29103928Y-143244142D01*
X29103928Y-143958428D02*
X30603928Y-143958428D01*
X29532500Y-144458428D01*
X30603928Y-144958428D01*
X29103928Y-144958428D01*
X30603928Y-145958428D02*
X30603928Y-146244142D01*
X30532500Y-146387000D01*
X30389642Y-146529857D01*
X30103928Y-146601285D01*
X29603928Y-146601285D01*
X29318214Y-146529857D01*
X29175357Y-146387000D01*
X29103928Y-146244142D01*
X29103928Y-145958428D01*
X29175357Y-145815571D01*
X29318214Y-145672714D01*
X29603928Y-145601285D01*
X30103928Y-145601285D01*
X30389642Y-145672714D01*
X30532500Y-145815571D01*
X30603928Y-145958428D01*
X29103928Y-147244142D02*
X30603928Y-147244142D01*
X29103928Y-148101285D01*
X30603928Y-148101285D01*
X26760357Y-139887000D02*
X26688928Y-140101285D01*
X26688928Y-140458428D01*
X26760357Y-140601285D01*
X26831785Y-140672714D01*
X26974642Y-140744142D01*
X27117500Y-140744142D01*
X27260357Y-140672714D01*
X27331785Y-140601285D01*
X27403214Y-140458428D01*
X27474642Y-140172714D01*
X27546071Y-140029857D01*
X27617500Y-139958428D01*
X27760357Y-139887000D01*
X27903214Y-139887000D01*
X28046071Y-139958428D01*
X28117500Y-140029857D01*
X28188928Y-140172714D01*
X28188928Y-140529857D01*
X28117500Y-140744142D01*
X26688928Y-141387000D02*
X28188928Y-141387000D01*
X28117500Y-142887000D02*
X28188928Y-142744142D01*
X28188928Y-142529857D01*
X28117500Y-142315571D01*
X27974642Y-142172714D01*
X27831785Y-142101285D01*
X27546071Y-142029857D01*
X27331785Y-142029857D01*
X27046071Y-142101285D01*
X26903214Y-142172714D01*
X26760357Y-142315571D01*
X26688928Y-142529857D01*
X26688928Y-142672714D01*
X26760357Y-142887000D01*
X26831785Y-142958428D01*
X27331785Y-142958428D01*
X27331785Y-142672714D01*
X27260357Y-144744142D02*
X27260357Y-145887000D01*
X26688928Y-145315571D02*
X27831785Y-145315571D01*
X28188928Y-147315571D02*
X28188928Y-146601285D01*
X27474642Y-146529857D01*
X27546071Y-146601285D01*
X27617500Y-146744142D01*
X27617500Y-147101285D01*
X27546071Y-147244142D01*
X27474642Y-147315571D01*
X27331785Y-147387000D01*
X26974642Y-147387000D01*
X26831785Y-147315571D01*
X26760357Y-147244142D01*
X26688928Y-147101285D01*
X26688928Y-146744142D01*
X26760357Y-146601285D01*
X26831785Y-146529857D01*
X99587857Y-171588571D02*
X99659285Y-171374285D01*
X99730714Y-171302857D01*
X99873571Y-171231428D01*
X100087857Y-171231428D01*
X100230714Y-171302857D01*
X100302142Y-171374285D01*
X100373571Y-171517142D01*
X100373571Y-172088571D01*
X98873571Y-172088571D01*
X98873571Y-171588571D01*
X98945000Y-171445714D01*
X99016428Y-171374285D01*
X99159285Y-171302857D01*
X99302142Y-171302857D01*
X99445000Y-171374285D01*
X99516428Y-171445714D01*
X99587857Y-171588571D01*
X99587857Y-172088571D01*
X100373571Y-170588571D02*
X98873571Y-170588571D01*
X98873571Y-170231428D01*
X98945000Y-170017142D01*
X99087857Y-169874285D01*
X99230714Y-169802857D01*
X99516428Y-169731428D01*
X99730714Y-169731428D01*
X100016428Y-169802857D01*
X100159285Y-169874285D01*
X100302142Y-170017142D01*
X100373571Y-170231428D01*
X100373571Y-170588571D01*
X100373571Y-168302857D02*
X100373571Y-169160000D01*
X100373571Y-168731428D02*
X98873571Y-168731428D01*
X99087857Y-168874285D01*
X99230714Y-169017142D01*
X99302142Y-169160000D01*
X99587857Y-166017142D02*
X99659285Y-165802857D01*
X99730714Y-165731428D01*
X99873571Y-165660000D01*
X100087857Y-165660000D01*
X100230714Y-165731428D01*
X100302142Y-165802857D01*
X100373571Y-165945714D01*
X100373571Y-166517142D01*
X98873571Y-166517142D01*
X98873571Y-166017142D01*
X98945000Y-165874285D01*
X99016428Y-165802857D01*
X99159285Y-165731428D01*
X99302142Y-165731428D01*
X99445000Y-165802857D01*
X99516428Y-165874285D01*
X99587857Y-166017142D01*
X99587857Y-166517142D01*
X100055071Y-179855571D02*
X98555071Y-179855571D01*
X99626500Y-179355571D01*
X98555071Y-178855571D01*
X100055071Y-178855571D01*
X99983642Y-178212714D02*
X100055071Y-177998428D01*
X100055071Y-177641285D01*
X99983642Y-177498428D01*
X99912214Y-177427000D01*
X99769357Y-177355571D01*
X99626500Y-177355571D01*
X99483642Y-177427000D01*
X99412214Y-177498428D01*
X99340785Y-177641285D01*
X99269357Y-177927000D01*
X99197928Y-178069857D01*
X99126500Y-178141285D01*
X98983642Y-178212714D01*
X98840785Y-178212714D01*
X98697928Y-178141285D01*
X98626500Y-178069857D01*
X98555071Y-177927000D01*
X98555071Y-177569857D01*
X98626500Y-177355571D01*
X99983642Y-176784142D02*
X100055071Y-176569857D01*
X100055071Y-176212714D01*
X99983642Y-176069857D01*
X99912214Y-175998428D01*
X99769357Y-175927000D01*
X99626500Y-175927000D01*
X99483642Y-175998428D01*
X99412214Y-176069857D01*
X99340785Y-176212714D01*
X99269357Y-176498428D01*
X99197928Y-176641285D01*
X99126500Y-176712714D01*
X98983642Y-176784142D01*
X98840785Y-176784142D01*
X98697928Y-176712714D01*
X98626500Y-176641285D01*
X98555071Y-176498428D01*
X98555071Y-176141285D01*
X98626500Y-175927000D01*
X101684357Y-180605571D02*
X101755785Y-180391285D01*
X101827214Y-180319857D01*
X101970071Y-180248428D01*
X102184357Y-180248428D01*
X102327214Y-180319857D01*
X102398642Y-180391285D01*
X102470071Y-180534142D01*
X102470071Y-181105571D01*
X100970071Y-181105571D01*
X100970071Y-180605571D01*
X101041500Y-180462714D01*
X101112928Y-180391285D01*
X101255785Y-180319857D01*
X101398642Y-180319857D01*
X101541500Y-180391285D01*
X101612928Y-180462714D01*
X101684357Y-180605571D01*
X101684357Y-181105571D01*
X101684357Y-178462714D02*
X101684357Y-177962714D01*
X102470071Y-177748428D02*
X102470071Y-178462714D01*
X100970071Y-178462714D01*
X100970071Y-177748428D01*
X102470071Y-177105571D02*
X100970071Y-177105571D01*
X102470071Y-176248428D01*
X100970071Y-176248428D01*
X102470071Y-175534142D02*
X100970071Y-175534142D01*
X100970071Y-175177000D01*
X101041500Y-174962714D01*
X101184357Y-174819857D01*
X101327214Y-174748428D01*
X101612928Y-174677000D01*
X101827214Y-174677000D01*
X102112928Y-174748428D01*
X102255785Y-174819857D01*
X102398642Y-174962714D01*
X102470071Y-175177000D01*
X102470071Y-175534142D01*
X72747142Y-122559000D02*
X72032857Y-122559000D01*
X72890000Y-122130428D02*
X72390000Y-123630428D01*
X71890000Y-122130428D01*
X27182000Y-126024285D02*
X27182000Y-126738571D01*
X26753428Y-125881428D02*
X28253428Y-126381428D01*
X26753428Y-126881428D01*
X26824857Y-128452857D02*
X26753428Y-128667142D01*
X26753428Y-129024285D01*
X26824857Y-129167142D01*
X26896285Y-129238571D01*
X27039142Y-129310000D01*
X27182000Y-129310000D01*
X27324857Y-129238571D01*
X27396285Y-129167142D01*
X27467714Y-129024285D01*
X27539142Y-128738571D01*
X27610571Y-128595714D01*
X27682000Y-128524285D01*
X27824857Y-128452857D01*
X27967714Y-128452857D01*
X28110571Y-128524285D01*
X28182000Y-128595714D01*
X28253428Y-128738571D01*
X28253428Y-129095714D01*
X28182000Y-129310000D01*
X26753428Y-129952857D02*
X28253428Y-129952857D01*
X28182000Y-131452857D02*
X28253428Y-131310000D01*
X28253428Y-131095714D01*
X28182000Y-130881428D01*
X28039142Y-130738571D01*
X27896285Y-130667142D01*
X27610571Y-130595714D01*
X27396285Y-130595714D01*
X27110571Y-130667142D01*
X26967714Y-130738571D01*
X26824857Y-130881428D01*
X26753428Y-131095714D01*
X26753428Y-131238571D01*
X26824857Y-131452857D01*
X26896285Y-131524285D01*
X27396285Y-131524285D01*
X27396285Y-131238571D01*
X26753428Y-132167142D02*
X28253428Y-132167142D01*
X26753428Y-133024285D01*
X28253428Y-133024285D01*
X27182000Y-133667142D02*
X27182000Y-134381428D01*
X26753428Y-133524285D02*
X28253428Y-134024285D01*
X26753428Y-134524285D01*
X26753428Y-135738571D02*
X26753428Y-135024285D01*
X28253428Y-135024285D01*
D14*
X65905142Y-189047380D02*
X65571809Y-188571190D01*
X65333714Y-189047380D02*
X65333714Y-188047380D01*
X65714666Y-188047380D01*
X65809904Y-188095000D01*
X65857523Y-188142619D01*
X65905142Y-188237857D01*
X65905142Y-188380714D01*
X65857523Y-188475952D01*
X65809904Y-188523571D01*
X65714666Y-188571190D01*
X65333714Y-188571190D01*
X66857523Y-189047380D02*
X66286095Y-189047380D01*
X66571809Y-189047380D02*
X66571809Y-188047380D01*
X66476571Y-188190238D01*
X66381333Y-188285476D01*
X66286095Y-188333095D01*
X67190857Y-188047380D02*
X67857523Y-188047380D01*
X67428952Y-189047380D01*
X86637904Y-142565380D02*
X86637904Y-141565380D01*
X86876000Y-141565380D01*
X87018857Y-141613000D01*
X87114095Y-141708238D01*
X87161714Y-141803476D01*
X87209333Y-141993952D01*
X87209333Y-142136809D01*
X87161714Y-142327285D01*
X87114095Y-142422523D01*
X87018857Y-142517761D01*
X86876000Y-142565380D01*
X86637904Y-142565380D01*
X87542666Y-141565380D02*
X88209333Y-141565380D01*
X87780761Y-142565380D01*
X92389397Y-149423380D02*
X92056064Y-148947190D01*
X91817968Y-149423380D02*
X91817968Y-148423380D01*
X92198921Y-148423380D01*
X92294159Y-148471000D01*
X92341778Y-148518619D01*
X92389397Y-148613857D01*
X92389397Y-148756714D01*
X92341778Y-148851952D01*
X92294159Y-148899571D01*
X92198921Y-148947190D01*
X91817968Y-148947190D01*
X92865587Y-149423380D02*
X93056064Y-149423380D01*
X93151302Y-149375761D01*
X93198921Y-149328142D01*
X93294159Y-149185285D01*
X93341778Y-148994809D01*
X93341778Y-148613857D01*
X93294159Y-148518619D01*
X93246540Y-148471000D01*
X93151302Y-148423380D01*
X92960825Y-148423380D01*
X92865587Y-148471000D01*
X92817968Y-148518619D01*
X92770349Y-148613857D01*
X92770349Y-148851952D01*
X92817968Y-148947190D01*
X92865587Y-148994809D01*
X92960825Y-149042428D01*
X93151302Y-149042428D01*
X93246540Y-148994809D01*
X93294159Y-148947190D01*
X93341778Y-148851952D01*
X92421206Y-158186380D02*
X92087873Y-157710190D01*
X91849778Y-158186380D02*
X91849778Y-157186380D01*
X92230730Y-157186380D01*
X92325968Y-157234000D01*
X92373587Y-157281619D01*
X92421206Y-157376857D01*
X92421206Y-157519714D01*
X92373587Y-157614952D01*
X92325968Y-157662571D01*
X92230730Y-157710190D01*
X91849778Y-157710190D01*
X93373587Y-158186380D02*
X92802159Y-158186380D01*
X93087873Y-158186380D02*
X93087873Y-157186380D01*
X92992635Y-157329238D01*
X92897397Y-157424476D01*
X92802159Y-157472095D01*
X93754540Y-157281619D02*
X93802159Y-157234000D01*
X93897397Y-157186380D01*
X94135492Y-157186380D01*
X94230730Y-157234000D01*
X94278349Y-157281619D01*
X94325968Y-157376857D01*
X94325968Y-157472095D01*
X94278349Y-157614952D01*
X93706921Y-158186380D01*
X94325968Y-158186380D01*
X43934142Y-127706380D02*
X43600809Y-127230190D01*
X43362714Y-127706380D02*
X43362714Y-126706380D01*
X43743666Y-126706380D01*
X43838904Y-126754000D01*
X43886523Y-126801619D01*
X43934142Y-126896857D01*
X43934142Y-127039714D01*
X43886523Y-127134952D01*
X43838904Y-127182571D01*
X43743666Y-127230190D01*
X43362714Y-127230190D01*
X44315095Y-126801619D02*
X44362714Y-126754000D01*
X44457952Y-126706380D01*
X44696047Y-126706380D01*
X44791285Y-126754000D01*
X44838904Y-126801619D01*
X44886523Y-126896857D01*
X44886523Y-126992095D01*
X44838904Y-127134952D01*
X44267476Y-127706380D01*
X44886523Y-127706380D01*
X45505571Y-126706380D02*
X45600809Y-126706380D01*
X45696047Y-126754000D01*
X45743666Y-126801619D01*
X45791285Y-126896857D01*
X45838904Y-127087333D01*
X45838904Y-127325428D01*
X45791285Y-127515904D01*
X45743666Y-127611142D01*
X45696047Y-127658761D01*
X45600809Y-127706380D01*
X45505571Y-127706380D01*
X45410333Y-127658761D01*
X45362714Y-127611142D01*
X45315095Y-127515904D01*
X45267476Y-127325428D01*
X45267476Y-127087333D01*
X45315095Y-126896857D01*
X45362714Y-126801619D01*
X45410333Y-126754000D01*
X45505571Y-126706380D01*
X92421206Y-152344380D02*
X92087873Y-151868190D01*
X91849778Y-152344380D02*
X91849778Y-151344380D01*
X92230730Y-151344380D01*
X92325968Y-151392000D01*
X92373587Y-151439619D01*
X92421206Y-151534857D01*
X92421206Y-151677714D01*
X92373587Y-151772952D01*
X92325968Y-151820571D01*
X92230730Y-151868190D01*
X91849778Y-151868190D01*
X93373587Y-152344380D02*
X92802159Y-152344380D01*
X93087873Y-152344380D02*
X93087873Y-151344380D01*
X92992635Y-151487238D01*
X92897397Y-151582476D01*
X92802159Y-151630095D01*
X93992635Y-151344380D02*
X94087873Y-151344380D01*
X94183111Y-151392000D01*
X94230730Y-151439619D01*
X94278349Y-151534857D01*
X94325968Y-151725333D01*
X94325968Y-151963428D01*
X94278349Y-152153904D01*
X94230730Y-152249142D01*
X94183111Y-152296761D01*
X94087873Y-152344380D01*
X93992635Y-152344380D01*
X93897397Y-152296761D01*
X93849778Y-152249142D01*
X93802159Y-152153904D01*
X93754540Y-151963428D01*
X93754540Y-151725333D01*
X93802159Y-151534857D01*
X93849778Y-151439619D01*
X93897397Y-151392000D01*
X93992635Y-151344380D01*
X44283333Y-172950142D02*
X44235714Y-172997761D01*
X44092857Y-173045380D01*
X43997619Y-173045380D01*
X43854761Y-172997761D01*
X43759523Y-172902523D01*
X43711904Y-172807285D01*
X43664285Y-172616809D01*
X43664285Y-172473952D01*
X43711904Y-172283476D01*
X43759523Y-172188238D01*
X43854761Y-172093000D01*
X43997619Y-172045380D01*
X44092857Y-172045380D01*
X44235714Y-172093000D01*
X44283333Y-172140619D01*
X45235714Y-173045380D02*
X44664285Y-173045380D01*
X44950000Y-173045380D02*
X44950000Y-172045380D01*
X44854761Y-172188238D01*
X44759523Y-172283476D01*
X44664285Y-172331095D01*
X105878380Y-148923333D02*
X106592666Y-148923333D01*
X106735523Y-148970952D01*
X106830761Y-149066190D01*
X106878380Y-149209047D01*
X106878380Y-149304285D01*
X105973619Y-148494761D02*
X105926000Y-148447142D01*
X105878380Y-148351904D01*
X105878380Y-148113809D01*
X105926000Y-148018571D01*
X105973619Y-147970952D01*
X106068857Y-147923333D01*
X106164095Y-147923333D01*
X106306952Y-147970952D01*
X106878380Y-148542380D01*
X106878380Y-147923333D01*
X59174142Y-132532380D02*
X58840809Y-132056190D01*
X58602714Y-132532380D02*
X58602714Y-131532380D01*
X58983666Y-131532380D01*
X59078904Y-131580000D01*
X59126523Y-131627619D01*
X59174142Y-131722857D01*
X59174142Y-131865714D01*
X59126523Y-131960952D01*
X59078904Y-132008571D01*
X58983666Y-132056190D01*
X58602714Y-132056190D01*
X59555095Y-131627619D02*
X59602714Y-131580000D01*
X59697952Y-131532380D01*
X59936047Y-131532380D01*
X60031285Y-131580000D01*
X60078904Y-131627619D01*
X60126523Y-131722857D01*
X60126523Y-131818095D01*
X60078904Y-131960952D01*
X59507476Y-132532380D01*
X60126523Y-132532380D01*
X60459857Y-131532380D02*
X61126523Y-131532380D01*
X60697952Y-132532380D01*
X65905142Y-183740380D02*
X65571809Y-183264190D01*
X65333714Y-183740380D02*
X65333714Y-182740380D01*
X65714666Y-182740380D01*
X65809904Y-182788000D01*
X65857523Y-182835619D01*
X65905142Y-182930857D01*
X65905142Y-183073714D01*
X65857523Y-183168952D01*
X65809904Y-183216571D01*
X65714666Y-183264190D01*
X65333714Y-183264190D01*
X66857523Y-183740380D02*
X66286095Y-183740380D01*
X66571809Y-183740380D02*
X66571809Y-182740380D01*
X66476571Y-182883238D01*
X66381333Y-182978476D01*
X66286095Y-183026095D01*
X67428952Y-183168952D02*
X67333714Y-183121333D01*
X67286095Y-183073714D01*
X67238476Y-182978476D01*
X67238476Y-182930857D01*
X67286095Y-182835619D01*
X67333714Y-182788000D01*
X67428952Y-182740380D01*
X67619428Y-182740380D01*
X67714666Y-182788000D01*
X67762285Y-182835619D01*
X67809904Y-182930857D01*
X67809904Y-182978476D01*
X67762285Y-183073714D01*
X67714666Y-183121333D01*
X67619428Y-183168952D01*
X67428952Y-183168952D01*
X67333714Y-183216571D01*
X67286095Y-183264190D01*
X67238476Y-183359428D01*
X67238476Y-183549904D01*
X67286095Y-183645142D01*
X67333714Y-183692761D01*
X67428952Y-183740380D01*
X67619428Y-183740380D01*
X67714666Y-183692761D01*
X67762285Y-183645142D01*
X67809904Y-183549904D01*
X67809904Y-183359428D01*
X67762285Y-183264190D01*
X67714666Y-183216571D01*
X67619428Y-183168952D01*
X86193333Y-158091142D02*
X86145714Y-158138761D01*
X86002857Y-158186380D01*
X85907619Y-158186380D01*
X85764761Y-158138761D01*
X85669523Y-158043523D01*
X85621904Y-157948285D01*
X85574285Y-157757809D01*
X85574285Y-157614952D01*
X85621904Y-157424476D01*
X85669523Y-157329238D01*
X85764761Y-157234000D01*
X85907619Y-157186380D01*
X86002857Y-157186380D01*
X86145714Y-157234000D01*
X86193333Y-157281619D01*
X86526666Y-157186380D02*
X87193333Y-157186380D01*
X86764761Y-158186380D01*
X69833833Y-185237380D02*
X69500500Y-184761190D01*
X69262404Y-185237380D02*
X69262404Y-184237380D01*
X69643357Y-184237380D01*
X69738595Y-184285000D01*
X69786214Y-184332619D01*
X69833833Y-184427857D01*
X69833833Y-184570714D01*
X69786214Y-184665952D01*
X69738595Y-184713571D01*
X69643357Y-184761190D01*
X69262404Y-184761190D01*
X70690976Y-184237380D02*
X70500500Y-184237380D01*
X70405261Y-184285000D01*
X70357642Y-184332619D01*
X70262404Y-184475476D01*
X70214785Y-184665952D01*
X70214785Y-185046904D01*
X70262404Y-185142142D01*
X70310023Y-185189761D01*
X70405261Y-185237380D01*
X70595738Y-185237380D01*
X70690976Y-185189761D01*
X70738595Y-185142142D01*
X70786214Y-185046904D01*
X70786214Y-184808809D01*
X70738595Y-184713571D01*
X70690976Y-184665952D01*
X70595738Y-184618333D01*
X70405261Y-184618333D01*
X70310023Y-184665952D01*
X70262404Y-184713571D01*
X70214785Y-184808809D01*
X50220666Y-133691380D02*
X50220666Y-134405666D01*
X50173047Y-134548523D01*
X50077809Y-134643761D01*
X49934952Y-134691380D01*
X49839714Y-134691380D01*
X50696857Y-134691380D02*
X50696857Y-133691380D01*
X51077809Y-133691380D01*
X51173047Y-133739000D01*
X51220666Y-133786619D01*
X51268285Y-133881857D01*
X51268285Y-134024714D01*
X51220666Y-134119952D01*
X51173047Y-134167571D01*
X51077809Y-134215190D01*
X50696857Y-134215190D01*
X51601619Y-133691380D02*
X52220666Y-133691380D01*
X51887333Y-134072333D01*
X52030190Y-134072333D01*
X52125428Y-134119952D01*
X52173047Y-134167571D01*
X52220666Y-134262809D01*
X52220666Y-134500904D01*
X52173047Y-134596142D01*
X52125428Y-134643761D01*
X52030190Y-134691380D01*
X51744476Y-134691380D01*
X51649238Y-134643761D01*
X51601619Y-134596142D01*
X50252333Y-171394380D02*
X49919000Y-170918190D01*
X49680904Y-171394380D02*
X49680904Y-170394380D01*
X50061857Y-170394380D01*
X50157095Y-170442000D01*
X50204714Y-170489619D01*
X50252333Y-170584857D01*
X50252333Y-170727714D01*
X50204714Y-170822952D01*
X50157095Y-170870571D01*
X50061857Y-170918190D01*
X49680904Y-170918190D01*
X51204714Y-171394380D02*
X50633285Y-171394380D01*
X50919000Y-171394380D02*
X50919000Y-170394380D01*
X50823761Y-170537238D01*
X50728523Y-170632476D01*
X50633285Y-170680095D01*
X47585333Y-183491142D02*
X47537714Y-183538761D01*
X47394857Y-183586380D01*
X47299619Y-183586380D01*
X47156761Y-183538761D01*
X47061523Y-183443523D01*
X47013904Y-183348285D01*
X46966285Y-183157809D01*
X46966285Y-183014952D01*
X47013904Y-182824476D01*
X47061523Y-182729238D01*
X47156761Y-182634000D01*
X47299619Y-182586380D01*
X47394857Y-182586380D01*
X47537714Y-182634000D01*
X47585333Y-182681619D01*
X47966285Y-182681619D02*
X48013904Y-182634000D01*
X48109142Y-182586380D01*
X48347238Y-182586380D01*
X48442476Y-182634000D01*
X48490095Y-182681619D01*
X48537714Y-182776857D01*
X48537714Y-182872095D01*
X48490095Y-183014952D01*
X47918666Y-183586380D01*
X48537714Y-183586380D01*
X84859904Y-170124380D02*
X84859904Y-169124380D01*
X85098000Y-169124380D01*
X85240857Y-169172000D01*
X85336095Y-169267238D01*
X85383714Y-169362476D01*
X85431333Y-169552952D01*
X85431333Y-169695809D01*
X85383714Y-169886285D01*
X85336095Y-169981523D01*
X85240857Y-170076761D01*
X85098000Y-170124380D01*
X84859904Y-170124380D01*
X86288476Y-169124380D02*
X86098000Y-169124380D01*
X86002761Y-169172000D01*
X85955142Y-169219619D01*
X85859904Y-169362476D01*
X85812285Y-169552952D01*
X85812285Y-169933904D01*
X85859904Y-170029142D01*
X85907523Y-170076761D01*
X86002761Y-170124380D01*
X86193238Y-170124380D01*
X86288476Y-170076761D01*
X86336095Y-170029142D01*
X86383714Y-169933904D01*
X86383714Y-169695809D01*
X86336095Y-169600571D01*
X86288476Y-169552952D01*
X86193238Y-169505333D01*
X86002761Y-169505333D01*
X85907523Y-169552952D01*
X85859904Y-169600571D01*
X85812285Y-169695809D01*
X71556666Y-126960380D02*
X71556666Y-127674666D01*
X71509047Y-127817523D01*
X71413809Y-127912761D01*
X71270952Y-127960380D01*
X71175714Y-127960380D01*
X72032857Y-127960380D02*
X72032857Y-126960380D01*
X72413809Y-126960380D01*
X72509047Y-127008000D01*
X72556666Y-127055619D01*
X72604285Y-127150857D01*
X72604285Y-127293714D01*
X72556666Y-127388952D01*
X72509047Y-127436571D01*
X72413809Y-127484190D01*
X72032857Y-127484190D01*
X73080476Y-127960380D02*
X73270952Y-127960380D01*
X73366190Y-127912761D01*
X73413809Y-127865142D01*
X73509047Y-127722285D01*
X73556666Y-127531809D01*
X73556666Y-127150857D01*
X73509047Y-127055619D01*
X73461428Y-127008000D01*
X73366190Y-126960380D01*
X73175714Y-126960380D01*
X73080476Y-127008000D01*
X73032857Y-127055619D01*
X72985238Y-127150857D01*
X72985238Y-127388952D01*
X73032857Y-127484190D01*
X73080476Y-127531809D01*
X73175714Y-127579428D01*
X73366190Y-127579428D01*
X73461428Y-127531809D01*
X73509047Y-127484190D01*
X73556666Y-127388952D01*
X43934142Y-153106380D02*
X43600809Y-152630190D01*
X43362714Y-153106380D02*
X43362714Y-152106380D01*
X43743666Y-152106380D01*
X43838904Y-152154000D01*
X43886523Y-152201619D01*
X43934142Y-152296857D01*
X43934142Y-152439714D01*
X43886523Y-152534952D01*
X43838904Y-152582571D01*
X43743666Y-152630190D01*
X43362714Y-152630190D01*
X44315095Y-152201619D02*
X44362714Y-152154000D01*
X44457952Y-152106380D01*
X44696047Y-152106380D01*
X44791285Y-152154000D01*
X44838904Y-152201619D01*
X44886523Y-152296857D01*
X44886523Y-152392095D01*
X44838904Y-152534952D01*
X44267476Y-153106380D01*
X44886523Y-153106380D01*
X45219857Y-152106380D02*
X45838904Y-152106380D01*
X45505571Y-152487333D01*
X45648428Y-152487333D01*
X45743666Y-152534952D01*
X45791285Y-152582571D01*
X45838904Y-152677809D01*
X45838904Y-152915904D01*
X45791285Y-153011142D01*
X45743666Y-153058761D01*
X45648428Y-153106380D01*
X45362714Y-153106380D01*
X45267476Y-153058761D01*
X45219857Y-153011142D01*
X48760142Y-167076380D02*
X48426809Y-166600190D01*
X48188714Y-167076380D02*
X48188714Y-166076380D01*
X48569666Y-166076380D01*
X48664904Y-166124000D01*
X48712523Y-166171619D01*
X48760142Y-166266857D01*
X48760142Y-166409714D01*
X48712523Y-166504952D01*
X48664904Y-166552571D01*
X48569666Y-166600190D01*
X48188714Y-166600190D01*
X49712523Y-167076380D02*
X49141095Y-167076380D01*
X49426809Y-167076380D02*
X49426809Y-166076380D01*
X49331571Y-166219238D01*
X49236333Y-166314476D01*
X49141095Y-166362095D01*
X50569666Y-166409714D02*
X50569666Y-167076380D01*
X50331571Y-166028761D02*
X50093476Y-166743047D01*
X50712523Y-166743047D01*
X50220666Y-152360380D02*
X50220666Y-153074666D01*
X50173047Y-153217523D01*
X50077809Y-153312761D01*
X49934952Y-153360380D01*
X49839714Y-153360380D01*
X50696857Y-153360380D02*
X50696857Y-152360380D01*
X51077809Y-152360380D01*
X51173047Y-152408000D01*
X51220666Y-152455619D01*
X51268285Y-152550857D01*
X51268285Y-152693714D01*
X51220666Y-152788952D01*
X51173047Y-152836571D01*
X51077809Y-152884190D01*
X50696857Y-152884190D01*
X52125428Y-152693714D02*
X52125428Y-153360380D01*
X51887333Y-152312761D02*
X51649238Y-153027047D01*
X52268285Y-153027047D01*
X43934142Y-156535380D02*
X43600809Y-156059190D01*
X43362714Y-156535380D02*
X43362714Y-155535380D01*
X43743666Y-155535380D01*
X43838904Y-155583000D01*
X43886523Y-155630619D01*
X43934142Y-155725857D01*
X43934142Y-155868714D01*
X43886523Y-155963952D01*
X43838904Y-156011571D01*
X43743666Y-156059190D01*
X43362714Y-156059190D01*
X44315095Y-155630619D02*
X44362714Y-155583000D01*
X44457952Y-155535380D01*
X44696047Y-155535380D01*
X44791285Y-155583000D01*
X44838904Y-155630619D01*
X44886523Y-155725857D01*
X44886523Y-155821095D01*
X44838904Y-155963952D01*
X44267476Y-156535380D01*
X44886523Y-156535380D01*
X45743666Y-155868714D02*
X45743666Y-156535380D01*
X45505571Y-155487761D02*
X45267476Y-156202047D01*
X45886523Y-156202047D01*
X86193333Y-155170142D02*
X86145714Y-155217761D01*
X86002857Y-155265380D01*
X85907619Y-155265380D01*
X85764761Y-155217761D01*
X85669523Y-155122523D01*
X85621904Y-155027285D01*
X85574285Y-154836809D01*
X85574285Y-154693952D01*
X85621904Y-154503476D01*
X85669523Y-154408238D01*
X85764761Y-154313000D01*
X85907619Y-154265380D01*
X86002857Y-154265380D01*
X86145714Y-154313000D01*
X86193333Y-154360619D01*
X87050476Y-154598714D02*
X87050476Y-155265380D01*
X86812380Y-154217761D02*
X86574285Y-154932047D01*
X87193333Y-154932047D01*
X55999142Y-132532380D02*
X55665809Y-132056190D01*
X55427714Y-132532380D02*
X55427714Y-131532380D01*
X55808666Y-131532380D01*
X55903904Y-131580000D01*
X55951523Y-131627619D01*
X55999142Y-131722857D01*
X55999142Y-131865714D01*
X55951523Y-131960952D01*
X55903904Y-132008571D01*
X55808666Y-132056190D01*
X55427714Y-132056190D01*
X56380095Y-131627619D02*
X56427714Y-131580000D01*
X56522952Y-131532380D01*
X56761047Y-131532380D01*
X56856285Y-131580000D01*
X56903904Y-131627619D01*
X56951523Y-131722857D01*
X56951523Y-131818095D01*
X56903904Y-131960952D01*
X56332476Y-132532380D01*
X56951523Y-132532380D01*
X57808666Y-131532380D02*
X57618190Y-131532380D01*
X57522952Y-131580000D01*
X57475333Y-131627619D01*
X57380095Y-131770476D01*
X57332476Y-131960952D01*
X57332476Y-132341904D01*
X57380095Y-132437142D01*
X57427714Y-132484761D01*
X57522952Y-132532380D01*
X57713428Y-132532380D01*
X57808666Y-132484761D01*
X57856285Y-132437142D01*
X57903904Y-132341904D01*
X57903904Y-132103809D01*
X57856285Y-132008571D01*
X57808666Y-131960952D01*
X57713428Y-131913333D01*
X57522952Y-131913333D01*
X57427714Y-131960952D01*
X57380095Y-132008571D01*
X57332476Y-132103809D01*
X35607666Y-183475380D02*
X35607666Y-184189666D01*
X35560047Y-184332523D01*
X35464809Y-184427761D01*
X35321952Y-184475380D01*
X35226714Y-184475380D01*
X36607666Y-184475380D02*
X36036238Y-184475380D01*
X36321952Y-184475380D02*
X36321952Y-183475380D01*
X36226714Y-183618238D01*
X36131476Y-183713476D01*
X36036238Y-183761095D01*
X86193333Y-152249142D02*
X86145714Y-152296761D01*
X86002857Y-152344380D01*
X85907619Y-152344380D01*
X85764761Y-152296761D01*
X85669523Y-152201523D01*
X85621904Y-152106285D01*
X85574285Y-151915809D01*
X85574285Y-151772952D01*
X85621904Y-151582476D01*
X85669523Y-151487238D01*
X85764761Y-151392000D01*
X85907619Y-151344380D01*
X86002857Y-151344380D01*
X86145714Y-151392000D01*
X86193333Y-151439619D01*
X86764761Y-151772952D02*
X86669523Y-151725333D01*
X86621904Y-151677714D01*
X86574285Y-151582476D01*
X86574285Y-151534857D01*
X86621904Y-151439619D01*
X86669523Y-151392000D01*
X86764761Y-151344380D01*
X86955238Y-151344380D01*
X87050476Y-151392000D01*
X87098095Y-151439619D01*
X87145714Y-151534857D01*
X87145714Y-151582476D01*
X87098095Y-151677714D01*
X87050476Y-151725333D01*
X86955238Y-151772952D01*
X86764761Y-151772952D01*
X86669523Y-151820571D01*
X86621904Y-151868190D01*
X86574285Y-151963428D01*
X86574285Y-152153904D01*
X86621904Y-152249142D01*
X86669523Y-152296761D01*
X86764761Y-152344380D01*
X86955238Y-152344380D01*
X87050476Y-152296761D01*
X87098095Y-152249142D01*
X87145714Y-152153904D01*
X87145714Y-151963428D01*
X87098095Y-151868190D01*
X87050476Y-151820571D01*
X86955238Y-151772952D01*
X30757904Y-165501580D02*
X30757904Y-164501580D01*
X30996000Y-164501580D01*
X31138857Y-164549200D01*
X31234095Y-164644438D01*
X31281714Y-164739676D01*
X31329333Y-164930152D01*
X31329333Y-165073009D01*
X31281714Y-165263485D01*
X31234095Y-165358723D01*
X31138857Y-165453961D01*
X30996000Y-165501580D01*
X30757904Y-165501580D01*
X32186476Y-164834914D02*
X32186476Y-165501580D01*
X31948380Y-164453961D02*
X31710285Y-165168247D01*
X32329333Y-165168247D01*
X50220666Y-159091380D02*
X50220666Y-159805666D01*
X50173047Y-159948523D01*
X50077809Y-160043761D01*
X49934952Y-160091380D01*
X49839714Y-160091380D01*
X50696857Y-160091380D02*
X50696857Y-159091380D01*
X51077809Y-159091380D01*
X51173047Y-159139000D01*
X51220666Y-159186619D01*
X51268285Y-159281857D01*
X51268285Y-159424714D01*
X51220666Y-159519952D01*
X51173047Y-159567571D01*
X51077809Y-159615190D01*
X50696857Y-159615190D01*
X52125428Y-159091380D02*
X51934952Y-159091380D01*
X51839714Y-159139000D01*
X51792095Y-159186619D01*
X51696857Y-159329476D01*
X51649238Y-159519952D01*
X51649238Y-159900904D01*
X51696857Y-159996142D01*
X51744476Y-160043761D01*
X51839714Y-160091380D01*
X52030190Y-160091380D01*
X52125428Y-160043761D01*
X52173047Y-159996142D01*
X52220666Y-159900904D01*
X52220666Y-159662809D01*
X52173047Y-159567571D01*
X52125428Y-159519952D01*
X52030190Y-159472333D01*
X51839714Y-159472333D01*
X51744476Y-159519952D01*
X51696857Y-159567571D01*
X51649238Y-159662809D01*
X72771095Y-149127380D02*
X72771095Y-149936904D01*
X72818714Y-150032142D01*
X72866333Y-150079761D01*
X72961571Y-150127380D01*
X73152047Y-150127380D01*
X73247285Y-150079761D01*
X73294904Y-150032142D01*
X73342523Y-149936904D01*
X73342523Y-149127380D01*
X73723476Y-149127380D02*
X74342523Y-149127380D01*
X74009190Y-149508333D01*
X74152047Y-149508333D01*
X74247285Y-149555952D01*
X74294904Y-149603571D01*
X74342523Y-149698809D01*
X74342523Y-149936904D01*
X74294904Y-150032142D01*
X74247285Y-150079761D01*
X74152047Y-150127380D01*
X73866333Y-150127380D01*
X73771095Y-150079761D01*
X73723476Y-150032142D01*
X65651142Y-181200380D02*
X65317809Y-180724190D01*
X65079714Y-181200380D02*
X65079714Y-180200380D01*
X65460666Y-180200380D01*
X65555904Y-180248000D01*
X65603523Y-180295619D01*
X65651142Y-180390857D01*
X65651142Y-180533714D01*
X65603523Y-180628952D01*
X65555904Y-180676571D01*
X65460666Y-180724190D01*
X65079714Y-180724190D01*
X66603523Y-181200380D02*
X66032095Y-181200380D01*
X66317809Y-181200380D02*
X66317809Y-180200380D01*
X66222571Y-180343238D01*
X66127333Y-180438476D01*
X66032095Y-180486095D01*
X67079714Y-181200380D02*
X67270190Y-181200380D01*
X67365428Y-181152761D01*
X67413047Y-181105142D01*
X67508285Y-180962285D01*
X67555904Y-180771809D01*
X67555904Y-180390857D01*
X67508285Y-180295619D01*
X67460666Y-180248000D01*
X67365428Y-180200380D01*
X67174952Y-180200380D01*
X67079714Y-180248000D01*
X67032095Y-180295619D01*
X66984476Y-180390857D01*
X66984476Y-180628952D01*
X67032095Y-180724190D01*
X67079714Y-180771809D01*
X67174952Y-180819428D01*
X67365428Y-180819428D01*
X67460666Y-180771809D01*
X67508285Y-180724190D01*
X67555904Y-180628952D01*
X60158333Y-164695142D02*
X60110714Y-164742761D01*
X59967857Y-164790380D01*
X59872619Y-164790380D01*
X59729761Y-164742761D01*
X59634523Y-164647523D01*
X59586904Y-164552285D01*
X59539285Y-164361809D01*
X59539285Y-164218952D01*
X59586904Y-164028476D01*
X59634523Y-163933238D01*
X59729761Y-163838000D01*
X59872619Y-163790380D01*
X59967857Y-163790380D01*
X60110714Y-163838000D01*
X60158333Y-163885619D01*
X61063095Y-163790380D02*
X60586904Y-163790380D01*
X60539285Y-164266571D01*
X60586904Y-164218952D01*
X60682142Y-164171333D01*
X60920238Y-164171333D01*
X61015476Y-164218952D01*
X61063095Y-164266571D01*
X61110714Y-164361809D01*
X61110714Y-164599904D01*
X61063095Y-164695142D01*
X61015476Y-164742761D01*
X60920238Y-164790380D01*
X60682142Y-164790380D01*
X60586904Y-164742761D01*
X60539285Y-164695142D01*
X62349142Y-132532380D02*
X62015809Y-132056190D01*
X61777714Y-132532380D02*
X61777714Y-131532380D01*
X62158666Y-131532380D01*
X62253904Y-131580000D01*
X62301523Y-131627619D01*
X62349142Y-131722857D01*
X62349142Y-131865714D01*
X62301523Y-131960952D01*
X62253904Y-132008571D01*
X62158666Y-132056190D01*
X61777714Y-132056190D01*
X62730095Y-131627619D02*
X62777714Y-131580000D01*
X62872952Y-131532380D01*
X63111047Y-131532380D01*
X63206285Y-131580000D01*
X63253904Y-131627619D01*
X63301523Y-131722857D01*
X63301523Y-131818095D01*
X63253904Y-131960952D01*
X62682476Y-132532380D01*
X63301523Y-132532380D01*
X63872952Y-131960952D02*
X63777714Y-131913333D01*
X63730095Y-131865714D01*
X63682476Y-131770476D01*
X63682476Y-131722857D01*
X63730095Y-131627619D01*
X63777714Y-131580000D01*
X63872952Y-131532380D01*
X64063428Y-131532380D01*
X64158666Y-131580000D01*
X64206285Y-131627619D01*
X64253904Y-131722857D01*
X64253904Y-131770476D01*
X64206285Y-131865714D01*
X64158666Y-131913333D01*
X64063428Y-131960952D01*
X63872952Y-131960952D01*
X63777714Y-132008571D01*
X63730095Y-132056190D01*
X63682476Y-132151428D01*
X63682476Y-132341904D01*
X63730095Y-132437142D01*
X63777714Y-132484761D01*
X63872952Y-132532380D01*
X64063428Y-132532380D01*
X64158666Y-132484761D01*
X64206285Y-132437142D01*
X64253904Y-132341904D01*
X64253904Y-132151428D01*
X64206285Y-132056190D01*
X64158666Y-132008571D01*
X64063428Y-131960952D01*
X92444706Y-161107380D02*
X92111373Y-160631190D01*
X91873278Y-161107380D02*
X91873278Y-160107380D01*
X92254230Y-160107380D01*
X92349468Y-160155000D01*
X92397087Y-160202619D01*
X92444706Y-160297857D01*
X92444706Y-160440714D01*
X92397087Y-160535952D01*
X92349468Y-160583571D01*
X92254230Y-160631190D01*
X91873278Y-160631190D01*
X93397087Y-161107380D02*
X92825659Y-161107380D01*
X93111373Y-161107380D02*
X93111373Y-160107380D01*
X93016135Y-160250238D01*
X92920897Y-160345476D01*
X92825659Y-160393095D01*
X93730421Y-160107380D02*
X94349468Y-160107380D01*
X94016135Y-160488333D01*
X94158992Y-160488333D01*
X94254230Y-160535952D01*
X94301849Y-160583571D01*
X94349468Y-160678809D01*
X94349468Y-160916904D01*
X94301849Y-161012142D01*
X94254230Y-161059761D01*
X94158992Y-161107380D01*
X93873278Y-161107380D01*
X93778040Y-161059761D01*
X93730421Y-161012142D01*
X65206666Y-126833380D02*
X65206666Y-127547666D01*
X65159047Y-127690523D01*
X65063809Y-127785761D01*
X64920952Y-127833380D01*
X64825714Y-127833380D01*
X65682857Y-127833380D02*
X65682857Y-126833380D01*
X66063809Y-126833380D01*
X66159047Y-126881000D01*
X66206666Y-126928619D01*
X66254285Y-127023857D01*
X66254285Y-127166714D01*
X66206666Y-127261952D01*
X66159047Y-127309571D01*
X66063809Y-127357190D01*
X65682857Y-127357190D01*
X66825714Y-127261952D02*
X66730476Y-127214333D01*
X66682857Y-127166714D01*
X66635238Y-127071476D01*
X66635238Y-127023857D01*
X66682857Y-126928619D01*
X66730476Y-126881000D01*
X66825714Y-126833380D01*
X67016190Y-126833380D01*
X67111428Y-126881000D01*
X67159047Y-126928619D01*
X67206666Y-127023857D01*
X67206666Y-127071476D01*
X67159047Y-127166714D01*
X67111428Y-127214333D01*
X67016190Y-127261952D01*
X66825714Y-127261952D01*
X66730476Y-127309571D01*
X66682857Y-127357190D01*
X66635238Y-127452428D01*
X66635238Y-127642904D01*
X66682857Y-127738142D01*
X66730476Y-127785761D01*
X66825714Y-127833380D01*
X67016190Y-127833380D01*
X67111428Y-127785761D01*
X67159047Y-127738142D01*
X67206666Y-127642904D01*
X67206666Y-127452428D01*
X67159047Y-127357190D01*
X67111428Y-127309571D01*
X67016190Y-127261952D01*
X39163666Y-124420380D02*
X39163666Y-125134666D01*
X39116047Y-125277523D01*
X39020809Y-125372761D01*
X38877952Y-125420380D01*
X38782714Y-125420380D01*
X39782714Y-124848952D02*
X39687476Y-124801333D01*
X39639857Y-124753714D01*
X39592238Y-124658476D01*
X39592238Y-124610857D01*
X39639857Y-124515619D01*
X39687476Y-124468000D01*
X39782714Y-124420380D01*
X39973190Y-124420380D01*
X40068428Y-124468000D01*
X40116047Y-124515619D01*
X40163666Y-124610857D01*
X40163666Y-124658476D01*
X40116047Y-124753714D01*
X40068428Y-124801333D01*
X39973190Y-124848952D01*
X39782714Y-124848952D01*
X39687476Y-124896571D01*
X39639857Y-124944190D01*
X39592238Y-125039428D01*
X39592238Y-125229904D01*
X39639857Y-125325142D01*
X39687476Y-125372761D01*
X39782714Y-125420380D01*
X39973190Y-125420380D01*
X40068428Y-125372761D01*
X40116047Y-125325142D01*
X40163666Y-125229904D01*
X40163666Y-125039428D01*
X40116047Y-124944190D01*
X40068428Y-124896571D01*
X39973190Y-124848952D01*
X69833833Y-182316380D02*
X69500500Y-181840190D01*
X69262404Y-182316380D02*
X69262404Y-181316380D01*
X69643357Y-181316380D01*
X69738595Y-181364000D01*
X69786214Y-181411619D01*
X69833833Y-181506857D01*
X69833833Y-181649714D01*
X69786214Y-181744952D01*
X69738595Y-181792571D01*
X69643357Y-181840190D01*
X69262404Y-181840190D01*
X70690976Y-181649714D02*
X70690976Y-182316380D01*
X70452880Y-181268761D02*
X70214785Y-181983047D01*
X70833833Y-181983047D01*
X39290666Y-149693380D02*
X39290666Y-150407666D01*
X39243047Y-150550523D01*
X39147809Y-150645761D01*
X39004952Y-150693380D01*
X38909714Y-150693380D01*
X39814476Y-150693380D02*
X40004952Y-150693380D01*
X40100190Y-150645761D01*
X40147809Y-150598142D01*
X40243047Y-150455285D01*
X40290666Y-150264809D01*
X40290666Y-149883857D01*
X40243047Y-149788619D01*
X40195428Y-149741000D01*
X40100190Y-149693380D01*
X39909714Y-149693380D01*
X39814476Y-149741000D01*
X39766857Y-149788619D01*
X39719238Y-149883857D01*
X39719238Y-150121952D01*
X39766857Y-150217190D01*
X39814476Y-150264809D01*
X39909714Y-150312428D01*
X40100190Y-150312428D01*
X40195428Y-150264809D01*
X40243047Y-150217190D01*
X40290666Y-150121952D01*
X58856666Y-126833380D02*
X58856666Y-127547666D01*
X58809047Y-127690523D01*
X58713809Y-127785761D01*
X58570952Y-127833380D01*
X58475714Y-127833380D01*
X59332857Y-127833380D02*
X59332857Y-126833380D01*
X59713809Y-126833380D01*
X59809047Y-126881000D01*
X59856666Y-126928619D01*
X59904285Y-127023857D01*
X59904285Y-127166714D01*
X59856666Y-127261952D01*
X59809047Y-127309571D01*
X59713809Y-127357190D01*
X59332857Y-127357190D01*
X60237619Y-126833380D02*
X60904285Y-126833380D01*
X60475714Y-127833380D01*
X106005380Y-133810333D02*
X106719666Y-133810333D01*
X106862523Y-133857952D01*
X106957761Y-133953190D01*
X107005380Y-134096047D01*
X107005380Y-134191285D01*
X106005380Y-133429380D02*
X106005380Y-132810333D01*
X106386333Y-133143666D01*
X106386333Y-133000809D01*
X106433952Y-132905571D01*
X106481571Y-132857952D01*
X106576809Y-132810333D01*
X106814904Y-132810333D01*
X106910142Y-132857952D01*
X106957761Y-132905571D01*
X107005380Y-133000809D01*
X107005380Y-133286523D01*
X106957761Y-133381761D01*
X106910142Y-133429380D01*
X40663904Y-165679380D02*
X40663904Y-164679380D01*
X40902000Y-164679380D01*
X41044857Y-164727000D01*
X41140095Y-164822238D01*
X41187714Y-164917476D01*
X41235333Y-165107952D01*
X41235333Y-165250809D01*
X41187714Y-165441285D01*
X41140095Y-165536523D01*
X41044857Y-165631761D01*
X40902000Y-165679380D01*
X40663904Y-165679380D01*
X41568666Y-164679380D02*
X42187714Y-164679380D01*
X41854380Y-165060333D01*
X41997238Y-165060333D01*
X42092476Y-165107952D01*
X42140095Y-165155571D01*
X42187714Y-165250809D01*
X42187714Y-165488904D01*
X42140095Y-165584142D01*
X42092476Y-165631761D01*
X41997238Y-165679380D01*
X41711523Y-165679380D01*
X41616285Y-165631761D01*
X41568666Y-165584142D01*
X43934142Y-131135380D02*
X43600809Y-130659190D01*
X43362714Y-131135380D02*
X43362714Y-130135380D01*
X43743666Y-130135380D01*
X43838904Y-130183000D01*
X43886523Y-130230619D01*
X43934142Y-130325857D01*
X43934142Y-130468714D01*
X43886523Y-130563952D01*
X43838904Y-130611571D01*
X43743666Y-130659190D01*
X43362714Y-130659190D01*
X44315095Y-130230619D02*
X44362714Y-130183000D01*
X44457952Y-130135380D01*
X44696047Y-130135380D01*
X44791285Y-130183000D01*
X44838904Y-130230619D01*
X44886523Y-130325857D01*
X44886523Y-130421095D01*
X44838904Y-130563952D01*
X44267476Y-131135380D01*
X44886523Y-131135380D01*
X45838904Y-131135380D02*
X45267476Y-131135380D01*
X45553190Y-131135380D02*
X45553190Y-130135380D01*
X45457952Y-130278238D01*
X45362714Y-130373476D01*
X45267476Y-130421095D01*
X86193333Y-149328142D02*
X86145714Y-149375761D01*
X86002857Y-149423380D01*
X85907619Y-149423380D01*
X85764761Y-149375761D01*
X85669523Y-149280523D01*
X85621904Y-149185285D01*
X85574285Y-148994809D01*
X85574285Y-148851952D01*
X85621904Y-148661476D01*
X85669523Y-148566238D01*
X85764761Y-148471000D01*
X85907619Y-148423380D01*
X86002857Y-148423380D01*
X86145714Y-148471000D01*
X86193333Y-148518619D01*
X87050476Y-148423380D02*
X86860000Y-148423380D01*
X86764761Y-148471000D01*
X86717142Y-148518619D01*
X86621904Y-148661476D01*
X86574285Y-148851952D01*
X86574285Y-149232904D01*
X86621904Y-149328142D01*
X86669523Y-149375761D01*
X86764761Y-149423380D01*
X86955238Y-149423380D01*
X87050476Y-149375761D01*
X87098095Y-149328142D01*
X87145714Y-149232904D01*
X87145714Y-148994809D01*
X87098095Y-148899571D01*
X87050476Y-148851952D01*
X86955238Y-148804333D01*
X86764761Y-148804333D01*
X86669523Y-148851952D01*
X86621904Y-148899571D01*
X86574285Y-148994809D01*
X39195476Y-137247380D02*
X39195476Y-137961666D01*
X39147857Y-138104523D01*
X39052619Y-138199761D01*
X38909761Y-138247380D01*
X38814523Y-138247380D01*
X40195476Y-138247380D02*
X39624047Y-138247380D01*
X39909761Y-138247380D02*
X39909761Y-137247380D01*
X39814523Y-137390238D01*
X39719285Y-137485476D01*
X39624047Y-137533095D01*
X40814523Y-137247380D02*
X40909761Y-137247380D01*
X41005000Y-137295000D01*
X41052619Y-137342619D01*
X41100238Y-137437857D01*
X41147857Y-137628333D01*
X41147857Y-137866428D01*
X41100238Y-138056904D01*
X41052619Y-138152142D01*
X41005000Y-138199761D01*
X40909761Y-138247380D01*
X40814523Y-138247380D01*
X40719285Y-138199761D01*
X40671666Y-138152142D01*
X40624047Y-138056904D01*
X40576428Y-137866428D01*
X40576428Y-137628333D01*
X40624047Y-137437857D01*
X40671666Y-137342619D01*
X40719285Y-137295000D01*
X40814523Y-137247380D01*
X50220666Y-155535380D02*
X50220666Y-156249666D01*
X50173047Y-156392523D01*
X50077809Y-156487761D01*
X49934952Y-156535380D01*
X49839714Y-156535380D01*
X50696857Y-156535380D02*
X50696857Y-155535380D01*
X51077809Y-155535380D01*
X51173047Y-155583000D01*
X51220666Y-155630619D01*
X51268285Y-155725857D01*
X51268285Y-155868714D01*
X51220666Y-155963952D01*
X51173047Y-156011571D01*
X51077809Y-156059190D01*
X50696857Y-156059190D01*
X52173047Y-155535380D02*
X51696857Y-155535380D01*
X51649238Y-156011571D01*
X51696857Y-155963952D01*
X51792095Y-155916333D01*
X52030190Y-155916333D01*
X52125428Y-155963952D01*
X52173047Y-156011571D01*
X52220666Y-156106809D01*
X52220666Y-156344904D01*
X52173047Y-156440142D01*
X52125428Y-156487761D01*
X52030190Y-156535380D01*
X51792095Y-156535380D01*
X51696857Y-156487761D01*
X51649238Y-156440142D01*
X106005380Y-164163333D02*
X106719666Y-164163333D01*
X106862523Y-164210952D01*
X106957761Y-164306190D01*
X107005380Y-164449047D01*
X107005380Y-164544285D01*
X106338714Y-163258571D02*
X107005380Y-163258571D01*
X105957761Y-163496666D02*
X106672047Y-163734761D01*
X106672047Y-163115714D01*
X37361904Y-165552380D02*
X37361904Y-164552380D01*
X37600000Y-164552380D01*
X37742857Y-164600000D01*
X37838095Y-164695238D01*
X37885714Y-164790476D01*
X37933333Y-164980952D01*
X37933333Y-165123809D01*
X37885714Y-165314285D01*
X37838095Y-165409523D01*
X37742857Y-165504761D01*
X37600000Y-165552380D01*
X37361904Y-165552380D01*
X38314285Y-164647619D02*
X38361904Y-164600000D01*
X38457142Y-164552380D01*
X38695238Y-164552380D01*
X38790476Y-164600000D01*
X38838095Y-164647619D01*
X38885714Y-164742857D01*
X38885714Y-164838095D01*
X38838095Y-164980952D01*
X38266666Y-165552380D01*
X38885714Y-165552380D01*
X69833833Y-173553380D02*
X69500500Y-173077190D01*
X69262404Y-173553380D02*
X69262404Y-172553380D01*
X69643357Y-172553380D01*
X69738595Y-172601000D01*
X69786214Y-172648619D01*
X69833833Y-172743857D01*
X69833833Y-172886714D01*
X69786214Y-172981952D01*
X69738595Y-173029571D01*
X69643357Y-173077190D01*
X69262404Y-173077190D01*
X70167166Y-172553380D02*
X70833833Y-172553380D01*
X70405261Y-173553380D01*
X86193333Y-161012142D02*
X86145714Y-161059761D01*
X86002857Y-161107380D01*
X85907619Y-161107380D01*
X85764761Y-161059761D01*
X85669523Y-160964523D01*
X85621904Y-160869285D01*
X85574285Y-160678809D01*
X85574285Y-160535952D01*
X85621904Y-160345476D01*
X85669523Y-160250238D01*
X85764761Y-160155000D01*
X85907619Y-160107380D01*
X86002857Y-160107380D01*
X86145714Y-160155000D01*
X86193333Y-160202619D01*
X86669523Y-161107380D02*
X86860000Y-161107380D01*
X86955238Y-161059761D01*
X87002857Y-161012142D01*
X87098095Y-160869285D01*
X87145714Y-160678809D01*
X87145714Y-160297857D01*
X87098095Y-160202619D01*
X87050476Y-160155000D01*
X86955238Y-160107380D01*
X86764761Y-160107380D01*
X86669523Y-160155000D01*
X86621904Y-160202619D01*
X86574285Y-160297857D01*
X86574285Y-160535952D01*
X86621904Y-160631190D01*
X86669523Y-160678809D01*
X86764761Y-160726428D01*
X86955238Y-160726428D01*
X87050476Y-160678809D01*
X87098095Y-160631190D01*
X87145714Y-160535952D01*
X69833833Y-179395380D02*
X69500500Y-178919190D01*
X69262404Y-179395380D02*
X69262404Y-178395380D01*
X69643357Y-178395380D01*
X69738595Y-178443000D01*
X69786214Y-178490619D01*
X69833833Y-178585857D01*
X69833833Y-178728714D01*
X69786214Y-178823952D01*
X69738595Y-178871571D01*
X69643357Y-178919190D01*
X69262404Y-178919190D01*
X70167166Y-178395380D02*
X70786214Y-178395380D01*
X70452880Y-178776333D01*
X70595738Y-178776333D01*
X70690976Y-178823952D01*
X70738595Y-178871571D01*
X70786214Y-178966809D01*
X70786214Y-179204904D01*
X70738595Y-179300142D01*
X70690976Y-179347761D01*
X70595738Y-179395380D01*
X70310023Y-179395380D01*
X70214785Y-179347761D01*
X70167166Y-179300142D01*
X69334142Y-145772142D02*
X69286523Y-145819761D01*
X69143666Y-145867380D01*
X69048428Y-145867380D01*
X68905571Y-145819761D01*
X68810333Y-145724523D01*
X68762714Y-145629285D01*
X68715095Y-145438809D01*
X68715095Y-145295952D01*
X68762714Y-145105476D01*
X68810333Y-145010238D01*
X68905571Y-144915000D01*
X69048428Y-144867380D01*
X69143666Y-144867380D01*
X69286523Y-144915000D01*
X69334142Y-144962619D01*
X70286523Y-145867380D02*
X69715095Y-145867380D01*
X70000809Y-145867380D02*
X70000809Y-144867380D01*
X69905571Y-145010238D01*
X69810333Y-145105476D01*
X69715095Y-145153095D01*
X70619857Y-144867380D02*
X71238904Y-144867380D01*
X70905571Y-145248333D01*
X71048428Y-145248333D01*
X71143666Y-145295952D01*
X71191285Y-145343571D01*
X71238904Y-145438809D01*
X71238904Y-145676904D01*
X71191285Y-145772142D01*
X71143666Y-145819761D01*
X71048428Y-145867380D01*
X70762714Y-145867380D01*
X70667476Y-145819761D01*
X70619857Y-145772142D01*
X79422666Y-132929380D02*
X79422666Y-133643666D01*
X79375047Y-133786523D01*
X79279809Y-133881761D01*
X79136952Y-133929380D01*
X79041714Y-133929380D01*
X80375047Y-132929380D02*
X79898857Y-132929380D01*
X79851238Y-133405571D01*
X79898857Y-133357952D01*
X79994095Y-133310333D01*
X80232190Y-133310333D01*
X80327428Y-133357952D01*
X80375047Y-133405571D01*
X80422666Y-133500809D01*
X80422666Y-133738904D01*
X80375047Y-133834142D01*
X80327428Y-133881761D01*
X80232190Y-133929380D01*
X79994095Y-133929380D01*
X79898857Y-133881761D01*
X79851238Y-133834142D01*
X86002904Y-138120380D02*
X86002904Y-137120380D01*
X86241000Y-137120380D01*
X86383857Y-137168000D01*
X86479095Y-137263238D01*
X86526714Y-137358476D01*
X86574333Y-137548952D01*
X86574333Y-137691809D01*
X86526714Y-137882285D01*
X86479095Y-137977523D01*
X86383857Y-138072761D01*
X86241000Y-138120380D01*
X86002904Y-138120380D01*
X87479095Y-137120380D02*
X87002904Y-137120380D01*
X86955285Y-137596571D01*
X87002904Y-137548952D01*
X87098142Y-137501333D01*
X87336238Y-137501333D01*
X87431476Y-137548952D01*
X87479095Y-137596571D01*
X87526714Y-137691809D01*
X87526714Y-137929904D01*
X87479095Y-138025142D01*
X87431476Y-138072761D01*
X87336238Y-138120380D01*
X87098142Y-138120380D01*
X87002904Y-138072761D01*
X86955285Y-138025142D01*
X92389397Y-146502380D02*
X92056064Y-146026190D01*
X91817968Y-146502380D02*
X91817968Y-145502380D01*
X92198921Y-145502380D01*
X92294159Y-145550000D01*
X92341778Y-145597619D01*
X92389397Y-145692857D01*
X92389397Y-145835714D01*
X92341778Y-145930952D01*
X92294159Y-145978571D01*
X92198921Y-146026190D01*
X91817968Y-146026190D01*
X92960825Y-145930952D02*
X92865587Y-145883333D01*
X92817968Y-145835714D01*
X92770349Y-145740476D01*
X92770349Y-145692857D01*
X92817968Y-145597619D01*
X92865587Y-145550000D01*
X92960825Y-145502380D01*
X93151302Y-145502380D01*
X93246540Y-145550000D01*
X93294159Y-145597619D01*
X93341778Y-145692857D01*
X93341778Y-145740476D01*
X93294159Y-145835714D01*
X93246540Y-145883333D01*
X93151302Y-145930952D01*
X92960825Y-145930952D01*
X92865587Y-145978571D01*
X92817968Y-146026190D01*
X92770349Y-146121428D01*
X92770349Y-146311904D01*
X92817968Y-146407142D01*
X92865587Y-146454761D01*
X92960825Y-146502380D01*
X93151302Y-146502380D01*
X93246540Y-146454761D01*
X93294159Y-146407142D01*
X93341778Y-146311904D01*
X93341778Y-146121428D01*
X93294159Y-146026190D01*
X93246540Y-145978571D01*
X93151302Y-145930952D01*
X34034504Y-165526630D02*
X34034504Y-164526630D01*
X34272600Y-164526630D01*
X34415457Y-164574250D01*
X34510695Y-164669488D01*
X34558314Y-164764726D01*
X34605933Y-164955202D01*
X34605933Y-165098059D01*
X34558314Y-165288535D01*
X34510695Y-165383773D01*
X34415457Y-165479011D01*
X34272600Y-165526630D01*
X34034504Y-165526630D01*
X35558314Y-165526630D02*
X34986885Y-165526630D01*
X35272600Y-165526630D02*
X35272600Y-164526630D01*
X35177361Y-164669488D01*
X35082123Y-164764726D01*
X34986885Y-164812345D01*
X69833833Y-176474380D02*
X69500500Y-175998190D01*
X69262404Y-176474380D02*
X69262404Y-175474380D01*
X69643357Y-175474380D01*
X69738595Y-175522000D01*
X69786214Y-175569619D01*
X69833833Y-175664857D01*
X69833833Y-175807714D01*
X69786214Y-175902952D01*
X69738595Y-175950571D01*
X69643357Y-175998190D01*
X69262404Y-175998190D01*
X70738595Y-175474380D02*
X70262404Y-175474380D01*
X70214785Y-175950571D01*
X70262404Y-175902952D01*
X70357642Y-175855333D01*
X70595738Y-175855333D01*
X70690976Y-175902952D01*
X70738595Y-175950571D01*
X70786214Y-176045809D01*
X70786214Y-176283904D01*
X70738595Y-176379142D01*
X70690976Y-176426761D01*
X70595738Y-176474380D01*
X70357642Y-176474380D01*
X70262404Y-176426761D01*
X70214785Y-176379142D01*
X81200666Y-171410380D02*
X81200666Y-172124666D01*
X81153047Y-172267523D01*
X81057809Y-172362761D01*
X80914952Y-172410380D01*
X80819714Y-172410380D01*
X82105428Y-171410380D02*
X81914952Y-171410380D01*
X81819714Y-171458000D01*
X81772095Y-171505619D01*
X81676857Y-171648476D01*
X81629238Y-171838952D01*
X81629238Y-172219904D01*
X81676857Y-172315142D01*
X81724476Y-172362761D01*
X81819714Y-172410380D01*
X82010190Y-172410380D01*
X82105428Y-172362761D01*
X82153047Y-172315142D01*
X82200666Y-172219904D01*
X82200666Y-171981809D01*
X82153047Y-171886571D01*
X82105428Y-171838952D01*
X82010190Y-171791333D01*
X81819714Y-171791333D01*
X81724476Y-171838952D01*
X81676857Y-171886571D01*
X81629238Y-171981809D01*
X43934142Y-134691380D02*
X43600809Y-134215190D01*
X43362714Y-134691380D02*
X43362714Y-133691380D01*
X43743666Y-133691380D01*
X43838904Y-133739000D01*
X43886523Y-133786619D01*
X43934142Y-133881857D01*
X43934142Y-134024714D01*
X43886523Y-134119952D01*
X43838904Y-134167571D01*
X43743666Y-134215190D01*
X43362714Y-134215190D01*
X44315095Y-133786619D02*
X44362714Y-133739000D01*
X44457952Y-133691380D01*
X44696047Y-133691380D01*
X44791285Y-133739000D01*
X44838904Y-133786619D01*
X44886523Y-133881857D01*
X44886523Y-133977095D01*
X44838904Y-134119952D01*
X44267476Y-134691380D01*
X44886523Y-134691380D01*
X45267476Y-133786619D02*
X45315095Y-133739000D01*
X45410333Y-133691380D01*
X45648428Y-133691380D01*
X45743666Y-133739000D01*
X45791285Y-133786619D01*
X45838904Y-133881857D01*
X45838904Y-133977095D01*
X45791285Y-134119952D01*
X45219857Y-134691380D01*
X45838904Y-134691380D01*
X52411333Y-179903380D02*
X51935142Y-179903380D01*
X51935142Y-178903380D01*
X53268476Y-179903380D02*
X52697047Y-179903380D01*
X52982761Y-179903380D02*
X52982761Y-178903380D01*
X52887523Y-179046238D01*
X52792285Y-179141476D01*
X52697047Y-179189095D01*
X57554904Y-169489380D02*
X57554904Y-168489380D01*
X57793000Y-168489380D01*
X57935857Y-168537000D01*
X58031095Y-168632238D01*
X58078714Y-168727476D01*
X58126333Y-168917952D01*
X58126333Y-169060809D01*
X58078714Y-169251285D01*
X58031095Y-169346523D01*
X57935857Y-169441761D01*
X57793000Y-169489380D01*
X57554904Y-169489380D01*
X58602523Y-169489380D02*
X58793000Y-169489380D01*
X58888238Y-169441761D01*
X58935857Y-169394142D01*
X59031095Y-169251285D01*
X59078714Y-169060809D01*
X59078714Y-168679857D01*
X59031095Y-168584619D01*
X58983476Y-168537000D01*
X58888238Y-168489380D01*
X58697761Y-168489380D01*
X58602523Y-168537000D01*
X58554904Y-168584619D01*
X58507285Y-168679857D01*
X58507285Y-168917952D01*
X58554904Y-169013190D01*
X58602523Y-169060809D01*
X58697761Y-169108428D01*
X58888238Y-169108428D01*
X58983476Y-169060809D01*
X59031095Y-169013190D01*
X59078714Y-168917952D01*
X55618142Y-183618142D02*
X55570523Y-183665761D01*
X55427666Y-183713380D01*
X55332428Y-183713380D01*
X55189571Y-183665761D01*
X55094333Y-183570523D01*
X55046714Y-183475285D01*
X54999095Y-183284809D01*
X54999095Y-183141952D01*
X55046714Y-182951476D01*
X55094333Y-182856238D01*
X55189571Y-182761000D01*
X55332428Y-182713380D01*
X55427666Y-182713380D01*
X55570523Y-182761000D01*
X55618142Y-182808619D01*
X56570523Y-183713380D02*
X55999095Y-183713380D01*
X56284809Y-183713380D02*
X56284809Y-182713380D01*
X56189571Y-182856238D01*
X56094333Y-182951476D01*
X55999095Y-182999095D01*
X57522904Y-183713380D02*
X56951476Y-183713380D01*
X57237190Y-183713380D02*
X57237190Y-182713380D01*
X57141952Y-182856238D01*
X57046714Y-182951476D01*
X56951476Y-182999095D01*
X50220666Y-130135380D02*
X50220666Y-130849666D01*
X50173047Y-130992523D01*
X50077809Y-131087761D01*
X49934952Y-131135380D01*
X49839714Y-131135380D01*
X50696857Y-131135380D02*
X50696857Y-130135380D01*
X51077809Y-130135380D01*
X51173047Y-130183000D01*
X51220666Y-130230619D01*
X51268285Y-130325857D01*
X51268285Y-130468714D01*
X51220666Y-130563952D01*
X51173047Y-130611571D01*
X51077809Y-130659190D01*
X50696857Y-130659190D01*
X51649238Y-130230619D02*
X51696857Y-130183000D01*
X51792095Y-130135380D01*
X52030190Y-130135380D01*
X52125428Y-130183000D01*
X52173047Y-130230619D01*
X52220666Y-130325857D01*
X52220666Y-130421095D01*
X52173047Y-130563952D01*
X51601619Y-131135380D01*
X52220666Y-131135380D01*
X59436095Y-147677380D02*
X59436095Y-148486904D01*
X59483714Y-148582142D01*
X59531333Y-148629761D01*
X59626571Y-148677380D01*
X59817047Y-148677380D01*
X59912285Y-148629761D01*
X59959904Y-148582142D01*
X60007523Y-148486904D01*
X60007523Y-147677380D01*
X60436095Y-147772619D02*
X60483714Y-147725000D01*
X60578952Y-147677380D01*
X60817047Y-147677380D01*
X60912285Y-147725000D01*
X60959904Y-147772619D01*
X61007523Y-147867857D01*
X61007523Y-147963095D01*
X60959904Y-148105952D01*
X60388476Y-148677380D01*
X61007523Y-148677380D01*
X47164666Y-146772380D02*
X47164666Y-147486666D01*
X47117047Y-147629523D01*
X47021809Y-147724761D01*
X46878952Y-147772380D01*
X46783714Y-147772380D01*
X47545619Y-146772380D02*
X48212285Y-146772380D01*
X47783714Y-147772380D01*
X57078714Y-176474380D02*
X57078714Y-175474380D01*
X57316809Y-175474380D01*
X57459666Y-175522000D01*
X57554904Y-175617238D01*
X57602523Y-175712476D01*
X57650142Y-175902952D01*
X57650142Y-176045809D01*
X57602523Y-176236285D01*
X57554904Y-176331523D01*
X57459666Y-176426761D01*
X57316809Y-176474380D01*
X57078714Y-176474380D01*
X58602523Y-176474380D02*
X58031095Y-176474380D01*
X58316809Y-176474380D02*
X58316809Y-175474380D01*
X58221571Y-175617238D01*
X58126333Y-175712476D01*
X58031095Y-175760095D01*
X59221571Y-175474380D02*
X59316809Y-175474380D01*
X59412047Y-175522000D01*
X59459666Y-175569619D01*
X59507285Y-175664857D01*
X59554904Y-175855333D01*
X59554904Y-176093428D01*
X59507285Y-176283904D01*
X59459666Y-176379142D01*
X59412047Y-176426761D01*
X59316809Y-176474380D01*
X59221571Y-176474380D01*
X59126333Y-176426761D01*
X59078714Y-176379142D01*
X59031095Y-176283904D01*
X58983476Y-176093428D01*
X58983476Y-175855333D01*
X59031095Y-175664857D01*
X59078714Y-175569619D01*
X59126333Y-175522000D01*
X59221571Y-175474380D01*
X92548206Y-155265380D02*
X92214873Y-154789190D01*
X91976778Y-155265380D02*
X91976778Y-154265380D01*
X92357730Y-154265380D01*
X92452968Y-154313000D01*
X92500587Y-154360619D01*
X92548206Y-154455857D01*
X92548206Y-154598714D01*
X92500587Y-154693952D01*
X92452968Y-154741571D01*
X92357730Y-154789190D01*
X91976778Y-154789190D01*
X93500587Y-155265380D02*
X92929159Y-155265380D01*
X93214873Y-155265380D02*
X93214873Y-154265380D01*
X93119635Y-154408238D01*
X93024397Y-154503476D01*
X92929159Y-154551095D01*
X94452968Y-155265380D02*
X93881540Y-155265380D01*
X94167254Y-155265380D02*
X94167254Y-154265380D01*
X94072016Y-154408238D01*
X93976778Y-154503476D01*
X93881540Y-154551095D01*
X62349142Y-189047380D02*
X62015809Y-188571190D01*
X61777714Y-189047380D02*
X61777714Y-188047380D01*
X62158666Y-188047380D01*
X62253904Y-188095000D01*
X62301523Y-188142619D01*
X62349142Y-188237857D01*
X62349142Y-188380714D01*
X62301523Y-188475952D01*
X62253904Y-188523571D01*
X62158666Y-188571190D01*
X61777714Y-188571190D01*
X63301523Y-189047380D02*
X62730095Y-189047380D01*
X63015809Y-189047380D02*
X63015809Y-188047380D01*
X62920571Y-188190238D01*
X62825333Y-188285476D01*
X62730095Y-188333095D01*
X64158666Y-188047380D02*
X63968190Y-188047380D01*
X63872952Y-188095000D01*
X63825333Y-188142619D01*
X63730095Y-188285476D01*
X63682476Y-188475952D01*
X63682476Y-188856904D01*
X63730095Y-188952142D01*
X63777714Y-188999761D01*
X63872952Y-189047380D01*
X64063428Y-189047380D01*
X64158666Y-188999761D01*
X64206285Y-188952142D01*
X64253904Y-188856904D01*
X64253904Y-188618809D01*
X64206285Y-188523571D01*
X64158666Y-188475952D01*
X64063428Y-188428333D01*
X63872952Y-188428333D01*
X63777714Y-188475952D01*
X63730095Y-188523571D01*
X63682476Y-188618809D01*
X51816095Y-188047380D02*
X51816095Y-188856904D01*
X51863714Y-188952142D01*
X51911333Y-188999761D01*
X52006571Y-189047380D01*
X52197047Y-189047380D01*
X52292285Y-188999761D01*
X52339904Y-188952142D01*
X52387523Y-188856904D01*
X52387523Y-188047380D01*
X53292285Y-188380714D02*
X53292285Y-189047380D01*
X53054190Y-187999761D02*
X52816095Y-188714047D01*
X53435142Y-188714047D01*
X43934142Y-160091380D02*
X43600809Y-159615190D01*
X43362714Y-160091380D02*
X43362714Y-159091380D01*
X43743666Y-159091380D01*
X43838904Y-159139000D01*
X43886523Y-159186619D01*
X43934142Y-159281857D01*
X43934142Y-159424714D01*
X43886523Y-159519952D01*
X43838904Y-159567571D01*
X43743666Y-159615190D01*
X43362714Y-159615190D01*
X44315095Y-159186619D02*
X44362714Y-159139000D01*
X44457952Y-159091380D01*
X44696047Y-159091380D01*
X44791285Y-159139000D01*
X44838904Y-159186619D01*
X44886523Y-159281857D01*
X44886523Y-159377095D01*
X44838904Y-159519952D01*
X44267476Y-160091380D01*
X44886523Y-160091380D01*
X45791285Y-159091380D02*
X45315095Y-159091380D01*
X45267476Y-159567571D01*
X45315095Y-159519952D01*
X45410333Y-159472333D01*
X45648428Y-159472333D01*
X45743666Y-159519952D01*
X45791285Y-159567571D01*
X45838904Y-159662809D01*
X45838904Y-159900904D01*
X45791285Y-159996142D01*
X45743666Y-160043761D01*
X45648428Y-160091380D01*
X45410333Y-160091380D01*
X45315095Y-160043761D01*
X45267476Y-159996142D01*
X69833833Y-170632380D02*
X69500500Y-170156190D01*
X69262404Y-170632380D02*
X69262404Y-169632380D01*
X69643357Y-169632380D01*
X69738595Y-169680000D01*
X69786214Y-169727619D01*
X69833833Y-169822857D01*
X69833833Y-169965714D01*
X69786214Y-170060952D01*
X69738595Y-170108571D01*
X69643357Y-170156190D01*
X69262404Y-170156190D01*
X70214785Y-169727619D02*
X70262404Y-169680000D01*
X70357642Y-169632380D01*
X70595738Y-169632380D01*
X70690976Y-169680000D01*
X70738595Y-169727619D01*
X70786214Y-169822857D01*
X70786214Y-169918095D01*
X70738595Y-170060952D01*
X70167166Y-170632380D01*
X70786214Y-170632380D01*
X38100095Y-186777380D02*
X38100095Y-187586904D01*
X38147714Y-187682142D01*
X38195333Y-187729761D01*
X38290571Y-187777380D01*
X38481047Y-187777380D01*
X38576285Y-187729761D01*
X38623904Y-187682142D01*
X38671523Y-187586904D01*
X38671523Y-186777380D01*
X39671523Y-187777380D02*
X39100095Y-187777380D01*
X39385809Y-187777380D02*
X39385809Y-186777380D01*
X39290571Y-186920238D01*
X39195333Y-187015476D01*
X39100095Y-187063095D01*
X51935142Y-166981142D02*
X51887523Y-167028761D01*
X51744666Y-167076380D01*
X51649428Y-167076380D01*
X51506571Y-167028761D01*
X51411333Y-166933523D01*
X51363714Y-166838285D01*
X51316095Y-166647809D01*
X51316095Y-166504952D01*
X51363714Y-166314476D01*
X51411333Y-166219238D01*
X51506571Y-166124000D01*
X51649428Y-166076380D01*
X51744666Y-166076380D01*
X51887523Y-166124000D01*
X51935142Y-166171619D01*
X52887523Y-167076380D02*
X52316095Y-167076380D01*
X52601809Y-167076380D02*
X52601809Y-166076380D01*
X52506571Y-166219238D01*
X52411333Y-166314476D01*
X52316095Y-166362095D01*
X53268476Y-166171619D02*
X53316095Y-166124000D01*
X53411333Y-166076380D01*
X53649428Y-166076380D01*
X53744666Y-166124000D01*
X53792285Y-166171619D01*
X53839904Y-166266857D01*
X53839904Y-166362095D01*
X53792285Y-166504952D01*
X53220857Y-167076380D01*
X53839904Y-167076380D01*
X50220666Y-126706380D02*
X50220666Y-127420666D01*
X50173047Y-127563523D01*
X50077809Y-127658761D01*
X49934952Y-127706380D01*
X49839714Y-127706380D01*
X50696857Y-127706380D02*
X50696857Y-126706380D01*
X51077809Y-126706380D01*
X51173047Y-126754000D01*
X51220666Y-126801619D01*
X51268285Y-126896857D01*
X51268285Y-127039714D01*
X51220666Y-127134952D01*
X51173047Y-127182571D01*
X51077809Y-127230190D01*
X50696857Y-127230190D01*
X52220666Y-127706380D02*
X51649238Y-127706380D01*
X51934952Y-127706380D02*
X51934952Y-126706380D01*
X51839714Y-126849238D01*
X51744476Y-126944476D01*
X51649238Y-126992095D01*
X86193333Y-146407142D02*
X86145714Y-146454761D01*
X86002857Y-146502380D01*
X85907619Y-146502380D01*
X85764761Y-146454761D01*
X85669523Y-146359523D01*
X85621904Y-146264285D01*
X85574285Y-146073809D01*
X85574285Y-145930952D01*
X85621904Y-145740476D01*
X85669523Y-145645238D01*
X85764761Y-145550000D01*
X85907619Y-145502380D01*
X86002857Y-145502380D01*
X86145714Y-145550000D01*
X86193333Y-145597619D01*
X86526666Y-145502380D02*
X87145714Y-145502380D01*
X86812380Y-145883333D01*
X86955238Y-145883333D01*
X87050476Y-145930952D01*
X87098095Y-145978571D01*
X87145714Y-146073809D01*
X87145714Y-146311904D01*
X87098095Y-146407142D01*
X87050476Y-146454761D01*
X86955238Y-146502380D01*
X86669523Y-146502380D01*
X86574285Y-146454761D01*
X86526666Y-146407142D01*
X85367904Y-165679380D02*
X85367904Y-164679380D01*
X85606000Y-164679380D01*
X85748857Y-164727000D01*
X85844095Y-164822238D01*
X85891714Y-164917476D01*
X85939333Y-165107952D01*
X85939333Y-165250809D01*
X85891714Y-165441285D01*
X85844095Y-165536523D01*
X85748857Y-165631761D01*
X85606000Y-165679380D01*
X85367904Y-165679380D01*
X86510761Y-165107952D02*
X86415523Y-165060333D01*
X86367904Y-165012714D01*
X86320285Y-164917476D01*
X86320285Y-164869857D01*
X86367904Y-164774619D01*
X86415523Y-164727000D01*
X86510761Y-164679380D01*
X86701238Y-164679380D01*
X86796476Y-164727000D01*
X86844095Y-164774619D01*
X86891714Y-164869857D01*
X86891714Y-164917476D01*
X86844095Y-165012714D01*
X86796476Y-165060333D01*
X86701238Y-165107952D01*
X86510761Y-165107952D01*
X86415523Y-165155571D01*
X86367904Y-165203190D01*
X86320285Y-165298428D01*
X86320285Y-165488904D01*
X86367904Y-165584142D01*
X86415523Y-165631761D01*
X86510761Y-165679380D01*
X86701238Y-165679380D01*
X86796476Y-165631761D01*
X86844095Y-165584142D01*
X86891714Y-165488904D01*
X86891714Y-165298428D01*
X86844095Y-165203190D01*
X86796476Y-165155571D01*
X86701238Y-165107952D01*
X58539142Y-189047380D02*
X58205809Y-188571190D01*
X57967714Y-189047380D02*
X57967714Y-188047380D01*
X58348666Y-188047380D01*
X58443904Y-188095000D01*
X58491523Y-188142619D01*
X58539142Y-188237857D01*
X58539142Y-188380714D01*
X58491523Y-188475952D01*
X58443904Y-188523571D01*
X58348666Y-188571190D01*
X57967714Y-188571190D01*
X59491523Y-189047380D02*
X58920095Y-189047380D01*
X59205809Y-189047380D02*
X59205809Y-188047380D01*
X59110571Y-188190238D01*
X59015333Y-188285476D01*
X58920095Y-188333095D01*
X60396285Y-188047380D02*
X59920095Y-188047380D01*
X59872476Y-188523571D01*
X59920095Y-188475952D01*
X60015333Y-188428333D01*
X60253428Y-188428333D01*
X60348666Y-188475952D01*
X60396285Y-188523571D01*
X60443904Y-188618809D01*
X60443904Y-188856904D01*
X60396285Y-188952142D01*
X60348666Y-188999761D01*
X60253428Y-189047380D01*
X60015333Y-189047380D01*
X59920095Y-188999761D01*
X59872476Y-188952142D01*
D15*
X67283000Y-185600936D02*
X67283000Y-186055064D01*
X65813000Y-185600936D02*
X65813000Y-186055064D01*
X93309000Y-143113000D02*
X93309000Y-141113000D01*
X93309000Y-143113000D02*
X89409000Y-143113000D01*
X93309000Y-141113000D02*
X89409000Y-141113000D01*
X89281000Y-148236000D02*
X89735128Y-148236000D01*
X89281000Y-149706000D02*
X89735128Y-149706000D01*
X89281000Y-158469000D02*
X89735128Y-158469000D01*
X89281000Y-156999000D02*
X89735128Y-156999000D01*
X41047936Y-127989000D02*
X41502064Y-127989000D01*
X41047936Y-126519000D02*
X41502064Y-126519000D01*
X89281000Y-152627000D02*
X89735128Y-152627000D01*
X89281000Y-151157000D02*
X89735128Y-151157000D01*
X39300500Y-181602500D02*
X39300500Y-180815000D01*
X37738000Y-173755000D02*
X40088000Y-173755000D01*
X43493563Y-180575000D02*
X42208000Y-180575000D01*
X37738000Y-179510563D02*
X37738000Y-173755000D01*
X38802437Y-180575000D02*
X37738000Y-179510563D01*
X44558000Y-173755000D02*
X42208000Y-173755000D01*
X38802437Y-180575000D02*
X40088000Y-180575000D01*
X43493563Y-180575000D02*
X44558000Y-179510563D01*
X44558000Y-179510563D02*
X44558000Y-173755000D01*
X38906750Y-181208750D02*
X39694250Y-181208750D01*
X102863000Y-150560000D02*
X102863000Y-151610000D01*
X102863000Y-156780000D02*
X102863000Y-155730000D01*
X107333000Y-155610000D02*
X107333000Y-151730000D01*
X105363000Y-150560000D02*
X102863000Y-150560000D01*
X105363000Y-156780000D02*
X102863000Y-156780000D01*
X102863000Y-155730000D02*
X101873000Y-155730000D01*
X59082000Y-135101064D02*
X59082000Y-134646936D01*
X60552000Y-135101064D02*
X60552000Y-134646936D01*
X62764936Y-182934000D02*
X63219064Y-182934000D01*
X62764936Y-184404000D02*
X63219064Y-184404000D01*
X83700252Y-156999000D02*
X83177748Y-156999000D01*
X83700252Y-158469000D02*
X83177748Y-158469000D01*
X73275564Y-185520000D02*
X72821436Y-185520000D01*
X73275564Y-184050000D02*
X72821436Y-184050000D01*
X49279000Y-133939000D02*
X49279000Y-134539000D01*
X48579000Y-135239000D02*
X47179000Y-135239000D01*
X46479000Y-134539000D02*
X46479000Y-133939000D01*
X47179000Y-133239000D02*
X48579000Y-133239000D01*
X46479000Y-134539000D02*
G75*
G03*
X47179000Y-135239000I699999J-1D01*
G01*
X47179000Y-133239000D02*
G75*
G03*
X46479000Y-133939000I-1J-699999D01*
G01*
X49279000Y-133939000D02*
G75*
G03*
X48579000Y-133239000I-699999J1D01*
G01*
X48579000Y-135239000D02*
G75*
G03*
X49279000Y-134539000I1J699999D01*
G01*
X50646064Y-169772000D02*
X50191936Y-169772000D01*
X50646064Y-168302000D02*
X50191936Y-168302000D01*
X46890000Y-185412748D02*
X46890000Y-185935252D01*
X48360000Y-185412748D02*
X48360000Y-185935252D01*
X87024000Y-168022000D02*
X92424000Y-168022000D01*
X87024000Y-171322000D02*
X92424000Y-171322000D01*
X87024000Y-168022000D02*
X87024000Y-171322000D01*
X71690000Y-124349000D02*
X73090000Y-124349000D01*
X73090000Y-126349000D02*
X71690000Y-126349000D01*
X70990000Y-125649000D02*
X70990000Y-125049000D01*
X73790000Y-125049000D02*
X73790000Y-125649000D01*
X70990000Y-125649000D02*
G75*
G03*
X71690000Y-126349000I699999J-1D01*
G01*
X73090000Y-126349000D02*
G75*
G03*
X73790000Y-125649000I1J699999D01*
G01*
X73790000Y-125049000D02*
G75*
G03*
X73090000Y-124349000I-699999J1D01*
G01*
X71690000Y-124349000D02*
G75*
G03*
X70990000Y-125049000I-1J-699999D01*
G01*
X41047936Y-153389000D02*
X41502064Y-153389000D01*
X41047936Y-151919000D02*
X41502064Y-151919000D01*
X50138000Y-163729936D02*
X50138000Y-164184064D01*
X48668000Y-163729936D02*
X48668000Y-164184064D01*
X46479000Y-152954000D02*
X46479000Y-152354000D01*
X48579000Y-153654000D02*
X47179000Y-153654000D01*
X49279000Y-152354000D02*
X49279000Y-152954000D01*
X47179000Y-151654000D02*
X48579000Y-151654000D01*
X49279000Y-152354000D02*
G75*
G03*
X48579000Y-151654000I-699999J1D01*
G01*
X48579000Y-153654000D02*
G75*
G03*
X49279000Y-152954000I1J699999D01*
G01*
X47179000Y-151654000D02*
G75*
G03*
X46479000Y-152354000I-1J-699999D01*
G01*
X46479000Y-152954000D02*
G75*
G03*
X47179000Y-153654000I699999J-1D01*
G01*
X41047936Y-156809000D02*
X41502064Y-156809000D01*
X41047936Y-155339000D02*
X41502064Y-155339000D01*
X83700252Y-155548000D02*
X83177748Y-155548000D01*
X83700252Y-154078000D02*
X83177748Y-154078000D01*
X57631000Y-135101064D02*
X57631000Y-134646936D01*
X56161000Y-135101064D02*
X56161000Y-134646936D01*
X33408000Y-181575000D02*
X33315000Y-181481000D01*
X29379000Y-172500000D02*
X28539000Y-172500000D01*
X36499000Y-182860000D02*
X28778000Y-182860000D01*
X28778000Y-172740000D02*
X28778000Y-182860000D01*
X33614000Y-181370000D02*
X33555000Y-181311000D01*
X29439000Y-172740000D02*
X29439000Y-182860000D01*
X30039000Y-172740000D02*
X30039000Y-182860000D01*
X31363000Y-179120000D02*
X31270000Y-179026000D01*
X36499000Y-172740000D02*
X36499000Y-182860000D01*
X28539000Y-172500000D02*
X28539000Y-173100000D01*
X36499000Y-172740000D02*
X28778000Y-172740000D01*
X31123000Y-179290000D02*
X31065000Y-179231000D01*
X34739000Y-172740000D02*
X34739000Y-182860000D01*
X31550000Y-176784000D02*
G75*
G03*
X33128089Y-176783953I789000J1483995D01*
G01*
X30659000Y-175300000D02*
G75*
G03*
X30855648Y-176088712I1679991J-2D01*
G01*
X33823000Y-176089000D02*
G75*
G03*
X33822953Y-174510911I-1483995J789000D01*
G01*
X33128000Y-173816000D02*
G75*
G03*
X31549911Y-173816047I-789000J-1483995D01*
G01*
X30855000Y-174511000D02*
G75*
G03*
X30658550Y-175329383I1483995J-788998D01*
G01*
X34019000Y-180300000D02*
G75*
G03*
X34019000Y-180300000I-1680000J0D01*
G01*
X35889000Y-180300000D02*
G75*
G03*
X35889000Y-180300000I-550000J0D01*
G01*
X35889000Y-175300000D02*
G75*
G03*
X35889000Y-175300000I-550000J0D01*
G01*
X83700252Y-151157000D02*
X83177748Y-151157000D01*
X83700252Y-152627000D02*
X83177748Y-152627000D01*
X30149800Y-166655200D02*
X30149800Y-170555200D01*
X32893000Y-166655200D02*
X32893000Y-170555200D01*
X32893000Y-166804700D02*
X32893000Y-166138500D01*
X32893000Y-166141400D02*
X30149800Y-166141400D01*
X30149800Y-166141400D02*
X30149800Y-166852600D01*
X48579000Y-160639000D02*
X47179000Y-160639000D01*
X46479000Y-159939000D02*
X46479000Y-159339000D01*
X49279000Y-159339000D02*
X49279000Y-159939000D01*
X47179000Y-158639000D02*
X48579000Y-158639000D01*
X46479000Y-159939000D02*
G75*
G03*
X47179000Y-160639000I699999J-1D01*
G01*
X48579000Y-160639000D02*
G75*
G03*
X49279000Y-159939000I1J699999D01*
G01*
X49279000Y-159339000D02*
G75*
G03*
X48579000Y-158639000I-699999J1D01*
G01*
X47179000Y-158639000D02*
G75*
G03*
X46479000Y-159339000I-1J-699999D01*
G01*
X73533000Y-150515000D02*
X70083000Y-150515000D01*
X73533000Y-150515000D02*
X75483000Y-150515000D01*
X73533000Y-160635000D02*
X75483000Y-160635000D01*
X73533000Y-160635000D02*
X71583000Y-160635000D01*
X63219064Y-180013000D02*
X62764936Y-180013000D01*
X63219064Y-181483000D02*
X62764936Y-181483000D01*
X57538252Y-165073000D02*
X57015748Y-165073000D01*
X57538252Y-163603000D02*
X57015748Y-163603000D01*
X63473000Y-135101064D02*
X63473000Y-134646936D01*
X62003000Y-135101064D02*
X62003000Y-134646936D01*
X89281000Y-159920000D02*
X89735128Y-159920000D01*
X89281000Y-161390000D02*
X89735128Y-161390000D01*
X64640000Y-125649000D02*
X64640000Y-125049000D01*
X67440000Y-125049000D02*
X67440000Y-125649000D01*
X66740000Y-126349000D02*
X65340000Y-126349000D01*
X65340000Y-124349000D02*
X66740000Y-124349000D01*
X67440000Y-125049000D02*
G75*
G03*
X66740000Y-124349000I-699999J1D01*
G01*
X66740000Y-126349000D02*
G75*
G03*
X67440000Y-125649000I1J699999D01*
G01*
X64640000Y-125649000D02*
G75*
G03*
X65340000Y-126349000I699999J-1D01*
G01*
X65340000Y-124349000D02*
G75*
G03*
X64640000Y-125049000I-1J-699999D01*
G01*
X32979000Y-125444000D02*
X32979000Y-136064000D01*
X31419000Y-125444000D02*
X31419000Y-136064000D01*
X34054000Y-129819000D02*
X33999000Y-129765000D01*
X31179000Y-125204000D02*
X31179000Y-126704000D01*
X36169000Y-135434000D02*
X36093000Y-135358000D01*
X38039000Y-125444000D02*
X31419000Y-125444000D01*
X32919000Y-125204000D02*
X31179000Y-125204000D01*
X38039000Y-136064000D02*
X31419000Y-136064000D01*
X34265000Y-129651000D02*
X34189000Y-129575000D01*
X34265000Y-133151000D02*
X34189000Y-133075000D01*
X36359000Y-135244000D02*
X36305000Y-135190000D01*
X38039000Y-125444000D02*
X38039000Y-136064000D01*
X36169000Y-131934000D02*
X36093000Y-131858000D01*
X34054000Y-133319000D02*
X33999000Y-133265000D01*
X36359000Y-131744000D02*
X36305000Y-131690000D01*
X33793000Y-126547000D02*
G75*
G03*
X33623318Y-127280444I1385995J-706999D01*
G01*
X33624000Y-127254000D02*
G75*
G03*
X33793485Y-127959955I1555008J2D01*
G01*
X35886000Y-125868000D02*
G75*
G03*
X34473267Y-125867355I-706999J-1386001D01*
G01*
X36565000Y-127961000D02*
G75*
G03*
X36565645Y-126548267I-1386001J706999D01*
G01*
X34472000Y-128640000D02*
G75*
G03*
X35884733Y-128640645I706999J1386001D01*
G01*
X36734000Y-130754000D02*
G75*
G03*
X36734000Y-130754000I-1555000J0D01*
G01*
X36734000Y-134254000D02*
G75*
G03*
X36734000Y-134254000I-1555000J0D01*
G01*
X73275564Y-182599000D02*
X72821436Y-182599000D01*
X73275564Y-181129000D02*
X72821436Y-181129000D01*
X36169000Y-160834000D02*
X36093000Y-160758000D01*
X38039000Y-161464000D02*
X31419000Y-161464000D01*
X36169000Y-157334000D02*
X36093000Y-157258000D01*
X31179000Y-150604000D02*
X31179000Y-152104000D01*
X32979000Y-150844000D02*
X32979000Y-161464000D01*
X31419000Y-150844000D02*
X31419000Y-161464000D01*
X34054000Y-155219000D02*
X33999000Y-155165000D01*
X36359000Y-157144000D02*
X36305000Y-157090000D01*
X36359000Y-160644000D02*
X36305000Y-160590000D01*
X34054000Y-158719000D02*
X33999000Y-158665000D01*
X34265000Y-158551000D02*
X34189000Y-158475000D01*
X34265000Y-155051000D02*
X34189000Y-154975000D01*
X38039000Y-150844000D02*
X31419000Y-150844000D01*
X32919000Y-150604000D02*
X31179000Y-150604000D01*
X38039000Y-150844000D02*
X38039000Y-161464000D01*
X33793000Y-151947000D02*
G75*
G03*
X33623318Y-152680444I1385995J-706999D01*
G01*
X36565000Y-153361000D02*
G75*
G03*
X36565645Y-151948267I-1386001J706999D01*
G01*
X35886000Y-151268000D02*
G75*
G03*
X34473267Y-151267355I-706999J-1386001D01*
G01*
X33624000Y-152654000D02*
G75*
G03*
X33793485Y-153359955I1555008J2D01*
G01*
X34472000Y-154040000D02*
G75*
G03*
X35884733Y-154040645I706999J1386001D01*
G01*
X36734000Y-156154000D02*
G75*
G03*
X36734000Y-156154000I-1555000J0D01*
G01*
X36734000Y-159654000D02*
G75*
G03*
X36734000Y-159654000I-1555000J0D01*
G01*
X61090000Y-125049000D02*
X61090000Y-125649000D01*
X60390000Y-126349000D02*
X58990000Y-126349000D01*
X58990000Y-124349000D02*
X60390000Y-124349000D01*
X58290000Y-125649000D02*
X58290000Y-125049000D01*
X60390000Y-126349000D02*
G75*
G03*
X61090000Y-125649000I1J699999D01*
G01*
X58290000Y-125649000D02*
G75*
G03*
X58990000Y-126349000I699999J-1D01*
G01*
X61090000Y-125049000D02*
G75*
G03*
X60390000Y-124349000I-699999J1D01*
G01*
X58990000Y-124349000D02*
G75*
G03*
X58290000Y-125049000I-1J-699999D01*
G01*
X102863000Y-140490000D02*
X101873000Y-140490000D01*
X102863000Y-135320000D02*
X102863000Y-136370000D01*
X102863000Y-141540000D02*
X102863000Y-140490000D01*
X107333000Y-140370000D02*
X107333000Y-136490000D01*
X105363000Y-141540000D02*
X102863000Y-141540000D01*
X105363000Y-135320000D02*
X102863000Y-135320000D01*
X42799000Y-166931700D02*
X42799000Y-166265500D01*
X42799000Y-166782200D02*
X42799000Y-170682200D01*
X42799000Y-166268400D02*
X40055800Y-166268400D01*
X40055800Y-166268400D02*
X40055800Y-166979600D01*
X40055800Y-166782200D02*
X40055800Y-170682200D01*
X41047936Y-131418000D02*
X41502064Y-131418000D01*
X41047936Y-129948000D02*
X41502064Y-129948000D01*
X83700252Y-148236000D02*
X83177748Y-148236000D01*
X83700252Y-149706000D02*
X83177748Y-149706000D01*
X38039000Y-138144000D02*
X31419000Y-138144000D01*
X38039000Y-138144000D02*
X38039000Y-148764000D01*
X34054000Y-142519000D02*
X33999000Y-142465000D01*
X36359000Y-147944000D02*
X36305000Y-147890000D01*
X34265000Y-145851000D02*
X34189000Y-145775000D01*
X34054000Y-146019000D02*
X33999000Y-145965000D01*
X36169000Y-148134000D02*
X36093000Y-148058000D01*
X38039000Y-148764000D02*
X31419000Y-148764000D01*
X31419000Y-138144000D02*
X31419000Y-148764000D01*
X34265000Y-142351000D02*
X34189000Y-142275000D01*
X32979000Y-138144000D02*
X32979000Y-148764000D01*
X31179000Y-137904000D02*
X31179000Y-139404000D01*
X32919000Y-137904000D02*
X31179000Y-137904000D01*
X36359000Y-144444000D02*
X36305000Y-144390000D01*
X36169000Y-144634000D02*
X36093000Y-144558000D01*
X33624000Y-139954000D02*
G75*
G03*
X33793485Y-140659955I1555008J2D01*
G01*
X33793000Y-139247000D02*
G75*
G03*
X33623318Y-139980444I1385995J-706999D01*
G01*
X35886000Y-138568000D02*
G75*
G03*
X34473267Y-138567355I-706999J-1386001D01*
G01*
X36565000Y-140661000D02*
G75*
G03*
X36565645Y-139248267I-1386001J706999D01*
G01*
X34472000Y-141340000D02*
G75*
G03*
X35884733Y-141340645I706999J1386001D01*
G01*
X36734000Y-143454000D02*
G75*
G03*
X36734000Y-143454000I-1555000J0D01*
G01*
X36734000Y-146954000D02*
G75*
G03*
X36734000Y-146954000I-1555000J0D01*
G01*
X46479000Y-156383000D02*
X46479000Y-155783000D01*
X49279000Y-155783000D02*
X49279000Y-156383000D01*
X47179000Y-155083000D02*
X48579000Y-155083000D01*
X48579000Y-157083000D02*
X47179000Y-157083000D01*
X47179000Y-155083000D02*
G75*
G03*
X46479000Y-155783000I-1J-699999D01*
G01*
X46479000Y-156383000D02*
G75*
G03*
X47179000Y-157083000I699999J-1D01*
G01*
X49279000Y-155783000D02*
G75*
G03*
X48579000Y-155083000I-699999J1D01*
G01*
X48579000Y-157083000D02*
G75*
G03*
X49279000Y-156383000I1J699999D01*
G01*
X105363000Y-165800000D02*
X102863000Y-165800000D01*
X105363000Y-172020000D02*
X102863000Y-172020000D01*
X107333000Y-170850000D02*
X107333000Y-166970000D01*
X102863000Y-165800000D02*
X102863000Y-166850000D01*
X102863000Y-170970000D02*
X101873000Y-170970000D01*
X102863000Y-172020000D02*
X102863000Y-170970000D01*
X39446200Y-171164800D02*
X39446200Y-167264800D01*
X36703000Y-171678600D02*
X39446200Y-171678600D01*
X36703000Y-171164800D02*
X36703000Y-167264800D01*
X39446200Y-171678600D02*
X39446200Y-170967400D01*
X36703000Y-171015300D02*
X36703000Y-171681500D01*
X73275564Y-172366000D02*
X72821436Y-172366000D01*
X73275564Y-173836000D02*
X72821436Y-173836000D01*
X83700252Y-159920000D02*
X83177748Y-159920000D01*
X83700252Y-161390000D02*
X83177748Y-161390000D01*
X73275564Y-178208000D02*
X72821436Y-178208000D01*
X73275564Y-179678000D02*
X72821436Y-179678000D01*
X70238252Y-147928000D02*
X69715748Y-147928000D01*
X70238252Y-146458000D02*
X69715748Y-146458000D01*
X81231500Y-134075000D02*
X81231500Y-116115000D01*
X96936500Y-130195000D02*
X97436500Y-130695000D01*
X96751500Y-116115000D02*
X81231500Y-116115000D01*
X97436500Y-130695000D02*
X97436500Y-129695000D01*
X96751500Y-134075000D02*
X96751500Y-116115000D01*
X81231500Y-134075000D02*
X96751500Y-134075000D01*
X97436500Y-129695000D02*
X96936500Y-130195000D01*
X88040000Y-135891000D02*
X88040000Y-139191000D01*
X88040000Y-135891000D02*
X93440000Y-135891000D01*
X88040000Y-139191000D02*
X93440000Y-139191000D01*
X89257500Y-146785000D02*
X89711628Y-146785000D01*
X89257500Y-145315000D02*
X89711628Y-145315000D01*
X36144200Y-171164800D02*
X36144200Y-167264800D01*
X33401000Y-171164800D02*
X33401000Y-167264800D01*
X33401000Y-171678600D02*
X36144200Y-171678600D01*
X33401000Y-171015300D02*
X33401000Y-171681500D01*
X36144200Y-171678600D02*
X36144200Y-170967400D01*
X73275564Y-176757000D02*
X72821436Y-176757000D01*
X73275564Y-175287000D02*
X72821436Y-175287000D01*
X81117500Y-177018000D02*
X80617500Y-176518000D01*
X80617500Y-176518000D02*
X80617500Y-177518000D01*
X80617500Y-177518000D02*
X81117500Y-177018000D01*
X81302500Y-173138000D02*
X81302500Y-191098000D01*
X96822500Y-173138000D02*
X81302500Y-173138000D01*
X96822500Y-173138000D02*
X96822500Y-191098000D01*
X81302500Y-191098000D02*
X96822500Y-191098000D01*
X41047936Y-133504000D02*
X41502064Y-133504000D01*
X41047936Y-134974000D02*
X41502064Y-134974000D01*
X51629187Y-182384700D02*
X53526813Y-182384700D01*
X53526813Y-176517300D02*
X51629187Y-176517300D01*
X56803000Y-168077000D02*
X54118000Y-168077000D01*
X56803000Y-169997000D02*
X56803000Y-168077000D01*
X54118000Y-169997000D02*
X56803000Y-169997000D01*
X56869000Y-185412748D02*
X56869000Y-185935252D01*
X55399000Y-185412748D02*
X55399000Y-185935252D01*
X46479000Y-130983000D02*
X46479000Y-130383000D01*
X49279000Y-130383000D02*
X49279000Y-130983000D01*
X48579000Y-131683000D02*
X47179000Y-131683000D01*
X47179000Y-129683000D02*
X48579000Y-129683000D01*
X46479000Y-130983000D02*
G75*
G03*
X47179000Y-131683000I699999J-1D01*
G01*
X48579000Y-131683000D02*
G75*
G03*
X49279000Y-130983000I1J699999D01*
G01*
X49279000Y-130383000D02*
G75*
G03*
X48579000Y-129683000I-699999J1D01*
G01*
X47179000Y-129683000D02*
G75*
G03*
X46479000Y-130383000I-1J-699999D01*
G01*
X56338000Y-149300000D02*
X54523000Y-149300000D01*
X60198000Y-162085000D02*
X56338000Y-162085000D01*
X56338000Y-149065000D02*
X56338000Y-149300000D01*
X64058000Y-149065000D02*
X64058000Y-149300000D01*
X60198000Y-149065000D02*
X56338000Y-149065000D01*
X64058000Y-162085000D02*
X64058000Y-161850000D01*
X56338000Y-162085000D02*
X56338000Y-161850000D01*
X60198000Y-149065000D02*
X64058000Y-149065000D01*
X60198000Y-162085000D02*
X64058000Y-162085000D01*
X45593000Y-145542000D02*
X45593000Y-144907000D01*
X46228000Y-145542000D02*
X45593000Y-145542000D01*
X59639200Y-181705800D02*
X59639200Y-177805800D01*
X56896000Y-181556300D02*
X56896000Y-182222500D01*
X56896000Y-181705800D02*
X56896000Y-177805800D01*
X56896000Y-182219600D02*
X59639200Y-182219600D01*
X59639200Y-182219600D02*
X59639200Y-181508400D01*
X89281000Y-155548000D02*
X89735128Y-155548000D01*
X89281000Y-154078000D02*
X89735128Y-154078000D01*
X63219064Y-187325000D02*
X62764936Y-187325000D01*
X63219064Y-185855000D02*
X62764936Y-185855000D01*
X54138000Y-185674000D02*
X54138000Y-183874000D01*
X51018000Y-185674000D02*
X51018000Y-186474000D01*
X51018000Y-185674000D02*
X51018000Y-184874000D01*
X54138000Y-185674000D02*
X54138000Y-186474000D01*
X41047936Y-160374000D02*
X41502064Y-160374000D01*
X41047936Y-158904000D02*
X41502064Y-158904000D01*
X73275564Y-169445000D02*
X72821436Y-169445000D01*
X73275564Y-170915000D02*
X72821436Y-170915000D01*
X41622000Y-188007500D02*
X40312000Y-188007500D01*
X44802000Y-184147500D02*
X44802000Y-185287500D01*
X40312000Y-185287500D02*
X40542000Y-185287500D01*
X40312000Y-188007500D02*
X40312000Y-185287500D01*
X45032000Y-185287500D02*
X44802000Y-185287500D01*
X45032000Y-185287500D02*
X45032000Y-188007500D01*
X45032000Y-188007500D02*
X43722000Y-188007500D01*
X51843000Y-163695748D02*
X51843000Y-164218252D01*
X53313000Y-163695748D02*
X53313000Y-164218252D01*
X47179000Y-126254000D02*
X48579000Y-126254000D01*
X48579000Y-128254000D02*
X47179000Y-128254000D01*
X46479000Y-127554000D02*
X46479000Y-126954000D01*
X49279000Y-126954000D02*
X49279000Y-127554000D01*
X46479000Y-127554000D02*
G75*
G03*
X47179000Y-128254000I699999J-1D01*
G01*
X47179000Y-126254000D02*
G75*
G03*
X46479000Y-126954000I-1J-699999D01*
G01*
X49279000Y-126954000D02*
G75*
G03*
X48579000Y-126254000I-699999J1D01*
G01*
X48579000Y-128254000D02*
G75*
G03*
X49279000Y-127554000I1J699999D01*
G01*
X83700252Y-145315000D02*
X83177748Y-145315000D01*
X83700252Y-146785000D02*
X83177748Y-146785000D01*
X92293000Y-164227000D02*
X88393000Y-164227000D01*
X92293000Y-166227000D02*
X88393000Y-166227000D01*
X92293000Y-166227000D02*
X92293000Y-164227000D01*
X59917000Y-185901064D02*
X59917000Y-185446936D01*
X58447000Y-185901064D02*
X58447000Y-185446936D01*
M02*
