M48
INCH,TZ
T1C0.0120
T2C0.0299
T3C0.0472
T4C0.0512
T5C0.1260
%
G90
G05
T1
X13700Y-69200
X13700Y-69600
X13700Y-70000
X15400Y-54450
X15400Y-54950
X15450Y-68350
X15450Y-68700
X15450Y-69050
X16050Y-73400
X16050Y-73750
X16050Y-74100
X16200Y-54450
X16200Y-54950
X16400Y-74550
X16800Y-74550
X16950Y-68350
X16950Y-68700
X16950Y-69050
X17200Y-74550
X17300Y-46600
X17528Y-51972
X17550Y-73400
X17550Y-73750
X17550Y-74100
X17850Y-53350
X18100Y-54450
X18100Y-54950
X18550Y-48800
X18550Y-74100
X18750Y-49200
X18950Y-74100
X19050Y-54450
X19050Y-54950
X19700Y-52350
X19900Y-72100
X20300Y-72100
X20450Y-52150
X20700Y-72100
X20850Y-61500
X21200Y-61500
X21300Y-52500
X21500Y-64700
X21900Y-74100
X22000Y-49700
X22150Y-64187
X22300Y-74100
X22400Y-50050
X22750Y-49350
X22750Y-67000
X22950Y-53500
X23050Y-46600
X23050Y-53000
X23150Y-53850
X23150Y-67000
X23250Y-75050
X23700Y-75050
X24150Y-75050
X24550Y-61000
X24900Y-61000
X25150Y-70600
X25150Y-71700
X25750Y-53950
X26550Y-53950
X26950Y-63000
X27250Y-69850
X27300Y-63000
X27562Y-57862
X27900Y-57850
X27909Y-53841
X28544Y-53556
X29056Y-47600
X29056Y-49544
X29056Y-51344
X29950Y-70450
X29950Y-72750
X30850Y-71600
X30900Y-67000
X30900Y-68700
X30914Y-67736
X31500Y-57500
X31500Y-58650
X31500Y-59800
X31500Y-60950
X31500Y-62100
X31500Y-63250
X31850Y-57500
X31850Y-58650
X31850Y-59800
X31850Y-60950
X31850Y-62100
X31850Y-63250
X33000Y-65550
X33000Y-65900
X33000Y-66250
X34350Y-50100
X34750Y-50100
X35150Y-50100
X35800Y-66100
X35800Y-67500
X36225Y-59025
X36225Y-59375
X36300Y-53450
X36300Y-54850
X36400Y-66100
X36400Y-67500
X36900Y-53450
X36900Y-54850
X37000Y-61300
X37000Y-61650
X37000Y-66100
X37000Y-67500
X37150Y-66550
X37150Y-67050
X37250Y-57500
X37400Y-62550
X37400Y-62900
X37500Y-53450
X37500Y-54850
X37500Y-57250
X37650Y-53900
X37650Y-54400
X37800Y-58650
X37800Y-59000
X37800Y-59350
X37800Y-66000
X37800Y-66400
X37800Y-66800
X38200Y-66000
X38200Y-66400
X38200Y-66800
X39550Y-63650
X40400Y-55700
X40400Y-56050
X40400Y-61675
X40400Y-62025
X40400Y-67725
X40400Y-68075
X41900Y-60500
X41950Y-54500
X41950Y-66500
T2
X33286Y-52258
X33314Y-69692
X33786Y-51258
X33814Y-68692
X34286Y-52258
X34314Y-69692
X34786Y-51258
X34814Y-68692
X35286Y-52258
X35314Y-69692
X35786Y-51258
X35814Y-68692
X36286Y-52258
X36314Y-69692
X36786Y-51258
X36814Y-68692
T3
X13850Y-50100
X13850Y-51478
X13850Y-52856
X13850Y-55100
X13850Y-56478
X13850Y-57856
X13850Y-60100
X13850Y-61478
X13850Y-62856
T4
X12732Y-69016
X12732Y-70984
T5
X11700Y-47200
X11700Y-73800
X40800Y-47200
X40800Y-73800
T0
M30
