G04 #@! TF.GenerationSoftware,KiCad,Pcbnew,6.0.10-86aedd382b~118~ubuntu18.04.1*
G04 #@! TF.CreationDate,2024-08-26T14:02:28-06:00*
G04 #@! TF.ProjectId,mss-cascade-basic,6d73732d-6361-4736-9361-64652d626173,rev?*
G04 #@! TF.SameCoordinates,Original*
G04 #@! TF.FileFunction,Legend,Top*
G04 #@! TF.FilePolarity,Positive*
%FSLAX46Y46*%
G04 Gerber Fmt 4.6, Leading zero omitted, Abs format (unit mm)*
G04 Created by KiCad (PCBNEW 6.0.10-86aedd382b~118~ubuntu18.04.1) date 2024-08-26 14:02:28*
%MOMM*%
%LPD*%
G01*
G04 APERTURE LIST*
%ADD10C,0.000000*%
%ADD11C,0.300000*%
%ADD12C,0.762000*%
%ADD13C,0.254000*%
%ADD14C,0.152400*%
%ADD15C,0.150000*%
%ADD16C,0.120000*%
G04 APERTURE END LIST*
D10*
G36*
X78720680Y-142215756D02*
G01*
X78715272Y-142191597D01*
X78711870Y-142172833D01*
X78710682Y-142160163D01*
X78710983Y-142156331D01*
X78711916Y-142154285D01*
X78926151Y-142105524D01*
X79390219Y-142005501D01*
X79853626Y-141907726D01*
X80065877Y-141865712D01*
X80066787Y-141868125D01*
X80068391Y-141874036D01*
X80073285Y-141894729D01*
X80079768Y-141924549D01*
X80087044Y-141960257D01*
X80103674Y-142038508D01*
X80122590Y-142113688D01*
X80143761Y-142185750D01*
X80167157Y-142254650D01*
X80192749Y-142320342D01*
X80220505Y-142382780D01*
X80250397Y-142441920D01*
X80282394Y-142497714D01*
X80299173Y-142524343D01*
X80316467Y-142550119D01*
X80334272Y-142575036D01*
X80352585Y-142599088D01*
X80371401Y-142622270D01*
X80390718Y-142644577D01*
X80410531Y-142666001D01*
X80430837Y-142686538D01*
X80451631Y-142706183D01*
X80472911Y-142724928D01*
X80494672Y-142742770D01*
X80516910Y-142759701D01*
X80539623Y-142775717D01*
X80562805Y-142790811D01*
X80586454Y-142804978D01*
X80610566Y-142818212D01*
X80641357Y-142833542D01*
X80672343Y-142847251D01*
X80703525Y-142859339D01*
X80734898Y-142869806D01*
X80766462Y-142878654D01*
X80798213Y-142885880D01*
X80830151Y-142891486D01*
X80862273Y-142895471D01*
X80894576Y-142897836D01*
X80927060Y-142898580D01*
X80959721Y-142897704D01*
X80992558Y-142895207D01*
X81025569Y-142891089D01*
X81058751Y-142885351D01*
X81092102Y-142877992D01*
X81125622Y-142869013D01*
X81175011Y-142852570D01*
X81221791Y-142832684D01*
X81265881Y-142809468D01*
X81307203Y-142783034D01*
X81345676Y-142753496D01*
X81381221Y-142720966D01*
X81413759Y-142685557D01*
X81443210Y-142647380D01*
X81469493Y-142606550D01*
X81492531Y-142563178D01*
X81512243Y-142517377D01*
X81528549Y-142469260D01*
X81541370Y-142418940D01*
X81550626Y-142366529D01*
X81556239Y-142312140D01*
X81558127Y-142255885D01*
X81557527Y-142224810D01*
X81555711Y-142194507D01*
X81552653Y-142164908D01*
X81548326Y-142135941D01*
X81542706Y-142107536D01*
X81535766Y-142079623D01*
X81527480Y-142052132D01*
X81517822Y-142024992D01*
X81506767Y-141998133D01*
X81494289Y-141971486D01*
X81480362Y-141944978D01*
X81464960Y-141918541D01*
X81448058Y-141892104D01*
X81429629Y-141865597D01*
X81409648Y-141838949D01*
X81388088Y-141812090D01*
X81359024Y-141778200D01*
X81328386Y-141745093D01*
X81295672Y-141712428D01*
X81260382Y-141679865D01*
X81222017Y-141647062D01*
X81180076Y-141613678D01*
X81134058Y-141579372D01*
X81083464Y-141543803D01*
X80966546Y-141467512D01*
X80825319Y-141382077D01*
X80655782Y-141284768D01*
X80453933Y-141172858D01*
X80290763Y-141082701D01*
X80150290Y-141003392D01*
X80029016Y-140932748D01*
X79923443Y-140868587D01*
X79830074Y-140808725D01*
X79745412Y-140750979D01*
X79665958Y-140693168D01*
X79588216Y-140633107D01*
X79547039Y-140599035D01*
X79501951Y-140559366D01*
X79454730Y-140515843D01*
X79407153Y-140470212D01*
X79360998Y-140424218D01*
X79318043Y-140379604D01*
X79280066Y-140338115D01*
X79263499Y-140319088D01*
X79248844Y-140301497D01*
X79203614Y-140242991D01*
X79161578Y-140183593D01*
X79122721Y-140123255D01*
X79087029Y-140061927D01*
X79054487Y-139999562D01*
X79025081Y-139936111D01*
X78998796Y-139871525D01*
X78975617Y-139805755D01*
X78955531Y-139738754D01*
X78938523Y-139670472D01*
X78924579Y-139600861D01*
X78913683Y-139529872D01*
X78905821Y-139457457D01*
X78900980Y-139383567D01*
X78899144Y-139308154D01*
X78900299Y-139231169D01*
X78904616Y-139145674D01*
X78911482Y-139062221D01*
X78920901Y-138980802D01*
X78932876Y-138901409D01*
X78947410Y-138824034D01*
X78964506Y-138748668D01*
X78984168Y-138675302D01*
X79006397Y-138603930D01*
X79031198Y-138534541D01*
X79058574Y-138467129D01*
X79088527Y-138401685D01*
X79121061Y-138338200D01*
X79156179Y-138276666D01*
X79193883Y-138217076D01*
X79234178Y-138159420D01*
X79277066Y-138103691D01*
X79288633Y-138089824D01*
X79301767Y-138074810D01*
X79331934Y-138042109D01*
X79365954Y-138007126D01*
X79402214Y-137971399D01*
X79439103Y-137936466D01*
X79475008Y-137903864D01*
X79508316Y-137875132D01*
X79523493Y-137862698D01*
X79537416Y-137851808D01*
X79590260Y-137813999D01*
X79645051Y-137778105D01*
X79701749Y-137744137D01*
X79760317Y-137712108D01*
X79820716Y-137682030D01*
X79882908Y-137653916D01*
X79946855Y-137627778D01*
X80012519Y-137603629D01*
X80079862Y-137581480D01*
X80148845Y-137561345D01*
X80219429Y-137543235D01*
X80291578Y-137527164D01*
X80365251Y-137513143D01*
X80440413Y-137501185D01*
X80517023Y-137491302D01*
X80595044Y-137483508D01*
X80642418Y-137480699D01*
X80704030Y-137478635D01*
X80775002Y-137477331D01*
X80850455Y-137476805D01*
X80925511Y-137477072D01*
X80995292Y-137478150D01*
X81054920Y-137480054D01*
X81099516Y-137482802D01*
X81255151Y-137502060D01*
X81405229Y-137530898D01*
X81478127Y-137548866D01*
X81549567Y-137569175D01*
X81619527Y-137591808D01*
X81687982Y-137616747D01*
X81754911Y-137643975D01*
X81820291Y-137673473D01*
X81884098Y-137705223D01*
X81946311Y-137739208D01*
X82006905Y-137775410D01*
X82065858Y-137813811D01*
X82123148Y-137854394D01*
X82178751Y-137897140D01*
X82232645Y-137942031D01*
X82284806Y-137989050D01*
X82335212Y-138038179D01*
X82383841Y-138089401D01*
X82430668Y-138142696D01*
X82475671Y-138198048D01*
X82518828Y-138255439D01*
X82560115Y-138314850D01*
X82599510Y-138376265D01*
X82636989Y-138439665D01*
X82672531Y-138505031D01*
X82706111Y-138572348D01*
X82737708Y-138641596D01*
X82767298Y-138712758D01*
X82820366Y-138860752D01*
X82831733Y-138896938D01*
X82843704Y-138937646D01*
X82855626Y-138980323D01*
X82866844Y-139022412D01*
X82876707Y-139061360D01*
X82884560Y-139094610D01*
X82889751Y-139119609D01*
X82891144Y-139128216D01*
X82891627Y-139133802D01*
X82889856Y-139135716D01*
X82884373Y-139138600D01*
X82861244Y-139147582D01*
X82759159Y-139180545D01*
X82568968Y-139237585D01*
X82274266Y-139323596D01*
X82034090Y-139393027D01*
X81837174Y-139449361D01*
X81703758Y-139486910D01*
X81667188Y-139496862D01*
X81654083Y-139499985D01*
X81652884Y-139497507D01*
X81650445Y-139491408D01*
X81642441Y-139469999D01*
X81631262Y-139439065D01*
X81618099Y-139401913D01*
X81587485Y-139318396D01*
X81556180Y-139240290D01*
X81524103Y-139167498D01*
X81491176Y-139099924D01*
X81457319Y-139037473D01*
X81422452Y-138980047D01*
X81404615Y-138953189D01*
X81386496Y-138927552D01*
X81368084Y-138903123D01*
X81349371Y-138879890D01*
X81330345Y-138857842D01*
X81310997Y-138836966D01*
X81291317Y-138817251D01*
X81271295Y-138798684D01*
X81250921Y-138781253D01*
X81230186Y-138764947D01*
X81209078Y-138749753D01*
X81187589Y-138735659D01*
X81165708Y-138722654D01*
X81143425Y-138710725D01*
X81120731Y-138699860D01*
X81097616Y-138690047D01*
X81074068Y-138681275D01*
X81050080Y-138673531D01*
X81025640Y-138666803D01*
X81000738Y-138661080D01*
X80984083Y-138657839D01*
X80966250Y-138654996D01*
X80947419Y-138652551D01*
X80927768Y-138650507D01*
X80886723Y-138647623D01*
X80844546Y-138646351D01*
X80802666Y-138646700D01*
X80762514Y-138648678D01*
X80743533Y-138650280D01*
X80725521Y-138652292D01*
X80708655Y-138654716D01*
X80693116Y-138657552D01*
X80647623Y-138668650D01*
X80604800Y-138682369D01*
X80564640Y-138698720D01*
X80527134Y-138717712D01*
X80509374Y-138728201D01*
X80492274Y-138739353D01*
X80475833Y-138751171D01*
X80460051Y-138763654D01*
X80444926Y-138776804D01*
X80430458Y-138790623D01*
X80416644Y-138805112D01*
X80403485Y-138820271D01*
X80390979Y-138836101D01*
X80379126Y-138852605D01*
X80367923Y-138869783D01*
X80357371Y-138887636D01*
X80338212Y-138925373D01*
X80321641Y-138965825D01*
X80307650Y-139009001D01*
X80296230Y-139054911D01*
X80287373Y-139103563D01*
X80281071Y-139154969D01*
X80279255Y-139176423D01*
X80278049Y-139196924D01*
X80277470Y-139216562D01*
X80277533Y-139235424D01*
X80278253Y-139253600D01*
X80279645Y-139271178D01*
X80281726Y-139288249D01*
X80284511Y-139304899D01*
X80288015Y-139321219D01*
X80292254Y-139337297D01*
X80297244Y-139353222D01*
X80302999Y-139369083D01*
X80309536Y-139384968D01*
X80316869Y-139400968D01*
X80325015Y-139417170D01*
X80333988Y-139433663D01*
X80345359Y-139452888D01*
X80358046Y-139472207D01*
X80372060Y-139491629D01*
X80387412Y-139511164D01*
X80404112Y-139530823D01*
X80422169Y-139550617D01*
X80441595Y-139570556D01*
X80462399Y-139590649D01*
X80484593Y-139610908D01*
X80508186Y-139631343D01*
X80533189Y-139651963D01*
X80559612Y-139672780D01*
X80587465Y-139693804D01*
X80616759Y-139715045D01*
X80647504Y-139736513D01*
X80679710Y-139758219D01*
X80725209Y-139787917D01*
X80770914Y-139816680D01*
X80819547Y-139846089D01*
X80873826Y-139877722D01*
X81010208Y-139953977D01*
X81201821Y-140058080D01*
X81332890Y-140128843D01*
X81445503Y-140190405D01*
X81542638Y-140244475D01*
X81627272Y-140292765D01*
X81702380Y-140336988D01*
X81770940Y-140378854D01*
X81835928Y-140420075D01*
X81900321Y-140462363D01*
X82022411Y-140547388D01*
X82136339Y-140633771D01*
X82242212Y-140721680D01*
X82340136Y-140811282D01*
X82430218Y-140902744D01*
X82512563Y-140996234D01*
X82587279Y-141091919D01*
X82654472Y-141189967D01*
X82714249Y-141290545D01*
X82766715Y-141393820D01*
X82811977Y-141499961D01*
X82850143Y-141609133D01*
X82881317Y-141721506D01*
X82905607Y-141837245D01*
X82923119Y-141956520D01*
X82933960Y-142079496D01*
X82936984Y-142155076D01*
X82937113Y-142233021D01*
X82934432Y-142312388D01*
X82929021Y-142392234D01*
X82920965Y-142471617D01*
X82910346Y-142549595D01*
X82897246Y-142625224D01*
X82881749Y-142697563D01*
X82845650Y-142828841D01*
X82800723Y-142954537D01*
X82747168Y-143074473D01*
X82685186Y-143188475D01*
X82614976Y-143296367D01*
X82536741Y-143397973D01*
X82450679Y-143493117D01*
X82356992Y-143581624D01*
X82255880Y-143663318D01*
X82147544Y-143738023D01*
X82032184Y-143805564D01*
X81910001Y-143865764D01*
X81781195Y-143918449D01*
X81645966Y-143963442D01*
X81504515Y-144000568D01*
X81357044Y-144029651D01*
X81250790Y-144044990D01*
X81141485Y-144056584D01*
X81030577Y-144064391D01*
X80919511Y-144068369D01*
X80809735Y-144068478D01*
X80702696Y-144064676D01*
X80599841Y-144056922D01*
X80550434Y-144051550D01*
X80502616Y-144045174D01*
X80387847Y-144025290D01*
X80276384Y-144000042D01*
X80168240Y-143969437D01*
X80063430Y-143933487D01*
X79961969Y-143892199D01*
X79863871Y-143845583D01*
X79769150Y-143793649D01*
X79677822Y-143736405D01*
X79589900Y-143673862D01*
X79505399Y-143606027D01*
X79424333Y-143532912D01*
X79346718Y-143454525D01*
X79272566Y-143370874D01*
X79201894Y-143281971D01*
X79134715Y-143187823D01*
X79071044Y-143088441D01*
X79047464Y-143047866D01*
X79020916Y-142999188D01*
X78992599Y-142944821D01*
X78963711Y-142887181D01*
X78935452Y-142828680D01*
X78909019Y-142771734D01*
X78885613Y-142718757D01*
X78866432Y-142672163D01*
X78839391Y-142600367D01*
X78811234Y-142519410D01*
X78783622Y-142434881D01*
X78758218Y-142352370D01*
X78743357Y-142300680D01*
X78939576Y-142300680D01*
X78939810Y-142304127D01*
X78940507Y-142308459D01*
X78941682Y-142313797D01*
X78943348Y-142320261D01*
X78945521Y-142327973D01*
X78951444Y-142347622D01*
X78959566Y-142373713D01*
X78977908Y-142430298D01*
X78997195Y-142486239D01*
X79017395Y-142541471D01*
X79038478Y-142595930D01*
X79060413Y-142649549D01*
X79083168Y-142702263D01*
X79106713Y-142754008D01*
X79131016Y-142804719D01*
X79156047Y-142854330D01*
X79181775Y-142902776D01*
X79208168Y-142949992D01*
X79235196Y-142995913D01*
X79262827Y-143040475D01*
X79291031Y-143083610D01*
X79319777Y-143125256D01*
X79349033Y-143165346D01*
X79410271Y-143242871D01*
X79474145Y-143315913D01*
X79540677Y-143384486D01*
X79609890Y-143448605D01*
X79681807Y-143508283D01*
X79756450Y-143563536D01*
X79833842Y-143614377D01*
X79914006Y-143660823D01*
X79996965Y-143702885D01*
X80082742Y-143740581D01*
X80171358Y-143773923D01*
X80262837Y-143802926D01*
X80357202Y-143827605D01*
X80454476Y-143847974D01*
X80554680Y-143864048D01*
X80657838Y-143875840D01*
X80713580Y-143879430D01*
X80781377Y-143881275D01*
X80857342Y-143881483D01*
X80937591Y-143880162D01*
X81018237Y-143877418D01*
X81095393Y-143873360D01*
X81165174Y-143868094D01*
X81223694Y-143861729D01*
X81306328Y-143849360D01*
X81386752Y-143834739D01*
X81464972Y-143817865D01*
X81540995Y-143798736D01*
X81614827Y-143777350D01*
X81686475Y-143753705D01*
X81755943Y-143727798D01*
X81823239Y-143699628D01*
X81888369Y-143669192D01*
X81951339Y-143636489D01*
X82012155Y-143601516D01*
X82070823Y-143564272D01*
X82127350Y-143524753D01*
X82181742Y-143482959D01*
X82234004Y-143438887D01*
X82284144Y-143392535D01*
X82330120Y-143346099D01*
X82373611Y-143298299D01*
X82414647Y-143249077D01*
X82453256Y-143198375D01*
X82489468Y-143146135D01*
X82523310Y-143092299D01*
X82554813Y-143036810D01*
X82584005Y-142979609D01*
X82610914Y-142920638D01*
X82635571Y-142859841D01*
X82658003Y-142797158D01*
X82678241Y-142732532D01*
X82696312Y-142665905D01*
X82712245Y-142597220D01*
X82726070Y-142526417D01*
X82737816Y-142453441D01*
X82740389Y-142432143D01*
X82742554Y-142406257D01*
X82745687Y-142343330D01*
X82747267Y-142269886D01*
X82747341Y-142191150D01*
X82745960Y-142112349D01*
X82743174Y-142038706D01*
X82739031Y-141975449D01*
X82733582Y-141927802D01*
X82726855Y-141889055D01*
X82718523Y-141847225D01*
X82708902Y-141803592D01*
X82698305Y-141759438D01*
X82687046Y-141716045D01*
X82675441Y-141674695D01*
X82663802Y-141636668D01*
X82652444Y-141603246D01*
X82641589Y-141574886D01*
X82629699Y-141545964D01*
X82616832Y-141516579D01*
X82603044Y-141486830D01*
X82588391Y-141456816D01*
X82572932Y-141426637D01*
X82539819Y-141366180D01*
X82504160Y-141306251D01*
X82466408Y-141247646D01*
X82446890Y-141219088D01*
X82427020Y-141191158D01*
X82406854Y-141163955D01*
X82386449Y-141137579D01*
X82372661Y-141120847D01*
X82356376Y-141102076D01*
X82317580Y-141059660D01*
X82272583Y-141012812D01*
X82223907Y-140964013D01*
X82174073Y-140915743D01*
X82125603Y-140870483D01*
X82081020Y-140830713D01*
X82042844Y-140798913D01*
X81955384Y-140731701D01*
X81868494Y-140668540D01*
X81777917Y-140606801D01*
X81679395Y-140543855D01*
X81568668Y-140477072D01*
X81441479Y-140403824D01*
X81293570Y-140321481D01*
X81120683Y-140227413D01*
X80946742Y-140132687D01*
X80801650Y-140051553D01*
X80738664Y-140015267D01*
X80681379Y-139981400D01*
X80629293Y-139949625D01*
X80581903Y-139919614D01*
X80538704Y-139891043D01*
X80499194Y-139863583D01*
X80462870Y-139836909D01*
X80429227Y-139810694D01*
X80397763Y-139784611D01*
X80367975Y-139758334D01*
X80339358Y-139731536D01*
X80311410Y-139703891D01*
X80284653Y-139676157D01*
X80259908Y-139648975D01*
X80237117Y-139622232D01*
X80216226Y-139595819D01*
X80197180Y-139569626D01*
X80179921Y-139543541D01*
X80164394Y-139517454D01*
X80150544Y-139491254D01*
X80138314Y-139464831D01*
X80127649Y-139438074D01*
X80118493Y-139410873D01*
X80110790Y-139383117D01*
X80104484Y-139354695D01*
X80099520Y-139325497D01*
X80095842Y-139295412D01*
X80093394Y-139264330D01*
X80091704Y-139215476D01*
X80092677Y-139166920D01*
X80096246Y-139118830D01*
X80102346Y-139071371D01*
X80110909Y-139024711D01*
X80121870Y-138979014D01*
X80135162Y-138934448D01*
X80150720Y-138891179D01*
X80168478Y-138849374D01*
X80188368Y-138809198D01*
X80210326Y-138770819D01*
X80234284Y-138734402D01*
X80260178Y-138700115D01*
X80287940Y-138668123D01*
X80317504Y-138638593D01*
X80332942Y-138624803D01*
X80348805Y-138611691D01*
X80395387Y-138578257D01*
X80445667Y-138548877D01*
X80499193Y-138523569D01*
X80555511Y-138502352D01*
X80614168Y-138485244D01*
X80674714Y-138472264D01*
X80736693Y-138463430D01*
X80799655Y-138458762D01*
X80863145Y-138458277D01*
X80926713Y-138461995D01*
X80989904Y-138469933D01*
X81052266Y-138482111D01*
X81113346Y-138498547D01*
X81172693Y-138519260D01*
X81229852Y-138544268D01*
X81284372Y-138573591D01*
X81300215Y-138583605D01*
X81317194Y-138595530D01*
X81335119Y-138609178D01*
X81353803Y-138624358D01*
X81373057Y-138640881D01*
X81392694Y-138658559D01*
X81412525Y-138677203D01*
X81432362Y-138696622D01*
X81452017Y-138716629D01*
X81471302Y-138737033D01*
X81490030Y-138757646D01*
X81508011Y-138778279D01*
X81525057Y-138798742D01*
X81540982Y-138818847D01*
X81555595Y-138838404D01*
X81568711Y-138857224D01*
X81590781Y-138892177D01*
X81613778Y-138931263D01*
X81637172Y-138973459D01*
X81660433Y-139017738D01*
X81683033Y-139063076D01*
X81704442Y-139108446D01*
X81724131Y-139152825D01*
X81741571Y-139195186D01*
X81745907Y-139206072D01*
X81749931Y-139215997D01*
X81753661Y-139224991D01*
X81757116Y-139233087D01*
X81760314Y-139240314D01*
X81763275Y-139246705D01*
X81764673Y-139249595D01*
X81766017Y-139252289D01*
X81767312Y-139254788D01*
X81768559Y-139257098D01*
X81769760Y-139259221D01*
X81770918Y-139261163D01*
X81772036Y-139262926D01*
X81773115Y-139264514D01*
X81774157Y-139265932D01*
X81775166Y-139267184D01*
X81776143Y-139268273D01*
X81777092Y-139269202D01*
X81778013Y-139269977D01*
X81778910Y-139270601D01*
X81779784Y-139271077D01*
X81780639Y-139271410D01*
X81781476Y-139271603D01*
X81782297Y-139271661D01*
X81783106Y-139271587D01*
X81783905Y-139271385D01*
X82221349Y-139144385D01*
X82526237Y-139055750D01*
X82621697Y-139027407D01*
X82648958Y-139019052D01*
X82660205Y-139015269D01*
X82661931Y-139014420D01*
X82663395Y-139013407D01*
X82664584Y-139012148D01*
X82665485Y-139010561D01*
X82666085Y-139008565D01*
X82666369Y-139006079D01*
X82666324Y-139003019D01*
X82665937Y-138999305D01*
X82665195Y-138994856D01*
X82664084Y-138989589D01*
X82660701Y-138976276D01*
X82655681Y-138958713D01*
X82648916Y-138936246D01*
X82634304Y-138890831D01*
X82618534Y-138845646D01*
X82601643Y-138800754D01*
X82583663Y-138756219D01*
X82564629Y-138712107D01*
X82544575Y-138668480D01*
X82523535Y-138625403D01*
X82501543Y-138582939D01*
X82478633Y-138541154D01*
X82454840Y-138500111D01*
X82430197Y-138459874D01*
X82404738Y-138420507D01*
X82378499Y-138382075D01*
X82351512Y-138344641D01*
X82323811Y-138308269D01*
X82295432Y-138273024D01*
X82282894Y-138258326D01*
X82268944Y-138242655D01*
X82237511Y-138209061D01*
X82202539Y-138173582D01*
X82165434Y-138137558D01*
X82127601Y-138102327D01*
X82090446Y-138069229D01*
X82055375Y-138039604D01*
X82039060Y-138026512D01*
X82023794Y-138014791D01*
X81978307Y-137981857D01*
X81931794Y-137950523D01*
X81884238Y-137920782D01*
X81835620Y-137892630D01*
X81785923Y-137866062D01*
X81735129Y-137841071D01*
X81683221Y-137817654D01*
X81630182Y-137795804D01*
X81575993Y-137775517D01*
X81520638Y-137756788D01*
X81464098Y-137739611D01*
X81406356Y-137723981D01*
X81347394Y-137709893D01*
X81287195Y-137697342D01*
X81225742Y-137686323D01*
X81163016Y-137676830D01*
X81116809Y-137672151D01*
X81054636Y-137668242D01*
X80981631Y-137665209D01*
X80902930Y-137663160D01*
X80823667Y-137662202D01*
X80748976Y-137662443D01*
X80683992Y-137663991D01*
X80633849Y-137666952D01*
X80472812Y-137685710D01*
X80395454Y-137698332D01*
X80320215Y-137713105D01*
X80247102Y-137730022D01*
X80176127Y-137749074D01*
X80107296Y-137770255D01*
X80040620Y-137793555D01*
X79976107Y-137818968D01*
X79913767Y-137846486D01*
X79853607Y-137876101D01*
X79795637Y-137907806D01*
X79739866Y-137941591D01*
X79686303Y-137977451D01*
X79634956Y-138015377D01*
X79585835Y-138055360D01*
X79538948Y-138097395D01*
X79494305Y-138141472D01*
X79451914Y-138187584D01*
X79411784Y-138235723D01*
X79373925Y-138285882D01*
X79338344Y-138338053D01*
X79305052Y-138392228D01*
X79274056Y-138448399D01*
X79245367Y-138506558D01*
X79218992Y-138566699D01*
X79194940Y-138628812D01*
X79173221Y-138692890D01*
X79153844Y-138758926D01*
X79136817Y-138826912D01*
X79122149Y-138896840D01*
X79109849Y-138968702D01*
X79102333Y-139022641D01*
X79096188Y-139076198D01*
X79091410Y-139129308D01*
X79087999Y-139181901D01*
X79085953Y-139233911D01*
X79085268Y-139285272D01*
X79085944Y-139335915D01*
X79087977Y-139385773D01*
X79091367Y-139434780D01*
X79096110Y-139482869D01*
X79102206Y-139529971D01*
X79109651Y-139576020D01*
X79118444Y-139620949D01*
X79128583Y-139664690D01*
X79140065Y-139707176D01*
X79152888Y-139748341D01*
X79167206Y-139789203D01*
X79183394Y-139830236D01*
X79201386Y-139871346D01*
X79221118Y-139912437D01*
X79242524Y-139953418D01*
X79265539Y-139994192D01*
X79290098Y-140034667D01*
X79316136Y-140074748D01*
X79343588Y-140114342D01*
X79372389Y-140153353D01*
X79402474Y-140191688D01*
X79433777Y-140229254D01*
X79466233Y-140265955D01*
X79499778Y-140301699D01*
X79534346Y-140336390D01*
X79569872Y-140369935D01*
X79653943Y-140443867D01*
X79740925Y-140514376D01*
X79834587Y-140583925D01*
X79938701Y-140654979D01*
X80057036Y-140730003D01*
X80193362Y-140811459D01*
X80351451Y-140901811D01*
X80535071Y-141003524D01*
X80740829Y-141117107D01*
X80822855Y-141163179D01*
X80893670Y-141203637D01*
X80955290Y-141239630D01*
X81009734Y-141272308D01*
X81059018Y-141302819D01*
X81105160Y-141332313D01*
X81165371Y-141372590D01*
X81221985Y-141412271D01*
X81275110Y-141451470D01*
X81324853Y-141490302D01*
X81371321Y-141528882D01*
X81414624Y-141567325D01*
X81454866Y-141605745D01*
X81492158Y-141644257D01*
X81526604Y-141682975D01*
X81558314Y-141722015D01*
X81587395Y-141761491D01*
X81613954Y-141801518D01*
X81638099Y-141842211D01*
X81659936Y-141883684D01*
X81679575Y-141926052D01*
X81697121Y-141969430D01*
X81706885Y-141997578D01*
X81715537Y-142026902D01*
X81723073Y-142057272D01*
X81729489Y-142088558D01*
X81734780Y-142120630D01*
X81738942Y-142153356D01*
X81741972Y-142186608D01*
X81743864Y-142220255D01*
X81744616Y-142254166D01*
X81744223Y-142288211D01*
X81742680Y-142322261D01*
X81739984Y-142356184D01*
X81736130Y-142389852D01*
X81731115Y-142423132D01*
X81724934Y-142455896D01*
X81717583Y-142488013D01*
X81698290Y-142553232D01*
X81674630Y-142615203D01*
X81646736Y-142673822D01*
X81614737Y-142728983D01*
X81578765Y-142780579D01*
X81538952Y-142828507D01*
X81495428Y-142872660D01*
X81448325Y-142912934D01*
X81397774Y-142949222D01*
X81343907Y-142981420D01*
X81286854Y-143009421D01*
X81226748Y-143033121D01*
X81163718Y-143052414D01*
X81097897Y-143067194D01*
X81029415Y-143077357D01*
X80958405Y-143082796D01*
X80914732Y-143083585D01*
X80871574Y-143082265D01*
X80828955Y-143078857D01*
X80786902Y-143073385D01*
X80745442Y-143065873D01*
X80704600Y-143056343D01*
X80664403Y-143044819D01*
X80624876Y-143031324D01*
X80586045Y-143015880D01*
X80547937Y-142998511D01*
X80510578Y-142979240D01*
X80473994Y-142958091D01*
X80438211Y-142935085D01*
X80403255Y-142910247D01*
X80369152Y-142883600D01*
X80335929Y-142855166D01*
X80303610Y-142824969D01*
X80272224Y-142793032D01*
X80241794Y-142759378D01*
X80212349Y-142724031D01*
X80156513Y-142648346D01*
X80104925Y-142566164D01*
X80057794Y-142477669D01*
X80015328Y-142383046D01*
X79977736Y-142282481D01*
X79945227Y-142176157D01*
X79940517Y-142158328D01*
X79935989Y-142141607D01*
X79931758Y-142126374D01*
X79927941Y-142113010D01*
X79924653Y-142101895D01*
X79922010Y-142093409D01*
X79920128Y-142087933D01*
X79919508Y-142086442D01*
X79919122Y-142085847D01*
X79454249Y-142182948D01*
X78949688Y-142291163D01*
X78944846Y-142292482D01*
X78942982Y-142293319D01*
X78941508Y-142294437D01*
X78940440Y-142295956D01*
X78939791Y-142297996D01*
X78939576Y-142300680D01*
X78743357Y-142300680D01*
X78736683Y-142277465D01*
X78720680Y-142215756D01*
G37*
G36*
X77077144Y-135155704D02*
G01*
X77119742Y-135157051D01*
X77159429Y-135159209D01*
X77193428Y-135162128D01*
X77207426Y-135163857D01*
X77218960Y-135165758D01*
X77249708Y-135172139D01*
X77280030Y-135179637D01*
X77309913Y-135188243D01*
X77339346Y-135197949D01*
X77368316Y-135208746D01*
X77396810Y-135220626D01*
X77424817Y-135233581D01*
X77452323Y-135247602D01*
X77479317Y-135262682D01*
X77505785Y-135278812D01*
X77531717Y-135295984D01*
X77557098Y-135314189D01*
X77581917Y-135333420D01*
X77606162Y-135353667D01*
X77629819Y-135374923D01*
X77652877Y-135397180D01*
X77672712Y-135417660D01*
X77691736Y-135438616D01*
X77709948Y-135460046D01*
X77727346Y-135481946D01*
X77743930Y-135504313D01*
X77759698Y-135527144D01*
X77774650Y-135550436D01*
X77788785Y-135574186D01*
X77802101Y-135598391D01*
X77814597Y-135623047D01*
X77826272Y-135648152D01*
X77837126Y-135673703D01*
X77847158Y-135699695D01*
X77856365Y-135726127D01*
X77864748Y-135752995D01*
X77872305Y-135780296D01*
X77878796Y-135807698D01*
X77884250Y-135836099D01*
X77888670Y-135865355D01*
X77892060Y-135895324D01*
X77894426Y-135925864D01*
X77895770Y-135956831D01*
X77896097Y-135988084D01*
X77895412Y-136019480D01*
X77893717Y-136050875D01*
X77891019Y-136082128D01*
X77887319Y-136113096D01*
X77882623Y-136143636D01*
X77876936Y-136173605D01*
X77870260Y-136202861D01*
X77862600Y-136231261D01*
X77853960Y-136258663D01*
X77845466Y-136282604D01*
X77836377Y-136306025D01*
X77826675Y-136328952D01*
X77816345Y-136351411D01*
X77805371Y-136373427D01*
X77793735Y-136395027D01*
X77781420Y-136416236D01*
X77768412Y-136437080D01*
X77754692Y-136457586D01*
X77740245Y-136477778D01*
X77725053Y-136497683D01*
X77709101Y-136517326D01*
X77692372Y-136536734D01*
X77674849Y-136555932D01*
X77656515Y-136574946D01*
X77637355Y-136593802D01*
X77609358Y-136619748D01*
X77580660Y-136644143D01*
X77551255Y-136666990D01*
X77521137Y-136688291D01*
X77490299Y-136708051D01*
X77458736Y-136726271D01*
X77426442Y-136742956D01*
X77393409Y-136758108D01*
X77359632Y-136771731D01*
X77325105Y-136783827D01*
X77289822Y-136794399D01*
X77253775Y-136803451D01*
X77216960Y-136810986D01*
X77179369Y-136817007D01*
X77140998Y-136821517D01*
X77101838Y-136824519D01*
X77058113Y-136825847D01*
X77014570Y-136824823D01*
X76971291Y-136821478D01*
X76928360Y-136815842D01*
X76885858Y-136807945D01*
X76843869Y-136797816D01*
X76802476Y-136785486D01*
X76761760Y-136770985D01*
X76721806Y-136754342D01*
X76682694Y-136735587D01*
X76644509Y-136714751D01*
X76607332Y-136691863D01*
X76571247Y-136666954D01*
X76536336Y-136640053D01*
X76502681Y-136611191D01*
X76470366Y-136580396D01*
X76440974Y-136549751D01*
X76413397Y-136518159D01*
X76387644Y-136485649D01*
X76363728Y-136452250D01*
X76341660Y-136417991D01*
X76321451Y-136382901D01*
X76303113Y-136347010D01*
X76286657Y-136310345D01*
X76272094Y-136272936D01*
X76259437Y-136234812D01*
X76248695Y-136196002D01*
X76239881Y-136156534D01*
X76233006Y-136116438D01*
X76228081Y-136075742D01*
X76225117Y-136034476D01*
X76224127Y-135992668D01*
X76224883Y-135956195D01*
X76227135Y-135920086D01*
X76230854Y-135884376D01*
X76236015Y-135849099D01*
X76242592Y-135814289D01*
X76250558Y-135779981D01*
X76259886Y-135746208D01*
X76270551Y-135713004D01*
X76282524Y-135680404D01*
X76295781Y-135648442D01*
X76310294Y-135617151D01*
X76326037Y-135586567D01*
X76342984Y-135556722D01*
X76361108Y-135527651D01*
X76380382Y-135499389D01*
X76400781Y-135471969D01*
X76422277Y-135445425D01*
X76444844Y-135419792D01*
X76468456Y-135395104D01*
X76493086Y-135371394D01*
X76518707Y-135348697D01*
X76545294Y-135327048D01*
X76572820Y-135306479D01*
X76601258Y-135287025D01*
X76630581Y-135268721D01*
X76660764Y-135251600D01*
X76691779Y-135235697D01*
X76723601Y-135221045D01*
X76756203Y-135207679D01*
X76789558Y-135195632D01*
X76823639Y-135184940D01*
X76858422Y-135175636D01*
X76881021Y-135170322D01*
X76902695Y-135165405D01*
X76912399Y-135163302D01*
X76920929Y-135161547D01*
X76927971Y-135160221D01*
X76933210Y-135159408D01*
X76945241Y-135158084D01*
X76959669Y-135157018D01*
X76994329Y-135155637D01*
X77034414Y-135155216D01*
X77077144Y-135155704D01*
G37*
G36*
X87068516Y-137560413D02*
G01*
X87068516Y-138802191D01*
X84994182Y-138802191D01*
X84994182Y-140051024D01*
X86574627Y-140051024D01*
X86574627Y-141285746D01*
X84994182Y-141285746D01*
X84994182Y-142746246D01*
X87153183Y-142746246D01*
X87153183Y-143980968D01*
X83618349Y-143980968D01*
X83618349Y-143797524D01*
X83801793Y-143797524D01*
X86969738Y-143797524D01*
X86969738Y-142929691D01*
X84810737Y-142929691D01*
X84810737Y-141102302D01*
X86391182Y-141102302D01*
X86391182Y-140234469D01*
X84810737Y-140234469D01*
X84810737Y-138611691D01*
X86885071Y-138611691D01*
X86885071Y-137743858D01*
X83801793Y-137743858D01*
X83801793Y-143797524D01*
X83618349Y-143797524D01*
X83618349Y-137560413D01*
X87068516Y-137560413D01*
G37*
G36*
X78411121Y-141395064D02*
G01*
X78425988Y-141396833D01*
X78440771Y-141399502D01*
X78455358Y-141403045D01*
X78469640Y-141407430D01*
X78483505Y-141412630D01*
X78496843Y-141418616D01*
X78509543Y-141425358D01*
X78521495Y-141432827D01*
X78532588Y-141440996D01*
X78537777Y-141445333D01*
X78542711Y-141449834D01*
X78547375Y-141454495D01*
X78551755Y-141459313D01*
X78560505Y-141469858D01*
X78568505Y-141480704D01*
X78575760Y-141491821D01*
X78582274Y-141503180D01*
X78588054Y-141514750D01*
X78593106Y-141526501D01*
X78597434Y-141538404D01*
X78601044Y-141550429D01*
X78603943Y-141562545D01*
X78606135Y-141574724D01*
X78607626Y-141586935D01*
X78608421Y-141599149D01*
X78608527Y-141611335D01*
X78607948Y-141623464D01*
X78606690Y-141635506D01*
X78604760Y-141647431D01*
X78602161Y-141659210D01*
X78598901Y-141670811D01*
X78594984Y-141682207D01*
X78590416Y-141693366D01*
X78585202Y-141704258D01*
X78579349Y-141714855D01*
X78572861Y-141725126D01*
X78565745Y-141735042D01*
X78558005Y-141744571D01*
X78549648Y-141753686D01*
X78540678Y-141762355D01*
X78531102Y-141770549D01*
X78520925Y-141778239D01*
X78510153Y-141785393D01*
X78498790Y-141791983D01*
X78486844Y-141797979D01*
X78476909Y-141802196D01*
X78466468Y-141805851D01*
X78455593Y-141808943D01*
X78444356Y-141811473D01*
X78432830Y-141813441D01*
X78421086Y-141814847D01*
X78409198Y-141815690D01*
X78397238Y-141815971D01*
X78385278Y-141815690D01*
X78373390Y-141814847D01*
X78361646Y-141813441D01*
X78350120Y-141811473D01*
X78338883Y-141808943D01*
X78328008Y-141805851D01*
X78317567Y-141802196D01*
X78307633Y-141797979D01*
X78300998Y-141794533D01*
X78293877Y-141790352D01*
X78286397Y-141785544D01*
X78278683Y-141780219D01*
X78270861Y-141774485D01*
X78263058Y-141768450D01*
X78255400Y-141762222D01*
X78248013Y-141755911D01*
X78241023Y-141749624D01*
X78234555Y-141743471D01*
X78228737Y-141737560D01*
X78223693Y-141731999D01*
X78219551Y-141726897D01*
X78217858Y-141724552D01*
X78216437Y-141722363D01*
X78215304Y-141720342D01*
X78214475Y-141718504D01*
X78213967Y-141716862D01*
X78213794Y-141715430D01*
X78213070Y-141714777D01*
X78210945Y-141714144D01*
X78202780Y-141712949D01*
X78189869Y-141711870D01*
X78172783Y-141710932D01*
X78152092Y-141710159D01*
X78128366Y-141709576D01*
X78074094Y-141709080D01*
X77934394Y-141709080D01*
X77678983Y-142031518D01*
X77423572Y-142354663D01*
X77423572Y-143146296D01*
X77441916Y-143156174D01*
X77447727Y-143159626D01*
X77453744Y-143163848D01*
X77459907Y-143168767D01*
X77466158Y-143174309D01*
X77472439Y-143180401D01*
X77478689Y-143186969D01*
X77484850Y-143193940D01*
X77490864Y-143201241D01*
X77496671Y-143208799D01*
X77502212Y-143216539D01*
X77507429Y-143224389D01*
X77512262Y-143232275D01*
X77516653Y-143240123D01*
X77520543Y-143247861D01*
X77523872Y-143255416D01*
X77526583Y-143262712D01*
X77529494Y-143272840D01*
X77531883Y-143283573D01*
X77533754Y-143294807D01*
X77535115Y-143306435D01*
X77535972Y-143318353D01*
X77536331Y-143330454D01*
X77536198Y-143342635D01*
X77535579Y-143354788D01*
X77534480Y-143366809D01*
X77532908Y-143378592D01*
X77530869Y-143390032D01*
X77528369Y-143401024D01*
X77525414Y-143411461D01*
X77522010Y-143421240D01*
X77518165Y-143430253D01*
X77513883Y-143438396D01*
X77505714Y-143451352D01*
X77497083Y-143463494D01*
X77487991Y-143474820D01*
X77478440Y-143485326D01*
X77468429Y-143495010D01*
X77457961Y-143503868D01*
X77447035Y-143511897D01*
X77435654Y-143519094D01*
X77423818Y-143525456D01*
X77411529Y-143530980D01*
X77398787Y-143535662D01*
X77385593Y-143539500D01*
X77371948Y-143542491D01*
X77357854Y-143544631D01*
X77343312Y-143545917D01*
X77328321Y-143546346D01*
X77317037Y-143546084D01*
X77305946Y-143545303D01*
X77295058Y-143544015D01*
X77284385Y-143542230D01*
X77273939Y-143539961D01*
X77263729Y-143537217D01*
X77253766Y-143534010D01*
X77244063Y-143530350D01*
X77234629Y-143526249D01*
X77225476Y-143521718D01*
X77216615Y-143516768D01*
X77208056Y-143511409D01*
X77199811Y-143505653D01*
X77191891Y-143499510D01*
X77184306Y-143492992D01*
X77177068Y-143486109D01*
X77170188Y-143478873D01*
X77163676Y-143471295D01*
X77157543Y-143463385D01*
X77151802Y-143455154D01*
X77146462Y-143446614D01*
X77141534Y-143437776D01*
X77137030Y-143428650D01*
X77132960Y-143419247D01*
X77129336Y-143409578D01*
X77126168Y-143399655D01*
X77123467Y-143389489D01*
X77121245Y-143379089D01*
X77119512Y-143368468D01*
X77118280Y-143357637D01*
X77117559Y-143346605D01*
X77117360Y-143335385D01*
X77117634Y-143323130D01*
X77118457Y-143311228D01*
X77119835Y-143299669D01*
X77121770Y-143288443D01*
X77124268Y-143277540D01*
X77127332Y-143266949D01*
X77130967Y-143256659D01*
X77135176Y-143246661D01*
X77139964Y-143236945D01*
X77145335Y-143227498D01*
X77151293Y-143218313D01*
X77157842Y-143209377D01*
X77164986Y-143200682D01*
X77172730Y-143192215D01*
X77181078Y-143183968D01*
X77190033Y-143175930D01*
X77226016Y-143144885D01*
X77226016Y-142279168D01*
X77531522Y-141892524D01*
X77836321Y-141505174D01*
X78023294Y-141504468D01*
X78210266Y-141503763D01*
X78229316Y-141476246D01*
X78233901Y-141469957D01*
X78238907Y-141463800D01*
X78244310Y-141457791D01*
X78250086Y-141451949D01*
X78256208Y-141446287D01*
X78262653Y-141440825D01*
X78269396Y-141435577D01*
X78276412Y-141430561D01*
X78283675Y-141425793D01*
X78291162Y-141421290D01*
X78298847Y-141417068D01*
X78306706Y-141413143D01*
X78314714Y-141409533D01*
X78322846Y-141406253D01*
X78331077Y-141403321D01*
X78339383Y-141400752D01*
X78346133Y-141399034D01*
X78353015Y-141397580D01*
X78367116Y-141395455D01*
X78381574Y-141394346D01*
X78396279Y-141394225D01*
X78411121Y-141395064D01*
G37*
G36*
X76224127Y-140495524D02*
G01*
X76224127Y-140269746D01*
X76478127Y-140269746D01*
X76675683Y-140269746D01*
X77444738Y-140269746D01*
X77444738Y-139895802D01*
X76675683Y-139895802D01*
X76675683Y-140269746D01*
X76478127Y-140269746D01*
X76478127Y-139895802D01*
X76224127Y-139895802D01*
X76224127Y-139670024D01*
X76478127Y-139670024D01*
X76675683Y-139670024D01*
X77444738Y-139670024D01*
X77444738Y-139296080D01*
X76675683Y-139296080D01*
X76675683Y-139670024D01*
X76478127Y-139670024D01*
X76478127Y-139296080D01*
X76224127Y-139296080D01*
X76224127Y-139077357D01*
X76478127Y-139077357D01*
X76675683Y-139077357D01*
X77444738Y-139077357D01*
X77444738Y-138703413D01*
X76675683Y-138703413D01*
X76675683Y-139077357D01*
X76478127Y-139077357D01*
X76478127Y-138703413D01*
X76224127Y-138703413D01*
X76224127Y-138477635D01*
X76478127Y-138477635D01*
X76675683Y-138477635D01*
X77444738Y-138477635D01*
X77444738Y-138103691D01*
X76675683Y-138103691D01*
X76675683Y-138477635D01*
X76478127Y-138477635D01*
X76478127Y-138103691D01*
X76224127Y-138103691D01*
X76224127Y-137884969D01*
X76478127Y-137884969D01*
X76478127Y-137532191D01*
X76675683Y-137532191D01*
X76675683Y-137884969D01*
X77444738Y-137884969D01*
X77444738Y-137532191D01*
X77642294Y-137532191D01*
X77642294Y-137884969D01*
X77896294Y-137884969D01*
X77896294Y-138103691D01*
X77642294Y-138103691D01*
X77642294Y-138477635D01*
X77896294Y-138477635D01*
X77896294Y-138703413D01*
X77642294Y-138703413D01*
X77642294Y-139077357D01*
X77896294Y-139077357D01*
X77896294Y-139296080D01*
X77642294Y-139296080D01*
X77642294Y-139670024D01*
X77896294Y-139670024D01*
X77896294Y-139895802D01*
X77642294Y-139895802D01*
X77642294Y-140269746D01*
X77896294Y-140269746D01*
X77896294Y-140495524D01*
X77642294Y-140495524D01*
X77642294Y-140862413D01*
X77896294Y-140862413D01*
X77896294Y-141095247D01*
X77642294Y-141095247D01*
X77642294Y-141424035D01*
X77250710Y-141918629D01*
X76859127Y-142413929D01*
X76859127Y-143525885D01*
X77130766Y-143797524D01*
X77797516Y-143797524D01*
X77797516Y-143212618D01*
X77797488Y-143022351D01*
X77797423Y-142945018D01*
X77797295Y-142878461D01*
X77797202Y-142848968D01*
X77797085Y-142821863D01*
X77796943Y-142797043D01*
X77796772Y-142774406D01*
X77796570Y-142753851D01*
X77796334Y-142735274D01*
X77796063Y-142718574D01*
X77795752Y-142703648D01*
X77795400Y-142690395D01*
X77795004Y-142678711D01*
X77794562Y-142668496D01*
X77794323Y-142663906D01*
X77794071Y-142659646D01*
X77793806Y-142655701D01*
X77793528Y-142652060D01*
X77793236Y-142648708D01*
X77792930Y-142645635D01*
X77792611Y-142642826D01*
X77792276Y-142640269D01*
X77791927Y-142637951D01*
X77791563Y-142635860D01*
X77791183Y-142633982D01*
X77790787Y-142632305D01*
X77790375Y-142630817D01*
X77789947Y-142629504D01*
X77789502Y-142628353D01*
X77789040Y-142627352D01*
X77788560Y-142626489D01*
X77788063Y-142625749D01*
X77787547Y-142625121D01*
X77787013Y-142624592D01*
X77786460Y-142624149D01*
X77785889Y-142623778D01*
X77785298Y-142623469D01*
X77784687Y-142623207D01*
X77783405Y-142622774D01*
X77781075Y-142621882D01*
X77778593Y-142620670D01*
X77773218Y-142617349D01*
X77767381Y-142612934D01*
X77761180Y-142607549D01*
X77754714Y-142601317D01*
X77748083Y-142594360D01*
X77741386Y-142586802D01*
X77734722Y-142578765D01*
X77728190Y-142570372D01*
X77721889Y-142561747D01*
X77715920Y-142553013D01*
X77710380Y-142544292D01*
X77705369Y-142535707D01*
X77700987Y-142527382D01*
X77697333Y-142519439D01*
X77694505Y-142512002D01*
X77691478Y-142501852D01*
X77689006Y-142491289D01*
X77687085Y-142480381D01*
X77685707Y-142469195D01*
X77684867Y-142457798D01*
X77684558Y-142446257D01*
X77684774Y-142434640D01*
X77685509Y-142423014D01*
X77686756Y-142411445D01*
X77688510Y-142400002D01*
X77690764Y-142388751D01*
X77693513Y-142377759D01*
X77696749Y-142367094D01*
X77700466Y-142356822D01*
X77704659Y-142347012D01*
X77709321Y-142337730D01*
X77713850Y-142329646D01*
X77718462Y-142322040D01*
X77723192Y-142314880D01*
X77728074Y-142308129D01*
X77733142Y-142301755D01*
X77738430Y-142295723D01*
X77743972Y-142289998D01*
X77749803Y-142284548D01*
X77755956Y-142279337D01*
X77762465Y-142274333D01*
X77769366Y-142269499D01*
X77776691Y-142264803D01*
X77784475Y-142260211D01*
X77792752Y-142255688D01*
X77801556Y-142251200D01*
X77810921Y-142246713D01*
X77822249Y-142241737D01*
X77827410Y-142239667D01*
X77832353Y-142237860D01*
X77837163Y-142236306D01*
X77841927Y-142234992D01*
X77846733Y-142233908D01*
X77851667Y-142233043D01*
X77856816Y-142232383D01*
X77862267Y-142231919D01*
X77868107Y-142231640D01*
X77874422Y-142231532D01*
X77881299Y-142231586D01*
X77888825Y-142231790D01*
X77906171Y-142232601D01*
X77918228Y-142233399D01*
X77929565Y-142234484D01*
X77940241Y-142235879D01*
X77950313Y-142237606D01*
X77959839Y-142239690D01*
X77968878Y-142242151D01*
X77977486Y-142245014D01*
X77985723Y-142248300D01*
X77993645Y-142252033D01*
X78001311Y-142256235D01*
X78008779Y-142260929D01*
X78016106Y-142266138D01*
X78023350Y-142271884D01*
X78030570Y-142278190D01*
X78037822Y-142285079D01*
X78045166Y-142292574D01*
X78053032Y-142301066D01*
X78060242Y-142309384D01*
X78066814Y-142317585D01*
X78072771Y-142325724D01*
X78078132Y-142333859D01*
X78082919Y-142342047D01*
X78087151Y-142350344D01*
X78090851Y-142358808D01*
X78094037Y-142367495D01*
X78096732Y-142376462D01*
X78098956Y-142385766D01*
X78100728Y-142395464D01*
X78102071Y-142405612D01*
X78103005Y-142416268D01*
X78103550Y-142427488D01*
X78103727Y-142439329D01*
X78103577Y-142452842D01*
X78102859Y-142465869D01*
X78101566Y-142478423D01*
X78099692Y-142490515D01*
X78097231Y-142502157D01*
X78094177Y-142513359D01*
X78090524Y-142524134D01*
X78086264Y-142534492D01*
X78081393Y-142544444D01*
X78078727Y-142549272D01*
X78075904Y-142554003D01*
X78072926Y-142558639D01*
X78069791Y-142563180D01*
X78063047Y-142571985D01*
X78055667Y-142580431D01*
X78047644Y-142588529D01*
X78038971Y-142596289D01*
X78029644Y-142603724D01*
X77995777Y-142629830D01*
X77995777Y-143312101D01*
X77995071Y-143995079D01*
X77046099Y-143995079D01*
X76854188Y-143803169D01*
X76661572Y-143610552D01*
X76661572Y-142337730D01*
X77053155Y-141842430D01*
X77444738Y-141347835D01*
X77444738Y-141095247D01*
X76675683Y-141095247D01*
X76675683Y-141417685D01*
X76674977Y-141740829D01*
X76548683Y-141899579D01*
X76422388Y-142058329D01*
X76421683Y-143003774D01*
X76421683Y-143949218D01*
X76456960Y-143979558D01*
X76466505Y-143988030D01*
X76475306Y-143996539D01*
X76483382Y-144005120D01*
X76490750Y-144013810D01*
X76497427Y-144022644D01*
X76503432Y-144031659D01*
X76508781Y-144040892D01*
X76513493Y-144050377D01*
X76517585Y-144060152D01*
X76521074Y-144070253D01*
X76523978Y-144080715D01*
X76526314Y-144091575D01*
X76528101Y-144102869D01*
X76529356Y-144114634D01*
X76530096Y-144126905D01*
X76530338Y-144139718D01*
X76530417Y-144156257D01*
X76530293Y-144163553D01*
X76530041Y-144170300D01*
X76529643Y-144176576D01*
X76529086Y-144182457D01*
X76528352Y-144188020D01*
X76527428Y-144193341D01*
X76526297Y-144198496D01*
X76524943Y-144203563D01*
X76523352Y-144208617D01*
X76521508Y-144213735D01*
X76519395Y-144218994D01*
X76516997Y-144224470D01*
X76514300Y-144230239D01*
X76511288Y-144236379D01*
X76503964Y-144250111D01*
X76496017Y-144262994D01*
X76487454Y-144275022D01*
X76478281Y-144286187D01*
X76468505Y-144296484D01*
X76458132Y-144305907D01*
X76447167Y-144314449D01*
X76435617Y-144322104D01*
X76423489Y-144328867D01*
X76410788Y-144334730D01*
X76397521Y-144339688D01*
X76383693Y-144343734D01*
X76369311Y-144346863D01*
X76354382Y-144349067D01*
X76338911Y-144350341D01*
X76322905Y-144350679D01*
X76310317Y-144350446D01*
X76298199Y-144349737D01*
X76286529Y-144348540D01*
X76275280Y-144346843D01*
X76264428Y-144344633D01*
X76253948Y-144341898D01*
X76243815Y-144338626D01*
X76234005Y-144334804D01*
X76224492Y-144330420D01*
X76215253Y-144325461D01*
X76206261Y-144319915D01*
X76197492Y-144313770D01*
X76188922Y-144307013D01*
X76180526Y-144299631D01*
X76172278Y-144291613D01*
X76164155Y-144282946D01*
X76156786Y-144274358D01*
X76150019Y-144265768D01*
X76143843Y-144257140D01*
X76138248Y-144248440D01*
X76133223Y-144239633D01*
X76128759Y-144230683D01*
X76124844Y-144221555D01*
X76121469Y-144212214D01*
X76118623Y-144202626D01*
X76116296Y-144192754D01*
X76114477Y-144182563D01*
X76113157Y-144172020D01*
X76112324Y-144161087D01*
X76111969Y-144149731D01*
X76112081Y-144137916D01*
X76112649Y-144125607D01*
X76113707Y-144113718D01*
X76115291Y-144102131D01*
X76117398Y-144090850D01*
X76120025Y-144079879D01*
X76123168Y-144069221D01*
X76126825Y-144058883D01*
X76130993Y-144048866D01*
X76135668Y-144039177D01*
X76140848Y-144029818D01*
X76146528Y-144020794D01*
X76152707Y-144012108D01*
X76159381Y-144003767D01*
X76166547Y-143995772D01*
X76174202Y-143988129D01*
X76182343Y-143980841D01*
X76190966Y-143973913D01*
X76224127Y-143949218D01*
X76224127Y-143437690D01*
X75860766Y-143437690D01*
X75829722Y-143473674D01*
X75820017Y-143484297D01*
X75809846Y-143494079D01*
X75799247Y-143503024D01*
X75788258Y-143511139D01*
X75776917Y-143518428D01*
X75765262Y-143524897D01*
X75753331Y-143530552D01*
X75741163Y-143535399D01*
X75728796Y-143539443D01*
X75716267Y-143542689D01*
X75703615Y-143545143D01*
X75690877Y-143546811D01*
X75678093Y-143547698D01*
X75665300Y-143547809D01*
X75652536Y-143547151D01*
X75639839Y-143545729D01*
X75627248Y-143543548D01*
X75614800Y-143540614D01*
X75602534Y-143536933D01*
X75590487Y-143532509D01*
X75578699Y-143527350D01*
X75567206Y-143521459D01*
X75556048Y-143514843D01*
X75545261Y-143507508D01*
X75534886Y-143499458D01*
X75524958Y-143490700D01*
X75515517Y-143481238D01*
X75506601Y-143471079D01*
X75498247Y-143460228D01*
X75490494Y-143448691D01*
X75483381Y-143436473D01*
X75476944Y-143423580D01*
X75473605Y-143415981D01*
X75470599Y-143408274D01*
X75467923Y-143400469D01*
X75465575Y-143392579D01*
X75463553Y-143384615D01*
X75461853Y-143376587D01*
X75460475Y-143368508D01*
X75459415Y-143360388D01*
X75458242Y-143344074D01*
X75458316Y-143327734D01*
X75459617Y-143311461D01*
X75462127Y-143295345D01*
X75465828Y-143279477D01*
X75470701Y-143263948D01*
X75476728Y-143248849D01*
X75483889Y-143234270D01*
X75487890Y-143227205D01*
X75492167Y-143220304D01*
X75496718Y-143213579D01*
X75501542Y-143207040D01*
X75506635Y-143200700D01*
X75511996Y-143194570D01*
X75517622Y-143188662D01*
X75523511Y-143182985D01*
X75531870Y-143175615D01*
X75540048Y-143168841D01*
X75548097Y-143162645D01*
X75556065Y-143157012D01*
X75564005Y-143151924D01*
X75571966Y-143147365D01*
X75580000Y-143143319D01*
X75588157Y-143139770D01*
X75596487Y-143136699D01*
X75605042Y-143134092D01*
X75613872Y-143131931D01*
X75623027Y-143130201D01*
X75632558Y-143128883D01*
X75642517Y-143127963D01*
X75652952Y-143127422D01*
X75663916Y-143127246D01*
X75677156Y-143127432D01*
X75689665Y-143128010D01*
X75701506Y-143129004D01*
X75712743Y-143130443D01*
X75723438Y-143132353D01*
X75733654Y-143134762D01*
X75743456Y-143137695D01*
X75752904Y-143141181D01*
X75762064Y-143145245D01*
X75770997Y-143149915D01*
X75779766Y-143155217D01*
X75788436Y-143161179D01*
X75797068Y-143167827D01*
X75805726Y-143175188D01*
X75814473Y-143183289D01*
X75823372Y-143192157D01*
X75864294Y-143233079D01*
X76224127Y-143233079D01*
X76224127Y-142830913D01*
X75567961Y-142830913D01*
X75567961Y-142425219D01*
X75531977Y-142394174D01*
X75520651Y-142383836D01*
X75510229Y-142372952D01*
X75500720Y-142361556D01*
X75492135Y-142349680D01*
X75484485Y-142337357D01*
X75477779Y-142324622D01*
X75472028Y-142311505D01*
X75467242Y-142298042D01*
X75463433Y-142284264D01*
X75460609Y-142270206D01*
X75458781Y-142255899D01*
X75457960Y-142241377D01*
X75458156Y-142226673D01*
X75459379Y-142211821D01*
X75461640Y-142196853D01*
X75464949Y-142181802D01*
X75470309Y-142163625D01*
X75476839Y-142146418D01*
X75480531Y-142138187D01*
X75484502Y-142130210D01*
X75488746Y-142122489D01*
X75493260Y-142115028D01*
X75498038Y-142107830D01*
X75503076Y-142100900D01*
X75508370Y-142094240D01*
X75513914Y-142087854D01*
X75519704Y-142081746D01*
X75525735Y-142075918D01*
X75532003Y-142070376D01*
X75538504Y-142065121D01*
X75545231Y-142060157D01*
X75552181Y-142055489D01*
X75559350Y-142051119D01*
X75566731Y-142047050D01*
X75574322Y-142043288D01*
X75582116Y-142039834D01*
X75590111Y-142036692D01*
X75598299Y-142033867D01*
X75606678Y-142031360D01*
X75615243Y-142029177D01*
X75632910Y-142025793D01*
X75651264Y-142023742D01*
X75670266Y-142023052D01*
X75678164Y-142023246D01*
X75685978Y-142023693D01*
X75693706Y-142024393D01*
X75701344Y-142025341D01*
X75708886Y-142026535D01*
X75716328Y-142027974D01*
X75723668Y-142029654D01*
X75730900Y-142031574D01*
X75738020Y-142033730D01*
X75745025Y-142036120D01*
X75751909Y-142038742D01*
X75758670Y-142041593D01*
X75765302Y-142044672D01*
X75771803Y-142047974D01*
X75778166Y-142051499D01*
X75784390Y-142055243D01*
X75790468Y-142059204D01*
X75796398Y-142063380D01*
X75802175Y-142067767D01*
X75807794Y-142072365D01*
X75813253Y-142077170D01*
X75818546Y-142082179D01*
X75823669Y-142087391D01*
X75828619Y-142092803D01*
X75833391Y-142098412D01*
X75837982Y-142104216D01*
X75842386Y-142110212D01*
X75846600Y-142116399D01*
X75850620Y-142122773D01*
X75854441Y-142129332D01*
X75858060Y-142136074D01*
X75861472Y-142142996D01*
X75865093Y-142151424D01*
X75868283Y-142160514D01*
X75871042Y-142170182D01*
X75873367Y-142180347D01*
X75875258Y-142190924D01*
X75876714Y-142201833D01*
X75877734Y-142212989D01*
X75878317Y-142224311D01*
X75878461Y-142235716D01*
X75878167Y-142247121D01*
X75877432Y-142258443D01*
X75876255Y-142269599D01*
X75874637Y-142280508D01*
X75872574Y-142291086D01*
X75870068Y-142301250D01*
X75867116Y-142310919D01*
X75864476Y-142317780D01*
X75861113Y-142325063D01*
X75857114Y-142332660D01*
X75852564Y-142340464D01*
X75847551Y-142348367D01*
X75842163Y-142356261D01*
X75836484Y-142364040D01*
X75830604Y-142371596D01*
X75824607Y-142378821D01*
X75818582Y-142385608D01*
X75812614Y-142391849D01*
X75806791Y-142397437D01*
X75801200Y-142402264D01*
X75795927Y-142406223D01*
X75793437Y-142407844D01*
X75791059Y-142409207D01*
X75788804Y-142410299D01*
X75786683Y-142411107D01*
X75784315Y-142411957D01*
X75782228Y-142413008D01*
X75780403Y-142414395D01*
X75778822Y-142416256D01*
X75777470Y-142418723D01*
X75776327Y-142421934D01*
X75775376Y-142426024D01*
X75774600Y-142431127D01*
X75773981Y-142437380D01*
X75773502Y-142444917D01*
X75772891Y-142464388D01*
X75772628Y-142490621D01*
X75772572Y-142524702D01*
X75772572Y-142633358D01*
X76224127Y-142633358D01*
X76224127Y-141982835D01*
X76351127Y-141823380D01*
X76478127Y-141663218D01*
X76478127Y-141095247D01*
X76224127Y-141095247D01*
X76224127Y-140862413D01*
X76478127Y-140862413D01*
X76675683Y-140862413D01*
X77444738Y-140862413D01*
X77444738Y-140495524D01*
X76675683Y-140495524D01*
X76675683Y-140862413D01*
X76478127Y-140862413D01*
X76478127Y-140495524D01*
X76224127Y-140495524D01*
G37*
D11*
X76592857Y-117558428D02*
X76592857Y-119058428D01*
X76235714Y-119058428D01*
X76021428Y-118987000D01*
X75878571Y-118844142D01*
X75807142Y-118701285D01*
X75735714Y-118415571D01*
X75735714Y-118201285D01*
X75807142Y-117915571D01*
X75878571Y-117772714D01*
X76021428Y-117629857D01*
X76235714Y-117558428D01*
X76592857Y-117558428D01*
D12*
X103759000Y-130211285D02*
X103759000Y-126582714D01*
X105936142Y-130937000D02*
X98316142Y-128397000D01*
X105936142Y-125857000D01*
D11*
X48727714Y-123090857D02*
X48513428Y-123019428D01*
X48156285Y-123019428D01*
X48013428Y-123090857D01*
X47941999Y-123162285D01*
X47870571Y-123305142D01*
X47870571Y-123448000D01*
X47941999Y-123590857D01*
X48013428Y-123662285D01*
X48156285Y-123733714D01*
X48441999Y-123805142D01*
X48584857Y-123876571D01*
X48656285Y-123948000D01*
X48727714Y-124090857D01*
X48727714Y-124233714D01*
X48656285Y-124376571D01*
X48584857Y-124448000D01*
X48441999Y-124519428D01*
X48084857Y-124519428D01*
X47870571Y-124448000D01*
X47227714Y-123019428D02*
X47227714Y-124519428D01*
X45727714Y-124448000D02*
X45870571Y-124519428D01*
X46084857Y-124519428D01*
X46299142Y-124448000D01*
X46441999Y-124305142D01*
X46513428Y-124162285D01*
X46584857Y-123876571D01*
X46584857Y-123662285D01*
X46513428Y-123376571D01*
X46441999Y-123233714D01*
X46299142Y-123090857D01*
X46084857Y-123019428D01*
X45941999Y-123019428D01*
X45727714Y-123090857D01*
X45656285Y-123162285D01*
X45656285Y-123662285D01*
X45941999Y-123662285D01*
X45013428Y-123019428D02*
X45013428Y-124519428D01*
X44156285Y-123019428D01*
X44156285Y-124519428D01*
X43513428Y-123448000D02*
X42799142Y-123448000D01*
X43656285Y-123019428D02*
X43156285Y-124519428D01*
X42656285Y-123019428D01*
X41442000Y-123019428D02*
X42156285Y-123019428D01*
X42156285Y-124519428D01*
X39870571Y-123448000D02*
X39156285Y-123448000D01*
X40013428Y-123019428D02*
X39513428Y-124519428D01*
X39013428Y-123019428D01*
D13*
X54918428Y-148082000D02*
X55281285Y-148082000D01*
X55136142Y-148444857D02*
X55281285Y-148082000D01*
X55136142Y-147719142D01*
X55571571Y-148299714D02*
X55281285Y-148082000D01*
X55571571Y-147864285D01*
X53902428Y-183134000D02*
X54265285Y-183134000D01*
X54120142Y-183496857D02*
X54265285Y-183134000D01*
X54120142Y-182771142D01*
X54555571Y-183351714D02*
X54265285Y-183134000D01*
X54555571Y-182916285D01*
D11*
X26499428Y-174208714D02*
X27999428Y-174208714D01*
X27999428Y-174780142D01*
X27928000Y-174923000D01*
X27856571Y-174994428D01*
X27713714Y-175065857D01*
X27499428Y-175065857D01*
X27356571Y-174994428D01*
X27285142Y-174923000D01*
X27213714Y-174780142D01*
X27213714Y-174208714D01*
X27999428Y-175994428D02*
X27999428Y-176280142D01*
X27928000Y-176423000D01*
X27785142Y-176565857D01*
X27499428Y-176637285D01*
X26999428Y-176637285D01*
X26713714Y-176565857D01*
X26570857Y-176423000D01*
X26499428Y-176280142D01*
X26499428Y-175994428D01*
X26570857Y-175851571D01*
X26713714Y-175708714D01*
X26999428Y-175637285D01*
X27499428Y-175637285D01*
X27785142Y-175708714D01*
X27928000Y-175851571D01*
X27999428Y-175994428D01*
X27999428Y-177137285D02*
X26499428Y-177494428D01*
X27570857Y-177780142D01*
X26499428Y-178065857D01*
X27999428Y-178423000D01*
X27285142Y-178994428D02*
X27285142Y-179494428D01*
X26499428Y-179708714D02*
X26499428Y-178994428D01*
X27999428Y-178994428D01*
X27999428Y-179708714D01*
X26499428Y-181208714D02*
X27213714Y-180708714D01*
X26499428Y-180351571D02*
X27999428Y-180351571D01*
X27999428Y-180923000D01*
X27928000Y-181065857D01*
X27856571Y-181137285D01*
X27713714Y-181208714D01*
X27499428Y-181208714D01*
X27356571Y-181137285D01*
X27285142Y-181065857D01*
X27213714Y-180923000D01*
X27213714Y-180351571D01*
X26697857Y-151317142D02*
X26626428Y-151531428D01*
X26626428Y-151888571D01*
X26697857Y-152031428D01*
X26769285Y-152102857D01*
X26912142Y-152174285D01*
X27055000Y-152174285D01*
X27197857Y-152102857D01*
X27269285Y-152031428D01*
X27340714Y-151888571D01*
X27412142Y-151602857D01*
X27483571Y-151460000D01*
X27555000Y-151388571D01*
X27697857Y-151317142D01*
X27840714Y-151317142D01*
X27983571Y-151388571D01*
X28055000Y-151460000D01*
X28126428Y-151602857D01*
X28126428Y-151960000D01*
X28055000Y-152174285D01*
X26626428Y-152817142D02*
X28126428Y-152817142D01*
X28055000Y-154317142D02*
X28126428Y-154174285D01*
X28126428Y-153960000D01*
X28055000Y-153745714D01*
X27912142Y-153602857D01*
X27769285Y-153531428D01*
X27483571Y-153460000D01*
X27269285Y-153460000D01*
X26983571Y-153531428D01*
X26840714Y-153602857D01*
X26697857Y-153745714D01*
X26626428Y-153960000D01*
X26626428Y-154102857D01*
X26697857Y-154317142D01*
X26769285Y-154388571D01*
X27269285Y-154388571D01*
X27269285Y-154102857D01*
X26626428Y-155031428D02*
X28126428Y-155031428D01*
X26626428Y-155888571D01*
X28126428Y-155888571D01*
X27055000Y-156531428D02*
X27055000Y-157245714D01*
X26626428Y-156388571D02*
X28126428Y-156888571D01*
X26626428Y-157388571D01*
X26626428Y-158602857D02*
X26626428Y-157888571D01*
X28126428Y-157888571D01*
X27412142Y-160745714D02*
X27340714Y-160960000D01*
X27269285Y-161031428D01*
X27126428Y-161102857D01*
X26912142Y-161102857D01*
X26769285Y-161031428D01*
X26697857Y-160960000D01*
X26626428Y-160817142D01*
X26626428Y-160245714D01*
X28126428Y-160245714D01*
X28126428Y-160745714D01*
X28055000Y-160888571D01*
X27983571Y-160960000D01*
X27840714Y-161031428D01*
X27697857Y-161031428D01*
X27555000Y-160960000D01*
X27483571Y-160888571D01*
X27412142Y-160745714D01*
X27412142Y-160245714D01*
X80053571Y-123538857D02*
X78553571Y-123538857D01*
X79625000Y-123038857D01*
X78553571Y-122538857D01*
X80053571Y-122538857D01*
X79982142Y-121896000D02*
X80053571Y-121681714D01*
X80053571Y-121324571D01*
X79982142Y-121181714D01*
X79910714Y-121110285D01*
X79767857Y-121038857D01*
X79625000Y-121038857D01*
X79482142Y-121110285D01*
X79410714Y-121181714D01*
X79339285Y-121324571D01*
X79267857Y-121610285D01*
X79196428Y-121753142D01*
X79125000Y-121824571D01*
X78982142Y-121896000D01*
X78839285Y-121896000D01*
X78696428Y-121824571D01*
X78625000Y-121753142D01*
X78553571Y-121610285D01*
X78553571Y-121253142D01*
X78625000Y-121038857D01*
X79982142Y-120467428D02*
X80053571Y-120253142D01*
X80053571Y-119896000D01*
X79982142Y-119753142D01*
X79910714Y-119681714D01*
X79767857Y-119610285D01*
X79625000Y-119610285D01*
X79482142Y-119681714D01*
X79410714Y-119753142D01*
X79339285Y-119896000D01*
X79267857Y-120181714D01*
X79196428Y-120324571D01*
X79125000Y-120396000D01*
X78982142Y-120467428D01*
X78839285Y-120467428D01*
X78696428Y-120396000D01*
X78625000Y-120324571D01*
X78553571Y-120181714D01*
X78553571Y-119824571D01*
X78625000Y-119610285D01*
X79625000Y-117896000D02*
X79625000Y-117181714D01*
X80053571Y-118038857D02*
X78553571Y-117538857D01*
X80053571Y-117038857D01*
X100373571Y-159293000D02*
X98873571Y-159293000D01*
X100373571Y-157721571D02*
X99659285Y-158221571D01*
X100373571Y-158578714D02*
X98873571Y-158578714D01*
X98873571Y-158007285D01*
X98945000Y-157864428D01*
X99016428Y-157793000D01*
X99159285Y-157721571D01*
X99373571Y-157721571D01*
X99516428Y-157793000D01*
X99587857Y-157864428D01*
X99659285Y-158007285D01*
X99659285Y-158578714D01*
X100302142Y-156007285D02*
X100373571Y-155793000D01*
X100373571Y-155435857D01*
X100302142Y-155293000D01*
X100230714Y-155221571D01*
X100087857Y-155150142D01*
X99945000Y-155150142D01*
X99802142Y-155221571D01*
X99730714Y-155293000D01*
X99659285Y-155435857D01*
X99587857Y-155721571D01*
X99516428Y-155864428D01*
X99445000Y-155935857D01*
X99302142Y-156007285D01*
X99159285Y-156007285D01*
X99016428Y-155935857D01*
X98945000Y-155864428D01*
X98873571Y-155721571D01*
X98873571Y-155364428D01*
X98945000Y-155150142D01*
X99587857Y-154507285D02*
X99587857Y-154007285D01*
X100373571Y-153793000D02*
X100373571Y-154507285D01*
X98873571Y-154507285D01*
X98873571Y-153793000D01*
X100373571Y-153150142D02*
X98873571Y-153150142D01*
X100373571Y-152293000D01*
X98873571Y-152293000D01*
X100302142Y-151650142D02*
X100373571Y-151435857D01*
X100373571Y-151078714D01*
X100302142Y-150935857D01*
X100230714Y-150864428D01*
X100087857Y-150793000D01*
X99945000Y-150793000D01*
X99802142Y-150864428D01*
X99730714Y-150935857D01*
X99659285Y-151078714D01*
X99587857Y-151364428D01*
X99516428Y-151507285D01*
X99445000Y-151578714D01*
X99302142Y-151650142D01*
X99159285Y-151650142D01*
X99016428Y-151578714D01*
X98945000Y-151507285D01*
X98873571Y-151364428D01*
X98873571Y-151007285D01*
X98945000Y-150793000D01*
X98873571Y-149864428D02*
X98873571Y-149578714D01*
X98945000Y-149435857D01*
X99087857Y-149293000D01*
X99373571Y-149221571D01*
X99873571Y-149221571D01*
X100159285Y-149293000D01*
X100302142Y-149435857D01*
X100373571Y-149578714D01*
X100373571Y-149864428D01*
X100302142Y-150007285D01*
X100159285Y-150150142D01*
X99873571Y-150221571D01*
X99373571Y-150221571D01*
X99087857Y-150150142D01*
X98945000Y-150007285D01*
X98873571Y-149864428D01*
X100373571Y-147721571D02*
X99659285Y-148221571D01*
X100373571Y-148578714D02*
X98873571Y-148578714D01*
X98873571Y-148007285D01*
X98945000Y-147864428D01*
X99016428Y-147793000D01*
X99159285Y-147721571D01*
X99373571Y-147721571D01*
X99516428Y-147793000D01*
X99587857Y-147864428D01*
X99659285Y-148007285D01*
X99659285Y-148578714D01*
X30468000Y-134504857D02*
X30539428Y-134362000D01*
X30539428Y-134147714D01*
X30468000Y-133933428D01*
X30325142Y-133790571D01*
X30182285Y-133719142D01*
X29896571Y-133647714D01*
X29682285Y-133647714D01*
X29396571Y-133719142D01*
X29253714Y-133790571D01*
X29110857Y-133933428D01*
X29039428Y-134147714D01*
X29039428Y-134290571D01*
X29110857Y-134504857D01*
X29182285Y-134576285D01*
X29682285Y-134576285D01*
X29682285Y-134290571D01*
D14*
X29314260Y-164114238D02*
X29314260Y-163920714D01*
X29265880Y-163823952D01*
X29217499Y-163775571D01*
X29072356Y-163678809D01*
X28878832Y-163630428D01*
X28491784Y-163630428D01*
X28395022Y-163678809D01*
X28346641Y-163727190D01*
X28298260Y-163823952D01*
X28298260Y-164017476D01*
X28346641Y-164114238D01*
X28395022Y-164162619D01*
X28491784Y-164211000D01*
X28733689Y-164211000D01*
X28830451Y-164162619D01*
X28878832Y-164114238D01*
X28927213Y-164017476D01*
X28927213Y-163823952D01*
X28878832Y-163727190D01*
X28830451Y-163678809D01*
X28733689Y-163630428D01*
X28685308Y-164646428D02*
X28685308Y-165420523D01*
X29217499Y-165855952D02*
X29265880Y-165904333D01*
X29314260Y-166001095D01*
X29314260Y-166243000D01*
X29265880Y-166339761D01*
X29217499Y-166388142D01*
X29120737Y-166436523D01*
X29023975Y-166436523D01*
X28878832Y-166388142D01*
X28298260Y-165807571D01*
X28298260Y-166436523D01*
X28975594Y-167307380D02*
X28298260Y-167307380D01*
X29362641Y-167065476D02*
X28636927Y-166823571D01*
X28636927Y-167452523D01*
X29314260Y-168468523D02*
X28298260Y-168807190D01*
X29314260Y-169145857D01*
X28298260Y-169629666D02*
X28346641Y-169532904D01*
X28395022Y-169484523D01*
X28491784Y-169436142D01*
X28782070Y-169436142D01*
X28878832Y-169484523D01*
X28927213Y-169532904D01*
X28975594Y-169629666D01*
X28975594Y-169774809D01*
X28927213Y-169871571D01*
X28878832Y-169919952D01*
X28782070Y-169968333D01*
X28491784Y-169968333D01*
X28395022Y-169919952D01*
X28346641Y-169871571D01*
X28298260Y-169774809D01*
X28298260Y-169629666D01*
X28298260Y-170548904D02*
X28346641Y-170452142D01*
X28443403Y-170403761D01*
X29314260Y-170403761D01*
X28975594Y-170790809D02*
X28975594Y-171177857D01*
X29314260Y-170935952D02*
X28443403Y-170935952D01*
X28346641Y-170984333D01*
X28298260Y-171081095D01*
X28298260Y-171177857D01*
X28346641Y-171468142D02*
X28298260Y-171564904D01*
X28298260Y-171758428D01*
X28346641Y-171855190D01*
X28443403Y-171903571D01*
X28491784Y-171903571D01*
X28588546Y-171855190D01*
X28636927Y-171758428D01*
X28636927Y-171613285D01*
X28685308Y-171516523D01*
X28782070Y-171468142D01*
X28830451Y-171468142D01*
X28927213Y-171516523D01*
X28975594Y-171613285D01*
X28975594Y-171758428D01*
X28927213Y-171855190D01*
X26662500Y-163074047D02*
X27678500Y-163074047D01*
X27678500Y-163315952D01*
X27630120Y-163461095D01*
X27533358Y-163557857D01*
X27436596Y-163606238D01*
X27243072Y-163654619D01*
X27097929Y-163654619D01*
X26904405Y-163606238D01*
X26807643Y-163557857D01*
X26710881Y-163461095D01*
X26662500Y-163315952D01*
X26662500Y-163074047D01*
X26759262Y-164670619D02*
X26710881Y-164622238D01*
X26662500Y-164477095D01*
X26662500Y-164380333D01*
X26710881Y-164235190D01*
X26807643Y-164138428D01*
X26904405Y-164090047D01*
X27097929Y-164041666D01*
X27243072Y-164041666D01*
X27436596Y-164090047D01*
X27533358Y-164138428D01*
X27630120Y-164235190D01*
X27678500Y-164380333D01*
X27678500Y-164477095D01*
X27630120Y-164622238D01*
X27581739Y-164670619D01*
X27726881Y-165831761D02*
X26420596Y-164960904D01*
X26952786Y-166122047D02*
X26952786Y-166605857D01*
X26662500Y-166025285D02*
X27678500Y-166363952D01*
X26662500Y-166702619D01*
X26759262Y-167621857D02*
X26710881Y-167573476D01*
X26662500Y-167428333D01*
X26662500Y-167331571D01*
X26710881Y-167186428D01*
X26807643Y-167089666D01*
X26904405Y-167041285D01*
X27097929Y-166992904D01*
X27243072Y-166992904D01*
X27436596Y-167041285D01*
X27533358Y-167089666D01*
X27630120Y-167186428D01*
X27678500Y-167331571D01*
X27678500Y-167428333D01*
X27630120Y-167573476D01*
X27581739Y-167621857D01*
X27726881Y-168783000D02*
X26420596Y-167912142D01*
X26662500Y-169121666D02*
X27678500Y-169121666D01*
X27678500Y-169363571D01*
X27630120Y-169508714D01*
X27533358Y-169605476D01*
X27436596Y-169653857D01*
X27243072Y-169702238D01*
X27097929Y-169702238D01*
X26904405Y-169653857D01*
X26807643Y-169605476D01*
X26710881Y-169508714D01*
X26662500Y-169363571D01*
X26662500Y-169121666D01*
X26759262Y-170718238D02*
X26710881Y-170669857D01*
X26662500Y-170524714D01*
X26662500Y-170427952D01*
X26710881Y-170282809D01*
X26807643Y-170186047D01*
X26904405Y-170137666D01*
X27097929Y-170089285D01*
X27243072Y-170089285D01*
X27436596Y-170137666D01*
X27533358Y-170186047D01*
X27630120Y-170282809D01*
X27678500Y-170427952D01*
X27678500Y-170524714D01*
X27630120Y-170669857D01*
X27581739Y-170718238D01*
X26759262Y-171734238D02*
X26710881Y-171685857D01*
X26662500Y-171540714D01*
X26662500Y-171443952D01*
X26710881Y-171298809D01*
X26807643Y-171202047D01*
X26904405Y-171153666D01*
X27097929Y-171105285D01*
X27243072Y-171105285D01*
X27436596Y-171153666D01*
X27533358Y-171202047D01*
X27630120Y-171298809D01*
X27678500Y-171443952D01*
X27678500Y-171540714D01*
X27630120Y-171685857D01*
X27581739Y-171734238D01*
D11*
X30341000Y-160031857D02*
X30412428Y-159889000D01*
X30412428Y-159674714D01*
X30341000Y-159460428D01*
X30198142Y-159317571D01*
X30055285Y-159246142D01*
X29769571Y-159174714D01*
X29555285Y-159174714D01*
X29269571Y-159246142D01*
X29126714Y-159317571D01*
X28983857Y-159460428D01*
X28912428Y-159674714D01*
X28912428Y-159817571D01*
X28983857Y-160031857D01*
X29055285Y-160103285D01*
X29555285Y-160103285D01*
X29555285Y-159817571D01*
X29626714Y-156210000D02*
X28912428Y-156210000D01*
X30412428Y-155710000D02*
X29626714Y-156210000D01*
X30412428Y-156710000D01*
X75735714Y-122273285D02*
X75807142Y-122201857D01*
X76021428Y-122130428D01*
X76164285Y-122130428D01*
X76378571Y-122201857D01*
X76521428Y-122344714D01*
X76592857Y-122487571D01*
X76664285Y-122773285D01*
X76664285Y-122987571D01*
X76592857Y-123273285D01*
X76521428Y-123416142D01*
X76378571Y-123559000D01*
X76164285Y-123630428D01*
X76021428Y-123630428D01*
X75807142Y-123559000D01*
X75735714Y-123487571D01*
X29753714Y-130683000D02*
X29039428Y-130683000D01*
X30539428Y-130183000D02*
X29753714Y-130683000D01*
X30539428Y-131183000D01*
X29039428Y-127591285D02*
X29753714Y-127091285D01*
X29039428Y-126734142D02*
X30539428Y-126734142D01*
X30539428Y-127305571D01*
X30468000Y-127448428D01*
X30396571Y-127519857D01*
X30253714Y-127591285D01*
X30039428Y-127591285D01*
X29896571Y-127519857D01*
X29825142Y-127448428D01*
X29753714Y-127305571D01*
X29753714Y-126734142D01*
D13*
X50820000Y-136373809D02*
X50891428Y-136325428D01*
X51105714Y-136228666D01*
X51248571Y-136180285D01*
X51462857Y-136131904D01*
X51820000Y-136083523D01*
X52105714Y-136083523D01*
X52462857Y-136131904D01*
X52677142Y-136180285D01*
X52820000Y-136228666D01*
X53034285Y-136325428D01*
X53105714Y-136373809D01*
X51962857Y-136760857D02*
X51962857Y-137534952D01*
X50820000Y-137922000D02*
X50891428Y-137970380D01*
X51105714Y-138067142D01*
X51248571Y-138115523D01*
X51462857Y-138163904D01*
X51820000Y-138212285D01*
X52105714Y-138212285D01*
X52462857Y-138163904D01*
X52677142Y-138115523D01*
X52820000Y-138067142D01*
X53034285Y-137970380D01*
X53105714Y-137922000D01*
X51534285Y-140050761D02*
X51462857Y-140002380D01*
X51391428Y-139857238D01*
X51391428Y-139760476D01*
X51462857Y-139615333D01*
X51605714Y-139518571D01*
X51748571Y-139470190D01*
X52034285Y-139421809D01*
X52248571Y-139421809D01*
X52534285Y-139470190D01*
X52677142Y-139518571D01*
X52820000Y-139615333D01*
X52891428Y-139760476D01*
X52891428Y-139857238D01*
X52820000Y-140002380D01*
X52748571Y-140050761D01*
X52891428Y-140679714D02*
X52891428Y-140873238D01*
X52820000Y-140970000D01*
X52677142Y-141066761D01*
X52391428Y-141115142D01*
X51891428Y-141115142D01*
X51605714Y-141066761D01*
X51462857Y-140970000D01*
X51391428Y-140873238D01*
X51391428Y-140679714D01*
X51462857Y-140582952D01*
X51605714Y-140486190D01*
X51891428Y-140437809D01*
X52391428Y-140437809D01*
X52677142Y-140486190D01*
X52820000Y-140582952D01*
X52891428Y-140679714D01*
X51391428Y-141550571D02*
X52891428Y-141550571D01*
X51820000Y-141889238D01*
X52891428Y-142227904D01*
X51391428Y-142227904D01*
X51391428Y-142711714D02*
X52891428Y-142711714D01*
X51820000Y-143050380D01*
X52891428Y-143389047D01*
X51391428Y-143389047D01*
X52891428Y-144066380D02*
X52891428Y-144259904D01*
X52820000Y-144356666D01*
X52677142Y-144453428D01*
X52391428Y-144501809D01*
X51891428Y-144501809D01*
X51605714Y-144453428D01*
X51462857Y-144356666D01*
X51391428Y-144259904D01*
X51391428Y-144066380D01*
X51462857Y-143969619D01*
X51605714Y-143872857D01*
X51891428Y-143824476D01*
X52391428Y-143824476D01*
X52677142Y-143872857D01*
X52820000Y-143969619D01*
X52891428Y-144066380D01*
X51391428Y-144937238D02*
X52891428Y-144937238D01*
X51391428Y-145517809D01*
X52891428Y-145517809D01*
X50820000Y-147066000D02*
X50891428Y-147017619D01*
X51105714Y-146920857D01*
X51248571Y-146872476D01*
X51462857Y-146824095D01*
X51820000Y-146775714D01*
X52105714Y-146775714D01*
X52462857Y-146824095D01*
X52677142Y-146872476D01*
X52820000Y-146920857D01*
X53034285Y-147017619D01*
X53105714Y-147066000D01*
X51962857Y-147453047D02*
X51962857Y-148227142D01*
X51391428Y-147840095D02*
X52534285Y-147840095D01*
X50820000Y-148614190D02*
X50891428Y-148662571D01*
X51105714Y-148759333D01*
X51248571Y-148807714D01*
X51462857Y-148856095D01*
X51820000Y-148904476D01*
X52105714Y-148904476D01*
X52462857Y-148856095D01*
X52677142Y-148807714D01*
X52820000Y-148759333D01*
X53034285Y-148662571D01*
X53105714Y-148614190D01*
D11*
X28912428Y-153118285D02*
X29626714Y-152618285D01*
X28912428Y-152261142D02*
X30412428Y-152261142D01*
X30412428Y-152832571D01*
X30341000Y-152975428D01*
X30269571Y-153046857D01*
X30126714Y-153118285D01*
X29912428Y-153118285D01*
X29769571Y-153046857D01*
X29698142Y-152975428D01*
X29626714Y-152832571D01*
X29626714Y-152261142D01*
D12*
X101817714Y-178271714D02*
X102180571Y-177183142D01*
X102543428Y-176820285D01*
X103269142Y-176457428D01*
X104357714Y-176457428D01*
X105083428Y-176820285D01*
X105446285Y-177183142D01*
X105809142Y-177908857D01*
X105809142Y-180811714D01*
X98189142Y-180811714D01*
X98189142Y-178271714D01*
X98552000Y-177546000D01*
X98914857Y-177183142D01*
X99640571Y-176820285D01*
X100366285Y-176820285D01*
X101092000Y-177183142D01*
X101454857Y-177546000D01*
X101817714Y-178271714D01*
X101817714Y-180811714D01*
D11*
X76092857Y-127488142D02*
X75878571Y-127416714D01*
X75807142Y-127345285D01*
X75735714Y-127202428D01*
X75735714Y-126988142D01*
X75807142Y-126845285D01*
X75878571Y-126773857D01*
X76021428Y-126702428D01*
X76592857Y-126702428D01*
X76592857Y-128202428D01*
X76092857Y-128202428D01*
X75950000Y-128131000D01*
X75878571Y-128059571D01*
X75807142Y-127916714D01*
X75807142Y-127773857D01*
X75878571Y-127631000D01*
X75950000Y-127559571D01*
X76092857Y-127488142D01*
X76592857Y-127488142D01*
X99460857Y-140747428D02*
X99532285Y-140533142D01*
X99603714Y-140461714D01*
X99746571Y-140390285D01*
X99960857Y-140390285D01*
X100103714Y-140461714D01*
X100175142Y-140533142D01*
X100246571Y-140676000D01*
X100246571Y-141247428D01*
X98746571Y-141247428D01*
X98746571Y-140747428D01*
X98818000Y-140604571D01*
X98889428Y-140533142D01*
X99032285Y-140461714D01*
X99175142Y-140461714D01*
X99318000Y-140533142D01*
X99389428Y-140604571D01*
X99460857Y-140747428D01*
X99460857Y-141247428D01*
X100246571Y-139747428D02*
X98746571Y-139747428D01*
X98746571Y-139390285D01*
X98818000Y-139176000D01*
X98960857Y-139033142D01*
X99103714Y-138961714D01*
X99389428Y-138890285D01*
X99603714Y-138890285D01*
X99889428Y-138961714D01*
X100032285Y-139033142D01*
X100175142Y-139176000D01*
X100246571Y-139390285D01*
X100246571Y-139747428D01*
X100246571Y-137461714D02*
X100246571Y-138318857D01*
X100246571Y-137890285D02*
X98746571Y-137890285D01*
X98960857Y-138033142D01*
X99103714Y-138176000D01*
X99175142Y-138318857D01*
X99818000Y-135747428D02*
X99818000Y-135033142D01*
X100246571Y-135890285D02*
X98746571Y-135390285D01*
X100246571Y-134890285D01*
D13*
X68507428Y-150368000D02*
X68870285Y-150368000D01*
X68725142Y-150730857D02*
X68870285Y-150368000D01*
X68725142Y-150005142D01*
X69160571Y-150585714D02*
X68870285Y-150368000D01*
X69160571Y-150150285D01*
D14*
X63578619Y-164685859D02*
X63578619Y-163669859D01*
X64207571Y-164685859D02*
X64110809Y-164637478D01*
X64062428Y-164589097D01*
X64014047Y-164492335D01*
X64014047Y-164202049D01*
X64062428Y-164105287D01*
X64110809Y-164056906D01*
X64207571Y-164008525D01*
X64352714Y-164008525D01*
X64449476Y-164056906D01*
X64497857Y-164105287D01*
X64546238Y-164202049D01*
X64546238Y-164492335D01*
X64497857Y-164589097D01*
X64449476Y-164637478D01*
X64352714Y-164685859D01*
X64207571Y-164685859D01*
X64884904Y-164008525D02*
X65078428Y-164685859D01*
X65271952Y-164202049D01*
X65465476Y-164685859D01*
X65659000Y-164008525D01*
X66481476Y-164685859D02*
X66481476Y-164153668D01*
X66433095Y-164056906D01*
X66336333Y-164008525D01*
X66142809Y-164008525D01*
X66046047Y-164056906D01*
X66481476Y-164637478D02*
X66384714Y-164685859D01*
X66142809Y-164685859D01*
X66046047Y-164637478D01*
X65997666Y-164540716D01*
X65997666Y-164443954D01*
X66046047Y-164347192D01*
X66142809Y-164298811D01*
X66384714Y-164298811D01*
X66481476Y-164250430D01*
X67691000Y-164637478D02*
X67836142Y-164685859D01*
X68078047Y-164685859D01*
X68174809Y-164637478D01*
X68223190Y-164589097D01*
X68271571Y-164492335D01*
X68271571Y-164395573D01*
X68223190Y-164298811D01*
X68174809Y-164250430D01*
X68078047Y-164202049D01*
X67884523Y-164153668D01*
X67787761Y-164105287D01*
X67739380Y-164056906D01*
X67691000Y-163960144D01*
X67691000Y-163863382D01*
X67739380Y-163766620D01*
X67787761Y-163718240D01*
X67884523Y-163669859D01*
X68126428Y-163669859D01*
X68271571Y-163718240D01*
X69142428Y-164637478D02*
X69045666Y-164685859D01*
X68852142Y-164685859D01*
X68755380Y-164637478D01*
X68707000Y-164589097D01*
X68658619Y-164492335D01*
X68658619Y-164202049D01*
X68707000Y-164105287D01*
X68755380Y-164056906D01*
X68852142Y-164008525D01*
X69045666Y-164008525D01*
X69142428Y-164056906D01*
X70013285Y-164685859D02*
X70013285Y-164153668D01*
X69964904Y-164056906D01*
X69868142Y-164008525D01*
X69674619Y-164008525D01*
X69577857Y-164056906D01*
X70013285Y-164637478D02*
X69916523Y-164685859D01*
X69674619Y-164685859D01*
X69577857Y-164637478D01*
X69529476Y-164540716D01*
X69529476Y-164443954D01*
X69577857Y-164347192D01*
X69674619Y-164298811D01*
X69916523Y-164298811D01*
X70013285Y-164250430D01*
X70642238Y-164685859D02*
X70545476Y-164637478D01*
X70497095Y-164540716D01*
X70497095Y-163669859D01*
X71416333Y-164637478D02*
X71319571Y-164685859D01*
X71126047Y-164685859D01*
X71029285Y-164637478D01*
X70980904Y-164540716D01*
X70980904Y-164153668D01*
X71029285Y-164056906D01*
X71126047Y-164008525D01*
X71319571Y-164008525D01*
X71416333Y-164056906D01*
X71464714Y-164153668D01*
X71464714Y-164250430D01*
X70980904Y-164347192D01*
X72335571Y-164685859D02*
X72335571Y-163669859D01*
X72335571Y-164637478D02*
X72238809Y-164685859D01*
X72045285Y-164685859D01*
X71948523Y-164637478D01*
X71900142Y-164589097D01*
X71851761Y-164492335D01*
X71851761Y-164202049D01*
X71900142Y-164105287D01*
X71948523Y-164056906D01*
X72045285Y-164008525D01*
X72238809Y-164008525D01*
X72335571Y-164056906D01*
X73593476Y-164153668D02*
X73932142Y-164153668D01*
X74077285Y-164685859D02*
X73593476Y-164685859D01*
X73593476Y-163669859D01*
X74077285Y-163669859D01*
X74512714Y-164008525D02*
X74512714Y-164685859D01*
X74512714Y-164105287D02*
X74561095Y-164056906D01*
X74657857Y-164008525D01*
X74803000Y-164008525D01*
X74899761Y-164056906D01*
X74948142Y-164153668D01*
X74948142Y-164685859D01*
X75867380Y-164008525D02*
X75867380Y-164831001D01*
X75819000Y-164927763D01*
X75770619Y-164976144D01*
X75673857Y-165024525D01*
X75528714Y-165024525D01*
X75431952Y-164976144D01*
X75867380Y-164637478D02*
X75770619Y-164685859D01*
X75577095Y-164685859D01*
X75480333Y-164637478D01*
X75431952Y-164589097D01*
X75383571Y-164492335D01*
X75383571Y-164202049D01*
X75431952Y-164105287D01*
X75480333Y-164056906D01*
X75577095Y-164008525D01*
X75770619Y-164008525D01*
X75867380Y-164056906D01*
X76351190Y-164685859D02*
X76351190Y-164008525D01*
X76351190Y-163669859D02*
X76302809Y-163718240D01*
X76351190Y-163766620D01*
X76399571Y-163718240D01*
X76351190Y-163669859D01*
X76351190Y-163766620D01*
X76835000Y-164008525D02*
X76835000Y-164685859D01*
X76835000Y-164105287D02*
X76883380Y-164056906D01*
X76980142Y-164008525D01*
X77125285Y-164008525D01*
X77222047Y-164056906D01*
X77270428Y-164153668D01*
X77270428Y-164685859D01*
X78141285Y-164637478D02*
X78044523Y-164685859D01*
X77851000Y-164685859D01*
X77754238Y-164637478D01*
X77705857Y-164540716D01*
X77705857Y-164153668D01*
X77754238Y-164056906D01*
X77851000Y-164008525D01*
X78044523Y-164008525D01*
X78141285Y-164056906D01*
X78189666Y-164153668D01*
X78189666Y-164250430D01*
X77705857Y-164347192D01*
X79012142Y-164637478D02*
X78915380Y-164685859D01*
X78721857Y-164685859D01*
X78625095Y-164637478D01*
X78576714Y-164540716D01*
X78576714Y-164153668D01*
X78625095Y-164056906D01*
X78721857Y-164008525D01*
X78915380Y-164008525D01*
X79012142Y-164056906D01*
X79060523Y-164153668D01*
X79060523Y-164250430D01*
X78576714Y-164347192D01*
X79495952Y-164685859D02*
X79495952Y-164008525D01*
X79495952Y-164202049D02*
X79544333Y-164105287D01*
X79592714Y-164056906D01*
X79689476Y-164008525D01*
X79786238Y-164008525D01*
X80124904Y-164685859D02*
X80124904Y-164008525D01*
X80124904Y-163669859D02*
X80076523Y-163718240D01*
X80124904Y-163766620D01*
X80173285Y-163718240D01*
X80124904Y-163669859D01*
X80124904Y-163766620D01*
X80608714Y-164008525D02*
X80608714Y-164685859D01*
X80608714Y-164105287D02*
X80657095Y-164056906D01*
X80753857Y-164008525D01*
X80899000Y-164008525D01*
X80995761Y-164056906D01*
X81044142Y-164153668D01*
X81044142Y-164685859D01*
X81963380Y-164008525D02*
X81963380Y-164831001D01*
X81915000Y-164927763D01*
X81866619Y-164976144D01*
X81769857Y-165024525D01*
X81624714Y-165024525D01*
X81527952Y-164976144D01*
X81963380Y-164637478D02*
X81866619Y-164685859D01*
X81673095Y-164685859D01*
X81576333Y-164637478D01*
X81527952Y-164589097D01*
X81479571Y-164492335D01*
X81479571Y-164202049D01*
X81527952Y-164105287D01*
X81576333Y-164056906D01*
X81673095Y-164008525D01*
X81866619Y-164008525D01*
X81963380Y-164056906D01*
X62707761Y-166321619D02*
X62707761Y-165305619D01*
X63046428Y-166031333D01*
X63385095Y-165305619D01*
X63385095Y-166321619D01*
X63820523Y-166273238D02*
X63965666Y-166321619D01*
X64207571Y-166321619D01*
X64304333Y-166273238D01*
X64352714Y-166224857D01*
X64401095Y-166128095D01*
X64401095Y-166031333D01*
X64352714Y-165934571D01*
X64304333Y-165886190D01*
X64207571Y-165837809D01*
X64014047Y-165789428D01*
X63917285Y-165741047D01*
X63868904Y-165692666D01*
X63820523Y-165595904D01*
X63820523Y-165499142D01*
X63868904Y-165402380D01*
X63917285Y-165354000D01*
X64014047Y-165305619D01*
X64255952Y-165305619D01*
X64401095Y-165354000D01*
X64788142Y-166273238D02*
X64933285Y-166321619D01*
X65175190Y-166321619D01*
X65271952Y-166273238D01*
X65320333Y-166224857D01*
X65368714Y-166128095D01*
X65368714Y-166031333D01*
X65320333Y-165934571D01*
X65271952Y-165886190D01*
X65175190Y-165837809D01*
X64981666Y-165789428D01*
X64884904Y-165741047D01*
X64836523Y-165692666D01*
X64788142Y-165595904D01*
X64788142Y-165499142D01*
X64836523Y-165402380D01*
X64884904Y-165354000D01*
X64981666Y-165305619D01*
X65223571Y-165305619D01*
X65368714Y-165354000D01*
X65804142Y-165934571D02*
X66578238Y-165934571D01*
X67642619Y-166224857D02*
X67594238Y-166273238D01*
X67449095Y-166321619D01*
X67352333Y-166321619D01*
X67207190Y-166273238D01*
X67110428Y-166176476D01*
X67062047Y-166079714D01*
X67013666Y-165886190D01*
X67013666Y-165741047D01*
X67062047Y-165547523D01*
X67110428Y-165450761D01*
X67207190Y-165354000D01*
X67352333Y-165305619D01*
X67449095Y-165305619D01*
X67594238Y-165354000D01*
X67642619Y-165402380D01*
X68029666Y-166031333D02*
X68513476Y-166031333D01*
X67932904Y-166321619D02*
X68271571Y-165305619D01*
X68610238Y-166321619D01*
X68900523Y-166273238D02*
X69045666Y-166321619D01*
X69287571Y-166321619D01*
X69384333Y-166273238D01*
X69432714Y-166224857D01*
X69481095Y-166128095D01*
X69481095Y-166031333D01*
X69432714Y-165934571D01*
X69384333Y-165886190D01*
X69287571Y-165837809D01*
X69094047Y-165789428D01*
X68997285Y-165741047D01*
X68948904Y-165692666D01*
X68900523Y-165595904D01*
X68900523Y-165499142D01*
X68948904Y-165402380D01*
X68997285Y-165354000D01*
X69094047Y-165305619D01*
X69335952Y-165305619D01*
X69481095Y-165354000D01*
X70497095Y-166224857D02*
X70448714Y-166273238D01*
X70303571Y-166321619D01*
X70206809Y-166321619D01*
X70061666Y-166273238D01*
X69964904Y-166176476D01*
X69916523Y-166079714D01*
X69868142Y-165886190D01*
X69868142Y-165741047D01*
X69916523Y-165547523D01*
X69964904Y-165450761D01*
X70061666Y-165354000D01*
X70206809Y-165305619D01*
X70303571Y-165305619D01*
X70448714Y-165354000D01*
X70497095Y-165402380D01*
X70884142Y-166031333D02*
X71367952Y-166031333D01*
X70787380Y-166321619D02*
X71126047Y-165305619D01*
X71464714Y-166321619D01*
X71803380Y-166321619D02*
X71803380Y-165305619D01*
X72045285Y-165305619D01*
X72190428Y-165354000D01*
X72287190Y-165450761D01*
X72335571Y-165547523D01*
X72383952Y-165741047D01*
X72383952Y-165886190D01*
X72335571Y-166079714D01*
X72287190Y-166176476D01*
X72190428Y-166273238D01*
X72045285Y-166321619D01*
X71803380Y-166321619D01*
X72819380Y-165789428D02*
X73158047Y-165789428D01*
X73303190Y-166321619D02*
X72819380Y-166321619D01*
X72819380Y-165305619D01*
X73303190Y-165305619D01*
X73738619Y-165934571D02*
X74512714Y-165934571D01*
X75335190Y-165789428D02*
X75480333Y-165837809D01*
X75528714Y-165886190D01*
X75577095Y-165982952D01*
X75577095Y-166128095D01*
X75528714Y-166224857D01*
X75480333Y-166273238D01*
X75383571Y-166321619D01*
X74996523Y-166321619D01*
X74996523Y-165305619D01*
X75335190Y-165305619D01*
X75431952Y-165354000D01*
X75480333Y-165402380D01*
X75528714Y-165499142D01*
X75528714Y-165595904D01*
X75480333Y-165692666D01*
X75431952Y-165741047D01*
X75335190Y-165789428D01*
X74996523Y-165789428D01*
X75964142Y-166031333D02*
X76447952Y-166031333D01*
X75867380Y-166321619D02*
X76206047Y-165305619D01*
X76544714Y-166321619D01*
X76835000Y-166273238D02*
X76980142Y-166321619D01*
X77222047Y-166321619D01*
X77318809Y-166273238D01*
X77367190Y-166224857D01*
X77415571Y-166128095D01*
X77415571Y-166031333D01*
X77367190Y-165934571D01*
X77318809Y-165886190D01*
X77222047Y-165837809D01*
X77028523Y-165789428D01*
X76931761Y-165741047D01*
X76883380Y-165692666D01*
X76835000Y-165595904D01*
X76835000Y-165499142D01*
X76883380Y-165402380D01*
X76931761Y-165354000D01*
X77028523Y-165305619D01*
X77270428Y-165305619D01*
X77415571Y-165354000D01*
X77851000Y-166321619D02*
X77851000Y-165305619D01*
X78915380Y-166224857D02*
X78867000Y-166273238D01*
X78721857Y-166321619D01*
X78625095Y-166321619D01*
X78479952Y-166273238D01*
X78383190Y-166176476D01*
X78334809Y-166079714D01*
X78286428Y-165886190D01*
X78286428Y-165741047D01*
X78334809Y-165547523D01*
X78383190Y-165450761D01*
X78479952Y-165354000D01*
X78625095Y-165305619D01*
X78721857Y-165305619D01*
X78867000Y-165354000D01*
X78915380Y-165402380D01*
X80028142Y-165644285D02*
X80270047Y-166321619D01*
X80511952Y-165644285D01*
X81431190Y-166321619D02*
X80850619Y-166321619D01*
X81140904Y-166321619D02*
X81140904Y-165305619D01*
X81044142Y-165450761D01*
X80947380Y-165547523D01*
X80850619Y-165595904D01*
X81866619Y-166224857D02*
X81915000Y-166273238D01*
X81866619Y-166321619D01*
X81818238Y-166273238D01*
X81866619Y-166224857D01*
X81866619Y-166321619D01*
X82882619Y-166321619D02*
X82302047Y-166321619D01*
X82592333Y-166321619D02*
X82592333Y-165305619D01*
X82495571Y-165450761D01*
X82398809Y-165547523D01*
X82302047Y-165595904D01*
X62901285Y-167280045D02*
X63094809Y-167957379D01*
X63288333Y-167473569D01*
X63481857Y-167957379D01*
X63675380Y-167280045D01*
X63965666Y-167280045D02*
X64159190Y-167957379D01*
X64352714Y-167473569D01*
X64546238Y-167957379D01*
X64739761Y-167280045D01*
X65030047Y-167280045D02*
X65223571Y-167957379D01*
X65417095Y-167473569D01*
X65610619Y-167957379D01*
X65804142Y-167280045D01*
X66191190Y-167860617D02*
X66239571Y-167908998D01*
X66191190Y-167957379D01*
X66142809Y-167908998D01*
X66191190Y-167860617D01*
X66191190Y-167957379D01*
X66675000Y-167957379D02*
X66675000Y-167280045D01*
X66675000Y-166941379D02*
X66626619Y-166989760D01*
X66675000Y-167038140D01*
X66723380Y-166989760D01*
X66675000Y-166941379D01*
X66675000Y-167038140D01*
X67594238Y-167957379D02*
X67594238Y-167425188D01*
X67545857Y-167328426D01*
X67449095Y-167280045D01*
X67255571Y-167280045D01*
X67158809Y-167328426D01*
X67594238Y-167908998D02*
X67497476Y-167957379D01*
X67255571Y-167957379D01*
X67158809Y-167908998D01*
X67110428Y-167812236D01*
X67110428Y-167715474D01*
X67158809Y-167618712D01*
X67255571Y-167570331D01*
X67497476Y-167570331D01*
X67594238Y-167521950D01*
X68029666Y-167908998D02*
X68126428Y-167957379D01*
X68319952Y-167957379D01*
X68416714Y-167908998D01*
X68465095Y-167812236D01*
X68465095Y-167763855D01*
X68416714Y-167667093D01*
X68319952Y-167618712D01*
X68174809Y-167618712D01*
X68078047Y-167570331D01*
X68029666Y-167473569D01*
X68029666Y-167425188D01*
X68078047Y-167328426D01*
X68174809Y-167280045D01*
X68319952Y-167280045D01*
X68416714Y-167328426D01*
X69335952Y-167908998D02*
X69239190Y-167957379D01*
X69045666Y-167957379D01*
X68948904Y-167908998D01*
X68900523Y-167860617D01*
X68852142Y-167763855D01*
X68852142Y-167473569D01*
X68900523Y-167376807D01*
X68948904Y-167328426D01*
X69045666Y-167280045D01*
X69239190Y-167280045D01*
X69335952Y-167328426D01*
X70206809Y-167957379D02*
X70206809Y-167425188D01*
X70158428Y-167328426D01*
X70061666Y-167280045D01*
X69868142Y-167280045D01*
X69771380Y-167328426D01*
X70206809Y-167908998D02*
X70110047Y-167957379D01*
X69868142Y-167957379D01*
X69771380Y-167908998D01*
X69723000Y-167812236D01*
X69723000Y-167715474D01*
X69771380Y-167618712D01*
X69868142Y-167570331D01*
X70110047Y-167570331D01*
X70206809Y-167521950D01*
X70835761Y-167957379D02*
X70739000Y-167908998D01*
X70690619Y-167812236D01*
X70690619Y-166941379D01*
X71609857Y-167908998D02*
X71513095Y-167957379D01*
X71319571Y-167957379D01*
X71222809Y-167908998D01*
X71174428Y-167812236D01*
X71174428Y-167425188D01*
X71222809Y-167328426D01*
X71319571Y-167280045D01*
X71513095Y-167280045D01*
X71609857Y-167328426D01*
X71658238Y-167425188D01*
X71658238Y-167521950D01*
X71174428Y-167618712D01*
X72529095Y-167957379D02*
X72529095Y-166941379D01*
X72529095Y-167908998D02*
X72432333Y-167957379D01*
X72238809Y-167957379D01*
X72142047Y-167908998D01*
X72093666Y-167860617D01*
X72045285Y-167763855D01*
X72045285Y-167473569D01*
X72093666Y-167376807D01*
X72142047Y-167328426D01*
X72238809Y-167280045D01*
X72432333Y-167280045D01*
X72529095Y-167328426D01*
X73012904Y-167860617D02*
X73061285Y-167908998D01*
X73012904Y-167957379D01*
X72964523Y-167908998D01*
X73012904Y-167860617D01*
X73012904Y-167957379D01*
X73932142Y-167908998D02*
X73835380Y-167957379D01*
X73641857Y-167957379D01*
X73545095Y-167908998D01*
X73496714Y-167860617D01*
X73448333Y-167763855D01*
X73448333Y-167473569D01*
X73496714Y-167376807D01*
X73545095Y-167328426D01*
X73641857Y-167280045D01*
X73835380Y-167280045D01*
X73932142Y-167328426D01*
X74512714Y-167957379D02*
X74415952Y-167908998D01*
X74367571Y-167860617D01*
X74319190Y-167763855D01*
X74319190Y-167473569D01*
X74367571Y-167376807D01*
X74415952Y-167328426D01*
X74512714Y-167280045D01*
X74657857Y-167280045D01*
X74754619Y-167328426D01*
X74803000Y-167376807D01*
X74851380Y-167473569D01*
X74851380Y-167763855D01*
X74803000Y-167860617D01*
X74754619Y-167908998D01*
X74657857Y-167957379D01*
X74512714Y-167957379D01*
X75286809Y-167957379D02*
X75286809Y-167280045D01*
X75286809Y-167376807D02*
X75335190Y-167328426D01*
X75431952Y-167280045D01*
X75577095Y-167280045D01*
X75673857Y-167328426D01*
X75722238Y-167425188D01*
X75722238Y-167957379D01*
X75722238Y-167425188D02*
X75770619Y-167328426D01*
X75867380Y-167280045D01*
X76012523Y-167280045D01*
X76109285Y-167328426D01*
X76157666Y-167425188D01*
X76157666Y-167957379D01*
X78238047Y-167183283D02*
X78141285Y-167134902D01*
X77947761Y-167134902D01*
X77851000Y-167183283D01*
X77754238Y-167280045D01*
X77705857Y-167376807D01*
X77705857Y-167570331D01*
X77754238Y-167667093D01*
X77851000Y-167763855D01*
X77947761Y-167812236D01*
X78141285Y-167812236D01*
X78238047Y-167763855D01*
X78044523Y-166796236D02*
X77802619Y-166844617D01*
X77560714Y-166989760D01*
X77415571Y-167231664D01*
X77367190Y-167473569D01*
X77415571Y-167715474D01*
X77560714Y-167957379D01*
X77802619Y-168102521D01*
X78044523Y-168150902D01*
X78286428Y-168102521D01*
X78528333Y-167957379D01*
X78673476Y-167715474D01*
X78721857Y-167473569D01*
X78673476Y-167231664D01*
X78528333Y-166989760D01*
X78286428Y-166844617D01*
X78044523Y-166796236D01*
X79108904Y-167038140D02*
X79157285Y-166989760D01*
X79254047Y-166941379D01*
X79495952Y-166941379D01*
X79592714Y-166989760D01*
X79641095Y-167038140D01*
X79689476Y-167134902D01*
X79689476Y-167231664D01*
X79641095Y-167376807D01*
X79060523Y-167957379D01*
X79689476Y-167957379D01*
X80318428Y-166941379D02*
X80415190Y-166941379D01*
X80511952Y-166989760D01*
X80560333Y-167038140D01*
X80608714Y-167134902D01*
X80657095Y-167328426D01*
X80657095Y-167570331D01*
X80608714Y-167763855D01*
X80560333Y-167860617D01*
X80511952Y-167908998D01*
X80415190Y-167957379D01*
X80318428Y-167957379D01*
X80221666Y-167908998D01*
X80173285Y-167860617D01*
X80124904Y-167763855D01*
X80076523Y-167570331D01*
X80076523Y-167328426D01*
X80124904Y-167134902D01*
X80173285Y-167038140D01*
X80221666Y-166989760D01*
X80318428Y-166941379D01*
X81044142Y-167038140D02*
X81092523Y-166989760D01*
X81189285Y-166941379D01*
X81431190Y-166941379D01*
X81527952Y-166989760D01*
X81576333Y-167038140D01*
X81624714Y-167134902D01*
X81624714Y-167231664D01*
X81576333Y-167376807D01*
X80995761Y-167957379D01*
X81624714Y-167957379D01*
X82495571Y-167280045D02*
X82495571Y-167957379D01*
X82253666Y-166892998D02*
X82011761Y-167618712D01*
X82640714Y-167618712D01*
D11*
X69837714Y-131927285D02*
X69909142Y-131855857D01*
X70123428Y-131784428D01*
X70266285Y-131784428D01*
X70480571Y-131855857D01*
X70623428Y-131998714D01*
X70694857Y-132141571D01*
X70766285Y-132427285D01*
X70766285Y-132641571D01*
X70694857Y-132927285D01*
X70623428Y-133070142D01*
X70480571Y-133213000D01*
X70266285Y-133284428D01*
X70123428Y-133284428D01*
X69909142Y-133213000D01*
X69837714Y-133141571D01*
X68909142Y-133284428D02*
X68623428Y-133284428D01*
X68480571Y-133213000D01*
X68337714Y-133070142D01*
X68266285Y-132784428D01*
X68266285Y-132284428D01*
X68337714Y-131998714D01*
X68480571Y-131855857D01*
X68623428Y-131784428D01*
X68909142Y-131784428D01*
X69052000Y-131855857D01*
X69194857Y-131998714D01*
X69266285Y-132284428D01*
X69266285Y-132784428D01*
X69194857Y-133070142D01*
X69052000Y-133213000D01*
X68909142Y-133284428D01*
X67623428Y-131784428D02*
X67623428Y-133284428D01*
X66766285Y-131784428D01*
X66766285Y-133284428D01*
X65552000Y-132570142D02*
X66052000Y-132570142D01*
X66052000Y-131784428D02*
X66052000Y-133284428D01*
X65337714Y-133284428D01*
X64766285Y-131784428D02*
X64766285Y-133284428D01*
X63266285Y-133213000D02*
X63409142Y-133284428D01*
X63623428Y-133284428D01*
X63837714Y-133213000D01*
X63980571Y-133070142D01*
X64052000Y-132927285D01*
X64123428Y-132641571D01*
X64123428Y-132427285D01*
X64052000Y-132141571D01*
X63980571Y-131998714D01*
X63837714Y-131855857D01*
X63623428Y-131784428D01*
X63480571Y-131784428D01*
X63266285Y-131855857D01*
X63194857Y-131927285D01*
X63194857Y-132427285D01*
X63480571Y-132427285D01*
X70766285Y-129440857D02*
X70552000Y-129369428D01*
X70194857Y-129369428D01*
X70052000Y-129440857D01*
X69980571Y-129512285D01*
X69909142Y-129655142D01*
X69909142Y-129798000D01*
X69980571Y-129940857D01*
X70052000Y-130012285D01*
X70194857Y-130083714D01*
X70480571Y-130155142D01*
X70623428Y-130226571D01*
X70694857Y-130298000D01*
X70766285Y-130440857D01*
X70766285Y-130583714D01*
X70694857Y-130726571D01*
X70623428Y-130798000D01*
X70480571Y-130869428D01*
X70123428Y-130869428D01*
X69909142Y-130798000D01*
X68980571Y-130869428D02*
X68694857Y-130869428D01*
X68552000Y-130798000D01*
X68409142Y-130655142D01*
X68337714Y-130369428D01*
X68337714Y-129869428D01*
X68409142Y-129583714D01*
X68552000Y-129440857D01*
X68694857Y-129369428D01*
X68980571Y-129369428D01*
X69123428Y-129440857D01*
X69266285Y-129583714D01*
X69337714Y-129869428D01*
X69337714Y-130369428D01*
X69266285Y-130655142D01*
X69123428Y-130798000D01*
X68980571Y-130869428D01*
X66980571Y-129369428D02*
X67694857Y-129369428D01*
X67694857Y-130869428D01*
X66480571Y-129369428D02*
X66480571Y-130869428D01*
X66123428Y-130869428D01*
X65909142Y-130798000D01*
X65766285Y-130655142D01*
X65694857Y-130512285D01*
X65623428Y-130226571D01*
X65623428Y-130012285D01*
X65694857Y-129726571D01*
X65766285Y-129583714D01*
X65909142Y-129440857D01*
X66123428Y-129369428D01*
X66480571Y-129369428D01*
X64980571Y-130155142D02*
X64480571Y-130155142D01*
X64266285Y-129369428D02*
X64980571Y-129369428D01*
X64980571Y-130869428D01*
X64266285Y-130869428D01*
X62766285Y-129369428D02*
X63266285Y-130083714D01*
X63623428Y-129369428D02*
X63623428Y-130869428D01*
X63052000Y-130869428D01*
X62909142Y-130798000D01*
X62837714Y-130726571D01*
X62766285Y-130583714D01*
X62766285Y-130369428D01*
X62837714Y-130226571D01*
X62909142Y-130155142D01*
X63052000Y-130083714D01*
X63623428Y-130083714D01*
X70266285Y-128454428D02*
X70266285Y-127383000D01*
X70337714Y-127168714D01*
X70480571Y-127025857D01*
X70694857Y-126954428D01*
X70837714Y-126954428D01*
X69552000Y-128454428D02*
X69552000Y-127240142D01*
X69480571Y-127097285D01*
X69409142Y-127025857D01*
X69266285Y-126954428D01*
X68980571Y-126954428D01*
X68837714Y-127025857D01*
X68766285Y-127097285D01*
X68694857Y-127240142D01*
X68694857Y-128454428D01*
X67980571Y-126954428D02*
X67980571Y-128454428D01*
X67480571Y-127383000D01*
X66980571Y-128454428D01*
X66980571Y-126954428D01*
X66266285Y-126954428D02*
X66266285Y-128454428D01*
X65694857Y-128454428D01*
X65552000Y-128383000D01*
X65480571Y-128311571D01*
X65409142Y-128168714D01*
X65409142Y-127954428D01*
X65480571Y-127811571D01*
X65552000Y-127740142D01*
X65694857Y-127668714D01*
X66266285Y-127668714D01*
X64766285Y-127740142D02*
X64266285Y-127740142D01*
X64052000Y-126954428D02*
X64766285Y-126954428D01*
X64766285Y-128454428D01*
X64052000Y-128454428D01*
X62552000Y-126954428D02*
X63052000Y-127668714D01*
X63409142Y-126954428D02*
X63409142Y-128454428D01*
X62837714Y-128454428D01*
X62694857Y-128383000D01*
X62623428Y-128311571D01*
X62552000Y-128168714D01*
X62552000Y-127954428D01*
X62623428Y-127811571D01*
X62694857Y-127740142D01*
X62837714Y-127668714D01*
X63409142Y-127668714D01*
X61980571Y-127025857D02*
X61766285Y-126954428D01*
X61409142Y-126954428D01*
X61266285Y-127025857D01*
X61194857Y-127097285D01*
X61123428Y-127240142D01*
X61123428Y-127383000D01*
X61194857Y-127525857D01*
X61266285Y-127597285D01*
X61409142Y-127668714D01*
X61694857Y-127740142D01*
X61837714Y-127811571D01*
X61909142Y-127883000D01*
X61980571Y-128025857D01*
X61980571Y-128168714D01*
X61909142Y-128311571D01*
X61837714Y-128383000D01*
X61694857Y-128454428D01*
X61337714Y-128454428D01*
X61123428Y-128383000D01*
D13*
X48994285Y-136228666D02*
X48922857Y-136180285D01*
X48851428Y-136035142D01*
X48851428Y-135938380D01*
X48922857Y-135793238D01*
X49065714Y-135696476D01*
X49208571Y-135648095D01*
X49494285Y-135599714D01*
X49708571Y-135599714D01*
X49994285Y-135648095D01*
X50137142Y-135696476D01*
X50280000Y-135793238D01*
X50351428Y-135938380D01*
X50351428Y-136035142D01*
X50280000Y-136180285D01*
X50208571Y-136228666D01*
X49280000Y-136615714D02*
X49280000Y-137099523D01*
X48851428Y-136518952D02*
X50351428Y-136857619D01*
X48851428Y-137196285D01*
X50351428Y-137389809D02*
X50351428Y-137970380D01*
X48851428Y-137680095D02*
X50351428Y-137680095D01*
X48851428Y-138309047D02*
X50351428Y-138309047D01*
X49637142Y-138309047D02*
X49637142Y-138889619D01*
X48851428Y-138889619D02*
X50351428Y-138889619D01*
X50351428Y-139566952D02*
X50351428Y-139760476D01*
X50280000Y-139857238D01*
X50137142Y-139954000D01*
X49851428Y-140002380D01*
X49351428Y-140002380D01*
X49065714Y-139954000D01*
X48922857Y-139857238D01*
X48851428Y-139760476D01*
X48851428Y-139566952D01*
X48922857Y-139470190D01*
X49065714Y-139373428D01*
X49351428Y-139325047D01*
X49851428Y-139325047D01*
X50137142Y-139373428D01*
X50280000Y-139470190D01*
X50351428Y-139566952D01*
X48851428Y-140437809D02*
X50351428Y-140437809D01*
X50351428Y-140679714D01*
X50280000Y-140824857D01*
X50137142Y-140921619D01*
X49994285Y-140970000D01*
X49708571Y-141018380D01*
X49494285Y-141018380D01*
X49208571Y-140970000D01*
X49065714Y-140921619D01*
X48922857Y-140824857D01*
X48851428Y-140679714D01*
X48851428Y-140437809D01*
X49637142Y-141453809D02*
X49637142Y-141792476D01*
X48851428Y-141937619D02*
X48851428Y-141453809D01*
X50351428Y-141453809D01*
X50351428Y-141937619D01*
X48351428Y-143389047D02*
X50494285Y-143389047D01*
X49280000Y-144840476D02*
X49280000Y-145324285D01*
X48851428Y-144743714D02*
X50351428Y-145082380D01*
X48851428Y-145421047D01*
X48851428Y-145759714D02*
X50351428Y-145759714D01*
X48851428Y-146340285D01*
X50351428Y-146340285D01*
X50351428Y-147017619D02*
X50351428Y-147211142D01*
X50280000Y-147307904D01*
X50137142Y-147404666D01*
X49851428Y-147453047D01*
X49351428Y-147453047D01*
X49065714Y-147404666D01*
X48922857Y-147307904D01*
X48851428Y-147211142D01*
X48851428Y-147017619D01*
X48922857Y-146920857D01*
X49065714Y-146824095D01*
X49351428Y-146775714D01*
X49851428Y-146775714D01*
X50137142Y-146824095D01*
X50280000Y-146920857D01*
X50351428Y-147017619D01*
X48851428Y-147888476D02*
X50351428Y-147888476D01*
X50351428Y-148130380D01*
X50280000Y-148275523D01*
X50137142Y-148372285D01*
X49994285Y-148420666D01*
X49708571Y-148469047D01*
X49494285Y-148469047D01*
X49208571Y-148420666D01*
X49065714Y-148372285D01*
X48922857Y-148275523D01*
X48851428Y-148130380D01*
X48851428Y-147888476D01*
X49637142Y-148904476D02*
X49637142Y-149243142D01*
X48851428Y-149388285D02*
X48851428Y-148904476D01*
X50351428Y-148904476D01*
X50351428Y-149388285D01*
D11*
X29175357Y-140065571D02*
X29103928Y-140279857D01*
X29103928Y-140637000D01*
X29175357Y-140779857D01*
X29246785Y-140851285D01*
X29389642Y-140922714D01*
X29532500Y-140922714D01*
X29675357Y-140851285D01*
X29746785Y-140779857D01*
X29818214Y-140637000D01*
X29889642Y-140351285D01*
X29961071Y-140208428D01*
X30032500Y-140137000D01*
X30175357Y-140065571D01*
X30318214Y-140065571D01*
X30461071Y-140137000D01*
X30532500Y-140208428D01*
X30603928Y-140351285D01*
X30603928Y-140708428D01*
X30532500Y-140922714D01*
X29103928Y-141565571D02*
X30603928Y-141565571D01*
X30532500Y-143065571D02*
X30603928Y-142922714D01*
X30603928Y-142708428D01*
X30532500Y-142494142D01*
X30389642Y-142351285D01*
X30246785Y-142279857D01*
X29961071Y-142208428D01*
X29746785Y-142208428D01*
X29461071Y-142279857D01*
X29318214Y-142351285D01*
X29175357Y-142494142D01*
X29103928Y-142708428D01*
X29103928Y-142851285D01*
X29175357Y-143065571D01*
X29246785Y-143137000D01*
X29746785Y-143137000D01*
X29746785Y-142851285D01*
X29103928Y-143779857D02*
X30603928Y-143779857D01*
X29103928Y-144637000D01*
X30603928Y-144637000D01*
X29532500Y-145279857D02*
X29532500Y-145994142D01*
X29103928Y-145137000D02*
X30603928Y-145637000D01*
X29103928Y-146137000D01*
X29103928Y-147351285D02*
X29103928Y-146637000D01*
X30603928Y-146637000D01*
X26831785Y-140029857D02*
X26760357Y-139958428D01*
X26688928Y-139744142D01*
X26688928Y-139601285D01*
X26760357Y-139387000D01*
X26903214Y-139244142D01*
X27046071Y-139172714D01*
X27331785Y-139101285D01*
X27546071Y-139101285D01*
X27831785Y-139172714D01*
X27974642Y-139244142D01*
X28117500Y-139387000D01*
X28188928Y-139601285D01*
X28188928Y-139744142D01*
X28117500Y-139958428D01*
X28046071Y-140029857D01*
X28188928Y-140958428D02*
X28188928Y-141244142D01*
X28117500Y-141387000D01*
X27974642Y-141529857D01*
X27688928Y-141601285D01*
X27188928Y-141601285D01*
X26903214Y-141529857D01*
X26760357Y-141387000D01*
X26688928Y-141244142D01*
X26688928Y-140958428D01*
X26760357Y-140815571D01*
X26903214Y-140672714D01*
X27188928Y-140601285D01*
X27688928Y-140601285D01*
X27974642Y-140672714D01*
X28117500Y-140815571D01*
X28188928Y-140958428D01*
X26688928Y-142244142D02*
X28188928Y-142244142D01*
X27117500Y-142744142D01*
X28188928Y-143244142D01*
X26688928Y-143244142D01*
X26688928Y-143958428D02*
X28188928Y-143958428D01*
X27117500Y-144458428D01*
X28188928Y-144958428D01*
X26688928Y-144958428D01*
X28188928Y-145958428D02*
X28188928Y-146244142D01*
X28117500Y-146387000D01*
X27974642Y-146529857D01*
X27688928Y-146601285D01*
X27188928Y-146601285D01*
X26903214Y-146529857D01*
X26760357Y-146387000D01*
X26688928Y-146244142D01*
X26688928Y-145958428D01*
X26760357Y-145815571D01*
X26903214Y-145672714D01*
X27188928Y-145601285D01*
X27688928Y-145601285D01*
X27974642Y-145672714D01*
X28117500Y-145815571D01*
X28188928Y-145958428D01*
X26688928Y-147244142D02*
X28188928Y-147244142D01*
X26688928Y-148101285D01*
X28188928Y-148101285D01*
X80180571Y-189559000D02*
X78680571Y-189559000D01*
X79752000Y-189059000D01*
X78680571Y-188559000D01*
X80180571Y-188559000D01*
X80109142Y-187916142D02*
X80180571Y-187701857D01*
X80180571Y-187344714D01*
X80109142Y-187201857D01*
X80037714Y-187130428D01*
X79894857Y-187059000D01*
X79752000Y-187059000D01*
X79609142Y-187130428D01*
X79537714Y-187201857D01*
X79466285Y-187344714D01*
X79394857Y-187630428D01*
X79323428Y-187773285D01*
X79252000Y-187844714D01*
X79109142Y-187916142D01*
X78966285Y-187916142D01*
X78823428Y-187844714D01*
X78752000Y-187773285D01*
X78680571Y-187630428D01*
X78680571Y-187273285D01*
X78752000Y-187059000D01*
X80109142Y-186487571D02*
X80180571Y-186273285D01*
X80180571Y-185916142D01*
X80109142Y-185773285D01*
X80037714Y-185701857D01*
X79894857Y-185630428D01*
X79752000Y-185630428D01*
X79609142Y-185701857D01*
X79537714Y-185773285D01*
X79466285Y-185916142D01*
X79394857Y-186201857D01*
X79323428Y-186344714D01*
X79252000Y-186416142D01*
X79109142Y-186487571D01*
X78966285Y-186487571D01*
X78823428Y-186416142D01*
X78752000Y-186344714D01*
X78680571Y-186201857D01*
X78680571Y-185844714D01*
X78752000Y-185630428D01*
X79394857Y-183344714D02*
X79466285Y-183130428D01*
X79537714Y-183059000D01*
X79680571Y-182987571D01*
X79894857Y-182987571D01*
X80037714Y-183059000D01*
X80109142Y-183130428D01*
X80180571Y-183273285D01*
X80180571Y-183844714D01*
X78680571Y-183844714D01*
X78680571Y-183344714D01*
X78752000Y-183201857D01*
X78823428Y-183130428D01*
X78966285Y-183059000D01*
X79109142Y-183059000D01*
X79252000Y-183130428D01*
X79323428Y-183201857D01*
X79394857Y-183344714D01*
X79394857Y-183844714D01*
X99587857Y-171588571D02*
X99659285Y-171374285D01*
X99730714Y-171302857D01*
X99873571Y-171231428D01*
X100087857Y-171231428D01*
X100230714Y-171302857D01*
X100302142Y-171374285D01*
X100373571Y-171517142D01*
X100373571Y-172088571D01*
X98873571Y-172088571D01*
X98873571Y-171588571D01*
X98945000Y-171445714D01*
X99016428Y-171374285D01*
X99159285Y-171302857D01*
X99302142Y-171302857D01*
X99445000Y-171374285D01*
X99516428Y-171445714D01*
X99587857Y-171588571D01*
X99587857Y-172088571D01*
X100373571Y-170588571D02*
X98873571Y-170588571D01*
X98873571Y-170231428D01*
X98945000Y-170017142D01*
X99087857Y-169874285D01*
X99230714Y-169802857D01*
X99516428Y-169731428D01*
X99730714Y-169731428D01*
X100016428Y-169802857D01*
X100159285Y-169874285D01*
X100302142Y-170017142D01*
X100373571Y-170231428D01*
X100373571Y-170588571D01*
X100373571Y-168302857D02*
X100373571Y-169160000D01*
X100373571Y-168731428D02*
X98873571Y-168731428D01*
X99087857Y-168874285D01*
X99230714Y-169017142D01*
X99302142Y-169160000D01*
X99587857Y-166017142D02*
X99659285Y-165802857D01*
X99730714Y-165731428D01*
X99873571Y-165660000D01*
X100087857Y-165660000D01*
X100230714Y-165731428D01*
X100302142Y-165802857D01*
X100373571Y-165945714D01*
X100373571Y-166517142D01*
X98873571Y-166517142D01*
X98873571Y-166017142D01*
X98945000Y-165874285D01*
X99016428Y-165802857D01*
X99159285Y-165731428D01*
X99302142Y-165731428D01*
X99445000Y-165802857D01*
X99516428Y-165874285D01*
X99587857Y-166017142D01*
X99587857Y-166517142D01*
X51653714Y-172445071D02*
X51653714Y-170945071D01*
X52225142Y-170945071D01*
X52368000Y-171016500D01*
X52439428Y-171087928D01*
X52510857Y-171230785D01*
X52510857Y-171445071D01*
X52439428Y-171587928D01*
X52368000Y-171659357D01*
X52225142Y-171730785D01*
X51653714Y-171730785D01*
X53439428Y-170945071D02*
X53725142Y-170945071D01*
X53868000Y-171016500D01*
X54010857Y-171159357D01*
X54082285Y-171445071D01*
X54082285Y-171945071D01*
X54010857Y-172230785D01*
X53868000Y-172373642D01*
X53725142Y-172445071D01*
X53439428Y-172445071D01*
X53296571Y-172373642D01*
X53153714Y-172230785D01*
X53082285Y-171945071D01*
X53082285Y-171445071D01*
X53153714Y-171159357D01*
X53296571Y-171016500D01*
X53439428Y-170945071D01*
X54582285Y-170945071D02*
X54939428Y-172445071D01*
X55225142Y-171373642D01*
X55510857Y-172445071D01*
X55868000Y-170945071D01*
X56439428Y-171659357D02*
X56939428Y-171659357D01*
X57153714Y-172445071D02*
X56439428Y-172445071D01*
X56439428Y-170945071D01*
X57153714Y-170945071D01*
X58653714Y-172445071D02*
X58153714Y-171730785D01*
X57796571Y-172445071D02*
X57796571Y-170945071D01*
X58368000Y-170945071D01*
X58510857Y-171016500D01*
X58582285Y-171087928D01*
X58653714Y-171230785D01*
X58653714Y-171445071D01*
X58582285Y-171587928D01*
X58510857Y-171659357D01*
X58368000Y-171730785D01*
X57796571Y-171730785D01*
X54189428Y-173360071D02*
X54475142Y-173360071D01*
X54618000Y-173431500D01*
X54760857Y-173574357D01*
X54832285Y-173860071D01*
X54832285Y-174360071D01*
X54760857Y-174645785D01*
X54618000Y-174788642D01*
X54475142Y-174860071D01*
X54189428Y-174860071D01*
X54046571Y-174788642D01*
X53903714Y-174645785D01*
X53832285Y-174360071D01*
X53832285Y-173860071D01*
X53903714Y-173574357D01*
X54046571Y-173431500D01*
X54189428Y-173360071D01*
X55475142Y-174860071D02*
X55475142Y-173360071D01*
X56332285Y-174860071D01*
X56332285Y-173360071D01*
X63312857Y-123090857D02*
X63098571Y-123019428D01*
X62741428Y-123019428D01*
X62598571Y-123090857D01*
X62527142Y-123162285D01*
X62455714Y-123305142D01*
X62455714Y-123448000D01*
X62527142Y-123590857D01*
X62598571Y-123662285D01*
X62741428Y-123733714D01*
X63027142Y-123805142D01*
X63170000Y-123876571D01*
X63241428Y-123948000D01*
X63312857Y-124090857D01*
X63312857Y-124233714D01*
X63241428Y-124376571D01*
X63170000Y-124448000D01*
X63027142Y-124519428D01*
X62670000Y-124519428D01*
X62455714Y-124448000D01*
X61812857Y-123019428D02*
X61812857Y-124519428D01*
X60312857Y-124448000D02*
X60455714Y-124519428D01*
X60670000Y-124519428D01*
X60884285Y-124448000D01*
X61027142Y-124305142D01*
X61098571Y-124162285D01*
X61170000Y-123876571D01*
X61170000Y-123662285D01*
X61098571Y-123376571D01*
X61027142Y-123233714D01*
X60884285Y-123090857D01*
X60670000Y-123019428D01*
X60527142Y-123019428D01*
X60312857Y-123090857D01*
X60241428Y-123162285D01*
X60241428Y-123662285D01*
X60527142Y-123662285D01*
X59598571Y-123019428D02*
X59598571Y-124519428D01*
X58741428Y-123019428D01*
X58741428Y-124519428D01*
X58098571Y-123448000D02*
X57384285Y-123448000D01*
X58241428Y-123019428D02*
X57741428Y-124519428D01*
X57241428Y-123019428D01*
X56027142Y-123019428D02*
X56741428Y-123019428D01*
X56741428Y-124519428D01*
X53884285Y-123805142D02*
X53670000Y-123733714D01*
X53598571Y-123662285D01*
X53527142Y-123519428D01*
X53527142Y-123305142D01*
X53598571Y-123162285D01*
X53670000Y-123090857D01*
X53812857Y-123019428D01*
X54384285Y-123019428D01*
X54384285Y-124519428D01*
X53884285Y-124519428D01*
X53741428Y-124448000D01*
X53670000Y-124376571D01*
X53598571Y-124233714D01*
X53598571Y-124090857D01*
X53670000Y-123948000D01*
X53741428Y-123876571D01*
X53884285Y-123805142D01*
X54384285Y-123805142D01*
X76684142Y-131703000D02*
X75969857Y-131703000D01*
X76827000Y-131274428D02*
X76327000Y-132774428D01*
X75827000Y-131274428D01*
X26824857Y-126024285D02*
X26753428Y-126238571D01*
X26753428Y-126595714D01*
X26824857Y-126738571D01*
X26896285Y-126810000D01*
X27039142Y-126881428D01*
X27182000Y-126881428D01*
X27324857Y-126810000D01*
X27396285Y-126738571D01*
X27467714Y-126595714D01*
X27539142Y-126310000D01*
X27610571Y-126167142D01*
X27682000Y-126095714D01*
X27824857Y-126024285D01*
X27967714Y-126024285D01*
X28110571Y-126095714D01*
X28182000Y-126167142D01*
X28253428Y-126310000D01*
X28253428Y-126667142D01*
X28182000Y-126881428D01*
X26753428Y-127524285D02*
X28253428Y-127524285D01*
X28182000Y-129024285D02*
X28253428Y-128881428D01*
X28253428Y-128667142D01*
X28182000Y-128452857D01*
X28039142Y-128310000D01*
X27896285Y-128238571D01*
X27610571Y-128167142D01*
X27396285Y-128167142D01*
X27110571Y-128238571D01*
X26967714Y-128310000D01*
X26824857Y-128452857D01*
X26753428Y-128667142D01*
X26753428Y-128810000D01*
X26824857Y-129024285D01*
X26896285Y-129095714D01*
X27396285Y-129095714D01*
X27396285Y-128810000D01*
X26753428Y-129738571D02*
X28253428Y-129738571D01*
X26753428Y-130595714D01*
X28253428Y-130595714D01*
X27182000Y-131238571D02*
X27182000Y-131952857D01*
X26753428Y-131095714D02*
X28253428Y-131595714D01*
X26753428Y-132095714D01*
X26753428Y-133310000D02*
X26753428Y-132595714D01*
X28253428Y-132595714D01*
X27182000Y-134881428D02*
X27182000Y-135595714D01*
X26753428Y-134738571D02*
X28253428Y-135238571D01*
X26753428Y-135738571D01*
D15*
X65905142Y-189047380D02*
X65571809Y-188571190D01*
X65333714Y-189047380D02*
X65333714Y-188047380D01*
X65714666Y-188047380D01*
X65809904Y-188095000D01*
X65857523Y-188142619D01*
X65905142Y-188237857D01*
X65905142Y-188380714D01*
X65857523Y-188475952D01*
X65809904Y-188523571D01*
X65714666Y-188571190D01*
X65333714Y-188571190D01*
X66857523Y-189047380D02*
X66286095Y-189047380D01*
X66571809Y-189047380D02*
X66571809Y-188047380D01*
X66476571Y-188190238D01*
X66381333Y-188285476D01*
X66286095Y-188333095D01*
X67190857Y-188047380D02*
X67857523Y-188047380D01*
X67428952Y-189047380D01*
X94181704Y-142819380D02*
X94181704Y-141819380D01*
X94419800Y-141819380D01*
X94562657Y-141867000D01*
X94657895Y-141962238D01*
X94705514Y-142057476D01*
X94753133Y-142247952D01*
X94753133Y-142390809D01*
X94705514Y-142581285D01*
X94657895Y-142676523D01*
X94562657Y-142771761D01*
X94419800Y-142819380D01*
X94181704Y-142819380D01*
X95086466Y-141819380D02*
X95753133Y-141819380D01*
X95324561Y-142819380D01*
X92389397Y-149423380D02*
X92056064Y-148947190D01*
X91817968Y-149423380D02*
X91817968Y-148423380D01*
X92198921Y-148423380D01*
X92294159Y-148471000D01*
X92341778Y-148518619D01*
X92389397Y-148613857D01*
X92389397Y-148756714D01*
X92341778Y-148851952D01*
X92294159Y-148899571D01*
X92198921Y-148947190D01*
X91817968Y-148947190D01*
X92865587Y-149423380D02*
X93056064Y-149423380D01*
X93151302Y-149375761D01*
X93198921Y-149328142D01*
X93294159Y-149185285D01*
X93341778Y-148994809D01*
X93341778Y-148613857D01*
X93294159Y-148518619D01*
X93246540Y-148471000D01*
X93151302Y-148423380D01*
X92960825Y-148423380D01*
X92865587Y-148471000D01*
X92817968Y-148518619D01*
X92770349Y-148613857D01*
X92770349Y-148851952D01*
X92817968Y-148947190D01*
X92865587Y-148994809D01*
X92960825Y-149042428D01*
X93151302Y-149042428D01*
X93246540Y-148994809D01*
X93294159Y-148947190D01*
X93341778Y-148851952D01*
X92421206Y-158186380D02*
X92087873Y-157710190D01*
X91849778Y-158186380D02*
X91849778Y-157186380D01*
X92230730Y-157186380D01*
X92325968Y-157234000D01*
X92373587Y-157281619D01*
X92421206Y-157376857D01*
X92421206Y-157519714D01*
X92373587Y-157614952D01*
X92325968Y-157662571D01*
X92230730Y-157710190D01*
X91849778Y-157710190D01*
X93373587Y-158186380D02*
X92802159Y-158186380D01*
X93087873Y-158186380D02*
X93087873Y-157186380D01*
X92992635Y-157329238D01*
X92897397Y-157424476D01*
X92802159Y-157472095D01*
X93754540Y-157281619D02*
X93802159Y-157234000D01*
X93897397Y-157186380D01*
X94135492Y-157186380D01*
X94230730Y-157234000D01*
X94278349Y-157281619D01*
X94325968Y-157376857D01*
X94325968Y-157472095D01*
X94278349Y-157614952D01*
X93706921Y-158186380D01*
X94325968Y-158186380D01*
X62182476Y-121118380D02*
X62182476Y-121832666D01*
X62134857Y-121975523D01*
X62039619Y-122070761D01*
X61896761Y-122118380D01*
X61801523Y-122118380D01*
X63182476Y-122118380D02*
X62611047Y-122118380D01*
X62896761Y-122118380D02*
X62896761Y-121118380D01*
X62801523Y-121261238D01*
X62706285Y-121356476D01*
X62611047Y-121404095D01*
X63563428Y-121213619D02*
X63611047Y-121166000D01*
X63706285Y-121118380D01*
X63944380Y-121118380D01*
X64039619Y-121166000D01*
X64087238Y-121213619D01*
X64134857Y-121308857D01*
X64134857Y-121404095D01*
X64087238Y-121546952D01*
X63515809Y-122118380D01*
X64134857Y-122118380D01*
X43934142Y-127706380D02*
X43600809Y-127230190D01*
X43362714Y-127706380D02*
X43362714Y-126706380D01*
X43743666Y-126706380D01*
X43838904Y-126754000D01*
X43886523Y-126801619D01*
X43934142Y-126896857D01*
X43934142Y-127039714D01*
X43886523Y-127134952D01*
X43838904Y-127182571D01*
X43743666Y-127230190D01*
X43362714Y-127230190D01*
X44315095Y-126801619D02*
X44362714Y-126754000D01*
X44457952Y-126706380D01*
X44696047Y-126706380D01*
X44791285Y-126754000D01*
X44838904Y-126801619D01*
X44886523Y-126896857D01*
X44886523Y-126992095D01*
X44838904Y-127134952D01*
X44267476Y-127706380D01*
X44886523Y-127706380D01*
X45505571Y-126706380D02*
X45600809Y-126706380D01*
X45696047Y-126754000D01*
X45743666Y-126801619D01*
X45791285Y-126896857D01*
X45838904Y-127087333D01*
X45838904Y-127325428D01*
X45791285Y-127515904D01*
X45743666Y-127611142D01*
X45696047Y-127658761D01*
X45600809Y-127706380D01*
X45505571Y-127706380D01*
X45410333Y-127658761D01*
X45362714Y-127611142D01*
X45315095Y-127515904D01*
X45267476Y-127325428D01*
X45267476Y-127087333D01*
X45315095Y-126896857D01*
X45362714Y-126801619D01*
X45410333Y-126754000D01*
X45505571Y-126706380D01*
X92421206Y-152344380D02*
X92087873Y-151868190D01*
X91849778Y-152344380D02*
X91849778Y-151344380D01*
X92230730Y-151344380D01*
X92325968Y-151392000D01*
X92373587Y-151439619D01*
X92421206Y-151534857D01*
X92421206Y-151677714D01*
X92373587Y-151772952D01*
X92325968Y-151820571D01*
X92230730Y-151868190D01*
X91849778Y-151868190D01*
X93373587Y-152344380D02*
X92802159Y-152344380D01*
X93087873Y-152344380D02*
X93087873Y-151344380D01*
X92992635Y-151487238D01*
X92897397Y-151582476D01*
X92802159Y-151630095D01*
X93992635Y-151344380D02*
X94087873Y-151344380D01*
X94183111Y-151392000D01*
X94230730Y-151439619D01*
X94278349Y-151534857D01*
X94325968Y-151725333D01*
X94325968Y-151963428D01*
X94278349Y-152153904D01*
X94230730Y-152249142D01*
X94183111Y-152296761D01*
X94087873Y-152344380D01*
X93992635Y-152344380D01*
X93897397Y-152296761D01*
X93849778Y-152249142D01*
X93802159Y-152153904D01*
X93754540Y-151963428D01*
X93754540Y-151725333D01*
X93802159Y-151534857D01*
X93849778Y-151439619D01*
X93897397Y-151392000D01*
X93992635Y-151344380D01*
X44283333Y-172950142D02*
X44235714Y-172997761D01*
X44092857Y-173045380D01*
X43997619Y-173045380D01*
X43854761Y-172997761D01*
X43759523Y-172902523D01*
X43711904Y-172807285D01*
X43664285Y-172616809D01*
X43664285Y-172473952D01*
X43711904Y-172283476D01*
X43759523Y-172188238D01*
X43854761Y-172093000D01*
X43997619Y-172045380D01*
X44092857Y-172045380D01*
X44235714Y-172093000D01*
X44283333Y-172140619D01*
X45235714Y-173045380D02*
X44664285Y-173045380D01*
X44950000Y-173045380D02*
X44950000Y-172045380D01*
X44854761Y-172188238D01*
X44759523Y-172283476D01*
X44664285Y-172331095D01*
X105878380Y-148923333D02*
X106592666Y-148923333D01*
X106735523Y-148970952D01*
X106830761Y-149066190D01*
X106878380Y-149209047D01*
X106878380Y-149304285D01*
X105973619Y-148494761D02*
X105926000Y-148447142D01*
X105878380Y-148351904D01*
X105878380Y-148113809D01*
X105926000Y-148018571D01*
X105973619Y-147970952D01*
X106068857Y-147923333D01*
X106164095Y-147923333D01*
X106306952Y-147970952D01*
X106878380Y-148542380D01*
X106878380Y-147923333D01*
X64611642Y-143962380D02*
X64278309Y-143486190D01*
X64040214Y-143962380D02*
X64040214Y-142962380D01*
X64421166Y-142962380D01*
X64516404Y-143010000D01*
X64564023Y-143057619D01*
X64611642Y-143152857D01*
X64611642Y-143295714D01*
X64564023Y-143390952D01*
X64516404Y-143438571D01*
X64421166Y-143486190D01*
X64040214Y-143486190D01*
X64992595Y-143057619D02*
X65040214Y-143010000D01*
X65135452Y-142962380D01*
X65373547Y-142962380D01*
X65468785Y-143010000D01*
X65516404Y-143057619D01*
X65564023Y-143152857D01*
X65564023Y-143248095D01*
X65516404Y-143390952D01*
X64944976Y-143962380D01*
X65564023Y-143962380D01*
X65897357Y-142962380D02*
X66564023Y-142962380D01*
X66135452Y-143962380D01*
X65905142Y-183740380D02*
X65571809Y-183264190D01*
X65333714Y-183740380D02*
X65333714Y-182740380D01*
X65714666Y-182740380D01*
X65809904Y-182788000D01*
X65857523Y-182835619D01*
X65905142Y-182930857D01*
X65905142Y-183073714D01*
X65857523Y-183168952D01*
X65809904Y-183216571D01*
X65714666Y-183264190D01*
X65333714Y-183264190D01*
X66857523Y-183740380D02*
X66286095Y-183740380D01*
X66571809Y-183740380D02*
X66571809Y-182740380D01*
X66476571Y-182883238D01*
X66381333Y-182978476D01*
X66286095Y-183026095D01*
X67428952Y-183168952D02*
X67333714Y-183121333D01*
X67286095Y-183073714D01*
X67238476Y-182978476D01*
X67238476Y-182930857D01*
X67286095Y-182835619D01*
X67333714Y-182788000D01*
X67428952Y-182740380D01*
X67619428Y-182740380D01*
X67714666Y-182788000D01*
X67762285Y-182835619D01*
X67809904Y-182930857D01*
X67809904Y-182978476D01*
X67762285Y-183073714D01*
X67714666Y-183121333D01*
X67619428Y-183168952D01*
X67428952Y-183168952D01*
X67333714Y-183216571D01*
X67286095Y-183264190D01*
X67238476Y-183359428D01*
X67238476Y-183549904D01*
X67286095Y-183645142D01*
X67333714Y-183692761D01*
X67428952Y-183740380D01*
X67619428Y-183740380D01*
X67714666Y-183692761D01*
X67762285Y-183645142D01*
X67809904Y-183549904D01*
X67809904Y-183359428D01*
X67762285Y-183264190D01*
X67714666Y-183216571D01*
X67619428Y-183168952D01*
X86193333Y-158091142D02*
X86145714Y-158138761D01*
X86002857Y-158186380D01*
X85907619Y-158186380D01*
X85764761Y-158138761D01*
X85669523Y-158043523D01*
X85621904Y-157948285D01*
X85574285Y-157757809D01*
X85574285Y-157614952D01*
X85621904Y-157424476D01*
X85669523Y-157329238D01*
X85764761Y-157234000D01*
X85907619Y-157186380D01*
X86002857Y-157186380D01*
X86145714Y-157234000D01*
X86193333Y-157281619D01*
X86526666Y-157186380D02*
X87193333Y-157186380D01*
X86764761Y-158186380D01*
X69833833Y-185237380D02*
X69500500Y-184761190D01*
X69262404Y-185237380D02*
X69262404Y-184237380D01*
X69643357Y-184237380D01*
X69738595Y-184285000D01*
X69786214Y-184332619D01*
X69833833Y-184427857D01*
X69833833Y-184570714D01*
X69786214Y-184665952D01*
X69738595Y-184713571D01*
X69643357Y-184761190D01*
X69262404Y-184761190D01*
X70690976Y-184237380D02*
X70500500Y-184237380D01*
X70405261Y-184285000D01*
X70357642Y-184332619D01*
X70262404Y-184475476D01*
X70214785Y-184665952D01*
X70214785Y-185046904D01*
X70262404Y-185142142D01*
X70310023Y-185189761D01*
X70405261Y-185237380D01*
X70595738Y-185237380D01*
X70690976Y-185189761D01*
X70738595Y-185142142D01*
X70786214Y-185046904D01*
X70786214Y-184808809D01*
X70738595Y-184713571D01*
X70690976Y-184665952D01*
X70595738Y-184618333D01*
X70405261Y-184618333D01*
X70310023Y-184665952D01*
X70262404Y-184713571D01*
X70214785Y-184808809D01*
X50220666Y-133691380D02*
X50220666Y-134405666D01*
X50173047Y-134548523D01*
X50077809Y-134643761D01*
X49934952Y-134691380D01*
X49839714Y-134691380D01*
X50696857Y-134691380D02*
X50696857Y-133691380D01*
X51077809Y-133691380D01*
X51173047Y-133739000D01*
X51220666Y-133786619D01*
X51268285Y-133881857D01*
X51268285Y-134024714D01*
X51220666Y-134119952D01*
X51173047Y-134167571D01*
X51077809Y-134215190D01*
X50696857Y-134215190D01*
X51601619Y-133691380D02*
X52220666Y-133691380D01*
X51887333Y-134072333D01*
X52030190Y-134072333D01*
X52125428Y-134119952D01*
X52173047Y-134167571D01*
X52220666Y-134262809D01*
X52220666Y-134500904D01*
X52173047Y-134596142D01*
X52125428Y-134643761D01*
X52030190Y-134691380D01*
X51744476Y-134691380D01*
X51649238Y-134643761D01*
X51601619Y-134596142D01*
X47458333Y-169489380D02*
X47125000Y-169013190D01*
X46886904Y-169489380D02*
X46886904Y-168489380D01*
X47267857Y-168489380D01*
X47363095Y-168537000D01*
X47410714Y-168584619D01*
X47458333Y-168679857D01*
X47458333Y-168822714D01*
X47410714Y-168917952D01*
X47363095Y-168965571D01*
X47267857Y-169013190D01*
X46886904Y-169013190D01*
X48410714Y-169489380D02*
X47839285Y-169489380D01*
X48125000Y-169489380D02*
X48125000Y-168489380D01*
X48029761Y-168632238D01*
X47934523Y-168727476D01*
X47839285Y-168775095D01*
X47585333Y-183491142D02*
X47537714Y-183538761D01*
X47394857Y-183586380D01*
X47299619Y-183586380D01*
X47156761Y-183538761D01*
X47061523Y-183443523D01*
X47013904Y-183348285D01*
X46966285Y-183157809D01*
X46966285Y-183014952D01*
X47013904Y-182824476D01*
X47061523Y-182729238D01*
X47156761Y-182634000D01*
X47299619Y-182586380D01*
X47394857Y-182586380D01*
X47537714Y-182634000D01*
X47585333Y-182681619D01*
X47966285Y-182681619D02*
X48013904Y-182634000D01*
X48109142Y-182586380D01*
X48347238Y-182586380D01*
X48442476Y-182634000D01*
X48490095Y-182681619D01*
X48537714Y-182776857D01*
X48537714Y-182872095D01*
X48490095Y-183014952D01*
X47918666Y-183586380D01*
X48537714Y-183586380D01*
X64508142Y-138882380D02*
X64174809Y-138406190D01*
X63936714Y-138882380D02*
X63936714Y-137882380D01*
X64317666Y-137882380D01*
X64412904Y-137930000D01*
X64460523Y-137977619D01*
X64508142Y-138072857D01*
X64508142Y-138215714D01*
X64460523Y-138310952D01*
X64412904Y-138358571D01*
X64317666Y-138406190D01*
X63936714Y-138406190D01*
X64889095Y-137977619D02*
X64936714Y-137930000D01*
X65031952Y-137882380D01*
X65270047Y-137882380D01*
X65365285Y-137930000D01*
X65412904Y-137977619D01*
X65460523Y-138072857D01*
X65460523Y-138168095D01*
X65412904Y-138310952D01*
X64841476Y-138882380D01*
X65460523Y-138882380D01*
X65936714Y-138882380D02*
X66127190Y-138882380D01*
X66222428Y-138834761D01*
X66270047Y-138787142D01*
X66365285Y-138644285D01*
X66412904Y-138453809D01*
X66412904Y-138072857D01*
X66365285Y-137977619D01*
X66317666Y-137930000D01*
X66222428Y-137882380D01*
X66031952Y-137882380D01*
X65936714Y-137930000D01*
X65889095Y-137977619D01*
X65841476Y-138072857D01*
X65841476Y-138310952D01*
X65889095Y-138406190D01*
X65936714Y-138453809D01*
X66031952Y-138501428D01*
X66222428Y-138501428D01*
X66317666Y-138453809D01*
X66365285Y-138406190D01*
X66412904Y-138310952D01*
X84859904Y-170124380D02*
X84859904Y-169124380D01*
X85098000Y-169124380D01*
X85240857Y-169172000D01*
X85336095Y-169267238D01*
X85383714Y-169362476D01*
X85431333Y-169552952D01*
X85431333Y-169695809D01*
X85383714Y-169886285D01*
X85336095Y-169981523D01*
X85240857Y-170076761D01*
X85098000Y-170124380D01*
X84859904Y-170124380D01*
X86288476Y-169124380D02*
X86098000Y-169124380D01*
X86002761Y-169172000D01*
X85955142Y-169219619D01*
X85859904Y-169362476D01*
X85812285Y-169552952D01*
X85812285Y-169933904D01*
X85859904Y-170029142D01*
X85907523Y-170076761D01*
X86002761Y-170124380D01*
X86193238Y-170124380D01*
X86288476Y-170076761D01*
X86336095Y-170029142D01*
X86383714Y-169933904D01*
X86383714Y-169695809D01*
X86336095Y-169600571D01*
X86288476Y-169552952D01*
X86193238Y-169505333D01*
X86002761Y-169505333D01*
X85907523Y-169552952D01*
X85859904Y-169600571D01*
X85812285Y-169695809D01*
X72318666Y-128992380D02*
X72318666Y-129706666D01*
X72271047Y-129849523D01*
X72175809Y-129944761D01*
X72032952Y-129992380D01*
X71937714Y-129992380D01*
X72794857Y-129992380D02*
X72794857Y-128992380D01*
X73175809Y-128992380D01*
X73271047Y-129040000D01*
X73318666Y-129087619D01*
X73366285Y-129182857D01*
X73366285Y-129325714D01*
X73318666Y-129420952D01*
X73271047Y-129468571D01*
X73175809Y-129516190D01*
X72794857Y-129516190D01*
X73842476Y-129992380D02*
X74032952Y-129992380D01*
X74128190Y-129944761D01*
X74175809Y-129897142D01*
X74271047Y-129754285D01*
X74318666Y-129563809D01*
X74318666Y-129182857D01*
X74271047Y-129087619D01*
X74223428Y-129040000D01*
X74128190Y-128992380D01*
X73937714Y-128992380D01*
X73842476Y-129040000D01*
X73794857Y-129087619D01*
X73747238Y-129182857D01*
X73747238Y-129420952D01*
X73794857Y-129516190D01*
X73842476Y-129563809D01*
X73937714Y-129611428D01*
X74128190Y-129611428D01*
X74223428Y-129563809D01*
X74271047Y-129516190D01*
X74318666Y-129420952D01*
X72636142Y-143581380D02*
X72302809Y-143105190D01*
X72064714Y-143581380D02*
X72064714Y-142581380D01*
X72445666Y-142581380D01*
X72540904Y-142629000D01*
X72588523Y-142676619D01*
X72636142Y-142771857D01*
X72636142Y-142914714D01*
X72588523Y-143009952D01*
X72540904Y-143057571D01*
X72445666Y-143105190D01*
X72064714Y-143105190D01*
X72969476Y-142581380D02*
X73588523Y-142581380D01*
X73255190Y-142962333D01*
X73398047Y-142962333D01*
X73493285Y-143009952D01*
X73540904Y-143057571D01*
X73588523Y-143152809D01*
X73588523Y-143390904D01*
X73540904Y-143486142D01*
X73493285Y-143533761D01*
X73398047Y-143581380D01*
X73112333Y-143581380D01*
X73017095Y-143533761D01*
X72969476Y-143486142D01*
X73969476Y-142676619D02*
X74017095Y-142629000D01*
X74112333Y-142581380D01*
X74350428Y-142581380D01*
X74445666Y-142629000D01*
X74493285Y-142676619D01*
X74540904Y-142771857D01*
X74540904Y-142867095D01*
X74493285Y-143009952D01*
X73921857Y-143581380D01*
X74540904Y-143581380D01*
X43934142Y-153106380D02*
X43600809Y-152630190D01*
X43362714Y-153106380D02*
X43362714Y-152106380D01*
X43743666Y-152106380D01*
X43838904Y-152154000D01*
X43886523Y-152201619D01*
X43934142Y-152296857D01*
X43934142Y-152439714D01*
X43886523Y-152534952D01*
X43838904Y-152582571D01*
X43743666Y-152630190D01*
X43362714Y-152630190D01*
X44315095Y-152201619D02*
X44362714Y-152154000D01*
X44457952Y-152106380D01*
X44696047Y-152106380D01*
X44791285Y-152154000D01*
X44838904Y-152201619D01*
X44886523Y-152296857D01*
X44886523Y-152392095D01*
X44838904Y-152534952D01*
X44267476Y-153106380D01*
X44886523Y-153106380D01*
X45219857Y-152106380D02*
X45838904Y-152106380D01*
X45505571Y-152487333D01*
X45648428Y-152487333D01*
X45743666Y-152534952D01*
X45791285Y-152582571D01*
X45838904Y-152677809D01*
X45838904Y-152915904D01*
X45791285Y-153011142D01*
X45743666Y-153058761D01*
X45648428Y-153106380D01*
X45362714Y-153106380D01*
X45267476Y-153058761D01*
X45219857Y-153011142D01*
X48760142Y-167076380D02*
X48426809Y-166600190D01*
X48188714Y-167076380D02*
X48188714Y-166076380D01*
X48569666Y-166076380D01*
X48664904Y-166124000D01*
X48712523Y-166171619D01*
X48760142Y-166266857D01*
X48760142Y-166409714D01*
X48712523Y-166504952D01*
X48664904Y-166552571D01*
X48569666Y-166600190D01*
X48188714Y-166600190D01*
X49712523Y-167076380D02*
X49141095Y-167076380D01*
X49426809Y-167076380D02*
X49426809Y-166076380D01*
X49331571Y-166219238D01*
X49236333Y-166314476D01*
X49141095Y-166362095D01*
X50569666Y-166409714D02*
X50569666Y-167076380D01*
X50331571Y-166028761D02*
X50093476Y-166743047D01*
X50712523Y-166743047D01*
X50220666Y-152360380D02*
X50220666Y-153074666D01*
X50173047Y-153217523D01*
X50077809Y-153312761D01*
X49934952Y-153360380D01*
X49839714Y-153360380D01*
X50696857Y-153360380D02*
X50696857Y-152360380D01*
X51077809Y-152360380D01*
X51173047Y-152408000D01*
X51220666Y-152455619D01*
X51268285Y-152550857D01*
X51268285Y-152693714D01*
X51220666Y-152788952D01*
X51173047Y-152836571D01*
X51077809Y-152884190D01*
X50696857Y-152884190D01*
X52125428Y-152693714D02*
X52125428Y-153360380D01*
X51887333Y-152312761D02*
X51649238Y-153027047D01*
X52268285Y-153027047D01*
X43934142Y-156535380D02*
X43600809Y-156059190D01*
X43362714Y-156535380D02*
X43362714Y-155535380D01*
X43743666Y-155535380D01*
X43838904Y-155583000D01*
X43886523Y-155630619D01*
X43934142Y-155725857D01*
X43934142Y-155868714D01*
X43886523Y-155963952D01*
X43838904Y-156011571D01*
X43743666Y-156059190D01*
X43362714Y-156059190D01*
X44315095Y-155630619D02*
X44362714Y-155583000D01*
X44457952Y-155535380D01*
X44696047Y-155535380D01*
X44791285Y-155583000D01*
X44838904Y-155630619D01*
X44886523Y-155725857D01*
X44886523Y-155821095D01*
X44838904Y-155963952D01*
X44267476Y-156535380D01*
X44886523Y-156535380D01*
X45743666Y-155868714D02*
X45743666Y-156535380D01*
X45505571Y-155487761D02*
X45267476Y-156202047D01*
X45886523Y-156202047D01*
X86193333Y-155170142D02*
X86145714Y-155217761D01*
X86002857Y-155265380D01*
X85907619Y-155265380D01*
X85764761Y-155217761D01*
X85669523Y-155122523D01*
X85621904Y-155027285D01*
X85574285Y-154836809D01*
X85574285Y-154693952D01*
X85621904Y-154503476D01*
X85669523Y-154408238D01*
X85764761Y-154313000D01*
X85907619Y-154265380D01*
X86002857Y-154265380D01*
X86145714Y-154313000D01*
X86193333Y-154360619D01*
X87050476Y-154598714D02*
X87050476Y-155265380D01*
X86812380Y-154217761D02*
X86574285Y-154932047D01*
X87193333Y-154932047D01*
X56507142Y-144851380D02*
X56173809Y-144375190D01*
X55935714Y-144851380D02*
X55935714Y-143851380D01*
X56316666Y-143851380D01*
X56411904Y-143899000D01*
X56459523Y-143946619D01*
X56507142Y-144041857D01*
X56507142Y-144184714D01*
X56459523Y-144279952D01*
X56411904Y-144327571D01*
X56316666Y-144375190D01*
X55935714Y-144375190D01*
X56888095Y-143946619D02*
X56935714Y-143899000D01*
X57030952Y-143851380D01*
X57269047Y-143851380D01*
X57364285Y-143899000D01*
X57411904Y-143946619D01*
X57459523Y-144041857D01*
X57459523Y-144137095D01*
X57411904Y-144279952D01*
X56840476Y-144851380D01*
X57459523Y-144851380D01*
X58316666Y-143851380D02*
X58126190Y-143851380D01*
X58030952Y-143899000D01*
X57983333Y-143946619D01*
X57888095Y-144089476D01*
X57840476Y-144279952D01*
X57840476Y-144660904D01*
X57888095Y-144756142D01*
X57935714Y-144803761D01*
X58030952Y-144851380D01*
X58221428Y-144851380D01*
X58316666Y-144803761D01*
X58364285Y-144756142D01*
X58411904Y-144660904D01*
X58411904Y-144422809D01*
X58364285Y-144327571D01*
X58316666Y-144279952D01*
X58221428Y-144232333D01*
X58030952Y-144232333D01*
X57935714Y-144279952D01*
X57888095Y-144327571D01*
X57840476Y-144422809D01*
X35607666Y-183475380D02*
X35607666Y-184189666D01*
X35560047Y-184332523D01*
X35464809Y-184427761D01*
X35321952Y-184475380D01*
X35226714Y-184475380D01*
X36607666Y-184475380D02*
X36036238Y-184475380D01*
X36321952Y-184475380D02*
X36321952Y-183475380D01*
X36226714Y-183618238D01*
X36131476Y-183713476D01*
X36036238Y-183761095D01*
X47704476Y-120991380D02*
X47704476Y-121705666D01*
X47656857Y-121848523D01*
X47561619Y-121943761D01*
X47418761Y-121991380D01*
X47323523Y-121991380D01*
X48704476Y-121991380D02*
X48133047Y-121991380D01*
X48418761Y-121991380D02*
X48418761Y-120991380D01*
X48323523Y-121134238D01*
X48228285Y-121229476D01*
X48133047Y-121277095D01*
X49656857Y-121991380D02*
X49085428Y-121991380D01*
X49371142Y-121991380D02*
X49371142Y-120991380D01*
X49275904Y-121134238D01*
X49180666Y-121229476D01*
X49085428Y-121277095D01*
X86193333Y-152249142D02*
X86145714Y-152296761D01*
X86002857Y-152344380D01*
X85907619Y-152344380D01*
X85764761Y-152296761D01*
X85669523Y-152201523D01*
X85621904Y-152106285D01*
X85574285Y-151915809D01*
X85574285Y-151772952D01*
X85621904Y-151582476D01*
X85669523Y-151487238D01*
X85764761Y-151392000D01*
X85907619Y-151344380D01*
X86002857Y-151344380D01*
X86145714Y-151392000D01*
X86193333Y-151439619D01*
X86764761Y-151772952D02*
X86669523Y-151725333D01*
X86621904Y-151677714D01*
X86574285Y-151582476D01*
X86574285Y-151534857D01*
X86621904Y-151439619D01*
X86669523Y-151392000D01*
X86764761Y-151344380D01*
X86955238Y-151344380D01*
X87050476Y-151392000D01*
X87098095Y-151439619D01*
X87145714Y-151534857D01*
X87145714Y-151582476D01*
X87098095Y-151677714D01*
X87050476Y-151725333D01*
X86955238Y-151772952D01*
X86764761Y-151772952D01*
X86669523Y-151820571D01*
X86621904Y-151868190D01*
X86574285Y-151963428D01*
X86574285Y-152153904D01*
X86621904Y-152249142D01*
X86669523Y-152296761D01*
X86764761Y-152344380D01*
X86955238Y-152344380D01*
X87050476Y-152296761D01*
X87098095Y-152249142D01*
X87145714Y-152153904D01*
X87145714Y-151963428D01*
X87098095Y-151868190D01*
X87050476Y-151820571D01*
X86955238Y-151772952D01*
X30757904Y-165501580D02*
X30757904Y-164501580D01*
X30996000Y-164501580D01*
X31138857Y-164549200D01*
X31234095Y-164644438D01*
X31281714Y-164739676D01*
X31329333Y-164930152D01*
X31329333Y-165073009D01*
X31281714Y-165263485D01*
X31234095Y-165358723D01*
X31138857Y-165453961D01*
X30996000Y-165501580D01*
X30757904Y-165501580D01*
X32186476Y-164834914D02*
X32186476Y-165501580D01*
X31948380Y-164453961D02*
X31710285Y-165168247D01*
X32329333Y-165168247D01*
X50220666Y-159091380D02*
X50220666Y-159805666D01*
X50173047Y-159948523D01*
X50077809Y-160043761D01*
X49934952Y-160091380D01*
X49839714Y-160091380D01*
X50696857Y-160091380D02*
X50696857Y-159091380D01*
X51077809Y-159091380D01*
X51173047Y-159139000D01*
X51220666Y-159186619D01*
X51268285Y-159281857D01*
X51268285Y-159424714D01*
X51220666Y-159519952D01*
X51173047Y-159567571D01*
X51077809Y-159615190D01*
X50696857Y-159615190D01*
X52125428Y-159091380D02*
X51934952Y-159091380D01*
X51839714Y-159139000D01*
X51792095Y-159186619D01*
X51696857Y-159329476D01*
X51649238Y-159519952D01*
X51649238Y-159900904D01*
X51696857Y-159996142D01*
X51744476Y-160043761D01*
X51839714Y-160091380D01*
X52030190Y-160091380D01*
X52125428Y-160043761D01*
X52173047Y-159996142D01*
X52220666Y-159900904D01*
X52220666Y-159662809D01*
X52173047Y-159567571D01*
X52125428Y-159519952D01*
X52030190Y-159472333D01*
X51839714Y-159472333D01*
X51744476Y-159519952D01*
X51696857Y-159567571D01*
X51649238Y-159662809D01*
X72771095Y-149127380D02*
X72771095Y-149936904D01*
X72818714Y-150032142D01*
X72866333Y-150079761D01*
X72961571Y-150127380D01*
X73152047Y-150127380D01*
X73247285Y-150079761D01*
X73294904Y-150032142D01*
X73342523Y-149936904D01*
X73342523Y-149127380D01*
X73723476Y-149127380D02*
X74342523Y-149127380D01*
X74009190Y-149508333D01*
X74152047Y-149508333D01*
X74247285Y-149555952D01*
X74294904Y-149603571D01*
X74342523Y-149698809D01*
X74342523Y-149936904D01*
X74294904Y-150032142D01*
X74247285Y-150079761D01*
X74152047Y-150127380D01*
X73866333Y-150127380D01*
X73771095Y-150079761D01*
X73723476Y-150032142D01*
X65651142Y-181200380D02*
X65317809Y-180724190D01*
X65079714Y-181200380D02*
X65079714Y-180200380D01*
X65460666Y-180200380D01*
X65555904Y-180248000D01*
X65603523Y-180295619D01*
X65651142Y-180390857D01*
X65651142Y-180533714D01*
X65603523Y-180628952D01*
X65555904Y-180676571D01*
X65460666Y-180724190D01*
X65079714Y-180724190D01*
X66603523Y-181200380D02*
X66032095Y-181200380D01*
X66317809Y-181200380D02*
X66317809Y-180200380D01*
X66222571Y-180343238D01*
X66127333Y-180438476D01*
X66032095Y-180486095D01*
X67079714Y-181200380D02*
X67270190Y-181200380D01*
X67365428Y-181152761D01*
X67413047Y-181105142D01*
X67508285Y-180962285D01*
X67555904Y-180771809D01*
X67555904Y-180390857D01*
X67508285Y-180295619D01*
X67460666Y-180248000D01*
X67365428Y-180200380D01*
X67174952Y-180200380D01*
X67079714Y-180248000D01*
X67032095Y-180295619D01*
X66984476Y-180390857D01*
X66984476Y-180628952D01*
X67032095Y-180724190D01*
X67079714Y-180771809D01*
X67174952Y-180819428D01*
X67365428Y-180819428D01*
X67460666Y-180771809D01*
X67508285Y-180724190D01*
X67555904Y-180628952D01*
X57110333Y-166727142D02*
X57062714Y-166774761D01*
X56919857Y-166822380D01*
X56824619Y-166822380D01*
X56681761Y-166774761D01*
X56586523Y-166679523D01*
X56538904Y-166584285D01*
X56491285Y-166393809D01*
X56491285Y-166250952D01*
X56538904Y-166060476D01*
X56586523Y-165965238D01*
X56681761Y-165870000D01*
X56824619Y-165822380D01*
X56919857Y-165822380D01*
X57062714Y-165870000D01*
X57110333Y-165917619D01*
X58015095Y-165822380D02*
X57538904Y-165822380D01*
X57491285Y-166298571D01*
X57538904Y-166250952D01*
X57634142Y-166203333D01*
X57872238Y-166203333D01*
X57967476Y-166250952D01*
X58015095Y-166298571D01*
X58062714Y-166393809D01*
X58062714Y-166631904D01*
X58015095Y-166727142D01*
X57967476Y-166774761D01*
X57872238Y-166822380D01*
X57634142Y-166822380D01*
X57538904Y-166774761D01*
X57491285Y-166727142D01*
X64254142Y-146502380D02*
X63920809Y-146026190D01*
X63682714Y-146502380D02*
X63682714Y-145502380D01*
X64063666Y-145502380D01*
X64158904Y-145550000D01*
X64206523Y-145597619D01*
X64254142Y-145692857D01*
X64254142Y-145835714D01*
X64206523Y-145930952D01*
X64158904Y-145978571D01*
X64063666Y-146026190D01*
X63682714Y-146026190D01*
X64635095Y-145597619D02*
X64682714Y-145550000D01*
X64777952Y-145502380D01*
X65016047Y-145502380D01*
X65111285Y-145550000D01*
X65158904Y-145597619D01*
X65206523Y-145692857D01*
X65206523Y-145788095D01*
X65158904Y-145930952D01*
X64587476Y-146502380D01*
X65206523Y-146502380D01*
X65777952Y-145930952D02*
X65682714Y-145883333D01*
X65635095Y-145835714D01*
X65587476Y-145740476D01*
X65587476Y-145692857D01*
X65635095Y-145597619D01*
X65682714Y-145550000D01*
X65777952Y-145502380D01*
X65968428Y-145502380D01*
X66063666Y-145550000D01*
X66111285Y-145597619D01*
X66158904Y-145692857D01*
X66158904Y-145740476D01*
X66111285Y-145835714D01*
X66063666Y-145883333D01*
X65968428Y-145930952D01*
X65777952Y-145930952D01*
X65682714Y-145978571D01*
X65635095Y-146026190D01*
X65587476Y-146121428D01*
X65587476Y-146311904D01*
X65635095Y-146407142D01*
X65682714Y-146454761D01*
X65777952Y-146502380D01*
X65968428Y-146502380D01*
X66063666Y-146454761D01*
X66111285Y-146407142D01*
X66158904Y-146311904D01*
X66158904Y-146121428D01*
X66111285Y-146026190D01*
X66063666Y-145978571D01*
X65968428Y-145930952D01*
X92444706Y-161107380D02*
X92111373Y-160631190D01*
X91873278Y-161107380D02*
X91873278Y-160107380D01*
X92254230Y-160107380D01*
X92349468Y-160155000D01*
X92397087Y-160202619D01*
X92444706Y-160297857D01*
X92444706Y-160440714D01*
X92397087Y-160535952D01*
X92349468Y-160583571D01*
X92254230Y-160631190D01*
X91873278Y-160631190D01*
X93397087Y-161107380D02*
X92825659Y-161107380D01*
X93111373Y-161107380D02*
X93111373Y-160107380D01*
X93016135Y-160250238D01*
X92920897Y-160345476D01*
X92825659Y-160393095D01*
X93730421Y-160107380D02*
X94349468Y-160107380D01*
X94016135Y-160488333D01*
X94158992Y-160488333D01*
X94254230Y-160535952D01*
X94301849Y-160583571D01*
X94349468Y-160678809D01*
X94349468Y-160916904D01*
X94301849Y-161012142D01*
X94254230Y-161059761D01*
X94158992Y-161107380D01*
X93873278Y-161107380D01*
X93778040Y-161059761D01*
X93730421Y-161012142D01*
X72318666Y-124420380D02*
X72318666Y-125134666D01*
X72271047Y-125277523D01*
X72175809Y-125372761D01*
X72032952Y-125420380D01*
X71937714Y-125420380D01*
X72794857Y-125420380D02*
X72794857Y-124420380D01*
X73175809Y-124420380D01*
X73271047Y-124468000D01*
X73318666Y-124515619D01*
X73366285Y-124610857D01*
X73366285Y-124753714D01*
X73318666Y-124848952D01*
X73271047Y-124896571D01*
X73175809Y-124944190D01*
X72794857Y-124944190D01*
X73937714Y-124848952D02*
X73842476Y-124801333D01*
X73794857Y-124753714D01*
X73747238Y-124658476D01*
X73747238Y-124610857D01*
X73794857Y-124515619D01*
X73842476Y-124468000D01*
X73937714Y-124420380D01*
X74128190Y-124420380D01*
X74223428Y-124468000D01*
X74271047Y-124515619D01*
X74318666Y-124610857D01*
X74318666Y-124658476D01*
X74271047Y-124753714D01*
X74223428Y-124801333D01*
X74128190Y-124848952D01*
X73937714Y-124848952D01*
X73842476Y-124896571D01*
X73794857Y-124944190D01*
X73747238Y-125039428D01*
X73747238Y-125229904D01*
X73794857Y-125325142D01*
X73842476Y-125372761D01*
X73937714Y-125420380D01*
X74128190Y-125420380D01*
X74223428Y-125372761D01*
X74271047Y-125325142D01*
X74318666Y-125229904D01*
X74318666Y-125039428D01*
X74271047Y-124944190D01*
X74223428Y-124896571D01*
X74128190Y-124848952D01*
X34845666Y-123404380D02*
X34845666Y-124118666D01*
X34798047Y-124261523D01*
X34702809Y-124356761D01*
X34559952Y-124404380D01*
X34464714Y-124404380D01*
X35464714Y-123832952D02*
X35369476Y-123785333D01*
X35321857Y-123737714D01*
X35274238Y-123642476D01*
X35274238Y-123594857D01*
X35321857Y-123499619D01*
X35369476Y-123452000D01*
X35464714Y-123404380D01*
X35655190Y-123404380D01*
X35750428Y-123452000D01*
X35798047Y-123499619D01*
X35845666Y-123594857D01*
X35845666Y-123642476D01*
X35798047Y-123737714D01*
X35750428Y-123785333D01*
X35655190Y-123832952D01*
X35464714Y-123832952D01*
X35369476Y-123880571D01*
X35321857Y-123928190D01*
X35274238Y-124023428D01*
X35274238Y-124213904D01*
X35321857Y-124309142D01*
X35369476Y-124356761D01*
X35464714Y-124404380D01*
X35655190Y-124404380D01*
X35750428Y-124356761D01*
X35798047Y-124309142D01*
X35845666Y-124213904D01*
X35845666Y-124023428D01*
X35798047Y-123928190D01*
X35750428Y-123880571D01*
X35655190Y-123832952D01*
X69833833Y-182316380D02*
X69500500Y-181840190D01*
X69262404Y-182316380D02*
X69262404Y-181316380D01*
X69643357Y-181316380D01*
X69738595Y-181364000D01*
X69786214Y-181411619D01*
X69833833Y-181506857D01*
X69833833Y-181649714D01*
X69786214Y-181744952D01*
X69738595Y-181792571D01*
X69643357Y-181840190D01*
X69262404Y-181840190D01*
X70690976Y-181649714D02*
X70690976Y-182316380D01*
X70452880Y-181268761D02*
X70214785Y-181983047D01*
X70833833Y-181983047D01*
X34845666Y-149439380D02*
X34845666Y-150153666D01*
X34798047Y-150296523D01*
X34702809Y-150391761D01*
X34559952Y-150439380D01*
X34464714Y-150439380D01*
X35369476Y-150439380D02*
X35559952Y-150439380D01*
X35655190Y-150391761D01*
X35702809Y-150344142D01*
X35798047Y-150201285D01*
X35845666Y-150010809D01*
X35845666Y-149629857D01*
X35798047Y-149534619D01*
X35750428Y-149487000D01*
X35655190Y-149439380D01*
X35464714Y-149439380D01*
X35369476Y-149487000D01*
X35321857Y-149534619D01*
X35274238Y-149629857D01*
X35274238Y-149867952D01*
X35321857Y-149963190D01*
X35369476Y-150010809D01*
X35464714Y-150058428D01*
X35655190Y-150058428D01*
X35750428Y-150010809D01*
X35798047Y-149963190D01*
X35845666Y-149867952D01*
X64508142Y-141422380D02*
X64174809Y-140946190D01*
X63936714Y-141422380D02*
X63936714Y-140422380D01*
X64317666Y-140422380D01*
X64412904Y-140470000D01*
X64460523Y-140517619D01*
X64508142Y-140612857D01*
X64508142Y-140755714D01*
X64460523Y-140850952D01*
X64412904Y-140898571D01*
X64317666Y-140946190D01*
X63936714Y-140946190D01*
X64841476Y-140422380D02*
X65460523Y-140422380D01*
X65127190Y-140803333D01*
X65270047Y-140803333D01*
X65365285Y-140850952D01*
X65412904Y-140898571D01*
X65460523Y-140993809D01*
X65460523Y-141231904D01*
X65412904Y-141327142D01*
X65365285Y-141374761D01*
X65270047Y-141422380D01*
X64984333Y-141422380D01*
X64889095Y-141374761D01*
X64841476Y-141327142D01*
X66412904Y-141422380D02*
X65841476Y-141422380D01*
X66127190Y-141422380D02*
X66127190Y-140422380D01*
X66031952Y-140565238D01*
X65936714Y-140660476D01*
X65841476Y-140708095D01*
X72318666Y-119848380D02*
X72318666Y-120562666D01*
X72271047Y-120705523D01*
X72175809Y-120800761D01*
X72032952Y-120848380D01*
X71937714Y-120848380D01*
X72794857Y-120848380D02*
X72794857Y-119848380D01*
X73175809Y-119848380D01*
X73271047Y-119896000D01*
X73318666Y-119943619D01*
X73366285Y-120038857D01*
X73366285Y-120181714D01*
X73318666Y-120276952D01*
X73271047Y-120324571D01*
X73175809Y-120372190D01*
X72794857Y-120372190D01*
X73699619Y-119848380D02*
X74366285Y-119848380D01*
X73937714Y-120848380D01*
X72636142Y-141041380D02*
X72302809Y-140565190D01*
X72064714Y-141041380D02*
X72064714Y-140041380D01*
X72445666Y-140041380D01*
X72540904Y-140089000D01*
X72588523Y-140136619D01*
X72636142Y-140231857D01*
X72636142Y-140374714D01*
X72588523Y-140469952D01*
X72540904Y-140517571D01*
X72445666Y-140565190D01*
X72064714Y-140565190D01*
X72969476Y-140041380D02*
X73588523Y-140041380D01*
X73255190Y-140422333D01*
X73398047Y-140422333D01*
X73493285Y-140469952D01*
X73540904Y-140517571D01*
X73588523Y-140612809D01*
X73588523Y-140850904D01*
X73540904Y-140946142D01*
X73493285Y-140993761D01*
X73398047Y-141041380D01*
X73112333Y-141041380D01*
X73017095Y-140993761D01*
X72969476Y-140946142D01*
X74207571Y-140041380D02*
X74302809Y-140041380D01*
X74398047Y-140089000D01*
X74445666Y-140136619D01*
X74493285Y-140231857D01*
X74540904Y-140422333D01*
X74540904Y-140660428D01*
X74493285Y-140850904D01*
X74445666Y-140946142D01*
X74398047Y-140993761D01*
X74302809Y-141041380D01*
X74207571Y-141041380D01*
X74112333Y-140993761D01*
X74064714Y-140946142D01*
X74017095Y-140850904D01*
X73969476Y-140660428D01*
X73969476Y-140422333D01*
X74017095Y-140231857D01*
X74064714Y-140136619D01*
X74112333Y-140089000D01*
X74207571Y-140041380D01*
X106005380Y-133810333D02*
X106719666Y-133810333D01*
X106862523Y-133857952D01*
X106957761Y-133953190D01*
X107005380Y-134096047D01*
X107005380Y-134191285D01*
X106005380Y-133429380D02*
X106005380Y-132810333D01*
X106386333Y-133143666D01*
X106386333Y-133000809D01*
X106433952Y-132905571D01*
X106481571Y-132857952D01*
X106576809Y-132810333D01*
X106814904Y-132810333D01*
X106910142Y-132857952D01*
X106957761Y-132905571D01*
X107005380Y-133000809D01*
X107005380Y-133286523D01*
X106957761Y-133381761D01*
X106910142Y-133429380D01*
X40663904Y-165679380D02*
X40663904Y-164679380D01*
X40902000Y-164679380D01*
X41044857Y-164727000D01*
X41140095Y-164822238D01*
X41187714Y-164917476D01*
X41235333Y-165107952D01*
X41235333Y-165250809D01*
X41187714Y-165441285D01*
X41140095Y-165536523D01*
X41044857Y-165631761D01*
X40902000Y-165679380D01*
X40663904Y-165679380D01*
X41568666Y-164679380D02*
X42187714Y-164679380D01*
X41854380Y-165060333D01*
X41997238Y-165060333D01*
X42092476Y-165107952D01*
X42140095Y-165155571D01*
X42187714Y-165250809D01*
X42187714Y-165488904D01*
X42140095Y-165584142D01*
X42092476Y-165631761D01*
X41997238Y-165679380D01*
X41711523Y-165679380D01*
X41616285Y-165631761D01*
X41568666Y-165584142D01*
X43934142Y-131135380D02*
X43600809Y-130659190D01*
X43362714Y-131135380D02*
X43362714Y-130135380D01*
X43743666Y-130135380D01*
X43838904Y-130183000D01*
X43886523Y-130230619D01*
X43934142Y-130325857D01*
X43934142Y-130468714D01*
X43886523Y-130563952D01*
X43838904Y-130611571D01*
X43743666Y-130659190D01*
X43362714Y-130659190D01*
X44315095Y-130230619D02*
X44362714Y-130183000D01*
X44457952Y-130135380D01*
X44696047Y-130135380D01*
X44791285Y-130183000D01*
X44838904Y-130230619D01*
X44886523Y-130325857D01*
X44886523Y-130421095D01*
X44838904Y-130563952D01*
X44267476Y-131135380D01*
X44886523Y-131135380D01*
X45838904Y-131135380D02*
X45267476Y-131135380D01*
X45553190Y-131135380D02*
X45553190Y-130135380D01*
X45457952Y-130278238D01*
X45362714Y-130373476D01*
X45267476Y-130421095D01*
X86193333Y-149328142D02*
X86145714Y-149375761D01*
X86002857Y-149423380D01*
X85907619Y-149423380D01*
X85764761Y-149375761D01*
X85669523Y-149280523D01*
X85621904Y-149185285D01*
X85574285Y-148994809D01*
X85574285Y-148851952D01*
X85621904Y-148661476D01*
X85669523Y-148566238D01*
X85764761Y-148471000D01*
X85907619Y-148423380D01*
X86002857Y-148423380D01*
X86145714Y-148471000D01*
X86193333Y-148518619D01*
X87050476Y-148423380D02*
X86860000Y-148423380D01*
X86764761Y-148471000D01*
X86717142Y-148518619D01*
X86621904Y-148661476D01*
X86574285Y-148851952D01*
X86574285Y-149232904D01*
X86621904Y-149328142D01*
X86669523Y-149375761D01*
X86764761Y-149423380D01*
X86955238Y-149423380D01*
X87050476Y-149375761D01*
X87098095Y-149328142D01*
X87145714Y-149232904D01*
X87145714Y-148994809D01*
X87098095Y-148899571D01*
X87050476Y-148851952D01*
X86955238Y-148804333D01*
X86764761Y-148804333D01*
X86669523Y-148851952D01*
X86621904Y-148899571D01*
X86574285Y-148994809D01*
X34369476Y-136612380D02*
X34369476Y-137326666D01*
X34321857Y-137469523D01*
X34226619Y-137564761D01*
X34083761Y-137612380D01*
X33988523Y-137612380D01*
X35369476Y-137612380D02*
X34798047Y-137612380D01*
X35083761Y-137612380D02*
X35083761Y-136612380D01*
X34988523Y-136755238D01*
X34893285Y-136850476D01*
X34798047Y-136898095D01*
X35988523Y-136612380D02*
X36083761Y-136612380D01*
X36179000Y-136660000D01*
X36226619Y-136707619D01*
X36274238Y-136802857D01*
X36321857Y-136993333D01*
X36321857Y-137231428D01*
X36274238Y-137421904D01*
X36226619Y-137517142D01*
X36179000Y-137564761D01*
X36083761Y-137612380D01*
X35988523Y-137612380D01*
X35893285Y-137564761D01*
X35845666Y-137517142D01*
X35798047Y-137421904D01*
X35750428Y-137231428D01*
X35750428Y-136993333D01*
X35798047Y-136802857D01*
X35845666Y-136707619D01*
X35893285Y-136660000D01*
X35988523Y-136612380D01*
X50220666Y-155535380D02*
X50220666Y-156249666D01*
X50173047Y-156392523D01*
X50077809Y-156487761D01*
X49934952Y-156535380D01*
X49839714Y-156535380D01*
X50696857Y-156535380D02*
X50696857Y-155535380D01*
X51077809Y-155535380D01*
X51173047Y-155583000D01*
X51220666Y-155630619D01*
X51268285Y-155725857D01*
X51268285Y-155868714D01*
X51220666Y-155963952D01*
X51173047Y-156011571D01*
X51077809Y-156059190D01*
X50696857Y-156059190D01*
X52173047Y-155535380D02*
X51696857Y-155535380D01*
X51649238Y-156011571D01*
X51696857Y-155963952D01*
X51792095Y-155916333D01*
X52030190Y-155916333D01*
X52125428Y-155963952D01*
X52173047Y-156011571D01*
X52220666Y-156106809D01*
X52220666Y-156344904D01*
X52173047Y-156440142D01*
X52125428Y-156487761D01*
X52030190Y-156535380D01*
X51792095Y-156535380D01*
X51696857Y-156487761D01*
X51649238Y-156440142D01*
X106005380Y-164163333D02*
X106719666Y-164163333D01*
X106862523Y-164210952D01*
X106957761Y-164306190D01*
X107005380Y-164449047D01*
X107005380Y-164544285D01*
X106338714Y-163258571D02*
X107005380Y-163258571D01*
X105957761Y-163496666D02*
X106672047Y-163734761D01*
X106672047Y-163115714D01*
X37361904Y-165552380D02*
X37361904Y-164552380D01*
X37600000Y-164552380D01*
X37742857Y-164600000D01*
X37838095Y-164695238D01*
X37885714Y-164790476D01*
X37933333Y-164980952D01*
X37933333Y-165123809D01*
X37885714Y-165314285D01*
X37838095Y-165409523D01*
X37742857Y-165504761D01*
X37600000Y-165552380D01*
X37361904Y-165552380D01*
X38314285Y-164647619D02*
X38361904Y-164600000D01*
X38457142Y-164552380D01*
X38695238Y-164552380D01*
X38790476Y-164600000D01*
X38838095Y-164647619D01*
X38885714Y-164742857D01*
X38885714Y-164838095D01*
X38838095Y-164980952D01*
X38266666Y-165552380D01*
X38885714Y-165552380D01*
X69833833Y-173553380D02*
X69500500Y-173077190D01*
X69262404Y-173553380D02*
X69262404Y-172553380D01*
X69643357Y-172553380D01*
X69738595Y-172601000D01*
X69786214Y-172648619D01*
X69833833Y-172743857D01*
X69833833Y-172886714D01*
X69786214Y-172981952D01*
X69738595Y-173029571D01*
X69643357Y-173077190D01*
X69262404Y-173077190D01*
X70167166Y-172553380D02*
X70833833Y-172553380D01*
X70405261Y-173553380D01*
X86193333Y-161012142D02*
X86145714Y-161059761D01*
X86002857Y-161107380D01*
X85907619Y-161107380D01*
X85764761Y-161059761D01*
X85669523Y-160964523D01*
X85621904Y-160869285D01*
X85574285Y-160678809D01*
X85574285Y-160535952D01*
X85621904Y-160345476D01*
X85669523Y-160250238D01*
X85764761Y-160155000D01*
X85907619Y-160107380D01*
X86002857Y-160107380D01*
X86145714Y-160155000D01*
X86193333Y-160202619D01*
X86669523Y-161107380D02*
X86860000Y-161107380D01*
X86955238Y-161059761D01*
X87002857Y-161012142D01*
X87098095Y-160869285D01*
X87145714Y-160678809D01*
X87145714Y-160297857D01*
X87098095Y-160202619D01*
X87050476Y-160155000D01*
X86955238Y-160107380D01*
X86764761Y-160107380D01*
X86669523Y-160155000D01*
X86621904Y-160202619D01*
X86574285Y-160297857D01*
X86574285Y-160535952D01*
X86621904Y-160631190D01*
X86669523Y-160678809D01*
X86764761Y-160726428D01*
X86955238Y-160726428D01*
X87050476Y-160678809D01*
X87098095Y-160631190D01*
X87145714Y-160535952D01*
X69833833Y-179395380D02*
X69500500Y-178919190D01*
X69262404Y-179395380D02*
X69262404Y-178395380D01*
X69643357Y-178395380D01*
X69738595Y-178443000D01*
X69786214Y-178490619D01*
X69833833Y-178585857D01*
X69833833Y-178728714D01*
X69786214Y-178823952D01*
X69738595Y-178871571D01*
X69643357Y-178919190D01*
X69262404Y-178919190D01*
X70167166Y-178395380D02*
X70786214Y-178395380D01*
X70452880Y-178776333D01*
X70595738Y-178776333D01*
X70690976Y-178823952D01*
X70738595Y-178871571D01*
X70786214Y-178966809D01*
X70786214Y-179204904D01*
X70738595Y-179300142D01*
X70690976Y-179347761D01*
X70595738Y-179395380D01*
X70310023Y-179395380D01*
X70214785Y-179347761D01*
X70167166Y-179300142D01*
X67937142Y-145899142D02*
X67889523Y-145946761D01*
X67746666Y-145994380D01*
X67651428Y-145994380D01*
X67508571Y-145946761D01*
X67413333Y-145851523D01*
X67365714Y-145756285D01*
X67318095Y-145565809D01*
X67318095Y-145422952D01*
X67365714Y-145232476D01*
X67413333Y-145137238D01*
X67508571Y-145042000D01*
X67651428Y-144994380D01*
X67746666Y-144994380D01*
X67889523Y-145042000D01*
X67937142Y-145089619D01*
X68889523Y-145994380D02*
X68318095Y-145994380D01*
X68603809Y-145994380D02*
X68603809Y-144994380D01*
X68508571Y-145137238D01*
X68413333Y-145232476D01*
X68318095Y-145280095D01*
X69222857Y-144994380D02*
X69841904Y-144994380D01*
X69508571Y-145375333D01*
X69651428Y-145375333D01*
X69746666Y-145422952D01*
X69794285Y-145470571D01*
X69841904Y-145565809D01*
X69841904Y-145803904D01*
X69794285Y-145899142D01*
X69746666Y-145946761D01*
X69651428Y-145994380D01*
X69365714Y-145994380D01*
X69270476Y-145946761D01*
X69222857Y-145899142D01*
X88658166Y-134647380D02*
X88658166Y-135361666D01*
X88610547Y-135504523D01*
X88515309Y-135599761D01*
X88372452Y-135647380D01*
X88277214Y-135647380D01*
X89610547Y-134647380D02*
X89134357Y-134647380D01*
X89086738Y-135123571D01*
X89134357Y-135075952D01*
X89229595Y-135028333D01*
X89467690Y-135028333D01*
X89562928Y-135075952D01*
X89610547Y-135123571D01*
X89658166Y-135218809D01*
X89658166Y-135456904D01*
X89610547Y-135552142D01*
X89562928Y-135599761D01*
X89467690Y-135647380D01*
X89229595Y-135647380D01*
X89134357Y-135599761D01*
X89086738Y-135552142D01*
X88288904Y-140533380D02*
X88288904Y-139533380D01*
X88527000Y-139533380D01*
X88669857Y-139581000D01*
X88765095Y-139676238D01*
X88812714Y-139771476D01*
X88860333Y-139961952D01*
X88860333Y-140104809D01*
X88812714Y-140295285D01*
X88765095Y-140390523D01*
X88669857Y-140485761D01*
X88527000Y-140533380D01*
X88288904Y-140533380D01*
X89765095Y-139533380D02*
X89288904Y-139533380D01*
X89241285Y-140009571D01*
X89288904Y-139961952D01*
X89384142Y-139914333D01*
X89622238Y-139914333D01*
X89717476Y-139961952D01*
X89765095Y-140009571D01*
X89812714Y-140104809D01*
X89812714Y-140342904D01*
X89765095Y-140438142D01*
X89717476Y-140485761D01*
X89622238Y-140533380D01*
X89384142Y-140533380D01*
X89288904Y-140485761D01*
X89241285Y-140438142D01*
X92389397Y-146502380D02*
X92056064Y-146026190D01*
X91817968Y-146502380D02*
X91817968Y-145502380D01*
X92198921Y-145502380D01*
X92294159Y-145550000D01*
X92341778Y-145597619D01*
X92389397Y-145692857D01*
X92389397Y-145835714D01*
X92341778Y-145930952D01*
X92294159Y-145978571D01*
X92198921Y-146026190D01*
X91817968Y-146026190D01*
X92960825Y-145930952D02*
X92865587Y-145883333D01*
X92817968Y-145835714D01*
X92770349Y-145740476D01*
X92770349Y-145692857D01*
X92817968Y-145597619D01*
X92865587Y-145550000D01*
X92960825Y-145502380D01*
X93151302Y-145502380D01*
X93246540Y-145550000D01*
X93294159Y-145597619D01*
X93341778Y-145692857D01*
X93341778Y-145740476D01*
X93294159Y-145835714D01*
X93246540Y-145883333D01*
X93151302Y-145930952D01*
X92960825Y-145930952D01*
X92865587Y-145978571D01*
X92817968Y-146026190D01*
X92770349Y-146121428D01*
X92770349Y-146311904D01*
X92817968Y-146407142D01*
X92865587Y-146454761D01*
X92960825Y-146502380D01*
X93151302Y-146502380D01*
X93246540Y-146454761D01*
X93294159Y-146407142D01*
X93341778Y-146311904D01*
X93341778Y-146121428D01*
X93294159Y-146026190D01*
X93246540Y-145978571D01*
X93151302Y-145930952D01*
X34034504Y-165526630D02*
X34034504Y-164526630D01*
X34272600Y-164526630D01*
X34415457Y-164574250D01*
X34510695Y-164669488D01*
X34558314Y-164764726D01*
X34605933Y-164955202D01*
X34605933Y-165098059D01*
X34558314Y-165288535D01*
X34510695Y-165383773D01*
X34415457Y-165479011D01*
X34272600Y-165526630D01*
X34034504Y-165526630D01*
X35558314Y-165526630D02*
X34986885Y-165526630D01*
X35272600Y-165526630D02*
X35272600Y-164526630D01*
X35177361Y-164669488D01*
X35082123Y-164764726D01*
X34986885Y-164812345D01*
X71715476Y-133437380D02*
X71715476Y-134151666D01*
X71667857Y-134294523D01*
X71572619Y-134389761D01*
X71429761Y-134437380D01*
X71334523Y-134437380D01*
X72191666Y-134437380D02*
X72191666Y-133437380D01*
X72572619Y-133437380D01*
X72667857Y-133485000D01*
X72715476Y-133532619D01*
X72763095Y-133627857D01*
X72763095Y-133770714D01*
X72715476Y-133865952D01*
X72667857Y-133913571D01*
X72572619Y-133961190D01*
X72191666Y-133961190D01*
X73715476Y-134437380D02*
X73144047Y-134437380D01*
X73429761Y-134437380D02*
X73429761Y-133437380D01*
X73334523Y-133580238D01*
X73239285Y-133675476D01*
X73144047Y-133723095D01*
X74334523Y-133437380D02*
X74429761Y-133437380D01*
X74525000Y-133485000D01*
X74572619Y-133532619D01*
X74620238Y-133627857D01*
X74667857Y-133818333D01*
X74667857Y-134056428D01*
X74620238Y-134246904D01*
X74572619Y-134342142D01*
X74525000Y-134389761D01*
X74429761Y-134437380D01*
X74334523Y-134437380D01*
X74239285Y-134389761D01*
X74191666Y-134342142D01*
X74144047Y-134246904D01*
X74096428Y-134056428D01*
X74096428Y-133818333D01*
X74144047Y-133627857D01*
X74191666Y-133532619D01*
X74239285Y-133485000D01*
X74334523Y-133437380D01*
X69833833Y-176474380D02*
X69500500Y-175998190D01*
X69262404Y-176474380D02*
X69262404Y-175474380D01*
X69643357Y-175474380D01*
X69738595Y-175522000D01*
X69786214Y-175569619D01*
X69833833Y-175664857D01*
X69833833Y-175807714D01*
X69786214Y-175902952D01*
X69738595Y-175950571D01*
X69643357Y-175998190D01*
X69262404Y-175998190D01*
X70738595Y-175474380D02*
X70262404Y-175474380D01*
X70214785Y-175950571D01*
X70262404Y-175902952D01*
X70357642Y-175855333D01*
X70595738Y-175855333D01*
X70690976Y-175902952D01*
X70738595Y-175950571D01*
X70786214Y-176045809D01*
X70786214Y-176283904D01*
X70738595Y-176379142D01*
X70690976Y-176426761D01*
X70595738Y-176474380D01*
X70357642Y-176474380D01*
X70262404Y-176426761D01*
X70214785Y-176379142D01*
X88729166Y-171470380D02*
X88729166Y-172184666D01*
X88681547Y-172327523D01*
X88586309Y-172422761D01*
X88443452Y-172470380D01*
X88348214Y-172470380D01*
X89633928Y-171470380D02*
X89443452Y-171470380D01*
X89348214Y-171518000D01*
X89300595Y-171565619D01*
X89205357Y-171708476D01*
X89157738Y-171898952D01*
X89157738Y-172279904D01*
X89205357Y-172375142D01*
X89252976Y-172422761D01*
X89348214Y-172470380D01*
X89538690Y-172470380D01*
X89633928Y-172422761D01*
X89681547Y-172375142D01*
X89729166Y-172279904D01*
X89729166Y-172041809D01*
X89681547Y-171946571D01*
X89633928Y-171898952D01*
X89538690Y-171851333D01*
X89348214Y-171851333D01*
X89252976Y-171898952D01*
X89205357Y-171946571D01*
X89157738Y-172041809D01*
X43934142Y-134691380D02*
X43600809Y-134215190D01*
X43362714Y-134691380D02*
X43362714Y-133691380D01*
X43743666Y-133691380D01*
X43838904Y-133739000D01*
X43886523Y-133786619D01*
X43934142Y-133881857D01*
X43934142Y-134024714D01*
X43886523Y-134119952D01*
X43838904Y-134167571D01*
X43743666Y-134215190D01*
X43362714Y-134215190D01*
X44315095Y-133786619D02*
X44362714Y-133739000D01*
X44457952Y-133691380D01*
X44696047Y-133691380D01*
X44791285Y-133739000D01*
X44838904Y-133786619D01*
X44886523Y-133881857D01*
X44886523Y-133977095D01*
X44838904Y-134119952D01*
X44267476Y-134691380D01*
X44886523Y-134691380D01*
X45267476Y-133786619D02*
X45315095Y-133739000D01*
X45410333Y-133691380D01*
X45648428Y-133691380D01*
X45743666Y-133739000D01*
X45791285Y-133786619D01*
X45838904Y-133881857D01*
X45838904Y-133977095D01*
X45791285Y-134119952D01*
X45219857Y-134691380D01*
X45838904Y-134691380D01*
X52411333Y-179903380D02*
X51935142Y-179903380D01*
X51935142Y-178903380D01*
X53268476Y-179903380D02*
X52697047Y-179903380D01*
X52982761Y-179903380D02*
X52982761Y-178903380D01*
X52887523Y-179046238D01*
X52792285Y-179141476D01*
X52697047Y-179189095D01*
X57554904Y-169489380D02*
X57554904Y-168489380D01*
X57793000Y-168489380D01*
X57935857Y-168537000D01*
X58031095Y-168632238D01*
X58078714Y-168727476D01*
X58126333Y-168917952D01*
X58126333Y-169060809D01*
X58078714Y-169251285D01*
X58031095Y-169346523D01*
X57935857Y-169441761D01*
X57793000Y-169489380D01*
X57554904Y-169489380D01*
X58602523Y-169489380D02*
X58793000Y-169489380D01*
X58888238Y-169441761D01*
X58935857Y-169394142D01*
X59031095Y-169251285D01*
X59078714Y-169060809D01*
X59078714Y-168679857D01*
X59031095Y-168584619D01*
X58983476Y-168537000D01*
X58888238Y-168489380D01*
X58697761Y-168489380D01*
X58602523Y-168537000D01*
X58554904Y-168584619D01*
X58507285Y-168679857D01*
X58507285Y-168917952D01*
X58554904Y-169013190D01*
X58602523Y-169060809D01*
X58697761Y-169108428D01*
X58888238Y-169108428D01*
X58983476Y-169060809D01*
X59031095Y-169013190D01*
X59078714Y-168917952D01*
X55618142Y-183618142D02*
X55570523Y-183665761D01*
X55427666Y-183713380D01*
X55332428Y-183713380D01*
X55189571Y-183665761D01*
X55094333Y-183570523D01*
X55046714Y-183475285D01*
X54999095Y-183284809D01*
X54999095Y-183141952D01*
X55046714Y-182951476D01*
X55094333Y-182856238D01*
X55189571Y-182761000D01*
X55332428Y-182713380D01*
X55427666Y-182713380D01*
X55570523Y-182761000D01*
X55618142Y-182808619D01*
X56570523Y-183713380D02*
X55999095Y-183713380D01*
X56284809Y-183713380D02*
X56284809Y-182713380D01*
X56189571Y-182856238D01*
X56094333Y-182951476D01*
X55999095Y-182999095D01*
X57522904Y-183713380D02*
X56951476Y-183713380D01*
X57237190Y-183713380D02*
X57237190Y-182713380D01*
X57141952Y-182856238D01*
X57046714Y-182951476D01*
X56951476Y-182999095D01*
X50220666Y-130135380D02*
X50220666Y-130849666D01*
X50173047Y-130992523D01*
X50077809Y-131087761D01*
X49934952Y-131135380D01*
X49839714Y-131135380D01*
X50696857Y-131135380D02*
X50696857Y-130135380D01*
X51077809Y-130135380D01*
X51173047Y-130183000D01*
X51220666Y-130230619D01*
X51268285Y-130325857D01*
X51268285Y-130468714D01*
X51220666Y-130563952D01*
X51173047Y-130611571D01*
X51077809Y-130659190D01*
X50696857Y-130659190D01*
X51649238Y-130230619D02*
X51696857Y-130183000D01*
X51792095Y-130135380D01*
X52030190Y-130135380D01*
X52125428Y-130183000D01*
X52173047Y-130230619D01*
X52220666Y-130325857D01*
X52220666Y-130421095D01*
X52173047Y-130563952D01*
X51601619Y-131135380D01*
X52220666Y-131135380D01*
X59436095Y-147677380D02*
X59436095Y-148486904D01*
X59483714Y-148582142D01*
X59531333Y-148629761D01*
X59626571Y-148677380D01*
X59817047Y-148677380D01*
X59912285Y-148629761D01*
X59959904Y-148582142D01*
X60007523Y-148486904D01*
X60007523Y-147677380D01*
X60436095Y-147772619D02*
X60483714Y-147725000D01*
X60578952Y-147677380D01*
X60817047Y-147677380D01*
X60912285Y-147725000D01*
X60959904Y-147772619D01*
X61007523Y-147867857D01*
X61007523Y-147963095D01*
X60959904Y-148105952D01*
X60388476Y-148677380D01*
X61007523Y-148677380D01*
X56308666Y-129627380D02*
X56308666Y-130341666D01*
X56261047Y-130484523D01*
X56165809Y-130579761D01*
X56022952Y-130627380D01*
X55927714Y-130627380D01*
X56689619Y-129627380D02*
X57356285Y-129627380D01*
X56927714Y-130627380D01*
X57078714Y-176474380D02*
X57078714Y-175474380D01*
X57316809Y-175474380D01*
X57459666Y-175522000D01*
X57554904Y-175617238D01*
X57602523Y-175712476D01*
X57650142Y-175902952D01*
X57650142Y-176045809D01*
X57602523Y-176236285D01*
X57554904Y-176331523D01*
X57459666Y-176426761D01*
X57316809Y-176474380D01*
X57078714Y-176474380D01*
X58602523Y-176474380D02*
X58031095Y-176474380D01*
X58316809Y-176474380D02*
X58316809Y-175474380D01*
X58221571Y-175617238D01*
X58126333Y-175712476D01*
X58031095Y-175760095D01*
X59221571Y-175474380D02*
X59316809Y-175474380D01*
X59412047Y-175522000D01*
X59459666Y-175569619D01*
X59507285Y-175664857D01*
X59554904Y-175855333D01*
X59554904Y-176093428D01*
X59507285Y-176283904D01*
X59459666Y-176379142D01*
X59412047Y-176426761D01*
X59316809Y-176474380D01*
X59221571Y-176474380D01*
X59126333Y-176426761D01*
X59078714Y-176379142D01*
X59031095Y-176283904D01*
X58983476Y-176093428D01*
X58983476Y-175855333D01*
X59031095Y-175664857D01*
X59078714Y-175569619D01*
X59126333Y-175522000D01*
X59221571Y-175474380D01*
X44346761Y-147256333D02*
X44394380Y-147113476D01*
X44394380Y-146875380D01*
X44346761Y-146780142D01*
X44299142Y-146732523D01*
X44203904Y-146684904D01*
X44108666Y-146684904D01*
X44013428Y-146732523D01*
X43965809Y-146780142D01*
X43918190Y-146875380D01*
X43870571Y-147065857D01*
X43822952Y-147161095D01*
X43775333Y-147208714D01*
X43680095Y-147256333D01*
X43584857Y-147256333D01*
X43489619Y-147208714D01*
X43442000Y-147161095D01*
X43394380Y-147065857D01*
X43394380Y-146827761D01*
X43442000Y-146684904D01*
X43394380Y-146351571D02*
X44394380Y-146113476D01*
X43680095Y-145923000D01*
X44394380Y-145732523D01*
X43394380Y-145494428D01*
X44394380Y-144589666D02*
X44394380Y-145161095D01*
X44394380Y-144875380D02*
X43394380Y-144875380D01*
X43537238Y-144970619D01*
X43632476Y-145065857D01*
X43680095Y-145161095D01*
X92548206Y-155265380D02*
X92214873Y-154789190D01*
X91976778Y-155265380D02*
X91976778Y-154265380D01*
X92357730Y-154265380D01*
X92452968Y-154313000D01*
X92500587Y-154360619D01*
X92548206Y-154455857D01*
X92548206Y-154598714D01*
X92500587Y-154693952D01*
X92452968Y-154741571D01*
X92357730Y-154789190D01*
X91976778Y-154789190D01*
X93500587Y-155265380D02*
X92929159Y-155265380D01*
X93214873Y-155265380D02*
X93214873Y-154265380D01*
X93119635Y-154408238D01*
X93024397Y-154503476D01*
X92929159Y-154551095D01*
X94452968Y-155265380D02*
X93881540Y-155265380D01*
X94167254Y-155265380D02*
X94167254Y-154265380D01*
X94072016Y-154408238D01*
X93976778Y-154503476D01*
X93881540Y-154551095D01*
X62349142Y-189047380D02*
X62015809Y-188571190D01*
X61777714Y-189047380D02*
X61777714Y-188047380D01*
X62158666Y-188047380D01*
X62253904Y-188095000D01*
X62301523Y-188142619D01*
X62349142Y-188237857D01*
X62349142Y-188380714D01*
X62301523Y-188475952D01*
X62253904Y-188523571D01*
X62158666Y-188571190D01*
X61777714Y-188571190D01*
X63301523Y-189047380D02*
X62730095Y-189047380D01*
X63015809Y-189047380D02*
X63015809Y-188047380D01*
X62920571Y-188190238D01*
X62825333Y-188285476D01*
X62730095Y-188333095D01*
X64158666Y-188047380D02*
X63968190Y-188047380D01*
X63872952Y-188095000D01*
X63825333Y-188142619D01*
X63730095Y-188285476D01*
X63682476Y-188475952D01*
X63682476Y-188856904D01*
X63730095Y-188952142D01*
X63777714Y-188999761D01*
X63872952Y-189047380D01*
X64063428Y-189047380D01*
X64158666Y-188999761D01*
X64206285Y-188952142D01*
X64253904Y-188856904D01*
X64253904Y-188618809D01*
X64206285Y-188523571D01*
X64158666Y-188475952D01*
X64063428Y-188428333D01*
X63872952Y-188428333D01*
X63777714Y-188475952D01*
X63730095Y-188523571D01*
X63682476Y-188618809D01*
X51816095Y-188047380D02*
X51816095Y-188856904D01*
X51863714Y-188952142D01*
X51911333Y-188999761D01*
X52006571Y-189047380D01*
X52197047Y-189047380D01*
X52292285Y-188999761D01*
X52339904Y-188952142D01*
X52387523Y-188856904D01*
X52387523Y-188047380D01*
X53292285Y-188380714D02*
X53292285Y-189047380D01*
X53054190Y-187999761D02*
X52816095Y-188714047D01*
X53435142Y-188714047D01*
X43934142Y-160091380D02*
X43600809Y-159615190D01*
X43362714Y-160091380D02*
X43362714Y-159091380D01*
X43743666Y-159091380D01*
X43838904Y-159139000D01*
X43886523Y-159186619D01*
X43934142Y-159281857D01*
X43934142Y-159424714D01*
X43886523Y-159519952D01*
X43838904Y-159567571D01*
X43743666Y-159615190D01*
X43362714Y-159615190D01*
X44315095Y-159186619D02*
X44362714Y-159139000D01*
X44457952Y-159091380D01*
X44696047Y-159091380D01*
X44791285Y-159139000D01*
X44838904Y-159186619D01*
X44886523Y-159281857D01*
X44886523Y-159377095D01*
X44838904Y-159519952D01*
X44267476Y-160091380D01*
X44886523Y-160091380D01*
X45791285Y-159091380D02*
X45315095Y-159091380D01*
X45267476Y-159567571D01*
X45315095Y-159519952D01*
X45410333Y-159472333D01*
X45648428Y-159472333D01*
X45743666Y-159519952D01*
X45791285Y-159567571D01*
X45838904Y-159662809D01*
X45838904Y-159900904D01*
X45791285Y-159996142D01*
X45743666Y-160043761D01*
X45648428Y-160091380D01*
X45410333Y-160091380D01*
X45315095Y-160043761D01*
X45267476Y-159996142D01*
X64484642Y-136342380D02*
X64151309Y-135866190D01*
X63913214Y-136342380D02*
X63913214Y-135342380D01*
X64294166Y-135342380D01*
X64389404Y-135390000D01*
X64437023Y-135437619D01*
X64484642Y-135532857D01*
X64484642Y-135675714D01*
X64437023Y-135770952D01*
X64389404Y-135818571D01*
X64294166Y-135866190D01*
X63913214Y-135866190D01*
X64817976Y-135342380D02*
X65437023Y-135342380D01*
X65103690Y-135723333D01*
X65246547Y-135723333D01*
X65341785Y-135770952D01*
X65389404Y-135818571D01*
X65437023Y-135913809D01*
X65437023Y-136151904D01*
X65389404Y-136247142D01*
X65341785Y-136294761D01*
X65246547Y-136342380D01*
X64960833Y-136342380D01*
X64865595Y-136294761D01*
X64817976Y-136247142D01*
X65770357Y-135342380D02*
X66389404Y-135342380D01*
X66056071Y-135723333D01*
X66198928Y-135723333D01*
X66294166Y-135770952D01*
X66341785Y-135818571D01*
X66389404Y-135913809D01*
X66389404Y-136151904D01*
X66341785Y-136247142D01*
X66294166Y-136294761D01*
X66198928Y-136342380D01*
X65913214Y-136342380D01*
X65817976Y-136294761D01*
X65770357Y-136247142D01*
X69833833Y-170632380D02*
X69500500Y-170156190D01*
X69262404Y-170632380D02*
X69262404Y-169632380D01*
X69643357Y-169632380D01*
X69738595Y-169680000D01*
X69786214Y-169727619D01*
X69833833Y-169822857D01*
X69833833Y-169965714D01*
X69786214Y-170060952D01*
X69738595Y-170108571D01*
X69643357Y-170156190D01*
X69262404Y-170156190D01*
X70214785Y-169727619D02*
X70262404Y-169680000D01*
X70357642Y-169632380D01*
X70595738Y-169632380D01*
X70690976Y-169680000D01*
X70738595Y-169727619D01*
X70786214Y-169822857D01*
X70786214Y-169918095D01*
X70738595Y-170060952D01*
X70167166Y-170632380D01*
X70786214Y-170632380D01*
X38100095Y-186777380D02*
X38100095Y-187586904D01*
X38147714Y-187682142D01*
X38195333Y-187729761D01*
X38290571Y-187777380D01*
X38481047Y-187777380D01*
X38576285Y-187729761D01*
X38623904Y-187682142D01*
X38671523Y-187586904D01*
X38671523Y-186777380D01*
X39671523Y-187777380D02*
X39100095Y-187777380D01*
X39385809Y-187777380D02*
X39385809Y-186777380D01*
X39290571Y-186920238D01*
X39195333Y-187015476D01*
X39100095Y-187063095D01*
X51935142Y-166981142D02*
X51887523Y-167028761D01*
X51744666Y-167076380D01*
X51649428Y-167076380D01*
X51506571Y-167028761D01*
X51411333Y-166933523D01*
X51363714Y-166838285D01*
X51316095Y-166647809D01*
X51316095Y-166504952D01*
X51363714Y-166314476D01*
X51411333Y-166219238D01*
X51506571Y-166124000D01*
X51649428Y-166076380D01*
X51744666Y-166076380D01*
X51887523Y-166124000D01*
X51935142Y-166171619D01*
X52887523Y-167076380D02*
X52316095Y-167076380D01*
X52601809Y-167076380D02*
X52601809Y-166076380D01*
X52506571Y-166219238D01*
X52411333Y-166314476D01*
X52316095Y-166362095D01*
X53268476Y-166171619D02*
X53316095Y-166124000D01*
X53411333Y-166076380D01*
X53649428Y-166076380D01*
X53744666Y-166124000D01*
X53792285Y-166171619D01*
X53839904Y-166266857D01*
X53839904Y-166362095D01*
X53792285Y-166504952D01*
X53220857Y-167076380D01*
X53839904Y-167076380D01*
X50220666Y-126706380D02*
X50220666Y-127420666D01*
X50173047Y-127563523D01*
X50077809Y-127658761D01*
X49934952Y-127706380D01*
X49839714Y-127706380D01*
X50696857Y-127706380D02*
X50696857Y-126706380D01*
X51077809Y-126706380D01*
X51173047Y-126754000D01*
X51220666Y-126801619D01*
X51268285Y-126896857D01*
X51268285Y-127039714D01*
X51220666Y-127134952D01*
X51173047Y-127182571D01*
X51077809Y-127230190D01*
X50696857Y-127230190D01*
X52220666Y-127706380D02*
X51649238Y-127706380D01*
X51934952Y-127706380D02*
X51934952Y-126706380D01*
X51839714Y-126849238D01*
X51744476Y-126944476D01*
X51649238Y-126992095D01*
X86193333Y-146407142D02*
X86145714Y-146454761D01*
X86002857Y-146502380D01*
X85907619Y-146502380D01*
X85764761Y-146454761D01*
X85669523Y-146359523D01*
X85621904Y-146264285D01*
X85574285Y-146073809D01*
X85574285Y-145930952D01*
X85621904Y-145740476D01*
X85669523Y-145645238D01*
X85764761Y-145550000D01*
X85907619Y-145502380D01*
X86002857Y-145502380D01*
X86145714Y-145550000D01*
X86193333Y-145597619D01*
X86526666Y-145502380D02*
X87145714Y-145502380D01*
X86812380Y-145883333D01*
X86955238Y-145883333D01*
X87050476Y-145930952D01*
X87098095Y-145978571D01*
X87145714Y-146073809D01*
X87145714Y-146311904D01*
X87098095Y-146407142D01*
X87050476Y-146454761D01*
X86955238Y-146502380D01*
X86669523Y-146502380D01*
X86574285Y-146454761D01*
X86526666Y-146407142D01*
X93191454Y-165171380D02*
X93191454Y-164171380D01*
X93429550Y-164171380D01*
X93572407Y-164219000D01*
X93667645Y-164314238D01*
X93715264Y-164409476D01*
X93762883Y-164599952D01*
X93762883Y-164742809D01*
X93715264Y-164933285D01*
X93667645Y-165028523D01*
X93572407Y-165123761D01*
X93429550Y-165171380D01*
X93191454Y-165171380D01*
X94334311Y-164599952D02*
X94239073Y-164552333D01*
X94191454Y-164504714D01*
X94143835Y-164409476D01*
X94143835Y-164361857D01*
X94191454Y-164266619D01*
X94239073Y-164219000D01*
X94334311Y-164171380D01*
X94524788Y-164171380D01*
X94620026Y-164219000D01*
X94667645Y-164266619D01*
X94715264Y-164361857D01*
X94715264Y-164409476D01*
X94667645Y-164504714D01*
X94620026Y-164552333D01*
X94524788Y-164599952D01*
X94334311Y-164599952D01*
X94239073Y-164647571D01*
X94191454Y-164695190D01*
X94143835Y-164790428D01*
X94143835Y-164980904D01*
X94191454Y-165076142D01*
X94239073Y-165123761D01*
X94334311Y-165171380D01*
X94524788Y-165171380D01*
X94620026Y-165123761D01*
X94667645Y-165076142D01*
X94715264Y-164980904D01*
X94715264Y-164790428D01*
X94667645Y-164695190D01*
X94620026Y-164647571D01*
X94524788Y-164599952D01*
X72739642Y-138501380D02*
X72406309Y-138025190D01*
X72168214Y-138501380D02*
X72168214Y-137501380D01*
X72549166Y-137501380D01*
X72644404Y-137549000D01*
X72692023Y-137596619D01*
X72739642Y-137691857D01*
X72739642Y-137834714D01*
X72692023Y-137929952D01*
X72644404Y-137977571D01*
X72549166Y-138025190D01*
X72168214Y-138025190D01*
X73072976Y-137501380D02*
X73692023Y-137501380D01*
X73358690Y-137882333D01*
X73501547Y-137882333D01*
X73596785Y-137929952D01*
X73644404Y-137977571D01*
X73692023Y-138072809D01*
X73692023Y-138310904D01*
X73644404Y-138406142D01*
X73596785Y-138453761D01*
X73501547Y-138501380D01*
X73215833Y-138501380D01*
X73120595Y-138453761D01*
X73072976Y-138406142D01*
X74549166Y-137834714D02*
X74549166Y-138501380D01*
X74311071Y-137453761D02*
X74072976Y-138168047D01*
X74692023Y-138168047D01*
X58539142Y-189047380D02*
X58205809Y-188571190D01*
X57967714Y-189047380D02*
X57967714Y-188047380D01*
X58348666Y-188047380D01*
X58443904Y-188095000D01*
X58491523Y-188142619D01*
X58539142Y-188237857D01*
X58539142Y-188380714D01*
X58491523Y-188475952D01*
X58443904Y-188523571D01*
X58348666Y-188571190D01*
X57967714Y-188571190D01*
X59491523Y-189047380D02*
X58920095Y-189047380D01*
X59205809Y-189047380D02*
X59205809Y-188047380D01*
X59110571Y-188190238D01*
X59015333Y-188285476D01*
X58920095Y-188333095D01*
X60396285Y-188047380D02*
X59920095Y-188047380D01*
X59872476Y-188523571D01*
X59920095Y-188475952D01*
X60015333Y-188428333D01*
X60253428Y-188428333D01*
X60348666Y-188475952D01*
X60396285Y-188523571D01*
X60443904Y-188618809D01*
X60443904Y-188856904D01*
X60396285Y-188952142D01*
X60348666Y-188999761D01*
X60253428Y-189047380D01*
X60015333Y-189047380D01*
X59920095Y-188999761D01*
X59872476Y-188952142D01*
D16*
X67283000Y-185600936D02*
X67283000Y-186055064D01*
X65813000Y-185600936D02*
X65813000Y-186055064D01*
X93827600Y-141020800D02*
X93116400Y-141020800D01*
X93827600Y-143764000D02*
X93827600Y-141020800D01*
X93313800Y-143764000D02*
X89413800Y-143764000D01*
X93313800Y-141020800D02*
X89413800Y-141020800D01*
X93164300Y-143764000D02*
X93830500Y-143764000D01*
X89281000Y-148236000D02*
X89735128Y-148236000D01*
X89281000Y-149706000D02*
X89735128Y-149706000D01*
X89281000Y-158469000D02*
X89735128Y-158469000D01*
X89281000Y-156999000D02*
X89735128Y-156999000D01*
X61905000Y-120582000D02*
X60955000Y-120582000D01*
X54935000Y-116162000D02*
X54935000Y-116612000D01*
X61905000Y-116612000D02*
X61905000Y-116162000D01*
X61905000Y-120132000D02*
X61905000Y-120582000D01*
X54935000Y-120582000D02*
X55885000Y-120582000D01*
X54935000Y-120132000D02*
X54935000Y-120582000D01*
X60955000Y-120582000D02*
X60955000Y-122072000D01*
X61905000Y-116162000D02*
X54935000Y-116162000D01*
X41047936Y-127989000D02*
X41502064Y-127989000D01*
X41047936Y-126519000D02*
X41502064Y-126519000D01*
X89281000Y-152627000D02*
X89735128Y-152627000D01*
X89281000Y-151157000D02*
X89735128Y-151157000D01*
X39300500Y-181602500D02*
X39300500Y-180815000D01*
X37738000Y-173755000D02*
X40088000Y-173755000D01*
X43493563Y-180575000D02*
X42208000Y-180575000D01*
X37738000Y-179510563D02*
X37738000Y-173755000D01*
X38802437Y-180575000D02*
X37738000Y-179510563D01*
X44558000Y-173755000D02*
X42208000Y-173755000D01*
X38802437Y-180575000D02*
X40088000Y-180575000D01*
X43493563Y-180575000D02*
X44558000Y-179510563D01*
X44558000Y-179510563D02*
X44558000Y-173755000D01*
X38906750Y-181208750D02*
X39694250Y-181208750D01*
X102863000Y-150560000D02*
X102863000Y-151610000D01*
X102863000Y-156780000D02*
X102863000Y-155730000D01*
X107333000Y-155610000D02*
X107333000Y-151730000D01*
X105363000Y-150560000D02*
X102863000Y-150560000D01*
X105363000Y-156780000D02*
X102863000Y-156780000D01*
X102863000Y-155730000D02*
X101873000Y-155730000D01*
X62076064Y-144245000D02*
X61621936Y-144245000D01*
X62076064Y-142775000D02*
X61621936Y-142775000D01*
X62764936Y-182934000D02*
X63219064Y-182934000D01*
X62764936Y-184404000D02*
X63219064Y-184404000D01*
X83700252Y-156999000D02*
X83177748Y-156999000D01*
X83700252Y-158469000D02*
X83177748Y-158469000D01*
X73275564Y-185520000D02*
X72821436Y-185520000D01*
X73275564Y-184050000D02*
X72821436Y-184050000D01*
X49279000Y-133939000D02*
X49279000Y-134539000D01*
X48579000Y-135239000D02*
X47179000Y-135239000D01*
X46479000Y-134539000D02*
X46479000Y-133939000D01*
X47179000Y-133239000D02*
X48579000Y-133239000D01*
X46479000Y-134539000D02*
G75*
G03*
X47179000Y-135239000I699999J-1D01*
G01*
X47179000Y-133239000D02*
G75*
G03*
X46479000Y-133939000I-1J-699999D01*
G01*
X49279000Y-133939000D02*
G75*
G03*
X48579000Y-133239000I-700000J0D01*
G01*
X48579000Y-135239000D02*
G75*
G03*
X49279000Y-134539000I0J700000D01*
G01*
X50646064Y-169772000D02*
X50191936Y-169772000D01*
X50646064Y-168302000D02*
X50191936Y-168302000D01*
X46890000Y-185412748D02*
X46890000Y-185935252D01*
X48360000Y-185412748D02*
X48360000Y-185935252D01*
X62076064Y-139165000D02*
X61621936Y-139165000D01*
X62076064Y-137695000D02*
X61621936Y-137695000D01*
X87024000Y-168022000D02*
X92424000Y-168022000D01*
X87024000Y-171322000D02*
X92424000Y-171322000D01*
X87024000Y-168022000D02*
X87024000Y-171322000D01*
X73852000Y-128381000D02*
X72452000Y-128381000D01*
X72452000Y-126381000D02*
X73852000Y-126381000D01*
X74552000Y-127081000D02*
X74552000Y-127681000D01*
X71752000Y-127681000D02*
X71752000Y-127081000D01*
X74552000Y-127081000D02*
G75*
G03*
X73852000Y-126381000I-700000J0D01*
G01*
X72452000Y-126381000D02*
G75*
G03*
X71752000Y-127081000I-1J-699999D01*
G01*
X71752000Y-127681000D02*
G75*
G03*
X72452000Y-128381000I699999J-1D01*
G01*
X73852000Y-128381000D02*
G75*
G03*
X74552000Y-127681000I0J700000D01*
G01*
X70204064Y-142394000D02*
X69749936Y-142394000D01*
X70204064Y-143864000D02*
X69749936Y-143864000D01*
X41047936Y-153389000D02*
X41502064Y-153389000D01*
X41047936Y-151919000D02*
X41502064Y-151919000D01*
X50138000Y-163729936D02*
X50138000Y-164184064D01*
X48668000Y-163729936D02*
X48668000Y-164184064D01*
X46479000Y-152954000D02*
X46479000Y-152354000D01*
X48579000Y-153654000D02*
X47179000Y-153654000D01*
X49279000Y-152354000D02*
X49279000Y-152954000D01*
X47179000Y-151654000D02*
X48579000Y-151654000D01*
X49279000Y-152354000D02*
G75*
G03*
X48579000Y-151654000I-700000J0D01*
G01*
X48579000Y-153654000D02*
G75*
G03*
X49279000Y-152954000I0J700000D01*
G01*
X47179000Y-151654000D02*
G75*
G03*
X46479000Y-152354000I-1J-699999D01*
G01*
X46479000Y-152954000D02*
G75*
G03*
X47179000Y-153654000I699999J-1D01*
G01*
X41047936Y-156809000D02*
X41502064Y-156809000D01*
X41047936Y-155339000D02*
X41502064Y-155339000D01*
X83700252Y-155548000D02*
X83177748Y-155548000D01*
X83700252Y-154078000D02*
X83177748Y-154078000D01*
X54002000Y-144171936D02*
X54002000Y-144626064D01*
X55472000Y-144171936D02*
X55472000Y-144626064D01*
X33408000Y-181575000D02*
X33315000Y-181481000D01*
X29379000Y-172500000D02*
X28539000Y-172500000D01*
X36499000Y-182860000D02*
X28778000Y-182860000D01*
X28778000Y-172740000D02*
X28778000Y-182860000D01*
X33614000Y-181370000D02*
X33555000Y-181311000D01*
X29439000Y-172740000D02*
X29439000Y-182860000D01*
X30039000Y-172740000D02*
X30039000Y-182860000D01*
X31363000Y-179120000D02*
X31270000Y-179026000D01*
X36499000Y-172740000D02*
X36499000Y-182860000D01*
X28539000Y-172500000D02*
X28539000Y-173100000D01*
X36499000Y-172740000D02*
X28778000Y-172740000D01*
X31123000Y-179290000D02*
X31065000Y-179231000D01*
X34739000Y-172740000D02*
X34739000Y-182860000D01*
X31550000Y-176784001D02*
G75*
G03*
X33128089Y-176783953I789000J1484001D01*
G01*
X30659000Y-175300000D02*
G75*
G03*
X30855648Y-176088712I1680000J0D01*
G01*
X33823000Y-176089000D02*
G75*
G03*
X33822953Y-174510911I-1483995J789000D01*
G01*
X33128000Y-173816000D02*
G75*
G03*
X31549911Y-173816047I-789000J-1483995D01*
G01*
X30855000Y-174511000D02*
G75*
G03*
X30658550Y-175329383I1483995J-788998D01*
G01*
X34019000Y-180300000D02*
G75*
G03*
X34019000Y-180300000I-1680000J0D01*
G01*
X35889000Y-180300000D02*
G75*
G03*
X35889000Y-180300000I-550000J0D01*
G01*
X35889000Y-175300000D02*
G75*
G03*
X35889000Y-175300000I-550000J0D01*
G01*
X47427000Y-116162000D02*
X40457000Y-116162000D01*
X40457000Y-116162000D02*
X40457000Y-116612000D01*
X47427000Y-116612000D02*
X47427000Y-116162000D01*
X46477000Y-120582000D02*
X46477000Y-122072000D01*
X40457000Y-120132000D02*
X40457000Y-120582000D01*
X47427000Y-120582000D02*
X46477000Y-120582000D01*
X47427000Y-120132000D02*
X47427000Y-120582000D01*
X40457000Y-120582000D02*
X41407000Y-120582000D01*
X83700252Y-151157000D02*
X83177748Y-151157000D01*
X83700252Y-152627000D02*
X83177748Y-152627000D01*
X30149800Y-166655200D02*
X30149800Y-170555200D01*
X32893000Y-166655200D02*
X32893000Y-170555200D01*
X32893000Y-166804700D02*
X32893000Y-166138500D01*
X32893000Y-166141400D02*
X30149800Y-166141400D01*
X30149800Y-166141400D02*
X30149800Y-166852600D01*
X48579000Y-160639000D02*
X47179000Y-160639000D01*
X46479000Y-159939000D02*
X46479000Y-159339000D01*
X49279000Y-159339000D02*
X49279000Y-159939000D01*
X47179000Y-158639000D02*
X48579000Y-158639000D01*
X46479000Y-159939000D02*
G75*
G03*
X47179000Y-160639000I699999J-1D01*
G01*
X48579000Y-160639000D02*
G75*
G03*
X49279000Y-159939000I0J700000D01*
G01*
X49279000Y-159339000D02*
G75*
G03*
X48579000Y-158639000I-700000J0D01*
G01*
X47179000Y-158639000D02*
G75*
G03*
X46479000Y-159339000I-1J-699999D01*
G01*
X73533000Y-150515000D02*
X70083000Y-150515000D01*
X73533000Y-150515000D02*
X75483000Y-150515000D01*
X73533000Y-160635000D02*
X75483000Y-160635000D01*
X73533000Y-160635000D02*
X71583000Y-160635000D01*
X63219064Y-180013000D02*
X62764936Y-180013000D01*
X63219064Y-181483000D02*
X62764936Y-181483000D01*
X57538252Y-165073000D02*
X57015748Y-165073000D01*
X57538252Y-163603000D02*
X57015748Y-163603000D01*
X62076064Y-145315000D02*
X61621936Y-145315000D01*
X62076064Y-146785000D02*
X61621936Y-146785000D01*
X89281000Y-159920000D02*
X89735128Y-159920000D01*
X89281000Y-161390000D02*
X89735128Y-161390000D01*
X74552000Y-122509000D02*
X74552000Y-123109000D01*
X71752000Y-123109000D02*
X71752000Y-122509000D01*
X72452000Y-121809000D02*
X73852000Y-121809000D01*
X73852000Y-123809000D02*
X72452000Y-123809000D01*
X71752000Y-123109000D02*
G75*
G03*
X72452000Y-123809000I699999J-1D01*
G01*
X72452000Y-121809000D02*
G75*
G03*
X71752000Y-122509000I-1J-699999D01*
G01*
X74552000Y-122509000D02*
G75*
G03*
X73852000Y-121809000I-700000J0D01*
G01*
X73852000Y-123809000D02*
G75*
G03*
X74552000Y-123109000I0J700000D01*
G01*
X32979000Y-125444000D02*
X32979000Y-136064000D01*
X31419000Y-125444000D02*
X31419000Y-136064000D01*
X34054000Y-129819000D02*
X33999000Y-129765000D01*
X31179000Y-125204000D02*
X31179000Y-126704000D01*
X36169000Y-135434000D02*
X36093000Y-135358000D01*
X38039000Y-125444000D02*
X31419000Y-125444000D01*
X32919000Y-125204000D02*
X31179000Y-125204000D01*
X38039000Y-136064000D02*
X31419000Y-136064000D01*
X34265000Y-129651000D02*
X34189000Y-129575000D01*
X34265000Y-133151000D02*
X34189000Y-133075000D01*
X36359000Y-135244000D02*
X36305000Y-135190000D01*
X38039000Y-125444000D02*
X38039000Y-136064000D01*
X36169000Y-131934000D02*
X36093000Y-131858000D01*
X34054000Y-133319000D02*
X33999000Y-133265000D01*
X36359000Y-131744000D02*
X36305000Y-131690000D01*
X33793000Y-126547000D02*
G75*
G03*
X33623318Y-127280444I1385995J-706999D01*
G01*
X33624000Y-127254000D02*
G75*
G03*
X33793485Y-127959955I1555008J2D01*
G01*
X35886000Y-125868000D02*
G75*
G03*
X34473267Y-125867355I-707000J-1386000D01*
G01*
X36565000Y-127961000D02*
G75*
G03*
X36565645Y-126548267I-1386000J707000D01*
G01*
X34472000Y-128640000D02*
G75*
G03*
X35884733Y-128640645I706999J1386001D01*
G01*
X36734000Y-130754000D02*
G75*
G03*
X36734000Y-130754000I-1555000J0D01*
G01*
X36734000Y-134254000D02*
G75*
G03*
X36734000Y-134254000I-1555000J0D01*
G01*
X73275564Y-182599000D02*
X72821436Y-182599000D01*
X73275564Y-181129000D02*
X72821436Y-181129000D01*
X36169000Y-160834000D02*
X36093000Y-160758000D01*
X38039000Y-161464000D02*
X31419000Y-161464000D01*
X36169000Y-157334000D02*
X36093000Y-157258000D01*
X31179000Y-150604000D02*
X31179000Y-152104000D01*
X32979000Y-150844000D02*
X32979000Y-161464000D01*
X31419000Y-150844000D02*
X31419000Y-161464000D01*
X34054000Y-155219000D02*
X33999000Y-155165000D01*
X36359000Y-157144000D02*
X36305000Y-157090000D01*
X36359000Y-160644000D02*
X36305000Y-160590000D01*
X34054000Y-158719000D02*
X33999000Y-158665000D01*
X34265000Y-158551000D02*
X34189000Y-158475000D01*
X34265000Y-155051000D02*
X34189000Y-154975000D01*
X38039000Y-150844000D02*
X31419000Y-150844000D01*
X32919000Y-150604000D02*
X31179000Y-150604000D01*
X38039000Y-150844000D02*
X38039000Y-161464000D01*
X33793000Y-151947000D02*
G75*
G03*
X33623318Y-152680444I1385995J-706999D01*
G01*
X36565000Y-153361000D02*
G75*
G03*
X36565645Y-151948267I-1386000J707000D01*
G01*
X35886000Y-151268000D02*
G75*
G03*
X34473267Y-151267355I-707000J-1386000D01*
G01*
X33624000Y-152654000D02*
G75*
G03*
X33793485Y-153359955I1555008J2D01*
G01*
X34472000Y-154040000D02*
G75*
G03*
X35884733Y-154040645I706999J1386001D01*
G01*
X36734000Y-156154000D02*
G75*
G03*
X36734000Y-156154000I-1555000J0D01*
G01*
X36734000Y-159654000D02*
G75*
G03*
X36734000Y-159654000I-1555000J0D01*
G01*
X62076064Y-141705000D02*
X61621936Y-141705000D01*
X62076064Y-140235000D02*
X61621936Y-140235000D01*
X71752000Y-118537000D02*
X71752000Y-117937000D01*
X72452000Y-117237000D02*
X73852000Y-117237000D01*
X73852000Y-119237000D02*
X72452000Y-119237000D01*
X74552000Y-117937000D02*
X74552000Y-118537000D01*
X72452000Y-117237000D02*
G75*
G03*
X71752000Y-117937000I-1J-699999D01*
G01*
X74552000Y-117937000D02*
G75*
G03*
X73852000Y-117237000I-700000J0D01*
G01*
X71752000Y-118537000D02*
G75*
G03*
X72452000Y-119237000I699999J-1D01*
G01*
X73852000Y-119237000D02*
G75*
G03*
X74552000Y-118537000I0J700000D01*
G01*
X70204064Y-141324000D02*
X69749936Y-141324000D01*
X70204064Y-139854000D02*
X69749936Y-139854000D01*
X102863000Y-140490000D02*
X101873000Y-140490000D01*
X102863000Y-135320000D02*
X102863000Y-136370000D01*
X102863000Y-141540000D02*
X102863000Y-140490000D01*
X107333000Y-140370000D02*
X107333000Y-136490000D01*
X105363000Y-141540000D02*
X102863000Y-141540000D01*
X105363000Y-135320000D02*
X102863000Y-135320000D01*
X42799000Y-166931700D02*
X42799000Y-166265500D01*
X42799000Y-166782200D02*
X42799000Y-170682200D01*
X42799000Y-166268400D02*
X40055800Y-166268400D01*
X40055800Y-166268400D02*
X40055800Y-166979600D01*
X40055800Y-166782200D02*
X40055800Y-170682200D01*
X41047936Y-131418000D02*
X41502064Y-131418000D01*
X41047936Y-129948000D02*
X41502064Y-129948000D01*
X83700252Y-148236000D02*
X83177748Y-148236000D01*
X83700252Y-149706000D02*
X83177748Y-149706000D01*
X38039000Y-138144000D02*
X31419000Y-138144000D01*
X38039000Y-138144000D02*
X38039000Y-148764000D01*
X34054000Y-142519000D02*
X33999000Y-142465000D01*
X36359000Y-147944000D02*
X36305000Y-147890000D01*
X34265000Y-145851000D02*
X34189000Y-145775000D01*
X34054000Y-146019000D02*
X33999000Y-145965000D01*
X36169000Y-148134000D02*
X36093000Y-148058000D01*
X38039000Y-148764000D02*
X31419000Y-148764000D01*
X31419000Y-138144000D02*
X31419000Y-148764000D01*
X34265000Y-142351000D02*
X34189000Y-142275000D01*
X32979000Y-138144000D02*
X32979000Y-148764000D01*
X31179000Y-137904000D02*
X31179000Y-139404000D01*
X32919000Y-137904000D02*
X31179000Y-137904000D01*
X36359000Y-144444000D02*
X36305000Y-144390000D01*
X36169000Y-144634000D02*
X36093000Y-144558000D01*
X33624000Y-139954000D02*
G75*
G03*
X33793485Y-140659955I1555008J2D01*
G01*
X33793000Y-139247000D02*
G75*
G03*
X33623318Y-139980444I1385995J-706999D01*
G01*
X35886000Y-138568000D02*
G75*
G03*
X34473267Y-138567355I-707000J-1386000D01*
G01*
X36565000Y-140661000D02*
G75*
G03*
X36565645Y-139248267I-1386000J707000D01*
G01*
X34472000Y-141340000D02*
G75*
G03*
X35884733Y-141340645I706999J1386001D01*
G01*
X36734000Y-143454000D02*
G75*
G03*
X36734000Y-143454000I-1555000J0D01*
G01*
X36734000Y-146954000D02*
G75*
G03*
X36734000Y-146954000I-1555000J0D01*
G01*
X46479000Y-156383000D02*
X46479000Y-155783000D01*
X49279000Y-155783000D02*
X49279000Y-156383000D01*
X47179000Y-155083000D02*
X48579000Y-155083000D01*
X48579000Y-157083000D02*
X47179000Y-157083000D01*
X47179000Y-155083000D02*
G75*
G03*
X46479000Y-155783000I-1J-699999D01*
G01*
X46479000Y-156383000D02*
G75*
G03*
X47179000Y-157083000I699999J-1D01*
G01*
X49279000Y-155783000D02*
G75*
G03*
X48579000Y-155083000I-700000J0D01*
G01*
X48579000Y-157083000D02*
G75*
G03*
X49279000Y-156383000I0J700000D01*
G01*
X105363000Y-165800000D02*
X102863000Y-165800000D01*
X105363000Y-172020000D02*
X102863000Y-172020000D01*
X107333000Y-170850000D02*
X107333000Y-166970000D01*
X102863000Y-165800000D02*
X102863000Y-166850000D01*
X102863000Y-170970000D02*
X101873000Y-170970000D01*
X102863000Y-172020000D02*
X102863000Y-170970000D01*
X39446200Y-171164800D02*
X39446200Y-167264800D01*
X36703000Y-171678600D02*
X39446200Y-171678600D01*
X36703000Y-171164800D02*
X36703000Y-167264800D01*
X39446200Y-171678600D02*
X39446200Y-170967400D01*
X36703000Y-171015300D02*
X36703000Y-171681500D01*
X73275564Y-172366000D02*
X72821436Y-172366000D01*
X73275564Y-173836000D02*
X72821436Y-173836000D01*
X83700252Y-159920000D02*
X83177748Y-159920000D01*
X83700252Y-161390000D02*
X83177748Y-161390000D01*
X73275564Y-178208000D02*
X72821436Y-178208000D01*
X73275564Y-179678000D02*
X72821436Y-179678000D01*
X67845000Y-148216252D02*
X67845000Y-147693748D01*
X69315000Y-148216252D02*
X69315000Y-147693748D01*
X81231500Y-134075000D02*
X96751500Y-134075000D01*
X96751500Y-116115000D02*
X81231500Y-116115000D01*
X97436500Y-129695000D02*
X96936500Y-130195000D01*
X81231500Y-134075000D02*
X81231500Y-116115000D01*
X96751500Y-134075000D02*
X96751500Y-116115000D01*
X97436500Y-130695000D02*
X97436500Y-129695000D01*
X96936500Y-130195000D02*
X97436500Y-130695000D01*
X88040000Y-135891000D02*
X88040000Y-139191000D01*
X88040000Y-135891000D02*
X93440000Y-135891000D01*
X88040000Y-139191000D02*
X93440000Y-139191000D01*
X89257500Y-146785000D02*
X89711628Y-146785000D01*
X89257500Y-145315000D02*
X89711628Y-145315000D01*
X36144200Y-171164800D02*
X36144200Y-167264800D01*
X33401000Y-171164800D02*
X33401000Y-167264800D01*
X33401000Y-171678600D02*
X36144200Y-171678600D01*
X33401000Y-171015300D02*
X33401000Y-171681500D01*
X36144200Y-171678600D02*
X36144200Y-170967400D01*
X74552000Y-131653000D02*
X74552000Y-132253000D01*
X73852000Y-132953000D02*
X72452000Y-132953000D01*
X71752000Y-132253000D02*
X71752000Y-131653000D01*
X72452000Y-130953000D02*
X73852000Y-130953000D01*
X74552000Y-131653000D02*
G75*
G03*
X73852000Y-130953000I-700000J0D01*
G01*
X71752000Y-132253000D02*
G75*
G03*
X72452000Y-132953000I699999J-1D01*
G01*
X73852000Y-132953000D02*
G75*
G03*
X74552000Y-132253000I0J700000D01*
G01*
X72452000Y-130953000D02*
G75*
G03*
X71752000Y-131653000I-1J-699999D01*
G01*
X73275564Y-176757000D02*
X72821436Y-176757000D01*
X73275564Y-175287000D02*
X72821436Y-175287000D01*
X80617500Y-177518000D02*
X81117500Y-177018000D01*
X96822500Y-173138000D02*
X96822500Y-191098000D01*
X80617500Y-176518000D02*
X80617500Y-177518000D01*
X81302500Y-191098000D02*
X96822500Y-191098000D01*
X96822500Y-173138000D02*
X81302500Y-173138000D01*
X81117500Y-177018000D02*
X80617500Y-176518000D01*
X81302500Y-173138000D02*
X81302500Y-191098000D01*
X41047936Y-133504000D02*
X41502064Y-133504000D01*
X41047936Y-134974000D02*
X41502064Y-134974000D01*
X51629187Y-182384700D02*
X53526813Y-182384700D01*
X53526813Y-176517300D02*
X51629187Y-176517300D01*
X56803000Y-168077000D02*
X54118000Y-168077000D01*
X56803000Y-169997000D02*
X56803000Y-168077000D01*
X54118000Y-169997000D02*
X56803000Y-169997000D01*
X56869000Y-185412748D02*
X56869000Y-185935252D01*
X55399000Y-185412748D02*
X55399000Y-185935252D01*
X46479000Y-130983000D02*
X46479000Y-130383000D01*
X49279000Y-130383000D02*
X49279000Y-130983000D01*
X48579000Y-131683000D02*
X47179000Y-131683000D01*
X47179000Y-129683000D02*
X48579000Y-129683000D01*
X46479000Y-130983000D02*
G75*
G03*
X47179000Y-131683000I699999J-1D01*
G01*
X48579000Y-131683000D02*
G75*
G03*
X49279000Y-130983000I0J700000D01*
G01*
X49279000Y-130383000D02*
G75*
G03*
X48579000Y-129683000I-700000J0D01*
G01*
X47179000Y-129683000D02*
G75*
G03*
X46479000Y-130383000I-1J-699999D01*
G01*
X56338000Y-149300000D02*
X54523000Y-149300000D01*
X60198000Y-162085000D02*
X56338000Y-162085000D01*
X56338000Y-149065000D02*
X56338000Y-149300000D01*
X64058000Y-149065000D02*
X64058000Y-149300000D01*
X60198000Y-149065000D02*
X56338000Y-149065000D01*
X64058000Y-162085000D02*
X64058000Y-161850000D01*
X56338000Y-162085000D02*
X56338000Y-161850000D01*
X60198000Y-149065000D02*
X64058000Y-149065000D01*
X60198000Y-162085000D02*
X64058000Y-162085000D01*
X55372000Y-132715000D02*
X56007000Y-132715000D01*
X55372000Y-133350000D02*
X55372000Y-132715000D01*
X59639200Y-181705800D02*
X59639200Y-177805800D01*
X56896000Y-181556300D02*
X56896000Y-182222500D01*
X56896000Y-181705800D02*
X56896000Y-177805800D01*
X56896000Y-182219600D02*
X59639200Y-182219600D01*
X59639200Y-182219600D02*
X59639200Y-181508400D01*
D14*
X45567600Y-139953360D02*
X45567600Y-138760200D01*
X42316400Y-148005800D02*
X45567600Y-148005800D01*
X45567600Y-138760200D02*
X42316400Y-138760200D01*
X45567600Y-144953360D02*
X45567600Y-144312640D01*
X42316400Y-138760200D02*
X42316400Y-139953360D01*
X45567600Y-142453360D02*
X45567600Y-141812640D01*
X45567600Y-148005800D02*
X45567600Y-146812640D01*
X42316400Y-144312640D02*
X42316400Y-144953360D01*
X42316400Y-146812640D02*
X42316400Y-148005800D01*
X42316400Y-141812640D02*
X42316400Y-142453360D01*
D16*
X89281000Y-155548000D02*
X89735128Y-155548000D01*
X89281000Y-154078000D02*
X89735128Y-154078000D01*
X63219064Y-187325000D02*
X62764936Y-187325000D01*
X63219064Y-185855000D02*
X62764936Y-185855000D01*
X54138000Y-185674000D02*
X54138000Y-183874000D01*
X51018000Y-185674000D02*
X51018000Y-186474000D01*
X51018000Y-185674000D02*
X51018000Y-184874000D01*
X54138000Y-185674000D02*
X54138000Y-186474000D01*
X41047936Y-160374000D02*
X41502064Y-160374000D01*
X41047936Y-158904000D02*
X41502064Y-158904000D01*
X62076064Y-136625000D02*
X61621936Y-136625000D01*
X62076064Y-135155000D02*
X61621936Y-135155000D01*
X73275564Y-169445000D02*
X72821436Y-169445000D01*
X73275564Y-170915000D02*
X72821436Y-170915000D01*
X41622000Y-188007500D02*
X40312000Y-188007500D01*
X44802000Y-184147500D02*
X44802000Y-185287500D01*
X40312000Y-185287500D02*
X40542000Y-185287500D01*
X40312000Y-188007500D02*
X40312000Y-185287500D01*
X45032000Y-185287500D02*
X44802000Y-185287500D01*
X45032000Y-185287500D02*
X45032000Y-188007500D01*
X45032000Y-188007500D02*
X43722000Y-188007500D01*
X51843000Y-163695748D02*
X51843000Y-164218252D01*
X53313000Y-163695748D02*
X53313000Y-164218252D01*
X47179000Y-126254000D02*
X48579000Y-126254000D01*
X48579000Y-128254000D02*
X47179000Y-128254000D01*
X46479000Y-127554000D02*
X46479000Y-126954000D01*
X49279000Y-126954000D02*
X49279000Y-127554000D01*
X46479000Y-127554000D02*
G75*
G03*
X47179000Y-128254000I699999J-1D01*
G01*
X47179000Y-126254000D02*
G75*
G03*
X46479000Y-126954000I-1J-699999D01*
G01*
X49279000Y-126954000D02*
G75*
G03*
X48579000Y-126254000I-700000J0D01*
G01*
X48579000Y-128254000D02*
G75*
G03*
X49279000Y-127554000I0J700000D01*
G01*
X83700252Y-145315000D02*
X83177748Y-145315000D01*
X83700252Y-146785000D02*
X83177748Y-146785000D01*
X92323550Y-163372800D02*
X88423550Y-163372800D01*
X92837350Y-163372800D02*
X92126150Y-163372800D01*
X92174050Y-166116000D02*
X92840250Y-166116000D01*
X92837350Y-166116000D02*
X92837350Y-163372800D01*
X92323550Y-166116000D02*
X88423550Y-166116000D01*
X70204064Y-137314000D02*
X69749936Y-137314000D01*
X70204064Y-138784000D02*
X69749936Y-138784000D01*
X59917000Y-185901064D02*
X59917000Y-185446936D01*
X58447000Y-185901064D02*
X58447000Y-185446936D01*
M02*
