G04 #@! TF.GenerationSoftware,KiCad,Pcbnew,6.0.10-86aedd382b~118~ubuntu18.04.1*
G04 #@! TF.CreationDate,2024-08-26T14:02:28-06:00*
G04 #@! TF.ProjectId,mss-cascade-basic,6d73732d-6361-4736-9361-64652d626173,rev?*
G04 #@! TF.SameCoordinates,Original*
G04 #@! TF.FileFunction,Paste,Top*
G04 #@! TF.FilePolarity,Positive*
%FSLAX46Y46*%
G04 Gerber Fmt 4.6, Leading zero omitted, Abs format (unit mm)*
G04 Created by KiCad (PCBNEW 6.0.10-86aedd382b~118~ubuntu18.04.1) date 2024-08-26 14:02:28*
%MOMM*%
%LPD*%
G01*
G04 APERTURE LIST*
%ADD10R,1.400000X1.900000*%
%ADD11R,2.500000X1.800000*%
%ADD12R,1.900000X1.400000*%
%ADD13R,2.108200X5.562600*%
%ADD14R,2.489200X1.193800*%
%ADD15R,0.550000X1.300000*%
G04 APERTURE END LIST*
G36*
G01*
X66098000Y-184403000D02*
X66998000Y-184403000D01*
G75*
G02*
X67248000Y-184653000I0J-250000D01*
G01*
X67248000Y-185178000D01*
G75*
G02*
X66998000Y-185428000I-250000J0D01*
G01*
X66098000Y-185428000D01*
G75*
G02*
X65848000Y-185178000I0J250000D01*
G01*
X65848000Y-184653000D01*
G75*
G02*
X66098000Y-184403000I250000J0D01*
G01*
G37*
G36*
G01*
X66098000Y-186228000D02*
X66998000Y-186228000D01*
G75*
G02*
X67248000Y-186478000I0J-250000D01*
G01*
X67248000Y-187003000D01*
G75*
G02*
X66998000Y-187253000I-250000J0D01*
G01*
X66098000Y-187253000D01*
G75*
G02*
X65848000Y-187003000I0J250000D01*
G01*
X65848000Y-186478000D01*
G75*
G02*
X66098000Y-186228000I250000J0D01*
G01*
G37*
D10*
X92709000Y-142367000D03*
X89409000Y-142367000D03*
G36*
G01*
X88083064Y-149421000D02*
X88083064Y-148521000D01*
G75*
G02*
X88333064Y-148271000I250000J0D01*
G01*
X88858064Y-148271000D01*
G75*
G02*
X89108064Y-148521000I0J-250000D01*
G01*
X89108064Y-149421000D01*
G75*
G02*
X88858064Y-149671000I-250000J0D01*
G01*
X88333064Y-149671000D01*
G75*
G02*
X88083064Y-149421000I0J250000D01*
G01*
G37*
G36*
G01*
X89908064Y-149421000D02*
X89908064Y-148521000D01*
G75*
G02*
X90158064Y-148271000I250000J0D01*
G01*
X90683064Y-148271000D01*
G75*
G02*
X90933064Y-148521000I0J-250000D01*
G01*
X90933064Y-149421000D01*
G75*
G02*
X90683064Y-149671000I-250000J0D01*
G01*
X90158064Y-149671000D01*
G75*
G02*
X89908064Y-149421000I0J250000D01*
G01*
G37*
G36*
G01*
X88083064Y-158184000D02*
X88083064Y-157284000D01*
G75*
G02*
X88333064Y-157034000I250000J0D01*
G01*
X88858064Y-157034000D01*
G75*
G02*
X89108064Y-157284000I0J-250000D01*
G01*
X89108064Y-158184000D01*
G75*
G02*
X88858064Y-158434000I-250000J0D01*
G01*
X88333064Y-158434000D01*
G75*
G02*
X88083064Y-158184000I0J250000D01*
G01*
G37*
G36*
G01*
X89908064Y-158184000D02*
X89908064Y-157284000D01*
G75*
G02*
X90158064Y-157034000I250000J0D01*
G01*
X90683064Y-157034000D01*
G75*
G02*
X90933064Y-157284000I0J-250000D01*
G01*
X90933064Y-158184000D01*
G75*
G02*
X90683064Y-158434000I-250000J0D01*
G01*
X90158064Y-158434000D01*
G75*
G02*
X89908064Y-158184000I0J250000D01*
G01*
G37*
G36*
G01*
X60695000Y-120672000D02*
X60695000Y-121872000D01*
G75*
G02*
X60495000Y-122072000I-200000J0D01*
G01*
X60095000Y-122072000D01*
G75*
G02*
X59895000Y-121872000I0J200000D01*
G01*
X59895000Y-120672000D01*
G75*
G02*
X60095000Y-120472000I200000J0D01*
G01*
X60495000Y-120472000D01*
G75*
G02*
X60695000Y-120672000I0J-200000D01*
G01*
G37*
G36*
G01*
X59445000Y-120672000D02*
X59445000Y-121872000D01*
G75*
G02*
X59245000Y-122072000I-200000J0D01*
G01*
X58845000Y-122072000D01*
G75*
G02*
X58645000Y-121872000I0J200000D01*
G01*
X58645000Y-120672000D01*
G75*
G02*
X58845000Y-120472000I200000J0D01*
G01*
X59245000Y-120472000D01*
G75*
G02*
X59445000Y-120672000I0J-200000D01*
G01*
G37*
G36*
G01*
X58195000Y-120672000D02*
X58195000Y-121872000D01*
G75*
G02*
X57995000Y-122072000I-200000J0D01*
G01*
X57595000Y-122072000D01*
G75*
G02*
X57395000Y-121872000I0J200000D01*
G01*
X57395000Y-120672000D01*
G75*
G02*
X57595000Y-120472000I200000J0D01*
G01*
X57995000Y-120472000D01*
G75*
G02*
X58195000Y-120672000I0J-200000D01*
G01*
G37*
G36*
G01*
X56945000Y-120672000D02*
X56945000Y-121872000D01*
G75*
G02*
X56745000Y-122072000I-200000J0D01*
G01*
X56345000Y-122072000D01*
G75*
G02*
X56145000Y-121872000I0J200000D01*
G01*
X56145000Y-120672000D01*
G75*
G02*
X56345000Y-120472000I200000J0D01*
G01*
X56745000Y-120472000D01*
G75*
G02*
X56945000Y-120672000I0J-200000D01*
G01*
G37*
G36*
G01*
X55045000Y-117122001D02*
X55045000Y-119621999D01*
G75*
G02*
X54794999Y-119872000I-250001J0D01*
G01*
X53195001Y-119872000D01*
G75*
G02*
X52945000Y-119621999I0J250001D01*
G01*
X52945000Y-117122001D01*
G75*
G02*
X53195001Y-116872000I250001J0D01*
G01*
X54794999Y-116872000D01*
G75*
G02*
X55045000Y-117122001I0J-250001D01*
G01*
G37*
G36*
G01*
X63895000Y-117122001D02*
X63895000Y-119621999D01*
G75*
G02*
X63644999Y-119872000I-250001J0D01*
G01*
X62045001Y-119872000D01*
G75*
G02*
X61795000Y-119621999I0J250001D01*
G01*
X61795000Y-117122001D01*
G75*
G02*
X62045001Y-116872000I250001J0D01*
G01*
X63644999Y-116872000D01*
G75*
G02*
X63895000Y-117122001I0J-250001D01*
G01*
G37*
G36*
G01*
X39850000Y-127704000D02*
X39850000Y-126804000D01*
G75*
G02*
X40100000Y-126554000I250000J0D01*
G01*
X40625000Y-126554000D01*
G75*
G02*
X40875000Y-126804000I0J-250000D01*
G01*
X40875000Y-127704000D01*
G75*
G02*
X40625000Y-127954000I-250000J0D01*
G01*
X40100000Y-127954000D01*
G75*
G02*
X39850000Y-127704000I0J250000D01*
G01*
G37*
G36*
G01*
X41675000Y-127704000D02*
X41675000Y-126804000D01*
G75*
G02*
X41925000Y-126554000I250000J0D01*
G01*
X42450000Y-126554000D01*
G75*
G02*
X42700000Y-126804000I0J-250000D01*
G01*
X42700000Y-127704000D01*
G75*
G02*
X42450000Y-127954000I-250000J0D01*
G01*
X41925000Y-127954000D01*
G75*
G02*
X41675000Y-127704000I0J250000D01*
G01*
G37*
G36*
G01*
X88083064Y-152342000D02*
X88083064Y-151442000D01*
G75*
G02*
X88333064Y-151192000I250000J0D01*
G01*
X88858064Y-151192000D01*
G75*
G02*
X89108064Y-151442000I0J-250000D01*
G01*
X89108064Y-152342000D01*
G75*
G02*
X88858064Y-152592000I-250000J0D01*
G01*
X88333064Y-152592000D01*
G75*
G02*
X88083064Y-152342000I0J250000D01*
G01*
G37*
G36*
G01*
X89908064Y-152342000D02*
X89908064Y-151442000D01*
G75*
G02*
X90158064Y-151192000I250000J0D01*
G01*
X90683064Y-151192000D01*
G75*
G02*
X90933064Y-151442000I0J-250000D01*
G01*
X90933064Y-152342000D01*
G75*
G02*
X90683064Y-152592000I-250000J0D01*
G01*
X90158064Y-152592000D01*
G75*
G02*
X89908064Y-152342000I0J250000D01*
G01*
G37*
G36*
G01*
X41698000Y-181615000D02*
X40598000Y-181615000D01*
G75*
G02*
X40348000Y-181365000I0J250000D01*
G01*
X40348000Y-178365000D01*
G75*
G02*
X40598000Y-178115000I250000J0D01*
G01*
X41698000Y-178115000D01*
G75*
G02*
X41948000Y-178365000I0J-250000D01*
G01*
X41948000Y-181365000D01*
G75*
G02*
X41698000Y-181615000I-250000J0D01*
G01*
G37*
G36*
G01*
X41698000Y-176215000D02*
X40598000Y-176215000D01*
G75*
G02*
X40348000Y-175965000I0J250000D01*
G01*
X40348000Y-172965000D01*
G75*
G02*
X40598000Y-172715000I250000J0D01*
G01*
X41698000Y-172715000D01*
G75*
G02*
X41948000Y-172965000I0J-250000D01*
G01*
X41948000Y-175965000D01*
G75*
G02*
X41698000Y-176215000I-250000J0D01*
G01*
G37*
G36*
G01*
X103273000Y-155470000D02*
X102023000Y-155470000D01*
G75*
G02*
X101873000Y-155320000I0J150000D01*
G01*
X101873000Y-155020000D01*
G75*
G02*
X102023000Y-154870000I150000J0D01*
G01*
X103273000Y-154870000D01*
G75*
G02*
X103423000Y-155020000I0J-150000D01*
G01*
X103423000Y-155320000D01*
G75*
G02*
X103273000Y-155470000I-150000J0D01*
G01*
G37*
G36*
G01*
X103273000Y-154470000D02*
X102023000Y-154470000D01*
G75*
G02*
X101873000Y-154320000I0J150000D01*
G01*
X101873000Y-154020000D01*
G75*
G02*
X102023000Y-153870000I150000J0D01*
G01*
X103273000Y-153870000D01*
G75*
G02*
X103423000Y-154020000I0J-150000D01*
G01*
X103423000Y-154320000D01*
G75*
G02*
X103273000Y-154470000I-150000J0D01*
G01*
G37*
G36*
G01*
X103273000Y-153470000D02*
X102023000Y-153470000D01*
G75*
G02*
X101873000Y-153320000I0J150000D01*
G01*
X101873000Y-153020000D01*
G75*
G02*
X102023000Y-152870000I150000J0D01*
G01*
X103273000Y-152870000D01*
G75*
G02*
X103423000Y-153020000I0J-150000D01*
G01*
X103423000Y-153320000D01*
G75*
G02*
X103273000Y-153470000I-150000J0D01*
G01*
G37*
G36*
G01*
X103273000Y-152470000D02*
X102023000Y-152470000D01*
G75*
G02*
X101873000Y-152320000I0J150000D01*
G01*
X101873000Y-152020000D01*
G75*
G02*
X102023000Y-151870000I150000J0D01*
G01*
X103273000Y-151870000D01*
G75*
G02*
X103423000Y-152020000I0J-150000D01*
G01*
X103423000Y-152320000D01*
G75*
G02*
X103273000Y-152470000I-150000J0D01*
G01*
G37*
G36*
G01*
X107173000Y-151470000D02*
X105873000Y-151470000D01*
G75*
G02*
X105623000Y-151220000I0J250000D01*
G01*
X105623000Y-150520000D01*
G75*
G02*
X105873000Y-150270000I250000J0D01*
G01*
X107173000Y-150270000D01*
G75*
G02*
X107423000Y-150520000I0J-250000D01*
G01*
X107423000Y-151220000D01*
G75*
G02*
X107173000Y-151470000I-250000J0D01*
G01*
G37*
G36*
G01*
X107173000Y-157070000D02*
X105873000Y-157070000D01*
G75*
G02*
X105623000Y-156820000I0J250000D01*
G01*
X105623000Y-156120000D01*
G75*
G02*
X105873000Y-155870000I250000J0D01*
G01*
X107173000Y-155870000D01*
G75*
G02*
X107423000Y-156120000I0J-250000D01*
G01*
X107423000Y-156820000D01*
G75*
G02*
X107173000Y-157070000I-250000J0D01*
G01*
G37*
G36*
G01*
X63274000Y-143060000D02*
X63274000Y-143960000D01*
G75*
G02*
X63024000Y-144210000I-250000J0D01*
G01*
X62499000Y-144210000D01*
G75*
G02*
X62249000Y-143960000I0J250000D01*
G01*
X62249000Y-143060000D01*
G75*
G02*
X62499000Y-142810000I250000J0D01*
G01*
X63024000Y-142810000D01*
G75*
G02*
X63274000Y-143060000I0J-250000D01*
G01*
G37*
G36*
G01*
X61449000Y-143060000D02*
X61449000Y-143960000D01*
G75*
G02*
X61199000Y-144210000I-250000J0D01*
G01*
X60674000Y-144210000D01*
G75*
G02*
X60424000Y-143960000I0J250000D01*
G01*
X60424000Y-143060000D01*
G75*
G02*
X60674000Y-142810000I250000J0D01*
G01*
X61199000Y-142810000D01*
G75*
G02*
X61449000Y-143060000I0J-250000D01*
G01*
G37*
G36*
G01*
X61567000Y-184119000D02*
X61567000Y-183219000D01*
G75*
G02*
X61817000Y-182969000I250000J0D01*
G01*
X62342000Y-182969000D01*
G75*
G02*
X62592000Y-183219000I0J-250000D01*
G01*
X62592000Y-184119000D01*
G75*
G02*
X62342000Y-184369000I-250000J0D01*
G01*
X61817000Y-184369000D01*
G75*
G02*
X61567000Y-184119000I0J250000D01*
G01*
G37*
G36*
G01*
X63392000Y-184119000D02*
X63392000Y-183219000D01*
G75*
G02*
X63642000Y-182969000I250000J0D01*
G01*
X64167000Y-182969000D01*
G75*
G02*
X64417000Y-183219000I0J-250000D01*
G01*
X64417000Y-184119000D01*
G75*
G02*
X64167000Y-184369000I-250000J0D01*
G01*
X63642000Y-184369000D01*
G75*
G02*
X63392000Y-184119000I0J250000D01*
G01*
G37*
G36*
G01*
X84889000Y-157259000D02*
X84889000Y-158209000D01*
G75*
G02*
X84639000Y-158459000I-250000J0D01*
G01*
X84139000Y-158459000D01*
G75*
G02*
X83889000Y-158209000I0J250000D01*
G01*
X83889000Y-157259000D01*
G75*
G02*
X84139000Y-157009000I250000J0D01*
G01*
X84639000Y-157009000D01*
G75*
G02*
X84889000Y-157259000I0J-250000D01*
G01*
G37*
G36*
G01*
X82989000Y-157259000D02*
X82989000Y-158209000D01*
G75*
G02*
X82739000Y-158459000I-250000J0D01*
G01*
X82239000Y-158459000D01*
G75*
G02*
X81989000Y-158209000I0J250000D01*
G01*
X81989000Y-157259000D01*
G75*
G02*
X82239000Y-157009000I250000J0D01*
G01*
X82739000Y-157009000D01*
G75*
G02*
X82989000Y-157259000I0J-250000D01*
G01*
G37*
G36*
G01*
X74473500Y-184335000D02*
X74473500Y-185235000D01*
G75*
G02*
X74223500Y-185485000I-250000J0D01*
G01*
X73698500Y-185485000D01*
G75*
G02*
X73448500Y-185235000I0J250000D01*
G01*
X73448500Y-184335000D01*
G75*
G02*
X73698500Y-184085000I250000J0D01*
G01*
X74223500Y-184085000D01*
G75*
G02*
X74473500Y-184335000I0J-250000D01*
G01*
G37*
G36*
G01*
X72648500Y-184335000D02*
X72648500Y-185235000D01*
G75*
G02*
X72398500Y-185485000I-250000J0D01*
G01*
X71873500Y-185485000D01*
G75*
G02*
X71623500Y-185235000I0J250000D01*
G01*
X71623500Y-184335000D01*
G75*
G02*
X71873500Y-184085000I250000J0D01*
G01*
X72398500Y-184085000D01*
G75*
G02*
X72648500Y-184335000I0J-250000D01*
G01*
G37*
G36*
G01*
X51844000Y-168587000D02*
X51844000Y-169487000D01*
G75*
G02*
X51594000Y-169737000I-250000J0D01*
G01*
X51069000Y-169737000D01*
G75*
G02*
X50819000Y-169487000I0J250000D01*
G01*
X50819000Y-168587000D01*
G75*
G02*
X51069000Y-168337000I250000J0D01*
G01*
X51594000Y-168337000D01*
G75*
G02*
X51844000Y-168587000I0J-250000D01*
G01*
G37*
G36*
G01*
X50019000Y-168587000D02*
X50019000Y-169487000D01*
G75*
G02*
X49769000Y-169737000I-250000J0D01*
G01*
X49244000Y-169737000D01*
G75*
G02*
X48994000Y-169487000I0J250000D01*
G01*
X48994000Y-168587000D01*
G75*
G02*
X49244000Y-168337000I250000J0D01*
G01*
X49769000Y-168337000D01*
G75*
G02*
X50019000Y-168587000I0J-250000D01*
G01*
G37*
G36*
G01*
X47150000Y-184224000D02*
X48100000Y-184224000D01*
G75*
G02*
X48350000Y-184474000I0J-250000D01*
G01*
X48350000Y-184974000D01*
G75*
G02*
X48100000Y-185224000I-250000J0D01*
G01*
X47150000Y-185224000D01*
G75*
G02*
X46900000Y-184974000I0J250000D01*
G01*
X46900000Y-184474000D01*
G75*
G02*
X47150000Y-184224000I250000J0D01*
G01*
G37*
G36*
G01*
X47150000Y-186124000D02*
X48100000Y-186124000D01*
G75*
G02*
X48350000Y-186374000I0J-250000D01*
G01*
X48350000Y-186874000D01*
G75*
G02*
X48100000Y-187124000I-250000J0D01*
G01*
X47150000Y-187124000D01*
G75*
G02*
X46900000Y-186874000I0J250000D01*
G01*
X46900000Y-186374000D01*
G75*
G02*
X47150000Y-186124000I250000J0D01*
G01*
G37*
G36*
G01*
X63274000Y-137980000D02*
X63274000Y-138880000D01*
G75*
G02*
X63024000Y-139130000I-250000J0D01*
G01*
X62499000Y-139130000D01*
G75*
G02*
X62249000Y-138880000I0J250000D01*
G01*
X62249000Y-137980000D01*
G75*
G02*
X62499000Y-137730000I250000J0D01*
G01*
X63024000Y-137730000D01*
G75*
G02*
X63274000Y-137980000I0J-250000D01*
G01*
G37*
G36*
G01*
X61449000Y-137980000D02*
X61449000Y-138880000D01*
G75*
G02*
X61199000Y-139130000I-250000J0D01*
G01*
X60674000Y-139130000D01*
G75*
G02*
X60424000Y-138880000I0J250000D01*
G01*
X60424000Y-137980000D01*
G75*
G02*
X60674000Y-137730000I250000J0D01*
G01*
X61199000Y-137730000D01*
G75*
G02*
X61449000Y-137980000I0J-250000D01*
G01*
G37*
D11*
X88424000Y-169672000D03*
X92424000Y-169672000D03*
G36*
G01*
X71402000Y-142679000D02*
X71402000Y-143579000D01*
G75*
G02*
X71152000Y-143829000I-250000J0D01*
G01*
X70627000Y-143829000D01*
G75*
G02*
X70377000Y-143579000I0J250000D01*
G01*
X70377000Y-142679000D01*
G75*
G02*
X70627000Y-142429000I250000J0D01*
G01*
X71152000Y-142429000D01*
G75*
G02*
X71402000Y-142679000I0J-250000D01*
G01*
G37*
G36*
G01*
X69577000Y-142679000D02*
X69577000Y-143579000D01*
G75*
G02*
X69327000Y-143829000I-250000J0D01*
G01*
X68802000Y-143829000D01*
G75*
G02*
X68552000Y-143579000I0J250000D01*
G01*
X68552000Y-142679000D01*
G75*
G02*
X68802000Y-142429000I250000J0D01*
G01*
X69327000Y-142429000D01*
G75*
G02*
X69577000Y-142679000I0J-250000D01*
G01*
G37*
G36*
G01*
X39850000Y-153104000D02*
X39850000Y-152204000D01*
G75*
G02*
X40100000Y-151954000I250000J0D01*
G01*
X40625000Y-151954000D01*
G75*
G02*
X40875000Y-152204000I0J-250000D01*
G01*
X40875000Y-153104000D01*
G75*
G02*
X40625000Y-153354000I-250000J0D01*
G01*
X40100000Y-153354000D01*
G75*
G02*
X39850000Y-153104000I0J250000D01*
G01*
G37*
G36*
G01*
X41675000Y-153104000D02*
X41675000Y-152204000D01*
G75*
G02*
X41925000Y-151954000I250000J0D01*
G01*
X42450000Y-151954000D01*
G75*
G02*
X42700000Y-152204000I0J-250000D01*
G01*
X42700000Y-153104000D01*
G75*
G02*
X42450000Y-153354000I-250000J0D01*
G01*
X41925000Y-153354000D01*
G75*
G02*
X41675000Y-153104000I0J250000D01*
G01*
G37*
G36*
G01*
X48953000Y-162532000D02*
X49853000Y-162532000D01*
G75*
G02*
X50103000Y-162782000I0J-250000D01*
G01*
X50103000Y-163307000D01*
G75*
G02*
X49853000Y-163557000I-250000J0D01*
G01*
X48953000Y-163557000D01*
G75*
G02*
X48703000Y-163307000I0J250000D01*
G01*
X48703000Y-162782000D01*
G75*
G02*
X48953000Y-162532000I250000J0D01*
G01*
G37*
G36*
G01*
X48953000Y-164357000D02*
X49853000Y-164357000D01*
G75*
G02*
X50103000Y-164607000I0J-250000D01*
G01*
X50103000Y-165132000D01*
G75*
G02*
X49853000Y-165382000I-250000J0D01*
G01*
X48953000Y-165382000D01*
G75*
G02*
X48703000Y-165132000I0J250000D01*
G01*
X48703000Y-164607000D01*
G75*
G02*
X48953000Y-164357000I250000J0D01*
G01*
G37*
G36*
G01*
X39850000Y-156524000D02*
X39850000Y-155624000D01*
G75*
G02*
X40100000Y-155374000I250000J0D01*
G01*
X40625000Y-155374000D01*
G75*
G02*
X40875000Y-155624000I0J-250000D01*
G01*
X40875000Y-156524000D01*
G75*
G02*
X40625000Y-156774000I-250000J0D01*
G01*
X40100000Y-156774000D01*
G75*
G02*
X39850000Y-156524000I0J250000D01*
G01*
G37*
G36*
G01*
X41675000Y-156524000D02*
X41675000Y-155624000D01*
G75*
G02*
X41925000Y-155374000I250000J0D01*
G01*
X42450000Y-155374000D01*
G75*
G02*
X42700000Y-155624000I0J-250000D01*
G01*
X42700000Y-156524000D01*
G75*
G02*
X42450000Y-156774000I-250000J0D01*
G01*
X41925000Y-156774000D01*
G75*
G02*
X41675000Y-156524000I0J250000D01*
G01*
G37*
G36*
G01*
X84889000Y-154338000D02*
X84889000Y-155288000D01*
G75*
G02*
X84639000Y-155538000I-250000J0D01*
G01*
X84139000Y-155538000D01*
G75*
G02*
X83889000Y-155288000I0J250000D01*
G01*
X83889000Y-154338000D01*
G75*
G02*
X84139000Y-154088000I250000J0D01*
G01*
X84639000Y-154088000D01*
G75*
G02*
X84889000Y-154338000I0J-250000D01*
G01*
G37*
G36*
G01*
X82989000Y-154338000D02*
X82989000Y-155288000D01*
G75*
G02*
X82739000Y-155538000I-250000J0D01*
G01*
X82239000Y-155538000D01*
G75*
G02*
X81989000Y-155288000I0J250000D01*
G01*
X81989000Y-154338000D01*
G75*
G02*
X82239000Y-154088000I250000J0D01*
G01*
X82739000Y-154088000D01*
G75*
G02*
X82989000Y-154338000I0J-250000D01*
G01*
G37*
G36*
G01*
X54287000Y-142974000D02*
X55187000Y-142974000D01*
G75*
G02*
X55437000Y-143224000I0J-250000D01*
G01*
X55437000Y-143749000D01*
G75*
G02*
X55187000Y-143999000I-250000J0D01*
G01*
X54287000Y-143999000D01*
G75*
G02*
X54037000Y-143749000I0J250000D01*
G01*
X54037000Y-143224000D01*
G75*
G02*
X54287000Y-142974000I250000J0D01*
G01*
G37*
G36*
G01*
X54287000Y-144799000D02*
X55187000Y-144799000D01*
G75*
G02*
X55437000Y-145049000I0J-250000D01*
G01*
X55437000Y-145574000D01*
G75*
G02*
X55187000Y-145824000I-250000J0D01*
G01*
X54287000Y-145824000D01*
G75*
G02*
X54037000Y-145574000I0J250000D01*
G01*
X54037000Y-145049000D01*
G75*
G02*
X54287000Y-144799000I250000J0D01*
G01*
G37*
G36*
G01*
X46217000Y-120672000D02*
X46217000Y-121872000D01*
G75*
G02*
X46017000Y-122072000I-200000J0D01*
G01*
X45617000Y-122072000D01*
G75*
G02*
X45417000Y-121872000I0J200000D01*
G01*
X45417000Y-120672000D01*
G75*
G02*
X45617000Y-120472000I200000J0D01*
G01*
X46017000Y-120472000D01*
G75*
G02*
X46217000Y-120672000I0J-200000D01*
G01*
G37*
G36*
G01*
X44967000Y-120672000D02*
X44967000Y-121872000D01*
G75*
G02*
X44767000Y-122072000I-200000J0D01*
G01*
X44367000Y-122072000D01*
G75*
G02*
X44167000Y-121872000I0J200000D01*
G01*
X44167000Y-120672000D01*
G75*
G02*
X44367000Y-120472000I200000J0D01*
G01*
X44767000Y-120472000D01*
G75*
G02*
X44967000Y-120672000I0J-200000D01*
G01*
G37*
G36*
G01*
X43717000Y-120672000D02*
X43717000Y-121872000D01*
G75*
G02*
X43517000Y-122072000I-200000J0D01*
G01*
X43117000Y-122072000D01*
G75*
G02*
X42917000Y-121872000I0J200000D01*
G01*
X42917000Y-120672000D01*
G75*
G02*
X43117000Y-120472000I200000J0D01*
G01*
X43517000Y-120472000D01*
G75*
G02*
X43717000Y-120672000I0J-200000D01*
G01*
G37*
G36*
G01*
X42467000Y-120672000D02*
X42467000Y-121872000D01*
G75*
G02*
X42267000Y-122072000I-200000J0D01*
G01*
X41867000Y-122072000D01*
G75*
G02*
X41667000Y-121872000I0J200000D01*
G01*
X41667000Y-120672000D01*
G75*
G02*
X41867000Y-120472000I200000J0D01*
G01*
X42267000Y-120472000D01*
G75*
G02*
X42467000Y-120672000I0J-200000D01*
G01*
G37*
G36*
G01*
X49417000Y-117122001D02*
X49417000Y-119621999D01*
G75*
G02*
X49166999Y-119872000I-250001J0D01*
G01*
X47567001Y-119872000D01*
G75*
G02*
X47317000Y-119621999I0J250001D01*
G01*
X47317000Y-117122001D01*
G75*
G02*
X47567001Y-116872000I250001J0D01*
G01*
X49166999Y-116872000D01*
G75*
G02*
X49417000Y-117122001I0J-250001D01*
G01*
G37*
G36*
G01*
X40567000Y-117122001D02*
X40567000Y-119621999D01*
G75*
G02*
X40316999Y-119872000I-250001J0D01*
G01*
X38717001Y-119872000D01*
G75*
G02*
X38467000Y-119621999I0J250001D01*
G01*
X38467000Y-117122001D01*
G75*
G02*
X38717001Y-116872000I250001J0D01*
G01*
X40316999Y-116872000D01*
G75*
G02*
X40567000Y-117122001I0J-250001D01*
G01*
G37*
G36*
G01*
X84889000Y-151417000D02*
X84889000Y-152367000D01*
G75*
G02*
X84639000Y-152617000I-250000J0D01*
G01*
X84139000Y-152617000D01*
G75*
G02*
X83889000Y-152367000I0J250000D01*
G01*
X83889000Y-151417000D01*
G75*
G02*
X84139000Y-151167000I250000J0D01*
G01*
X84639000Y-151167000D01*
G75*
G02*
X84889000Y-151417000I0J-250000D01*
G01*
G37*
G36*
G01*
X82989000Y-151417000D02*
X82989000Y-152367000D01*
G75*
G02*
X82739000Y-152617000I-250000J0D01*
G01*
X82239000Y-152617000D01*
G75*
G02*
X81989000Y-152367000I0J250000D01*
G01*
X81989000Y-151417000D01*
G75*
G02*
X82239000Y-151167000I250000J0D01*
G01*
X82739000Y-151167000D01*
G75*
G02*
X82989000Y-151417000I0J-250000D01*
G01*
G37*
D12*
X31496000Y-167260000D03*
X31496000Y-170560000D03*
G36*
G01*
X70083000Y-151280000D02*
X70083000Y-150980000D01*
G75*
G02*
X70233000Y-150830000I150000J0D01*
G01*
X71683000Y-150830000D01*
G75*
G02*
X71833000Y-150980000I0J-150000D01*
G01*
X71833000Y-151280000D01*
G75*
G02*
X71683000Y-151430000I-150000J0D01*
G01*
X70233000Y-151430000D01*
G75*
G02*
X70083000Y-151280000I0J150000D01*
G01*
G37*
G36*
G01*
X70083000Y-152550000D02*
X70083000Y-152250000D01*
G75*
G02*
X70233000Y-152100000I150000J0D01*
G01*
X71683000Y-152100000D01*
G75*
G02*
X71833000Y-152250000I0J-150000D01*
G01*
X71833000Y-152550000D01*
G75*
G02*
X71683000Y-152700000I-150000J0D01*
G01*
X70233000Y-152700000D01*
G75*
G02*
X70083000Y-152550000I0J150000D01*
G01*
G37*
G36*
G01*
X70083000Y-153820000D02*
X70083000Y-153520000D01*
G75*
G02*
X70233000Y-153370000I150000J0D01*
G01*
X71683000Y-153370000D01*
G75*
G02*
X71833000Y-153520000I0J-150000D01*
G01*
X71833000Y-153820000D01*
G75*
G02*
X71683000Y-153970000I-150000J0D01*
G01*
X70233000Y-153970000D01*
G75*
G02*
X70083000Y-153820000I0J150000D01*
G01*
G37*
G36*
G01*
X70083000Y-155090000D02*
X70083000Y-154790000D01*
G75*
G02*
X70233000Y-154640000I150000J0D01*
G01*
X71683000Y-154640000D01*
G75*
G02*
X71833000Y-154790000I0J-150000D01*
G01*
X71833000Y-155090000D01*
G75*
G02*
X71683000Y-155240000I-150000J0D01*
G01*
X70233000Y-155240000D01*
G75*
G02*
X70083000Y-155090000I0J150000D01*
G01*
G37*
G36*
G01*
X70083000Y-156360000D02*
X70083000Y-156060000D01*
G75*
G02*
X70233000Y-155910000I150000J0D01*
G01*
X71683000Y-155910000D01*
G75*
G02*
X71833000Y-156060000I0J-150000D01*
G01*
X71833000Y-156360000D01*
G75*
G02*
X71683000Y-156510000I-150000J0D01*
G01*
X70233000Y-156510000D01*
G75*
G02*
X70083000Y-156360000I0J150000D01*
G01*
G37*
G36*
G01*
X70083000Y-157630000D02*
X70083000Y-157330000D01*
G75*
G02*
X70233000Y-157180000I150000J0D01*
G01*
X71683000Y-157180000D01*
G75*
G02*
X71833000Y-157330000I0J-150000D01*
G01*
X71833000Y-157630000D01*
G75*
G02*
X71683000Y-157780000I-150000J0D01*
G01*
X70233000Y-157780000D01*
G75*
G02*
X70083000Y-157630000I0J150000D01*
G01*
G37*
G36*
G01*
X70083000Y-158900000D02*
X70083000Y-158600000D01*
G75*
G02*
X70233000Y-158450000I150000J0D01*
G01*
X71683000Y-158450000D01*
G75*
G02*
X71833000Y-158600000I0J-150000D01*
G01*
X71833000Y-158900000D01*
G75*
G02*
X71683000Y-159050000I-150000J0D01*
G01*
X70233000Y-159050000D01*
G75*
G02*
X70083000Y-158900000I0J150000D01*
G01*
G37*
G36*
G01*
X70083000Y-160170000D02*
X70083000Y-159870000D01*
G75*
G02*
X70233000Y-159720000I150000J0D01*
G01*
X71683000Y-159720000D01*
G75*
G02*
X71833000Y-159870000I0J-150000D01*
G01*
X71833000Y-160170000D01*
G75*
G02*
X71683000Y-160320000I-150000J0D01*
G01*
X70233000Y-160320000D01*
G75*
G02*
X70083000Y-160170000I0J150000D01*
G01*
G37*
G36*
G01*
X75233000Y-160170000D02*
X75233000Y-159870000D01*
G75*
G02*
X75383000Y-159720000I150000J0D01*
G01*
X76833000Y-159720000D01*
G75*
G02*
X76983000Y-159870000I0J-150000D01*
G01*
X76983000Y-160170000D01*
G75*
G02*
X76833000Y-160320000I-150000J0D01*
G01*
X75383000Y-160320000D01*
G75*
G02*
X75233000Y-160170000I0J150000D01*
G01*
G37*
G36*
G01*
X75233000Y-158900000D02*
X75233000Y-158600000D01*
G75*
G02*
X75383000Y-158450000I150000J0D01*
G01*
X76833000Y-158450000D01*
G75*
G02*
X76983000Y-158600000I0J-150000D01*
G01*
X76983000Y-158900000D01*
G75*
G02*
X76833000Y-159050000I-150000J0D01*
G01*
X75383000Y-159050000D01*
G75*
G02*
X75233000Y-158900000I0J150000D01*
G01*
G37*
G36*
G01*
X75233000Y-157630000D02*
X75233000Y-157330000D01*
G75*
G02*
X75383000Y-157180000I150000J0D01*
G01*
X76833000Y-157180000D01*
G75*
G02*
X76983000Y-157330000I0J-150000D01*
G01*
X76983000Y-157630000D01*
G75*
G02*
X76833000Y-157780000I-150000J0D01*
G01*
X75383000Y-157780000D01*
G75*
G02*
X75233000Y-157630000I0J150000D01*
G01*
G37*
G36*
G01*
X75233000Y-156360000D02*
X75233000Y-156060000D01*
G75*
G02*
X75383000Y-155910000I150000J0D01*
G01*
X76833000Y-155910000D01*
G75*
G02*
X76983000Y-156060000I0J-150000D01*
G01*
X76983000Y-156360000D01*
G75*
G02*
X76833000Y-156510000I-150000J0D01*
G01*
X75383000Y-156510000D01*
G75*
G02*
X75233000Y-156360000I0J150000D01*
G01*
G37*
G36*
G01*
X75233000Y-155090000D02*
X75233000Y-154790000D01*
G75*
G02*
X75383000Y-154640000I150000J0D01*
G01*
X76833000Y-154640000D01*
G75*
G02*
X76983000Y-154790000I0J-150000D01*
G01*
X76983000Y-155090000D01*
G75*
G02*
X76833000Y-155240000I-150000J0D01*
G01*
X75383000Y-155240000D01*
G75*
G02*
X75233000Y-155090000I0J150000D01*
G01*
G37*
G36*
G01*
X75233000Y-153820000D02*
X75233000Y-153520000D01*
G75*
G02*
X75383000Y-153370000I150000J0D01*
G01*
X76833000Y-153370000D01*
G75*
G02*
X76983000Y-153520000I0J-150000D01*
G01*
X76983000Y-153820000D01*
G75*
G02*
X76833000Y-153970000I-150000J0D01*
G01*
X75383000Y-153970000D01*
G75*
G02*
X75233000Y-153820000I0J150000D01*
G01*
G37*
G36*
G01*
X75233000Y-152550000D02*
X75233000Y-152250000D01*
G75*
G02*
X75383000Y-152100000I150000J0D01*
G01*
X76833000Y-152100000D01*
G75*
G02*
X76983000Y-152250000I0J-150000D01*
G01*
X76983000Y-152550000D01*
G75*
G02*
X76833000Y-152700000I-150000J0D01*
G01*
X75383000Y-152700000D01*
G75*
G02*
X75233000Y-152550000I0J150000D01*
G01*
G37*
G36*
G01*
X75233000Y-151280000D02*
X75233000Y-150980000D01*
G75*
G02*
X75383000Y-150830000I150000J0D01*
G01*
X76833000Y-150830000D01*
G75*
G02*
X76983000Y-150980000I0J-150000D01*
G01*
X76983000Y-151280000D01*
G75*
G02*
X76833000Y-151430000I-150000J0D01*
G01*
X75383000Y-151430000D01*
G75*
G02*
X75233000Y-151280000I0J150000D01*
G01*
G37*
G36*
G01*
X64417000Y-180298000D02*
X64417000Y-181198000D01*
G75*
G02*
X64167000Y-181448000I-250000J0D01*
G01*
X63642000Y-181448000D01*
G75*
G02*
X63392000Y-181198000I0J250000D01*
G01*
X63392000Y-180298000D01*
G75*
G02*
X63642000Y-180048000I250000J0D01*
G01*
X64167000Y-180048000D01*
G75*
G02*
X64417000Y-180298000I0J-250000D01*
G01*
G37*
G36*
G01*
X62592000Y-180298000D02*
X62592000Y-181198000D01*
G75*
G02*
X62342000Y-181448000I-250000J0D01*
G01*
X61817000Y-181448000D01*
G75*
G02*
X61567000Y-181198000I0J250000D01*
G01*
X61567000Y-180298000D01*
G75*
G02*
X61817000Y-180048000I250000J0D01*
G01*
X62342000Y-180048000D01*
G75*
G02*
X62592000Y-180298000I0J-250000D01*
G01*
G37*
G36*
G01*
X58727000Y-163863000D02*
X58727000Y-164813000D01*
G75*
G02*
X58477000Y-165063000I-250000J0D01*
G01*
X57977000Y-165063000D01*
G75*
G02*
X57727000Y-164813000I0J250000D01*
G01*
X57727000Y-163863000D01*
G75*
G02*
X57977000Y-163613000I250000J0D01*
G01*
X58477000Y-163613000D01*
G75*
G02*
X58727000Y-163863000I0J-250000D01*
G01*
G37*
G36*
G01*
X56827000Y-163863000D02*
X56827000Y-164813000D01*
G75*
G02*
X56577000Y-165063000I-250000J0D01*
G01*
X56077000Y-165063000D01*
G75*
G02*
X55827000Y-164813000I0J250000D01*
G01*
X55827000Y-163863000D01*
G75*
G02*
X56077000Y-163613000I250000J0D01*
G01*
X56577000Y-163613000D01*
G75*
G02*
X56827000Y-163863000I0J-250000D01*
G01*
G37*
G36*
G01*
X63274000Y-145600000D02*
X63274000Y-146500000D01*
G75*
G02*
X63024000Y-146750000I-250000J0D01*
G01*
X62499000Y-146750000D01*
G75*
G02*
X62249000Y-146500000I0J250000D01*
G01*
X62249000Y-145600000D01*
G75*
G02*
X62499000Y-145350000I250000J0D01*
G01*
X63024000Y-145350000D01*
G75*
G02*
X63274000Y-145600000I0J-250000D01*
G01*
G37*
G36*
G01*
X61449000Y-145600000D02*
X61449000Y-146500000D01*
G75*
G02*
X61199000Y-146750000I-250000J0D01*
G01*
X60674000Y-146750000D01*
G75*
G02*
X60424000Y-146500000I0J250000D01*
G01*
X60424000Y-145600000D01*
G75*
G02*
X60674000Y-145350000I250000J0D01*
G01*
X61199000Y-145350000D01*
G75*
G02*
X61449000Y-145600000I0J-250000D01*
G01*
G37*
G36*
G01*
X88083064Y-161105000D02*
X88083064Y-160205000D01*
G75*
G02*
X88333064Y-159955000I250000J0D01*
G01*
X88858064Y-159955000D01*
G75*
G02*
X89108064Y-160205000I0J-250000D01*
G01*
X89108064Y-161105000D01*
G75*
G02*
X88858064Y-161355000I-250000J0D01*
G01*
X88333064Y-161355000D01*
G75*
G02*
X88083064Y-161105000I0J250000D01*
G01*
G37*
G36*
G01*
X89908064Y-161105000D02*
X89908064Y-160205000D01*
G75*
G02*
X90158064Y-159955000I250000J0D01*
G01*
X90683064Y-159955000D01*
G75*
G02*
X90933064Y-160205000I0J-250000D01*
G01*
X90933064Y-161105000D01*
G75*
G02*
X90683064Y-161355000I-250000J0D01*
G01*
X90158064Y-161355000D01*
G75*
G02*
X89908064Y-161105000I0J250000D01*
G01*
G37*
G36*
G01*
X74473500Y-181414000D02*
X74473500Y-182314000D01*
G75*
G02*
X74223500Y-182564000I-250000J0D01*
G01*
X73698500Y-182564000D01*
G75*
G02*
X73448500Y-182314000I0J250000D01*
G01*
X73448500Y-181414000D01*
G75*
G02*
X73698500Y-181164000I250000J0D01*
G01*
X74223500Y-181164000D01*
G75*
G02*
X74473500Y-181414000I0J-250000D01*
G01*
G37*
G36*
G01*
X72648500Y-181414000D02*
X72648500Y-182314000D01*
G75*
G02*
X72398500Y-182564000I-250000J0D01*
G01*
X71873500Y-182564000D01*
G75*
G02*
X71623500Y-182314000I0J250000D01*
G01*
X71623500Y-181414000D01*
G75*
G02*
X71873500Y-181164000I250000J0D01*
G01*
X72398500Y-181164000D01*
G75*
G02*
X72648500Y-181414000I0J-250000D01*
G01*
G37*
G36*
G01*
X63274000Y-140520000D02*
X63274000Y-141420000D01*
G75*
G02*
X63024000Y-141670000I-250000J0D01*
G01*
X62499000Y-141670000D01*
G75*
G02*
X62249000Y-141420000I0J250000D01*
G01*
X62249000Y-140520000D01*
G75*
G02*
X62499000Y-140270000I250000J0D01*
G01*
X63024000Y-140270000D01*
G75*
G02*
X63274000Y-140520000I0J-250000D01*
G01*
G37*
G36*
G01*
X61449000Y-140520000D02*
X61449000Y-141420000D01*
G75*
G02*
X61199000Y-141670000I-250000J0D01*
G01*
X60674000Y-141670000D01*
G75*
G02*
X60424000Y-141420000I0J250000D01*
G01*
X60424000Y-140520000D01*
G75*
G02*
X60674000Y-140270000I250000J0D01*
G01*
X61199000Y-140270000D01*
G75*
G02*
X61449000Y-140520000I0J-250000D01*
G01*
G37*
G36*
G01*
X71402000Y-140139000D02*
X71402000Y-141039000D01*
G75*
G02*
X71152000Y-141289000I-250000J0D01*
G01*
X70627000Y-141289000D01*
G75*
G02*
X70377000Y-141039000I0J250000D01*
G01*
X70377000Y-140139000D01*
G75*
G02*
X70627000Y-139889000I250000J0D01*
G01*
X71152000Y-139889000D01*
G75*
G02*
X71402000Y-140139000I0J-250000D01*
G01*
G37*
G36*
G01*
X69577000Y-140139000D02*
X69577000Y-141039000D01*
G75*
G02*
X69327000Y-141289000I-250000J0D01*
G01*
X68802000Y-141289000D01*
G75*
G02*
X68552000Y-141039000I0J250000D01*
G01*
X68552000Y-140139000D01*
G75*
G02*
X68802000Y-139889000I250000J0D01*
G01*
X69327000Y-139889000D01*
G75*
G02*
X69577000Y-140139000I0J-250000D01*
G01*
G37*
G36*
G01*
X103273000Y-140230000D02*
X102023000Y-140230000D01*
G75*
G02*
X101873000Y-140080000I0J150000D01*
G01*
X101873000Y-139780000D01*
G75*
G02*
X102023000Y-139630000I150000J0D01*
G01*
X103273000Y-139630000D01*
G75*
G02*
X103423000Y-139780000I0J-150000D01*
G01*
X103423000Y-140080000D01*
G75*
G02*
X103273000Y-140230000I-150000J0D01*
G01*
G37*
G36*
G01*
X103273000Y-139230000D02*
X102023000Y-139230000D01*
G75*
G02*
X101873000Y-139080000I0J150000D01*
G01*
X101873000Y-138780000D01*
G75*
G02*
X102023000Y-138630000I150000J0D01*
G01*
X103273000Y-138630000D01*
G75*
G02*
X103423000Y-138780000I0J-150000D01*
G01*
X103423000Y-139080000D01*
G75*
G02*
X103273000Y-139230000I-150000J0D01*
G01*
G37*
G36*
G01*
X103273000Y-138230000D02*
X102023000Y-138230000D01*
G75*
G02*
X101873000Y-138080000I0J150000D01*
G01*
X101873000Y-137780000D01*
G75*
G02*
X102023000Y-137630000I150000J0D01*
G01*
X103273000Y-137630000D01*
G75*
G02*
X103423000Y-137780000I0J-150000D01*
G01*
X103423000Y-138080000D01*
G75*
G02*
X103273000Y-138230000I-150000J0D01*
G01*
G37*
G36*
G01*
X103273000Y-137230000D02*
X102023000Y-137230000D01*
G75*
G02*
X101873000Y-137080000I0J150000D01*
G01*
X101873000Y-136780000D01*
G75*
G02*
X102023000Y-136630000I150000J0D01*
G01*
X103273000Y-136630000D01*
G75*
G02*
X103423000Y-136780000I0J-150000D01*
G01*
X103423000Y-137080000D01*
G75*
G02*
X103273000Y-137230000I-150000J0D01*
G01*
G37*
G36*
G01*
X107173000Y-141830000D02*
X105873000Y-141830000D01*
G75*
G02*
X105623000Y-141580000I0J250000D01*
G01*
X105623000Y-140880000D01*
G75*
G02*
X105873000Y-140630000I250000J0D01*
G01*
X107173000Y-140630000D01*
G75*
G02*
X107423000Y-140880000I0J-250000D01*
G01*
X107423000Y-141580000D01*
G75*
G02*
X107173000Y-141830000I-250000J0D01*
G01*
G37*
G36*
G01*
X107173000Y-136230000D02*
X105873000Y-136230000D01*
G75*
G02*
X105623000Y-135980000I0J250000D01*
G01*
X105623000Y-135280000D01*
G75*
G02*
X105873000Y-135030000I250000J0D01*
G01*
X107173000Y-135030000D01*
G75*
G02*
X107423000Y-135280000I0J-250000D01*
G01*
X107423000Y-135980000D01*
G75*
G02*
X107173000Y-136230000I-250000J0D01*
G01*
G37*
X41402000Y-167387000D03*
X41402000Y-170687000D03*
G36*
G01*
X39850000Y-131133000D02*
X39850000Y-130233000D01*
G75*
G02*
X40100000Y-129983000I250000J0D01*
G01*
X40625000Y-129983000D01*
G75*
G02*
X40875000Y-130233000I0J-250000D01*
G01*
X40875000Y-131133000D01*
G75*
G02*
X40625000Y-131383000I-250000J0D01*
G01*
X40100000Y-131383000D01*
G75*
G02*
X39850000Y-131133000I0J250000D01*
G01*
G37*
G36*
G01*
X41675000Y-131133000D02*
X41675000Y-130233000D01*
G75*
G02*
X41925000Y-129983000I250000J0D01*
G01*
X42450000Y-129983000D01*
G75*
G02*
X42700000Y-130233000I0J-250000D01*
G01*
X42700000Y-131133000D01*
G75*
G02*
X42450000Y-131383000I-250000J0D01*
G01*
X41925000Y-131383000D01*
G75*
G02*
X41675000Y-131133000I0J250000D01*
G01*
G37*
G36*
G01*
X84889000Y-148496000D02*
X84889000Y-149446000D01*
G75*
G02*
X84639000Y-149696000I-250000J0D01*
G01*
X84139000Y-149696000D01*
G75*
G02*
X83889000Y-149446000I0J250000D01*
G01*
X83889000Y-148496000D01*
G75*
G02*
X84139000Y-148246000I250000J0D01*
G01*
X84639000Y-148246000D01*
G75*
G02*
X84889000Y-148496000I0J-250000D01*
G01*
G37*
G36*
G01*
X82989000Y-148496000D02*
X82989000Y-149446000D01*
G75*
G02*
X82739000Y-149696000I-250000J0D01*
G01*
X82239000Y-149696000D01*
G75*
G02*
X81989000Y-149446000I0J250000D01*
G01*
X81989000Y-148496000D01*
G75*
G02*
X82239000Y-148246000I250000J0D01*
G01*
X82739000Y-148246000D01*
G75*
G02*
X82989000Y-148496000I0J-250000D01*
G01*
G37*
G36*
G01*
X103273000Y-170710000D02*
X102023000Y-170710000D01*
G75*
G02*
X101873000Y-170560000I0J150000D01*
G01*
X101873000Y-170260000D01*
G75*
G02*
X102023000Y-170110000I150000J0D01*
G01*
X103273000Y-170110000D01*
G75*
G02*
X103423000Y-170260000I0J-150000D01*
G01*
X103423000Y-170560000D01*
G75*
G02*
X103273000Y-170710000I-150000J0D01*
G01*
G37*
G36*
G01*
X103273000Y-169710000D02*
X102023000Y-169710000D01*
G75*
G02*
X101873000Y-169560000I0J150000D01*
G01*
X101873000Y-169260000D01*
G75*
G02*
X102023000Y-169110000I150000J0D01*
G01*
X103273000Y-169110000D01*
G75*
G02*
X103423000Y-169260000I0J-150000D01*
G01*
X103423000Y-169560000D01*
G75*
G02*
X103273000Y-169710000I-150000J0D01*
G01*
G37*
G36*
G01*
X103273000Y-168710000D02*
X102023000Y-168710000D01*
G75*
G02*
X101873000Y-168560000I0J150000D01*
G01*
X101873000Y-168260000D01*
G75*
G02*
X102023000Y-168110000I150000J0D01*
G01*
X103273000Y-168110000D01*
G75*
G02*
X103423000Y-168260000I0J-150000D01*
G01*
X103423000Y-168560000D01*
G75*
G02*
X103273000Y-168710000I-150000J0D01*
G01*
G37*
G36*
G01*
X103273000Y-167710000D02*
X102023000Y-167710000D01*
G75*
G02*
X101873000Y-167560000I0J150000D01*
G01*
X101873000Y-167260000D01*
G75*
G02*
X102023000Y-167110000I150000J0D01*
G01*
X103273000Y-167110000D01*
G75*
G02*
X103423000Y-167260000I0J-150000D01*
G01*
X103423000Y-167560000D01*
G75*
G02*
X103273000Y-167710000I-150000J0D01*
G01*
G37*
G36*
G01*
X107173000Y-172310000D02*
X105873000Y-172310000D01*
G75*
G02*
X105623000Y-172060000I0J250000D01*
G01*
X105623000Y-171360000D01*
G75*
G02*
X105873000Y-171110000I250000J0D01*
G01*
X107173000Y-171110000D01*
G75*
G02*
X107423000Y-171360000I0J-250000D01*
G01*
X107423000Y-172060000D01*
G75*
G02*
X107173000Y-172310000I-250000J0D01*
G01*
G37*
G36*
G01*
X107173000Y-166710000D02*
X105873000Y-166710000D01*
G75*
G02*
X105623000Y-166460000I0J250000D01*
G01*
X105623000Y-165760000D01*
G75*
G02*
X105873000Y-165510000I250000J0D01*
G01*
X107173000Y-165510000D01*
G75*
G02*
X107423000Y-165760000I0J-250000D01*
G01*
X107423000Y-166460000D01*
G75*
G02*
X107173000Y-166710000I-250000J0D01*
G01*
G37*
X38100000Y-170560000D03*
X38100000Y-167260000D03*
G36*
G01*
X74473500Y-172651000D02*
X74473500Y-173551000D01*
G75*
G02*
X74223500Y-173801000I-250000J0D01*
G01*
X73698500Y-173801000D01*
G75*
G02*
X73448500Y-173551000I0J250000D01*
G01*
X73448500Y-172651000D01*
G75*
G02*
X73698500Y-172401000I250000J0D01*
G01*
X74223500Y-172401000D01*
G75*
G02*
X74473500Y-172651000I0J-250000D01*
G01*
G37*
G36*
G01*
X72648500Y-172651000D02*
X72648500Y-173551000D01*
G75*
G02*
X72398500Y-173801000I-250000J0D01*
G01*
X71873500Y-173801000D01*
G75*
G02*
X71623500Y-173551000I0J250000D01*
G01*
X71623500Y-172651000D01*
G75*
G02*
X71873500Y-172401000I250000J0D01*
G01*
X72398500Y-172401000D01*
G75*
G02*
X72648500Y-172651000I0J-250000D01*
G01*
G37*
G36*
G01*
X84889000Y-160180000D02*
X84889000Y-161130000D01*
G75*
G02*
X84639000Y-161380000I-250000J0D01*
G01*
X84139000Y-161380000D01*
G75*
G02*
X83889000Y-161130000I0J250000D01*
G01*
X83889000Y-160180000D01*
G75*
G02*
X84139000Y-159930000I250000J0D01*
G01*
X84639000Y-159930000D01*
G75*
G02*
X84889000Y-160180000I0J-250000D01*
G01*
G37*
G36*
G01*
X82989000Y-160180000D02*
X82989000Y-161130000D01*
G75*
G02*
X82739000Y-161380000I-250000J0D01*
G01*
X82239000Y-161380000D01*
G75*
G02*
X81989000Y-161130000I0J250000D01*
G01*
X81989000Y-160180000D01*
G75*
G02*
X82239000Y-159930000I250000J0D01*
G01*
X82739000Y-159930000D01*
G75*
G02*
X82989000Y-160180000I0J-250000D01*
G01*
G37*
G36*
G01*
X74473500Y-178493000D02*
X74473500Y-179393000D01*
G75*
G02*
X74223500Y-179643000I-250000J0D01*
G01*
X73698500Y-179643000D01*
G75*
G02*
X73448500Y-179393000I0J250000D01*
G01*
X73448500Y-178493000D01*
G75*
G02*
X73698500Y-178243000I250000J0D01*
G01*
X74223500Y-178243000D01*
G75*
G02*
X74473500Y-178493000I0J-250000D01*
G01*
G37*
G36*
G01*
X72648500Y-178493000D02*
X72648500Y-179393000D01*
G75*
G02*
X72398500Y-179643000I-250000J0D01*
G01*
X71873500Y-179643000D01*
G75*
G02*
X71623500Y-179393000I0J250000D01*
G01*
X71623500Y-178493000D01*
G75*
G02*
X71873500Y-178243000I250000J0D01*
G01*
X72398500Y-178243000D01*
G75*
G02*
X72648500Y-178493000I0J-250000D01*
G01*
G37*
G36*
G01*
X69055000Y-149405000D02*
X68105000Y-149405000D01*
G75*
G02*
X67855000Y-149155000I0J250000D01*
G01*
X67855000Y-148655000D01*
G75*
G02*
X68105000Y-148405000I250000J0D01*
G01*
X69055000Y-148405000D01*
G75*
G02*
X69305000Y-148655000I0J-250000D01*
G01*
X69305000Y-149155000D01*
G75*
G02*
X69055000Y-149405000I-250000J0D01*
G01*
G37*
G36*
G01*
X69055000Y-147505000D02*
X68105000Y-147505000D01*
G75*
G02*
X67855000Y-147255000I0J250000D01*
G01*
X67855000Y-146755000D01*
G75*
G02*
X68105000Y-146505000I250000J0D01*
G01*
X69055000Y-146505000D01*
G75*
G02*
X69305000Y-146755000I0J-250000D01*
G01*
X69305000Y-147255000D01*
G75*
G02*
X69055000Y-147505000I-250000J0D01*
G01*
G37*
D11*
X89440000Y-137541000D03*
X93440000Y-137541000D03*
G36*
G01*
X88059564Y-146500000D02*
X88059564Y-145600000D01*
G75*
G02*
X88309564Y-145350000I250000J0D01*
G01*
X88834564Y-145350000D01*
G75*
G02*
X89084564Y-145600000I0J-250000D01*
G01*
X89084564Y-146500000D01*
G75*
G02*
X88834564Y-146750000I-250000J0D01*
G01*
X88309564Y-146750000D01*
G75*
G02*
X88059564Y-146500000I0J250000D01*
G01*
G37*
G36*
G01*
X89884564Y-146500000D02*
X89884564Y-145600000D01*
G75*
G02*
X90134564Y-145350000I250000J0D01*
G01*
X90659564Y-145350000D01*
G75*
G02*
X90909564Y-145600000I0J-250000D01*
G01*
X90909564Y-146500000D01*
G75*
G02*
X90659564Y-146750000I-250000J0D01*
G01*
X90134564Y-146750000D01*
G75*
G02*
X89884564Y-146500000I0J250000D01*
G01*
G37*
D12*
X34798000Y-170560000D03*
X34798000Y-167260000D03*
G36*
G01*
X74473500Y-175572000D02*
X74473500Y-176472000D01*
G75*
G02*
X74223500Y-176722000I-250000J0D01*
G01*
X73698500Y-176722000D01*
G75*
G02*
X73448500Y-176472000I0J250000D01*
G01*
X73448500Y-175572000D01*
G75*
G02*
X73698500Y-175322000I250000J0D01*
G01*
X74223500Y-175322000D01*
G75*
G02*
X74473500Y-175572000I0J-250000D01*
G01*
G37*
G36*
G01*
X72648500Y-175572000D02*
X72648500Y-176472000D01*
G75*
G02*
X72398500Y-176722000I-250000J0D01*
G01*
X71873500Y-176722000D01*
G75*
G02*
X71623500Y-176472000I0J250000D01*
G01*
X71623500Y-175572000D01*
G75*
G02*
X71873500Y-175322000I250000J0D01*
G01*
X72398500Y-175322000D01*
G75*
G02*
X72648500Y-175572000I0J-250000D01*
G01*
G37*
G36*
G01*
X39850000Y-134689000D02*
X39850000Y-133789000D01*
G75*
G02*
X40100000Y-133539000I250000J0D01*
G01*
X40625000Y-133539000D01*
G75*
G02*
X40875000Y-133789000I0J-250000D01*
G01*
X40875000Y-134689000D01*
G75*
G02*
X40625000Y-134939000I-250000J0D01*
G01*
X40100000Y-134939000D01*
G75*
G02*
X39850000Y-134689000I0J250000D01*
G01*
G37*
G36*
G01*
X41675000Y-134689000D02*
X41675000Y-133789000D01*
G75*
G02*
X41925000Y-133539000I250000J0D01*
G01*
X42450000Y-133539000D01*
G75*
G02*
X42700000Y-133789000I0J-250000D01*
G01*
X42700000Y-134689000D01*
G75*
G02*
X42450000Y-134939000I-250000J0D01*
G01*
X41925000Y-134939000D01*
G75*
G02*
X41675000Y-134689000I0J250000D01*
G01*
G37*
D13*
X50279300Y-179451000D03*
X54876700Y-179451000D03*
G36*
G01*
X56543000Y-168580750D02*
X56543000Y-169493250D01*
G75*
G02*
X56299250Y-169737000I-243750J0D01*
G01*
X55811750Y-169737000D01*
G75*
G02*
X55568000Y-169493250I0J243750D01*
G01*
X55568000Y-168580750D01*
G75*
G02*
X55811750Y-168337000I243750J0D01*
G01*
X56299250Y-168337000D01*
G75*
G02*
X56543000Y-168580750I0J-243750D01*
G01*
G37*
G36*
G01*
X54668000Y-168580750D02*
X54668000Y-169493250D01*
G75*
G02*
X54424250Y-169737000I-243750J0D01*
G01*
X53936750Y-169737000D01*
G75*
G02*
X53693000Y-169493250I0J243750D01*
G01*
X53693000Y-168580750D01*
G75*
G02*
X53936750Y-168337000I243750J0D01*
G01*
X54424250Y-168337000D01*
G75*
G02*
X54668000Y-168580750I0J-243750D01*
G01*
G37*
G36*
G01*
X55659000Y-184224000D02*
X56609000Y-184224000D01*
G75*
G02*
X56859000Y-184474000I0J-250000D01*
G01*
X56859000Y-184974000D01*
G75*
G02*
X56609000Y-185224000I-250000J0D01*
G01*
X55659000Y-185224000D01*
G75*
G02*
X55409000Y-184974000I0J250000D01*
G01*
X55409000Y-184474000D01*
G75*
G02*
X55659000Y-184224000I250000J0D01*
G01*
G37*
G36*
G01*
X55659000Y-186124000D02*
X56609000Y-186124000D01*
G75*
G02*
X56859000Y-186374000I0J-250000D01*
G01*
X56859000Y-186874000D01*
G75*
G02*
X56609000Y-187124000I-250000J0D01*
G01*
X55659000Y-187124000D01*
G75*
G02*
X55409000Y-186874000I0J250000D01*
G01*
X55409000Y-186374000D01*
G75*
G02*
X55659000Y-186124000I250000J0D01*
G01*
G37*
G36*
G01*
X54523000Y-150010000D02*
X54523000Y-149710000D01*
G75*
G02*
X54673000Y-149560000I150000J0D01*
G01*
X56423000Y-149560000D01*
G75*
G02*
X56573000Y-149710000I0J-150000D01*
G01*
X56573000Y-150010000D01*
G75*
G02*
X56423000Y-150160000I-150000J0D01*
G01*
X54673000Y-150160000D01*
G75*
G02*
X54523000Y-150010000I0J150000D01*
G01*
G37*
G36*
G01*
X54523000Y-151280000D02*
X54523000Y-150980000D01*
G75*
G02*
X54673000Y-150830000I150000J0D01*
G01*
X56423000Y-150830000D01*
G75*
G02*
X56573000Y-150980000I0J-150000D01*
G01*
X56573000Y-151280000D01*
G75*
G02*
X56423000Y-151430000I-150000J0D01*
G01*
X54673000Y-151430000D01*
G75*
G02*
X54523000Y-151280000I0J150000D01*
G01*
G37*
G36*
G01*
X54523000Y-152550000D02*
X54523000Y-152250000D01*
G75*
G02*
X54673000Y-152100000I150000J0D01*
G01*
X56423000Y-152100000D01*
G75*
G02*
X56573000Y-152250000I0J-150000D01*
G01*
X56573000Y-152550000D01*
G75*
G02*
X56423000Y-152700000I-150000J0D01*
G01*
X54673000Y-152700000D01*
G75*
G02*
X54523000Y-152550000I0J150000D01*
G01*
G37*
G36*
G01*
X54523000Y-153820000D02*
X54523000Y-153520000D01*
G75*
G02*
X54673000Y-153370000I150000J0D01*
G01*
X56423000Y-153370000D01*
G75*
G02*
X56573000Y-153520000I0J-150000D01*
G01*
X56573000Y-153820000D01*
G75*
G02*
X56423000Y-153970000I-150000J0D01*
G01*
X54673000Y-153970000D01*
G75*
G02*
X54523000Y-153820000I0J150000D01*
G01*
G37*
G36*
G01*
X54523000Y-155090000D02*
X54523000Y-154790000D01*
G75*
G02*
X54673000Y-154640000I150000J0D01*
G01*
X56423000Y-154640000D01*
G75*
G02*
X56573000Y-154790000I0J-150000D01*
G01*
X56573000Y-155090000D01*
G75*
G02*
X56423000Y-155240000I-150000J0D01*
G01*
X54673000Y-155240000D01*
G75*
G02*
X54523000Y-155090000I0J150000D01*
G01*
G37*
G36*
G01*
X54523000Y-156360000D02*
X54523000Y-156060000D01*
G75*
G02*
X54673000Y-155910000I150000J0D01*
G01*
X56423000Y-155910000D01*
G75*
G02*
X56573000Y-156060000I0J-150000D01*
G01*
X56573000Y-156360000D01*
G75*
G02*
X56423000Y-156510000I-150000J0D01*
G01*
X54673000Y-156510000D01*
G75*
G02*
X54523000Y-156360000I0J150000D01*
G01*
G37*
G36*
G01*
X54523000Y-157630000D02*
X54523000Y-157330000D01*
G75*
G02*
X54673000Y-157180000I150000J0D01*
G01*
X56423000Y-157180000D01*
G75*
G02*
X56573000Y-157330000I0J-150000D01*
G01*
X56573000Y-157630000D01*
G75*
G02*
X56423000Y-157780000I-150000J0D01*
G01*
X54673000Y-157780000D01*
G75*
G02*
X54523000Y-157630000I0J150000D01*
G01*
G37*
G36*
G01*
X54523000Y-158900000D02*
X54523000Y-158600000D01*
G75*
G02*
X54673000Y-158450000I150000J0D01*
G01*
X56423000Y-158450000D01*
G75*
G02*
X56573000Y-158600000I0J-150000D01*
G01*
X56573000Y-158900000D01*
G75*
G02*
X56423000Y-159050000I-150000J0D01*
G01*
X54673000Y-159050000D01*
G75*
G02*
X54523000Y-158900000I0J150000D01*
G01*
G37*
G36*
G01*
X54523000Y-160170000D02*
X54523000Y-159870000D01*
G75*
G02*
X54673000Y-159720000I150000J0D01*
G01*
X56423000Y-159720000D01*
G75*
G02*
X56573000Y-159870000I0J-150000D01*
G01*
X56573000Y-160170000D01*
G75*
G02*
X56423000Y-160320000I-150000J0D01*
G01*
X54673000Y-160320000D01*
G75*
G02*
X54523000Y-160170000I0J150000D01*
G01*
G37*
G36*
G01*
X54523000Y-161440000D02*
X54523000Y-161140000D01*
G75*
G02*
X54673000Y-160990000I150000J0D01*
G01*
X56423000Y-160990000D01*
G75*
G02*
X56573000Y-161140000I0J-150000D01*
G01*
X56573000Y-161440000D01*
G75*
G02*
X56423000Y-161590000I-150000J0D01*
G01*
X54673000Y-161590000D01*
G75*
G02*
X54523000Y-161440000I0J150000D01*
G01*
G37*
G36*
G01*
X63823000Y-161440000D02*
X63823000Y-161140000D01*
G75*
G02*
X63973000Y-160990000I150000J0D01*
G01*
X65723000Y-160990000D01*
G75*
G02*
X65873000Y-161140000I0J-150000D01*
G01*
X65873000Y-161440000D01*
G75*
G02*
X65723000Y-161590000I-150000J0D01*
G01*
X63973000Y-161590000D01*
G75*
G02*
X63823000Y-161440000I0J150000D01*
G01*
G37*
G36*
G01*
X63823000Y-160170000D02*
X63823000Y-159870000D01*
G75*
G02*
X63973000Y-159720000I150000J0D01*
G01*
X65723000Y-159720000D01*
G75*
G02*
X65873000Y-159870000I0J-150000D01*
G01*
X65873000Y-160170000D01*
G75*
G02*
X65723000Y-160320000I-150000J0D01*
G01*
X63973000Y-160320000D01*
G75*
G02*
X63823000Y-160170000I0J150000D01*
G01*
G37*
G36*
G01*
X63823000Y-158900000D02*
X63823000Y-158600000D01*
G75*
G02*
X63973000Y-158450000I150000J0D01*
G01*
X65723000Y-158450000D01*
G75*
G02*
X65873000Y-158600000I0J-150000D01*
G01*
X65873000Y-158900000D01*
G75*
G02*
X65723000Y-159050000I-150000J0D01*
G01*
X63973000Y-159050000D01*
G75*
G02*
X63823000Y-158900000I0J150000D01*
G01*
G37*
G36*
G01*
X63823000Y-157630000D02*
X63823000Y-157330000D01*
G75*
G02*
X63973000Y-157180000I150000J0D01*
G01*
X65723000Y-157180000D01*
G75*
G02*
X65873000Y-157330000I0J-150000D01*
G01*
X65873000Y-157630000D01*
G75*
G02*
X65723000Y-157780000I-150000J0D01*
G01*
X63973000Y-157780000D01*
G75*
G02*
X63823000Y-157630000I0J150000D01*
G01*
G37*
G36*
G01*
X63823000Y-156360000D02*
X63823000Y-156060000D01*
G75*
G02*
X63973000Y-155910000I150000J0D01*
G01*
X65723000Y-155910000D01*
G75*
G02*
X65873000Y-156060000I0J-150000D01*
G01*
X65873000Y-156360000D01*
G75*
G02*
X65723000Y-156510000I-150000J0D01*
G01*
X63973000Y-156510000D01*
G75*
G02*
X63823000Y-156360000I0J150000D01*
G01*
G37*
G36*
G01*
X63823000Y-155090000D02*
X63823000Y-154790000D01*
G75*
G02*
X63973000Y-154640000I150000J0D01*
G01*
X65723000Y-154640000D01*
G75*
G02*
X65873000Y-154790000I0J-150000D01*
G01*
X65873000Y-155090000D01*
G75*
G02*
X65723000Y-155240000I-150000J0D01*
G01*
X63973000Y-155240000D01*
G75*
G02*
X63823000Y-155090000I0J150000D01*
G01*
G37*
G36*
G01*
X63823000Y-153820000D02*
X63823000Y-153520000D01*
G75*
G02*
X63973000Y-153370000I150000J0D01*
G01*
X65723000Y-153370000D01*
G75*
G02*
X65873000Y-153520000I0J-150000D01*
G01*
X65873000Y-153820000D01*
G75*
G02*
X65723000Y-153970000I-150000J0D01*
G01*
X63973000Y-153970000D01*
G75*
G02*
X63823000Y-153820000I0J150000D01*
G01*
G37*
G36*
G01*
X63823000Y-152550000D02*
X63823000Y-152250000D01*
G75*
G02*
X63973000Y-152100000I150000J0D01*
G01*
X65723000Y-152100000D01*
G75*
G02*
X65873000Y-152250000I0J-150000D01*
G01*
X65873000Y-152550000D01*
G75*
G02*
X65723000Y-152700000I-150000J0D01*
G01*
X63973000Y-152700000D01*
G75*
G02*
X63823000Y-152550000I0J150000D01*
G01*
G37*
G36*
G01*
X63823000Y-151280000D02*
X63823000Y-150980000D01*
G75*
G02*
X63973000Y-150830000I150000J0D01*
G01*
X65723000Y-150830000D01*
G75*
G02*
X65873000Y-150980000I0J-150000D01*
G01*
X65873000Y-151280000D01*
G75*
G02*
X65723000Y-151430000I-150000J0D01*
G01*
X63973000Y-151430000D01*
G75*
G02*
X63823000Y-151280000I0J150000D01*
G01*
G37*
G36*
G01*
X63823000Y-150010000D02*
X63823000Y-149710000D01*
G75*
G02*
X63973000Y-149560000I150000J0D01*
G01*
X65723000Y-149560000D01*
G75*
G02*
X65873000Y-149710000I0J-150000D01*
G01*
X65873000Y-150010000D01*
G75*
G02*
X65723000Y-150160000I-150000J0D01*
G01*
X63973000Y-150160000D01*
G75*
G02*
X63823000Y-150010000I0J150000D01*
G01*
G37*
D12*
X58293000Y-181101000D03*
X58293000Y-177801000D03*
D14*
X46697900Y-145883000D03*
X46697900Y-143383000D03*
X46697900Y-140883000D03*
X41186100Y-145883000D03*
X41186100Y-143383000D03*
X41186100Y-140883000D03*
G36*
G01*
X88083064Y-155263000D02*
X88083064Y-154363000D01*
G75*
G02*
X88333064Y-154113000I250000J0D01*
G01*
X88858064Y-154113000D01*
G75*
G02*
X89108064Y-154363000I0J-250000D01*
G01*
X89108064Y-155263000D01*
G75*
G02*
X88858064Y-155513000I-250000J0D01*
G01*
X88333064Y-155513000D01*
G75*
G02*
X88083064Y-155263000I0J250000D01*
G01*
G37*
G36*
G01*
X89908064Y-155263000D02*
X89908064Y-154363000D01*
G75*
G02*
X90158064Y-154113000I250000J0D01*
G01*
X90683064Y-154113000D01*
G75*
G02*
X90933064Y-154363000I0J-250000D01*
G01*
X90933064Y-155263000D01*
G75*
G02*
X90683064Y-155513000I-250000J0D01*
G01*
X90158064Y-155513000D01*
G75*
G02*
X89908064Y-155263000I0J250000D01*
G01*
G37*
G36*
G01*
X64417000Y-186140000D02*
X64417000Y-187040000D01*
G75*
G02*
X64167000Y-187290000I-250000J0D01*
G01*
X63642000Y-187290000D01*
G75*
G02*
X63392000Y-187040000I0J250000D01*
G01*
X63392000Y-186140000D01*
G75*
G02*
X63642000Y-185890000I250000J0D01*
G01*
X64167000Y-185890000D01*
G75*
G02*
X64417000Y-186140000I0J-250000D01*
G01*
G37*
G36*
G01*
X62592000Y-186140000D02*
X62592000Y-187040000D01*
G75*
G02*
X62342000Y-187290000I-250000J0D01*
G01*
X61817000Y-187290000D01*
G75*
G02*
X61567000Y-187040000I0J250000D01*
G01*
X61567000Y-186140000D01*
G75*
G02*
X61817000Y-185890000I250000J0D01*
G01*
X62342000Y-185890000D01*
G75*
G02*
X62592000Y-186140000I0J-250000D01*
G01*
G37*
G36*
G01*
X53378000Y-183874000D02*
X53678000Y-183874000D01*
G75*
G02*
X53828000Y-184024000I0J-150000D01*
G01*
X53828000Y-185049000D01*
G75*
G02*
X53678000Y-185199000I-150000J0D01*
G01*
X53378000Y-185199000D01*
G75*
G02*
X53228000Y-185049000I0J150000D01*
G01*
X53228000Y-184024000D01*
G75*
G02*
X53378000Y-183874000I150000J0D01*
G01*
G37*
G36*
G01*
X52428000Y-183874000D02*
X52728000Y-183874000D01*
G75*
G02*
X52878000Y-184024000I0J-150000D01*
G01*
X52878000Y-185049000D01*
G75*
G02*
X52728000Y-185199000I-150000J0D01*
G01*
X52428000Y-185199000D01*
G75*
G02*
X52278000Y-185049000I0J150000D01*
G01*
X52278000Y-184024000D01*
G75*
G02*
X52428000Y-183874000I150000J0D01*
G01*
G37*
G36*
G01*
X51478000Y-183874000D02*
X51778000Y-183874000D01*
G75*
G02*
X51928000Y-184024000I0J-150000D01*
G01*
X51928000Y-185049000D01*
G75*
G02*
X51778000Y-185199000I-150000J0D01*
G01*
X51478000Y-185199000D01*
G75*
G02*
X51328000Y-185049000I0J150000D01*
G01*
X51328000Y-184024000D01*
G75*
G02*
X51478000Y-183874000I150000J0D01*
G01*
G37*
G36*
G01*
X51478000Y-186149000D02*
X51778000Y-186149000D01*
G75*
G02*
X51928000Y-186299000I0J-150000D01*
G01*
X51928000Y-187324000D01*
G75*
G02*
X51778000Y-187474000I-150000J0D01*
G01*
X51478000Y-187474000D01*
G75*
G02*
X51328000Y-187324000I0J150000D01*
G01*
X51328000Y-186299000D01*
G75*
G02*
X51478000Y-186149000I150000J0D01*
G01*
G37*
G36*
G01*
X53378000Y-186149000D02*
X53678000Y-186149000D01*
G75*
G02*
X53828000Y-186299000I0J-150000D01*
G01*
X53828000Y-187324000D01*
G75*
G02*
X53678000Y-187474000I-150000J0D01*
G01*
X53378000Y-187474000D01*
G75*
G02*
X53228000Y-187324000I0J150000D01*
G01*
X53228000Y-186299000D01*
G75*
G02*
X53378000Y-186149000I150000J0D01*
G01*
G37*
G36*
G01*
X39850000Y-160089000D02*
X39850000Y-159189000D01*
G75*
G02*
X40100000Y-158939000I250000J0D01*
G01*
X40625000Y-158939000D01*
G75*
G02*
X40875000Y-159189000I0J-250000D01*
G01*
X40875000Y-160089000D01*
G75*
G02*
X40625000Y-160339000I-250000J0D01*
G01*
X40100000Y-160339000D01*
G75*
G02*
X39850000Y-160089000I0J250000D01*
G01*
G37*
G36*
G01*
X41675000Y-160089000D02*
X41675000Y-159189000D01*
G75*
G02*
X41925000Y-158939000I250000J0D01*
G01*
X42450000Y-158939000D01*
G75*
G02*
X42700000Y-159189000I0J-250000D01*
G01*
X42700000Y-160089000D01*
G75*
G02*
X42450000Y-160339000I-250000J0D01*
G01*
X41925000Y-160339000D01*
G75*
G02*
X41675000Y-160089000I0J250000D01*
G01*
G37*
G36*
G01*
X63274000Y-135440000D02*
X63274000Y-136340000D01*
G75*
G02*
X63024000Y-136590000I-250000J0D01*
G01*
X62499000Y-136590000D01*
G75*
G02*
X62249000Y-136340000I0J250000D01*
G01*
X62249000Y-135440000D01*
G75*
G02*
X62499000Y-135190000I250000J0D01*
G01*
X63024000Y-135190000D01*
G75*
G02*
X63274000Y-135440000I0J-250000D01*
G01*
G37*
G36*
G01*
X61449000Y-135440000D02*
X61449000Y-136340000D01*
G75*
G02*
X61199000Y-136590000I-250000J0D01*
G01*
X60674000Y-136590000D01*
G75*
G02*
X60424000Y-136340000I0J250000D01*
G01*
X60424000Y-135440000D01*
G75*
G02*
X60674000Y-135190000I250000J0D01*
G01*
X61199000Y-135190000D01*
G75*
G02*
X61449000Y-135440000I0J-250000D01*
G01*
G37*
G36*
G01*
X74473500Y-169730000D02*
X74473500Y-170630000D01*
G75*
G02*
X74223500Y-170880000I-250000J0D01*
G01*
X73698500Y-170880000D01*
G75*
G02*
X73448500Y-170630000I0J250000D01*
G01*
X73448500Y-169730000D01*
G75*
G02*
X73698500Y-169480000I250000J0D01*
G01*
X74223500Y-169480000D01*
G75*
G02*
X74473500Y-169730000I0J-250000D01*
G01*
G37*
G36*
G01*
X72648500Y-169730000D02*
X72648500Y-170630000D01*
G75*
G02*
X72398500Y-170880000I-250000J0D01*
G01*
X71873500Y-170880000D01*
G75*
G02*
X71623500Y-170630000I0J250000D01*
G01*
X71623500Y-169730000D01*
G75*
G02*
X71873500Y-169480000I250000J0D01*
G01*
X72398500Y-169480000D01*
G75*
G02*
X72648500Y-169730000I0J-250000D01*
G01*
G37*
D15*
X44172000Y-184697500D03*
G36*
X41747000Y-188647500D02*
G01*
X41747000Y-186047500D01*
X42272000Y-185522500D01*
X42272000Y-184047500D01*
X43072000Y-184047500D01*
X43072000Y-185522500D01*
X43597000Y-186047500D01*
X43597000Y-188647500D01*
X41747000Y-188647500D01*
G37*
X41172000Y-184697500D03*
G36*
G01*
X52103000Y-162507000D02*
X53053000Y-162507000D01*
G75*
G02*
X53303000Y-162757000I0J-250000D01*
G01*
X53303000Y-163257000D01*
G75*
G02*
X53053000Y-163507000I-250000J0D01*
G01*
X52103000Y-163507000D01*
G75*
G02*
X51853000Y-163257000I0J250000D01*
G01*
X51853000Y-162757000D01*
G75*
G02*
X52103000Y-162507000I250000J0D01*
G01*
G37*
G36*
G01*
X52103000Y-164407000D02*
X53053000Y-164407000D01*
G75*
G02*
X53303000Y-164657000I0J-250000D01*
G01*
X53303000Y-165157000D01*
G75*
G02*
X53053000Y-165407000I-250000J0D01*
G01*
X52103000Y-165407000D01*
G75*
G02*
X51853000Y-165157000I0J250000D01*
G01*
X51853000Y-164657000D01*
G75*
G02*
X52103000Y-164407000I250000J0D01*
G01*
G37*
G36*
G01*
X84889000Y-145575000D02*
X84889000Y-146525000D01*
G75*
G02*
X84639000Y-146775000I-250000J0D01*
G01*
X84139000Y-146775000D01*
G75*
G02*
X83889000Y-146525000I0J250000D01*
G01*
X83889000Y-145575000D01*
G75*
G02*
X84139000Y-145325000I250000J0D01*
G01*
X84639000Y-145325000D01*
G75*
G02*
X84889000Y-145575000I0J-250000D01*
G01*
G37*
G36*
G01*
X82989000Y-145575000D02*
X82989000Y-146525000D01*
G75*
G02*
X82739000Y-146775000I-250000J0D01*
G01*
X82239000Y-146775000D01*
G75*
G02*
X81989000Y-146525000I0J250000D01*
G01*
X81989000Y-145575000D01*
G75*
G02*
X82239000Y-145325000I250000J0D01*
G01*
X82739000Y-145325000D01*
G75*
G02*
X82989000Y-145575000I0J-250000D01*
G01*
G37*
D10*
X91718750Y-164719000D03*
X88418750Y-164719000D03*
G36*
G01*
X71402000Y-137599000D02*
X71402000Y-138499000D01*
G75*
G02*
X71152000Y-138749000I-250000J0D01*
G01*
X70627000Y-138749000D01*
G75*
G02*
X70377000Y-138499000I0J250000D01*
G01*
X70377000Y-137599000D01*
G75*
G02*
X70627000Y-137349000I250000J0D01*
G01*
X71152000Y-137349000D01*
G75*
G02*
X71402000Y-137599000I0J-250000D01*
G01*
G37*
G36*
G01*
X69577000Y-137599000D02*
X69577000Y-138499000D01*
G75*
G02*
X69327000Y-138749000I-250000J0D01*
G01*
X68802000Y-138749000D01*
G75*
G02*
X68552000Y-138499000I0J250000D01*
G01*
X68552000Y-137599000D01*
G75*
G02*
X68802000Y-137349000I250000J0D01*
G01*
X69327000Y-137349000D01*
G75*
G02*
X69577000Y-137599000I0J-250000D01*
G01*
G37*
G36*
G01*
X59632000Y-187099000D02*
X58732000Y-187099000D01*
G75*
G02*
X58482000Y-186849000I0J250000D01*
G01*
X58482000Y-186324000D01*
G75*
G02*
X58732000Y-186074000I250000J0D01*
G01*
X59632000Y-186074000D01*
G75*
G02*
X59882000Y-186324000I0J-250000D01*
G01*
X59882000Y-186849000D01*
G75*
G02*
X59632000Y-187099000I-250000J0D01*
G01*
G37*
G36*
G01*
X59632000Y-185274000D02*
X58732000Y-185274000D01*
G75*
G02*
X58482000Y-185024000I0J250000D01*
G01*
X58482000Y-184499000D01*
G75*
G02*
X58732000Y-184249000I250000J0D01*
G01*
X59632000Y-184249000D01*
G75*
G02*
X59882000Y-184499000I0J-250000D01*
G01*
X59882000Y-185024000D01*
G75*
G02*
X59632000Y-185274000I-250000J0D01*
G01*
G37*
M02*
