G04 #@! TF.GenerationSoftware,KiCad,Pcbnew,6.0.10-86aedd382b~118~ubuntu18.04.1*
G04 #@! TF.CreationDate,2024-12-06T10:37:32-07:00*
G04 #@! TF.ProjectId,mss-cascade-adv,6d73732d-6361-4736-9361-64652d616476,rev?*
G04 #@! TF.SameCoordinates,Original*
G04 #@! TF.FileFunction,Soldermask,Top*
G04 #@! TF.FilePolarity,Negative*
%FSLAX46Y46*%
G04 Gerber Fmt 4.6, Leading zero omitted, Abs format (unit mm)*
G04 Created by KiCad (PCBNEW 6.0.10-86aedd382b~118~ubuntu18.04.1) date 2024-12-06 10:37:32*
%MOMM*%
%LPD*%
G01*
G04 APERTURE LIST*
%ADD10C,6.552400*%
%ADD11C,2.452400*%
%ADD12C,1.143000*%
%ADD13C,0.939800*%
%ADD14C,3.352400*%
%ADD15C,1.652400*%
%ADD16C,2.652400*%
G04 APERTURE END LIST*
G36*
G01*
X104935000Y-157477800D02*
X105885000Y-157477800D01*
G75*
G02*
X106211200Y-157804000I0J-326200D01*
G01*
X106211200Y-158304000D01*
G75*
G02*
X105885000Y-158630200I-326200J0D01*
G01*
X104935000Y-158630200D01*
G75*
G02*
X104608800Y-158304000I0J326200D01*
G01*
X104608800Y-157804000D01*
G75*
G02*
X104935000Y-157477800I326200J0D01*
G01*
G37*
G36*
G01*
X104935000Y-159377800D02*
X105885000Y-159377800D01*
G75*
G02*
X106211200Y-159704000I0J-326200D01*
G01*
X106211200Y-160204000D01*
G75*
G02*
X105885000Y-160530200I-326200J0D01*
G01*
X104935000Y-160530200D01*
G75*
G02*
X104608800Y-160204000I0J326200D01*
G01*
X104608800Y-159704000D01*
G75*
G02*
X104935000Y-159377800I326200J0D01*
G01*
G37*
G36*
G01*
X47139800Y-185362000D02*
X47139800Y-184462000D01*
G75*
G02*
X47466000Y-184135800I326200J0D01*
G01*
X47991000Y-184135800D01*
G75*
G02*
X48317200Y-184462000I0J-326200D01*
G01*
X48317200Y-185362000D01*
G75*
G02*
X47991000Y-185688200I-326200J0D01*
G01*
X47466000Y-185688200D01*
G75*
G02*
X47139800Y-185362000I0J326200D01*
G01*
G37*
G36*
G01*
X48964800Y-185362000D02*
X48964800Y-184462000D01*
G75*
G02*
X49291000Y-184135800I326200J0D01*
G01*
X49816000Y-184135800D01*
G75*
G02*
X50142200Y-184462000I0J-326200D01*
G01*
X50142200Y-185362000D01*
G75*
G02*
X49816000Y-185688200I-326200J0D01*
G01*
X49291000Y-185688200D01*
G75*
G02*
X48964800Y-185362000I0J326200D01*
G01*
G37*
G36*
G01*
X70879200Y-174310000D02*
X70879200Y-176210000D01*
G75*
G02*
X70803000Y-176286200I-76200J0D01*
G01*
X69403000Y-176286200D01*
G75*
G02*
X69326800Y-176210000I0J76200D01*
G01*
X69326800Y-174310000D01*
G75*
G02*
X69403000Y-174233800I76200J0D01*
G01*
X70803000Y-174233800D01*
G75*
G02*
X70879200Y-174310000I0J-76200D01*
G01*
G37*
G36*
G01*
X67579200Y-174310000D02*
X67579200Y-176210000D01*
G75*
G02*
X67503000Y-176286200I-76200J0D01*
G01*
X66103000Y-176286200D01*
G75*
G02*
X66026800Y-176210000I0J76200D01*
G01*
X66026800Y-174310000D01*
G75*
G02*
X66103000Y-174233800I76200J0D01*
G01*
X67503000Y-174233800D01*
G75*
G02*
X67579200Y-174310000I0J-76200D01*
G01*
G37*
G36*
G01*
X94109200Y-184437000D02*
X94109200Y-185387000D01*
G75*
G02*
X93783000Y-185713200I-326200J0D01*
G01*
X93283000Y-185713200D01*
G75*
G02*
X92956800Y-185387000I0J326200D01*
G01*
X92956800Y-184437000D01*
G75*
G02*
X93283000Y-184110800I326200J0D01*
G01*
X93783000Y-184110800D01*
G75*
G02*
X94109200Y-184437000I0J-326200D01*
G01*
G37*
G36*
G01*
X92209200Y-184437000D02*
X92209200Y-185387000D01*
G75*
G02*
X91883000Y-185713200I-326200J0D01*
G01*
X91383000Y-185713200D01*
G75*
G02*
X91056800Y-185387000I0J326200D01*
G01*
X91056800Y-184437000D01*
G75*
G02*
X91383000Y-184110800I326200J0D01*
G01*
X91883000Y-184110800D01*
G75*
G02*
X92209200Y-184437000I0J-326200D01*
G01*
G37*
G36*
G01*
X138234000Y-165503800D02*
X139134000Y-165503800D01*
G75*
G02*
X139460200Y-165830000I0J-326200D01*
G01*
X139460200Y-166355000D01*
G75*
G02*
X139134000Y-166681200I-326200J0D01*
G01*
X138234000Y-166681200D01*
G75*
G02*
X137907800Y-166355000I0J326200D01*
G01*
X137907800Y-165830000D01*
G75*
G02*
X138234000Y-165503800I326200J0D01*
G01*
G37*
G36*
G01*
X138234000Y-167328800D02*
X139134000Y-167328800D01*
G75*
G02*
X139460200Y-167655000I0J-326200D01*
G01*
X139460200Y-168180000D01*
G75*
G02*
X139134000Y-168506200I-326200J0D01*
G01*
X138234000Y-168506200D01*
G75*
G02*
X137907800Y-168180000I0J326200D01*
G01*
X137907800Y-167655000D01*
G75*
G02*
X138234000Y-167328800I326200J0D01*
G01*
G37*
G36*
G01*
X42395200Y-168714000D02*
X42395200Y-169614000D01*
G75*
G02*
X42069000Y-169940200I-326200J0D01*
G01*
X41544000Y-169940200D01*
G75*
G02*
X41217800Y-169614000I0J326200D01*
G01*
X41217800Y-168714000D01*
G75*
G02*
X41544000Y-168387800I326200J0D01*
G01*
X42069000Y-168387800D01*
G75*
G02*
X42395200Y-168714000I0J-326200D01*
G01*
G37*
G36*
G01*
X40570200Y-168714000D02*
X40570200Y-169614000D01*
G75*
G02*
X40244000Y-169940200I-326200J0D01*
G01*
X39719000Y-169940200D01*
G75*
G02*
X39392800Y-169614000I0J326200D01*
G01*
X39392800Y-168714000D01*
G75*
G02*
X39719000Y-168387800I326200J0D01*
G01*
X40244000Y-168387800D01*
G75*
G02*
X40570200Y-168714000I0J-326200D01*
G01*
G37*
D10*
X29718000Y-119888000D03*
G36*
G01*
X42395200Y-144457000D02*
X42395200Y-145357000D01*
G75*
G02*
X42069000Y-145683200I-326200J0D01*
G01*
X41544000Y-145683200D01*
G75*
G02*
X41217800Y-145357000I0J326200D01*
G01*
X41217800Y-144457000D01*
G75*
G02*
X41544000Y-144130800I326200J0D01*
G01*
X42069000Y-144130800D01*
G75*
G02*
X42395200Y-144457000I0J-326200D01*
G01*
G37*
G36*
G01*
X40570200Y-144457000D02*
X40570200Y-145357000D01*
G75*
G02*
X40244000Y-145683200I-326200J0D01*
G01*
X39719000Y-145683200D01*
G75*
G02*
X39392800Y-145357000I0J326200D01*
G01*
X39392800Y-144457000D01*
G75*
G02*
X39719000Y-144130800I326200J0D01*
G01*
X40244000Y-144130800D01*
G75*
G02*
X40570200Y-144457000I0J-326200D01*
G01*
G37*
G36*
G01*
X147596000Y-165960200D02*
X146346000Y-165960200D01*
G75*
G02*
X146119800Y-165734000I0J226200D01*
G01*
X146119800Y-165434000D01*
G75*
G02*
X146346000Y-165207800I226200J0D01*
G01*
X147596000Y-165207800D01*
G75*
G02*
X147822200Y-165434000I0J-226200D01*
G01*
X147822200Y-165734000D01*
G75*
G02*
X147596000Y-165960200I-226200J0D01*
G01*
G37*
G36*
G01*
X147596000Y-164960200D02*
X146346000Y-164960200D01*
G75*
G02*
X146119800Y-164734000I0J226200D01*
G01*
X146119800Y-164434000D01*
G75*
G02*
X146346000Y-164207800I226200J0D01*
G01*
X147596000Y-164207800D01*
G75*
G02*
X147822200Y-164434000I0J-226200D01*
G01*
X147822200Y-164734000D01*
G75*
G02*
X147596000Y-164960200I-226200J0D01*
G01*
G37*
G36*
G01*
X147596000Y-163960200D02*
X146346000Y-163960200D01*
G75*
G02*
X146119800Y-163734000I0J226200D01*
G01*
X146119800Y-163434000D01*
G75*
G02*
X146346000Y-163207800I226200J0D01*
G01*
X147596000Y-163207800D01*
G75*
G02*
X147822200Y-163434000I0J-226200D01*
G01*
X147822200Y-163734000D01*
G75*
G02*
X147596000Y-163960200I-226200J0D01*
G01*
G37*
G36*
G01*
X147596000Y-162960200D02*
X146346000Y-162960200D01*
G75*
G02*
X146119800Y-162734000I0J226200D01*
G01*
X146119800Y-162434000D01*
G75*
G02*
X146346000Y-162207800I226200J0D01*
G01*
X147596000Y-162207800D01*
G75*
G02*
X147822200Y-162434000I0J-226200D01*
G01*
X147822200Y-162734000D01*
G75*
G02*
X147596000Y-162960200I-226200J0D01*
G01*
G37*
G36*
G01*
X151496000Y-161960200D02*
X150196000Y-161960200D01*
G75*
G02*
X149869800Y-161634000I0J326200D01*
G01*
X149869800Y-160934000D01*
G75*
G02*
X150196000Y-160607800I326200J0D01*
G01*
X151496000Y-160607800D01*
G75*
G02*
X151822200Y-160934000I0J-326200D01*
G01*
X151822200Y-161634000D01*
G75*
G02*
X151496000Y-161960200I-326200J0D01*
G01*
G37*
G36*
G01*
X151496000Y-167560200D02*
X150196000Y-167560200D01*
G75*
G02*
X149869800Y-167234000I0J326200D01*
G01*
X149869800Y-166534000D01*
G75*
G02*
X150196000Y-166207800I326200J0D01*
G01*
X151496000Y-166207800D01*
G75*
G02*
X151822200Y-166534000I0J-326200D01*
G01*
X151822200Y-167234000D01*
G75*
G02*
X151496000Y-167560200I-326200J0D01*
G01*
G37*
G36*
X47599020Y-176576373D02*
G01*
X47572958Y-176531232D01*
X47571800Y-176518000D01*
X47571800Y-175018000D01*
X47589627Y-174969020D01*
X47634768Y-174942958D01*
X47648000Y-174941800D01*
X48148000Y-174941800D01*
X48162334Y-174947017D01*
X48229337Y-174948245D01*
X48250664Y-174951699D01*
X48385979Y-174993974D01*
X48405480Y-175003275D01*
X48523490Y-175081830D01*
X48539596Y-175096231D01*
X48630816Y-175204750D01*
X48642233Y-175223092D01*
X48699328Y-175352851D01*
X48705138Y-175373660D01*
X48722060Y-175503068D01*
X48723042Y-175504768D01*
X48724200Y-175518000D01*
X48724200Y-176018000D01*
X48723448Y-176020066D01*
X48723256Y-176035833D01*
X48701445Y-176175910D01*
X48695128Y-176196570D01*
X48634880Y-176324895D01*
X48623018Y-176342953D01*
X48529174Y-176449211D01*
X48512721Y-176463213D01*
X48392826Y-176538861D01*
X48373105Y-176547683D01*
X48236798Y-176586640D01*
X48215392Y-176589573D01*
X48167745Y-176589282D01*
X48161232Y-176593042D01*
X48148000Y-176594200D01*
X47648000Y-176594200D01*
X47599020Y-176576373D01*
G37*
G36*
X46833919Y-176589075D02*
G01*
X46773630Y-176588707D01*
X46752262Y-176585513D01*
X46616441Y-176544894D01*
X46596828Y-176535832D01*
X46477866Y-176458725D01*
X46461585Y-176444522D01*
X46369047Y-176337125D01*
X46357408Y-176318924D01*
X46298731Y-176189872D01*
X46292667Y-176169135D01*
X46272570Y-176028802D01*
X46271800Y-176018000D01*
X46271800Y-175518000D01*
X46271806Y-175517071D01*
X46271955Y-175504855D01*
X46273005Y-175493142D01*
X46296525Y-175353341D01*
X46303094Y-175332758D01*
X46364906Y-175205179D01*
X46376987Y-175187268D01*
X46472122Y-175082164D01*
X46488745Y-175068363D01*
X46609555Y-174994186D01*
X46629383Y-174985606D01*
X46766156Y-174948317D01*
X46787596Y-174945647D01*
X46828802Y-174946402D01*
X46834768Y-174942958D01*
X46848000Y-174941800D01*
X47348000Y-174941800D01*
X47396980Y-174959627D01*
X47423042Y-175004768D01*
X47424200Y-175018000D01*
X47424200Y-176518000D01*
X47406373Y-176566980D01*
X47361232Y-176593042D01*
X47348000Y-176594200D01*
X46848000Y-176594200D01*
X46833919Y-176589075D01*
G37*
G36*
G01*
X84526300Y-137997250D02*
X84526300Y-137084750D01*
G75*
G02*
X84846250Y-136764800I319950J0D01*
G01*
X85333750Y-136764800D01*
G75*
G02*
X85653700Y-137084750I0J-319950D01*
G01*
X85653700Y-137997250D01*
G75*
G02*
X85333750Y-138317200I-319950J0D01*
G01*
X84846250Y-138317200D01*
G75*
G02*
X84526300Y-137997250I0J319950D01*
G01*
G37*
G36*
G01*
X86401300Y-137997250D02*
X86401300Y-137084750D01*
G75*
G02*
X86721250Y-136764800I319950J0D01*
G01*
X87208750Y-136764800D01*
G75*
G02*
X87528700Y-137084750I0J-319950D01*
G01*
X87528700Y-137997250D01*
G75*
G02*
X87208750Y-138317200I-319950J0D01*
G01*
X86721250Y-138317200D01*
G75*
G02*
X86401300Y-137997250I0J319950D01*
G01*
G37*
G36*
G01*
X121441800Y-151026000D02*
X121441800Y-150726000D01*
G75*
G02*
X121668000Y-150499800I226200J0D01*
G01*
X123118000Y-150499800D01*
G75*
G02*
X123344200Y-150726000I0J-226200D01*
G01*
X123344200Y-151026000D01*
G75*
G02*
X123118000Y-151252200I-226200J0D01*
G01*
X121668000Y-151252200D01*
G75*
G02*
X121441800Y-151026000I0J226200D01*
G01*
G37*
G36*
G01*
X121441800Y-152296000D02*
X121441800Y-151996000D01*
G75*
G02*
X121668000Y-151769800I226200J0D01*
G01*
X123118000Y-151769800D01*
G75*
G02*
X123344200Y-151996000I0J-226200D01*
G01*
X123344200Y-152296000D01*
G75*
G02*
X123118000Y-152522200I-226200J0D01*
G01*
X121668000Y-152522200D01*
G75*
G02*
X121441800Y-152296000I0J226200D01*
G01*
G37*
G36*
G01*
X121441800Y-153566000D02*
X121441800Y-153266000D01*
G75*
G02*
X121668000Y-153039800I226200J0D01*
G01*
X123118000Y-153039800D01*
G75*
G02*
X123344200Y-153266000I0J-226200D01*
G01*
X123344200Y-153566000D01*
G75*
G02*
X123118000Y-153792200I-226200J0D01*
G01*
X121668000Y-153792200D01*
G75*
G02*
X121441800Y-153566000I0J226200D01*
G01*
G37*
G36*
G01*
X121441800Y-154836000D02*
X121441800Y-154536000D01*
G75*
G02*
X121668000Y-154309800I226200J0D01*
G01*
X123118000Y-154309800D01*
G75*
G02*
X123344200Y-154536000I0J-226200D01*
G01*
X123344200Y-154836000D01*
G75*
G02*
X123118000Y-155062200I-226200J0D01*
G01*
X121668000Y-155062200D01*
G75*
G02*
X121441800Y-154836000I0J226200D01*
G01*
G37*
G36*
G01*
X121441800Y-156106000D02*
X121441800Y-155806000D01*
G75*
G02*
X121668000Y-155579800I226200J0D01*
G01*
X123118000Y-155579800D01*
G75*
G02*
X123344200Y-155806000I0J-226200D01*
G01*
X123344200Y-156106000D01*
G75*
G02*
X123118000Y-156332200I-226200J0D01*
G01*
X121668000Y-156332200D01*
G75*
G02*
X121441800Y-156106000I0J226200D01*
G01*
G37*
G36*
G01*
X121441800Y-157376000D02*
X121441800Y-157076000D01*
G75*
G02*
X121668000Y-156849800I226200J0D01*
G01*
X123118000Y-156849800D01*
G75*
G02*
X123344200Y-157076000I0J-226200D01*
G01*
X123344200Y-157376000D01*
G75*
G02*
X123118000Y-157602200I-226200J0D01*
G01*
X121668000Y-157602200D01*
G75*
G02*
X121441800Y-157376000I0J226200D01*
G01*
G37*
G36*
G01*
X121441800Y-158646000D02*
X121441800Y-158346000D01*
G75*
G02*
X121668000Y-158119800I226200J0D01*
G01*
X123118000Y-158119800D01*
G75*
G02*
X123344200Y-158346000I0J-226200D01*
G01*
X123344200Y-158646000D01*
G75*
G02*
X123118000Y-158872200I-226200J0D01*
G01*
X121668000Y-158872200D01*
G75*
G02*
X121441800Y-158646000I0J226200D01*
G01*
G37*
G36*
G01*
X121441800Y-159916000D02*
X121441800Y-159616000D01*
G75*
G02*
X121668000Y-159389800I226200J0D01*
G01*
X123118000Y-159389800D01*
G75*
G02*
X123344200Y-159616000I0J-226200D01*
G01*
X123344200Y-159916000D01*
G75*
G02*
X123118000Y-160142200I-226200J0D01*
G01*
X121668000Y-160142200D01*
G75*
G02*
X121441800Y-159916000I0J226200D01*
G01*
G37*
G36*
G01*
X126591800Y-159916000D02*
X126591800Y-159616000D01*
G75*
G02*
X126818000Y-159389800I226200J0D01*
G01*
X128268000Y-159389800D01*
G75*
G02*
X128494200Y-159616000I0J-226200D01*
G01*
X128494200Y-159916000D01*
G75*
G02*
X128268000Y-160142200I-226200J0D01*
G01*
X126818000Y-160142200D01*
G75*
G02*
X126591800Y-159916000I0J226200D01*
G01*
G37*
G36*
G01*
X126591800Y-158646000D02*
X126591800Y-158346000D01*
G75*
G02*
X126818000Y-158119800I226200J0D01*
G01*
X128268000Y-158119800D01*
G75*
G02*
X128494200Y-158346000I0J-226200D01*
G01*
X128494200Y-158646000D01*
G75*
G02*
X128268000Y-158872200I-226200J0D01*
G01*
X126818000Y-158872200D01*
G75*
G02*
X126591800Y-158646000I0J226200D01*
G01*
G37*
G36*
G01*
X126591800Y-157376000D02*
X126591800Y-157076000D01*
G75*
G02*
X126818000Y-156849800I226200J0D01*
G01*
X128268000Y-156849800D01*
G75*
G02*
X128494200Y-157076000I0J-226200D01*
G01*
X128494200Y-157376000D01*
G75*
G02*
X128268000Y-157602200I-226200J0D01*
G01*
X126818000Y-157602200D01*
G75*
G02*
X126591800Y-157376000I0J226200D01*
G01*
G37*
G36*
G01*
X126591800Y-156106000D02*
X126591800Y-155806000D01*
G75*
G02*
X126818000Y-155579800I226200J0D01*
G01*
X128268000Y-155579800D01*
G75*
G02*
X128494200Y-155806000I0J-226200D01*
G01*
X128494200Y-156106000D01*
G75*
G02*
X128268000Y-156332200I-226200J0D01*
G01*
X126818000Y-156332200D01*
G75*
G02*
X126591800Y-156106000I0J226200D01*
G01*
G37*
G36*
G01*
X126591800Y-154836000D02*
X126591800Y-154536000D01*
G75*
G02*
X126818000Y-154309800I226200J0D01*
G01*
X128268000Y-154309800D01*
G75*
G02*
X128494200Y-154536000I0J-226200D01*
G01*
X128494200Y-154836000D01*
G75*
G02*
X128268000Y-155062200I-226200J0D01*
G01*
X126818000Y-155062200D01*
G75*
G02*
X126591800Y-154836000I0J226200D01*
G01*
G37*
G36*
G01*
X126591800Y-153566000D02*
X126591800Y-153266000D01*
G75*
G02*
X126818000Y-153039800I226200J0D01*
G01*
X128268000Y-153039800D01*
G75*
G02*
X128494200Y-153266000I0J-226200D01*
G01*
X128494200Y-153566000D01*
G75*
G02*
X128268000Y-153792200I-226200J0D01*
G01*
X126818000Y-153792200D01*
G75*
G02*
X126591800Y-153566000I0J226200D01*
G01*
G37*
G36*
G01*
X126591800Y-152296000D02*
X126591800Y-151996000D01*
G75*
G02*
X126818000Y-151769800I226200J0D01*
G01*
X128268000Y-151769800D01*
G75*
G02*
X128494200Y-151996000I0J-226200D01*
G01*
X128494200Y-152296000D01*
G75*
G02*
X128268000Y-152522200I-226200J0D01*
G01*
X126818000Y-152522200D01*
G75*
G02*
X126591800Y-152296000I0J226200D01*
G01*
G37*
G36*
G01*
X126591800Y-151026000D02*
X126591800Y-150726000D01*
G75*
G02*
X126818000Y-150499800I226200J0D01*
G01*
X128268000Y-150499800D01*
G75*
G02*
X128494200Y-150726000I0J-226200D01*
G01*
X128494200Y-151026000D01*
G75*
G02*
X128268000Y-151252200I-226200J0D01*
G01*
X126818000Y-151252200D01*
G75*
G02*
X126591800Y-151026000I0J226200D01*
G01*
G37*
G36*
G01*
X139272700Y-141282000D02*
X139272700Y-142182000D01*
G75*
G02*
X138946500Y-142508200I-326200J0D01*
G01*
X138421500Y-142508200D01*
G75*
G02*
X138095300Y-142182000I0J326200D01*
G01*
X138095300Y-141282000D01*
G75*
G02*
X138421500Y-140955800I326200J0D01*
G01*
X138946500Y-140955800D01*
G75*
G02*
X139272700Y-141282000I0J-326200D01*
G01*
G37*
G36*
G01*
X137447700Y-141282000D02*
X137447700Y-142182000D01*
G75*
G02*
X137121500Y-142508200I-326200J0D01*
G01*
X136596500Y-142508200D01*
G75*
G02*
X136270300Y-142182000I0J326200D01*
G01*
X136270300Y-141282000D01*
G75*
G02*
X136596500Y-140955800I326200J0D01*
G01*
X137121500Y-140955800D01*
G75*
G02*
X137447700Y-141282000I0J-326200D01*
G01*
G37*
G36*
G01*
X34029000Y-173200800D02*
X36329000Y-173200800D01*
G75*
G02*
X36405200Y-173277000I0J-76200D01*
G01*
X36405200Y-175577000D01*
G75*
G02*
X36329000Y-175653200I-76200J0D01*
G01*
X34029000Y-175653200D01*
G75*
G02*
X33952800Y-175577000I0J76200D01*
G01*
X33952800Y-173277000D01*
G75*
G02*
X34029000Y-173200800I76200J0D01*
G01*
G37*
D11*
X35179000Y-177927000D03*
X35179000Y-181427000D03*
G36*
X47599020Y-169972373D02*
G01*
X47572958Y-169927232D01*
X47571800Y-169914000D01*
X47571800Y-168414000D01*
X47589627Y-168365020D01*
X47634768Y-168338958D01*
X47648000Y-168337800D01*
X48148000Y-168337800D01*
X48162334Y-168343017D01*
X48229337Y-168344245D01*
X48250664Y-168347699D01*
X48385979Y-168389974D01*
X48405480Y-168399275D01*
X48523490Y-168477830D01*
X48539596Y-168492231D01*
X48630816Y-168600750D01*
X48642233Y-168619092D01*
X48699328Y-168748851D01*
X48705138Y-168769660D01*
X48722060Y-168899068D01*
X48723042Y-168900768D01*
X48724200Y-168914000D01*
X48724200Y-169414000D01*
X48723448Y-169416066D01*
X48723256Y-169431833D01*
X48701445Y-169571910D01*
X48695128Y-169592570D01*
X48634880Y-169720895D01*
X48623018Y-169738953D01*
X48529174Y-169845211D01*
X48512721Y-169859213D01*
X48392826Y-169934861D01*
X48373105Y-169943683D01*
X48236798Y-169982640D01*
X48215392Y-169985573D01*
X48167745Y-169985282D01*
X48161232Y-169989042D01*
X48148000Y-169990200D01*
X47648000Y-169990200D01*
X47599020Y-169972373D01*
G37*
G36*
X46833919Y-169985075D02*
G01*
X46773630Y-169984707D01*
X46752262Y-169981513D01*
X46616441Y-169940894D01*
X46596828Y-169931832D01*
X46477866Y-169854725D01*
X46461585Y-169840522D01*
X46369047Y-169733125D01*
X46357408Y-169714924D01*
X46298731Y-169585872D01*
X46292667Y-169565135D01*
X46272570Y-169424802D01*
X46271800Y-169414000D01*
X46271800Y-168914000D01*
X46271806Y-168913071D01*
X46271955Y-168900855D01*
X46273005Y-168889142D01*
X46296525Y-168749341D01*
X46303094Y-168728758D01*
X46364906Y-168601179D01*
X46376987Y-168583268D01*
X46472122Y-168478164D01*
X46488745Y-168464363D01*
X46609555Y-168390186D01*
X46629383Y-168381606D01*
X46766156Y-168344317D01*
X46787596Y-168341647D01*
X46828802Y-168342402D01*
X46834768Y-168338958D01*
X46848000Y-168337800D01*
X47348000Y-168337800D01*
X47396980Y-168355627D01*
X47423042Y-168400768D01*
X47424200Y-168414000D01*
X47424200Y-169914000D01*
X47406373Y-169962980D01*
X47361232Y-169989042D01*
X47348000Y-169990200D01*
X46848000Y-169990200D01*
X46833919Y-169985075D01*
G37*
G36*
G01*
X34029000Y-124686800D02*
X36329000Y-124686800D01*
G75*
G02*
X36405200Y-124763000I0J-76200D01*
G01*
X36405200Y-127063000D01*
G75*
G02*
X36329000Y-127139200I-76200J0D01*
G01*
X34029000Y-127139200D01*
G75*
G02*
X33952800Y-127063000I0J76200D01*
G01*
X33952800Y-124763000D01*
G75*
G02*
X34029000Y-124686800I76200J0D01*
G01*
G37*
X35179000Y-129413000D03*
X35179000Y-132913000D03*
G36*
G01*
X73504200Y-166789000D02*
X73504200Y-167089000D01*
G75*
G02*
X73278000Y-167315200I-226200J0D01*
G01*
X72253000Y-167315200D01*
G75*
G02*
X72026800Y-167089000I0J226200D01*
G01*
X72026800Y-166789000D01*
G75*
G02*
X72253000Y-166562800I226200J0D01*
G01*
X73278000Y-166562800D01*
G75*
G02*
X73504200Y-166789000I0J-226200D01*
G01*
G37*
G36*
G01*
X73504200Y-165839000D02*
X73504200Y-166139000D01*
G75*
G02*
X73278000Y-166365200I-226200J0D01*
G01*
X72253000Y-166365200D01*
G75*
G02*
X72026800Y-166139000I0J226200D01*
G01*
X72026800Y-165839000D01*
G75*
G02*
X72253000Y-165612800I226200J0D01*
G01*
X73278000Y-165612800D01*
G75*
G02*
X73504200Y-165839000I0J-226200D01*
G01*
G37*
G36*
G01*
X73504200Y-164889000D02*
X73504200Y-165189000D01*
G75*
G02*
X73278000Y-165415200I-226200J0D01*
G01*
X72253000Y-165415200D01*
G75*
G02*
X72026800Y-165189000I0J226200D01*
G01*
X72026800Y-164889000D01*
G75*
G02*
X72253000Y-164662800I226200J0D01*
G01*
X73278000Y-164662800D01*
G75*
G02*
X73504200Y-164889000I0J-226200D01*
G01*
G37*
G36*
G01*
X71229200Y-164889000D02*
X71229200Y-165189000D01*
G75*
G02*
X71003000Y-165415200I-226200J0D01*
G01*
X69978000Y-165415200D01*
G75*
G02*
X69751800Y-165189000I0J226200D01*
G01*
X69751800Y-164889000D01*
G75*
G02*
X69978000Y-164662800I226200J0D01*
G01*
X71003000Y-164662800D01*
G75*
G02*
X71229200Y-164889000I0J-226200D01*
G01*
G37*
G36*
G01*
X71229200Y-166789000D02*
X71229200Y-167089000D01*
G75*
G02*
X71003000Y-167315200I-226200J0D01*
G01*
X69978000Y-167315200D01*
G75*
G02*
X69751800Y-167089000I0J226200D01*
G01*
X69751800Y-166789000D01*
G75*
G02*
X69978000Y-166562800I226200J0D01*
G01*
X71003000Y-166562800D01*
G75*
G02*
X71229200Y-166789000I0J-226200D01*
G01*
G37*
G36*
G01*
X120926800Y-133546000D02*
X120926800Y-132646000D01*
G75*
G02*
X121253000Y-132319800I326200J0D01*
G01*
X121778000Y-132319800D01*
G75*
G02*
X122104200Y-132646000I0J-326200D01*
G01*
X122104200Y-133546000D01*
G75*
G02*
X121778000Y-133872200I-326200J0D01*
G01*
X121253000Y-133872200D01*
G75*
G02*
X120926800Y-133546000I0J326200D01*
G01*
G37*
G36*
G01*
X122751800Y-133546000D02*
X122751800Y-132646000D01*
G75*
G02*
X123078000Y-132319800I326200J0D01*
G01*
X123603000Y-132319800D01*
G75*
G02*
X123929200Y-132646000I0J-326200D01*
G01*
X123929200Y-133546000D01*
G75*
G02*
X123603000Y-133872200I-326200J0D01*
G01*
X123078000Y-133872200D01*
G75*
G02*
X122751800Y-133546000I0J326200D01*
G01*
G37*
G36*
X47599020Y-135809373D02*
G01*
X47572958Y-135764232D01*
X47571800Y-135751000D01*
X47571800Y-134251000D01*
X47589627Y-134202020D01*
X47634768Y-134175958D01*
X47648000Y-134174800D01*
X48148000Y-134174800D01*
X48162334Y-134180017D01*
X48229337Y-134181245D01*
X48250664Y-134184699D01*
X48385979Y-134226974D01*
X48405480Y-134236275D01*
X48523490Y-134314830D01*
X48539596Y-134329231D01*
X48630816Y-134437750D01*
X48642233Y-134456092D01*
X48699328Y-134585851D01*
X48705138Y-134606660D01*
X48722060Y-134736068D01*
X48723042Y-134737768D01*
X48724200Y-134751000D01*
X48724200Y-135251000D01*
X48723448Y-135253066D01*
X48723256Y-135268833D01*
X48701445Y-135408910D01*
X48695128Y-135429570D01*
X48634880Y-135557895D01*
X48623018Y-135575953D01*
X48529174Y-135682211D01*
X48512721Y-135696213D01*
X48392826Y-135771861D01*
X48373105Y-135780683D01*
X48236798Y-135819640D01*
X48215392Y-135822573D01*
X48167745Y-135822282D01*
X48161232Y-135826042D01*
X48148000Y-135827200D01*
X47648000Y-135827200D01*
X47599020Y-135809373D01*
G37*
G36*
X46833919Y-135822075D02*
G01*
X46773630Y-135821707D01*
X46752262Y-135818513D01*
X46616441Y-135777894D01*
X46596828Y-135768832D01*
X46477866Y-135691725D01*
X46461585Y-135677522D01*
X46369047Y-135570125D01*
X46357408Y-135551924D01*
X46298731Y-135422872D01*
X46292667Y-135402135D01*
X46272570Y-135261802D01*
X46271800Y-135251000D01*
X46271800Y-134751000D01*
X46271806Y-134750071D01*
X46271955Y-134737855D01*
X46273005Y-134726142D01*
X46296525Y-134586341D01*
X46303094Y-134565758D01*
X46364906Y-134438179D01*
X46376987Y-134420268D01*
X46472122Y-134315164D01*
X46488745Y-134301363D01*
X46609555Y-134227186D01*
X46629383Y-134218606D01*
X46766156Y-134181317D01*
X46787596Y-134178647D01*
X46828802Y-134179402D01*
X46834768Y-134175958D01*
X46848000Y-134174800D01*
X47348000Y-134174800D01*
X47396980Y-134192627D01*
X47423042Y-134237768D01*
X47424200Y-134251000D01*
X47424200Y-135751000D01*
X47406373Y-135799980D01*
X47361232Y-135826042D01*
X47348000Y-135827200D01*
X46848000Y-135827200D01*
X46833919Y-135822075D01*
G37*
D12*
X76581000Y-137287000D03*
X75565000Y-132207000D03*
X77597000Y-132207000D03*
D13*
X77216000Y-136017000D03*
X75946000Y-136017000D03*
X77216000Y-134747000D03*
X75946000Y-134747000D03*
X77216000Y-133477000D03*
X75946000Y-133477000D03*
G36*
G01*
X95887000Y-186151000D02*
X96991000Y-186151000D01*
G75*
G02*
X97231000Y-186391000I0J-240000D01*
G01*
X97231000Y-188215000D01*
G75*
G02*
X96991000Y-188455000I-240000J0D01*
G01*
X95887000Y-188455000D01*
G75*
G02*
X95647000Y-188215000I0J240000D01*
G01*
X95647000Y-186391000D01*
G75*
G02*
X95887000Y-186151000I240000J0D01*
G01*
G37*
G36*
G01*
X95887000Y-177051000D02*
X96991000Y-177051000D01*
G75*
G02*
X97231000Y-177291000I0J-240000D01*
G01*
X97231000Y-179115000D01*
G75*
G02*
X96991000Y-179355000I-240000J0D01*
G01*
X95887000Y-179355000D01*
G75*
G02*
X95647000Y-179115000I0J240000D01*
G01*
X95647000Y-177291000D01*
G75*
G02*
X95887000Y-177051000I240000J0D01*
G01*
G37*
G36*
G01*
X100367000Y-186151000D02*
X101471000Y-186151000D01*
G75*
G02*
X101711000Y-186391000I0J-240000D01*
G01*
X101711000Y-188215000D01*
G75*
G02*
X101471000Y-188455000I-240000J0D01*
G01*
X100367000Y-188455000D01*
G75*
G02*
X100127000Y-188215000I0J240000D01*
G01*
X100127000Y-186391000D01*
G75*
G02*
X100367000Y-186151000I240000J0D01*
G01*
G37*
G36*
G01*
X100367000Y-177051000D02*
X101471000Y-177051000D01*
G75*
G02*
X101711000Y-177291000I0J-240000D01*
G01*
X101711000Y-179115000D01*
G75*
G02*
X101471000Y-179355000I-240000J0D01*
G01*
X100367000Y-179355000D01*
G75*
G02*
X100127000Y-179115000I0J240000D01*
G01*
X100127000Y-177291000D01*
G75*
G02*
X100367000Y-177051000I240000J0D01*
G01*
G37*
G36*
G01*
X84477800Y-150316250D02*
X84477800Y-149403750D01*
G75*
G02*
X84797750Y-149083800I319950J0D01*
G01*
X85285250Y-149083800D01*
G75*
G02*
X85605200Y-149403750I0J-319950D01*
G01*
X85605200Y-150316250D01*
G75*
G02*
X85285250Y-150636200I-319950J0D01*
G01*
X84797750Y-150636200D01*
G75*
G02*
X84477800Y-150316250I0J319950D01*
G01*
G37*
G36*
G01*
X86352800Y-150316250D02*
X86352800Y-149403750D01*
G75*
G02*
X86672750Y-149083800I319950J0D01*
G01*
X87160250Y-149083800D01*
G75*
G02*
X87480200Y-149403750I0J-319950D01*
G01*
X87480200Y-150316250D01*
G75*
G02*
X87160250Y-150636200I-319950J0D01*
G01*
X86672750Y-150636200D01*
G75*
G02*
X86352800Y-150316250I0J319950D01*
G01*
G37*
G36*
G01*
X134876200Y-154465000D02*
X134876200Y-155415000D01*
G75*
G02*
X134550000Y-155741200I-326200J0D01*
G01*
X134050000Y-155741200D01*
G75*
G02*
X133723800Y-155415000I0J326200D01*
G01*
X133723800Y-154465000D01*
G75*
G02*
X134050000Y-154138800I326200J0D01*
G01*
X134550000Y-154138800D01*
G75*
G02*
X134876200Y-154465000I0J-326200D01*
G01*
G37*
G36*
G01*
X132976200Y-154465000D02*
X132976200Y-155415000D01*
G75*
G02*
X132650000Y-155741200I-326200J0D01*
G01*
X132150000Y-155741200D01*
G75*
G02*
X131823800Y-155415000I0J326200D01*
G01*
X131823800Y-154465000D01*
G75*
G02*
X132150000Y-154138800I326200J0D01*
G01*
X132650000Y-154138800D01*
G75*
G02*
X132976200Y-154465000I0J-326200D01*
G01*
G37*
G36*
G01*
X61239200Y-120537000D02*
X61239200Y-121737000D01*
G75*
G02*
X60963000Y-122013200I-276200J0D01*
G01*
X60563000Y-122013200D01*
G75*
G02*
X60286800Y-121737000I0J276200D01*
G01*
X60286800Y-120537000D01*
G75*
G02*
X60563000Y-120260800I276200J0D01*
G01*
X60963000Y-120260800D01*
G75*
G02*
X61239200Y-120537000I0J-276200D01*
G01*
G37*
G36*
G01*
X59989200Y-120537000D02*
X59989200Y-121737000D01*
G75*
G02*
X59713000Y-122013200I-276200J0D01*
G01*
X59313000Y-122013200D01*
G75*
G02*
X59036800Y-121737000I0J276200D01*
G01*
X59036800Y-120537000D01*
G75*
G02*
X59313000Y-120260800I276200J0D01*
G01*
X59713000Y-120260800D01*
G75*
G02*
X59989200Y-120537000I0J-276200D01*
G01*
G37*
G36*
G01*
X58739200Y-120537000D02*
X58739200Y-121737000D01*
G75*
G02*
X58463000Y-122013200I-276200J0D01*
G01*
X58063000Y-122013200D01*
G75*
G02*
X57786800Y-121737000I0J276200D01*
G01*
X57786800Y-120537000D01*
G75*
G02*
X58063000Y-120260800I276200J0D01*
G01*
X58463000Y-120260800D01*
G75*
G02*
X58739200Y-120537000I0J-276200D01*
G01*
G37*
G36*
G01*
X57489200Y-120537000D02*
X57489200Y-121737000D01*
G75*
G02*
X57213000Y-122013200I-276200J0D01*
G01*
X56813000Y-122013200D01*
G75*
G02*
X56536800Y-121737000I0J276200D01*
G01*
X56536800Y-120537000D01*
G75*
G02*
X56813000Y-120260800I276200J0D01*
G01*
X57213000Y-120260800D01*
G75*
G02*
X57489200Y-120537000I0J-276200D01*
G01*
G37*
G36*
G01*
X55589200Y-116987001D02*
X55589200Y-119486999D01*
G75*
G02*
X55262999Y-119813200I-326201J0D01*
G01*
X53663001Y-119813200D01*
G75*
G02*
X53336800Y-119486999I0J326201D01*
G01*
X53336800Y-116987001D01*
G75*
G02*
X53663001Y-116660800I326201J0D01*
G01*
X55262999Y-116660800D01*
G75*
G02*
X55589200Y-116987001I0J-326201D01*
G01*
G37*
G36*
G01*
X64439200Y-116987001D02*
X64439200Y-119486999D01*
G75*
G02*
X64112999Y-119813200I-326201J0D01*
G01*
X62513001Y-119813200D01*
G75*
G02*
X62186800Y-119486999I0J326201D01*
G01*
X62186800Y-116987001D01*
G75*
G02*
X62513001Y-116660800I326201J0D01*
G01*
X64112999Y-116660800D01*
G75*
G02*
X64439200Y-116987001I0J-326201D01*
G01*
G37*
G36*
G01*
X96595250Y-173713200D02*
X95682750Y-173713200D01*
G75*
G02*
X95362800Y-173393250I0J319950D01*
G01*
X95362800Y-172905750D01*
G75*
G02*
X95682750Y-172585800I319950J0D01*
G01*
X96595250Y-172585800D01*
G75*
G02*
X96915200Y-172905750I0J-319950D01*
G01*
X96915200Y-173393250D01*
G75*
G02*
X96595250Y-173713200I-319950J0D01*
G01*
G37*
G36*
G01*
X96595250Y-171838200D02*
X95682750Y-171838200D01*
G75*
G02*
X95362800Y-171518250I0J319950D01*
G01*
X95362800Y-171030750D01*
G75*
G02*
X95682750Y-170710800I319950J0D01*
G01*
X96595250Y-170710800D01*
G75*
G02*
X96915200Y-171030750I0J-319950D01*
G01*
X96915200Y-171518250D01*
G75*
G02*
X96595250Y-171838200I-319950J0D01*
G01*
G37*
G36*
X47599020Y-129205373D02*
G01*
X47572958Y-129160232D01*
X47571800Y-129147000D01*
X47571800Y-127647000D01*
X47589627Y-127598020D01*
X47634768Y-127571958D01*
X47648000Y-127570800D01*
X48148000Y-127570800D01*
X48162334Y-127576017D01*
X48229337Y-127577245D01*
X48250664Y-127580699D01*
X48385979Y-127622974D01*
X48405480Y-127632275D01*
X48523490Y-127710830D01*
X48539596Y-127725231D01*
X48630816Y-127833750D01*
X48642233Y-127852092D01*
X48699328Y-127981851D01*
X48705138Y-128002660D01*
X48722060Y-128132068D01*
X48723042Y-128133768D01*
X48724200Y-128147000D01*
X48724200Y-128647000D01*
X48723448Y-128649066D01*
X48723256Y-128664833D01*
X48701445Y-128804910D01*
X48695128Y-128825570D01*
X48634880Y-128953895D01*
X48623018Y-128971953D01*
X48529174Y-129078211D01*
X48512721Y-129092213D01*
X48392826Y-129167861D01*
X48373105Y-129176683D01*
X48236798Y-129215640D01*
X48215392Y-129218573D01*
X48167745Y-129218282D01*
X48161232Y-129222042D01*
X48148000Y-129223200D01*
X47648000Y-129223200D01*
X47599020Y-129205373D01*
G37*
G36*
X46833919Y-129218075D02*
G01*
X46773630Y-129217707D01*
X46752262Y-129214513D01*
X46616441Y-129173894D01*
X46596828Y-129164832D01*
X46477866Y-129087725D01*
X46461585Y-129073522D01*
X46369047Y-128966125D01*
X46357408Y-128947924D01*
X46298731Y-128818872D01*
X46292667Y-128798135D01*
X46272570Y-128657802D01*
X46271800Y-128647000D01*
X46271800Y-128147000D01*
X46271806Y-128146071D01*
X46271955Y-128133855D01*
X46273005Y-128122142D01*
X46296525Y-127982341D01*
X46303094Y-127961758D01*
X46364906Y-127834179D01*
X46376987Y-127816268D01*
X46472122Y-127711164D01*
X46488745Y-127697363D01*
X46609555Y-127623186D01*
X46629383Y-127614606D01*
X46766156Y-127577317D01*
X46787596Y-127574647D01*
X46828802Y-127575402D01*
X46834768Y-127571958D01*
X46848000Y-127570800D01*
X47348000Y-127570800D01*
X47396980Y-127588627D01*
X47423042Y-127633768D01*
X47424200Y-127647000D01*
X47424200Y-129147000D01*
X47406373Y-129195980D01*
X47361232Y-129222042D01*
X47348000Y-129223200D01*
X46848000Y-129223200D01*
X46833919Y-129218075D01*
G37*
G36*
G01*
X139134000Y-164442200D02*
X138234000Y-164442200D01*
G75*
G02*
X137907800Y-164116000I0J326200D01*
G01*
X137907800Y-163591000D01*
G75*
G02*
X138234000Y-163264800I326200J0D01*
G01*
X139134000Y-163264800D01*
G75*
G02*
X139460200Y-163591000I0J-326200D01*
G01*
X139460200Y-164116000D01*
G75*
G02*
X139134000Y-164442200I-326200J0D01*
G01*
G37*
G36*
G01*
X139134000Y-162617200D02*
X138234000Y-162617200D01*
G75*
G02*
X137907800Y-162291000I0J326200D01*
G01*
X137907800Y-161766000D01*
G75*
G02*
X138234000Y-161439800I326200J0D01*
G01*
X139134000Y-161439800D01*
G75*
G02*
X139460200Y-161766000I0J-326200D01*
G01*
X139460200Y-162291000D01*
G75*
G02*
X139134000Y-162617200I-326200J0D01*
G01*
G37*
G36*
G01*
X84526300Y-135711250D02*
X84526300Y-134798750D01*
G75*
G02*
X84846250Y-134478800I319950J0D01*
G01*
X85333750Y-134478800D01*
G75*
G02*
X85653700Y-134798750I0J-319950D01*
G01*
X85653700Y-135711250D01*
G75*
G02*
X85333750Y-136031200I-319950J0D01*
G01*
X84846250Y-136031200D01*
G75*
G02*
X84526300Y-135711250I0J319950D01*
G01*
G37*
G36*
G01*
X86401300Y-135711250D02*
X86401300Y-134798750D01*
G75*
G02*
X86721250Y-134478800I319950J0D01*
G01*
X87208750Y-134478800D01*
G75*
G02*
X87528700Y-134798750I0J-319950D01*
G01*
X87528700Y-135711250D01*
G75*
G02*
X87208750Y-136031200I-319950J0D01*
G01*
X86721250Y-136031200D01*
G75*
G02*
X86401300Y-135711250I0J319950D01*
G01*
G37*
G36*
G01*
X134876200Y-137955000D02*
X134876200Y-138905000D01*
G75*
G02*
X134550000Y-139231200I-326200J0D01*
G01*
X134050000Y-139231200D01*
G75*
G02*
X133723800Y-138905000I0J326200D01*
G01*
X133723800Y-137955000D01*
G75*
G02*
X134050000Y-137628800I326200J0D01*
G01*
X134550000Y-137628800D01*
G75*
G02*
X134876200Y-137955000I0J-326200D01*
G01*
G37*
G36*
G01*
X132976200Y-137955000D02*
X132976200Y-138905000D01*
G75*
G02*
X132650000Y-139231200I-326200J0D01*
G01*
X132150000Y-139231200D01*
G75*
G02*
X131823800Y-138905000I0J326200D01*
G01*
X131823800Y-137955000D01*
G75*
G02*
X132150000Y-137628800I326200J0D01*
G01*
X132650000Y-137628800D01*
G75*
G02*
X132976200Y-137955000I0J-326200D01*
G01*
G37*
G36*
G01*
X42186800Y-185368250D02*
X42186800Y-184455750D01*
G75*
G02*
X42506750Y-184135800I319950J0D01*
G01*
X42994250Y-184135800D01*
G75*
G02*
X43314200Y-184455750I0J-319950D01*
G01*
X43314200Y-185368250D01*
G75*
G02*
X42994250Y-185688200I-319950J0D01*
G01*
X42506750Y-185688200D01*
G75*
G02*
X42186800Y-185368250I0J319950D01*
G01*
G37*
G36*
G01*
X44061800Y-185368250D02*
X44061800Y-184455750D01*
G75*
G02*
X44381750Y-184135800I319950J0D01*
G01*
X44869250Y-184135800D01*
G75*
G02*
X45189200Y-184455750I0J-319950D01*
G01*
X45189200Y-185368250D01*
G75*
G02*
X44869250Y-185688200I-319950J0D01*
G01*
X44381750Y-185688200D01*
G75*
G02*
X44061800Y-185368250I0J319950D01*
G01*
G37*
G36*
G01*
X115441100Y-121868050D02*
X116634900Y-121868050D01*
G75*
G02*
X116711100Y-121944250I0J-76200D01*
G01*
X116711100Y-124433450D01*
G75*
G02*
X116634900Y-124509650I-76200J0D01*
G01*
X115441100Y-124509650D01*
G75*
G02*
X115364900Y-124433450I0J76200D01*
G01*
X115364900Y-121944250D01*
G75*
G02*
X115441100Y-121868050I76200J0D01*
G01*
G37*
G36*
G01*
X112941100Y-121868050D02*
X114134900Y-121868050D01*
G75*
G02*
X114211100Y-121944250I0J-76200D01*
G01*
X114211100Y-124433450D01*
G75*
G02*
X114134900Y-124509650I-76200J0D01*
G01*
X112941100Y-124509650D01*
G75*
G02*
X112864900Y-124433450I0J76200D01*
G01*
X112864900Y-121944250D01*
G75*
G02*
X112941100Y-121868050I76200J0D01*
G01*
G37*
G36*
G01*
X110441100Y-121868050D02*
X111634900Y-121868050D01*
G75*
G02*
X111711100Y-121944250I0J-76200D01*
G01*
X111711100Y-124433450D01*
G75*
G02*
X111634900Y-124509650I-76200J0D01*
G01*
X110441100Y-124509650D01*
G75*
G02*
X110364900Y-124433450I0J76200D01*
G01*
X110364900Y-121944250D01*
G75*
G02*
X110441100Y-121868050I76200J0D01*
G01*
G37*
G36*
G01*
X115441100Y-127379850D02*
X116634900Y-127379850D01*
G75*
G02*
X116711100Y-127456050I0J-76200D01*
G01*
X116711100Y-129945250D01*
G75*
G02*
X116634900Y-130021450I-76200J0D01*
G01*
X115441100Y-130021450D01*
G75*
G02*
X115364900Y-129945250I0J76200D01*
G01*
X115364900Y-127456050D01*
G75*
G02*
X115441100Y-127379850I76200J0D01*
G01*
G37*
G36*
G01*
X112941100Y-127379850D02*
X114134900Y-127379850D01*
G75*
G02*
X114211100Y-127456050I0J-76200D01*
G01*
X114211100Y-129945250D01*
G75*
G02*
X114134900Y-130021450I-76200J0D01*
G01*
X112941100Y-130021450D01*
G75*
G02*
X112864900Y-129945250I0J76200D01*
G01*
X112864900Y-127456050D01*
G75*
G02*
X112941100Y-127379850I76200J0D01*
G01*
G37*
G36*
G01*
X110441100Y-127379850D02*
X111634900Y-127379850D01*
G75*
G02*
X111711100Y-127456050I0J-76200D01*
G01*
X111711100Y-129945250D01*
G75*
G02*
X111634900Y-130021450I-76200J0D01*
G01*
X110441100Y-130021450D01*
G75*
G02*
X110364900Y-129945250I0J76200D01*
G01*
X110364900Y-127456050D01*
G75*
G02*
X110441100Y-127379850I76200J0D01*
G01*
G37*
D14*
X127797500Y-183328750D03*
X139227500Y-183328750D03*
G36*
G01*
X128241300Y-177728750D02*
X128241300Y-176228750D01*
G75*
G02*
X128317500Y-176152550I76200J0D01*
G01*
X129817500Y-176152550D01*
G75*
G02*
X129893700Y-176228750I0J-76200D01*
G01*
X129893700Y-177728750D01*
G75*
G02*
X129817500Y-177804950I-76200J0D01*
G01*
X128317500Y-177804950D01*
G75*
G02*
X128241300Y-177728750I0J76200D01*
G01*
G37*
D15*
X130337500Y-174438750D03*
X131607500Y-176978750D03*
X132877500Y-174438750D03*
X134147500Y-176978750D03*
X135417500Y-174438750D03*
X136687500Y-176978750D03*
X137957500Y-174438750D03*
G36*
G01*
X139272700Y-137980000D02*
X139272700Y-138880000D01*
G75*
G02*
X138946500Y-139206200I-326200J0D01*
G01*
X138421500Y-139206200D01*
G75*
G02*
X138095300Y-138880000I0J326200D01*
G01*
X138095300Y-137980000D01*
G75*
G02*
X138421500Y-137653800I326200J0D01*
G01*
X138946500Y-137653800D01*
G75*
G02*
X139272700Y-137980000I0J-326200D01*
G01*
G37*
G36*
G01*
X137447700Y-137980000D02*
X137447700Y-138880000D01*
G75*
G02*
X137121500Y-139206200I-326200J0D01*
G01*
X136596500Y-139206200D01*
G75*
G02*
X136270300Y-138880000I0J326200D01*
G01*
X136270300Y-137980000D01*
G75*
G02*
X136596500Y-137653800I326200J0D01*
G01*
X137121500Y-137653800D01*
G75*
G02*
X137447700Y-137980000I0J-326200D01*
G01*
G37*
G36*
G01*
X34029000Y-148943800D02*
X36329000Y-148943800D01*
G75*
G02*
X36405200Y-149020000I0J-76200D01*
G01*
X36405200Y-151320000D01*
G75*
G02*
X36329000Y-151396200I-76200J0D01*
G01*
X34029000Y-151396200D01*
G75*
G02*
X33952800Y-151320000I0J76200D01*
G01*
X33952800Y-149020000D01*
G75*
G02*
X34029000Y-148943800I76200J0D01*
G01*
G37*
D11*
X35179000Y-153670000D03*
X35179000Y-157170000D03*
G36*
G01*
X42395200Y-137853000D02*
X42395200Y-138753000D01*
G75*
G02*
X42069000Y-139079200I-326200J0D01*
G01*
X41544000Y-139079200D01*
G75*
G02*
X41217800Y-138753000I0J326200D01*
G01*
X41217800Y-137853000D01*
G75*
G02*
X41544000Y-137526800I326200J0D01*
G01*
X42069000Y-137526800D01*
G75*
G02*
X42395200Y-137853000I0J-326200D01*
G01*
G37*
G36*
G01*
X40570200Y-137853000D02*
X40570200Y-138753000D01*
G75*
G02*
X40244000Y-139079200I-326200J0D01*
G01*
X39719000Y-139079200D01*
G75*
G02*
X39392800Y-138753000I0J326200D01*
G01*
X39392800Y-137853000D01*
G75*
G02*
X39719000Y-137526800I326200J0D01*
G01*
X40244000Y-137526800D01*
G75*
G02*
X40570200Y-137853000I0J-326200D01*
G01*
G37*
G36*
G01*
X139272700Y-151188000D02*
X139272700Y-152088000D01*
G75*
G02*
X138946500Y-152414200I-326200J0D01*
G01*
X138421500Y-152414200D01*
G75*
G02*
X138095300Y-152088000I0J326200D01*
G01*
X138095300Y-151188000D01*
G75*
G02*
X138421500Y-150861800I326200J0D01*
G01*
X138946500Y-150861800D01*
G75*
G02*
X139272700Y-151188000I0J-326200D01*
G01*
G37*
G36*
G01*
X137447700Y-151188000D02*
X137447700Y-152088000D01*
G75*
G02*
X137121500Y-152414200I-326200J0D01*
G01*
X136596500Y-152414200D01*
G75*
G02*
X136270300Y-152088000I0J326200D01*
G01*
X136270300Y-151188000D01*
G75*
G02*
X136596500Y-150861800I326200J0D01*
G01*
X137121500Y-150861800D01*
G75*
G02*
X137447700Y-151188000I0J-326200D01*
G01*
G37*
G36*
G01*
X54466800Y-185954000D02*
X54466800Y-183454000D01*
G75*
G02*
X54543000Y-183377800I76200J0D01*
G01*
X57043000Y-183377800D01*
G75*
G02*
X57119200Y-183454000I0J-76200D01*
G01*
X57119200Y-185954000D01*
G75*
G02*
X57043000Y-186030200I-76200J0D01*
G01*
X54543000Y-186030200D01*
G75*
G02*
X54466800Y-185954000I0J76200D01*
G01*
G37*
D16*
X60793000Y-184704000D03*
G36*
G01*
X89025000Y-179355000D02*
X87921000Y-179355000D01*
G75*
G02*
X87681000Y-179115000I0J240000D01*
G01*
X87681000Y-177291000D01*
G75*
G02*
X87921000Y-177051000I240000J0D01*
G01*
X89025000Y-177051000D01*
G75*
G02*
X89265000Y-177291000I0J-240000D01*
G01*
X89265000Y-179115000D01*
G75*
G02*
X89025000Y-179355000I-240000J0D01*
G01*
G37*
G36*
G01*
X89025000Y-188455000D02*
X87921000Y-188455000D01*
G75*
G02*
X87681000Y-188215000I0J240000D01*
G01*
X87681000Y-186391000D01*
G75*
G02*
X87921000Y-186151000I240000J0D01*
G01*
X89025000Y-186151000D01*
G75*
G02*
X89265000Y-186391000I0J-240000D01*
G01*
X89265000Y-188215000D01*
G75*
G02*
X89025000Y-188455000I-240000J0D01*
G01*
G37*
G36*
G01*
X84545000Y-179355000D02*
X83441000Y-179355000D01*
G75*
G02*
X83201000Y-179115000I0J240000D01*
G01*
X83201000Y-177291000D01*
G75*
G02*
X83441000Y-177051000I240000J0D01*
G01*
X84545000Y-177051000D01*
G75*
G02*
X84785000Y-177291000I0J-240000D01*
G01*
X84785000Y-179115000D01*
G75*
G02*
X84545000Y-179355000I-240000J0D01*
G01*
G37*
G36*
G01*
X84545000Y-188455000D02*
X83441000Y-188455000D01*
G75*
G02*
X83201000Y-188215000I0J240000D01*
G01*
X83201000Y-186391000D01*
G75*
G02*
X83441000Y-186151000I240000J0D01*
G01*
X84545000Y-186151000D01*
G75*
G02*
X84785000Y-186391000I0J-240000D01*
G01*
X84785000Y-188215000D01*
G75*
G02*
X84545000Y-188455000I-240000J0D01*
G01*
G37*
G36*
G01*
X34029000Y-136751800D02*
X36329000Y-136751800D01*
G75*
G02*
X36405200Y-136828000I0J-76200D01*
G01*
X36405200Y-139128000D01*
G75*
G02*
X36329000Y-139204200I-76200J0D01*
G01*
X34029000Y-139204200D01*
G75*
G02*
X33952800Y-139128000I0J76200D01*
G01*
X33952800Y-136828000D01*
G75*
G02*
X34029000Y-136751800I76200J0D01*
G01*
G37*
D11*
X35179000Y-141478000D03*
X35179000Y-144978000D03*
G36*
G01*
X42395200Y-141155000D02*
X42395200Y-142055000D01*
G75*
G02*
X42069000Y-142381200I-326200J0D01*
G01*
X41544000Y-142381200D01*
G75*
G02*
X41217800Y-142055000I0J326200D01*
G01*
X41217800Y-141155000D01*
G75*
G02*
X41544000Y-140828800I326200J0D01*
G01*
X42069000Y-140828800D01*
G75*
G02*
X42395200Y-141155000I0J-326200D01*
G01*
G37*
G36*
G01*
X40570200Y-141155000D02*
X40570200Y-142055000D01*
G75*
G02*
X40244000Y-142381200I-326200J0D01*
G01*
X39719000Y-142381200D01*
G75*
G02*
X39392800Y-142055000I0J326200D01*
G01*
X39392800Y-141155000D01*
G75*
G02*
X39719000Y-140828800I326200J0D01*
G01*
X40244000Y-140828800D01*
G75*
G02*
X40570200Y-141155000I0J-326200D01*
G01*
G37*
G36*
G01*
X135313000Y-161439800D02*
X136213000Y-161439800D01*
G75*
G02*
X136539200Y-161766000I0J-326200D01*
G01*
X136539200Y-162291000D01*
G75*
G02*
X136213000Y-162617200I-326200J0D01*
G01*
X135313000Y-162617200D01*
G75*
G02*
X134986800Y-162291000I0J326200D01*
G01*
X134986800Y-161766000D01*
G75*
G02*
X135313000Y-161439800I326200J0D01*
G01*
G37*
G36*
G01*
X135313000Y-163264800D02*
X136213000Y-163264800D01*
G75*
G02*
X136539200Y-163591000I0J-326200D01*
G01*
X136539200Y-164116000D01*
G75*
G02*
X136213000Y-164442200I-326200J0D01*
G01*
X135313000Y-164442200D01*
G75*
G02*
X134986800Y-164116000I0J326200D01*
G01*
X134986800Y-163591000D01*
G75*
G02*
X135313000Y-163264800I326200J0D01*
G01*
G37*
G36*
G01*
X42395200Y-172016000D02*
X42395200Y-172916000D01*
G75*
G02*
X42069000Y-173242200I-326200J0D01*
G01*
X41544000Y-173242200D01*
G75*
G02*
X41217800Y-172916000I0J326200D01*
G01*
X41217800Y-172016000D01*
G75*
G02*
X41544000Y-171689800I326200J0D01*
G01*
X42069000Y-171689800D01*
G75*
G02*
X42395200Y-172016000I0J-326200D01*
G01*
G37*
G36*
G01*
X40570200Y-172016000D02*
X40570200Y-172916000D01*
G75*
G02*
X40244000Y-173242200I-326200J0D01*
G01*
X39719000Y-173242200D01*
G75*
G02*
X39392800Y-172916000I0J326200D01*
G01*
X39392800Y-172016000D01*
G75*
G02*
X39719000Y-171689800I326200J0D01*
G01*
X40244000Y-171689800D01*
G75*
G02*
X40570200Y-172016000I0J-326200D01*
G01*
G37*
G36*
G01*
X59077800Y-148913000D02*
X59077800Y-148013000D01*
G75*
G02*
X59404000Y-147686800I326200J0D01*
G01*
X59929000Y-147686800D01*
G75*
G02*
X60255200Y-148013000I0J-326200D01*
G01*
X60255200Y-148913000D01*
G75*
G02*
X59929000Y-149239200I-326200J0D01*
G01*
X59404000Y-149239200D01*
G75*
G02*
X59077800Y-148913000I0J326200D01*
G01*
G37*
G36*
G01*
X60902800Y-148913000D02*
X60902800Y-148013000D01*
G75*
G02*
X61229000Y-147686800I326200J0D01*
G01*
X61754000Y-147686800D01*
G75*
G02*
X62080200Y-148013000I0J-326200D01*
G01*
X62080200Y-148913000D01*
G75*
G02*
X61754000Y-149239200I-326200J0D01*
G01*
X61229000Y-149239200D01*
G75*
G02*
X60902800Y-148913000I0J326200D01*
G01*
G37*
G36*
G01*
X105570000Y-140586800D02*
X106520000Y-140586800D01*
G75*
G02*
X106846200Y-140913000I0J-326200D01*
G01*
X106846200Y-141413000D01*
G75*
G02*
X106520000Y-141739200I-326200J0D01*
G01*
X105570000Y-141739200D01*
G75*
G02*
X105243800Y-141413000I0J326200D01*
G01*
X105243800Y-140913000D01*
G75*
G02*
X105570000Y-140586800I326200J0D01*
G01*
G37*
G36*
G01*
X105570000Y-142486800D02*
X106520000Y-142486800D01*
G75*
G02*
X106846200Y-142813000I0J-326200D01*
G01*
X106846200Y-143313000D01*
G75*
G02*
X106520000Y-143639200I-326200J0D01*
G01*
X105570000Y-143639200D01*
G75*
G02*
X105243800Y-143313000I0J326200D01*
G01*
X105243800Y-142813000D01*
G75*
G02*
X105570000Y-142486800I326200J0D01*
G01*
G37*
G36*
G01*
X42395200Y-134551000D02*
X42395200Y-135451000D01*
G75*
G02*
X42069000Y-135777200I-326200J0D01*
G01*
X41544000Y-135777200D01*
G75*
G02*
X41217800Y-135451000I0J326200D01*
G01*
X41217800Y-134551000D01*
G75*
G02*
X41544000Y-134224800I326200J0D01*
G01*
X42069000Y-134224800D01*
G75*
G02*
X42395200Y-134551000I0J-326200D01*
G01*
G37*
G36*
G01*
X40570200Y-134551000D02*
X40570200Y-135451000D01*
G75*
G02*
X40244000Y-135777200I-326200J0D01*
G01*
X39719000Y-135777200D01*
G75*
G02*
X39392800Y-135451000I0J326200D01*
G01*
X39392800Y-134551000D01*
G75*
G02*
X39719000Y-134224800I326200J0D01*
G01*
X40244000Y-134224800D01*
G75*
G02*
X40570200Y-134551000I0J-326200D01*
G01*
G37*
G36*
G01*
X87398800Y-174319250D02*
X87398800Y-173406750D01*
G75*
G02*
X87718750Y-173086800I319950J0D01*
G01*
X88206250Y-173086800D01*
G75*
G02*
X88526200Y-173406750I0J-319950D01*
G01*
X88526200Y-174319250D01*
G75*
G02*
X88206250Y-174639200I-319950J0D01*
G01*
X87718750Y-174639200D01*
G75*
G02*
X87398800Y-174319250I0J319950D01*
G01*
G37*
G36*
G01*
X89273800Y-174319250D02*
X89273800Y-173406750D01*
G75*
G02*
X89593750Y-173086800I319950J0D01*
G01*
X90081250Y-173086800D01*
G75*
G02*
X90401200Y-173406750I0J-319950D01*
G01*
X90401200Y-174319250D01*
G75*
G02*
X90081250Y-174639200I-319950J0D01*
G01*
X89593750Y-174639200D01*
G75*
G02*
X89273800Y-174319250I0J319950D01*
G01*
G37*
G36*
G01*
X121406800Y-139088000D02*
X121406800Y-138788000D01*
G75*
G02*
X121633000Y-138561800I226200J0D01*
G01*
X123083000Y-138561800D01*
G75*
G02*
X123309200Y-138788000I0J-226200D01*
G01*
X123309200Y-139088000D01*
G75*
G02*
X123083000Y-139314200I-226200J0D01*
G01*
X121633000Y-139314200D01*
G75*
G02*
X121406800Y-139088000I0J226200D01*
G01*
G37*
G36*
G01*
X121406800Y-140358000D02*
X121406800Y-140058000D01*
G75*
G02*
X121633000Y-139831800I226200J0D01*
G01*
X123083000Y-139831800D01*
G75*
G02*
X123309200Y-140058000I0J-226200D01*
G01*
X123309200Y-140358000D01*
G75*
G02*
X123083000Y-140584200I-226200J0D01*
G01*
X121633000Y-140584200D01*
G75*
G02*
X121406800Y-140358000I0J226200D01*
G01*
G37*
G36*
G01*
X121406800Y-141628000D02*
X121406800Y-141328000D01*
G75*
G02*
X121633000Y-141101800I226200J0D01*
G01*
X123083000Y-141101800D01*
G75*
G02*
X123309200Y-141328000I0J-226200D01*
G01*
X123309200Y-141628000D01*
G75*
G02*
X123083000Y-141854200I-226200J0D01*
G01*
X121633000Y-141854200D01*
G75*
G02*
X121406800Y-141628000I0J226200D01*
G01*
G37*
G36*
G01*
X121406800Y-142898000D02*
X121406800Y-142598000D01*
G75*
G02*
X121633000Y-142371800I226200J0D01*
G01*
X123083000Y-142371800D01*
G75*
G02*
X123309200Y-142598000I0J-226200D01*
G01*
X123309200Y-142898000D01*
G75*
G02*
X123083000Y-143124200I-226200J0D01*
G01*
X121633000Y-143124200D01*
G75*
G02*
X121406800Y-142898000I0J226200D01*
G01*
G37*
G36*
G01*
X121406800Y-144168000D02*
X121406800Y-143868000D01*
G75*
G02*
X121633000Y-143641800I226200J0D01*
G01*
X123083000Y-143641800D01*
G75*
G02*
X123309200Y-143868000I0J-226200D01*
G01*
X123309200Y-144168000D01*
G75*
G02*
X123083000Y-144394200I-226200J0D01*
G01*
X121633000Y-144394200D01*
G75*
G02*
X121406800Y-144168000I0J226200D01*
G01*
G37*
G36*
G01*
X121406800Y-145438000D02*
X121406800Y-145138000D01*
G75*
G02*
X121633000Y-144911800I226200J0D01*
G01*
X123083000Y-144911800D01*
G75*
G02*
X123309200Y-145138000I0J-226200D01*
G01*
X123309200Y-145438000D01*
G75*
G02*
X123083000Y-145664200I-226200J0D01*
G01*
X121633000Y-145664200D01*
G75*
G02*
X121406800Y-145438000I0J226200D01*
G01*
G37*
G36*
G01*
X121406800Y-146708000D02*
X121406800Y-146408000D01*
G75*
G02*
X121633000Y-146181800I226200J0D01*
G01*
X123083000Y-146181800D01*
G75*
G02*
X123309200Y-146408000I0J-226200D01*
G01*
X123309200Y-146708000D01*
G75*
G02*
X123083000Y-146934200I-226200J0D01*
G01*
X121633000Y-146934200D01*
G75*
G02*
X121406800Y-146708000I0J226200D01*
G01*
G37*
G36*
G01*
X121406800Y-147978000D02*
X121406800Y-147678000D01*
G75*
G02*
X121633000Y-147451800I226200J0D01*
G01*
X123083000Y-147451800D01*
G75*
G02*
X123309200Y-147678000I0J-226200D01*
G01*
X123309200Y-147978000D01*
G75*
G02*
X123083000Y-148204200I-226200J0D01*
G01*
X121633000Y-148204200D01*
G75*
G02*
X121406800Y-147978000I0J226200D01*
G01*
G37*
G36*
G01*
X126556800Y-147978000D02*
X126556800Y-147678000D01*
G75*
G02*
X126783000Y-147451800I226200J0D01*
G01*
X128233000Y-147451800D01*
G75*
G02*
X128459200Y-147678000I0J-226200D01*
G01*
X128459200Y-147978000D01*
G75*
G02*
X128233000Y-148204200I-226200J0D01*
G01*
X126783000Y-148204200D01*
G75*
G02*
X126556800Y-147978000I0J226200D01*
G01*
G37*
G36*
G01*
X126556800Y-146708000D02*
X126556800Y-146408000D01*
G75*
G02*
X126783000Y-146181800I226200J0D01*
G01*
X128233000Y-146181800D01*
G75*
G02*
X128459200Y-146408000I0J-226200D01*
G01*
X128459200Y-146708000D01*
G75*
G02*
X128233000Y-146934200I-226200J0D01*
G01*
X126783000Y-146934200D01*
G75*
G02*
X126556800Y-146708000I0J226200D01*
G01*
G37*
G36*
G01*
X126556800Y-145438000D02*
X126556800Y-145138000D01*
G75*
G02*
X126783000Y-144911800I226200J0D01*
G01*
X128233000Y-144911800D01*
G75*
G02*
X128459200Y-145138000I0J-226200D01*
G01*
X128459200Y-145438000D01*
G75*
G02*
X128233000Y-145664200I-226200J0D01*
G01*
X126783000Y-145664200D01*
G75*
G02*
X126556800Y-145438000I0J226200D01*
G01*
G37*
G36*
G01*
X126556800Y-144168000D02*
X126556800Y-143868000D01*
G75*
G02*
X126783000Y-143641800I226200J0D01*
G01*
X128233000Y-143641800D01*
G75*
G02*
X128459200Y-143868000I0J-226200D01*
G01*
X128459200Y-144168000D01*
G75*
G02*
X128233000Y-144394200I-226200J0D01*
G01*
X126783000Y-144394200D01*
G75*
G02*
X126556800Y-144168000I0J226200D01*
G01*
G37*
G36*
G01*
X126556800Y-142898000D02*
X126556800Y-142598000D01*
G75*
G02*
X126783000Y-142371800I226200J0D01*
G01*
X128233000Y-142371800D01*
G75*
G02*
X128459200Y-142598000I0J-226200D01*
G01*
X128459200Y-142898000D01*
G75*
G02*
X128233000Y-143124200I-226200J0D01*
G01*
X126783000Y-143124200D01*
G75*
G02*
X126556800Y-142898000I0J226200D01*
G01*
G37*
G36*
G01*
X126556800Y-141628000D02*
X126556800Y-141328000D01*
G75*
G02*
X126783000Y-141101800I226200J0D01*
G01*
X128233000Y-141101800D01*
G75*
G02*
X128459200Y-141328000I0J-226200D01*
G01*
X128459200Y-141628000D01*
G75*
G02*
X128233000Y-141854200I-226200J0D01*
G01*
X126783000Y-141854200D01*
G75*
G02*
X126556800Y-141628000I0J226200D01*
G01*
G37*
G36*
G01*
X126556800Y-140358000D02*
X126556800Y-140058000D01*
G75*
G02*
X126783000Y-139831800I226200J0D01*
G01*
X128233000Y-139831800D01*
G75*
G02*
X128459200Y-140058000I0J-226200D01*
G01*
X128459200Y-140358000D01*
G75*
G02*
X128233000Y-140584200I-226200J0D01*
G01*
X126783000Y-140584200D01*
G75*
G02*
X126556800Y-140358000I0J226200D01*
G01*
G37*
G36*
G01*
X126556800Y-139088000D02*
X126556800Y-138788000D01*
G75*
G02*
X126783000Y-138561800I226200J0D01*
G01*
X128233000Y-138561800D01*
G75*
G02*
X128459200Y-138788000I0J-226200D01*
G01*
X128459200Y-139088000D01*
G75*
G02*
X128233000Y-139314200I-226200J0D01*
G01*
X126783000Y-139314200D01*
G75*
G02*
X126556800Y-139088000I0J226200D01*
G01*
G37*
G36*
G01*
X119032000Y-139824800D02*
X119982000Y-139824800D01*
G75*
G02*
X120308200Y-140151000I0J-326200D01*
G01*
X120308200Y-140651000D01*
G75*
G02*
X119982000Y-140977200I-326200J0D01*
G01*
X119032000Y-140977200D01*
G75*
G02*
X118705800Y-140651000I0J326200D01*
G01*
X118705800Y-140151000D01*
G75*
G02*
X119032000Y-139824800I326200J0D01*
G01*
G37*
G36*
G01*
X119032000Y-141724800D02*
X119982000Y-141724800D01*
G75*
G02*
X120308200Y-142051000I0J-326200D01*
G01*
X120308200Y-142551000D01*
G75*
G02*
X119982000Y-142877200I-326200J0D01*
G01*
X119032000Y-142877200D01*
G75*
G02*
X118705800Y-142551000I0J326200D01*
G01*
X118705800Y-142051000D01*
G75*
G02*
X119032000Y-141724800I326200J0D01*
G01*
G37*
G36*
G01*
X91056800Y-182212000D02*
X91056800Y-181262000D01*
G75*
G02*
X91383000Y-180935800I326200J0D01*
G01*
X91883000Y-180935800D01*
G75*
G02*
X92209200Y-181262000I0J-326200D01*
G01*
X92209200Y-182212000D01*
G75*
G02*
X91883000Y-182538200I-326200J0D01*
G01*
X91383000Y-182538200D01*
G75*
G02*
X91056800Y-182212000I0J326200D01*
G01*
G37*
G36*
G01*
X92956800Y-182212000D02*
X92956800Y-181262000D01*
G75*
G02*
X93283000Y-180935800I326200J0D01*
G01*
X93783000Y-180935800D01*
G75*
G02*
X94109200Y-181262000I0J-326200D01*
G01*
X94109200Y-182212000D01*
G75*
G02*
X93783000Y-182538200I-326200J0D01*
G01*
X93283000Y-182538200D01*
G75*
G02*
X92956800Y-182212000I0J326200D01*
G01*
G37*
G36*
G01*
X47891700Y-155573100D02*
X47891700Y-156766900D01*
G75*
G02*
X47815500Y-156843100I-76200J0D01*
G01*
X45326300Y-156843100D01*
G75*
G02*
X45250100Y-156766900I0J76200D01*
G01*
X45250100Y-155573100D01*
G75*
G02*
X45326300Y-155496900I76200J0D01*
G01*
X47815500Y-155496900D01*
G75*
G02*
X47891700Y-155573100I0J-76200D01*
G01*
G37*
G36*
G01*
X47891700Y-153073100D02*
X47891700Y-154266900D01*
G75*
G02*
X47815500Y-154343100I-76200J0D01*
G01*
X45326300Y-154343100D01*
G75*
G02*
X45250100Y-154266900I0J76200D01*
G01*
X45250100Y-153073100D01*
G75*
G02*
X45326300Y-152996900I76200J0D01*
G01*
X47815500Y-152996900D01*
G75*
G02*
X47891700Y-153073100I0J-76200D01*
G01*
G37*
G36*
G01*
X47891700Y-150573100D02*
X47891700Y-151766900D01*
G75*
G02*
X47815500Y-151843100I-76200J0D01*
G01*
X45326300Y-151843100D01*
G75*
G02*
X45250100Y-151766900I0J76200D01*
G01*
X45250100Y-150573100D01*
G75*
G02*
X45326300Y-150496900I76200J0D01*
G01*
X47815500Y-150496900D01*
G75*
G02*
X47891700Y-150573100I0J-76200D01*
G01*
G37*
G36*
G01*
X42379900Y-155573100D02*
X42379900Y-156766900D01*
G75*
G02*
X42303700Y-156843100I-76200J0D01*
G01*
X39814500Y-156843100D01*
G75*
G02*
X39738300Y-156766900I0J76200D01*
G01*
X39738300Y-155573100D01*
G75*
G02*
X39814500Y-155496900I76200J0D01*
G01*
X42303700Y-155496900D01*
G75*
G02*
X42379900Y-155573100I0J-76200D01*
G01*
G37*
G36*
G01*
X42379900Y-153073100D02*
X42379900Y-154266900D01*
G75*
G02*
X42303700Y-154343100I-76200J0D01*
G01*
X39814500Y-154343100D01*
G75*
G02*
X39738300Y-154266900I0J76200D01*
G01*
X39738300Y-153073100D01*
G75*
G02*
X39814500Y-152996900I76200J0D01*
G01*
X42303700Y-152996900D01*
G75*
G02*
X42379900Y-153073100I0J-76200D01*
G01*
G37*
G36*
G01*
X42379900Y-150573100D02*
X42379900Y-151766900D01*
G75*
G02*
X42303700Y-151843100I-76200J0D01*
G01*
X39814500Y-151843100D01*
G75*
G02*
X39738300Y-151766900I0J76200D01*
G01*
X39738300Y-150573100D01*
G75*
G02*
X39814500Y-150496900I76200J0D01*
G01*
X42303700Y-150496900D01*
G75*
G02*
X42379900Y-150573100I0J-76200D01*
G01*
G37*
G36*
G01*
X139272700Y-147886000D02*
X139272700Y-148786000D01*
G75*
G02*
X138946500Y-149112200I-326200J0D01*
G01*
X138421500Y-149112200D01*
G75*
G02*
X138095300Y-148786000I0J326200D01*
G01*
X138095300Y-147886000D01*
G75*
G02*
X138421500Y-147559800I326200J0D01*
G01*
X138946500Y-147559800D01*
G75*
G02*
X139272700Y-147886000I0J-326200D01*
G01*
G37*
G36*
G01*
X137447700Y-147886000D02*
X137447700Y-148786000D01*
G75*
G02*
X137121500Y-149112200I-326200J0D01*
G01*
X136596500Y-149112200D01*
G75*
G02*
X136270300Y-148786000I0J326200D01*
G01*
X136270300Y-147886000D01*
G75*
G02*
X136596500Y-147559800I326200J0D01*
G01*
X137121500Y-147559800D01*
G75*
G02*
X137447700Y-147886000I0J-326200D01*
G01*
G37*
G36*
G01*
X87398800Y-169874250D02*
X87398800Y-168961750D01*
G75*
G02*
X87718750Y-168641800I319950J0D01*
G01*
X88206250Y-168641800D01*
G75*
G02*
X88526200Y-168961750I0J-319950D01*
G01*
X88526200Y-169874250D01*
G75*
G02*
X88206250Y-170194200I-319950J0D01*
G01*
X87718750Y-170194200D01*
G75*
G02*
X87398800Y-169874250I0J319950D01*
G01*
G37*
G36*
G01*
X89273800Y-169874250D02*
X89273800Y-168961750D01*
G75*
G02*
X89593750Y-168641800I319950J0D01*
G01*
X90081250Y-168641800D01*
G75*
G02*
X90401200Y-168961750I0J-319950D01*
G01*
X90401200Y-169874250D01*
G75*
G02*
X90081250Y-170194200I-319950J0D01*
G01*
X89593750Y-170194200D01*
G75*
G02*
X89273800Y-169874250I0J319950D01*
G01*
G37*
G36*
G01*
X134876200Y-144559000D02*
X134876200Y-145509000D01*
G75*
G02*
X134550000Y-145835200I-326200J0D01*
G01*
X134050000Y-145835200D01*
G75*
G02*
X133723800Y-145509000I0J326200D01*
G01*
X133723800Y-144559000D01*
G75*
G02*
X134050000Y-144232800I326200J0D01*
G01*
X134550000Y-144232800D01*
G75*
G02*
X134876200Y-144559000I0J-326200D01*
G01*
G37*
G36*
G01*
X132976200Y-144559000D02*
X132976200Y-145509000D01*
G75*
G02*
X132650000Y-145835200I-326200J0D01*
G01*
X132150000Y-145835200D01*
G75*
G02*
X131823800Y-145509000I0J326200D01*
G01*
X131823800Y-144559000D01*
G75*
G02*
X132150000Y-144232800I326200J0D01*
G01*
X132650000Y-144232800D01*
G75*
G02*
X132976200Y-144559000I0J-326200D01*
G01*
G37*
G36*
G01*
X74237000Y-175745200D02*
X73337000Y-175745200D01*
G75*
G02*
X73010800Y-175419000I0J326200D01*
G01*
X73010800Y-174894000D01*
G75*
G02*
X73337000Y-174567800I326200J0D01*
G01*
X74237000Y-174567800D01*
G75*
G02*
X74563200Y-174894000I0J-326200D01*
G01*
X74563200Y-175419000D01*
G75*
G02*
X74237000Y-175745200I-326200J0D01*
G01*
G37*
G36*
G01*
X74237000Y-173920200D02*
X73337000Y-173920200D01*
G75*
G02*
X73010800Y-173594000I0J326200D01*
G01*
X73010800Y-173069000D01*
G75*
G02*
X73337000Y-172742800I326200J0D01*
G01*
X74237000Y-172742800D01*
G75*
G02*
X74563200Y-173069000I0J-326200D01*
G01*
X74563200Y-173594000D01*
G75*
G02*
X74237000Y-173920200I-326200J0D01*
G01*
G37*
G36*
G01*
X105485250Y-173713200D02*
X104572750Y-173713200D01*
G75*
G02*
X104252800Y-173393250I0J319950D01*
G01*
X104252800Y-172905750D01*
G75*
G02*
X104572750Y-172585800I319950J0D01*
G01*
X105485250Y-172585800D01*
G75*
G02*
X105805200Y-172905750I0J-319950D01*
G01*
X105805200Y-173393250D01*
G75*
G02*
X105485250Y-173713200I-319950J0D01*
G01*
G37*
G36*
G01*
X105485250Y-171838200D02*
X104572750Y-171838200D01*
G75*
G02*
X104252800Y-171518250I0J319950D01*
G01*
X104252800Y-171030750D01*
G75*
G02*
X104572750Y-170710800I319950J0D01*
G01*
X105485250Y-170710800D01*
G75*
G02*
X105805200Y-171030750I0J-319950D01*
G01*
X105805200Y-171518250D01*
G75*
G02*
X105485250Y-171838200I-319950J0D01*
G01*
G37*
G36*
G01*
X139272700Y-157792000D02*
X139272700Y-158692000D01*
G75*
G02*
X138946500Y-159018200I-326200J0D01*
G01*
X138421500Y-159018200D01*
G75*
G02*
X138095300Y-158692000I0J326200D01*
G01*
X138095300Y-157792000D01*
G75*
G02*
X138421500Y-157465800I326200J0D01*
G01*
X138946500Y-157465800D01*
G75*
G02*
X139272700Y-157792000I0J-326200D01*
G01*
G37*
G36*
G01*
X137447700Y-157792000D02*
X137447700Y-158692000D01*
G75*
G02*
X137121500Y-159018200I-326200J0D01*
G01*
X136596500Y-159018200D01*
G75*
G02*
X136270300Y-158692000I0J326200D01*
G01*
X136270300Y-157792000D01*
G75*
G02*
X136596500Y-157465800I326200J0D01*
G01*
X137121500Y-157465800D01*
G75*
G02*
X137447700Y-157792000I0J-326200D01*
G01*
G37*
G36*
G01*
X119032000Y-151569800D02*
X119982000Y-151569800D01*
G75*
G02*
X120308200Y-151896000I0J-326200D01*
G01*
X120308200Y-152396000D01*
G75*
G02*
X119982000Y-152722200I-326200J0D01*
G01*
X119032000Y-152722200D01*
G75*
G02*
X118705800Y-152396000I0J326200D01*
G01*
X118705800Y-151896000D01*
G75*
G02*
X119032000Y-151569800I326200J0D01*
G01*
G37*
G36*
G01*
X119032000Y-153469800D02*
X119982000Y-153469800D01*
G75*
G02*
X120308200Y-153796000I0J-326200D01*
G01*
X120308200Y-154296000D01*
G75*
G02*
X119982000Y-154622200I-326200J0D01*
G01*
X119032000Y-154622200D01*
G75*
G02*
X118705800Y-154296000I0J326200D01*
G01*
X118705800Y-153796000D01*
G75*
G02*
X119032000Y-153469800I326200J0D01*
G01*
G37*
G36*
G01*
X71813000Y-129181800D02*
X72713000Y-129181800D01*
G75*
G02*
X73039200Y-129508000I0J-326200D01*
G01*
X73039200Y-130033000D01*
G75*
G02*
X72713000Y-130359200I-326200J0D01*
G01*
X71813000Y-130359200D01*
G75*
G02*
X71486800Y-130033000I0J326200D01*
G01*
X71486800Y-129508000D01*
G75*
G02*
X71813000Y-129181800I326200J0D01*
G01*
G37*
G36*
G01*
X71813000Y-131006800D02*
X72713000Y-131006800D01*
G75*
G02*
X73039200Y-131333000I0J-326200D01*
G01*
X73039200Y-131858000D01*
G75*
G02*
X72713000Y-132184200I-326200J0D01*
G01*
X71813000Y-132184200D01*
G75*
G02*
X71486800Y-131858000I0J326200D01*
G01*
X71486800Y-131333000D01*
G75*
G02*
X71813000Y-131006800I326200J0D01*
G01*
G37*
G36*
G01*
X139272700Y-154490000D02*
X139272700Y-155390000D01*
G75*
G02*
X138946500Y-155716200I-326200J0D01*
G01*
X138421500Y-155716200D01*
G75*
G02*
X138095300Y-155390000I0J326200D01*
G01*
X138095300Y-154490000D01*
G75*
G02*
X138421500Y-154163800I326200J0D01*
G01*
X138946500Y-154163800D01*
G75*
G02*
X139272700Y-154490000I0J-326200D01*
G01*
G37*
G36*
G01*
X137447700Y-154490000D02*
X137447700Y-155390000D01*
G75*
G02*
X137121500Y-155716200I-326200J0D01*
G01*
X136596500Y-155716200D01*
G75*
G02*
X136270300Y-155390000I0J326200D01*
G01*
X136270300Y-154490000D01*
G75*
G02*
X136596500Y-154163800I326200J0D01*
G01*
X137121500Y-154163800D01*
G75*
G02*
X137447700Y-154490000I0J-326200D01*
G01*
G37*
G36*
G01*
X135313000Y-165503800D02*
X136213000Y-165503800D01*
G75*
G02*
X136539200Y-165830000I0J-326200D01*
G01*
X136539200Y-166355000D01*
G75*
G02*
X136213000Y-166681200I-326200J0D01*
G01*
X135313000Y-166681200D01*
G75*
G02*
X134986800Y-166355000I0J326200D01*
G01*
X134986800Y-165830000D01*
G75*
G02*
X135313000Y-165503800I326200J0D01*
G01*
G37*
G36*
G01*
X135313000Y-167328800D02*
X136213000Y-167328800D01*
G75*
G02*
X136539200Y-167655000I0J-326200D01*
G01*
X136539200Y-168180000D01*
G75*
G02*
X136213000Y-168506200I-326200J0D01*
G01*
X135313000Y-168506200D01*
G75*
G02*
X134986800Y-168180000I0J326200D01*
G01*
X134986800Y-167655000D01*
G75*
G02*
X135313000Y-167328800I326200J0D01*
G01*
G37*
G36*
G01*
X59077800Y-151453000D02*
X59077800Y-150553000D01*
G75*
G02*
X59404000Y-150226800I326200J0D01*
G01*
X59929000Y-150226800D01*
G75*
G02*
X60255200Y-150553000I0J-326200D01*
G01*
X60255200Y-151453000D01*
G75*
G02*
X59929000Y-151779200I-326200J0D01*
G01*
X59404000Y-151779200D01*
G75*
G02*
X59077800Y-151453000I0J326200D01*
G01*
G37*
G36*
G01*
X60902800Y-151453000D02*
X60902800Y-150553000D01*
G75*
G02*
X61229000Y-150226800I326200J0D01*
G01*
X61754000Y-150226800D01*
G75*
G02*
X62080200Y-150553000I0J-326200D01*
G01*
X62080200Y-151453000D01*
G75*
G02*
X61754000Y-151779200I-326200J0D01*
G01*
X61229000Y-151779200D01*
G75*
G02*
X60902800Y-151453000I0J326200D01*
G01*
G37*
G36*
G01*
X34029000Y-161008800D02*
X36329000Y-161008800D01*
G75*
G02*
X36405200Y-161085000I0J-76200D01*
G01*
X36405200Y-163385000D01*
G75*
G02*
X36329000Y-163461200I-76200J0D01*
G01*
X34029000Y-163461200D01*
G75*
G02*
X33952800Y-163385000I0J76200D01*
G01*
X33952800Y-161085000D01*
G75*
G02*
X34029000Y-161008800I76200J0D01*
G01*
G37*
X35179000Y-165735000D03*
X35179000Y-169235000D03*
G36*
G01*
X110057250Y-173713200D02*
X109144750Y-173713200D01*
G75*
G02*
X108824800Y-173393250I0J319950D01*
G01*
X108824800Y-172905750D01*
G75*
G02*
X109144750Y-172585800I319950J0D01*
G01*
X110057250Y-172585800D01*
G75*
G02*
X110377200Y-172905750I0J-319950D01*
G01*
X110377200Y-173393250D01*
G75*
G02*
X110057250Y-173713200I-319950J0D01*
G01*
G37*
G36*
G01*
X110057250Y-171838200D02*
X109144750Y-171838200D01*
G75*
G02*
X108824800Y-171518250I0J319950D01*
G01*
X108824800Y-171030750D01*
G75*
G02*
X109144750Y-170710800I319950J0D01*
G01*
X110057250Y-170710800D01*
G75*
G02*
X110377200Y-171030750I0J-319950D01*
G01*
X110377200Y-171518250D01*
G75*
G02*
X110057250Y-171838200I-319950J0D01*
G01*
G37*
G36*
X47599020Y-132507373D02*
G01*
X47572958Y-132462232D01*
X47571800Y-132449000D01*
X47571800Y-130949000D01*
X47589627Y-130900020D01*
X47634768Y-130873958D01*
X47648000Y-130872800D01*
X48148000Y-130872800D01*
X48162334Y-130878017D01*
X48229337Y-130879245D01*
X48250664Y-130882699D01*
X48385979Y-130924974D01*
X48405480Y-130934275D01*
X48523490Y-131012830D01*
X48539596Y-131027231D01*
X48630816Y-131135750D01*
X48642233Y-131154092D01*
X48699328Y-131283851D01*
X48705138Y-131304660D01*
X48722060Y-131434068D01*
X48723042Y-131435768D01*
X48724200Y-131449000D01*
X48724200Y-131949000D01*
X48723448Y-131951066D01*
X48723256Y-131966833D01*
X48701445Y-132106910D01*
X48695128Y-132127570D01*
X48634880Y-132255895D01*
X48623018Y-132273953D01*
X48529174Y-132380211D01*
X48512721Y-132394213D01*
X48392826Y-132469861D01*
X48373105Y-132478683D01*
X48236798Y-132517640D01*
X48215392Y-132520573D01*
X48167745Y-132520282D01*
X48161232Y-132524042D01*
X48148000Y-132525200D01*
X47648000Y-132525200D01*
X47599020Y-132507373D01*
G37*
G36*
X46833919Y-132520075D02*
G01*
X46773630Y-132519707D01*
X46752262Y-132516513D01*
X46616441Y-132475894D01*
X46596828Y-132466832D01*
X46477866Y-132389725D01*
X46461585Y-132375522D01*
X46369047Y-132268125D01*
X46357408Y-132249924D01*
X46298731Y-132120872D01*
X46292667Y-132100135D01*
X46272570Y-131959802D01*
X46271800Y-131949000D01*
X46271800Y-131449000D01*
X46271806Y-131448071D01*
X46271955Y-131435855D01*
X46273005Y-131424142D01*
X46296525Y-131284341D01*
X46303094Y-131263758D01*
X46364906Y-131136179D01*
X46376987Y-131118268D01*
X46472122Y-131013164D01*
X46488745Y-130999363D01*
X46609555Y-130925186D01*
X46629383Y-130916606D01*
X46766156Y-130879317D01*
X46787596Y-130876647D01*
X46828802Y-130877402D01*
X46834768Y-130873958D01*
X46848000Y-130872800D01*
X47348000Y-130872800D01*
X47396980Y-130890627D01*
X47423042Y-130935768D01*
X47424200Y-130949000D01*
X47424200Y-132449000D01*
X47406373Y-132497980D01*
X47361232Y-132524042D01*
X47348000Y-132525200D01*
X46848000Y-132525200D01*
X46833919Y-132520075D01*
G37*
G36*
G01*
X48305200Y-120499000D02*
X48305200Y-121699000D01*
G75*
G02*
X48029000Y-121975200I-276200J0D01*
G01*
X47629000Y-121975200D01*
G75*
G02*
X47352800Y-121699000I0J276200D01*
G01*
X47352800Y-120499000D01*
G75*
G02*
X47629000Y-120222800I276200J0D01*
G01*
X48029000Y-120222800D01*
G75*
G02*
X48305200Y-120499000I0J-276200D01*
G01*
G37*
G36*
G01*
X47055200Y-120499000D02*
X47055200Y-121699000D01*
G75*
G02*
X46779000Y-121975200I-276200J0D01*
G01*
X46379000Y-121975200D01*
G75*
G02*
X46102800Y-121699000I0J276200D01*
G01*
X46102800Y-120499000D01*
G75*
G02*
X46379000Y-120222800I276200J0D01*
G01*
X46779000Y-120222800D01*
G75*
G02*
X47055200Y-120499000I0J-276200D01*
G01*
G37*
G36*
G01*
X45805200Y-120499000D02*
X45805200Y-121699000D01*
G75*
G02*
X45529000Y-121975200I-276200J0D01*
G01*
X45129000Y-121975200D01*
G75*
G02*
X44852800Y-121699000I0J276200D01*
G01*
X44852800Y-120499000D01*
G75*
G02*
X45129000Y-120222800I276200J0D01*
G01*
X45529000Y-120222800D01*
G75*
G02*
X45805200Y-120499000I0J-276200D01*
G01*
G37*
G36*
G01*
X44555200Y-120499000D02*
X44555200Y-121699000D01*
G75*
G02*
X44279000Y-121975200I-276200J0D01*
G01*
X43879000Y-121975200D01*
G75*
G02*
X43602800Y-121699000I0J276200D01*
G01*
X43602800Y-120499000D01*
G75*
G02*
X43879000Y-120222800I276200J0D01*
G01*
X44279000Y-120222800D01*
G75*
G02*
X44555200Y-120499000I0J-276200D01*
G01*
G37*
G36*
G01*
X42655200Y-116949001D02*
X42655200Y-119448999D01*
G75*
G02*
X42328999Y-119775200I-326201J0D01*
G01*
X40729001Y-119775200D01*
G75*
G02*
X40402800Y-119448999I0J326201D01*
G01*
X40402800Y-116949001D01*
G75*
G02*
X40729001Y-116622800I326201J0D01*
G01*
X42328999Y-116622800D01*
G75*
G02*
X42655200Y-116949001I0J-326201D01*
G01*
G37*
G36*
G01*
X51505200Y-116949001D02*
X51505200Y-119448999D01*
G75*
G02*
X51178999Y-119775200I-326201J0D01*
G01*
X49579001Y-119775200D01*
G75*
G02*
X49252800Y-119448999I0J326201D01*
G01*
X49252800Y-116949001D01*
G75*
G02*
X49579001Y-116622800I326201J0D01*
G01*
X51178999Y-116622800D01*
G75*
G02*
X51505200Y-116949001I0J-326201D01*
G01*
G37*
G36*
G01*
X110975200Y-146743000D02*
X110975200Y-147643000D01*
G75*
G02*
X110649000Y-147969200I-326200J0D01*
G01*
X110124000Y-147969200D01*
G75*
G02*
X109797800Y-147643000I0J326200D01*
G01*
X109797800Y-146743000D01*
G75*
G02*
X110124000Y-146416800I326200J0D01*
G01*
X110649000Y-146416800D01*
G75*
G02*
X110975200Y-146743000I0J-326200D01*
G01*
G37*
G36*
G01*
X109150200Y-146743000D02*
X109150200Y-147643000D01*
G75*
G02*
X108824000Y-147969200I-326200J0D01*
G01*
X108299000Y-147969200D01*
G75*
G02*
X107972800Y-147643000I0J326200D01*
G01*
X107972800Y-146743000D01*
G75*
G02*
X108299000Y-146416800I326200J0D01*
G01*
X108824000Y-146416800D01*
G75*
G02*
X109150200Y-146743000I0J-326200D01*
G01*
G37*
G36*
G01*
X121147000Y-119189550D02*
X122947000Y-119189550D01*
G75*
G02*
X123023200Y-119265750I0J-76200D01*
G01*
X123023200Y-121765750D01*
G75*
G02*
X122947000Y-121841950I-76200J0D01*
G01*
X121147000Y-121841950D01*
G75*
G02*
X121070800Y-121765750I0J76200D01*
G01*
X121070800Y-119265750D01*
G75*
G02*
X121147000Y-119189550I76200J0D01*
G01*
G37*
G36*
G01*
X121147000Y-123189550D02*
X122947000Y-123189550D01*
G75*
G02*
X123023200Y-123265750I0J-76200D01*
G01*
X123023200Y-125765750D01*
G75*
G02*
X122947000Y-125841950I-76200J0D01*
G01*
X121147000Y-125841950D01*
G75*
G02*
X121070800Y-125765750I0J76200D01*
G01*
X121070800Y-123265750D01*
G75*
G02*
X121147000Y-123189550I76200J0D01*
G01*
G37*
G36*
G01*
X97177800Y-162883000D02*
X97177800Y-161983000D01*
G75*
G02*
X97504000Y-161656800I326200J0D01*
G01*
X98029000Y-161656800D01*
G75*
G02*
X98355200Y-161983000I0J-326200D01*
G01*
X98355200Y-162883000D01*
G75*
G02*
X98029000Y-163209200I-326200J0D01*
G01*
X97504000Y-163209200D01*
G75*
G02*
X97177800Y-162883000I0J326200D01*
G01*
G37*
G36*
G01*
X99002800Y-162883000D02*
X99002800Y-161983000D01*
G75*
G02*
X99329000Y-161656800I326200J0D01*
G01*
X99854000Y-161656800D01*
G75*
G02*
X100180200Y-161983000I0J-326200D01*
G01*
X100180200Y-162883000D01*
G75*
G02*
X99854000Y-163209200I-326200J0D01*
G01*
X99329000Y-163209200D01*
G75*
G02*
X99002800Y-162883000I0J326200D01*
G01*
G37*
G36*
G01*
X42395200Y-175318000D02*
X42395200Y-176218000D01*
G75*
G02*
X42069000Y-176544200I-326200J0D01*
G01*
X41544000Y-176544200D01*
G75*
G02*
X41217800Y-176218000I0J326200D01*
G01*
X41217800Y-175318000D01*
G75*
G02*
X41544000Y-174991800I326200J0D01*
G01*
X42069000Y-174991800D01*
G75*
G02*
X42395200Y-175318000I0J-326200D01*
G01*
G37*
G36*
G01*
X40570200Y-175318000D02*
X40570200Y-176218000D01*
G75*
G02*
X40244000Y-176544200I-326200J0D01*
G01*
X39719000Y-176544200D01*
G75*
G02*
X39392800Y-176218000I0J326200D01*
G01*
X39392800Y-175318000D01*
G75*
G02*
X39719000Y-174991800I326200J0D01*
G01*
X40244000Y-174991800D01*
G75*
G02*
X40570200Y-175318000I0J-326200D01*
G01*
G37*
G36*
G01*
X134876200Y-141257000D02*
X134876200Y-142207000D01*
G75*
G02*
X134550000Y-142533200I-326200J0D01*
G01*
X134050000Y-142533200D01*
G75*
G02*
X133723800Y-142207000I0J326200D01*
G01*
X133723800Y-141257000D01*
G75*
G02*
X134050000Y-140930800I326200J0D01*
G01*
X134550000Y-140930800D01*
G75*
G02*
X134876200Y-141257000I0J-326200D01*
G01*
G37*
G36*
G01*
X132976200Y-141257000D02*
X132976200Y-142207000D01*
G75*
G02*
X132650000Y-142533200I-326200J0D01*
G01*
X132150000Y-142533200D01*
G75*
G02*
X131823800Y-142207000I0J326200D01*
G01*
X131823800Y-141257000D01*
G75*
G02*
X132150000Y-140930800I326200J0D01*
G01*
X132650000Y-140930800D01*
G75*
G02*
X132976200Y-141257000I0J-326200D01*
G01*
G37*
G36*
G01*
X68616200Y-140947000D02*
X68616200Y-141247000D01*
G75*
G02*
X68390000Y-141473200I-226200J0D01*
G01*
X66640000Y-141473200D01*
G75*
G02*
X66413800Y-141247000I0J226200D01*
G01*
X66413800Y-140947000D01*
G75*
G02*
X66640000Y-140720800I226200J0D01*
G01*
X68390000Y-140720800D01*
G75*
G02*
X68616200Y-140947000I0J-226200D01*
G01*
G37*
G36*
G01*
X68616200Y-139677000D02*
X68616200Y-139977000D01*
G75*
G02*
X68390000Y-140203200I-226200J0D01*
G01*
X66640000Y-140203200D01*
G75*
G02*
X66413800Y-139977000I0J226200D01*
G01*
X66413800Y-139677000D01*
G75*
G02*
X66640000Y-139450800I226200J0D01*
G01*
X68390000Y-139450800D01*
G75*
G02*
X68616200Y-139677000I0J-226200D01*
G01*
G37*
G36*
G01*
X68616200Y-138407000D02*
X68616200Y-138707000D01*
G75*
G02*
X68390000Y-138933200I-226200J0D01*
G01*
X66640000Y-138933200D01*
G75*
G02*
X66413800Y-138707000I0J226200D01*
G01*
X66413800Y-138407000D01*
G75*
G02*
X66640000Y-138180800I226200J0D01*
G01*
X68390000Y-138180800D01*
G75*
G02*
X68616200Y-138407000I0J-226200D01*
G01*
G37*
G36*
G01*
X68616200Y-137137000D02*
X68616200Y-137437000D01*
G75*
G02*
X68390000Y-137663200I-226200J0D01*
G01*
X66640000Y-137663200D01*
G75*
G02*
X66413800Y-137437000I0J226200D01*
G01*
X66413800Y-137137000D01*
G75*
G02*
X66640000Y-136910800I226200J0D01*
G01*
X68390000Y-136910800D01*
G75*
G02*
X68616200Y-137137000I0J-226200D01*
G01*
G37*
G36*
G01*
X68616200Y-135867000D02*
X68616200Y-136167000D01*
G75*
G02*
X68390000Y-136393200I-226200J0D01*
G01*
X66640000Y-136393200D01*
G75*
G02*
X66413800Y-136167000I0J226200D01*
G01*
X66413800Y-135867000D01*
G75*
G02*
X66640000Y-135640800I226200J0D01*
G01*
X68390000Y-135640800D01*
G75*
G02*
X68616200Y-135867000I0J-226200D01*
G01*
G37*
G36*
G01*
X68616200Y-134597000D02*
X68616200Y-134897000D01*
G75*
G02*
X68390000Y-135123200I-226200J0D01*
G01*
X66640000Y-135123200D01*
G75*
G02*
X66413800Y-134897000I0J226200D01*
G01*
X66413800Y-134597000D01*
G75*
G02*
X66640000Y-134370800I226200J0D01*
G01*
X68390000Y-134370800D01*
G75*
G02*
X68616200Y-134597000I0J-226200D01*
G01*
G37*
G36*
G01*
X68616200Y-133327000D02*
X68616200Y-133627000D01*
G75*
G02*
X68390000Y-133853200I-226200J0D01*
G01*
X66640000Y-133853200D01*
G75*
G02*
X66413800Y-133627000I0J226200D01*
G01*
X66413800Y-133327000D01*
G75*
G02*
X66640000Y-133100800I226200J0D01*
G01*
X68390000Y-133100800D01*
G75*
G02*
X68616200Y-133327000I0J-226200D01*
G01*
G37*
G36*
G01*
X68616200Y-132057000D02*
X68616200Y-132357000D01*
G75*
G02*
X68390000Y-132583200I-226200J0D01*
G01*
X66640000Y-132583200D01*
G75*
G02*
X66413800Y-132357000I0J226200D01*
G01*
X66413800Y-132057000D01*
G75*
G02*
X66640000Y-131830800I226200J0D01*
G01*
X68390000Y-131830800D01*
G75*
G02*
X68616200Y-132057000I0J-226200D01*
G01*
G37*
G36*
G01*
X68616200Y-130787000D02*
X68616200Y-131087000D01*
G75*
G02*
X68390000Y-131313200I-226200J0D01*
G01*
X66640000Y-131313200D01*
G75*
G02*
X66413800Y-131087000I0J226200D01*
G01*
X66413800Y-130787000D01*
G75*
G02*
X66640000Y-130560800I226200J0D01*
G01*
X68390000Y-130560800D01*
G75*
G02*
X68616200Y-130787000I0J-226200D01*
G01*
G37*
G36*
G01*
X68616200Y-129517000D02*
X68616200Y-129817000D01*
G75*
G02*
X68390000Y-130043200I-226200J0D01*
G01*
X66640000Y-130043200D01*
G75*
G02*
X66413800Y-129817000I0J226200D01*
G01*
X66413800Y-129517000D01*
G75*
G02*
X66640000Y-129290800I226200J0D01*
G01*
X68390000Y-129290800D01*
G75*
G02*
X68616200Y-129517000I0J-226200D01*
G01*
G37*
G36*
G01*
X59316200Y-129517000D02*
X59316200Y-129817000D01*
G75*
G02*
X59090000Y-130043200I-226200J0D01*
G01*
X57340000Y-130043200D01*
G75*
G02*
X57113800Y-129817000I0J226200D01*
G01*
X57113800Y-129517000D01*
G75*
G02*
X57340000Y-129290800I226200J0D01*
G01*
X59090000Y-129290800D01*
G75*
G02*
X59316200Y-129517000I0J-226200D01*
G01*
G37*
G36*
G01*
X59316200Y-130787000D02*
X59316200Y-131087000D01*
G75*
G02*
X59090000Y-131313200I-226200J0D01*
G01*
X57340000Y-131313200D01*
G75*
G02*
X57113800Y-131087000I0J226200D01*
G01*
X57113800Y-130787000D01*
G75*
G02*
X57340000Y-130560800I226200J0D01*
G01*
X59090000Y-130560800D01*
G75*
G02*
X59316200Y-130787000I0J-226200D01*
G01*
G37*
G36*
G01*
X59316200Y-132057000D02*
X59316200Y-132357000D01*
G75*
G02*
X59090000Y-132583200I-226200J0D01*
G01*
X57340000Y-132583200D01*
G75*
G02*
X57113800Y-132357000I0J226200D01*
G01*
X57113800Y-132057000D01*
G75*
G02*
X57340000Y-131830800I226200J0D01*
G01*
X59090000Y-131830800D01*
G75*
G02*
X59316200Y-132057000I0J-226200D01*
G01*
G37*
G36*
G01*
X59316200Y-133327000D02*
X59316200Y-133627000D01*
G75*
G02*
X59090000Y-133853200I-226200J0D01*
G01*
X57340000Y-133853200D01*
G75*
G02*
X57113800Y-133627000I0J226200D01*
G01*
X57113800Y-133327000D01*
G75*
G02*
X57340000Y-133100800I226200J0D01*
G01*
X59090000Y-133100800D01*
G75*
G02*
X59316200Y-133327000I0J-226200D01*
G01*
G37*
G36*
G01*
X59316200Y-134597000D02*
X59316200Y-134897000D01*
G75*
G02*
X59090000Y-135123200I-226200J0D01*
G01*
X57340000Y-135123200D01*
G75*
G02*
X57113800Y-134897000I0J226200D01*
G01*
X57113800Y-134597000D01*
G75*
G02*
X57340000Y-134370800I226200J0D01*
G01*
X59090000Y-134370800D01*
G75*
G02*
X59316200Y-134597000I0J-226200D01*
G01*
G37*
G36*
G01*
X59316200Y-135867000D02*
X59316200Y-136167000D01*
G75*
G02*
X59090000Y-136393200I-226200J0D01*
G01*
X57340000Y-136393200D01*
G75*
G02*
X57113800Y-136167000I0J226200D01*
G01*
X57113800Y-135867000D01*
G75*
G02*
X57340000Y-135640800I226200J0D01*
G01*
X59090000Y-135640800D01*
G75*
G02*
X59316200Y-135867000I0J-226200D01*
G01*
G37*
G36*
G01*
X59316200Y-137137000D02*
X59316200Y-137437000D01*
G75*
G02*
X59090000Y-137663200I-226200J0D01*
G01*
X57340000Y-137663200D01*
G75*
G02*
X57113800Y-137437000I0J226200D01*
G01*
X57113800Y-137137000D01*
G75*
G02*
X57340000Y-136910800I226200J0D01*
G01*
X59090000Y-136910800D01*
G75*
G02*
X59316200Y-137137000I0J-226200D01*
G01*
G37*
G36*
G01*
X59316200Y-138407000D02*
X59316200Y-138707000D01*
G75*
G02*
X59090000Y-138933200I-226200J0D01*
G01*
X57340000Y-138933200D01*
G75*
G02*
X57113800Y-138707000I0J226200D01*
G01*
X57113800Y-138407000D01*
G75*
G02*
X57340000Y-138180800I226200J0D01*
G01*
X59090000Y-138180800D01*
G75*
G02*
X59316200Y-138407000I0J-226200D01*
G01*
G37*
G36*
G01*
X59316200Y-139677000D02*
X59316200Y-139977000D01*
G75*
G02*
X59090000Y-140203200I-226200J0D01*
G01*
X57340000Y-140203200D01*
G75*
G02*
X57113800Y-139977000I0J226200D01*
G01*
X57113800Y-139677000D01*
G75*
G02*
X57340000Y-139450800I226200J0D01*
G01*
X59090000Y-139450800D01*
G75*
G02*
X59316200Y-139677000I0J-226200D01*
G01*
G37*
G36*
G01*
X59316200Y-140947000D02*
X59316200Y-141247000D01*
G75*
G02*
X59090000Y-141473200I-226200J0D01*
G01*
X57340000Y-141473200D01*
G75*
G02*
X57113800Y-141247000I0J226200D01*
G01*
X57113800Y-140947000D01*
G75*
G02*
X57340000Y-140720800I226200J0D01*
G01*
X59090000Y-140720800D01*
G75*
G02*
X59316200Y-140947000I0J-226200D01*
G01*
G37*
G36*
X47614020Y-166543373D02*
G01*
X47587958Y-166498232D01*
X47586800Y-166485000D01*
X47586800Y-164985000D01*
X47604627Y-164936020D01*
X47649768Y-164909958D01*
X47663000Y-164908800D01*
X48163000Y-164908800D01*
X48177334Y-164914017D01*
X48244337Y-164915245D01*
X48265664Y-164918699D01*
X48400979Y-164960974D01*
X48420480Y-164970275D01*
X48538490Y-165048830D01*
X48554596Y-165063231D01*
X48645816Y-165171750D01*
X48657233Y-165190092D01*
X48714328Y-165319851D01*
X48720138Y-165340660D01*
X48737060Y-165470068D01*
X48738042Y-165471768D01*
X48739200Y-165485000D01*
X48739200Y-165985000D01*
X48738448Y-165987066D01*
X48738256Y-166002833D01*
X48716445Y-166142910D01*
X48710128Y-166163570D01*
X48649880Y-166291895D01*
X48638018Y-166309953D01*
X48544174Y-166416211D01*
X48527721Y-166430213D01*
X48407826Y-166505861D01*
X48388105Y-166514683D01*
X48251798Y-166553640D01*
X48230392Y-166556573D01*
X48182745Y-166556282D01*
X48176232Y-166560042D01*
X48163000Y-166561200D01*
X47663000Y-166561200D01*
X47614020Y-166543373D01*
G37*
G36*
X46848919Y-166556075D02*
G01*
X46788630Y-166555707D01*
X46767262Y-166552513D01*
X46631441Y-166511894D01*
X46611828Y-166502832D01*
X46492866Y-166425725D01*
X46476585Y-166411522D01*
X46384047Y-166304125D01*
X46372408Y-166285924D01*
X46313731Y-166156872D01*
X46307667Y-166136135D01*
X46287570Y-165995802D01*
X46286800Y-165985000D01*
X46286800Y-165485000D01*
X46286806Y-165484071D01*
X46286955Y-165471855D01*
X46288005Y-165460142D01*
X46311525Y-165320341D01*
X46318094Y-165299758D01*
X46379906Y-165172179D01*
X46391987Y-165154268D01*
X46487122Y-165049164D01*
X46503745Y-165035363D01*
X46624555Y-164961186D01*
X46644383Y-164952606D01*
X46781156Y-164915317D01*
X46802596Y-164912647D01*
X46843802Y-164913402D01*
X46849768Y-164909958D01*
X46863000Y-164908800D01*
X47363000Y-164908800D01*
X47411980Y-164926627D01*
X47438042Y-164971768D01*
X47439200Y-164985000D01*
X47439200Y-166485000D01*
X47421373Y-166533980D01*
X47376232Y-166560042D01*
X47363000Y-166561200D01*
X46863000Y-166561200D01*
X46848919Y-166556075D01*
G37*
G36*
G01*
X76603800Y-169868000D02*
X76603800Y-168968000D01*
G75*
G02*
X76930000Y-168641800I326200J0D01*
G01*
X77455000Y-168641800D01*
G75*
G02*
X77781200Y-168968000I0J-326200D01*
G01*
X77781200Y-169868000D01*
G75*
G02*
X77455000Y-170194200I-326200J0D01*
G01*
X76930000Y-170194200D01*
G75*
G02*
X76603800Y-169868000I0J326200D01*
G01*
G37*
G36*
G01*
X78428800Y-169868000D02*
X78428800Y-168968000D01*
G75*
G02*
X78755000Y-168641800I326200J0D01*
G01*
X79280000Y-168641800D01*
G75*
G02*
X79606200Y-168968000I0J-326200D01*
G01*
X79606200Y-169868000D01*
G75*
G02*
X79280000Y-170194200I-326200J0D01*
G01*
X78755000Y-170194200D01*
G75*
G02*
X78428800Y-169868000I0J326200D01*
G01*
G37*
G36*
G01*
X134876200Y-147861000D02*
X134876200Y-148811000D01*
G75*
G02*
X134550000Y-149137200I-326200J0D01*
G01*
X134050000Y-149137200D01*
G75*
G02*
X133723800Y-148811000I0J326200D01*
G01*
X133723800Y-147861000D01*
G75*
G02*
X134050000Y-147534800I326200J0D01*
G01*
X134550000Y-147534800D01*
G75*
G02*
X134876200Y-147861000I0J-326200D01*
G01*
G37*
G36*
G01*
X132976200Y-147861000D02*
X132976200Y-148811000D01*
G75*
G02*
X132650000Y-149137200I-326200J0D01*
G01*
X132150000Y-149137200D01*
G75*
G02*
X131823800Y-148811000I0J326200D01*
G01*
X131823800Y-147861000D01*
G75*
G02*
X132150000Y-147534800I326200J0D01*
G01*
X132650000Y-147534800D01*
G75*
G02*
X132976200Y-147861000I0J-326200D01*
G01*
G37*
G36*
G01*
X78102800Y-130142000D02*
X78102800Y-129192000D01*
G75*
G02*
X78429000Y-128865800I326200J0D01*
G01*
X78929000Y-128865800D01*
G75*
G02*
X79255200Y-129192000I0J-326200D01*
G01*
X79255200Y-130142000D01*
G75*
G02*
X78929000Y-130468200I-326200J0D01*
G01*
X78429000Y-130468200D01*
G75*
G02*
X78102800Y-130142000I0J326200D01*
G01*
G37*
G36*
G01*
X80002800Y-130142000D02*
X80002800Y-129192000D01*
G75*
G02*
X80329000Y-128865800I326200J0D01*
G01*
X80829000Y-128865800D01*
G75*
G02*
X81155200Y-129192000I0J-326200D01*
G01*
X81155200Y-130142000D01*
G75*
G02*
X80829000Y-130468200I-326200J0D01*
G01*
X80329000Y-130468200D01*
G75*
G02*
X80002800Y-130142000I0J326200D01*
G01*
G37*
G36*
G01*
X42395200Y-178620000D02*
X42395200Y-179520000D01*
G75*
G02*
X42069000Y-179846200I-326200J0D01*
G01*
X41544000Y-179846200D01*
G75*
G02*
X41217800Y-179520000I0J326200D01*
G01*
X41217800Y-178620000D01*
G75*
G02*
X41544000Y-178293800I326200J0D01*
G01*
X42069000Y-178293800D01*
G75*
G02*
X42395200Y-178620000I0J-326200D01*
G01*
G37*
G36*
G01*
X40570200Y-178620000D02*
X40570200Y-179520000D01*
G75*
G02*
X40244000Y-179846200I-326200J0D01*
G01*
X39719000Y-179846200D01*
G75*
G02*
X39392800Y-179520000I0J326200D01*
G01*
X39392800Y-178620000D01*
G75*
G02*
X39719000Y-178293800I326200J0D01*
G01*
X40244000Y-178293800D01*
G75*
G02*
X40570200Y-178620000I0J-326200D01*
G01*
G37*
G36*
G01*
X97177800Y-160470000D02*
X97177800Y-159570000D01*
G75*
G02*
X97504000Y-159243800I326200J0D01*
G01*
X98029000Y-159243800D01*
G75*
G02*
X98355200Y-159570000I0J-326200D01*
G01*
X98355200Y-160470000D01*
G75*
G02*
X98029000Y-160796200I-326200J0D01*
G01*
X97504000Y-160796200D01*
G75*
G02*
X97177800Y-160470000I0J326200D01*
G01*
G37*
G36*
G01*
X99002800Y-160470000D02*
X99002800Y-159570000D01*
G75*
G02*
X99329000Y-159243800I326200J0D01*
G01*
X99854000Y-159243800D01*
G75*
G02*
X100180200Y-159570000I0J-326200D01*
G01*
X100180200Y-160470000D01*
G75*
G02*
X99854000Y-160796200I-326200J0D01*
G01*
X99329000Y-160796200D01*
G75*
G02*
X99002800Y-160470000I0J326200D01*
G01*
G37*
G36*
G01*
X110975200Y-144330000D02*
X110975200Y-145230000D01*
G75*
G02*
X110649000Y-145556200I-326200J0D01*
G01*
X110124000Y-145556200D01*
G75*
G02*
X109797800Y-145230000I0J326200D01*
G01*
X109797800Y-144330000D01*
G75*
G02*
X110124000Y-144003800I326200J0D01*
G01*
X110649000Y-144003800D01*
G75*
G02*
X110975200Y-144330000I0J-326200D01*
G01*
G37*
G36*
G01*
X109150200Y-144330000D02*
X109150200Y-145230000D01*
G75*
G02*
X108824000Y-145556200I-326200J0D01*
G01*
X108299000Y-145556200D01*
G75*
G02*
X107972800Y-145230000I0J326200D01*
G01*
X107972800Y-144330000D01*
G75*
G02*
X108299000Y-144003800I326200J0D01*
G01*
X108824000Y-144003800D01*
G75*
G02*
X109150200Y-144330000I0J-326200D01*
G01*
G37*
G36*
G01*
X142555000Y-165151450D02*
X140655000Y-165151450D01*
G75*
G02*
X140578800Y-165075250I0J76200D01*
G01*
X140578800Y-163675250D01*
G75*
G02*
X140655000Y-163599050I76200J0D01*
G01*
X142555000Y-163599050D01*
G75*
G02*
X142631200Y-163675250I0J-76200D01*
G01*
X142631200Y-165075250D01*
G75*
G02*
X142555000Y-165151450I-76200J0D01*
G01*
G37*
G36*
G01*
X142555000Y-161851450D02*
X140655000Y-161851450D01*
G75*
G02*
X140578800Y-161775250I0J76200D01*
G01*
X140578800Y-160375250D01*
G75*
G02*
X140655000Y-160299050I76200J0D01*
G01*
X142555000Y-160299050D01*
G75*
G02*
X142631200Y-160375250I0J-76200D01*
G01*
X142631200Y-161775250D01*
G75*
G02*
X142555000Y-161851450I-76200J0D01*
G01*
G37*
G36*
G01*
X116690200Y-132646000D02*
X116690200Y-133546000D01*
G75*
G02*
X116364000Y-133872200I-326200J0D01*
G01*
X115839000Y-133872200D01*
G75*
G02*
X115512800Y-133546000I0J326200D01*
G01*
X115512800Y-132646000D01*
G75*
G02*
X115839000Y-132319800I326200J0D01*
G01*
X116364000Y-132319800D01*
G75*
G02*
X116690200Y-132646000I0J-326200D01*
G01*
G37*
G36*
G01*
X114865200Y-132646000D02*
X114865200Y-133546000D01*
G75*
G02*
X114539000Y-133872200I-326200J0D01*
G01*
X114014000Y-133872200D01*
G75*
G02*
X113687800Y-133546000I0J326200D01*
G01*
X113687800Y-132646000D01*
G75*
G02*
X114014000Y-132319800I326200J0D01*
G01*
X114539000Y-132319800D01*
G75*
G02*
X114865200Y-132646000I0J-326200D01*
G01*
G37*
G36*
G01*
X123929200Y-135948000D02*
X123929200Y-136848000D01*
G75*
G02*
X123603000Y-137174200I-326200J0D01*
G01*
X123078000Y-137174200D01*
G75*
G02*
X122751800Y-136848000I0J326200D01*
G01*
X122751800Y-135948000D01*
G75*
G02*
X123078000Y-135621800I326200J0D01*
G01*
X123603000Y-135621800D01*
G75*
G02*
X123929200Y-135948000I0J-326200D01*
G01*
G37*
G36*
G01*
X122104200Y-135948000D02*
X122104200Y-136848000D01*
G75*
G02*
X121778000Y-137174200I-326200J0D01*
G01*
X121253000Y-137174200D01*
G75*
G02*
X120926800Y-136848000I0J326200D01*
G01*
X120926800Y-135948000D01*
G75*
G02*
X121253000Y-135621800I326200J0D01*
G01*
X121778000Y-135621800D01*
G75*
G02*
X122104200Y-135948000I0J-326200D01*
G01*
G37*
G36*
G01*
X42395200Y-165285000D02*
X42395200Y-166185000D01*
G75*
G02*
X42069000Y-166511200I-326200J0D01*
G01*
X41544000Y-166511200D01*
G75*
G02*
X41217800Y-166185000I0J326200D01*
G01*
X41217800Y-165285000D01*
G75*
G02*
X41544000Y-164958800I326200J0D01*
G01*
X42069000Y-164958800D01*
G75*
G02*
X42395200Y-165285000I0J-326200D01*
G01*
G37*
G36*
G01*
X40570200Y-165285000D02*
X40570200Y-166185000D01*
G75*
G02*
X40244000Y-166511200I-326200J0D01*
G01*
X39719000Y-166511200D01*
G75*
G02*
X39392800Y-166185000I0J326200D01*
G01*
X39392800Y-165285000D01*
G75*
G02*
X39719000Y-164958800I326200J0D01*
G01*
X40244000Y-164958800D01*
G75*
G02*
X40570200Y-165285000I0J-326200D01*
G01*
G37*
G36*
G01*
X87167200Y-120537000D02*
X87167200Y-121737000D01*
G75*
G02*
X86891000Y-122013200I-276200J0D01*
G01*
X86491000Y-122013200D01*
G75*
G02*
X86214800Y-121737000I0J276200D01*
G01*
X86214800Y-120537000D01*
G75*
G02*
X86491000Y-120260800I276200J0D01*
G01*
X86891000Y-120260800D01*
G75*
G02*
X87167200Y-120537000I0J-276200D01*
G01*
G37*
G36*
G01*
X85917200Y-120537000D02*
X85917200Y-121737000D01*
G75*
G02*
X85641000Y-122013200I-276200J0D01*
G01*
X85241000Y-122013200D01*
G75*
G02*
X84964800Y-121737000I0J276200D01*
G01*
X84964800Y-120537000D01*
G75*
G02*
X85241000Y-120260800I276200J0D01*
G01*
X85641000Y-120260800D01*
G75*
G02*
X85917200Y-120537000I0J-276200D01*
G01*
G37*
G36*
G01*
X84667200Y-120537000D02*
X84667200Y-121737000D01*
G75*
G02*
X84391000Y-122013200I-276200J0D01*
G01*
X83991000Y-122013200D01*
G75*
G02*
X83714800Y-121737000I0J276200D01*
G01*
X83714800Y-120537000D01*
G75*
G02*
X83991000Y-120260800I276200J0D01*
G01*
X84391000Y-120260800D01*
G75*
G02*
X84667200Y-120537000I0J-276200D01*
G01*
G37*
G36*
G01*
X83417200Y-120537000D02*
X83417200Y-121737000D01*
G75*
G02*
X83141000Y-122013200I-276200J0D01*
G01*
X82741000Y-122013200D01*
G75*
G02*
X82464800Y-121737000I0J276200D01*
G01*
X82464800Y-120537000D01*
G75*
G02*
X82741000Y-120260800I276200J0D01*
G01*
X83141000Y-120260800D01*
G75*
G02*
X83417200Y-120537000I0J-276200D01*
G01*
G37*
G36*
G01*
X90367200Y-116987001D02*
X90367200Y-119486999D01*
G75*
G02*
X90040999Y-119813200I-326201J0D01*
G01*
X88441001Y-119813200D01*
G75*
G02*
X88114800Y-119486999I0J326201D01*
G01*
X88114800Y-116987001D01*
G75*
G02*
X88441001Y-116660800I326201J0D01*
G01*
X90040999Y-116660800D01*
G75*
G02*
X90367200Y-116987001I0J-326201D01*
G01*
G37*
G36*
G01*
X81517200Y-116987001D02*
X81517200Y-119486999D01*
G75*
G02*
X81190999Y-119813200I-326201J0D01*
G01*
X79591001Y-119813200D01*
G75*
G02*
X79264800Y-119486999I0J326201D01*
G01*
X79264800Y-116987001D01*
G75*
G02*
X79591001Y-116660800I326201J0D01*
G01*
X81190999Y-116660800D01*
G75*
G02*
X81517200Y-116987001I0J-326201D01*
G01*
G37*
G36*
G01*
X110975200Y-149156000D02*
X110975200Y-150056000D01*
G75*
G02*
X110649000Y-150382200I-326200J0D01*
G01*
X110124000Y-150382200D01*
G75*
G02*
X109797800Y-150056000I0J326200D01*
G01*
X109797800Y-149156000D01*
G75*
G02*
X110124000Y-148829800I326200J0D01*
G01*
X110649000Y-148829800D01*
G75*
G02*
X110975200Y-149156000I0J-326200D01*
G01*
G37*
G36*
G01*
X109150200Y-149156000D02*
X109150200Y-150056000D01*
G75*
G02*
X108824000Y-150382200I-326200J0D01*
G01*
X108299000Y-150382200D01*
G75*
G02*
X107972800Y-150056000I0J326200D01*
G01*
X107972800Y-149156000D01*
G75*
G02*
X108299000Y-148829800I326200J0D01*
G01*
X108824000Y-148829800D01*
G75*
G02*
X109150200Y-149156000I0J-326200D01*
G01*
G37*
G36*
G01*
X134876200Y-151163000D02*
X134876200Y-152113000D01*
G75*
G02*
X134550000Y-152439200I-326200J0D01*
G01*
X134050000Y-152439200D01*
G75*
G02*
X133723800Y-152113000I0J326200D01*
G01*
X133723800Y-151163000D01*
G75*
G02*
X134050000Y-150836800I326200J0D01*
G01*
X134550000Y-150836800D01*
G75*
G02*
X134876200Y-151163000I0J-326200D01*
G01*
G37*
G36*
G01*
X132976200Y-151163000D02*
X132976200Y-152113000D01*
G75*
G02*
X132650000Y-152439200I-326200J0D01*
G01*
X132150000Y-152439200D01*
G75*
G02*
X131823800Y-152113000I0J326200D01*
G01*
X131823800Y-151163000D01*
G75*
G02*
X132150000Y-150836800I326200J0D01*
G01*
X132650000Y-150836800D01*
G75*
G02*
X132976200Y-151163000I0J-326200D01*
G01*
G37*
G36*
G01*
X79631200Y-164879000D02*
X79631200Y-165829000D01*
G75*
G02*
X79305000Y-166155200I-326200J0D01*
G01*
X78805000Y-166155200D01*
G75*
G02*
X78478800Y-165829000I0J326200D01*
G01*
X78478800Y-164879000D01*
G75*
G02*
X78805000Y-164552800I326200J0D01*
G01*
X79305000Y-164552800D01*
G75*
G02*
X79631200Y-164879000I0J-326200D01*
G01*
G37*
G36*
G01*
X77731200Y-164879000D02*
X77731200Y-165829000D01*
G75*
G02*
X77405000Y-166155200I-326200J0D01*
G01*
X76905000Y-166155200D01*
G75*
G02*
X76578800Y-165829000I0J326200D01*
G01*
X76578800Y-164879000D01*
G75*
G02*
X76905000Y-164552800I326200J0D01*
G01*
X77405000Y-164552800D01*
G75*
G02*
X77731200Y-164879000I0J-326200D01*
G01*
G37*
G36*
X47614020Y-162987373D02*
G01*
X47587958Y-162942232D01*
X47586800Y-162929000D01*
X47586800Y-161429000D01*
X47604627Y-161380020D01*
X47649768Y-161353958D01*
X47663000Y-161352800D01*
X48163000Y-161352800D01*
X48177334Y-161358017D01*
X48244337Y-161359245D01*
X48265664Y-161362699D01*
X48400979Y-161404974D01*
X48420480Y-161414275D01*
X48538490Y-161492830D01*
X48554596Y-161507231D01*
X48645816Y-161615750D01*
X48657233Y-161634092D01*
X48714328Y-161763851D01*
X48720138Y-161784660D01*
X48737060Y-161914068D01*
X48738042Y-161915768D01*
X48739200Y-161929000D01*
X48739200Y-162429000D01*
X48738448Y-162431066D01*
X48738256Y-162446833D01*
X48716445Y-162586910D01*
X48710128Y-162607570D01*
X48649880Y-162735895D01*
X48638018Y-162753953D01*
X48544174Y-162860211D01*
X48527721Y-162874213D01*
X48407826Y-162949861D01*
X48388105Y-162958683D01*
X48251798Y-162997640D01*
X48230392Y-163000573D01*
X48182745Y-163000282D01*
X48176232Y-163004042D01*
X48163000Y-163005200D01*
X47663000Y-163005200D01*
X47614020Y-162987373D01*
G37*
G36*
X46848919Y-163000075D02*
G01*
X46788630Y-162999707D01*
X46767262Y-162996513D01*
X46631441Y-162955894D01*
X46611828Y-162946832D01*
X46492866Y-162869725D01*
X46476585Y-162855522D01*
X46384047Y-162748125D01*
X46372408Y-162729924D01*
X46313731Y-162600872D01*
X46307667Y-162580135D01*
X46287570Y-162439802D01*
X46286800Y-162429000D01*
X46286800Y-161929000D01*
X46286806Y-161928071D01*
X46286955Y-161915855D01*
X46288005Y-161904142D01*
X46311525Y-161764341D01*
X46318094Y-161743758D01*
X46379906Y-161616179D01*
X46391987Y-161598268D01*
X46487122Y-161493164D01*
X46503745Y-161479363D01*
X46624555Y-161405186D01*
X46644383Y-161396606D01*
X46781156Y-161359317D01*
X46802596Y-161356647D01*
X46843802Y-161357402D01*
X46849768Y-161353958D01*
X46863000Y-161352800D01*
X47363000Y-161352800D01*
X47411980Y-161370627D01*
X47438042Y-161415768D01*
X47439200Y-161429000D01*
X47439200Y-162929000D01*
X47421373Y-162977980D01*
X47376232Y-163004042D01*
X47363000Y-163005200D01*
X46863000Y-163005200D01*
X46848919Y-163000075D01*
G37*
G36*
G01*
X119382200Y-135923000D02*
X119382200Y-136873000D01*
G75*
G02*
X119056000Y-137199200I-326200J0D01*
G01*
X118556000Y-137199200D01*
G75*
G02*
X118229800Y-136873000I0J326200D01*
G01*
X118229800Y-135923000D01*
G75*
G02*
X118556000Y-135596800I326200J0D01*
G01*
X119056000Y-135596800D01*
G75*
G02*
X119382200Y-135923000I0J-326200D01*
G01*
G37*
G36*
G01*
X117482200Y-135923000D02*
X117482200Y-136873000D01*
G75*
G02*
X117156000Y-137199200I-326200J0D01*
G01*
X116656000Y-137199200D01*
G75*
G02*
X116329800Y-136873000I0J326200D01*
G01*
X116329800Y-135923000D01*
G75*
G02*
X116656000Y-135596800I326200J0D01*
G01*
X117156000Y-135596800D01*
G75*
G02*
X117482200Y-135923000I0J-326200D01*
G01*
G37*
G36*
G01*
X79444000Y-175745200D02*
X78544000Y-175745200D01*
G75*
G02*
X78217800Y-175419000I0J326200D01*
G01*
X78217800Y-174894000D01*
G75*
G02*
X78544000Y-174567800I326200J0D01*
G01*
X79444000Y-174567800D01*
G75*
G02*
X79770200Y-174894000I0J-326200D01*
G01*
X79770200Y-175419000D01*
G75*
G02*
X79444000Y-175745200I-326200J0D01*
G01*
G37*
G36*
G01*
X79444000Y-173920200D02*
X78544000Y-173920200D01*
G75*
G02*
X78217800Y-173594000I0J326200D01*
G01*
X78217800Y-173069000D01*
G75*
G02*
X78544000Y-172742800I326200J0D01*
G01*
X79444000Y-172742800D01*
G75*
G02*
X79770200Y-173069000I0J-326200D01*
G01*
X79770200Y-173594000D01*
G75*
G02*
X79444000Y-173920200I-326200J0D01*
G01*
G37*
G36*
G01*
X84526300Y-140283250D02*
X84526300Y-139370750D01*
G75*
G02*
X84846250Y-139050800I319950J0D01*
G01*
X85333750Y-139050800D01*
G75*
G02*
X85653700Y-139370750I0J-319950D01*
G01*
X85653700Y-140283250D01*
G75*
G02*
X85333750Y-140603200I-319950J0D01*
G01*
X84846250Y-140603200D01*
G75*
G02*
X84526300Y-140283250I0J319950D01*
G01*
G37*
G36*
G01*
X86401300Y-140283250D02*
X86401300Y-139370750D01*
G75*
G02*
X86721250Y-139050800I319950J0D01*
G01*
X87208750Y-139050800D01*
G75*
G02*
X87528700Y-139370750I0J-319950D01*
G01*
X87528700Y-140283250D01*
G75*
G02*
X87208750Y-140603200I-319950J0D01*
G01*
X86721250Y-140603200D01*
G75*
G02*
X86401300Y-140283250I0J319950D01*
G01*
G37*
G36*
X47614020Y-173274373D02*
G01*
X47587958Y-173229232D01*
X47586800Y-173216000D01*
X47586800Y-171716000D01*
X47604627Y-171667020D01*
X47649768Y-171640958D01*
X47663000Y-171639800D01*
X48163000Y-171639800D01*
X48177334Y-171645017D01*
X48244337Y-171646245D01*
X48265664Y-171649699D01*
X48400979Y-171691974D01*
X48420480Y-171701275D01*
X48538490Y-171779830D01*
X48554596Y-171794231D01*
X48645816Y-171902750D01*
X48657233Y-171921092D01*
X48714328Y-172050851D01*
X48720138Y-172071660D01*
X48737060Y-172201068D01*
X48738042Y-172202768D01*
X48739200Y-172216000D01*
X48739200Y-172716000D01*
X48738448Y-172718066D01*
X48738256Y-172733833D01*
X48716445Y-172873910D01*
X48710128Y-172894570D01*
X48649880Y-173022895D01*
X48638018Y-173040953D01*
X48544174Y-173147211D01*
X48527721Y-173161213D01*
X48407826Y-173236861D01*
X48388105Y-173245683D01*
X48251798Y-173284640D01*
X48230392Y-173287573D01*
X48182745Y-173287282D01*
X48176232Y-173291042D01*
X48163000Y-173292200D01*
X47663000Y-173292200D01*
X47614020Y-173274373D01*
G37*
G36*
X46848919Y-173287075D02*
G01*
X46788630Y-173286707D01*
X46767262Y-173283513D01*
X46631441Y-173242894D01*
X46611828Y-173233832D01*
X46492866Y-173156725D01*
X46476585Y-173142522D01*
X46384047Y-173035125D01*
X46372408Y-173016924D01*
X46313731Y-172887872D01*
X46307667Y-172867135D01*
X46287570Y-172726802D01*
X46286800Y-172716000D01*
X46286800Y-172216000D01*
X46286806Y-172215071D01*
X46286955Y-172202855D01*
X46288005Y-172191142D01*
X46311525Y-172051341D01*
X46318094Y-172030758D01*
X46379906Y-171903179D01*
X46391987Y-171885268D01*
X46487122Y-171780164D01*
X46503745Y-171766363D01*
X46624555Y-171692186D01*
X46644383Y-171683606D01*
X46781156Y-171646317D01*
X46802596Y-171643647D01*
X46843802Y-171644402D01*
X46849768Y-171640958D01*
X46863000Y-171639800D01*
X47363000Y-171639800D01*
X47411980Y-171657627D01*
X47438042Y-171702768D01*
X47439200Y-171716000D01*
X47439200Y-173216000D01*
X47421373Y-173264980D01*
X47376232Y-173291042D01*
X47363000Y-173292200D01*
X46863000Y-173292200D01*
X46848919Y-173287075D01*
G37*
G36*
G01*
X70879200Y-177739000D02*
X70879200Y-179639000D01*
G75*
G02*
X70803000Y-179715200I-76200J0D01*
G01*
X69403000Y-179715200D01*
G75*
G02*
X69326800Y-179639000I0J76200D01*
G01*
X69326800Y-177739000D01*
G75*
G02*
X69403000Y-177662800I76200J0D01*
G01*
X70803000Y-177662800D01*
G75*
G02*
X70879200Y-177739000I0J-76200D01*
G01*
G37*
G36*
G01*
X67579200Y-177739000D02*
X67579200Y-179639000D01*
G75*
G02*
X67503000Y-179715200I-76200J0D01*
G01*
X66103000Y-179715200D01*
G75*
G02*
X66026800Y-179639000I0J76200D01*
G01*
X66026800Y-177739000D01*
G75*
G02*
X66103000Y-177662800I76200J0D01*
G01*
X67503000Y-177662800D01*
G75*
G02*
X67579200Y-177739000I0J-76200D01*
G01*
G37*
G36*
G01*
X110975200Y-136837000D02*
X110975200Y-137737000D01*
G75*
G02*
X110649000Y-138063200I-326200J0D01*
G01*
X110124000Y-138063200D01*
G75*
G02*
X109797800Y-137737000I0J326200D01*
G01*
X109797800Y-136837000D01*
G75*
G02*
X110124000Y-136510800I326200J0D01*
G01*
X110649000Y-136510800D01*
G75*
G02*
X110975200Y-136837000I0J-326200D01*
G01*
G37*
G36*
G01*
X109150200Y-136837000D02*
X109150200Y-137737000D01*
G75*
G02*
X108824000Y-138063200I-326200J0D01*
G01*
X108299000Y-138063200D01*
G75*
G02*
X107972800Y-137737000I0J326200D01*
G01*
X107972800Y-136837000D01*
G75*
G02*
X108299000Y-136510800I326200J0D01*
G01*
X108824000Y-136510800D01*
G75*
G02*
X109150200Y-136837000I0J-326200D01*
G01*
G37*
G36*
G01*
X119504800Y-162908000D02*
X119504800Y-161958000D01*
G75*
G02*
X119831000Y-161631800I326200J0D01*
G01*
X120331000Y-161631800D01*
G75*
G02*
X120657200Y-161958000I0J-326200D01*
G01*
X120657200Y-162908000D01*
G75*
G02*
X120331000Y-163234200I-326200J0D01*
G01*
X119831000Y-163234200D01*
G75*
G02*
X119504800Y-162908000I0J326200D01*
G01*
G37*
G36*
G01*
X121404800Y-162908000D02*
X121404800Y-161958000D01*
G75*
G02*
X121731000Y-161631800I326200J0D01*
G01*
X122231000Y-161631800D01*
G75*
G02*
X122557200Y-161958000I0J-326200D01*
G01*
X122557200Y-162908000D01*
G75*
G02*
X122231000Y-163234200I-326200J0D01*
G01*
X121731000Y-163234200D01*
G75*
G02*
X121404800Y-162908000I0J326200D01*
G01*
G37*
G36*
G01*
X66026800Y-183068000D02*
X66026800Y-181168000D01*
G75*
G02*
X66103000Y-181091800I76200J0D01*
G01*
X67503000Y-181091800D01*
G75*
G02*
X67579200Y-181168000I0J-76200D01*
G01*
X67579200Y-183068000D01*
G75*
G02*
X67503000Y-183144200I-76200J0D01*
G01*
X66103000Y-183144200D01*
G75*
G02*
X66026800Y-183068000I0J76200D01*
G01*
G37*
G36*
G01*
X69326800Y-183068000D02*
X69326800Y-181168000D01*
G75*
G02*
X69403000Y-181091800I76200J0D01*
G01*
X70803000Y-181091800D01*
G75*
G02*
X70879200Y-181168000I0J-76200D01*
G01*
X70879200Y-183068000D01*
G75*
G02*
X70803000Y-183144200I-76200J0D01*
G01*
X69403000Y-183144200D01*
G75*
G02*
X69326800Y-183068000I0J76200D01*
G01*
G37*
G36*
G01*
X139272700Y-144584000D02*
X139272700Y-145484000D01*
G75*
G02*
X138946500Y-145810200I-326200J0D01*
G01*
X138421500Y-145810200D01*
G75*
G02*
X138095300Y-145484000I0J326200D01*
G01*
X138095300Y-144584000D01*
G75*
G02*
X138421500Y-144257800I326200J0D01*
G01*
X138946500Y-144257800D01*
G75*
G02*
X139272700Y-144584000I0J-326200D01*
G01*
G37*
G36*
G01*
X137447700Y-144584000D02*
X137447700Y-145484000D01*
G75*
G02*
X137121500Y-145810200I-326200J0D01*
G01*
X136596500Y-145810200D01*
G75*
G02*
X136270300Y-145484000I0J326200D01*
G01*
X136270300Y-144584000D01*
G75*
G02*
X136596500Y-144257800I326200J0D01*
G01*
X137121500Y-144257800D01*
G75*
G02*
X137447700Y-144584000I0J-326200D01*
G01*
G37*
G36*
G01*
X42395200Y-161729000D02*
X42395200Y-162629000D01*
G75*
G02*
X42069000Y-162955200I-326200J0D01*
G01*
X41544000Y-162955200D01*
G75*
G02*
X41217800Y-162629000I0J326200D01*
G01*
X41217800Y-161729000D01*
G75*
G02*
X41544000Y-161402800I326200J0D01*
G01*
X42069000Y-161402800D01*
G75*
G02*
X42395200Y-161729000I0J-326200D01*
G01*
G37*
G36*
G01*
X40570200Y-161729000D02*
X40570200Y-162629000D01*
G75*
G02*
X40244000Y-162955200I-326200J0D01*
G01*
X39719000Y-162955200D01*
G75*
G02*
X39392800Y-162629000I0J326200D01*
G01*
X39392800Y-161729000D01*
G75*
G02*
X39719000Y-161402800I326200J0D01*
G01*
X40244000Y-161402800D01*
G75*
G02*
X40570200Y-161729000I0J-326200D01*
G01*
G37*
G36*
G01*
X101040250Y-173713200D02*
X100127750Y-173713200D01*
G75*
G02*
X99807800Y-173393250I0J319950D01*
G01*
X99807800Y-172905750D01*
G75*
G02*
X100127750Y-172585800I319950J0D01*
G01*
X101040250Y-172585800D01*
G75*
G02*
X101360200Y-172905750I0J-319950D01*
G01*
X101360200Y-173393250D01*
G75*
G02*
X101040250Y-173713200I-319950J0D01*
G01*
G37*
G36*
G01*
X101040250Y-171838200D02*
X100127750Y-171838200D01*
G75*
G02*
X99807800Y-171518250I0J319950D01*
G01*
X99807800Y-171030750D01*
G75*
G02*
X100127750Y-170710800I319950J0D01*
G01*
X101040250Y-170710800D01*
G75*
G02*
X101360200Y-171030750I0J-319950D01*
G01*
X101360200Y-171518250D01*
G75*
G02*
X101040250Y-171838200I-319950J0D01*
G01*
G37*
G36*
G01*
X118947250Y-173713200D02*
X118034750Y-173713200D01*
G75*
G02*
X117714800Y-173393250I0J319950D01*
G01*
X117714800Y-172905750D01*
G75*
G02*
X118034750Y-172585800I319950J0D01*
G01*
X118947250Y-172585800D01*
G75*
G02*
X119267200Y-172905750I0J-319950D01*
G01*
X119267200Y-173393250D01*
G75*
G02*
X118947250Y-173713200I-319950J0D01*
G01*
G37*
G36*
G01*
X118947250Y-171838200D02*
X118034750Y-171838200D01*
G75*
G02*
X117714800Y-171518250I0J319950D01*
G01*
X117714800Y-171030750D01*
G75*
G02*
X118034750Y-170710800I319950J0D01*
G01*
X118947250Y-170710800D01*
G75*
G02*
X119267200Y-171030750I0J-319950D01*
G01*
X119267200Y-171518250D01*
G75*
G02*
X118947250Y-171838200I-319950J0D01*
G01*
G37*
G36*
G01*
X61211800Y-144366000D02*
X61211800Y-143416000D01*
G75*
G02*
X61538000Y-143089800I326200J0D01*
G01*
X62038000Y-143089800D01*
G75*
G02*
X62364200Y-143416000I0J-326200D01*
G01*
X62364200Y-144366000D01*
G75*
G02*
X62038000Y-144692200I-326200J0D01*
G01*
X61538000Y-144692200D01*
G75*
G02*
X61211800Y-144366000I0J326200D01*
G01*
G37*
G36*
G01*
X63111800Y-144366000D02*
X63111800Y-143416000D01*
G75*
G02*
X63438000Y-143089800I326200J0D01*
G01*
X63938000Y-143089800D01*
G75*
G02*
X64264200Y-143416000I0J-326200D01*
G01*
X64264200Y-144366000D01*
G75*
G02*
X63938000Y-144692200I-326200J0D01*
G01*
X63438000Y-144692200D01*
G75*
G02*
X63111800Y-144366000I0J326200D01*
G01*
G37*
G36*
G01*
X72285800Y-169868000D02*
X72285800Y-168968000D01*
G75*
G02*
X72612000Y-168641800I326200J0D01*
G01*
X73137000Y-168641800D01*
G75*
G02*
X73463200Y-168968000I0J-326200D01*
G01*
X73463200Y-169868000D01*
G75*
G02*
X73137000Y-170194200I-326200J0D01*
G01*
X72612000Y-170194200D01*
G75*
G02*
X72285800Y-169868000I0J326200D01*
G01*
G37*
G36*
G01*
X74110800Y-169868000D02*
X74110800Y-168968000D01*
G75*
G02*
X74437000Y-168641800I326200J0D01*
G01*
X74962000Y-168641800D01*
G75*
G02*
X75288200Y-168968000I0J-326200D01*
G01*
X75288200Y-169868000D01*
G75*
G02*
X74962000Y-170194200I-326200J0D01*
G01*
X74437000Y-170194200D01*
G75*
G02*
X74110800Y-169868000I0J326200D01*
G01*
G37*
G36*
G01*
X114502250Y-173713200D02*
X113589750Y-173713200D01*
G75*
G02*
X113269800Y-173393250I0J319950D01*
G01*
X113269800Y-172905750D01*
G75*
G02*
X113589750Y-172585800I319950J0D01*
G01*
X114502250Y-172585800D01*
G75*
G02*
X114822200Y-172905750I0J-319950D01*
G01*
X114822200Y-173393250D01*
G75*
G02*
X114502250Y-173713200I-319950J0D01*
G01*
G37*
G36*
G01*
X114502250Y-171838200D02*
X113589750Y-171838200D01*
G75*
G02*
X113269800Y-171518250I0J319950D01*
G01*
X113269800Y-171030750D01*
G75*
G02*
X113589750Y-170710800I319950J0D01*
G01*
X114502250Y-170710800D01*
G75*
G02*
X114822200Y-171030750I0J-319950D01*
G01*
X114822200Y-171518250D01*
G75*
G02*
X114502250Y-171838200I-319950J0D01*
G01*
G37*
D14*
X138902500Y-123932750D03*
X127472500Y-123932750D03*
G36*
G01*
X138458700Y-129532750D02*
X138458700Y-131032750D01*
G75*
G02*
X138382500Y-131108950I-76200J0D01*
G01*
X136882500Y-131108950D01*
G75*
G02*
X136806300Y-131032750I0J76200D01*
G01*
X136806300Y-129532750D01*
G75*
G02*
X136882500Y-129456550I76200J0D01*
G01*
X138382500Y-129456550D01*
G75*
G02*
X138458700Y-129532750I0J-76200D01*
G01*
G37*
D15*
X136362500Y-132822750D03*
X135092500Y-130282750D03*
X133822500Y-132822750D03*
X132552500Y-130282750D03*
X131282500Y-132822750D03*
X130012500Y-130282750D03*
X128742500Y-132822750D03*
G36*
G01*
X94732000Y-148211000D02*
X94732000Y-149315000D01*
G75*
G02*
X94492000Y-149555000I-240000J0D01*
G01*
X92668000Y-149555000D01*
G75*
G02*
X92428000Y-149315000I0J240000D01*
G01*
X92428000Y-148211000D01*
G75*
G02*
X92668000Y-147971000I240000J0D01*
G01*
X94492000Y-147971000D01*
G75*
G02*
X94732000Y-148211000I0J-240000D01*
G01*
G37*
G36*
G01*
X103832000Y-148211000D02*
X103832000Y-149315000D01*
G75*
G02*
X103592000Y-149555000I-240000J0D01*
G01*
X101768000Y-149555000D01*
G75*
G02*
X101528000Y-149315000I0J240000D01*
G01*
X101528000Y-148211000D01*
G75*
G02*
X101768000Y-147971000I240000J0D01*
G01*
X103592000Y-147971000D01*
G75*
G02*
X103832000Y-148211000I0J-240000D01*
G01*
G37*
G36*
G01*
X94732000Y-152691000D02*
X94732000Y-153795000D01*
G75*
G02*
X94492000Y-154035000I-240000J0D01*
G01*
X92668000Y-154035000D01*
G75*
G02*
X92428000Y-153795000I0J240000D01*
G01*
X92428000Y-152691000D01*
G75*
G02*
X92668000Y-152451000I240000J0D01*
G01*
X94492000Y-152451000D01*
G75*
G02*
X94732000Y-152691000I0J-240000D01*
G01*
G37*
G36*
G01*
X103832000Y-152691000D02*
X103832000Y-153795000D01*
G75*
G02*
X103592000Y-154035000I-240000J0D01*
G01*
X101768000Y-154035000D01*
G75*
G02*
X101528000Y-153795000I0J240000D01*
G01*
X101528000Y-152691000D01*
G75*
G02*
X101768000Y-152451000I240000J0D01*
G01*
X103592000Y-152451000D01*
G75*
G02*
X103832000Y-152691000I0J-240000D01*
G01*
G37*
G36*
X47599020Y-139111373D02*
G01*
X47572958Y-139066232D01*
X47571800Y-139053000D01*
X47571800Y-137553000D01*
X47589627Y-137504020D01*
X47634768Y-137477958D01*
X47648000Y-137476800D01*
X48148000Y-137476800D01*
X48162334Y-137482017D01*
X48229337Y-137483245D01*
X48250664Y-137486699D01*
X48385979Y-137528974D01*
X48405480Y-137538275D01*
X48523490Y-137616830D01*
X48539596Y-137631231D01*
X48630816Y-137739750D01*
X48642233Y-137758092D01*
X48699328Y-137887851D01*
X48705138Y-137908660D01*
X48722060Y-138038068D01*
X48723042Y-138039768D01*
X48724200Y-138053000D01*
X48724200Y-138553000D01*
X48723448Y-138555066D01*
X48723256Y-138570833D01*
X48701445Y-138710910D01*
X48695128Y-138731570D01*
X48634880Y-138859895D01*
X48623018Y-138877953D01*
X48529174Y-138984211D01*
X48512721Y-138998213D01*
X48392826Y-139073861D01*
X48373105Y-139082683D01*
X48236798Y-139121640D01*
X48215392Y-139124573D01*
X48167745Y-139124282D01*
X48161232Y-139128042D01*
X48148000Y-139129200D01*
X47648000Y-139129200D01*
X47599020Y-139111373D01*
G37*
G36*
X46833919Y-139124075D02*
G01*
X46773630Y-139123707D01*
X46752262Y-139120513D01*
X46616441Y-139079894D01*
X46596828Y-139070832D01*
X46477866Y-138993725D01*
X46461585Y-138979522D01*
X46369047Y-138872125D01*
X46357408Y-138853924D01*
X46298731Y-138724872D01*
X46292667Y-138704135D01*
X46272570Y-138563802D01*
X46271800Y-138553000D01*
X46271800Y-138053000D01*
X46271806Y-138052071D01*
X46271955Y-138039855D01*
X46273005Y-138028142D01*
X46296525Y-137888341D01*
X46303094Y-137867758D01*
X46364906Y-137740179D01*
X46376987Y-137722268D01*
X46472122Y-137617164D01*
X46488745Y-137603363D01*
X46609555Y-137529186D01*
X46629383Y-137520606D01*
X46766156Y-137483317D01*
X46787596Y-137480647D01*
X46828802Y-137481402D01*
X46834768Y-137477958D01*
X46848000Y-137476800D01*
X47348000Y-137476800D01*
X47396980Y-137494627D01*
X47423042Y-137539768D01*
X47424200Y-137553000D01*
X47424200Y-139053000D01*
X47406373Y-139101980D01*
X47361232Y-139128042D01*
X47348000Y-139129200D01*
X46848000Y-139129200D01*
X46833919Y-139124075D01*
G37*
G36*
G01*
X147596000Y-155419200D02*
X146346000Y-155419200D01*
G75*
G02*
X146119800Y-155193000I0J226200D01*
G01*
X146119800Y-154893000D01*
G75*
G02*
X146346000Y-154666800I226200J0D01*
G01*
X147596000Y-154666800D01*
G75*
G02*
X147822200Y-154893000I0J-226200D01*
G01*
X147822200Y-155193000D01*
G75*
G02*
X147596000Y-155419200I-226200J0D01*
G01*
G37*
G36*
G01*
X147596000Y-154419200D02*
X146346000Y-154419200D01*
G75*
G02*
X146119800Y-154193000I0J226200D01*
G01*
X146119800Y-153893000D01*
G75*
G02*
X146346000Y-153666800I226200J0D01*
G01*
X147596000Y-153666800D01*
G75*
G02*
X147822200Y-153893000I0J-226200D01*
G01*
X147822200Y-154193000D01*
G75*
G02*
X147596000Y-154419200I-226200J0D01*
G01*
G37*
G36*
G01*
X147596000Y-153419200D02*
X146346000Y-153419200D01*
G75*
G02*
X146119800Y-153193000I0J226200D01*
G01*
X146119800Y-152893000D01*
G75*
G02*
X146346000Y-152666800I226200J0D01*
G01*
X147596000Y-152666800D01*
G75*
G02*
X147822200Y-152893000I0J-226200D01*
G01*
X147822200Y-153193000D01*
G75*
G02*
X147596000Y-153419200I-226200J0D01*
G01*
G37*
G36*
G01*
X147596000Y-152419200D02*
X146346000Y-152419200D01*
G75*
G02*
X146119800Y-152193000I0J226200D01*
G01*
X146119800Y-151893000D01*
G75*
G02*
X146346000Y-151666800I226200J0D01*
G01*
X147596000Y-151666800D01*
G75*
G02*
X147822200Y-151893000I0J-226200D01*
G01*
X147822200Y-152193000D01*
G75*
G02*
X147596000Y-152419200I-226200J0D01*
G01*
G37*
G36*
G01*
X151496000Y-151419200D02*
X150196000Y-151419200D01*
G75*
G02*
X149869800Y-151093000I0J326200D01*
G01*
X149869800Y-150393000D01*
G75*
G02*
X150196000Y-150066800I326200J0D01*
G01*
X151496000Y-150066800D01*
G75*
G02*
X151822200Y-150393000I0J-326200D01*
G01*
X151822200Y-151093000D01*
G75*
G02*
X151496000Y-151419200I-326200J0D01*
G01*
G37*
G36*
G01*
X151496000Y-157019200D02*
X150196000Y-157019200D01*
G75*
G02*
X149869800Y-156693000I0J326200D01*
G01*
X149869800Y-155993000D01*
G75*
G02*
X150196000Y-155666800I326200J0D01*
G01*
X151496000Y-155666800D01*
G75*
G02*
X151822200Y-155993000I0J-326200D01*
G01*
X151822200Y-156693000D01*
G75*
G02*
X151496000Y-157019200I-326200J0D01*
G01*
G37*
G36*
G01*
X53122800Y-164764000D02*
X53122800Y-164214000D01*
G75*
G02*
X53199000Y-164137800I76200J0D01*
G01*
X54499000Y-164137800D01*
G75*
G02*
X54575200Y-164214000I0J-76200D01*
G01*
X54575200Y-164764000D01*
G75*
G02*
X54499000Y-164840200I-76200J0D01*
G01*
X53199000Y-164840200D01*
G75*
G02*
X53122800Y-164764000I0J76200D01*
G01*
G37*
G36*
X57847980Y-165005627D02*
G01*
X57874042Y-165050768D01*
X57875200Y-165064000D01*
X57875200Y-166914000D01*
X57857373Y-166962980D01*
X57812232Y-166989042D01*
X57799000Y-166990200D01*
X55199000Y-166990200D01*
X55150020Y-166972373D01*
X55145118Y-166967882D01*
X54642436Y-166465200D01*
X53199000Y-166465200D01*
X53150020Y-166447373D01*
X53123958Y-166402232D01*
X53122800Y-166389000D01*
X53122800Y-165589000D01*
X53140627Y-165540020D01*
X53185768Y-165513958D01*
X53199000Y-165512800D01*
X54642436Y-165512800D01*
X55145118Y-165010118D01*
X55192359Y-164988090D01*
X55199000Y-164987800D01*
X57799000Y-164987800D01*
X57847980Y-165005627D01*
G37*
G36*
G01*
X53122800Y-167764000D02*
X53122800Y-167214000D01*
G75*
G02*
X53199000Y-167137800I76200J0D01*
G01*
X54499000Y-167137800D01*
G75*
G02*
X54575200Y-167214000I0J-76200D01*
G01*
X54575200Y-167764000D01*
G75*
G02*
X54499000Y-167840200I-76200J0D01*
G01*
X53199000Y-167840200D01*
G75*
G02*
X53122800Y-167764000I0J76200D01*
G01*
G37*
G36*
G01*
X84477800Y-152602250D02*
X84477800Y-151689750D01*
G75*
G02*
X84797750Y-151369800I319950J0D01*
G01*
X85285250Y-151369800D01*
G75*
G02*
X85605200Y-151689750I0J-319950D01*
G01*
X85605200Y-152602250D01*
G75*
G02*
X85285250Y-152922200I-319950J0D01*
G01*
X84797750Y-152922200D01*
G75*
G02*
X84477800Y-152602250I0J319950D01*
G01*
G37*
G36*
G01*
X86352800Y-152602250D02*
X86352800Y-151689750D01*
G75*
G02*
X86672750Y-151369800I319950J0D01*
G01*
X87160250Y-151369800D01*
G75*
G02*
X87480200Y-151689750I0J-319950D01*
G01*
X87480200Y-152602250D01*
G75*
G02*
X87160250Y-152922200I-319950J0D01*
G01*
X86672750Y-152922200D01*
G75*
G02*
X86352800Y-152602250I0J319950D01*
G01*
G37*
G36*
G01*
X132392000Y-165503800D02*
X133292000Y-165503800D01*
G75*
G02*
X133618200Y-165830000I0J-326200D01*
G01*
X133618200Y-166355000D01*
G75*
G02*
X133292000Y-166681200I-326200J0D01*
G01*
X132392000Y-166681200D01*
G75*
G02*
X132065800Y-166355000I0J326200D01*
G01*
X132065800Y-165830000D01*
G75*
G02*
X132392000Y-165503800I326200J0D01*
G01*
G37*
G36*
G01*
X132392000Y-167328800D02*
X133292000Y-167328800D01*
G75*
G02*
X133618200Y-167655000I0J-326200D01*
G01*
X133618200Y-168180000D01*
G75*
G02*
X133292000Y-168506200I-326200J0D01*
G01*
X132392000Y-168506200D01*
G75*
G02*
X132065800Y-168180000I0J326200D01*
G01*
X132065800Y-167655000D01*
G75*
G02*
X132392000Y-167328800I326200J0D01*
G01*
G37*
D10*
X29718000Y-187452000D03*
G36*
G01*
X53210800Y-161892000D02*
X53210800Y-160942000D01*
G75*
G02*
X53537000Y-160615800I326200J0D01*
G01*
X54037000Y-160615800D01*
G75*
G02*
X54363200Y-160942000I0J-326200D01*
G01*
X54363200Y-161892000D01*
G75*
G02*
X54037000Y-162218200I-326200J0D01*
G01*
X53537000Y-162218200D01*
G75*
G02*
X53210800Y-161892000I0J326200D01*
G01*
G37*
G36*
G01*
X55110800Y-161892000D02*
X55110800Y-160942000D01*
G75*
G02*
X55437000Y-160615800I326200J0D01*
G01*
X55937000Y-160615800D01*
G75*
G02*
X56263200Y-160942000I0J-326200D01*
G01*
X56263200Y-161892000D01*
G75*
G02*
X55937000Y-162218200I-326200J0D01*
G01*
X55437000Y-162218200D01*
G75*
G02*
X55110800Y-161892000I0J326200D01*
G01*
G37*
G36*
G01*
X134876200Y-157767000D02*
X134876200Y-158717000D01*
G75*
G02*
X134550000Y-159043200I-326200J0D01*
G01*
X134050000Y-159043200D01*
G75*
G02*
X133723800Y-158717000I0J326200D01*
G01*
X133723800Y-157767000D01*
G75*
G02*
X134050000Y-157440800I326200J0D01*
G01*
X134550000Y-157440800D01*
G75*
G02*
X134876200Y-157767000I0J-326200D01*
G01*
G37*
G36*
G01*
X132976200Y-157767000D02*
X132976200Y-158717000D01*
G75*
G02*
X132650000Y-159043200I-326200J0D01*
G01*
X132150000Y-159043200D01*
G75*
G02*
X131823800Y-158717000I0J326200D01*
G01*
X131823800Y-157767000D01*
G75*
G02*
X132150000Y-157440800I326200J0D01*
G01*
X132650000Y-157440800D01*
G75*
G02*
X132976200Y-157767000I0J-326200D01*
G01*
G37*
G36*
G01*
X110975200Y-139250000D02*
X110975200Y-140150000D01*
G75*
G02*
X110649000Y-140476200I-326200J0D01*
G01*
X110124000Y-140476200D01*
G75*
G02*
X109797800Y-140150000I0J326200D01*
G01*
X109797800Y-139250000D01*
G75*
G02*
X110124000Y-138923800I326200J0D01*
G01*
X110649000Y-138923800D01*
G75*
G02*
X110975200Y-139250000I0J-326200D01*
G01*
G37*
G36*
G01*
X109150200Y-139250000D02*
X109150200Y-140150000D01*
G75*
G02*
X108824000Y-140476200I-326200J0D01*
G01*
X108299000Y-140476200D01*
G75*
G02*
X107972800Y-140150000I0J326200D01*
G01*
X107972800Y-139250000D01*
G75*
G02*
X108299000Y-138923800I326200J0D01*
G01*
X108824000Y-138923800D01*
G75*
G02*
X109150200Y-139250000I0J-326200D01*
G01*
G37*
G36*
G01*
X79969400Y-162725950D02*
X78069400Y-162725950D01*
G75*
G02*
X77993200Y-162649750I0J76200D01*
G01*
X77993200Y-161249750D01*
G75*
G02*
X78069400Y-161173550I76200J0D01*
G01*
X79969400Y-161173550D01*
G75*
G02*
X80045600Y-161249750I0J-76200D01*
G01*
X80045600Y-162649750D01*
G75*
G02*
X79969400Y-162725950I-76200J0D01*
G01*
G37*
G36*
G01*
X79969400Y-159425950D02*
X78069400Y-159425950D01*
G75*
G02*
X77993200Y-159349750I0J76200D01*
G01*
X77993200Y-157949750D01*
G75*
G02*
X78069400Y-157873550I76200J0D01*
G01*
X79969400Y-157873550D01*
G75*
G02*
X80045600Y-157949750I0J-76200D01*
G01*
X80045600Y-159349750D01*
G75*
G02*
X79969400Y-159425950I-76200J0D01*
G01*
G37*
G36*
G01*
X53893800Y-175556000D02*
X53893800Y-174456000D01*
G75*
G02*
X54220000Y-174129800I326200J0D01*
G01*
X57220000Y-174129800D01*
G75*
G02*
X57546200Y-174456000I0J-326200D01*
G01*
X57546200Y-175556000D01*
G75*
G02*
X57220000Y-175882200I-326200J0D01*
G01*
X54220000Y-175882200D01*
G75*
G02*
X53893800Y-175556000I0J326200D01*
G01*
G37*
G36*
G01*
X59293800Y-175556000D02*
X59293800Y-174456000D01*
G75*
G02*
X59620000Y-174129800I326200J0D01*
G01*
X62620000Y-174129800D01*
G75*
G02*
X62946200Y-174456000I0J-326200D01*
G01*
X62946200Y-175556000D01*
G75*
G02*
X62620000Y-175882200I-326200J0D01*
G01*
X59620000Y-175882200D01*
G75*
G02*
X59293800Y-175556000I0J326200D01*
G01*
G37*
G36*
G01*
X84477800Y-148030250D02*
X84477800Y-147117750D01*
G75*
G02*
X84797750Y-146797800I319950J0D01*
G01*
X85285250Y-146797800D01*
G75*
G02*
X85605200Y-147117750I0J-319950D01*
G01*
X85605200Y-148030250D01*
G75*
G02*
X85285250Y-148350200I-319950J0D01*
G01*
X84797750Y-148350200D01*
G75*
G02*
X84477800Y-148030250I0J319950D01*
G01*
G37*
G36*
G01*
X86352800Y-148030250D02*
X86352800Y-147117750D01*
G75*
G02*
X86672750Y-146797800I319950J0D01*
G01*
X87160250Y-146797800D01*
G75*
G02*
X87480200Y-147117750I0J-319950D01*
G01*
X87480200Y-148030250D01*
G75*
G02*
X87160250Y-148350200I-319950J0D01*
G01*
X86672750Y-148350200D01*
G75*
G02*
X86352800Y-148030250I0J319950D01*
G01*
G37*
G36*
G01*
X74233200Y-120545000D02*
X74233200Y-121745000D01*
G75*
G02*
X73957000Y-122021200I-276200J0D01*
G01*
X73557000Y-122021200D01*
G75*
G02*
X73280800Y-121745000I0J276200D01*
G01*
X73280800Y-120545000D01*
G75*
G02*
X73557000Y-120268800I276200J0D01*
G01*
X73957000Y-120268800D01*
G75*
G02*
X74233200Y-120545000I0J-276200D01*
G01*
G37*
G36*
G01*
X72983200Y-120545000D02*
X72983200Y-121745000D01*
G75*
G02*
X72707000Y-122021200I-276200J0D01*
G01*
X72307000Y-122021200D01*
G75*
G02*
X72030800Y-121745000I0J276200D01*
G01*
X72030800Y-120545000D01*
G75*
G02*
X72307000Y-120268800I276200J0D01*
G01*
X72707000Y-120268800D01*
G75*
G02*
X72983200Y-120545000I0J-276200D01*
G01*
G37*
G36*
G01*
X71733200Y-120545000D02*
X71733200Y-121745000D01*
G75*
G02*
X71457000Y-122021200I-276200J0D01*
G01*
X71057000Y-122021200D01*
G75*
G02*
X70780800Y-121745000I0J276200D01*
G01*
X70780800Y-120545000D01*
G75*
G02*
X71057000Y-120268800I276200J0D01*
G01*
X71457000Y-120268800D01*
G75*
G02*
X71733200Y-120545000I0J-276200D01*
G01*
G37*
G36*
G01*
X70483200Y-120545000D02*
X70483200Y-121745000D01*
G75*
G02*
X70207000Y-122021200I-276200J0D01*
G01*
X69807000Y-122021200D01*
G75*
G02*
X69530800Y-121745000I0J276200D01*
G01*
X69530800Y-120545000D01*
G75*
G02*
X69807000Y-120268800I276200J0D01*
G01*
X70207000Y-120268800D01*
G75*
G02*
X70483200Y-120545000I0J-276200D01*
G01*
G37*
G36*
G01*
X68583200Y-116995001D02*
X68583200Y-119494999D01*
G75*
G02*
X68256999Y-119821200I-326201J0D01*
G01*
X66657001Y-119821200D01*
G75*
G02*
X66330800Y-119494999I0J326201D01*
G01*
X66330800Y-116995001D01*
G75*
G02*
X66657001Y-116668800I326201J0D01*
G01*
X68256999Y-116668800D01*
G75*
G02*
X68583200Y-116995001I0J-326201D01*
G01*
G37*
G36*
G01*
X77433200Y-116995001D02*
X77433200Y-119494999D01*
G75*
G02*
X77106999Y-119821200I-326201J0D01*
G01*
X75507001Y-119821200D01*
G75*
G02*
X75180800Y-119494999I0J326201D01*
G01*
X75180800Y-116995001D01*
G75*
G02*
X75507001Y-116668800I326201J0D01*
G01*
X77106999Y-116668800D01*
G75*
G02*
X77433200Y-116995001I0J-326201D01*
G01*
G37*
X148082000Y-187412750D03*
G36*
X47599020Y-142413373D02*
G01*
X47572958Y-142368232D01*
X47571800Y-142355000D01*
X47571800Y-140855000D01*
X47589627Y-140806020D01*
X47634768Y-140779958D01*
X47648000Y-140778800D01*
X48148000Y-140778800D01*
X48162334Y-140784017D01*
X48229337Y-140785245D01*
X48250664Y-140788699D01*
X48385979Y-140830974D01*
X48405480Y-140840275D01*
X48523490Y-140918830D01*
X48539596Y-140933231D01*
X48630816Y-141041750D01*
X48642233Y-141060092D01*
X48699328Y-141189851D01*
X48705138Y-141210660D01*
X48722060Y-141340068D01*
X48723042Y-141341768D01*
X48724200Y-141355000D01*
X48724200Y-141855000D01*
X48723448Y-141857066D01*
X48723256Y-141872833D01*
X48701445Y-142012910D01*
X48695128Y-142033570D01*
X48634880Y-142161895D01*
X48623018Y-142179953D01*
X48529174Y-142286211D01*
X48512721Y-142300213D01*
X48392826Y-142375861D01*
X48373105Y-142384683D01*
X48236798Y-142423640D01*
X48215392Y-142426573D01*
X48167745Y-142426282D01*
X48161232Y-142430042D01*
X48148000Y-142431200D01*
X47648000Y-142431200D01*
X47599020Y-142413373D01*
G37*
G36*
X46833919Y-142426075D02*
G01*
X46773630Y-142425707D01*
X46752262Y-142422513D01*
X46616441Y-142381894D01*
X46596828Y-142372832D01*
X46477866Y-142295725D01*
X46461585Y-142281522D01*
X46369047Y-142174125D01*
X46357408Y-142155924D01*
X46298731Y-142026872D01*
X46292667Y-142006135D01*
X46272570Y-141865802D01*
X46271800Y-141855000D01*
X46271800Y-141355000D01*
X46271806Y-141354071D01*
X46271955Y-141341855D01*
X46273005Y-141330142D01*
X46296525Y-141190341D01*
X46303094Y-141169758D01*
X46364906Y-141042179D01*
X46376987Y-141024268D01*
X46472122Y-140919164D01*
X46488745Y-140905363D01*
X46609555Y-140831186D01*
X46629383Y-140822606D01*
X46766156Y-140785317D01*
X46787596Y-140782647D01*
X46828802Y-140783402D01*
X46834768Y-140779958D01*
X46848000Y-140778800D01*
X47348000Y-140778800D01*
X47396980Y-140796627D01*
X47423042Y-140841768D01*
X47424200Y-140855000D01*
X47424200Y-142355000D01*
X47406373Y-142403980D01*
X47361232Y-142430042D01*
X47348000Y-142431200D01*
X46848000Y-142431200D01*
X46833919Y-142426075D01*
G37*
G36*
G01*
X120926800Y-130498000D02*
X120926800Y-129598000D01*
G75*
G02*
X121253000Y-129271800I326200J0D01*
G01*
X121778000Y-129271800D01*
G75*
G02*
X122104200Y-129598000I0J-326200D01*
G01*
X122104200Y-130498000D01*
G75*
G02*
X121778000Y-130824200I-326200J0D01*
G01*
X121253000Y-130824200D01*
G75*
G02*
X120926800Y-130498000I0J326200D01*
G01*
G37*
G36*
G01*
X122751800Y-130498000D02*
X122751800Y-129598000D01*
G75*
G02*
X123078000Y-129271800I326200J0D01*
G01*
X123603000Y-129271800D01*
G75*
G02*
X123929200Y-129598000I0J-326200D01*
G01*
X123929200Y-130498000D01*
G75*
G02*
X123603000Y-130824200I-326200J0D01*
G01*
X123078000Y-130824200D01*
G75*
G02*
X122751800Y-130498000I0J326200D01*
G01*
G37*
G36*
G01*
X108031000Y-162807200D02*
X107831000Y-162807200D01*
G75*
G02*
X107654800Y-162631000I0J176200D01*
G01*
X107654800Y-161356000D01*
G75*
G02*
X107831000Y-161179800I176200J0D01*
G01*
X108031000Y-161179800D01*
G75*
G02*
X108207200Y-161356000I0J-176200D01*
G01*
X108207200Y-162631000D01*
G75*
G02*
X108031000Y-162807200I-176200J0D01*
G01*
G37*
G36*
G01*
X108681000Y-162807200D02*
X108481000Y-162807200D01*
G75*
G02*
X108304800Y-162631000I0J176200D01*
G01*
X108304800Y-161356000D01*
G75*
G02*
X108481000Y-161179800I176200J0D01*
G01*
X108681000Y-161179800D01*
G75*
G02*
X108857200Y-161356000I0J-176200D01*
G01*
X108857200Y-162631000D01*
G75*
G02*
X108681000Y-162807200I-176200J0D01*
G01*
G37*
G36*
G01*
X109331000Y-162807200D02*
X109131000Y-162807200D01*
G75*
G02*
X108954800Y-162631000I0J176200D01*
G01*
X108954800Y-161356000D01*
G75*
G02*
X109131000Y-161179800I176200J0D01*
G01*
X109331000Y-161179800D01*
G75*
G02*
X109507200Y-161356000I0J-176200D01*
G01*
X109507200Y-162631000D01*
G75*
G02*
X109331000Y-162807200I-176200J0D01*
G01*
G37*
G36*
G01*
X109981000Y-162807200D02*
X109781000Y-162807200D01*
G75*
G02*
X109604800Y-162631000I0J176200D01*
G01*
X109604800Y-161356000D01*
G75*
G02*
X109781000Y-161179800I176200J0D01*
G01*
X109981000Y-161179800D01*
G75*
G02*
X110157200Y-161356000I0J-176200D01*
G01*
X110157200Y-162631000D01*
G75*
G02*
X109981000Y-162807200I-176200J0D01*
G01*
G37*
G36*
G01*
X110631000Y-162807200D02*
X110431000Y-162807200D01*
G75*
G02*
X110254800Y-162631000I0J176200D01*
G01*
X110254800Y-161356000D01*
G75*
G02*
X110431000Y-161179800I176200J0D01*
G01*
X110631000Y-161179800D01*
G75*
G02*
X110807200Y-161356000I0J-176200D01*
G01*
X110807200Y-162631000D01*
G75*
G02*
X110631000Y-162807200I-176200J0D01*
G01*
G37*
G36*
G01*
X111281000Y-162807200D02*
X111081000Y-162807200D01*
G75*
G02*
X110904800Y-162631000I0J176200D01*
G01*
X110904800Y-161356000D01*
G75*
G02*
X111081000Y-161179800I176200J0D01*
G01*
X111281000Y-161179800D01*
G75*
G02*
X111457200Y-161356000I0J-176200D01*
G01*
X111457200Y-162631000D01*
G75*
G02*
X111281000Y-162807200I-176200J0D01*
G01*
G37*
G36*
G01*
X111931000Y-162807200D02*
X111731000Y-162807200D01*
G75*
G02*
X111554800Y-162631000I0J176200D01*
G01*
X111554800Y-161356000D01*
G75*
G02*
X111731000Y-161179800I176200J0D01*
G01*
X111931000Y-161179800D01*
G75*
G02*
X112107200Y-161356000I0J-176200D01*
G01*
X112107200Y-162631000D01*
G75*
G02*
X111931000Y-162807200I-176200J0D01*
G01*
G37*
G36*
G01*
X112581000Y-162807200D02*
X112381000Y-162807200D01*
G75*
G02*
X112204800Y-162631000I0J176200D01*
G01*
X112204800Y-161356000D01*
G75*
G02*
X112381000Y-161179800I176200J0D01*
G01*
X112581000Y-161179800D01*
G75*
G02*
X112757200Y-161356000I0J-176200D01*
G01*
X112757200Y-162631000D01*
G75*
G02*
X112581000Y-162807200I-176200J0D01*
G01*
G37*
G36*
G01*
X113231000Y-162807200D02*
X113031000Y-162807200D01*
G75*
G02*
X112854800Y-162631000I0J176200D01*
G01*
X112854800Y-161356000D01*
G75*
G02*
X113031000Y-161179800I176200J0D01*
G01*
X113231000Y-161179800D01*
G75*
G02*
X113407200Y-161356000I0J-176200D01*
G01*
X113407200Y-162631000D01*
G75*
G02*
X113231000Y-162807200I-176200J0D01*
G01*
G37*
G36*
G01*
X113881000Y-162807200D02*
X113681000Y-162807200D01*
G75*
G02*
X113504800Y-162631000I0J176200D01*
G01*
X113504800Y-161356000D01*
G75*
G02*
X113681000Y-161179800I176200J0D01*
G01*
X113881000Y-161179800D01*
G75*
G02*
X114057200Y-161356000I0J-176200D01*
G01*
X114057200Y-162631000D01*
G75*
G02*
X113881000Y-162807200I-176200J0D01*
G01*
G37*
G36*
G01*
X114531000Y-162807200D02*
X114331000Y-162807200D01*
G75*
G02*
X114154800Y-162631000I0J176200D01*
G01*
X114154800Y-161356000D01*
G75*
G02*
X114331000Y-161179800I176200J0D01*
G01*
X114531000Y-161179800D01*
G75*
G02*
X114707200Y-161356000I0J-176200D01*
G01*
X114707200Y-162631000D01*
G75*
G02*
X114531000Y-162807200I-176200J0D01*
G01*
G37*
G36*
G01*
X115181000Y-162807200D02*
X114981000Y-162807200D01*
G75*
G02*
X114804800Y-162631000I0J176200D01*
G01*
X114804800Y-161356000D01*
G75*
G02*
X114981000Y-161179800I176200J0D01*
G01*
X115181000Y-161179800D01*
G75*
G02*
X115357200Y-161356000I0J-176200D01*
G01*
X115357200Y-162631000D01*
G75*
G02*
X115181000Y-162807200I-176200J0D01*
G01*
G37*
G36*
G01*
X115181000Y-157082200D02*
X114981000Y-157082200D01*
G75*
G02*
X114804800Y-156906000I0J176200D01*
G01*
X114804800Y-155631000D01*
G75*
G02*
X114981000Y-155454800I176200J0D01*
G01*
X115181000Y-155454800D01*
G75*
G02*
X115357200Y-155631000I0J-176200D01*
G01*
X115357200Y-156906000D01*
G75*
G02*
X115181000Y-157082200I-176200J0D01*
G01*
G37*
G36*
G01*
X114531000Y-157082200D02*
X114331000Y-157082200D01*
G75*
G02*
X114154800Y-156906000I0J176200D01*
G01*
X114154800Y-155631000D01*
G75*
G02*
X114331000Y-155454800I176200J0D01*
G01*
X114531000Y-155454800D01*
G75*
G02*
X114707200Y-155631000I0J-176200D01*
G01*
X114707200Y-156906000D01*
G75*
G02*
X114531000Y-157082200I-176200J0D01*
G01*
G37*
G36*
G01*
X113881000Y-157082200D02*
X113681000Y-157082200D01*
G75*
G02*
X113504800Y-156906000I0J176200D01*
G01*
X113504800Y-155631000D01*
G75*
G02*
X113681000Y-155454800I176200J0D01*
G01*
X113881000Y-155454800D01*
G75*
G02*
X114057200Y-155631000I0J-176200D01*
G01*
X114057200Y-156906000D01*
G75*
G02*
X113881000Y-157082200I-176200J0D01*
G01*
G37*
G36*
G01*
X113231000Y-157082200D02*
X113031000Y-157082200D01*
G75*
G02*
X112854800Y-156906000I0J176200D01*
G01*
X112854800Y-155631000D01*
G75*
G02*
X113031000Y-155454800I176200J0D01*
G01*
X113231000Y-155454800D01*
G75*
G02*
X113407200Y-155631000I0J-176200D01*
G01*
X113407200Y-156906000D01*
G75*
G02*
X113231000Y-157082200I-176200J0D01*
G01*
G37*
G36*
G01*
X112581000Y-157082200D02*
X112381000Y-157082200D01*
G75*
G02*
X112204800Y-156906000I0J176200D01*
G01*
X112204800Y-155631000D01*
G75*
G02*
X112381000Y-155454800I176200J0D01*
G01*
X112581000Y-155454800D01*
G75*
G02*
X112757200Y-155631000I0J-176200D01*
G01*
X112757200Y-156906000D01*
G75*
G02*
X112581000Y-157082200I-176200J0D01*
G01*
G37*
G36*
G01*
X111931000Y-157082200D02*
X111731000Y-157082200D01*
G75*
G02*
X111554800Y-156906000I0J176200D01*
G01*
X111554800Y-155631000D01*
G75*
G02*
X111731000Y-155454800I176200J0D01*
G01*
X111931000Y-155454800D01*
G75*
G02*
X112107200Y-155631000I0J-176200D01*
G01*
X112107200Y-156906000D01*
G75*
G02*
X111931000Y-157082200I-176200J0D01*
G01*
G37*
G36*
G01*
X111281000Y-157082200D02*
X111081000Y-157082200D01*
G75*
G02*
X110904800Y-156906000I0J176200D01*
G01*
X110904800Y-155631000D01*
G75*
G02*
X111081000Y-155454800I176200J0D01*
G01*
X111281000Y-155454800D01*
G75*
G02*
X111457200Y-155631000I0J-176200D01*
G01*
X111457200Y-156906000D01*
G75*
G02*
X111281000Y-157082200I-176200J0D01*
G01*
G37*
G36*
G01*
X110631000Y-157082200D02*
X110431000Y-157082200D01*
G75*
G02*
X110254800Y-156906000I0J176200D01*
G01*
X110254800Y-155631000D01*
G75*
G02*
X110431000Y-155454800I176200J0D01*
G01*
X110631000Y-155454800D01*
G75*
G02*
X110807200Y-155631000I0J-176200D01*
G01*
X110807200Y-156906000D01*
G75*
G02*
X110631000Y-157082200I-176200J0D01*
G01*
G37*
G36*
G01*
X109981000Y-157082200D02*
X109781000Y-157082200D01*
G75*
G02*
X109604800Y-156906000I0J176200D01*
G01*
X109604800Y-155631000D01*
G75*
G02*
X109781000Y-155454800I176200J0D01*
G01*
X109981000Y-155454800D01*
G75*
G02*
X110157200Y-155631000I0J-176200D01*
G01*
X110157200Y-156906000D01*
G75*
G02*
X109981000Y-157082200I-176200J0D01*
G01*
G37*
G36*
G01*
X109331000Y-157082200D02*
X109131000Y-157082200D01*
G75*
G02*
X108954800Y-156906000I0J176200D01*
G01*
X108954800Y-155631000D01*
G75*
G02*
X109131000Y-155454800I176200J0D01*
G01*
X109331000Y-155454800D01*
G75*
G02*
X109507200Y-155631000I0J-176200D01*
G01*
X109507200Y-156906000D01*
G75*
G02*
X109331000Y-157082200I-176200J0D01*
G01*
G37*
G36*
G01*
X108681000Y-157082200D02*
X108481000Y-157082200D01*
G75*
G02*
X108304800Y-156906000I0J176200D01*
G01*
X108304800Y-155631000D01*
G75*
G02*
X108481000Y-155454800I176200J0D01*
G01*
X108681000Y-155454800D01*
G75*
G02*
X108857200Y-155631000I0J-176200D01*
G01*
X108857200Y-156906000D01*
G75*
G02*
X108681000Y-157082200I-176200J0D01*
G01*
G37*
G36*
G01*
X108031000Y-157082200D02*
X107831000Y-157082200D01*
G75*
G02*
X107654800Y-156906000I0J176200D01*
G01*
X107654800Y-155631000D01*
G75*
G02*
X107831000Y-155454800I176200J0D01*
G01*
X108031000Y-155454800D01*
G75*
G02*
X108207200Y-155631000I0J-176200D01*
G01*
X108207200Y-156906000D01*
G75*
G02*
X108031000Y-157082200I-176200J0D01*
G01*
G37*
G36*
X47599020Y-145715373D02*
G01*
X47572958Y-145670232D01*
X47571800Y-145657000D01*
X47571800Y-144157000D01*
X47589627Y-144108020D01*
X47634768Y-144081958D01*
X47648000Y-144080800D01*
X48148000Y-144080800D01*
X48162334Y-144086017D01*
X48229337Y-144087245D01*
X48250664Y-144090699D01*
X48385979Y-144132974D01*
X48405480Y-144142275D01*
X48523490Y-144220830D01*
X48539596Y-144235231D01*
X48630816Y-144343750D01*
X48642233Y-144362092D01*
X48699328Y-144491851D01*
X48705138Y-144512660D01*
X48722060Y-144642068D01*
X48723042Y-144643768D01*
X48724200Y-144657000D01*
X48724200Y-145157000D01*
X48723448Y-145159066D01*
X48723256Y-145174833D01*
X48701445Y-145314910D01*
X48695128Y-145335570D01*
X48634880Y-145463895D01*
X48623018Y-145481953D01*
X48529174Y-145588211D01*
X48512721Y-145602213D01*
X48392826Y-145677861D01*
X48373105Y-145686683D01*
X48236798Y-145725640D01*
X48215392Y-145728573D01*
X48167745Y-145728282D01*
X48161232Y-145732042D01*
X48148000Y-145733200D01*
X47648000Y-145733200D01*
X47599020Y-145715373D01*
G37*
G36*
X46833919Y-145728075D02*
G01*
X46773630Y-145727707D01*
X46752262Y-145724513D01*
X46616441Y-145683894D01*
X46596828Y-145674832D01*
X46477866Y-145597725D01*
X46461585Y-145583522D01*
X46369047Y-145476125D01*
X46357408Y-145457924D01*
X46298731Y-145328872D01*
X46292667Y-145308135D01*
X46272570Y-145167802D01*
X46271800Y-145157000D01*
X46271800Y-144657000D01*
X46271806Y-144656071D01*
X46271955Y-144643855D01*
X46273005Y-144632142D01*
X46296525Y-144492341D01*
X46303094Y-144471758D01*
X46364906Y-144344179D01*
X46376987Y-144326268D01*
X46472122Y-144221164D01*
X46488745Y-144207363D01*
X46609555Y-144133186D01*
X46629383Y-144124606D01*
X46766156Y-144087317D01*
X46787596Y-144084647D01*
X46828802Y-144085402D01*
X46834768Y-144081958D01*
X46848000Y-144080800D01*
X47348000Y-144080800D01*
X47396980Y-144098627D01*
X47423042Y-144143768D01*
X47424200Y-144157000D01*
X47424200Y-145657000D01*
X47406373Y-145705980D01*
X47361232Y-145732042D01*
X47348000Y-145733200D01*
X46848000Y-145733200D01*
X46833919Y-145728075D01*
G37*
G36*
G01*
X42395200Y-127947000D02*
X42395200Y-128847000D01*
G75*
G02*
X42069000Y-129173200I-326200J0D01*
G01*
X41544000Y-129173200D01*
G75*
G02*
X41217800Y-128847000I0J326200D01*
G01*
X41217800Y-127947000D01*
G75*
G02*
X41544000Y-127620800I326200J0D01*
G01*
X42069000Y-127620800D01*
G75*
G02*
X42395200Y-127947000I0J-326200D01*
G01*
G37*
G36*
G01*
X40570200Y-127947000D02*
X40570200Y-128847000D01*
G75*
G02*
X40244000Y-129173200I-326200J0D01*
G01*
X39719000Y-129173200D01*
G75*
G02*
X39392800Y-128847000I0J326200D01*
G01*
X39392800Y-127947000D01*
G75*
G02*
X39719000Y-127620800I326200J0D01*
G01*
X40244000Y-127620800D01*
G75*
G02*
X40570200Y-127947000I0J-326200D01*
G01*
G37*
G36*
G01*
X132392000Y-161439800D02*
X133292000Y-161439800D01*
G75*
G02*
X133618200Y-161766000I0J-326200D01*
G01*
X133618200Y-162291000D01*
G75*
G02*
X133292000Y-162617200I-326200J0D01*
G01*
X132392000Y-162617200D01*
G75*
G02*
X132065800Y-162291000I0J326200D01*
G01*
X132065800Y-161766000D01*
G75*
G02*
X132392000Y-161439800I326200J0D01*
G01*
G37*
G36*
G01*
X132392000Y-163264800D02*
X133292000Y-163264800D01*
G75*
G02*
X133618200Y-163591000I0J-326200D01*
G01*
X133618200Y-164116000D01*
G75*
G02*
X133292000Y-164442200I-326200J0D01*
G01*
X132392000Y-164442200D01*
G75*
G02*
X132065800Y-164116000I0J326200D01*
G01*
X132065800Y-163591000D01*
G75*
G02*
X132392000Y-163264800I326200J0D01*
G01*
G37*
G36*
X47614020Y-179878373D02*
G01*
X47587958Y-179833232D01*
X47586800Y-179820000D01*
X47586800Y-178320000D01*
X47604627Y-178271020D01*
X47649768Y-178244958D01*
X47663000Y-178243800D01*
X48163000Y-178243800D01*
X48177334Y-178249017D01*
X48244337Y-178250245D01*
X48265664Y-178253699D01*
X48400979Y-178295974D01*
X48420480Y-178305275D01*
X48538490Y-178383830D01*
X48554596Y-178398231D01*
X48645816Y-178506750D01*
X48657233Y-178525092D01*
X48714328Y-178654851D01*
X48720138Y-178675660D01*
X48737060Y-178805068D01*
X48738042Y-178806768D01*
X48739200Y-178820000D01*
X48739200Y-179320000D01*
X48738448Y-179322066D01*
X48738256Y-179337833D01*
X48716445Y-179477910D01*
X48710128Y-179498570D01*
X48649880Y-179626895D01*
X48638018Y-179644953D01*
X48544174Y-179751211D01*
X48527721Y-179765213D01*
X48407826Y-179840861D01*
X48388105Y-179849683D01*
X48251798Y-179888640D01*
X48230392Y-179891573D01*
X48182745Y-179891282D01*
X48176232Y-179895042D01*
X48163000Y-179896200D01*
X47663000Y-179896200D01*
X47614020Y-179878373D01*
G37*
G36*
X46848919Y-179891075D02*
G01*
X46788630Y-179890707D01*
X46767262Y-179887513D01*
X46631441Y-179846894D01*
X46611828Y-179837832D01*
X46492866Y-179760725D01*
X46476585Y-179746522D01*
X46384047Y-179639125D01*
X46372408Y-179620924D01*
X46313731Y-179491872D01*
X46307667Y-179471135D01*
X46287570Y-179330802D01*
X46286800Y-179320000D01*
X46286800Y-178820000D01*
X46286806Y-178819071D01*
X46286955Y-178806855D01*
X46288005Y-178795142D01*
X46311525Y-178655341D01*
X46318094Y-178634758D01*
X46379906Y-178507179D01*
X46391987Y-178489268D01*
X46487122Y-178384164D01*
X46503745Y-178370363D01*
X46624555Y-178296186D01*
X46644383Y-178287606D01*
X46781156Y-178250317D01*
X46802596Y-178247647D01*
X46843802Y-178248402D01*
X46849768Y-178244958D01*
X46863000Y-178243800D01*
X47363000Y-178243800D01*
X47411980Y-178261627D01*
X47438042Y-178306768D01*
X47439200Y-178320000D01*
X47439200Y-179820000D01*
X47421373Y-179868980D01*
X47376232Y-179895042D01*
X47363000Y-179896200D01*
X46863000Y-179896200D01*
X46848919Y-179891075D01*
G37*
G36*
G01*
X56319000Y-148231800D02*
X57219000Y-148231800D01*
G75*
G02*
X57545200Y-148558000I0J-326200D01*
G01*
X57545200Y-149083000D01*
G75*
G02*
X57219000Y-149409200I-326200J0D01*
G01*
X56319000Y-149409200D01*
G75*
G02*
X55992800Y-149083000I0J326200D01*
G01*
X55992800Y-148558000D01*
G75*
G02*
X56319000Y-148231800I326200J0D01*
G01*
G37*
G36*
G01*
X56319000Y-150056800D02*
X57219000Y-150056800D01*
G75*
G02*
X57545200Y-150383000I0J-326200D01*
G01*
X57545200Y-150908000D01*
G75*
G02*
X57219000Y-151234200I-326200J0D01*
G01*
X56319000Y-151234200D01*
G75*
G02*
X55992800Y-150908000I0J326200D01*
G01*
X55992800Y-150383000D01*
G75*
G02*
X56319000Y-150056800I326200J0D01*
G01*
G37*
G36*
G01*
X147596000Y-144751200D02*
X146346000Y-144751200D01*
G75*
G02*
X146119800Y-144525000I0J226200D01*
G01*
X146119800Y-144225000D01*
G75*
G02*
X146346000Y-143998800I226200J0D01*
G01*
X147596000Y-143998800D01*
G75*
G02*
X147822200Y-144225000I0J-226200D01*
G01*
X147822200Y-144525000D01*
G75*
G02*
X147596000Y-144751200I-226200J0D01*
G01*
G37*
G36*
G01*
X147596000Y-143751200D02*
X146346000Y-143751200D01*
G75*
G02*
X146119800Y-143525000I0J226200D01*
G01*
X146119800Y-143225000D01*
G75*
G02*
X146346000Y-142998800I226200J0D01*
G01*
X147596000Y-142998800D01*
G75*
G02*
X147822200Y-143225000I0J-226200D01*
G01*
X147822200Y-143525000D01*
G75*
G02*
X147596000Y-143751200I-226200J0D01*
G01*
G37*
G36*
G01*
X147596000Y-142751200D02*
X146346000Y-142751200D01*
G75*
G02*
X146119800Y-142525000I0J226200D01*
G01*
X146119800Y-142225000D01*
G75*
G02*
X146346000Y-141998800I226200J0D01*
G01*
X147596000Y-141998800D01*
G75*
G02*
X147822200Y-142225000I0J-226200D01*
G01*
X147822200Y-142525000D01*
G75*
G02*
X147596000Y-142751200I-226200J0D01*
G01*
G37*
G36*
G01*
X147596000Y-141751200D02*
X146346000Y-141751200D01*
G75*
G02*
X146119800Y-141525000I0J226200D01*
G01*
X146119800Y-141225000D01*
G75*
G02*
X146346000Y-140998800I226200J0D01*
G01*
X147596000Y-140998800D01*
G75*
G02*
X147822200Y-141225000I0J-226200D01*
G01*
X147822200Y-141525000D01*
G75*
G02*
X147596000Y-141751200I-226200J0D01*
G01*
G37*
G36*
G01*
X151496000Y-146351200D02*
X150196000Y-146351200D01*
G75*
G02*
X149869800Y-146025000I0J326200D01*
G01*
X149869800Y-145325000D01*
G75*
G02*
X150196000Y-144998800I326200J0D01*
G01*
X151496000Y-144998800D01*
G75*
G02*
X151822200Y-145325000I0J-326200D01*
G01*
X151822200Y-146025000D01*
G75*
G02*
X151496000Y-146351200I-326200J0D01*
G01*
G37*
G36*
G01*
X151496000Y-140751200D02*
X150196000Y-140751200D01*
G75*
G02*
X149869800Y-140425000I0J326200D01*
G01*
X149869800Y-139725000D01*
G75*
G02*
X150196000Y-139398800I326200J0D01*
G01*
X151496000Y-139398800D01*
G75*
G02*
X151822200Y-139725000I0J-326200D01*
G01*
X151822200Y-140425000D01*
G75*
G02*
X151496000Y-140751200I-326200J0D01*
G01*
G37*
G36*
G01*
X94773000Y-135765000D02*
X94773000Y-136869000D01*
G75*
G02*
X94533000Y-137109000I-240000J0D01*
G01*
X92709000Y-137109000D01*
G75*
G02*
X92469000Y-136869000I0J240000D01*
G01*
X92469000Y-135765000D01*
G75*
G02*
X92709000Y-135525000I240000J0D01*
G01*
X94533000Y-135525000D01*
G75*
G02*
X94773000Y-135765000I0J-240000D01*
G01*
G37*
G36*
G01*
X103873000Y-135765000D02*
X103873000Y-136869000D01*
G75*
G02*
X103633000Y-137109000I-240000J0D01*
G01*
X101809000Y-137109000D01*
G75*
G02*
X101569000Y-136869000I0J240000D01*
G01*
X101569000Y-135765000D01*
G75*
G02*
X101809000Y-135525000I240000J0D01*
G01*
X103633000Y-135525000D01*
G75*
G02*
X103873000Y-135765000I0J-240000D01*
G01*
G37*
G36*
G01*
X94773000Y-140245000D02*
X94773000Y-141349000D01*
G75*
G02*
X94533000Y-141589000I-240000J0D01*
G01*
X92709000Y-141589000D01*
G75*
G02*
X92469000Y-141349000I0J240000D01*
G01*
X92469000Y-140245000D01*
G75*
G02*
X92709000Y-140005000I240000J0D01*
G01*
X94533000Y-140005000D01*
G75*
G02*
X94773000Y-140245000I0J-240000D01*
G01*
G37*
G36*
G01*
X103873000Y-140245000D02*
X103873000Y-141349000D01*
G75*
G02*
X103633000Y-141589000I-240000J0D01*
G01*
X101809000Y-141589000D01*
G75*
G02*
X101569000Y-141349000I0J240000D01*
G01*
X101569000Y-140245000D01*
G75*
G02*
X101809000Y-140005000I240000J0D01*
G01*
X103633000Y-140005000D01*
G75*
G02*
X103873000Y-140245000I0J-240000D01*
G01*
G37*
G36*
G01*
X124090000Y-187436950D02*
X122290000Y-187436950D01*
G75*
G02*
X122213800Y-187360750I0J76200D01*
G01*
X122213800Y-184860750D01*
G75*
G02*
X122290000Y-184784550I76200J0D01*
G01*
X124090000Y-184784550D01*
G75*
G02*
X124166200Y-184860750I0J-76200D01*
G01*
X124166200Y-187360750D01*
G75*
G02*
X124090000Y-187436950I-76200J0D01*
G01*
G37*
G36*
G01*
X124090000Y-183436950D02*
X122290000Y-183436950D01*
G75*
G02*
X122213800Y-183360750I0J76200D01*
G01*
X122213800Y-180860750D01*
G75*
G02*
X122290000Y-180784550I76200J0D01*
G01*
X124090000Y-180784550D01*
G75*
G02*
X124166200Y-180860750I0J-76200D01*
G01*
X124166200Y-183360750D01*
G75*
G02*
X124090000Y-183436950I-76200J0D01*
G01*
G37*
G36*
G01*
X76004000Y-172742800D02*
X76904000Y-172742800D01*
G75*
G02*
X77230200Y-173069000I0J-326200D01*
G01*
X77230200Y-173594000D01*
G75*
G02*
X76904000Y-173920200I-326200J0D01*
G01*
X76004000Y-173920200D01*
G75*
G02*
X75677800Y-173594000I0J326200D01*
G01*
X75677800Y-173069000D01*
G75*
G02*
X76004000Y-172742800I326200J0D01*
G01*
G37*
G36*
G01*
X76004000Y-174567800D02*
X76904000Y-174567800D01*
G75*
G02*
X77230200Y-174894000I0J-326200D01*
G01*
X77230200Y-175419000D01*
G75*
G02*
X76904000Y-175745200I-326200J0D01*
G01*
X76004000Y-175745200D01*
G75*
G02*
X75677800Y-175419000I0J326200D01*
G01*
X75677800Y-174894000D01*
G75*
G02*
X76004000Y-174567800I326200J0D01*
G01*
G37*
X148082000Y-119848750D03*
G36*
G01*
X42395200Y-131249000D02*
X42395200Y-132149000D01*
G75*
G02*
X42069000Y-132475200I-326200J0D01*
G01*
X41544000Y-132475200D01*
G75*
G02*
X41217800Y-132149000I0J326200D01*
G01*
X41217800Y-131249000D01*
G75*
G02*
X41544000Y-130922800I326200J0D01*
G01*
X42069000Y-130922800D01*
G75*
G02*
X42395200Y-131249000I0J-326200D01*
G01*
G37*
G36*
G01*
X40570200Y-131249000D02*
X40570200Y-132149000D01*
G75*
G02*
X40244000Y-132475200I-326200J0D01*
G01*
X39719000Y-132475200D01*
G75*
G02*
X39392800Y-132149000I0J326200D01*
G01*
X39392800Y-131249000D01*
G75*
G02*
X39719000Y-130922800I326200J0D01*
G01*
X40244000Y-130922800D01*
G75*
G02*
X40570200Y-131249000I0J-326200D01*
G01*
G37*
G36*
G01*
X66026800Y-186497000D02*
X66026800Y-184597000D01*
G75*
G02*
X66103000Y-184520800I76200J0D01*
G01*
X67503000Y-184520800D01*
G75*
G02*
X67579200Y-184597000I0J-76200D01*
G01*
X67579200Y-186497000D01*
G75*
G02*
X67503000Y-186573200I-76200J0D01*
G01*
X66103000Y-186573200D01*
G75*
G02*
X66026800Y-186497000I0J76200D01*
G01*
G37*
G36*
G01*
X69326800Y-186497000D02*
X69326800Y-184597000D01*
G75*
G02*
X69403000Y-184520800I76200J0D01*
G01*
X70803000Y-184520800D01*
G75*
G02*
X70879200Y-184597000I0J-76200D01*
G01*
X70879200Y-186497000D01*
G75*
G02*
X70803000Y-186573200I-76200J0D01*
G01*
X69403000Y-186573200D01*
G75*
G02*
X69326800Y-186497000I0J76200D01*
G01*
G37*
G36*
G01*
X110975200Y-134424000D02*
X110975200Y-135324000D01*
G75*
G02*
X110649000Y-135650200I-326200J0D01*
G01*
X110124000Y-135650200D01*
G75*
G02*
X109797800Y-135324000I0J326200D01*
G01*
X109797800Y-134424000D01*
G75*
G02*
X110124000Y-134097800I326200J0D01*
G01*
X110649000Y-134097800D01*
G75*
G02*
X110975200Y-134424000I0J-326200D01*
G01*
G37*
G36*
G01*
X109150200Y-134424000D02*
X109150200Y-135324000D01*
G75*
G02*
X108824000Y-135650200I-326200J0D01*
G01*
X108299000Y-135650200D01*
G75*
G02*
X107972800Y-135324000I0J326200D01*
G01*
X107972800Y-134424000D01*
G75*
G02*
X108299000Y-134097800I326200J0D01*
G01*
X108824000Y-134097800D01*
G75*
G02*
X109150200Y-134424000I0J-326200D01*
G01*
G37*
G36*
G01*
X122763000Y-171570200D02*
X122563000Y-171570200D01*
G75*
G02*
X122386800Y-171394000I0J176200D01*
G01*
X122386800Y-170119000D01*
G75*
G02*
X122563000Y-169942800I176200J0D01*
G01*
X122763000Y-169942800D01*
G75*
G02*
X122939200Y-170119000I0J-176200D01*
G01*
X122939200Y-171394000D01*
G75*
G02*
X122763000Y-171570200I-176200J0D01*
G01*
G37*
G36*
G01*
X123413000Y-171570200D02*
X123213000Y-171570200D01*
G75*
G02*
X123036800Y-171394000I0J176200D01*
G01*
X123036800Y-170119000D01*
G75*
G02*
X123213000Y-169942800I176200J0D01*
G01*
X123413000Y-169942800D01*
G75*
G02*
X123589200Y-170119000I0J-176200D01*
G01*
X123589200Y-171394000D01*
G75*
G02*
X123413000Y-171570200I-176200J0D01*
G01*
G37*
G36*
G01*
X124063000Y-171570200D02*
X123863000Y-171570200D01*
G75*
G02*
X123686800Y-171394000I0J176200D01*
G01*
X123686800Y-170119000D01*
G75*
G02*
X123863000Y-169942800I176200J0D01*
G01*
X124063000Y-169942800D01*
G75*
G02*
X124239200Y-170119000I0J-176200D01*
G01*
X124239200Y-171394000D01*
G75*
G02*
X124063000Y-171570200I-176200J0D01*
G01*
G37*
G36*
G01*
X124713000Y-171570200D02*
X124513000Y-171570200D01*
G75*
G02*
X124336800Y-171394000I0J176200D01*
G01*
X124336800Y-170119000D01*
G75*
G02*
X124513000Y-169942800I176200J0D01*
G01*
X124713000Y-169942800D01*
G75*
G02*
X124889200Y-170119000I0J-176200D01*
G01*
X124889200Y-171394000D01*
G75*
G02*
X124713000Y-171570200I-176200J0D01*
G01*
G37*
G36*
G01*
X125363000Y-171570200D02*
X125163000Y-171570200D01*
G75*
G02*
X124986800Y-171394000I0J176200D01*
G01*
X124986800Y-170119000D01*
G75*
G02*
X125163000Y-169942800I176200J0D01*
G01*
X125363000Y-169942800D01*
G75*
G02*
X125539200Y-170119000I0J-176200D01*
G01*
X125539200Y-171394000D01*
G75*
G02*
X125363000Y-171570200I-176200J0D01*
G01*
G37*
G36*
G01*
X126013000Y-171570200D02*
X125813000Y-171570200D01*
G75*
G02*
X125636800Y-171394000I0J176200D01*
G01*
X125636800Y-170119000D01*
G75*
G02*
X125813000Y-169942800I176200J0D01*
G01*
X126013000Y-169942800D01*
G75*
G02*
X126189200Y-170119000I0J-176200D01*
G01*
X126189200Y-171394000D01*
G75*
G02*
X126013000Y-171570200I-176200J0D01*
G01*
G37*
G36*
G01*
X126663000Y-171570200D02*
X126463000Y-171570200D01*
G75*
G02*
X126286800Y-171394000I0J176200D01*
G01*
X126286800Y-170119000D01*
G75*
G02*
X126463000Y-169942800I176200J0D01*
G01*
X126663000Y-169942800D01*
G75*
G02*
X126839200Y-170119000I0J-176200D01*
G01*
X126839200Y-171394000D01*
G75*
G02*
X126663000Y-171570200I-176200J0D01*
G01*
G37*
G36*
G01*
X127313000Y-171570200D02*
X127113000Y-171570200D01*
G75*
G02*
X126936800Y-171394000I0J176200D01*
G01*
X126936800Y-170119000D01*
G75*
G02*
X127113000Y-169942800I176200J0D01*
G01*
X127313000Y-169942800D01*
G75*
G02*
X127489200Y-170119000I0J-176200D01*
G01*
X127489200Y-171394000D01*
G75*
G02*
X127313000Y-171570200I-176200J0D01*
G01*
G37*
G36*
G01*
X127963000Y-171570200D02*
X127763000Y-171570200D01*
G75*
G02*
X127586800Y-171394000I0J176200D01*
G01*
X127586800Y-170119000D01*
G75*
G02*
X127763000Y-169942800I176200J0D01*
G01*
X127963000Y-169942800D01*
G75*
G02*
X128139200Y-170119000I0J-176200D01*
G01*
X128139200Y-171394000D01*
G75*
G02*
X127963000Y-171570200I-176200J0D01*
G01*
G37*
G36*
G01*
X128613000Y-171570200D02*
X128413000Y-171570200D01*
G75*
G02*
X128236800Y-171394000I0J176200D01*
G01*
X128236800Y-170119000D01*
G75*
G02*
X128413000Y-169942800I176200J0D01*
G01*
X128613000Y-169942800D01*
G75*
G02*
X128789200Y-170119000I0J-176200D01*
G01*
X128789200Y-171394000D01*
G75*
G02*
X128613000Y-171570200I-176200J0D01*
G01*
G37*
G36*
G01*
X129263000Y-171570200D02*
X129063000Y-171570200D01*
G75*
G02*
X128886800Y-171394000I0J176200D01*
G01*
X128886800Y-170119000D01*
G75*
G02*
X129063000Y-169942800I176200J0D01*
G01*
X129263000Y-169942800D01*
G75*
G02*
X129439200Y-170119000I0J-176200D01*
G01*
X129439200Y-171394000D01*
G75*
G02*
X129263000Y-171570200I-176200J0D01*
G01*
G37*
G36*
G01*
X129913000Y-171570200D02*
X129713000Y-171570200D01*
G75*
G02*
X129536800Y-171394000I0J176200D01*
G01*
X129536800Y-170119000D01*
G75*
G02*
X129713000Y-169942800I176200J0D01*
G01*
X129913000Y-169942800D01*
G75*
G02*
X130089200Y-170119000I0J-176200D01*
G01*
X130089200Y-171394000D01*
G75*
G02*
X129913000Y-171570200I-176200J0D01*
G01*
G37*
G36*
G01*
X129913000Y-165845200D02*
X129713000Y-165845200D01*
G75*
G02*
X129536800Y-165669000I0J176200D01*
G01*
X129536800Y-164394000D01*
G75*
G02*
X129713000Y-164217800I176200J0D01*
G01*
X129913000Y-164217800D01*
G75*
G02*
X130089200Y-164394000I0J-176200D01*
G01*
X130089200Y-165669000D01*
G75*
G02*
X129913000Y-165845200I-176200J0D01*
G01*
G37*
G36*
G01*
X129263000Y-165845200D02*
X129063000Y-165845200D01*
G75*
G02*
X128886800Y-165669000I0J176200D01*
G01*
X128886800Y-164394000D01*
G75*
G02*
X129063000Y-164217800I176200J0D01*
G01*
X129263000Y-164217800D01*
G75*
G02*
X129439200Y-164394000I0J-176200D01*
G01*
X129439200Y-165669000D01*
G75*
G02*
X129263000Y-165845200I-176200J0D01*
G01*
G37*
G36*
G01*
X128613000Y-165845200D02*
X128413000Y-165845200D01*
G75*
G02*
X128236800Y-165669000I0J176200D01*
G01*
X128236800Y-164394000D01*
G75*
G02*
X128413000Y-164217800I176200J0D01*
G01*
X128613000Y-164217800D01*
G75*
G02*
X128789200Y-164394000I0J-176200D01*
G01*
X128789200Y-165669000D01*
G75*
G02*
X128613000Y-165845200I-176200J0D01*
G01*
G37*
G36*
G01*
X127963000Y-165845200D02*
X127763000Y-165845200D01*
G75*
G02*
X127586800Y-165669000I0J176200D01*
G01*
X127586800Y-164394000D01*
G75*
G02*
X127763000Y-164217800I176200J0D01*
G01*
X127963000Y-164217800D01*
G75*
G02*
X128139200Y-164394000I0J-176200D01*
G01*
X128139200Y-165669000D01*
G75*
G02*
X127963000Y-165845200I-176200J0D01*
G01*
G37*
G36*
G01*
X127313000Y-165845200D02*
X127113000Y-165845200D01*
G75*
G02*
X126936800Y-165669000I0J176200D01*
G01*
X126936800Y-164394000D01*
G75*
G02*
X127113000Y-164217800I176200J0D01*
G01*
X127313000Y-164217800D01*
G75*
G02*
X127489200Y-164394000I0J-176200D01*
G01*
X127489200Y-165669000D01*
G75*
G02*
X127313000Y-165845200I-176200J0D01*
G01*
G37*
G36*
G01*
X126663000Y-165845200D02*
X126463000Y-165845200D01*
G75*
G02*
X126286800Y-165669000I0J176200D01*
G01*
X126286800Y-164394000D01*
G75*
G02*
X126463000Y-164217800I176200J0D01*
G01*
X126663000Y-164217800D01*
G75*
G02*
X126839200Y-164394000I0J-176200D01*
G01*
X126839200Y-165669000D01*
G75*
G02*
X126663000Y-165845200I-176200J0D01*
G01*
G37*
G36*
G01*
X126013000Y-165845200D02*
X125813000Y-165845200D01*
G75*
G02*
X125636800Y-165669000I0J176200D01*
G01*
X125636800Y-164394000D01*
G75*
G02*
X125813000Y-164217800I176200J0D01*
G01*
X126013000Y-164217800D01*
G75*
G02*
X126189200Y-164394000I0J-176200D01*
G01*
X126189200Y-165669000D01*
G75*
G02*
X126013000Y-165845200I-176200J0D01*
G01*
G37*
G36*
G01*
X125363000Y-165845200D02*
X125163000Y-165845200D01*
G75*
G02*
X124986800Y-165669000I0J176200D01*
G01*
X124986800Y-164394000D01*
G75*
G02*
X125163000Y-164217800I176200J0D01*
G01*
X125363000Y-164217800D01*
G75*
G02*
X125539200Y-164394000I0J-176200D01*
G01*
X125539200Y-165669000D01*
G75*
G02*
X125363000Y-165845200I-176200J0D01*
G01*
G37*
G36*
G01*
X124713000Y-165845200D02*
X124513000Y-165845200D01*
G75*
G02*
X124336800Y-165669000I0J176200D01*
G01*
X124336800Y-164394000D01*
G75*
G02*
X124513000Y-164217800I176200J0D01*
G01*
X124713000Y-164217800D01*
G75*
G02*
X124889200Y-164394000I0J-176200D01*
G01*
X124889200Y-165669000D01*
G75*
G02*
X124713000Y-165845200I-176200J0D01*
G01*
G37*
G36*
G01*
X124063000Y-165845200D02*
X123863000Y-165845200D01*
G75*
G02*
X123686800Y-165669000I0J176200D01*
G01*
X123686800Y-164394000D01*
G75*
G02*
X123863000Y-164217800I176200J0D01*
G01*
X124063000Y-164217800D01*
G75*
G02*
X124239200Y-164394000I0J-176200D01*
G01*
X124239200Y-165669000D01*
G75*
G02*
X124063000Y-165845200I-176200J0D01*
G01*
G37*
G36*
G01*
X123413000Y-165845200D02*
X123213000Y-165845200D01*
G75*
G02*
X123036800Y-165669000I0J176200D01*
G01*
X123036800Y-164394000D01*
G75*
G02*
X123213000Y-164217800I176200J0D01*
G01*
X123413000Y-164217800D01*
G75*
G02*
X123589200Y-164394000I0J-176200D01*
G01*
X123589200Y-165669000D01*
G75*
G02*
X123413000Y-165845200I-176200J0D01*
G01*
G37*
G36*
G01*
X122763000Y-165845200D02*
X122563000Y-165845200D01*
G75*
G02*
X122386800Y-165669000I0J176200D01*
G01*
X122386800Y-164394000D01*
G75*
G02*
X122563000Y-164217800I176200J0D01*
G01*
X122763000Y-164217800D01*
G75*
G02*
X122939200Y-164394000I0J-176200D01*
G01*
X122939200Y-165669000D01*
G75*
G02*
X122763000Y-165845200I-176200J0D01*
G01*
G37*
G36*
G01*
X69583300Y-163309300D02*
X69583300Y-157746700D01*
G75*
G02*
X69659500Y-157670500I76200J0D01*
G01*
X71767700Y-157670500D01*
G75*
G02*
X71843900Y-157746700I0J-76200D01*
G01*
X71843900Y-163309300D01*
G75*
G02*
X71767700Y-163385500I-76200J0D01*
G01*
X69659500Y-163385500D01*
G75*
G02*
X69583300Y-163309300I0J76200D01*
G01*
G37*
G36*
G01*
X74180700Y-163309300D02*
X74180700Y-157746700D01*
G75*
G02*
X74256900Y-157670500I76200J0D01*
G01*
X76365100Y-157670500D01*
G75*
G02*
X76441300Y-157746700I0J-76200D01*
G01*
X76441300Y-163309300D01*
G75*
G02*
X76365100Y-163385500I-76200J0D01*
G01*
X74256900Y-163385500D01*
G75*
G02*
X74180700Y-163309300I0J76200D01*
G01*
G37*
G36*
G01*
X105570000Y-150746800D02*
X106520000Y-150746800D01*
G75*
G02*
X106846200Y-151073000I0J-326200D01*
G01*
X106846200Y-151573000D01*
G75*
G02*
X106520000Y-151899200I-326200J0D01*
G01*
X105570000Y-151899200D01*
G75*
G02*
X105243800Y-151573000I0J326200D01*
G01*
X105243800Y-151073000D01*
G75*
G02*
X105570000Y-150746800I326200J0D01*
G01*
G37*
G36*
G01*
X105570000Y-152646800D02*
X106520000Y-152646800D01*
G75*
G02*
X106846200Y-152973000I0J-326200D01*
G01*
X106846200Y-153473000D01*
G75*
G02*
X106520000Y-153799200I-326200J0D01*
G01*
X105570000Y-153799200D01*
G75*
G02*
X105243800Y-153473000I0J326200D01*
G01*
X105243800Y-152973000D01*
G75*
G02*
X105570000Y-152646800I326200J0D01*
G01*
G37*
G36*
G01*
X142555000Y-146444200D02*
X140655000Y-146444200D01*
G75*
G02*
X140578800Y-146368000I0J76200D01*
G01*
X140578800Y-144968000D01*
G75*
G02*
X140655000Y-144891800I76200J0D01*
G01*
X142555000Y-144891800D01*
G75*
G02*
X142631200Y-144968000I0J-76200D01*
G01*
X142631200Y-146368000D01*
G75*
G02*
X142555000Y-146444200I-76200J0D01*
G01*
G37*
G36*
G01*
X142555000Y-143144200D02*
X140655000Y-143144200D01*
G75*
G02*
X140578800Y-143068000I0J76200D01*
G01*
X140578800Y-141668000D01*
G75*
G02*
X140655000Y-141591800I76200J0D01*
G01*
X142555000Y-141591800D01*
G75*
G02*
X142631200Y-141668000I0J-76200D01*
G01*
X142631200Y-143068000D01*
G75*
G02*
X142555000Y-143144200I-76200J0D01*
G01*
G37*
G36*
G01*
X107621000Y-188481200D02*
X106501000Y-188481200D01*
G75*
G02*
X106424800Y-188405000I0J76200D01*
G01*
X106424800Y-185965000D01*
G75*
G02*
X106501000Y-185888800I76200J0D01*
G01*
X107621000Y-185888800D01*
G75*
G02*
X107697200Y-185965000I0J-76200D01*
G01*
X107697200Y-188405000D01*
G75*
G02*
X107621000Y-188481200I-76200J0D01*
G01*
G37*
G36*
G01*
X110161000Y-188481200D02*
X109041000Y-188481200D01*
G75*
G02*
X108964800Y-188405000I0J76200D01*
G01*
X108964800Y-185965000D01*
G75*
G02*
X109041000Y-185888800I76200J0D01*
G01*
X110161000Y-185888800D01*
G75*
G02*
X110237200Y-185965000I0J-76200D01*
G01*
X110237200Y-188405000D01*
G75*
G02*
X110161000Y-188481200I-76200J0D01*
G01*
G37*
G36*
G01*
X112701000Y-188481200D02*
X111581000Y-188481200D01*
G75*
G02*
X111504800Y-188405000I0J76200D01*
G01*
X111504800Y-185965000D01*
G75*
G02*
X111581000Y-185888800I76200J0D01*
G01*
X112701000Y-185888800D01*
G75*
G02*
X112777200Y-185965000I0J-76200D01*
G01*
X112777200Y-188405000D01*
G75*
G02*
X112701000Y-188481200I-76200J0D01*
G01*
G37*
G36*
G01*
X115241000Y-188481200D02*
X114121000Y-188481200D01*
G75*
G02*
X114044800Y-188405000I0J76200D01*
G01*
X114044800Y-185965000D01*
G75*
G02*
X114121000Y-185888800I76200J0D01*
G01*
X115241000Y-185888800D01*
G75*
G02*
X115317200Y-185965000I0J-76200D01*
G01*
X115317200Y-188405000D01*
G75*
G02*
X115241000Y-188481200I-76200J0D01*
G01*
G37*
G36*
G01*
X117781000Y-188481200D02*
X116661000Y-188481200D01*
G75*
G02*
X116584800Y-188405000I0J76200D01*
G01*
X116584800Y-185965000D01*
G75*
G02*
X116661000Y-185888800I76200J0D01*
G01*
X117781000Y-185888800D01*
G75*
G02*
X117857200Y-185965000I0J-76200D01*
G01*
X117857200Y-188405000D01*
G75*
G02*
X117781000Y-188481200I-76200J0D01*
G01*
G37*
G36*
G01*
X117781000Y-179871200D02*
X116661000Y-179871200D01*
G75*
G02*
X116584800Y-179795000I0J76200D01*
G01*
X116584800Y-177355000D01*
G75*
G02*
X116661000Y-177278800I76200J0D01*
G01*
X117781000Y-177278800D01*
G75*
G02*
X117857200Y-177355000I0J-76200D01*
G01*
X117857200Y-179795000D01*
G75*
G02*
X117781000Y-179871200I-76200J0D01*
G01*
G37*
G36*
G01*
X115241000Y-179871200D02*
X114121000Y-179871200D01*
G75*
G02*
X114044800Y-179795000I0J76200D01*
G01*
X114044800Y-177355000D01*
G75*
G02*
X114121000Y-177278800I76200J0D01*
G01*
X115241000Y-177278800D01*
G75*
G02*
X115317200Y-177355000I0J-76200D01*
G01*
X115317200Y-179795000D01*
G75*
G02*
X115241000Y-179871200I-76200J0D01*
G01*
G37*
G36*
G01*
X112701000Y-179871200D02*
X111581000Y-179871200D01*
G75*
G02*
X111504800Y-179795000I0J76200D01*
G01*
X111504800Y-177355000D01*
G75*
G02*
X111581000Y-177278800I76200J0D01*
G01*
X112701000Y-177278800D01*
G75*
G02*
X112777200Y-177355000I0J-76200D01*
G01*
X112777200Y-179795000D01*
G75*
G02*
X112701000Y-179871200I-76200J0D01*
G01*
G37*
G36*
G01*
X110161000Y-179871200D02*
X109041000Y-179871200D01*
G75*
G02*
X108964800Y-179795000I0J76200D01*
G01*
X108964800Y-177355000D01*
G75*
G02*
X109041000Y-177278800I76200J0D01*
G01*
X110161000Y-177278800D01*
G75*
G02*
X110237200Y-177355000I0J-76200D01*
G01*
X110237200Y-179795000D01*
G75*
G02*
X110161000Y-179871200I-76200J0D01*
G01*
G37*
G36*
G01*
X107621000Y-179871200D02*
X106501000Y-179871200D01*
G75*
G02*
X106424800Y-179795000I0J76200D01*
G01*
X106424800Y-177355000D01*
G75*
G02*
X106501000Y-177278800I76200J0D01*
G01*
X107621000Y-177278800D01*
G75*
G02*
X107697200Y-177355000I0J-76200D01*
G01*
X107697200Y-179795000D01*
G75*
G02*
X107621000Y-179871200I-76200J0D01*
G01*
G37*
M02*
