G04 #@! TF.GenerationSoftware,KiCad,Pcbnew,6.0.10-86aedd382b~118~ubuntu18.04.1*
G04 #@! TF.CreationDate,2024-12-06T10:37:32-07:00*
G04 #@! TF.ProjectId,mss-cascade-adv,6d73732d-6361-4736-9361-64652d616476,rev?*
G04 #@! TF.SameCoordinates,Original*
G04 #@! TF.FileFunction,Paste,Top*
G04 #@! TF.FilePolarity,Positive*
%FSLAX46Y46*%
G04 Gerber Fmt 4.6, Leading zero omitted, Abs format (unit mm)*
G04 Created by KiCad (PCBNEW 6.0.10-86aedd382b~118~ubuntu18.04.1) date 2024-12-06 10:37:32*
%MOMM*%
%LPD*%
G01*
G04 APERTURE LIST*
%ADD10R,1.400000X1.900000*%
%ADD11R,1.193800X2.489200*%
%ADD12R,2.489200X1.193800*%
%ADD13R,1.800000X2.500000*%
%ADD14R,1.900000X1.400000*%
%ADD15R,1.300000X0.550000*%
%ADD16R,2.108200X5.562600*%
%ADD17R,1.120000X2.440000*%
G04 APERTURE END LIST*
G36*
G01*
X104935000Y-157554000D02*
X105885000Y-157554000D01*
G75*
G02*
X106135000Y-157804000I0J-250000D01*
G01*
X106135000Y-158304000D01*
G75*
G02*
X105885000Y-158554000I-250000J0D01*
G01*
X104935000Y-158554000D01*
G75*
G02*
X104685000Y-158304000I0J250000D01*
G01*
X104685000Y-157804000D01*
G75*
G02*
X104935000Y-157554000I250000J0D01*
G01*
G37*
G36*
G01*
X104935000Y-159454000D02*
X105885000Y-159454000D01*
G75*
G02*
X106135000Y-159704000I0J-250000D01*
G01*
X106135000Y-160204000D01*
G75*
G02*
X105885000Y-160454000I-250000J0D01*
G01*
X104935000Y-160454000D01*
G75*
G02*
X104685000Y-160204000I0J250000D01*
G01*
X104685000Y-159704000D01*
G75*
G02*
X104935000Y-159454000I250000J0D01*
G01*
G37*
G36*
G01*
X47216000Y-185362000D02*
X47216000Y-184462000D01*
G75*
G02*
X47466000Y-184212000I250000J0D01*
G01*
X47991000Y-184212000D01*
G75*
G02*
X48241000Y-184462000I0J-250000D01*
G01*
X48241000Y-185362000D01*
G75*
G02*
X47991000Y-185612000I-250000J0D01*
G01*
X47466000Y-185612000D01*
G75*
G02*
X47216000Y-185362000I0J250000D01*
G01*
G37*
G36*
G01*
X49041000Y-185362000D02*
X49041000Y-184462000D01*
G75*
G02*
X49291000Y-184212000I250000J0D01*
G01*
X49816000Y-184212000D01*
G75*
G02*
X50066000Y-184462000I0J-250000D01*
G01*
X50066000Y-185362000D01*
G75*
G02*
X49816000Y-185612000I-250000J0D01*
G01*
X49291000Y-185612000D01*
G75*
G02*
X49041000Y-185362000I0J250000D01*
G01*
G37*
D10*
X70103000Y-175260000D03*
X66803000Y-175260000D03*
G36*
G01*
X94033000Y-184437000D02*
X94033000Y-185387000D01*
G75*
G02*
X93783000Y-185637000I-250000J0D01*
G01*
X93283000Y-185637000D01*
G75*
G02*
X93033000Y-185387000I0J250000D01*
G01*
X93033000Y-184437000D01*
G75*
G02*
X93283000Y-184187000I250000J0D01*
G01*
X93783000Y-184187000D01*
G75*
G02*
X94033000Y-184437000I0J-250000D01*
G01*
G37*
G36*
G01*
X92133000Y-184437000D02*
X92133000Y-185387000D01*
G75*
G02*
X91883000Y-185637000I-250000J0D01*
G01*
X91383000Y-185637000D01*
G75*
G02*
X91133000Y-185387000I0J250000D01*
G01*
X91133000Y-184437000D01*
G75*
G02*
X91383000Y-184187000I250000J0D01*
G01*
X91883000Y-184187000D01*
G75*
G02*
X92133000Y-184437000I0J-250000D01*
G01*
G37*
G36*
G01*
X138234000Y-165580000D02*
X139134000Y-165580000D01*
G75*
G02*
X139384000Y-165830000I0J-250000D01*
G01*
X139384000Y-166355000D01*
G75*
G02*
X139134000Y-166605000I-250000J0D01*
G01*
X138234000Y-166605000D01*
G75*
G02*
X137984000Y-166355000I0J250000D01*
G01*
X137984000Y-165830000D01*
G75*
G02*
X138234000Y-165580000I250000J0D01*
G01*
G37*
G36*
G01*
X138234000Y-167405000D02*
X139134000Y-167405000D01*
G75*
G02*
X139384000Y-167655000I0J-250000D01*
G01*
X139384000Y-168180000D01*
G75*
G02*
X139134000Y-168430000I-250000J0D01*
G01*
X138234000Y-168430000D01*
G75*
G02*
X137984000Y-168180000I0J250000D01*
G01*
X137984000Y-167655000D01*
G75*
G02*
X138234000Y-167405000I250000J0D01*
G01*
G37*
G36*
G01*
X42319000Y-168714000D02*
X42319000Y-169614000D01*
G75*
G02*
X42069000Y-169864000I-250000J0D01*
G01*
X41544000Y-169864000D01*
G75*
G02*
X41294000Y-169614000I0J250000D01*
G01*
X41294000Y-168714000D01*
G75*
G02*
X41544000Y-168464000I250000J0D01*
G01*
X42069000Y-168464000D01*
G75*
G02*
X42319000Y-168714000I0J-250000D01*
G01*
G37*
G36*
G01*
X40494000Y-168714000D02*
X40494000Y-169614000D01*
G75*
G02*
X40244000Y-169864000I-250000J0D01*
G01*
X39719000Y-169864000D01*
G75*
G02*
X39469000Y-169614000I0J250000D01*
G01*
X39469000Y-168714000D01*
G75*
G02*
X39719000Y-168464000I250000J0D01*
G01*
X40244000Y-168464000D01*
G75*
G02*
X40494000Y-168714000I0J-250000D01*
G01*
G37*
G36*
G01*
X42319000Y-144457000D02*
X42319000Y-145357000D01*
G75*
G02*
X42069000Y-145607000I-250000J0D01*
G01*
X41544000Y-145607000D01*
G75*
G02*
X41294000Y-145357000I0J250000D01*
G01*
X41294000Y-144457000D01*
G75*
G02*
X41544000Y-144207000I250000J0D01*
G01*
X42069000Y-144207000D01*
G75*
G02*
X42319000Y-144457000I0J-250000D01*
G01*
G37*
G36*
G01*
X40494000Y-144457000D02*
X40494000Y-145357000D01*
G75*
G02*
X40244000Y-145607000I-250000J0D01*
G01*
X39719000Y-145607000D01*
G75*
G02*
X39469000Y-145357000I0J250000D01*
G01*
X39469000Y-144457000D01*
G75*
G02*
X39719000Y-144207000I250000J0D01*
G01*
X40244000Y-144207000D01*
G75*
G02*
X40494000Y-144457000I0J-250000D01*
G01*
G37*
G36*
G01*
X147596000Y-165884000D02*
X146346000Y-165884000D01*
G75*
G02*
X146196000Y-165734000I0J150000D01*
G01*
X146196000Y-165434000D01*
G75*
G02*
X146346000Y-165284000I150000J0D01*
G01*
X147596000Y-165284000D01*
G75*
G02*
X147746000Y-165434000I0J-150000D01*
G01*
X147746000Y-165734000D01*
G75*
G02*
X147596000Y-165884000I-150000J0D01*
G01*
G37*
G36*
G01*
X147596000Y-164884000D02*
X146346000Y-164884000D01*
G75*
G02*
X146196000Y-164734000I0J150000D01*
G01*
X146196000Y-164434000D01*
G75*
G02*
X146346000Y-164284000I150000J0D01*
G01*
X147596000Y-164284000D01*
G75*
G02*
X147746000Y-164434000I0J-150000D01*
G01*
X147746000Y-164734000D01*
G75*
G02*
X147596000Y-164884000I-150000J0D01*
G01*
G37*
G36*
G01*
X147596000Y-163884000D02*
X146346000Y-163884000D01*
G75*
G02*
X146196000Y-163734000I0J150000D01*
G01*
X146196000Y-163434000D01*
G75*
G02*
X146346000Y-163284000I150000J0D01*
G01*
X147596000Y-163284000D01*
G75*
G02*
X147746000Y-163434000I0J-150000D01*
G01*
X147746000Y-163734000D01*
G75*
G02*
X147596000Y-163884000I-150000J0D01*
G01*
G37*
G36*
G01*
X147596000Y-162884000D02*
X146346000Y-162884000D01*
G75*
G02*
X146196000Y-162734000I0J150000D01*
G01*
X146196000Y-162434000D01*
G75*
G02*
X146346000Y-162284000I150000J0D01*
G01*
X147596000Y-162284000D01*
G75*
G02*
X147746000Y-162434000I0J-150000D01*
G01*
X147746000Y-162734000D01*
G75*
G02*
X147596000Y-162884000I-150000J0D01*
G01*
G37*
G36*
G01*
X151496000Y-161884000D02*
X150196000Y-161884000D01*
G75*
G02*
X149946000Y-161634000I0J250000D01*
G01*
X149946000Y-160934000D01*
G75*
G02*
X150196000Y-160684000I250000J0D01*
G01*
X151496000Y-160684000D01*
G75*
G02*
X151746000Y-160934000I0J-250000D01*
G01*
X151746000Y-161634000D01*
G75*
G02*
X151496000Y-161884000I-250000J0D01*
G01*
G37*
G36*
G01*
X151496000Y-167484000D02*
X150196000Y-167484000D01*
G75*
G02*
X149946000Y-167234000I0J250000D01*
G01*
X149946000Y-166534000D01*
G75*
G02*
X150196000Y-166284000I250000J0D01*
G01*
X151496000Y-166284000D01*
G75*
G02*
X151746000Y-166534000I0J-250000D01*
G01*
X151746000Y-167234000D01*
G75*
G02*
X151496000Y-167484000I-250000J0D01*
G01*
G37*
G36*
G01*
X84602500Y-137997250D02*
X84602500Y-137084750D01*
G75*
G02*
X84846250Y-136841000I243750J0D01*
G01*
X85333750Y-136841000D01*
G75*
G02*
X85577500Y-137084750I0J-243750D01*
G01*
X85577500Y-137997250D01*
G75*
G02*
X85333750Y-138241000I-243750J0D01*
G01*
X84846250Y-138241000D01*
G75*
G02*
X84602500Y-137997250I0J243750D01*
G01*
G37*
G36*
G01*
X86477500Y-137997250D02*
X86477500Y-137084750D01*
G75*
G02*
X86721250Y-136841000I243750J0D01*
G01*
X87208750Y-136841000D01*
G75*
G02*
X87452500Y-137084750I0J-243750D01*
G01*
X87452500Y-137997250D01*
G75*
G02*
X87208750Y-138241000I-243750J0D01*
G01*
X86721250Y-138241000D01*
G75*
G02*
X86477500Y-137997250I0J243750D01*
G01*
G37*
G36*
G01*
X121518000Y-151026000D02*
X121518000Y-150726000D01*
G75*
G02*
X121668000Y-150576000I150000J0D01*
G01*
X123118000Y-150576000D01*
G75*
G02*
X123268000Y-150726000I0J-150000D01*
G01*
X123268000Y-151026000D01*
G75*
G02*
X123118000Y-151176000I-150000J0D01*
G01*
X121668000Y-151176000D01*
G75*
G02*
X121518000Y-151026000I0J150000D01*
G01*
G37*
G36*
G01*
X121518000Y-152296000D02*
X121518000Y-151996000D01*
G75*
G02*
X121668000Y-151846000I150000J0D01*
G01*
X123118000Y-151846000D01*
G75*
G02*
X123268000Y-151996000I0J-150000D01*
G01*
X123268000Y-152296000D01*
G75*
G02*
X123118000Y-152446000I-150000J0D01*
G01*
X121668000Y-152446000D01*
G75*
G02*
X121518000Y-152296000I0J150000D01*
G01*
G37*
G36*
G01*
X121518000Y-153566000D02*
X121518000Y-153266000D01*
G75*
G02*
X121668000Y-153116000I150000J0D01*
G01*
X123118000Y-153116000D01*
G75*
G02*
X123268000Y-153266000I0J-150000D01*
G01*
X123268000Y-153566000D01*
G75*
G02*
X123118000Y-153716000I-150000J0D01*
G01*
X121668000Y-153716000D01*
G75*
G02*
X121518000Y-153566000I0J150000D01*
G01*
G37*
G36*
G01*
X121518000Y-154836000D02*
X121518000Y-154536000D01*
G75*
G02*
X121668000Y-154386000I150000J0D01*
G01*
X123118000Y-154386000D01*
G75*
G02*
X123268000Y-154536000I0J-150000D01*
G01*
X123268000Y-154836000D01*
G75*
G02*
X123118000Y-154986000I-150000J0D01*
G01*
X121668000Y-154986000D01*
G75*
G02*
X121518000Y-154836000I0J150000D01*
G01*
G37*
G36*
G01*
X121518000Y-156106000D02*
X121518000Y-155806000D01*
G75*
G02*
X121668000Y-155656000I150000J0D01*
G01*
X123118000Y-155656000D01*
G75*
G02*
X123268000Y-155806000I0J-150000D01*
G01*
X123268000Y-156106000D01*
G75*
G02*
X123118000Y-156256000I-150000J0D01*
G01*
X121668000Y-156256000D01*
G75*
G02*
X121518000Y-156106000I0J150000D01*
G01*
G37*
G36*
G01*
X121518000Y-157376000D02*
X121518000Y-157076000D01*
G75*
G02*
X121668000Y-156926000I150000J0D01*
G01*
X123118000Y-156926000D01*
G75*
G02*
X123268000Y-157076000I0J-150000D01*
G01*
X123268000Y-157376000D01*
G75*
G02*
X123118000Y-157526000I-150000J0D01*
G01*
X121668000Y-157526000D01*
G75*
G02*
X121518000Y-157376000I0J150000D01*
G01*
G37*
G36*
G01*
X121518000Y-158646000D02*
X121518000Y-158346000D01*
G75*
G02*
X121668000Y-158196000I150000J0D01*
G01*
X123118000Y-158196000D01*
G75*
G02*
X123268000Y-158346000I0J-150000D01*
G01*
X123268000Y-158646000D01*
G75*
G02*
X123118000Y-158796000I-150000J0D01*
G01*
X121668000Y-158796000D01*
G75*
G02*
X121518000Y-158646000I0J150000D01*
G01*
G37*
G36*
G01*
X121518000Y-159916000D02*
X121518000Y-159616000D01*
G75*
G02*
X121668000Y-159466000I150000J0D01*
G01*
X123118000Y-159466000D01*
G75*
G02*
X123268000Y-159616000I0J-150000D01*
G01*
X123268000Y-159916000D01*
G75*
G02*
X123118000Y-160066000I-150000J0D01*
G01*
X121668000Y-160066000D01*
G75*
G02*
X121518000Y-159916000I0J150000D01*
G01*
G37*
G36*
G01*
X126668000Y-159916000D02*
X126668000Y-159616000D01*
G75*
G02*
X126818000Y-159466000I150000J0D01*
G01*
X128268000Y-159466000D01*
G75*
G02*
X128418000Y-159616000I0J-150000D01*
G01*
X128418000Y-159916000D01*
G75*
G02*
X128268000Y-160066000I-150000J0D01*
G01*
X126818000Y-160066000D01*
G75*
G02*
X126668000Y-159916000I0J150000D01*
G01*
G37*
G36*
G01*
X126668000Y-158646000D02*
X126668000Y-158346000D01*
G75*
G02*
X126818000Y-158196000I150000J0D01*
G01*
X128268000Y-158196000D01*
G75*
G02*
X128418000Y-158346000I0J-150000D01*
G01*
X128418000Y-158646000D01*
G75*
G02*
X128268000Y-158796000I-150000J0D01*
G01*
X126818000Y-158796000D01*
G75*
G02*
X126668000Y-158646000I0J150000D01*
G01*
G37*
G36*
G01*
X126668000Y-157376000D02*
X126668000Y-157076000D01*
G75*
G02*
X126818000Y-156926000I150000J0D01*
G01*
X128268000Y-156926000D01*
G75*
G02*
X128418000Y-157076000I0J-150000D01*
G01*
X128418000Y-157376000D01*
G75*
G02*
X128268000Y-157526000I-150000J0D01*
G01*
X126818000Y-157526000D01*
G75*
G02*
X126668000Y-157376000I0J150000D01*
G01*
G37*
G36*
G01*
X126668000Y-156106000D02*
X126668000Y-155806000D01*
G75*
G02*
X126818000Y-155656000I150000J0D01*
G01*
X128268000Y-155656000D01*
G75*
G02*
X128418000Y-155806000I0J-150000D01*
G01*
X128418000Y-156106000D01*
G75*
G02*
X128268000Y-156256000I-150000J0D01*
G01*
X126818000Y-156256000D01*
G75*
G02*
X126668000Y-156106000I0J150000D01*
G01*
G37*
G36*
G01*
X126668000Y-154836000D02*
X126668000Y-154536000D01*
G75*
G02*
X126818000Y-154386000I150000J0D01*
G01*
X128268000Y-154386000D01*
G75*
G02*
X128418000Y-154536000I0J-150000D01*
G01*
X128418000Y-154836000D01*
G75*
G02*
X128268000Y-154986000I-150000J0D01*
G01*
X126818000Y-154986000D01*
G75*
G02*
X126668000Y-154836000I0J150000D01*
G01*
G37*
G36*
G01*
X126668000Y-153566000D02*
X126668000Y-153266000D01*
G75*
G02*
X126818000Y-153116000I150000J0D01*
G01*
X128268000Y-153116000D01*
G75*
G02*
X128418000Y-153266000I0J-150000D01*
G01*
X128418000Y-153566000D01*
G75*
G02*
X128268000Y-153716000I-150000J0D01*
G01*
X126818000Y-153716000D01*
G75*
G02*
X126668000Y-153566000I0J150000D01*
G01*
G37*
G36*
G01*
X126668000Y-152296000D02*
X126668000Y-151996000D01*
G75*
G02*
X126818000Y-151846000I150000J0D01*
G01*
X128268000Y-151846000D01*
G75*
G02*
X128418000Y-151996000I0J-150000D01*
G01*
X128418000Y-152296000D01*
G75*
G02*
X128268000Y-152446000I-150000J0D01*
G01*
X126818000Y-152446000D01*
G75*
G02*
X126668000Y-152296000I0J150000D01*
G01*
G37*
G36*
G01*
X126668000Y-151026000D02*
X126668000Y-150726000D01*
G75*
G02*
X126818000Y-150576000I150000J0D01*
G01*
X128268000Y-150576000D01*
G75*
G02*
X128418000Y-150726000I0J-150000D01*
G01*
X128418000Y-151026000D01*
G75*
G02*
X128268000Y-151176000I-150000J0D01*
G01*
X126818000Y-151176000D01*
G75*
G02*
X126668000Y-151026000I0J150000D01*
G01*
G37*
G36*
G01*
X139196500Y-141282000D02*
X139196500Y-142182000D01*
G75*
G02*
X138946500Y-142432000I-250000J0D01*
G01*
X138421500Y-142432000D01*
G75*
G02*
X138171500Y-142182000I0J250000D01*
G01*
X138171500Y-141282000D01*
G75*
G02*
X138421500Y-141032000I250000J0D01*
G01*
X138946500Y-141032000D01*
G75*
G02*
X139196500Y-141282000I0J-250000D01*
G01*
G37*
G36*
G01*
X137371500Y-141282000D02*
X137371500Y-142182000D01*
G75*
G02*
X137121500Y-142432000I-250000J0D01*
G01*
X136596500Y-142432000D01*
G75*
G02*
X136346500Y-142182000I0J250000D01*
G01*
X136346500Y-141282000D01*
G75*
G02*
X136596500Y-141032000I250000J0D01*
G01*
X137121500Y-141032000D01*
G75*
G02*
X137371500Y-141282000I0J-250000D01*
G01*
G37*
G36*
G01*
X73428000Y-166789000D02*
X73428000Y-167089000D01*
G75*
G02*
X73278000Y-167239000I-150000J0D01*
G01*
X72253000Y-167239000D01*
G75*
G02*
X72103000Y-167089000I0J150000D01*
G01*
X72103000Y-166789000D01*
G75*
G02*
X72253000Y-166639000I150000J0D01*
G01*
X73278000Y-166639000D01*
G75*
G02*
X73428000Y-166789000I0J-150000D01*
G01*
G37*
G36*
G01*
X73428000Y-165839000D02*
X73428000Y-166139000D01*
G75*
G02*
X73278000Y-166289000I-150000J0D01*
G01*
X72253000Y-166289000D01*
G75*
G02*
X72103000Y-166139000I0J150000D01*
G01*
X72103000Y-165839000D01*
G75*
G02*
X72253000Y-165689000I150000J0D01*
G01*
X73278000Y-165689000D01*
G75*
G02*
X73428000Y-165839000I0J-150000D01*
G01*
G37*
G36*
G01*
X73428000Y-164889000D02*
X73428000Y-165189000D01*
G75*
G02*
X73278000Y-165339000I-150000J0D01*
G01*
X72253000Y-165339000D01*
G75*
G02*
X72103000Y-165189000I0J150000D01*
G01*
X72103000Y-164889000D01*
G75*
G02*
X72253000Y-164739000I150000J0D01*
G01*
X73278000Y-164739000D01*
G75*
G02*
X73428000Y-164889000I0J-150000D01*
G01*
G37*
G36*
G01*
X71153000Y-164889000D02*
X71153000Y-165189000D01*
G75*
G02*
X71003000Y-165339000I-150000J0D01*
G01*
X69978000Y-165339000D01*
G75*
G02*
X69828000Y-165189000I0J150000D01*
G01*
X69828000Y-164889000D01*
G75*
G02*
X69978000Y-164739000I150000J0D01*
G01*
X71003000Y-164739000D01*
G75*
G02*
X71153000Y-164889000I0J-150000D01*
G01*
G37*
G36*
G01*
X71153000Y-166789000D02*
X71153000Y-167089000D01*
G75*
G02*
X71003000Y-167239000I-150000J0D01*
G01*
X69978000Y-167239000D01*
G75*
G02*
X69828000Y-167089000I0J150000D01*
G01*
X69828000Y-166789000D01*
G75*
G02*
X69978000Y-166639000I150000J0D01*
G01*
X71003000Y-166639000D01*
G75*
G02*
X71153000Y-166789000I0J-150000D01*
G01*
G37*
G36*
G01*
X121003000Y-133546000D02*
X121003000Y-132646000D01*
G75*
G02*
X121253000Y-132396000I250000J0D01*
G01*
X121778000Y-132396000D01*
G75*
G02*
X122028000Y-132646000I0J-250000D01*
G01*
X122028000Y-133546000D01*
G75*
G02*
X121778000Y-133796000I-250000J0D01*
G01*
X121253000Y-133796000D01*
G75*
G02*
X121003000Y-133546000I0J250000D01*
G01*
G37*
G36*
G01*
X122828000Y-133546000D02*
X122828000Y-132646000D01*
G75*
G02*
X123078000Y-132396000I250000J0D01*
G01*
X123603000Y-132396000D01*
G75*
G02*
X123853000Y-132646000I0J-250000D01*
G01*
X123853000Y-133546000D01*
G75*
G02*
X123603000Y-133796000I-250000J0D01*
G01*
X123078000Y-133796000D01*
G75*
G02*
X122828000Y-133546000I0J250000D01*
G01*
G37*
G36*
G01*
X95887000Y-186253000D02*
X96991000Y-186253000D01*
G75*
G02*
X97129000Y-186391000I0J-138000D01*
G01*
X97129000Y-188215000D01*
G75*
G02*
X96991000Y-188353000I-138000J0D01*
G01*
X95887000Y-188353000D01*
G75*
G02*
X95749000Y-188215000I0J138000D01*
G01*
X95749000Y-186391000D01*
G75*
G02*
X95887000Y-186253000I138000J0D01*
G01*
G37*
G36*
G01*
X95887000Y-177153000D02*
X96991000Y-177153000D01*
G75*
G02*
X97129000Y-177291000I0J-138000D01*
G01*
X97129000Y-179115000D01*
G75*
G02*
X96991000Y-179253000I-138000J0D01*
G01*
X95887000Y-179253000D01*
G75*
G02*
X95749000Y-179115000I0J138000D01*
G01*
X95749000Y-177291000D01*
G75*
G02*
X95887000Y-177153000I138000J0D01*
G01*
G37*
G36*
G01*
X100367000Y-186253000D02*
X101471000Y-186253000D01*
G75*
G02*
X101609000Y-186391000I0J-138000D01*
G01*
X101609000Y-188215000D01*
G75*
G02*
X101471000Y-188353000I-138000J0D01*
G01*
X100367000Y-188353000D01*
G75*
G02*
X100229000Y-188215000I0J138000D01*
G01*
X100229000Y-186391000D01*
G75*
G02*
X100367000Y-186253000I138000J0D01*
G01*
G37*
G36*
G01*
X100367000Y-177153000D02*
X101471000Y-177153000D01*
G75*
G02*
X101609000Y-177291000I0J-138000D01*
G01*
X101609000Y-179115000D01*
G75*
G02*
X101471000Y-179253000I-138000J0D01*
G01*
X100367000Y-179253000D01*
G75*
G02*
X100229000Y-179115000I0J138000D01*
G01*
X100229000Y-177291000D01*
G75*
G02*
X100367000Y-177153000I138000J0D01*
G01*
G37*
G36*
G01*
X84554000Y-150316250D02*
X84554000Y-149403750D01*
G75*
G02*
X84797750Y-149160000I243750J0D01*
G01*
X85285250Y-149160000D01*
G75*
G02*
X85529000Y-149403750I0J-243750D01*
G01*
X85529000Y-150316250D01*
G75*
G02*
X85285250Y-150560000I-243750J0D01*
G01*
X84797750Y-150560000D01*
G75*
G02*
X84554000Y-150316250I0J243750D01*
G01*
G37*
G36*
G01*
X86429000Y-150316250D02*
X86429000Y-149403750D01*
G75*
G02*
X86672750Y-149160000I243750J0D01*
G01*
X87160250Y-149160000D01*
G75*
G02*
X87404000Y-149403750I0J-243750D01*
G01*
X87404000Y-150316250D01*
G75*
G02*
X87160250Y-150560000I-243750J0D01*
G01*
X86672750Y-150560000D01*
G75*
G02*
X86429000Y-150316250I0J243750D01*
G01*
G37*
G36*
G01*
X134800000Y-154465000D02*
X134800000Y-155415000D01*
G75*
G02*
X134550000Y-155665000I-250000J0D01*
G01*
X134050000Y-155665000D01*
G75*
G02*
X133800000Y-155415000I0J250000D01*
G01*
X133800000Y-154465000D01*
G75*
G02*
X134050000Y-154215000I250000J0D01*
G01*
X134550000Y-154215000D01*
G75*
G02*
X134800000Y-154465000I0J-250000D01*
G01*
G37*
G36*
G01*
X132900000Y-154465000D02*
X132900000Y-155415000D01*
G75*
G02*
X132650000Y-155665000I-250000J0D01*
G01*
X132150000Y-155665000D01*
G75*
G02*
X131900000Y-155415000I0J250000D01*
G01*
X131900000Y-154465000D01*
G75*
G02*
X132150000Y-154215000I250000J0D01*
G01*
X132650000Y-154215000D01*
G75*
G02*
X132900000Y-154465000I0J-250000D01*
G01*
G37*
G36*
G01*
X61163000Y-120537000D02*
X61163000Y-121737000D01*
G75*
G02*
X60963000Y-121937000I-200000J0D01*
G01*
X60563000Y-121937000D01*
G75*
G02*
X60363000Y-121737000I0J200000D01*
G01*
X60363000Y-120537000D01*
G75*
G02*
X60563000Y-120337000I200000J0D01*
G01*
X60963000Y-120337000D01*
G75*
G02*
X61163000Y-120537000I0J-200000D01*
G01*
G37*
G36*
G01*
X59913000Y-120537000D02*
X59913000Y-121737000D01*
G75*
G02*
X59713000Y-121937000I-200000J0D01*
G01*
X59313000Y-121937000D01*
G75*
G02*
X59113000Y-121737000I0J200000D01*
G01*
X59113000Y-120537000D01*
G75*
G02*
X59313000Y-120337000I200000J0D01*
G01*
X59713000Y-120337000D01*
G75*
G02*
X59913000Y-120537000I0J-200000D01*
G01*
G37*
G36*
G01*
X58663000Y-120537000D02*
X58663000Y-121737000D01*
G75*
G02*
X58463000Y-121937000I-200000J0D01*
G01*
X58063000Y-121937000D01*
G75*
G02*
X57863000Y-121737000I0J200000D01*
G01*
X57863000Y-120537000D01*
G75*
G02*
X58063000Y-120337000I200000J0D01*
G01*
X58463000Y-120337000D01*
G75*
G02*
X58663000Y-120537000I0J-200000D01*
G01*
G37*
G36*
G01*
X57413000Y-120537000D02*
X57413000Y-121737000D01*
G75*
G02*
X57213000Y-121937000I-200000J0D01*
G01*
X56813000Y-121937000D01*
G75*
G02*
X56613000Y-121737000I0J200000D01*
G01*
X56613000Y-120537000D01*
G75*
G02*
X56813000Y-120337000I200000J0D01*
G01*
X57213000Y-120337000D01*
G75*
G02*
X57413000Y-120537000I0J-200000D01*
G01*
G37*
G36*
G01*
X55513000Y-116987001D02*
X55513000Y-119486999D01*
G75*
G02*
X55262999Y-119737000I-250001J0D01*
G01*
X53663001Y-119737000D01*
G75*
G02*
X53413000Y-119486999I0J250001D01*
G01*
X53413000Y-116987001D01*
G75*
G02*
X53663001Y-116737000I250001J0D01*
G01*
X55262999Y-116737000D01*
G75*
G02*
X55513000Y-116987001I0J-250001D01*
G01*
G37*
G36*
G01*
X64363000Y-116987001D02*
X64363000Y-119486999D01*
G75*
G02*
X64112999Y-119737000I-250001J0D01*
G01*
X62513001Y-119737000D01*
G75*
G02*
X62263000Y-119486999I0J250001D01*
G01*
X62263000Y-116987001D01*
G75*
G02*
X62513001Y-116737000I250001J0D01*
G01*
X64112999Y-116737000D01*
G75*
G02*
X64363000Y-116987001I0J-250001D01*
G01*
G37*
G36*
G01*
X96595250Y-173637000D02*
X95682750Y-173637000D01*
G75*
G02*
X95439000Y-173393250I0J243750D01*
G01*
X95439000Y-172905750D01*
G75*
G02*
X95682750Y-172662000I243750J0D01*
G01*
X96595250Y-172662000D01*
G75*
G02*
X96839000Y-172905750I0J-243750D01*
G01*
X96839000Y-173393250D01*
G75*
G02*
X96595250Y-173637000I-243750J0D01*
G01*
G37*
G36*
G01*
X96595250Y-171762000D02*
X95682750Y-171762000D01*
G75*
G02*
X95439000Y-171518250I0J243750D01*
G01*
X95439000Y-171030750D01*
G75*
G02*
X95682750Y-170787000I243750J0D01*
G01*
X96595250Y-170787000D01*
G75*
G02*
X96839000Y-171030750I0J-243750D01*
G01*
X96839000Y-171518250D01*
G75*
G02*
X96595250Y-171762000I-243750J0D01*
G01*
G37*
G36*
G01*
X139134000Y-164366000D02*
X138234000Y-164366000D01*
G75*
G02*
X137984000Y-164116000I0J250000D01*
G01*
X137984000Y-163591000D01*
G75*
G02*
X138234000Y-163341000I250000J0D01*
G01*
X139134000Y-163341000D01*
G75*
G02*
X139384000Y-163591000I0J-250000D01*
G01*
X139384000Y-164116000D01*
G75*
G02*
X139134000Y-164366000I-250000J0D01*
G01*
G37*
G36*
G01*
X139134000Y-162541000D02*
X138234000Y-162541000D01*
G75*
G02*
X137984000Y-162291000I0J250000D01*
G01*
X137984000Y-161766000D01*
G75*
G02*
X138234000Y-161516000I250000J0D01*
G01*
X139134000Y-161516000D01*
G75*
G02*
X139384000Y-161766000I0J-250000D01*
G01*
X139384000Y-162291000D01*
G75*
G02*
X139134000Y-162541000I-250000J0D01*
G01*
G37*
G36*
G01*
X84602500Y-135711250D02*
X84602500Y-134798750D01*
G75*
G02*
X84846250Y-134555000I243750J0D01*
G01*
X85333750Y-134555000D01*
G75*
G02*
X85577500Y-134798750I0J-243750D01*
G01*
X85577500Y-135711250D01*
G75*
G02*
X85333750Y-135955000I-243750J0D01*
G01*
X84846250Y-135955000D01*
G75*
G02*
X84602500Y-135711250I0J243750D01*
G01*
G37*
G36*
G01*
X86477500Y-135711250D02*
X86477500Y-134798750D01*
G75*
G02*
X86721250Y-134555000I243750J0D01*
G01*
X87208750Y-134555000D01*
G75*
G02*
X87452500Y-134798750I0J-243750D01*
G01*
X87452500Y-135711250D01*
G75*
G02*
X87208750Y-135955000I-243750J0D01*
G01*
X86721250Y-135955000D01*
G75*
G02*
X86477500Y-135711250I0J243750D01*
G01*
G37*
G36*
G01*
X134800000Y-137955000D02*
X134800000Y-138905000D01*
G75*
G02*
X134550000Y-139155000I-250000J0D01*
G01*
X134050000Y-139155000D01*
G75*
G02*
X133800000Y-138905000I0J250000D01*
G01*
X133800000Y-137955000D01*
G75*
G02*
X134050000Y-137705000I250000J0D01*
G01*
X134550000Y-137705000D01*
G75*
G02*
X134800000Y-137955000I0J-250000D01*
G01*
G37*
G36*
G01*
X132900000Y-137955000D02*
X132900000Y-138905000D01*
G75*
G02*
X132650000Y-139155000I-250000J0D01*
G01*
X132150000Y-139155000D01*
G75*
G02*
X131900000Y-138905000I0J250000D01*
G01*
X131900000Y-137955000D01*
G75*
G02*
X132150000Y-137705000I250000J0D01*
G01*
X132650000Y-137705000D01*
G75*
G02*
X132900000Y-137955000I0J-250000D01*
G01*
G37*
G36*
G01*
X42263000Y-185368250D02*
X42263000Y-184455750D01*
G75*
G02*
X42506750Y-184212000I243750J0D01*
G01*
X42994250Y-184212000D01*
G75*
G02*
X43238000Y-184455750I0J-243750D01*
G01*
X43238000Y-185368250D01*
G75*
G02*
X42994250Y-185612000I-243750J0D01*
G01*
X42506750Y-185612000D01*
G75*
G02*
X42263000Y-185368250I0J243750D01*
G01*
G37*
G36*
G01*
X44138000Y-185368250D02*
X44138000Y-184455750D01*
G75*
G02*
X44381750Y-184212000I243750J0D01*
G01*
X44869250Y-184212000D01*
G75*
G02*
X45113000Y-184455750I0J-243750D01*
G01*
X45113000Y-185368250D01*
G75*
G02*
X44869250Y-185612000I-243750J0D01*
G01*
X44381750Y-185612000D01*
G75*
G02*
X44138000Y-185368250I0J243750D01*
G01*
G37*
D11*
X116038000Y-123188850D03*
X113538000Y-123188850D03*
X111038000Y-123188850D03*
X116038000Y-128700650D03*
X113538000Y-128700650D03*
X111038000Y-128700650D03*
G36*
G01*
X139196500Y-137980000D02*
X139196500Y-138880000D01*
G75*
G02*
X138946500Y-139130000I-250000J0D01*
G01*
X138421500Y-139130000D01*
G75*
G02*
X138171500Y-138880000I0J250000D01*
G01*
X138171500Y-137980000D01*
G75*
G02*
X138421500Y-137730000I250000J0D01*
G01*
X138946500Y-137730000D01*
G75*
G02*
X139196500Y-137980000I0J-250000D01*
G01*
G37*
G36*
G01*
X137371500Y-137980000D02*
X137371500Y-138880000D01*
G75*
G02*
X137121500Y-139130000I-250000J0D01*
G01*
X136596500Y-139130000D01*
G75*
G02*
X136346500Y-138880000I0J250000D01*
G01*
X136346500Y-137980000D01*
G75*
G02*
X136596500Y-137730000I250000J0D01*
G01*
X137121500Y-137730000D01*
G75*
G02*
X137371500Y-137980000I0J-250000D01*
G01*
G37*
G36*
G01*
X42319000Y-137853000D02*
X42319000Y-138753000D01*
G75*
G02*
X42069000Y-139003000I-250000J0D01*
G01*
X41544000Y-139003000D01*
G75*
G02*
X41294000Y-138753000I0J250000D01*
G01*
X41294000Y-137853000D01*
G75*
G02*
X41544000Y-137603000I250000J0D01*
G01*
X42069000Y-137603000D01*
G75*
G02*
X42319000Y-137853000I0J-250000D01*
G01*
G37*
G36*
G01*
X40494000Y-137853000D02*
X40494000Y-138753000D01*
G75*
G02*
X40244000Y-139003000I-250000J0D01*
G01*
X39719000Y-139003000D01*
G75*
G02*
X39469000Y-138753000I0J250000D01*
G01*
X39469000Y-137853000D01*
G75*
G02*
X39719000Y-137603000I250000J0D01*
G01*
X40244000Y-137603000D01*
G75*
G02*
X40494000Y-137853000I0J-250000D01*
G01*
G37*
G36*
G01*
X139196500Y-151188000D02*
X139196500Y-152088000D01*
G75*
G02*
X138946500Y-152338000I-250000J0D01*
G01*
X138421500Y-152338000D01*
G75*
G02*
X138171500Y-152088000I0J250000D01*
G01*
X138171500Y-151188000D01*
G75*
G02*
X138421500Y-150938000I250000J0D01*
G01*
X138946500Y-150938000D01*
G75*
G02*
X139196500Y-151188000I0J-250000D01*
G01*
G37*
G36*
G01*
X137371500Y-151188000D02*
X137371500Y-152088000D01*
G75*
G02*
X137121500Y-152338000I-250000J0D01*
G01*
X136596500Y-152338000D01*
G75*
G02*
X136346500Y-152088000I0J250000D01*
G01*
X136346500Y-151188000D01*
G75*
G02*
X136596500Y-150938000I250000J0D01*
G01*
X137121500Y-150938000D01*
G75*
G02*
X137371500Y-151188000I0J-250000D01*
G01*
G37*
G36*
G01*
X89025000Y-179253000D02*
X87921000Y-179253000D01*
G75*
G02*
X87783000Y-179115000I0J138000D01*
G01*
X87783000Y-177291000D01*
G75*
G02*
X87921000Y-177153000I138000J0D01*
G01*
X89025000Y-177153000D01*
G75*
G02*
X89163000Y-177291000I0J-138000D01*
G01*
X89163000Y-179115000D01*
G75*
G02*
X89025000Y-179253000I-138000J0D01*
G01*
G37*
G36*
G01*
X89025000Y-188353000D02*
X87921000Y-188353000D01*
G75*
G02*
X87783000Y-188215000I0J138000D01*
G01*
X87783000Y-186391000D01*
G75*
G02*
X87921000Y-186253000I138000J0D01*
G01*
X89025000Y-186253000D01*
G75*
G02*
X89163000Y-186391000I0J-138000D01*
G01*
X89163000Y-188215000D01*
G75*
G02*
X89025000Y-188353000I-138000J0D01*
G01*
G37*
G36*
G01*
X84545000Y-179253000D02*
X83441000Y-179253000D01*
G75*
G02*
X83303000Y-179115000I0J138000D01*
G01*
X83303000Y-177291000D01*
G75*
G02*
X83441000Y-177153000I138000J0D01*
G01*
X84545000Y-177153000D01*
G75*
G02*
X84683000Y-177291000I0J-138000D01*
G01*
X84683000Y-179115000D01*
G75*
G02*
X84545000Y-179253000I-138000J0D01*
G01*
G37*
G36*
G01*
X84545000Y-188353000D02*
X83441000Y-188353000D01*
G75*
G02*
X83303000Y-188215000I0J138000D01*
G01*
X83303000Y-186391000D01*
G75*
G02*
X83441000Y-186253000I138000J0D01*
G01*
X84545000Y-186253000D01*
G75*
G02*
X84683000Y-186391000I0J-138000D01*
G01*
X84683000Y-188215000D01*
G75*
G02*
X84545000Y-188353000I-138000J0D01*
G01*
G37*
G36*
G01*
X42319000Y-141155000D02*
X42319000Y-142055000D01*
G75*
G02*
X42069000Y-142305000I-250000J0D01*
G01*
X41544000Y-142305000D01*
G75*
G02*
X41294000Y-142055000I0J250000D01*
G01*
X41294000Y-141155000D01*
G75*
G02*
X41544000Y-140905000I250000J0D01*
G01*
X42069000Y-140905000D01*
G75*
G02*
X42319000Y-141155000I0J-250000D01*
G01*
G37*
G36*
G01*
X40494000Y-141155000D02*
X40494000Y-142055000D01*
G75*
G02*
X40244000Y-142305000I-250000J0D01*
G01*
X39719000Y-142305000D01*
G75*
G02*
X39469000Y-142055000I0J250000D01*
G01*
X39469000Y-141155000D01*
G75*
G02*
X39719000Y-140905000I250000J0D01*
G01*
X40244000Y-140905000D01*
G75*
G02*
X40494000Y-141155000I0J-250000D01*
G01*
G37*
G36*
G01*
X135313000Y-161516000D02*
X136213000Y-161516000D01*
G75*
G02*
X136463000Y-161766000I0J-250000D01*
G01*
X136463000Y-162291000D01*
G75*
G02*
X136213000Y-162541000I-250000J0D01*
G01*
X135313000Y-162541000D01*
G75*
G02*
X135063000Y-162291000I0J250000D01*
G01*
X135063000Y-161766000D01*
G75*
G02*
X135313000Y-161516000I250000J0D01*
G01*
G37*
G36*
G01*
X135313000Y-163341000D02*
X136213000Y-163341000D01*
G75*
G02*
X136463000Y-163591000I0J-250000D01*
G01*
X136463000Y-164116000D01*
G75*
G02*
X136213000Y-164366000I-250000J0D01*
G01*
X135313000Y-164366000D01*
G75*
G02*
X135063000Y-164116000I0J250000D01*
G01*
X135063000Y-163591000D01*
G75*
G02*
X135313000Y-163341000I250000J0D01*
G01*
G37*
G36*
G01*
X42319000Y-172016000D02*
X42319000Y-172916000D01*
G75*
G02*
X42069000Y-173166000I-250000J0D01*
G01*
X41544000Y-173166000D01*
G75*
G02*
X41294000Y-172916000I0J250000D01*
G01*
X41294000Y-172016000D01*
G75*
G02*
X41544000Y-171766000I250000J0D01*
G01*
X42069000Y-171766000D01*
G75*
G02*
X42319000Y-172016000I0J-250000D01*
G01*
G37*
G36*
G01*
X40494000Y-172016000D02*
X40494000Y-172916000D01*
G75*
G02*
X40244000Y-173166000I-250000J0D01*
G01*
X39719000Y-173166000D01*
G75*
G02*
X39469000Y-172916000I0J250000D01*
G01*
X39469000Y-172016000D01*
G75*
G02*
X39719000Y-171766000I250000J0D01*
G01*
X40244000Y-171766000D01*
G75*
G02*
X40494000Y-172016000I0J-250000D01*
G01*
G37*
G36*
G01*
X59154000Y-148913000D02*
X59154000Y-148013000D01*
G75*
G02*
X59404000Y-147763000I250000J0D01*
G01*
X59929000Y-147763000D01*
G75*
G02*
X60179000Y-148013000I0J-250000D01*
G01*
X60179000Y-148913000D01*
G75*
G02*
X59929000Y-149163000I-250000J0D01*
G01*
X59404000Y-149163000D01*
G75*
G02*
X59154000Y-148913000I0J250000D01*
G01*
G37*
G36*
G01*
X60979000Y-148913000D02*
X60979000Y-148013000D01*
G75*
G02*
X61229000Y-147763000I250000J0D01*
G01*
X61754000Y-147763000D01*
G75*
G02*
X62004000Y-148013000I0J-250000D01*
G01*
X62004000Y-148913000D01*
G75*
G02*
X61754000Y-149163000I-250000J0D01*
G01*
X61229000Y-149163000D01*
G75*
G02*
X60979000Y-148913000I0J250000D01*
G01*
G37*
G36*
G01*
X105570000Y-140663000D02*
X106520000Y-140663000D01*
G75*
G02*
X106770000Y-140913000I0J-250000D01*
G01*
X106770000Y-141413000D01*
G75*
G02*
X106520000Y-141663000I-250000J0D01*
G01*
X105570000Y-141663000D01*
G75*
G02*
X105320000Y-141413000I0J250000D01*
G01*
X105320000Y-140913000D01*
G75*
G02*
X105570000Y-140663000I250000J0D01*
G01*
G37*
G36*
G01*
X105570000Y-142563000D02*
X106520000Y-142563000D01*
G75*
G02*
X106770000Y-142813000I0J-250000D01*
G01*
X106770000Y-143313000D01*
G75*
G02*
X106520000Y-143563000I-250000J0D01*
G01*
X105570000Y-143563000D01*
G75*
G02*
X105320000Y-143313000I0J250000D01*
G01*
X105320000Y-142813000D01*
G75*
G02*
X105570000Y-142563000I250000J0D01*
G01*
G37*
G36*
G01*
X42319000Y-134551000D02*
X42319000Y-135451000D01*
G75*
G02*
X42069000Y-135701000I-250000J0D01*
G01*
X41544000Y-135701000D01*
G75*
G02*
X41294000Y-135451000I0J250000D01*
G01*
X41294000Y-134551000D01*
G75*
G02*
X41544000Y-134301000I250000J0D01*
G01*
X42069000Y-134301000D01*
G75*
G02*
X42319000Y-134551000I0J-250000D01*
G01*
G37*
G36*
G01*
X40494000Y-134551000D02*
X40494000Y-135451000D01*
G75*
G02*
X40244000Y-135701000I-250000J0D01*
G01*
X39719000Y-135701000D01*
G75*
G02*
X39469000Y-135451000I0J250000D01*
G01*
X39469000Y-134551000D01*
G75*
G02*
X39719000Y-134301000I250000J0D01*
G01*
X40244000Y-134301000D01*
G75*
G02*
X40494000Y-134551000I0J-250000D01*
G01*
G37*
G36*
G01*
X87475000Y-174319250D02*
X87475000Y-173406750D01*
G75*
G02*
X87718750Y-173163000I243750J0D01*
G01*
X88206250Y-173163000D01*
G75*
G02*
X88450000Y-173406750I0J-243750D01*
G01*
X88450000Y-174319250D01*
G75*
G02*
X88206250Y-174563000I-243750J0D01*
G01*
X87718750Y-174563000D01*
G75*
G02*
X87475000Y-174319250I0J243750D01*
G01*
G37*
G36*
G01*
X89350000Y-174319250D02*
X89350000Y-173406750D01*
G75*
G02*
X89593750Y-173163000I243750J0D01*
G01*
X90081250Y-173163000D01*
G75*
G02*
X90325000Y-173406750I0J-243750D01*
G01*
X90325000Y-174319250D01*
G75*
G02*
X90081250Y-174563000I-243750J0D01*
G01*
X89593750Y-174563000D01*
G75*
G02*
X89350000Y-174319250I0J243750D01*
G01*
G37*
G36*
G01*
X121483000Y-139088000D02*
X121483000Y-138788000D01*
G75*
G02*
X121633000Y-138638000I150000J0D01*
G01*
X123083000Y-138638000D01*
G75*
G02*
X123233000Y-138788000I0J-150000D01*
G01*
X123233000Y-139088000D01*
G75*
G02*
X123083000Y-139238000I-150000J0D01*
G01*
X121633000Y-139238000D01*
G75*
G02*
X121483000Y-139088000I0J150000D01*
G01*
G37*
G36*
G01*
X121483000Y-140358000D02*
X121483000Y-140058000D01*
G75*
G02*
X121633000Y-139908000I150000J0D01*
G01*
X123083000Y-139908000D01*
G75*
G02*
X123233000Y-140058000I0J-150000D01*
G01*
X123233000Y-140358000D01*
G75*
G02*
X123083000Y-140508000I-150000J0D01*
G01*
X121633000Y-140508000D01*
G75*
G02*
X121483000Y-140358000I0J150000D01*
G01*
G37*
G36*
G01*
X121483000Y-141628000D02*
X121483000Y-141328000D01*
G75*
G02*
X121633000Y-141178000I150000J0D01*
G01*
X123083000Y-141178000D01*
G75*
G02*
X123233000Y-141328000I0J-150000D01*
G01*
X123233000Y-141628000D01*
G75*
G02*
X123083000Y-141778000I-150000J0D01*
G01*
X121633000Y-141778000D01*
G75*
G02*
X121483000Y-141628000I0J150000D01*
G01*
G37*
G36*
G01*
X121483000Y-142898000D02*
X121483000Y-142598000D01*
G75*
G02*
X121633000Y-142448000I150000J0D01*
G01*
X123083000Y-142448000D01*
G75*
G02*
X123233000Y-142598000I0J-150000D01*
G01*
X123233000Y-142898000D01*
G75*
G02*
X123083000Y-143048000I-150000J0D01*
G01*
X121633000Y-143048000D01*
G75*
G02*
X121483000Y-142898000I0J150000D01*
G01*
G37*
G36*
G01*
X121483000Y-144168000D02*
X121483000Y-143868000D01*
G75*
G02*
X121633000Y-143718000I150000J0D01*
G01*
X123083000Y-143718000D01*
G75*
G02*
X123233000Y-143868000I0J-150000D01*
G01*
X123233000Y-144168000D01*
G75*
G02*
X123083000Y-144318000I-150000J0D01*
G01*
X121633000Y-144318000D01*
G75*
G02*
X121483000Y-144168000I0J150000D01*
G01*
G37*
G36*
G01*
X121483000Y-145438000D02*
X121483000Y-145138000D01*
G75*
G02*
X121633000Y-144988000I150000J0D01*
G01*
X123083000Y-144988000D01*
G75*
G02*
X123233000Y-145138000I0J-150000D01*
G01*
X123233000Y-145438000D01*
G75*
G02*
X123083000Y-145588000I-150000J0D01*
G01*
X121633000Y-145588000D01*
G75*
G02*
X121483000Y-145438000I0J150000D01*
G01*
G37*
G36*
G01*
X121483000Y-146708000D02*
X121483000Y-146408000D01*
G75*
G02*
X121633000Y-146258000I150000J0D01*
G01*
X123083000Y-146258000D01*
G75*
G02*
X123233000Y-146408000I0J-150000D01*
G01*
X123233000Y-146708000D01*
G75*
G02*
X123083000Y-146858000I-150000J0D01*
G01*
X121633000Y-146858000D01*
G75*
G02*
X121483000Y-146708000I0J150000D01*
G01*
G37*
G36*
G01*
X121483000Y-147978000D02*
X121483000Y-147678000D01*
G75*
G02*
X121633000Y-147528000I150000J0D01*
G01*
X123083000Y-147528000D01*
G75*
G02*
X123233000Y-147678000I0J-150000D01*
G01*
X123233000Y-147978000D01*
G75*
G02*
X123083000Y-148128000I-150000J0D01*
G01*
X121633000Y-148128000D01*
G75*
G02*
X121483000Y-147978000I0J150000D01*
G01*
G37*
G36*
G01*
X126633000Y-147978000D02*
X126633000Y-147678000D01*
G75*
G02*
X126783000Y-147528000I150000J0D01*
G01*
X128233000Y-147528000D01*
G75*
G02*
X128383000Y-147678000I0J-150000D01*
G01*
X128383000Y-147978000D01*
G75*
G02*
X128233000Y-148128000I-150000J0D01*
G01*
X126783000Y-148128000D01*
G75*
G02*
X126633000Y-147978000I0J150000D01*
G01*
G37*
G36*
G01*
X126633000Y-146708000D02*
X126633000Y-146408000D01*
G75*
G02*
X126783000Y-146258000I150000J0D01*
G01*
X128233000Y-146258000D01*
G75*
G02*
X128383000Y-146408000I0J-150000D01*
G01*
X128383000Y-146708000D01*
G75*
G02*
X128233000Y-146858000I-150000J0D01*
G01*
X126783000Y-146858000D01*
G75*
G02*
X126633000Y-146708000I0J150000D01*
G01*
G37*
G36*
G01*
X126633000Y-145438000D02*
X126633000Y-145138000D01*
G75*
G02*
X126783000Y-144988000I150000J0D01*
G01*
X128233000Y-144988000D01*
G75*
G02*
X128383000Y-145138000I0J-150000D01*
G01*
X128383000Y-145438000D01*
G75*
G02*
X128233000Y-145588000I-150000J0D01*
G01*
X126783000Y-145588000D01*
G75*
G02*
X126633000Y-145438000I0J150000D01*
G01*
G37*
G36*
G01*
X126633000Y-144168000D02*
X126633000Y-143868000D01*
G75*
G02*
X126783000Y-143718000I150000J0D01*
G01*
X128233000Y-143718000D01*
G75*
G02*
X128383000Y-143868000I0J-150000D01*
G01*
X128383000Y-144168000D01*
G75*
G02*
X128233000Y-144318000I-150000J0D01*
G01*
X126783000Y-144318000D01*
G75*
G02*
X126633000Y-144168000I0J150000D01*
G01*
G37*
G36*
G01*
X126633000Y-142898000D02*
X126633000Y-142598000D01*
G75*
G02*
X126783000Y-142448000I150000J0D01*
G01*
X128233000Y-142448000D01*
G75*
G02*
X128383000Y-142598000I0J-150000D01*
G01*
X128383000Y-142898000D01*
G75*
G02*
X128233000Y-143048000I-150000J0D01*
G01*
X126783000Y-143048000D01*
G75*
G02*
X126633000Y-142898000I0J150000D01*
G01*
G37*
G36*
G01*
X126633000Y-141628000D02*
X126633000Y-141328000D01*
G75*
G02*
X126783000Y-141178000I150000J0D01*
G01*
X128233000Y-141178000D01*
G75*
G02*
X128383000Y-141328000I0J-150000D01*
G01*
X128383000Y-141628000D01*
G75*
G02*
X128233000Y-141778000I-150000J0D01*
G01*
X126783000Y-141778000D01*
G75*
G02*
X126633000Y-141628000I0J150000D01*
G01*
G37*
G36*
G01*
X126633000Y-140358000D02*
X126633000Y-140058000D01*
G75*
G02*
X126783000Y-139908000I150000J0D01*
G01*
X128233000Y-139908000D01*
G75*
G02*
X128383000Y-140058000I0J-150000D01*
G01*
X128383000Y-140358000D01*
G75*
G02*
X128233000Y-140508000I-150000J0D01*
G01*
X126783000Y-140508000D01*
G75*
G02*
X126633000Y-140358000I0J150000D01*
G01*
G37*
G36*
G01*
X126633000Y-139088000D02*
X126633000Y-138788000D01*
G75*
G02*
X126783000Y-138638000I150000J0D01*
G01*
X128233000Y-138638000D01*
G75*
G02*
X128383000Y-138788000I0J-150000D01*
G01*
X128383000Y-139088000D01*
G75*
G02*
X128233000Y-139238000I-150000J0D01*
G01*
X126783000Y-139238000D01*
G75*
G02*
X126633000Y-139088000I0J150000D01*
G01*
G37*
G36*
G01*
X119032000Y-139901000D02*
X119982000Y-139901000D01*
G75*
G02*
X120232000Y-140151000I0J-250000D01*
G01*
X120232000Y-140651000D01*
G75*
G02*
X119982000Y-140901000I-250000J0D01*
G01*
X119032000Y-140901000D01*
G75*
G02*
X118782000Y-140651000I0J250000D01*
G01*
X118782000Y-140151000D01*
G75*
G02*
X119032000Y-139901000I250000J0D01*
G01*
G37*
G36*
G01*
X119032000Y-141801000D02*
X119982000Y-141801000D01*
G75*
G02*
X120232000Y-142051000I0J-250000D01*
G01*
X120232000Y-142551000D01*
G75*
G02*
X119982000Y-142801000I-250000J0D01*
G01*
X119032000Y-142801000D01*
G75*
G02*
X118782000Y-142551000I0J250000D01*
G01*
X118782000Y-142051000D01*
G75*
G02*
X119032000Y-141801000I250000J0D01*
G01*
G37*
G36*
G01*
X91133000Y-182212000D02*
X91133000Y-181262000D01*
G75*
G02*
X91383000Y-181012000I250000J0D01*
G01*
X91883000Y-181012000D01*
G75*
G02*
X92133000Y-181262000I0J-250000D01*
G01*
X92133000Y-182212000D01*
G75*
G02*
X91883000Y-182462000I-250000J0D01*
G01*
X91383000Y-182462000D01*
G75*
G02*
X91133000Y-182212000I0J250000D01*
G01*
G37*
G36*
G01*
X93033000Y-182212000D02*
X93033000Y-181262000D01*
G75*
G02*
X93283000Y-181012000I250000J0D01*
G01*
X93783000Y-181012000D01*
G75*
G02*
X94033000Y-181262000I0J-250000D01*
G01*
X94033000Y-182212000D01*
G75*
G02*
X93783000Y-182462000I-250000J0D01*
G01*
X93283000Y-182462000D01*
G75*
G02*
X93033000Y-182212000I0J250000D01*
G01*
G37*
D12*
X46570900Y-156170000D03*
X46570900Y-153670000D03*
X46570900Y-151170000D03*
X41059100Y-156170000D03*
X41059100Y-153670000D03*
X41059100Y-151170000D03*
G36*
G01*
X139196500Y-147886000D02*
X139196500Y-148786000D01*
G75*
G02*
X138946500Y-149036000I-250000J0D01*
G01*
X138421500Y-149036000D01*
G75*
G02*
X138171500Y-148786000I0J250000D01*
G01*
X138171500Y-147886000D01*
G75*
G02*
X138421500Y-147636000I250000J0D01*
G01*
X138946500Y-147636000D01*
G75*
G02*
X139196500Y-147886000I0J-250000D01*
G01*
G37*
G36*
G01*
X137371500Y-147886000D02*
X137371500Y-148786000D01*
G75*
G02*
X137121500Y-149036000I-250000J0D01*
G01*
X136596500Y-149036000D01*
G75*
G02*
X136346500Y-148786000I0J250000D01*
G01*
X136346500Y-147886000D01*
G75*
G02*
X136596500Y-147636000I250000J0D01*
G01*
X137121500Y-147636000D01*
G75*
G02*
X137371500Y-147886000I0J-250000D01*
G01*
G37*
G36*
G01*
X87475000Y-169874250D02*
X87475000Y-168961750D01*
G75*
G02*
X87718750Y-168718000I243750J0D01*
G01*
X88206250Y-168718000D01*
G75*
G02*
X88450000Y-168961750I0J-243750D01*
G01*
X88450000Y-169874250D01*
G75*
G02*
X88206250Y-170118000I-243750J0D01*
G01*
X87718750Y-170118000D01*
G75*
G02*
X87475000Y-169874250I0J243750D01*
G01*
G37*
G36*
G01*
X89350000Y-169874250D02*
X89350000Y-168961750D01*
G75*
G02*
X89593750Y-168718000I243750J0D01*
G01*
X90081250Y-168718000D01*
G75*
G02*
X90325000Y-168961750I0J-243750D01*
G01*
X90325000Y-169874250D01*
G75*
G02*
X90081250Y-170118000I-243750J0D01*
G01*
X89593750Y-170118000D01*
G75*
G02*
X89350000Y-169874250I0J243750D01*
G01*
G37*
G36*
G01*
X134800000Y-144559000D02*
X134800000Y-145509000D01*
G75*
G02*
X134550000Y-145759000I-250000J0D01*
G01*
X134050000Y-145759000D01*
G75*
G02*
X133800000Y-145509000I0J250000D01*
G01*
X133800000Y-144559000D01*
G75*
G02*
X134050000Y-144309000I250000J0D01*
G01*
X134550000Y-144309000D01*
G75*
G02*
X134800000Y-144559000I0J-250000D01*
G01*
G37*
G36*
G01*
X132900000Y-144559000D02*
X132900000Y-145509000D01*
G75*
G02*
X132650000Y-145759000I-250000J0D01*
G01*
X132150000Y-145759000D01*
G75*
G02*
X131900000Y-145509000I0J250000D01*
G01*
X131900000Y-144559000D01*
G75*
G02*
X132150000Y-144309000I250000J0D01*
G01*
X132650000Y-144309000D01*
G75*
G02*
X132900000Y-144559000I0J-250000D01*
G01*
G37*
G36*
G01*
X74237000Y-175669000D02*
X73337000Y-175669000D01*
G75*
G02*
X73087000Y-175419000I0J250000D01*
G01*
X73087000Y-174894000D01*
G75*
G02*
X73337000Y-174644000I250000J0D01*
G01*
X74237000Y-174644000D01*
G75*
G02*
X74487000Y-174894000I0J-250000D01*
G01*
X74487000Y-175419000D01*
G75*
G02*
X74237000Y-175669000I-250000J0D01*
G01*
G37*
G36*
G01*
X74237000Y-173844000D02*
X73337000Y-173844000D01*
G75*
G02*
X73087000Y-173594000I0J250000D01*
G01*
X73087000Y-173069000D01*
G75*
G02*
X73337000Y-172819000I250000J0D01*
G01*
X74237000Y-172819000D01*
G75*
G02*
X74487000Y-173069000I0J-250000D01*
G01*
X74487000Y-173594000D01*
G75*
G02*
X74237000Y-173844000I-250000J0D01*
G01*
G37*
G36*
G01*
X105485250Y-173637000D02*
X104572750Y-173637000D01*
G75*
G02*
X104329000Y-173393250I0J243750D01*
G01*
X104329000Y-172905750D01*
G75*
G02*
X104572750Y-172662000I243750J0D01*
G01*
X105485250Y-172662000D01*
G75*
G02*
X105729000Y-172905750I0J-243750D01*
G01*
X105729000Y-173393250D01*
G75*
G02*
X105485250Y-173637000I-243750J0D01*
G01*
G37*
G36*
G01*
X105485250Y-171762000D02*
X104572750Y-171762000D01*
G75*
G02*
X104329000Y-171518250I0J243750D01*
G01*
X104329000Y-171030750D01*
G75*
G02*
X104572750Y-170787000I243750J0D01*
G01*
X105485250Y-170787000D01*
G75*
G02*
X105729000Y-171030750I0J-243750D01*
G01*
X105729000Y-171518250D01*
G75*
G02*
X105485250Y-171762000I-243750J0D01*
G01*
G37*
G36*
G01*
X139196500Y-157792000D02*
X139196500Y-158692000D01*
G75*
G02*
X138946500Y-158942000I-250000J0D01*
G01*
X138421500Y-158942000D01*
G75*
G02*
X138171500Y-158692000I0J250000D01*
G01*
X138171500Y-157792000D01*
G75*
G02*
X138421500Y-157542000I250000J0D01*
G01*
X138946500Y-157542000D01*
G75*
G02*
X139196500Y-157792000I0J-250000D01*
G01*
G37*
G36*
G01*
X137371500Y-157792000D02*
X137371500Y-158692000D01*
G75*
G02*
X137121500Y-158942000I-250000J0D01*
G01*
X136596500Y-158942000D01*
G75*
G02*
X136346500Y-158692000I0J250000D01*
G01*
X136346500Y-157792000D01*
G75*
G02*
X136596500Y-157542000I250000J0D01*
G01*
X137121500Y-157542000D01*
G75*
G02*
X137371500Y-157792000I0J-250000D01*
G01*
G37*
G36*
G01*
X119032000Y-151646000D02*
X119982000Y-151646000D01*
G75*
G02*
X120232000Y-151896000I0J-250000D01*
G01*
X120232000Y-152396000D01*
G75*
G02*
X119982000Y-152646000I-250000J0D01*
G01*
X119032000Y-152646000D01*
G75*
G02*
X118782000Y-152396000I0J250000D01*
G01*
X118782000Y-151896000D01*
G75*
G02*
X119032000Y-151646000I250000J0D01*
G01*
G37*
G36*
G01*
X119032000Y-153546000D02*
X119982000Y-153546000D01*
G75*
G02*
X120232000Y-153796000I0J-250000D01*
G01*
X120232000Y-154296000D01*
G75*
G02*
X119982000Y-154546000I-250000J0D01*
G01*
X119032000Y-154546000D01*
G75*
G02*
X118782000Y-154296000I0J250000D01*
G01*
X118782000Y-153796000D01*
G75*
G02*
X119032000Y-153546000I250000J0D01*
G01*
G37*
G36*
G01*
X71813000Y-129258000D02*
X72713000Y-129258000D01*
G75*
G02*
X72963000Y-129508000I0J-250000D01*
G01*
X72963000Y-130033000D01*
G75*
G02*
X72713000Y-130283000I-250000J0D01*
G01*
X71813000Y-130283000D01*
G75*
G02*
X71563000Y-130033000I0J250000D01*
G01*
X71563000Y-129508000D01*
G75*
G02*
X71813000Y-129258000I250000J0D01*
G01*
G37*
G36*
G01*
X71813000Y-131083000D02*
X72713000Y-131083000D01*
G75*
G02*
X72963000Y-131333000I0J-250000D01*
G01*
X72963000Y-131858000D01*
G75*
G02*
X72713000Y-132108000I-250000J0D01*
G01*
X71813000Y-132108000D01*
G75*
G02*
X71563000Y-131858000I0J250000D01*
G01*
X71563000Y-131333000D01*
G75*
G02*
X71813000Y-131083000I250000J0D01*
G01*
G37*
G36*
G01*
X139196500Y-154490000D02*
X139196500Y-155390000D01*
G75*
G02*
X138946500Y-155640000I-250000J0D01*
G01*
X138421500Y-155640000D01*
G75*
G02*
X138171500Y-155390000I0J250000D01*
G01*
X138171500Y-154490000D01*
G75*
G02*
X138421500Y-154240000I250000J0D01*
G01*
X138946500Y-154240000D01*
G75*
G02*
X139196500Y-154490000I0J-250000D01*
G01*
G37*
G36*
G01*
X137371500Y-154490000D02*
X137371500Y-155390000D01*
G75*
G02*
X137121500Y-155640000I-250000J0D01*
G01*
X136596500Y-155640000D01*
G75*
G02*
X136346500Y-155390000I0J250000D01*
G01*
X136346500Y-154490000D01*
G75*
G02*
X136596500Y-154240000I250000J0D01*
G01*
X137121500Y-154240000D01*
G75*
G02*
X137371500Y-154490000I0J-250000D01*
G01*
G37*
G36*
G01*
X135313000Y-165580000D02*
X136213000Y-165580000D01*
G75*
G02*
X136463000Y-165830000I0J-250000D01*
G01*
X136463000Y-166355000D01*
G75*
G02*
X136213000Y-166605000I-250000J0D01*
G01*
X135313000Y-166605000D01*
G75*
G02*
X135063000Y-166355000I0J250000D01*
G01*
X135063000Y-165830000D01*
G75*
G02*
X135313000Y-165580000I250000J0D01*
G01*
G37*
G36*
G01*
X135313000Y-167405000D02*
X136213000Y-167405000D01*
G75*
G02*
X136463000Y-167655000I0J-250000D01*
G01*
X136463000Y-168180000D01*
G75*
G02*
X136213000Y-168430000I-250000J0D01*
G01*
X135313000Y-168430000D01*
G75*
G02*
X135063000Y-168180000I0J250000D01*
G01*
X135063000Y-167655000D01*
G75*
G02*
X135313000Y-167405000I250000J0D01*
G01*
G37*
G36*
G01*
X59154000Y-151453000D02*
X59154000Y-150553000D01*
G75*
G02*
X59404000Y-150303000I250000J0D01*
G01*
X59929000Y-150303000D01*
G75*
G02*
X60179000Y-150553000I0J-250000D01*
G01*
X60179000Y-151453000D01*
G75*
G02*
X59929000Y-151703000I-250000J0D01*
G01*
X59404000Y-151703000D01*
G75*
G02*
X59154000Y-151453000I0J250000D01*
G01*
G37*
G36*
G01*
X60979000Y-151453000D02*
X60979000Y-150553000D01*
G75*
G02*
X61229000Y-150303000I250000J0D01*
G01*
X61754000Y-150303000D01*
G75*
G02*
X62004000Y-150553000I0J-250000D01*
G01*
X62004000Y-151453000D01*
G75*
G02*
X61754000Y-151703000I-250000J0D01*
G01*
X61229000Y-151703000D01*
G75*
G02*
X60979000Y-151453000I0J250000D01*
G01*
G37*
G36*
G01*
X110057250Y-173637000D02*
X109144750Y-173637000D01*
G75*
G02*
X108901000Y-173393250I0J243750D01*
G01*
X108901000Y-172905750D01*
G75*
G02*
X109144750Y-172662000I243750J0D01*
G01*
X110057250Y-172662000D01*
G75*
G02*
X110301000Y-172905750I0J-243750D01*
G01*
X110301000Y-173393250D01*
G75*
G02*
X110057250Y-173637000I-243750J0D01*
G01*
G37*
G36*
G01*
X110057250Y-171762000D02*
X109144750Y-171762000D01*
G75*
G02*
X108901000Y-171518250I0J243750D01*
G01*
X108901000Y-171030750D01*
G75*
G02*
X109144750Y-170787000I243750J0D01*
G01*
X110057250Y-170787000D01*
G75*
G02*
X110301000Y-171030750I0J-243750D01*
G01*
X110301000Y-171518250D01*
G75*
G02*
X110057250Y-171762000I-243750J0D01*
G01*
G37*
G36*
G01*
X48229000Y-120499000D02*
X48229000Y-121699000D01*
G75*
G02*
X48029000Y-121899000I-200000J0D01*
G01*
X47629000Y-121899000D01*
G75*
G02*
X47429000Y-121699000I0J200000D01*
G01*
X47429000Y-120499000D01*
G75*
G02*
X47629000Y-120299000I200000J0D01*
G01*
X48029000Y-120299000D01*
G75*
G02*
X48229000Y-120499000I0J-200000D01*
G01*
G37*
G36*
G01*
X46979000Y-120499000D02*
X46979000Y-121699000D01*
G75*
G02*
X46779000Y-121899000I-200000J0D01*
G01*
X46379000Y-121899000D01*
G75*
G02*
X46179000Y-121699000I0J200000D01*
G01*
X46179000Y-120499000D01*
G75*
G02*
X46379000Y-120299000I200000J0D01*
G01*
X46779000Y-120299000D01*
G75*
G02*
X46979000Y-120499000I0J-200000D01*
G01*
G37*
G36*
G01*
X45729000Y-120499000D02*
X45729000Y-121699000D01*
G75*
G02*
X45529000Y-121899000I-200000J0D01*
G01*
X45129000Y-121899000D01*
G75*
G02*
X44929000Y-121699000I0J200000D01*
G01*
X44929000Y-120499000D01*
G75*
G02*
X45129000Y-120299000I200000J0D01*
G01*
X45529000Y-120299000D01*
G75*
G02*
X45729000Y-120499000I0J-200000D01*
G01*
G37*
G36*
G01*
X44479000Y-120499000D02*
X44479000Y-121699000D01*
G75*
G02*
X44279000Y-121899000I-200000J0D01*
G01*
X43879000Y-121899000D01*
G75*
G02*
X43679000Y-121699000I0J200000D01*
G01*
X43679000Y-120499000D01*
G75*
G02*
X43879000Y-120299000I200000J0D01*
G01*
X44279000Y-120299000D01*
G75*
G02*
X44479000Y-120499000I0J-200000D01*
G01*
G37*
G36*
G01*
X42579000Y-116949001D02*
X42579000Y-119448999D01*
G75*
G02*
X42328999Y-119699000I-250001J0D01*
G01*
X40729001Y-119699000D01*
G75*
G02*
X40479000Y-119448999I0J250001D01*
G01*
X40479000Y-116949001D01*
G75*
G02*
X40729001Y-116699000I250001J0D01*
G01*
X42328999Y-116699000D01*
G75*
G02*
X42579000Y-116949001I0J-250001D01*
G01*
G37*
G36*
G01*
X51429000Y-116949001D02*
X51429000Y-119448999D01*
G75*
G02*
X51178999Y-119699000I-250001J0D01*
G01*
X49579001Y-119699000D01*
G75*
G02*
X49329000Y-119448999I0J250001D01*
G01*
X49329000Y-116949001D01*
G75*
G02*
X49579001Y-116699000I250001J0D01*
G01*
X51178999Y-116699000D01*
G75*
G02*
X51429000Y-116949001I0J-250001D01*
G01*
G37*
G36*
G01*
X110899000Y-146743000D02*
X110899000Y-147643000D01*
G75*
G02*
X110649000Y-147893000I-250000J0D01*
G01*
X110124000Y-147893000D01*
G75*
G02*
X109874000Y-147643000I0J250000D01*
G01*
X109874000Y-146743000D01*
G75*
G02*
X110124000Y-146493000I250000J0D01*
G01*
X110649000Y-146493000D01*
G75*
G02*
X110899000Y-146743000I0J-250000D01*
G01*
G37*
G36*
G01*
X109074000Y-146743000D02*
X109074000Y-147643000D01*
G75*
G02*
X108824000Y-147893000I-250000J0D01*
G01*
X108299000Y-147893000D01*
G75*
G02*
X108049000Y-147643000I0J250000D01*
G01*
X108049000Y-146743000D01*
G75*
G02*
X108299000Y-146493000I250000J0D01*
G01*
X108824000Y-146493000D01*
G75*
G02*
X109074000Y-146743000I0J-250000D01*
G01*
G37*
D13*
X122047000Y-120515750D03*
X122047000Y-124515750D03*
G36*
G01*
X97254000Y-162883000D02*
X97254000Y-161983000D01*
G75*
G02*
X97504000Y-161733000I250000J0D01*
G01*
X98029000Y-161733000D01*
G75*
G02*
X98279000Y-161983000I0J-250000D01*
G01*
X98279000Y-162883000D01*
G75*
G02*
X98029000Y-163133000I-250000J0D01*
G01*
X97504000Y-163133000D01*
G75*
G02*
X97254000Y-162883000I0J250000D01*
G01*
G37*
G36*
G01*
X99079000Y-162883000D02*
X99079000Y-161983000D01*
G75*
G02*
X99329000Y-161733000I250000J0D01*
G01*
X99854000Y-161733000D01*
G75*
G02*
X100104000Y-161983000I0J-250000D01*
G01*
X100104000Y-162883000D01*
G75*
G02*
X99854000Y-163133000I-250000J0D01*
G01*
X99329000Y-163133000D01*
G75*
G02*
X99079000Y-162883000I0J250000D01*
G01*
G37*
G36*
G01*
X42319000Y-175318000D02*
X42319000Y-176218000D01*
G75*
G02*
X42069000Y-176468000I-250000J0D01*
G01*
X41544000Y-176468000D01*
G75*
G02*
X41294000Y-176218000I0J250000D01*
G01*
X41294000Y-175318000D01*
G75*
G02*
X41544000Y-175068000I250000J0D01*
G01*
X42069000Y-175068000D01*
G75*
G02*
X42319000Y-175318000I0J-250000D01*
G01*
G37*
G36*
G01*
X40494000Y-175318000D02*
X40494000Y-176218000D01*
G75*
G02*
X40244000Y-176468000I-250000J0D01*
G01*
X39719000Y-176468000D01*
G75*
G02*
X39469000Y-176218000I0J250000D01*
G01*
X39469000Y-175318000D01*
G75*
G02*
X39719000Y-175068000I250000J0D01*
G01*
X40244000Y-175068000D01*
G75*
G02*
X40494000Y-175318000I0J-250000D01*
G01*
G37*
G36*
G01*
X134800000Y-141257000D02*
X134800000Y-142207000D01*
G75*
G02*
X134550000Y-142457000I-250000J0D01*
G01*
X134050000Y-142457000D01*
G75*
G02*
X133800000Y-142207000I0J250000D01*
G01*
X133800000Y-141257000D01*
G75*
G02*
X134050000Y-141007000I250000J0D01*
G01*
X134550000Y-141007000D01*
G75*
G02*
X134800000Y-141257000I0J-250000D01*
G01*
G37*
G36*
G01*
X132900000Y-141257000D02*
X132900000Y-142207000D01*
G75*
G02*
X132650000Y-142457000I-250000J0D01*
G01*
X132150000Y-142457000D01*
G75*
G02*
X131900000Y-142207000I0J250000D01*
G01*
X131900000Y-141257000D01*
G75*
G02*
X132150000Y-141007000I250000J0D01*
G01*
X132650000Y-141007000D01*
G75*
G02*
X132900000Y-141257000I0J-250000D01*
G01*
G37*
G36*
G01*
X68540000Y-140947000D02*
X68540000Y-141247000D01*
G75*
G02*
X68390000Y-141397000I-150000J0D01*
G01*
X66640000Y-141397000D01*
G75*
G02*
X66490000Y-141247000I0J150000D01*
G01*
X66490000Y-140947000D01*
G75*
G02*
X66640000Y-140797000I150000J0D01*
G01*
X68390000Y-140797000D01*
G75*
G02*
X68540000Y-140947000I0J-150000D01*
G01*
G37*
G36*
G01*
X68540000Y-139677000D02*
X68540000Y-139977000D01*
G75*
G02*
X68390000Y-140127000I-150000J0D01*
G01*
X66640000Y-140127000D01*
G75*
G02*
X66490000Y-139977000I0J150000D01*
G01*
X66490000Y-139677000D01*
G75*
G02*
X66640000Y-139527000I150000J0D01*
G01*
X68390000Y-139527000D01*
G75*
G02*
X68540000Y-139677000I0J-150000D01*
G01*
G37*
G36*
G01*
X68540000Y-138407000D02*
X68540000Y-138707000D01*
G75*
G02*
X68390000Y-138857000I-150000J0D01*
G01*
X66640000Y-138857000D01*
G75*
G02*
X66490000Y-138707000I0J150000D01*
G01*
X66490000Y-138407000D01*
G75*
G02*
X66640000Y-138257000I150000J0D01*
G01*
X68390000Y-138257000D01*
G75*
G02*
X68540000Y-138407000I0J-150000D01*
G01*
G37*
G36*
G01*
X68540000Y-137137000D02*
X68540000Y-137437000D01*
G75*
G02*
X68390000Y-137587000I-150000J0D01*
G01*
X66640000Y-137587000D01*
G75*
G02*
X66490000Y-137437000I0J150000D01*
G01*
X66490000Y-137137000D01*
G75*
G02*
X66640000Y-136987000I150000J0D01*
G01*
X68390000Y-136987000D01*
G75*
G02*
X68540000Y-137137000I0J-150000D01*
G01*
G37*
G36*
G01*
X68540000Y-135867000D02*
X68540000Y-136167000D01*
G75*
G02*
X68390000Y-136317000I-150000J0D01*
G01*
X66640000Y-136317000D01*
G75*
G02*
X66490000Y-136167000I0J150000D01*
G01*
X66490000Y-135867000D01*
G75*
G02*
X66640000Y-135717000I150000J0D01*
G01*
X68390000Y-135717000D01*
G75*
G02*
X68540000Y-135867000I0J-150000D01*
G01*
G37*
G36*
G01*
X68540000Y-134597000D02*
X68540000Y-134897000D01*
G75*
G02*
X68390000Y-135047000I-150000J0D01*
G01*
X66640000Y-135047000D01*
G75*
G02*
X66490000Y-134897000I0J150000D01*
G01*
X66490000Y-134597000D01*
G75*
G02*
X66640000Y-134447000I150000J0D01*
G01*
X68390000Y-134447000D01*
G75*
G02*
X68540000Y-134597000I0J-150000D01*
G01*
G37*
G36*
G01*
X68540000Y-133327000D02*
X68540000Y-133627000D01*
G75*
G02*
X68390000Y-133777000I-150000J0D01*
G01*
X66640000Y-133777000D01*
G75*
G02*
X66490000Y-133627000I0J150000D01*
G01*
X66490000Y-133327000D01*
G75*
G02*
X66640000Y-133177000I150000J0D01*
G01*
X68390000Y-133177000D01*
G75*
G02*
X68540000Y-133327000I0J-150000D01*
G01*
G37*
G36*
G01*
X68540000Y-132057000D02*
X68540000Y-132357000D01*
G75*
G02*
X68390000Y-132507000I-150000J0D01*
G01*
X66640000Y-132507000D01*
G75*
G02*
X66490000Y-132357000I0J150000D01*
G01*
X66490000Y-132057000D01*
G75*
G02*
X66640000Y-131907000I150000J0D01*
G01*
X68390000Y-131907000D01*
G75*
G02*
X68540000Y-132057000I0J-150000D01*
G01*
G37*
G36*
G01*
X68540000Y-130787000D02*
X68540000Y-131087000D01*
G75*
G02*
X68390000Y-131237000I-150000J0D01*
G01*
X66640000Y-131237000D01*
G75*
G02*
X66490000Y-131087000I0J150000D01*
G01*
X66490000Y-130787000D01*
G75*
G02*
X66640000Y-130637000I150000J0D01*
G01*
X68390000Y-130637000D01*
G75*
G02*
X68540000Y-130787000I0J-150000D01*
G01*
G37*
G36*
G01*
X68540000Y-129517000D02*
X68540000Y-129817000D01*
G75*
G02*
X68390000Y-129967000I-150000J0D01*
G01*
X66640000Y-129967000D01*
G75*
G02*
X66490000Y-129817000I0J150000D01*
G01*
X66490000Y-129517000D01*
G75*
G02*
X66640000Y-129367000I150000J0D01*
G01*
X68390000Y-129367000D01*
G75*
G02*
X68540000Y-129517000I0J-150000D01*
G01*
G37*
G36*
G01*
X59240000Y-129517000D02*
X59240000Y-129817000D01*
G75*
G02*
X59090000Y-129967000I-150000J0D01*
G01*
X57340000Y-129967000D01*
G75*
G02*
X57190000Y-129817000I0J150000D01*
G01*
X57190000Y-129517000D01*
G75*
G02*
X57340000Y-129367000I150000J0D01*
G01*
X59090000Y-129367000D01*
G75*
G02*
X59240000Y-129517000I0J-150000D01*
G01*
G37*
G36*
G01*
X59240000Y-130787000D02*
X59240000Y-131087000D01*
G75*
G02*
X59090000Y-131237000I-150000J0D01*
G01*
X57340000Y-131237000D01*
G75*
G02*
X57190000Y-131087000I0J150000D01*
G01*
X57190000Y-130787000D01*
G75*
G02*
X57340000Y-130637000I150000J0D01*
G01*
X59090000Y-130637000D01*
G75*
G02*
X59240000Y-130787000I0J-150000D01*
G01*
G37*
G36*
G01*
X59240000Y-132057000D02*
X59240000Y-132357000D01*
G75*
G02*
X59090000Y-132507000I-150000J0D01*
G01*
X57340000Y-132507000D01*
G75*
G02*
X57190000Y-132357000I0J150000D01*
G01*
X57190000Y-132057000D01*
G75*
G02*
X57340000Y-131907000I150000J0D01*
G01*
X59090000Y-131907000D01*
G75*
G02*
X59240000Y-132057000I0J-150000D01*
G01*
G37*
G36*
G01*
X59240000Y-133327000D02*
X59240000Y-133627000D01*
G75*
G02*
X59090000Y-133777000I-150000J0D01*
G01*
X57340000Y-133777000D01*
G75*
G02*
X57190000Y-133627000I0J150000D01*
G01*
X57190000Y-133327000D01*
G75*
G02*
X57340000Y-133177000I150000J0D01*
G01*
X59090000Y-133177000D01*
G75*
G02*
X59240000Y-133327000I0J-150000D01*
G01*
G37*
G36*
G01*
X59240000Y-134597000D02*
X59240000Y-134897000D01*
G75*
G02*
X59090000Y-135047000I-150000J0D01*
G01*
X57340000Y-135047000D01*
G75*
G02*
X57190000Y-134897000I0J150000D01*
G01*
X57190000Y-134597000D01*
G75*
G02*
X57340000Y-134447000I150000J0D01*
G01*
X59090000Y-134447000D01*
G75*
G02*
X59240000Y-134597000I0J-150000D01*
G01*
G37*
G36*
G01*
X59240000Y-135867000D02*
X59240000Y-136167000D01*
G75*
G02*
X59090000Y-136317000I-150000J0D01*
G01*
X57340000Y-136317000D01*
G75*
G02*
X57190000Y-136167000I0J150000D01*
G01*
X57190000Y-135867000D01*
G75*
G02*
X57340000Y-135717000I150000J0D01*
G01*
X59090000Y-135717000D01*
G75*
G02*
X59240000Y-135867000I0J-150000D01*
G01*
G37*
G36*
G01*
X59240000Y-137137000D02*
X59240000Y-137437000D01*
G75*
G02*
X59090000Y-137587000I-150000J0D01*
G01*
X57340000Y-137587000D01*
G75*
G02*
X57190000Y-137437000I0J150000D01*
G01*
X57190000Y-137137000D01*
G75*
G02*
X57340000Y-136987000I150000J0D01*
G01*
X59090000Y-136987000D01*
G75*
G02*
X59240000Y-137137000I0J-150000D01*
G01*
G37*
G36*
G01*
X59240000Y-138407000D02*
X59240000Y-138707000D01*
G75*
G02*
X59090000Y-138857000I-150000J0D01*
G01*
X57340000Y-138857000D01*
G75*
G02*
X57190000Y-138707000I0J150000D01*
G01*
X57190000Y-138407000D01*
G75*
G02*
X57340000Y-138257000I150000J0D01*
G01*
X59090000Y-138257000D01*
G75*
G02*
X59240000Y-138407000I0J-150000D01*
G01*
G37*
G36*
G01*
X59240000Y-139677000D02*
X59240000Y-139977000D01*
G75*
G02*
X59090000Y-140127000I-150000J0D01*
G01*
X57340000Y-140127000D01*
G75*
G02*
X57190000Y-139977000I0J150000D01*
G01*
X57190000Y-139677000D01*
G75*
G02*
X57340000Y-139527000I150000J0D01*
G01*
X59090000Y-139527000D01*
G75*
G02*
X59240000Y-139677000I0J-150000D01*
G01*
G37*
G36*
G01*
X59240000Y-140947000D02*
X59240000Y-141247000D01*
G75*
G02*
X59090000Y-141397000I-150000J0D01*
G01*
X57340000Y-141397000D01*
G75*
G02*
X57190000Y-141247000I0J150000D01*
G01*
X57190000Y-140947000D01*
G75*
G02*
X57340000Y-140797000I150000J0D01*
G01*
X59090000Y-140797000D01*
G75*
G02*
X59240000Y-140947000I0J-150000D01*
G01*
G37*
G36*
G01*
X76680000Y-169868000D02*
X76680000Y-168968000D01*
G75*
G02*
X76930000Y-168718000I250000J0D01*
G01*
X77455000Y-168718000D01*
G75*
G02*
X77705000Y-168968000I0J-250000D01*
G01*
X77705000Y-169868000D01*
G75*
G02*
X77455000Y-170118000I-250000J0D01*
G01*
X76930000Y-170118000D01*
G75*
G02*
X76680000Y-169868000I0J250000D01*
G01*
G37*
G36*
G01*
X78505000Y-169868000D02*
X78505000Y-168968000D01*
G75*
G02*
X78755000Y-168718000I250000J0D01*
G01*
X79280000Y-168718000D01*
G75*
G02*
X79530000Y-168968000I0J-250000D01*
G01*
X79530000Y-169868000D01*
G75*
G02*
X79280000Y-170118000I-250000J0D01*
G01*
X78755000Y-170118000D01*
G75*
G02*
X78505000Y-169868000I0J250000D01*
G01*
G37*
G36*
G01*
X134800000Y-147861000D02*
X134800000Y-148811000D01*
G75*
G02*
X134550000Y-149061000I-250000J0D01*
G01*
X134050000Y-149061000D01*
G75*
G02*
X133800000Y-148811000I0J250000D01*
G01*
X133800000Y-147861000D01*
G75*
G02*
X134050000Y-147611000I250000J0D01*
G01*
X134550000Y-147611000D01*
G75*
G02*
X134800000Y-147861000I0J-250000D01*
G01*
G37*
G36*
G01*
X132900000Y-147861000D02*
X132900000Y-148811000D01*
G75*
G02*
X132650000Y-149061000I-250000J0D01*
G01*
X132150000Y-149061000D01*
G75*
G02*
X131900000Y-148811000I0J250000D01*
G01*
X131900000Y-147861000D01*
G75*
G02*
X132150000Y-147611000I250000J0D01*
G01*
X132650000Y-147611000D01*
G75*
G02*
X132900000Y-147861000I0J-250000D01*
G01*
G37*
G36*
G01*
X78179000Y-130142000D02*
X78179000Y-129192000D01*
G75*
G02*
X78429000Y-128942000I250000J0D01*
G01*
X78929000Y-128942000D01*
G75*
G02*
X79179000Y-129192000I0J-250000D01*
G01*
X79179000Y-130142000D01*
G75*
G02*
X78929000Y-130392000I-250000J0D01*
G01*
X78429000Y-130392000D01*
G75*
G02*
X78179000Y-130142000I0J250000D01*
G01*
G37*
G36*
G01*
X80079000Y-130142000D02*
X80079000Y-129192000D01*
G75*
G02*
X80329000Y-128942000I250000J0D01*
G01*
X80829000Y-128942000D01*
G75*
G02*
X81079000Y-129192000I0J-250000D01*
G01*
X81079000Y-130142000D01*
G75*
G02*
X80829000Y-130392000I-250000J0D01*
G01*
X80329000Y-130392000D01*
G75*
G02*
X80079000Y-130142000I0J250000D01*
G01*
G37*
G36*
G01*
X42319000Y-178620000D02*
X42319000Y-179520000D01*
G75*
G02*
X42069000Y-179770000I-250000J0D01*
G01*
X41544000Y-179770000D01*
G75*
G02*
X41294000Y-179520000I0J250000D01*
G01*
X41294000Y-178620000D01*
G75*
G02*
X41544000Y-178370000I250000J0D01*
G01*
X42069000Y-178370000D01*
G75*
G02*
X42319000Y-178620000I0J-250000D01*
G01*
G37*
G36*
G01*
X40494000Y-178620000D02*
X40494000Y-179520000D01*
G75*
G02*
X40244000Y-179770000I-250000J0D01*
G01*
X39719000Y-179770000D01*
G75*
G02*
X39469000Y-179520000I0J250000D01*
G01*
X39469000Y-178620000D01*
G75*
G02*
X39719000Y-178370000I250000J0D01*
G01*
X40244000Y-178370000D01*
G75*
G02*
X40494000Y-178620000I0J-250000D01*
G01*
G37*
G36*
G01*
X97254000Y-160470000D02*
X97254000Y-159570000D01*
G75*
G02*
X97504000Y-159320000I250000J0D01*
G01*
X98029000Y-159320000D01*
G75*
G02*
X98279000Y-159570000I0J-250000D01*
G01*
X98279000Y-160470000D01*
G75*
G02*
X98029000Y-160720000I-250000J0D01*
G01*
X97504000Y-160720000D01*
G75*
G02*
X97254000Y-160470000I0J250000D01*
G01*
G37*
G36*
G01*
X99079000Y-160470000D02*
X99079000Y-159570000D01*
G75*
G02*
X99329000Y-159320000I250000J0D01*
G01*
X99854000Y-159320000D01*
G75*
G02*
X100104000Y-159570000I0J-250000D01*
G01*
X100104000Y-160470000D01*
G75*
G02*
X99854000Y-160720000I-250000J0D01*
G01*
X99329000Y-160720000D01*
G75*
G02*
X99079000Y-160470000I0J250000D01*
G01*
G37*
G36*
G01*
X110899000Y-144330000D02*
X110899000Y-145230000D01*
G75*
G02*
X110649000Y-145480000I-250000J0D01*
G01*
X110124000Y-145480000D01*
G75*
G02*
X109874000Y-145230000I0J250000D01*
G01*
X109874000Y-144330000D01*
G75*
G02*
X110124000Y-144080000I250000J0D01*
G01*
X110649000Y-144080000D01*
G75*
G02*
X110899000Y-144330000I0J-250000D01*
G01*
G37*
G36*
G01*
X109074000Y-144330000D02*
X109074000Y-145230000D01*
G75*
G02*
X108824000Y-145480000I-250000J0D01*
G01*
X108299000Y-145480000D01*
G75*
G02*
X108049000Y-145230000I0J250000D01*
G01*
X108049000Y-144330000D01*
G75*
G02*
X108299000Y-144080000I250000J0D01*
G01*
X108824000Y-144080000D01*
G75*
G02*
X109074000Y-144330000I0J-250000D01*
G01*
G37*
D14*
X141605000Y-164375250D03*
X141605000Y-161075250D03*
G36*
G01*
X116614000Y-132646000D02*
X116614000Y-133546000D01*
G75*
G02*
X116364000Y-133796000I-250000J0D01*
G01*
X115839000Y-133796000D01*
G75*
G02*
X115589000Y-133546000I0J250000D01*
G01*
X115589000Y-132646000D01*
G75*
G02*
X115839000Y-132396000I250000J0D01*
G01*
X116364000Y-132396000D01*
G75*
G02*
X116614000Y-132646000I0J-250000D01*
G01*
G37*
G36*
G01*
X114789000Y-132646000D02*
X114789000Y-133546000D01*
G75*
G02*
X114539000Y-133796000I-250000J0D01*
G01*
X114014000Y-133796000D01*
G75*
G02*
X113764000Y-133546000I0J250000D01*
G01*
X113764000Y-132646000D01*
G75*
G02*
X114014000Y-132396000I250000J0D01*
G01*
X114539000Y-132396000D01*
G75*
G02*
X114789000Y-132646000I0J-250000D01*
G01*
G37*
G36*
G01*
X123853000Y-135948000D02*
X123853000Y-136848000D01*
G75*
G02*
X123603000Y-137098000I-250000J0D01*
G01*
X123078000Y-137098000D01*
G75*
G02*
X122828000Y-136848000I0J250000D01*
G01*
X122828000Y-135948000D01*
G75*
G02*
X123078000Y-135698000I250000J0D01*
G01*
X123603000Y-135698000D01*
G75*
G02*
X123853000Y-135948000I0J-250000D01*
G01*
G37*
G36*
G01*
X122028000Y-135948000D02*
X122028000Y-136848000D01*
G75*
G02*
X121778000Y-137098000I-250000J0D01*
G01*
X121253000Y-137098000D01*
G75*
G02*
X121003000Y-136848000I0J250000D01*
G01*
X121003000Y-135948000D01*
G75*
G02*
X121253000Y-135698000I250000J0D01*
G01*
X121778000Y-135698000D01*
G75*
G02*
X122028000Y-135948000I0J-250000D01*
G01*
G37*
G36*
G01*
X42319000Y-165285000D02*
X42319000Y-166185000D01*
G75*
G02*
X42069000Y-166435000I-250000J0D01*
G01*
X41544000Y-166435000D01*
G75*
G02*
X41294000Y-166185000I0J250000D01*
G01*
X41294000Y-165285000D01*
G75*
G02*
X41544000Y-165035000I250000J0D01*
G01*
X42069000Y-165035000D01*
G75*
G02*
X42319000Y-165285000I0J-250000D01*
G01*
G37*
G36*
G01*
X40494000Y-165285000D02*
X40494000Y-166185000D01*
G75*
G02*
X40244000Y-166435000I-250000J0D01*
G01*
X39719000Y-166435000D01*
G75*
G02*
X39469000Y-166185000I0J250000D01*
G01*
X39469000Y-165285000D01*
G75*
G02*
X39719000Y-165035000I250000J0D01*
G01*
X40244000Y-165035000D01*
G75*
G02*
X40494000Y-165285000I0J-250000D01*
G01*
G37*
G36*
G01*
X87091000Y-120537000D02*
X87091000Y-121737000D01*
G75*
G02*
X86891000Y-121937000I-200000J0D01*
G01*
X86491000Y-121937000D01*
G75*
G02*
X86291000Y-121737000I0J200000D01*
G01*
X86291000Y-120537000D01*
G75*
G02*
X86491000Y-120337000I200000J0D01*
G01*
X86891000Y-120337000D01*
G75*
G02*
X87091000Y-120537000I0J-200000D01*
G01*
G37*
G36*
G01*
X85841000Y-120537000D02*
X85841000Y-121737000D01*
G75*
G02*
X85641000Y-121937000I-200000J0D01*
G01*
X85241000Y-121937000D01*
G75*
G02*
X85041000Y-121737000I0J200000D01*
G01*
X85041000Y-120537000D01*
G75*
G02*
X85241000Y-120337000I200000J0D01*
G01*
X85641000Y-120337000D01*
G75*
G02*
X85841000Y-120537000I0J-200000D01*
G01*
G37*
G36*
G01*
X84591000Y-120537000D02*
X84591000Y-121737000D01*
G75*
G02*
X84391000Y-121937000I-200000J0D01*
G01*
X83991000Y-121937000D01*
G75*
G02*
X83791000Y-121737000I0J200000D01*
G01*
X83791000Y-120537000D01*
G75*
G02*
X83991000Y-120337000I200000J0D01*
G01*
X84391000Y-120337000D01*
G75*
G02*
X84591000Y-120537000I0J-200000D01*
G01*
G37*
G36*
G01*
X83341000Y-120537000D02*
X83341000Y-121737000D01*
G75*
G02*
X83141000Y-121937000I-200000J0D01*
G01*
X82741000Y-121937000D01*
G75*
G02*
X82541000Y-121737000I0J200000D01*
G01*
X82541000Y-120537000D01*
G75*
G02*
X82741000Y-120337000I200000J0D01*
G01*
X83141000Y-120337000D01*
G75*
G02*
X83341000Y-120537000I0J-200000D01*
G01*
G37*
G36*
G01*
X90291000Y-116987001D02*
X90291000Y-119486999D01*
G75*
G02*
X90040999Y-119737000I-250001J0D01*
G01*
X88441001Y-119737000D01*
G75*
G02*
X88191000Y-119486999I0J250001D01*
G01*
X88191000Y-116987001D01*
G75*
G02*
X88441001Y-116737000I250001J0D01*
G01*
X90040999Y-116737000D01*
G75*
G02*
X90291000Y-116987001I0J-250001D01*
G01*
G37*
G36*
G01*
X81441000Y-116987001D02*
X81441000Y-119486999D01*
G75*
G02*
X81190999Y-119737000I-250001J0D01*
G01*
X79591001Y-119737000D01*
G75*
G02*
X79341000Y-119486999I0J250001D01*
G01*
X79341000Y-116987001D01*
G75*
G02*
X79591001Y-116737000I250001J0D01*
G01*
X81190999Y-116737000D01*
G75*
G02*
X81441000Y-116987001I0J-250001D01*
G01*
G37*
G36*
G01*
X110899000Y-149156000D02*
X110899000Y-150056000D01*
G75*
G02*
X110649000Y-150306000I-250000J0D01*
G01*
X110124000Y-150306000D01*
G75*
G02*
X109874000Y-150056000I0J250000D01*
G01*
X109874000Y-149156000D01*
G75*
G02*
X110124000Y-148906000I250000J0D01*
G01*
X110649000Y-148906000D01*
G75*
G02*
X110899000Y-149156000I0J-250000D01*
G01*
G37*
G36*
G01*
X109074000Y-149156000D02*
X109074000Y-150056000D01*
G75*
G02*
X108824000Y-150306000I-250000J0D01*
G01*
X108299000Y-150306000D01*
G75*
G02*
X108049000Y-150056000I0J250000D01*
G01*
X108049000Y-149156000D01*
G75*
G02*
X108299000Y-148906000I250000J0D01*
G01*
X108824000Y-148906000D01*
G75*
G02*
X109074000Y-149156000I0J-250000D01*
G01*
G37*
G36*
G01*
X134800000Y-151163000D02*
X134800000Y-152113000D01*
G75*
G02*
X134550000Y-152363000I-250000J0D01*
G01*
X134050000Y-152363000D01*
G75*
G02*
X133800000Y-152113000I0J250000D01*
G01*
X133800000Y-151163000D01*
G75*
G02*
X134050000Y-150913000I250000J0D01*
G01*
X134550000Y-150913000D01*
G75*
G02*
X134800000Y-151163000I0J-250000D01*
G01*
G37*
G36*
G01*
X132900000Y-151163000D02*
X132900000Y-152113000D01*
G75*
G02*
X132650000Y-152363000I-250000J0D01*
G01*
X132150000Y-152363000D01*
G75*
G02*
X131900000Y-152113000I0J250000D01*
G01*
X131900000Y-151163000D01*
G75*
G02*
X132150000Y-150913000I250000J0D01*
G01*
X132650000Y-150913000D01*
G75*
G02*
X132900000Y-151163000I0J-250000D01*
G01*
G37*
G36*
G01*
X79555000Y-164879000D02*
X79555000Y-165829000D01*
G75*
G02*
X79305000Y-166079000I-250000J0D01*
G01*
X78805000Y-166079000D01*
G75*
G02*
X78555000Y-165829000I0J250000D01*
G01*
X78555000Y-164879000D01*
G75*
G02*
X78805000Y-164629000I250000J0D01*
G01*
X79305000Y-164629000D01*
G75*
G02*
X79555000Y-164879000I0J-250000D01*
G01*
G37*
G36*
G01*
X77655000Y-164879000D02*
X77655000Y-165829000D01*
G75*
G02*
X77405000Y-166079000I-250000J0D01*
G01*
X76905000Y-166079000D01*
G75*
G02*
X76655000Y-165829000I0J250000D01*
G01*
X76655000Y-164879000D01*
G75*
G02*
X76905000Y-164629000I250000J0D01*
G01*
X77405000Y-164629000D01*
G75*
G02*
X77655000Y-164879000I0J-250000D01*
G01*
G37*
G36*
G01*
X119306000Y-135923000D02*
X119306000Y-136873000D01*
G75*
G02*
X119056000Y-137123000I-250000J0D01*
G01*
X118556000Y-137123000D01*
G75*
G02*
X118306000Y-136873000I0J250000D01*
G01*
X118306000Y-135923000D01*
G75*
G02*
X118556000Y-135673000I250000J0D01*
G01*
X119056000Y-135673000D01*
G75*
G02*
X119306000Y-135923000I0J-250000D01*
G01*
G37*
G36*
G01*
X117406000Y-135923000D02*
X117406000Y-136873000D01*
G75*
G02*
X117156000Y-137123000I-250000J0D01*
G01*
X116656000Y-137123000D01*
G75*
G02*
X116406000Y-136873000I0J250000D01*
G01*
X116406000Y-135923000D01*
G75*
G02*
X116656000Y-135673000I250000J0D01*
G01*
X117156000Y-135673000D01*
G75*
G02*
X117406000Y-135923000I0J-250000D01*
G01*
G37*
G36*
G01*
X79444000Y-175669000D02*
X78544000Y-175669000D01*
G75*
G02*
X78294000Y-175419000I0J250000D01*
G01*
X78294000Y-174894000D01*
G75*
G02*
X78544000Y-174644000I250000J0D01*
G01*
X79444000Y-174644000D01*
G75*
G02*
X79694000Y-174894000I0J-250000D01*
G01*
X79694000Y-175419000D01*
G75*
G02*
X79444000Y-175669000I-250000J0D01*
G01*
G37*
G36*
G01*
X79444000Y-173844000D02*
X78544000Y-173844000D01*
G75*
G02*
X78294000Y-173594000I0J250000D01*
G01*
X78294000Y-173069000D01*
G75*
G02*
X78544000Y-172819000I250000J0D01*
G01*
X79444000Y-172819000D01*
G75*
G02*
X79694000Y-173069000I0J-250000D01*
G01*
X79694000Y-173594000D01*
G75*
G02*
X79444000Y-173844000I-250000J0D01*
G01*
G37*
G36*
G01*
X84602500Y-140283250D02*
X84602500Y-139370750D01*
G75*
G02*
X84846250Y-139127000I243750J0D01*
G01*
X85333750Y-139127000D01*
G75*
G02*
X85577500Y-139370750I0J-243750D01*
G01*
X85577500Y-140283250D01*
G75*
G02*
X85333750Y-140527000I-243750J0D01*
G01*
X84846250Y-140527000D01*
G75*
G02*
X84602500Y-140283250I0J243750D01*
G01*
G37*
G36*
G01*
X86477500Y-140283250D02*
X86477500Y-139370750D01*
G75*
G02*
X86721250Y-139127000I243750J0D01*
G01*
X87208750Y-139127000D01*
G75*
G02*
X87452500Y-139370750I0J-243750D01*
G01*
X87452500Y-140283250D01*
G75*
G02*
X87208750Y-140527000I-243750J0D01*
G01*
X86721250Y-140527000D01*
G75*
G02*
X86477500Y-140283250I0J243750D01*
G01*
G37*
D10*
X70103000Y-178689000D03*
X66803000Y-178689000D03*
G36*
G01*
X110899000Y-136837000D02*
X110899000Y-137737000D01*
G75*
G02*
X110649000Y-137987000I-250000J0D01*
G01*
X110124000Y-137987000D01*
G75*
G02*
X109874000Y-137737000I0J250000D01*
G01*
X109874000Y-136837000D01*
G75*
G02*
X110124000Y-136587000I250000J0D01*
G01*
X110649000Y-136587000D01*
G75*
G02*
X110899000Y-136837000I0J-250000D01*
G01*
G37*
G36*
G01*
X109074000Y-136837000D02*
X109074000Y-137737000D01*
G75*
G02*
X108824000Y-137987000I-250000J0D01*
G01*
X108299000Y-137987000D01*
G75*
G02*
X108049000Y-137737000I0J250000D01*
G01*
X108049000Y-136837000D01*
G75*
G02*
X108299000Y-136587000I250000J0D01*
G01*
X108824000Y-136587000D01*
G75*
G02*
X109074000Y-136837000I0J-250000D01*
G01*
G37*
G36*
G01*
X119581000Y-162908000D02*
X119581000Y-161958000D01*
G75*
G02*
X119831000Y-161708000I250000J0D01*
G01*
X120331000Y-161708000D01*
G75*
G02*
X120581000Y-161958000I0J-250000D01*
G01*
X120581000Y-162908000D01*
G75*
G02*
X120331000Y-163158000I-250000J0D01*
G01*
X119831000Y-163158000D01*
G75*
G02*
X119581000Y-162908000I0J250000D01*
G01*
G37*
G36*
G01*
X121481000Y-162908000D02*
X121481000Y-161958000D01*
G75*
G02*
X121731000Y-161708000I250000J0D01*
G01*
X122231000Y-161708000D01*
G75*
G02*
X122481000Y-161958000I0J-250000D01*
G01*
X122481000Y-162908000D01*
G75*
G02*
X122231000Y-163158000I-250000J0D01*
G01*
X121731000Y-163158000D01*
G75*
G02*
X121481000Y-162908000I0J250000D01*
G01*
G37*
X66803000Y-182118000D03*
X70103000Y-182118000D03*
G36*
G01*
X139196500Y-144584000D02*
X139196500Y-145484000D01*
G75*
G02*
X138946500Y-145734000I-250000J0D01*
G01*
X138421500Y-145734000D01*
G75*
G02*
X138171500Y-145484000I0J250000D01*
G01*
X138171500Y-144584000D01*
G75*
G02*
X138421500Y-144334000I250000J0D01*
G01*
X138946500Y-144334000D01*
G75*
G02*
X139196500Y-144584000I0J-250000D01*
G01*
G37*
G36*
G01*
X137371500Y-144584000D02*
X137371500Y-145484000D01*
G75*
G02*
X137121500Y-145734000I-250000J0D01*
G01*
X136596500Y-145734000D01*
G75*
G02*
X136346500Y-145484000I0J250000D01*
G01*
X136346500Y-144584000D01*
G75*
G02*
X136596500Y-144334000I250000J0D01*
G01*
X137121500Y-144334000D01*
G75*
G02*
X137371500Y-144584000I0J-250000D01*
G01*
G37*
G36*
G01*
X42319000Y-161729000D02*
X42319000Y-162629000D01*
G75*
G02*
X42069000Y-162879000I-250000J0D01*
G01*
X41544000Y-162879000D01*
G75*
G02*
X41294000Y-162629000I0J250000D01*
G01*
X41294000Y-161729000D01*
G75*
G02*
X41544000Y-161479000I250000J0D01*
G01*
X42069000Y-161479000D01*
G75*
G02*
X42319000Y-161729000I0J-250000D01*
G01*
G37*
G36*
G01*
X40494000Y-161729000D02*
X40494000Y-162629000D01*
G75*
G02*
X40244000Y-162879000I-250000J0D01*
G01*
X39719000Y-162879000D01*
G75*
G02*
X39469000Y-162629000I0J250000D01*
G01*
X39469000Y-161729000D01*
G75*
G02*
X39719000Y-161479000I250000J0D01*
G01*
X40244000Y-161479000D01*
G75*
G02*
X40494000Y-161729000I0J-250000D01*
G01*
G37*
G36*
G01*
X101040250Y-173637000D02*
X100127750Y-173637000D01*
G75*
G02*
X99884000Y-173393250I0J243750D01*
G01*
X99884000Y-172905750D01*
G75*
G02*
X100127750Y-172662000I243750J0D01*
G01*
X101040250Y-172662000D01*
G75*
G02*
X101284000Y-172905750I0J-243750D01*
G01*
X101284000Y-173393250D01*
G75*
G02*
X101040250Y-173637000I-243750J0D01*
G01*
G37*
G36*
G01*
X101040250Y-171762000D02*
X100127750Y-171762000D01*
G75*
G02*
X99884000Y-171518250I0J243750D01*
G01*
X99884000Y-171030750D01*
G75*
G02*
X100127750Y-170787000I243750J0D01*
G01*
X101040250Y-170787000D01*
G75*
G02*
X101284000Y-171030750I0J-243750D01*
G01*
X101284000Y-171518250D01*
G75*
G02*
X101040250Y-171762000I-243750J0D01*
G01*
G37*
G36*
G01*
X118947250Y-173637000D02*
X118034750Y-173637000D01*
G75*
G02*
X117791000Y-173393250I0J243750D01*
G01*
X117791000Y-172905750D01*
G75*
G02*
X118034750Y-172662000I243750J0D01*
G01*
X118947250Y-172662000D01*
G75*
G02*
X119191000Y-172905750I0J-243750D01*
G01*
X119191000Y-173393250D01*
G75*
G02*
X118947250Y-173637000I-243750J0D01*
G01*
G37*
G36*
G01*
X118947250Y-171762000D02*
X118034750Y-171762000D01*
G75*
G02*
X117791000Y-171518250I0J243750D01*
G01*
X117791000Y-171030750D01*
G75*
G02*
X118034750Y-170787000I243750J0D01*
G01*
X118947250Y-170787000D01*
G75*
G02*
X119191000Y-171030750I0J-243750D01*
G01*
X119191000Y-171518250D01*
G75*
G02*
X118947250Y-171762000I-243750J0D01*
G01*
G37*
G36*
G01*
X61288000Y-144366000D02*
X61288000Y-143416000D01*
G75*
G02*
X61538000Y-143166000I250000J0D01*
G01*
X62038000Y-143166000D01*
G75*
G02*
X62288000Y-143416000I0J-250000D01*
G01*
X62288000Y-144366000D01*
G75*
G02*
X62038000Y-144616000I-250000J0D01*
G01*
X61538000Y-144616000D01*
G75*
G02*
X61288000Y-144366000I0J250000D01*
G01*
G37*
G36*
G01*
X63188000Y-144366000D02*
X63188000Y-143416000D01*
G75*
G02*
X63438000Y-143166000I250000J0D01*
G01*
X63938000Y-143166000D01*
G75*
G02*
X64188000Y-143416000I0J-250000D01*
G01*
X64188000Y-144366000D01*
G75*
G02*
X63938000Y-144616000I-250000J0D01*
G01*
X63438000Y-144616000D01*
G75*
G02*
X63188000Y-144366000I0J250000D01*
G01*
G37*
G36*
G01*
X72362000Y-169868000D02*
X72362000Y-168968000D01*
G75*
G02*
X72612000Y-168718000I250000J0D01*
G01*
X73137000Y-168718000D01*
G75*
G02*
X73387000Y-168968000I0J-250000D01*
G01*
X73387000Y-169868000D01*
G75*
G02*
X73137000Y-170118000I-250000J0D01*
G01*
X72612000Y-170118000D01*
G75*
G02*
X72362000Y-169868000I0J250000D01*
G01*
G37*
G36*
G01*
X74187000Y-169868000D02*
X74187000Y-168968000D01*
G75*
G02*
X74437000Y-168718000I250000J0D01*
G01*
X74962000Y-168718000D01*
G75*
G02*
X75212000Y-168968000I0J-250000D01*
G01*
X75212000Y-169868000D01*
G75*
G02*
X74962000Y-170118000I-250000J0D01*
G01*
X74437000Y-170118000D01*
G75*
G02*
X74187000Y-169868000I0J250000D01*
G01*
G37*
G36*
G01*
X114502250Y-173637000D02*
X113589750Y-173637000D01*
G75*
G02*
X113346000Y-173393250I0J243750D01*
G01*
X113346000Y-172905750D01*
G75*
G02*
X113589750Y-172662000I243750J0D01*
G01*
X114502250Y-172662000D01*
G75*
G02*
X114746000Y-172905750I0J-243750D01*
G01*
X114746000Y-173393250D01*
G75*
G02*
X114502250Y-173637000I-243750J0D01*
G01*
G37*
G36*
G01*
X114502250Y-171762000D02*
X113589750Y-171762000D01*
G75*
G02*
X113346000Y-171518250I0J243750D01*
G01*
X113346000Y-171030750D01*
G75*
G02*
X113589750Y-170787000I243750J0D01*
G01*
X114502250Y-170787000D01*
G75*
G02*
X114746000Y-171030750I0J-243750D01*
G01*
X114746000Y-171518250D01*
G75*
G02*
X114502250Y-171762000I-243750J0D01*
G01*
G37*
G36*
G01*
X94630000Y-148211000D02*
X94630000Y-149315000D01*
G75*
G02*
X94492000Y-149453000I-138000J0D01*
G01*
X92668000Y-149453000D01*
G75*
G02*
X92530000Y-149315000I0J138000D01*
G01*
X92530000Y-148211000D01*
G75*
G02*
X92668000Y-148073000I138000J0D01*
G01*
X94492000Y-148073000D01*
G75*
G02*
X94630000Y-148211000I0J-138000D01*
G01*
G37*
G36*
G01*
X103730000Y-148211000D02*
X103730000Y-149315000D01*
G75*
G02*
X103592000Y-149453000I-138000J0D01*
G01*
X101768000Y-149453000D01*
G75*
G02*
X101630000Y-149315000I0J138000D01*
G01*
X101630000Y-148211000D01*
G75*
G02*
X101768000Y-148073000I138000J0D01*
G01*
X103592000Y-148073000D01*
G75*
G02*
X103730000Y-148211000I0J-138000D01*
G01*
G37*
G36*
G01*
X94630000Y-152691000D02*
X94630000Y-153795000D01*
G75*
G02*
X94492000Y-153933000I-138000J0D01*
G01*
X92668000Y-153933000D01*
G75*
G02*
X92530000Y-153795000I0J138000D01*
G01*
X92530000Y-152691000D01*
G75*
G02*
X92668000Y-152553000I138000J0D01*
G01*
X94492000Y-152553000D01*
G75*
G02*
X94630000Y-152691000I0J-138000D01*
G01*
G37*
G36*
G01*
X103730000Y-152691000D02*
X103730000Y-153795000D01*
G75*
G02*
X103592000Y-153933000I-138000J0D01*
G01*
X101768000Y-153933000D01*
G75*
G02*
X101630000Y-153795000I0J138000D01*
G01*
X101630000Y-152691000D01*
G75*
G02*
X101768000Y-152553000I138000J0D01*
G01*
X103592000Y-152553000D01*
G75*
G02*
X103730000Y-152691000I0J-138000D01*
G01*
G37*
G36*
G01*
X147596000Y-155343000D02*
X146346000Y-155343000D01*
G75*
G02*
X146196000Y-155193000I0J150000D01*
G01*
X146196000Y-154893000D01*
G75*
G02*
X146346000Y-154743000I150000J0D01*
G01*
X147596000Y-154743000D01*
G75*
G02*
X147746000Y-154893000I0J-150000D01*
G01*
X147746000Y-155193000D01*
G75*
G02*
X147596000Y-155343000I-150000J0D01*
G01*
G37*
G36*
G01*
X147596000Y-154343000D02*
X146346000Y-154343000D01*
G75*
G02*
X146196000Y-154193000I0J150000D01*
G01*
X146196000Y-153893000D01*
G75*
G02*
X146346000Y-153743000I150000J0D01*
G01*
X147596000Y-153743000D01*
G75*
G02*
X147746000Y-153893000I0J-150000D01*
G01*
X147746000Y-154193000D01*
G75*
G02*
X147596000Y-154343000I-150000J0D01*
G01*
G37*
G36*
G01*
X147596000Y-153343000D02*
X146346000Y-153343000D01*
G75*
G02*
X146196000Y-153193000I0J150000D01*
G01*
X146196000Y-152893000D01*
G75*
G02*
X146346000Y-152743000I150000J0D01*
G01*
X147596000Y-152743000D01*
G75*
G02*
X147746000Y-152893000I0J-150000D01*
G01*
X147746000Y-153193000D01*
G75*
G02*
X147596000Y-153343000I-150000J0D01*
G01*
G37*
G36*
G01*
X147596000Y-152343000D02*
X146346000Y-152343000D01*
G75*
G02*
X146196000Y-152193000I0J150000D01*
G01*
X146196000Y-151893000D01*
G75*
G02*
X146346000Y-151743000I150000J0D01*
G01*
X147596000Y-151743000D01*
G75*
G02*
X147746000Y-151893000I0J-150000D01*
G01*
X147746000Y-152193000D01*
G75*
G02*
X147596000Y-152343000I-150000J0D01*
G01*
G37*
G36*
G01*
X151496000Y-151343000D02*
X150196000Y-151343000D01*
G75*
G02*
X149946000Y-151093000I0J250000D01*
G01*
X149946000Y-150393000D01*
G75*
G02*
X150196000Y-150143000I250000J0D01*
G01*
X151496000Y-150143000D01*
G75*
G02*
X151746000Y-150393000I0J-250000D01*
G01*
X151746000Y-151093000D01*
G75*
G02*
X151496000Y-151343000I-250000J0D01*
G01*
G37*
G36*
G01*
X151496000Y-156943000D02*
X150196000Y-156943000D01*
G75*
G02*
X149946000Y-156693000I0J250000D01*
G01*
X149946000Y-155993000D01*
G75*
G02*
X150196000Y-155743000I250000J0D01*
G01*
X151496000Y-155743000D01*
G75*
G02*
X151746000Y-155993000I0J-250000D01*
G01*
X151746000Y-156693000D01*
G75*
G02*
X151496000Y-156943000I-250000J0D01*
G01*
G37*
D15*
X53849000Y-164489000D03*
G36*
X57799000Y-166914000D02*
G01*
X55199000Y-166914000D01*
X54674000Y-166389000D01*
X53199000Y-166389000D01*
X53199000Y-165589000D01*
X54674000Y-165589000D01*
X55199000Y-165064000D01*
X57799000Y-165064000D01*
X57799000Y-166914000D01*
G37*
X53849000Y-167489000D03*
G36*
G01*
X84554000Y-152602250D02*
X84554000Y-151689750D01*
G75*
G02*
X84797750Y-151446000I243750J0D01*
G01*
X85285250Y-151446000D01*
G75*
G02*
X85529000Y-151689750I0J-243750D01*
G01*
X85529000Y-152602250D01*
G75*
G02*
X85285250Y-152846000I-243750J0D01*
G01*
X84797750Y-152846000D01*
G75*
G02*
X84554000Y-152602250I0J243750D01*
G01*
G37*
G36*
G01*
X86429000Y-152602250D02*
X86429000Y-151689750D01*
G75*
G02*
X86672750Y-151446000I243750J0D01*
G01*
X87160250Y-151446000D01*
G75*
G02*
X87404000Y-151689750I0J-243750D01*
G01*
X87404000Y-152602250D01*
G75*
G02*
X87160250Y-152846000I-243750J0D01*
G01*
X86672750Y-152846000D01*
G75*
G02*
X86429000Y-152602250I0J243750D01*
G01*
G37*
G36*
G01*
X132392000Y-165580000D02*
X133292000Y-165580000D01*
G75*
G02*
X133542000Y-165830000I0J-250000D01*
G01*
X133542000Y-166355000D01*
G75*
G02*
X133292000Y-166605000I-250000J0D01*
G01*
X132392000Y-166605000D01*
G75*
G02*
X132142000Y-166355000I0J250000D01*
G01*
X132142000Y-165830000D01*
G75*
G02*
X132392000Y-165580000I250000J0D01*
G01*
G37*
G36*
G01*
X132392000Y-167405000D02*
X133292000Y-167405000D01*
G75*
G02*
X133542000Y-167655000I0J-250000D01*
G01*
X133542000Y-168180000D01*
G75*
G02*
X133292000Y-168430000I-250000J0D01*
G01*
X132392000Y-168430000D01*
G75*
G02*
X132142000Y-168180000I0J250000D01*
G01*
X132142000Y-167655000D01*
G75*
G02*
X132392000Y-167405000I250000J0D01*
G01*
G37*
G36*
G01*
X53287000Y-161892000D02*
X53287000Y-160942000D01*
G75*
G02*
X53537000Y-160692000I250000J0D01*
G01*
X54037000Y-160692000D01*
G75*
G02*
X54287000Y-160942000I0J-250000D01*
G01*
X54287000Y-161892000D01*
G75*
G02*
X54037000Y-162142000I-250000J0D01*
G01*
X53537000Y-162142000D01*
G75*
G02*
X53287000Y-161892000I0J250000D01*
G01*
G37*
G36*
G01*
X55187000Y-161892000D02*
X55187000Y-160942000D01*
G75*
G02*
X55437000Y-160692000I250000J0D01*
G01*
X55937000Y-160692000D01*
G75*
G02*
X56187000Y-160942000I0J-250000D01*
G01*
X56187000Y-161892000D01*
G75*
G02*
X55937000Y-162142000I-250000J0D01*
G01*
X55437000Y-162142000D01*
G75*
G02*
X55187000Y-161892000I0J250000D01*
G01*
G37*
G36*
G01*
X134800000Y-157767000D02*
X134800000Y-158717000D01*
G75*
G02*
X134550000Y-158967000I-250000J0D01*
G01*
X134050000Y-158967000D01*
G75*
G02*
X133800000Y-158717000I0J250000D01*
G01*
X133800000Y-157767000D01*
G75*
G02*
X134050000Y-157517000I250000J0D01*
G01*
X134550000Y-157517000D01*
G75*
G02*
X134800000Y-157767000I0J-250000D01*
G01*
G37*
G36*
G01*
X132900000Y-157767000D02*
X132900000Y-158717000D01*
G75*
G02*
X132650000Y-158967000I-250000J0D01*
G01*
X132150000Y-158967000D01*
G75*
G02*
X131900000Y-158717000I0J250000D01*
G01*
X131900000Y-157767000D01*
G75*
G02*
X132150000Y-157517000I250000J0D01*
G01*
X132650000Y-157517000D01*
G75*
G02*
X132900000Y-157767000I0J-250000D01*
G01*
G37*
G36*
G01*
X110899000Y-139250000D02*
X110899000Y-140150000D01*
G75*
G02*
X110649000Y-140400000I-250000J0D01*
G01*
X110124000Y-140400000D01*
G75*
G02*
X109874000Y-140150000I0J250000D01*
G01*
X109874000Y-139250000D01*
G75*
G02*
X110124000Y-139000000I250000J0D01*
G01*
X110649000Y-139000000D01*
G75*
G02*
X110899000Y-139250000I0J-250000D01*
G01*
G37*
G36*
G01*
X109074000Y-139250000D02*
X109074000Y-140150000D01*
G75*
G02*
X108824000Y-140400000I-250000J0D01*
G01*
X108299000Y-140400000D01*
G75*
G02*
X108049000Y-140150000I0J250000D01*
G01*
X108049000Y-139250000D01*
G75*
G02*
X108299000Y-139000000I250000J0D01*
G01*
X108824000Y-139000000D01*
G75*
G02*
X109074000Y-139250000I0J-250000D01*
G01*
G37*
D14*
X79019400Y-161949750D03*
X79019400Y-158649750D03*
G36*
G01*
X53970000Y-175556000D02*
X53970000Y-174456000D01*
G75*
G02*
X54220000Y-174206000I250000J0D01*
G01*
X57220000Y-174206000D01*
G75*
G02*
X57470000Y-174456000I0J-250000D01*
G01*
X57470000Y-175556000D01*
G75*
G02*
X57220000Y-175806000I-250000J0D01*
G01*
X54220000Y-175806000D01*
G75*
G02*
X53970000Y-175556000I0J250000D01*
G01*
G37*
G36*
G01*
X59370000Y-175556000D02*
X59370000Y-174456000D01*
G75*
G02*
X59620000Y-174206000I250000J0D01*
G01*
X62620000Y-174206000D01*
G75*
G02*
X62870000Y-174456000I0J-250000D01*
G01*
X62870000Y-175556000D01*
G75*
G02*
X62620000Y-175806000I-250000J0D01*
G01*
X59620000Y-175806000D01*
G75*
G02*
X59370000Y-175556000I0J250000D01*
G01*
G37*
G36*
G01*
X84554000Y-148030250D02*
X84554000Y-147117750D01*
G75*
G02*
X84797750Y-146874000I243750J0D01*
G01*
X85285250Y-146874000D01*
G75*
G02*
X85529000Y-147117750I0J-243750D01*
G01*
X85529000Y-148030250D01*
G75*
G02*
X85285250Y-148274000I-243750J0D01*
G01*
X84797750Y-148274000D01*
G75*
G02*
X84554000Y-148030250I0J243750D01*
G01*
G37*
G36*
G01*
X86429000Y-148030250D02*
X86429000Y-147117750D01*
G75*
G02*
X86672750Y-146874000I243750J0D01*
G01*
X87160250Y-146874000D01*
G75*
G02*
X87404000Y-147117750I0J-243750D01*
G01*
X87404000Y-148030250D01*
G75*
G02*
X87160250Y-148274000I-243750J0D01*
G01*
X86672750Y-148274000D01*
G75*
G02*
X86429000Y-148030250I0J243750D01*
G01*
G37*
G36*
G01*
X74157000Y-120545000D02*
X74157000Y-121745000D01*
G75*
G02*
X73957000Y-121945000I-200000J0D01*
G01*
X73557000Y-121945000D01*
G75*
G02*
X73357000Y-121745000I0J200000D01*
G01*
X73357000Y-120545000D01*
G75*
G02*
X73557000Y-120345000I200000J0D01*
G01*
X73957000Y-120345000D01*
G75*
G02*
X74157000Y-120545000I0J-200000D01*
G01*
G37*
G36*
G01*
X72907000Y-120545000D02*
X72907000Y-121745000D01*
G75*
G02*
X72707000Y-121945000I-200000J0D01*
G01*
X72307000Y-121945000D01*
G75*
G02*
X72107000Y-121745000I0J200000D01*
G01*
X72107000Y-120545000D01*
G75*
G02*
X72307000Y-120345000I200000J0D01*
G01*
X72707000Y-120345000D01*
G75*
G02*
X72907000Y-120545000I0J-200000D01*
G01*
G37*
G36*
G01*
X71657000Y-120545000D02*
X71657000Y-121745000D01*
G75*
G02*
X71457000Y-121945000I-200000J0D01*
G01*
X71057000Y-121945000D01*
G75*
G02*
X70857000Y-121745000I0J200000D01*
G01*
X70857000Y-120545000D01*
G75*
G02*
X71057000Y-120345000I200000J0D01*
G01*
X71457000Y-120345000D01*
G75*
G02*
X71657000Y-120545000I0J-200000D01*
G01*
G37*
G36*
G01*
X70407000Y-120545000D02*
X70407000Y-121745000D01*
G75*
G02*
X70207000Y-121945000I-200000J0D01*
G01*
X69807000Y-121945000D01*
G75*
G02*
X69607000Y-121745000I0J200000D01*
G01*
X69607000Y-120545000D01*
G75*
G02*
X69807000Y-120345000I200000J0D01*
G01*
X70207000Y-120345000D01*
G75*
G02*
X70407000Y-120545000I0J-200000D01*
G01*
G37*
G36*
G01*
X68507000Y-116995001D02*
X68507000Y-119494999D01*
G75*
G02*
X68256999Y-119745000I-250001J0D01*
G01*
X66657001Y-119745000D01*
G75*
G02*
X66407000Y-119494999I0J250001D01*
G01*
X66407000Y-116995001D01*
G75*
G02*
X66657001Y-116745000I250001J0D01*
G01*
X68256999Y-116745000D01*
G75*
G02*
X68507000Y-116995001I0J-250001D01*
G01*
G37*
G36*
G01*
X77357000Y-116995001D02*
X77357000Y-119494999D01*
G75*
G02*
X77106999Y-119745000I-250001J0D01*
G01*
X75507001Y-119745000D01*
G75*
G02*
X75257000Y-119494999I0J250001D01*
G01*
X75257000Y-116995001D01*
G75*
G02*
X75507001Y-116745000I250001J0D01*
G01*
X77106999Y-116745000D01*
G75*
G02*
X77357000Y-116995001I0J-250001D01*
G01*
G37*
G36*
G01*
X121003000Y-130498000D02*
X121003000Y-129598000D01*
G75*
G02*
X121253000Y-129348000I250000J0D01*
G01*
X121778000Y-129348000D01*
G75*
G02*
X122028000Y-129598000I0J-250000D01*
G01*
X122028000Y-130498000D01*
G75*
G02*
X121778000Y-130748000I-250000J0D01*
G01*
X121253000Y-130748000D01*
G75*
G02*
X121003000Y-130498000I0J250000D01*
G01*
G37*
G36*
G01*
X122828000Y-130498000D02*
X122828000Y-129598000D01*
G75*
G02*
X123078000Y-129348000I250000J0D01*
G01*
X123603000Y-129348000D01*
G75*
G02*
X123853000Y-129598000I0J-250000D01*
G01*
X123853000Y-130498000D01*
G75*
G02*
X123603000Y-130748000I-250000J0D01*
G01*
X123078000Y-130748000D01*
G75*
G02*
X122828000Y-130498000I0J250000D01*
G01*
G37*
G36*
G01*
X108031000Y-162731000D02*
X107831000Y-162731000D01*
G75*
G02*
X107731000Y-162631000I0J100000D01*
G01*
X107731000Y-161356000D01*
G75*
G02*
X107831000Y-161256000I100000J0D01*
G01*
X108031000Y-161256000D01*
G75*
G02*
X108131000Y-161356000I0J-100000D01*
G01*
X108131000Y-162631000D01*
G75*
G02*
X108031000Y-162731000I-100000J0D01*
G01*
G37*
G36*
G01*
X108681000Y-162731000D02*
X108481000Y-162731000D01*
G75*
G02*
X108381000Y-162631000I0J100000D01*
G01*
X108381000Y-161356000D01*
G75*
G02*
X108481000Y-161256000I100000J0D01*
G01*
X108681000Y-161256000D01*
G75*
G02*
X108781000Y-161356000I0J-100000D01*
G01*
X108781000Y-162631000D01*
G75*
G02*
X108681000Y-162731000I-100000J0D01*
G01*
G37*
G36*
G01*
X109331000Y-162731000D02*
X109131000Y-162731000D01*
G75*
G02*
X109031000Y-162631000I0J100000D01*
G01*
X109031000Y-161356000D01*
G75*
G02*
X109131000Y-161256000I100000J0D01*
G01*
X109331000Y-161256000D01*
G75*
G02*
X109431000Y-161356000I0J-100000D01*
G01*
X109431000Y-162631000D01*
G75*
G02*
X109331000Y-162731000I-100000J0D01*
G01*
G37*
G36*
G01*
X109981000Y-162731000D02*
X109781000Y-162731000D01*
G75*
G02*
X109681000Y-162631000I0J100000D01*
G01*
X109681000Y-161356000D01*
G75*
G02*
X109781000Y-161256000I100000J0D01*
G01*
X109981000Y-161256000D01*
G75*
G02*
X110081000Y-161356000I0J-100000D01*
G01*
X110081000Y-162631000D01*
G75*
G02*
X109981000Y-162731000I-100000J0D01*
G01*
G37*
G36*
G01*
X110631000Y-162731000D02*
X110431000Y-162731000D01*
G75*
G02*
X110331000Y-162631000I0J100000D01*
G01*
X110331000Y-161356000D01*
G75*
G02*
X110431000Y-161256000I100000J0D01*
G01*
X110631000Y-161256000D01*
G75*
G02*
X110731000Y-161356000I0J-100000D01*
G01*
X110731000Y-162631000D01*
G75*
G02*
X110631000Y-162731000I-100000J0D01*
G01*
G37*
G36*
G01*
X111281000Y-162731000D02*
X111081000Y-162731000D01*
G75*
G02*
X110981000Y-162631000I0J100000D01*
G01*
X110981000Y-161356000D01*
G75*
G02*
X111081000Y-161256000I100000J0D01*
G01*
X111281000Y-161256000D01*
G75*
G02*
X111381000Y-161356000I0J-100000D01*
G01*
X111381000Y-162631000D01*
G75*
G02*
X111281000Y-162731000I-100000J0D01*
G01*
G37*
G36*
G01*
X111931000Y-162731000D02*
X111731000Y-162731000D01*
G75*
G02*
X111631000Y-162631000I0J100000D01*
G01*
X111631000Y-161356000D01*
G75*
G02*
X111731000Y-161256000I100000J0D01*
G01*
X111931000Y-161256000D01*
G75*
G02*
X112031000Y-161356000I0J-100000D01*
G01*
X112031000Y-162631000D01*
G75*
G02*
X111931000Y-162731000I-100000J0D01*
G01*
G37*
G36*
G01*
X112581000Y-162731000D02*
X112381000Y-162731000D01*
G75*
G02*
X112281000Y-162631000I0J100000D01*
G01*
X112281000Y-161356000D01*
G75*
G02*
X112381000Y-161256000I100000J0D01*
G01*
X112581000Y-161256000D01*
G75*
G02*
X112681000Y-161356000I0J-100000D01*
G01*
X112681000Y-162631000D01*
G75*
G02*
X112581000Y-162731000I-100000J0D01*
G01*
G37*
G36*
G01*
X113231000Y-162731000D02*
X113031000Y-162731000D01*
G75*
G02*
X112931000Y-162631000I0J100000D01*
G01*
X112931000Y-161356000D01*
G75*
G02*
X113031000Y-161256000I100000J0D01*
G01*
X113231000Y-161256000D01*
G75*
G02*
X113331000Y-161356000I0J-100000D01*
G01*
X113331000Y-162631000D01*
G75*
G02*
X113231000Y-162731000I-100000J0D01*
G01*
G37*
G36*
G01*
X113881000Y-162731000D02*
X113681000Y-162731000D01*
G75*
G02*
X113581000Y-162631000I0J100000D01*
G01*
X113581000Y-161356000D01*
G75*
G02*
X113681000Y-161256000I100000J0D01*
G01*
X113881000Y-161256000D01*
G75*
G02*
X113981000Y-161356000I0J-100000D01*
G01*
X113981000Y-162631000D01*
G75*
G02*
X113881000Y-162731000I-100000J0D01*
G01*
G37*
G36*
G01*
X114531000Y-162731000D02*
X114331000Y-162731000D01*
G75*
G02*
X114231000Y-162631000I0J100000D01*
G01*
X114231000Y-161356000D01*
G75*
G02*
X114331000Y-161256000I100000J0D01*
G01*
X114531000Y-161256000D01*
G75*
G02*
X114631000Y-161356000I0J-100000D01*
G01*
X114631000Y-162631000D01*
G75*
G02*
X114531000Y-162731000I-100000J0D01*
G01*
G37*
G36*
G01*
X115181000Y-162731000D02*
X114981000Y-162731000D01*
G75*
G02*
X114881000Y-162631000I0J100000D01*
G01*
X114881000Y-161356000D01*
G75*
G02*
X114981000Y-161256000I100000J0D01*
G01*
X115181000Y-161256000D01*
G75*
G02*
X115281000Y-161356000I0J-100000D01*
G01*
X115281000Y-162631000D01*
G75*
G02*
X115181000Y-162731000I-100000J0D01*
G01*
G37*
G36*
G01*
X115181000Y-157006000D02*
X114981000Y-157006000D01*
G75*
G02*
X114881000Y-156906000I0J100000D01*
G01*
X114881000Y-155631000D01*
G75*
G02*
X114981000Y-155531000I100000J0D01*
G01*
X115181000Y-155531000D01*
G75*
G02*
X115281000Y-155631000I0J-100000D01*
G01*
X115281000Y-156906000D01*
G75*
G02*
X115181000Y-157006000I-100000J0D01*
G01*
G37*
G36*
G01*
X114531000Y-157006000D02*
X114331000Y-157006000D01*
G75*
G02*
X114231000Y-156906000I0J100000D01*
G01*
X114231000Y-155631000D01*
G75*
G02*
X114331000Y-155531000I100000J0D01*
G01*
X114531000Y-155531000D01*
G75*
G02*
X114631000Y-155631000I0J-100000D01*
G01*
X114631000Y-156906000D01*
G75*
G02*
X114531000Y-157006000I-100000J0D01*
G01*
G37*
G36*
G01*
X113881000Y-157006000D02*
X113681000Y-157006000D01*
G75*
G02*
X113581000Y-156906000I0J100000D01*
G01*
X113581000Y-155631000D01*
G75*
G02*
X113681000Y-155531000I100000J0D01*
G01*
X113881000Y-155531000D01*
G75*
G02*
X113981000Y-155631000I0J-100000D01*
G01*
X113981000Y-156906000D01*
G75*
G02*
X113881000Y-157006000I-100000J0D01*
G01*
G37*
G36*
G01*
X113231000Y-157006000D02*
X113031000Y-157006000D01*
G75*
G02*
X112931000Y-156906000I0J100000D01*
G01*
X112931000Y-155631000D01*
G75*
G02*
X113031000Y-155531000I100000J0D01*
G01*
X113231000Y-155531000D01*
G75*
G02*
X113331000Y-155631000I0J-100000D01*
G01*
X113331000Y-156906000D01*
G75*
G02*
X113231000Y-157006000I-100000J0D01*
G01*
G37*
G36*
G01*
X112581000Y-157006000D02*
X112381000Y-157006000D01*
G75*
G02*
X112281000Y-156906000I0J100000D01*
G01*
X112281000Y-155631000D01*
G75*
G02*
X112381000Y-155531000I100000J0D01*
G01*
X112581000Y-155531000D01*
G75*
G02*
X112681000Y-155631000I0J-100000D01*
G01*
X112681000Y-156906000D01*
G75*
G02*
X112581000Y-157006000I-100000J0D01*
G01*
G37*
G36*
G01*
X111931000Y-157006000D02*
X111731000Y-157006000D01*
G75*
G02*
X111631000Y-156906000I0J100000D01*
G01*
X111631000Y-155631000D01*
G75*
G02*
X111731000Y-155531000I100000J0D01*
G01*
X111931000Y-155531000D01*
G75*
G02*
X112031000Y-155631000I0J-100000D01*
G01*
X112031000Y-156906000D01*
G75*
G02*
X111931000Y-157006000I-100000J0D01*
G01*
G37*
G36*
G01*
X111281000Y-157006000D02*
X111081000Y-157006000D01*
G75*
G02*
X110981000Y-156906000I0J100000D01*
G01*
X110981000Y-155631000D01*
G75*
G02*
X111081000Y-155531000I100000J0D01*
G01*
X111281000Y-155531000D01*
G75*
G02*
X111381000Y-155631000I0J-100000D01*
G01*
X111381000Y-156906000D01*
G75*
G02*
X111281000Y-157006000I-100000J0D01*
G01*
G37*
G36*
G01*
X110631000Y-157006000D02*
X110431000Y-157006000D01*
G75*
G02*
X110331000Y-156906000I0J100000D01*
G01*
X110331000Y-155631000D01*
G75*
G02*
X110431000Y-155531000I100000J0D01*
G01*
X110631000Y-155531000D01*
G75*
G02*
X110731000Y-155631000I0J-100000D01*
G01*
X110731000Y-156906000D01*
G75*
G02*
X110631000Y-157006000I-100000J0D01*
G01*
G37*
G36*
G01*
X109981000Y-157006000D02*
X109781000Y-157006000D01*
G75*
G02*
X109681000Y-156906000I0J100000D01*
G01*
X109681000Y-155631000D01*
G75*
G02*
X109781000Y-155531000I100000J0D01*
G01*
X109981000Y-155531000D01*
G75*
G02*
X110081000Y-155631000I0J-100000D01*
G01*
X110081000Y-156906000D01*
G75*
G02*
X109981000Y-157006000I-100000J0D01*
G01*
G37*
G36*
G01*
X109331000Y-157006000D02*
X109131000Y-157006000D01*
G75*
G02*
X109031000Y-156906000I0J100000D01*
G01*
X109031000Y-155631000D01*
G75*
G02*
X109131000Y-155531000I100000J0D01*
G01*
X109331000Y-155531000D01*
G75*
G02*
X109431000Y-155631000I0J-100000D01*
G01*
X109431000Y-156906000D01*
G75*
G02*
X109331000Y-157006000I-100000J0D01*
G01*
G37*
G36*
G01*
X108681000Y-157006000D02*
X108481000Y-157006000D01*
G75*
G02*
X108381000Y-156906000I0J100000D01*
G01*
X108381000Y-155631000D01*
G75*
G02*
X108481000Y-155531000I100000J0D01*
G01*
X108681000Y-155531000D01*
G75*
G02*
X108781000Y-155631000I0J-100000D01*
G01*
X108781000Y-156906000D01*
G75*
G02*
X108681000Y-157006000I-100000J0D01*
G01*
G37*
G36*
G01*
X108031000Y-157006000D02*
X107831000Y-157006000D01*
G75*
G02*
X107731000Y-156906000I0J100000D01*
G01*
X107731000Y-155631000D01*
G75*
G02*
X107831000Y-155531000I100000J0D01*
G01*
X108031000Y-155531000D01*
G75*
G02*
X108131000Y-155631000I0J-100000D01*
G01*
X108131000Y-156906000D01*
G75*
G02*
X108031000Y-157006000I-100000J0D01*
G01*
G37*
G36*
G01*
X42319000Y-127947000D02*
X42319000Y-128847000D01*
G75*
G02*
X42069000Y-129097000I-250000J0D01*
G01*
X41544000Y-129097000D01*
G75*
G02*
X41294000Y-128847000I0J250000D01*
G01*
X41294000Y-127947000D01*
G75*
G02*
X41544000Y-127697000I250000J0D01*
G01*
X42069000Y-127697000D01*
G75*
G02*
X42319000Y-127947000I0J-250000D01*
G01*
G37*
G36*
G01*
X40494000Y-127947000D02*
X40494000Y-128847000D01*
G75*
G02*
X40244000Y-129097000I-250000J0D01*
G01*
X39719000Y-129097000D01*
G75*
G02*
X39469000Y-128847000I0J250000D01*
G01*
X39469000Y-127947000D01*
G75*
G02*
X39719000Y-127697000I250000J0D01*
G01*
X40244000Y-127697000D01*
G75*
G02*
X40494000Y-127947000I0J-250000D01*
G01*
G37*
G36*
G01*
X132392000Y-161516000D02*
X133292000Y-161516000D01*
G75*
G02*
X133542000Y-161766000I0J-250000D01*
G01*
X133542000Y-162291000D01*
G75*
G02*
X133292000Y-162541000I-250000J0D01*
G01*
X132392000Y-162541000D01*
G75*
G02*
X132142000Y-162291000I0J250000D01*
G01*
X132142000Y-161766000D01*
G75*
G02*
X132392000Y-161516000I250000J0D01*
G01*
G37*
G36*
G01*
X132392000Y-163341000D02*
X133292000Y-163341000D01*
G75*
G02*
X133542000Y-163591000I0J-250000D01*
G01*
X133542000Y-164116000D01*
G75*
G02*
X133292000Y-164366000I-250000J0D01*
G01*
X132392000Y-164366000D01*
G75*
G02*
X132142000Y-164116000I0J250000D01*
G01*
X132142000Y-163591000D01*
G75*
G02*
X132392000Y-163341000I250000J0D01*
G01*
G37*
G36*
G01*
X56319000Y-148308000D02*
X57219000Y-148308000D01*
G75*
G02*
X57469000Y-148558000I0J-250000D01*
G01*
X57469000Y-149083000D01*
G75*
G02*
X57219000Y-149333000I-250000J0D01*
G01*
X56319000Y-149333000D01*
G75*
G02*
X56069000Y-149083000I0J250000D01*
G01*
X56069000Y-148558000D01*
G75*
G02*
X56319000Y-148308000I250000J0D01*
G01*
G37*
G36*
G01*
X56319000Y-150133000D02*
X57219000Y-150133000D01*
G75*
G02*
X57469000Y-150383000I0J-250000D01*
G01*
X57469000Y-150908000D01*
G75*
G02*
X57219000Y-151158000I-250000J0D01*
G01*
X56319000Y-151158000D01*
G75*
G02*
X56069000Y-150908000I0J250000D01*
G01*
X56069000Y-150383000D01*
G75*
G02*
X56319000Y-150133000I250000J0D01*
G01*
G37*
G36*
G01*
X147596000Y-144675000D02*
X146346000Y-144675000D01*
G75*
G02*
X146196000Y-144525000I0J150000D01*
G01*
X146196000Y-144225000D01*
G75*
G02*
X146346000Y-144075000I150000J0D01*
G01*
X147596000Y-144075000D01*
G75*
G02*
X147746000Y-144225000I0J-150000D01*
G01*
X147746000Y-144525000D01*
G75*
G02*
X147596000Y-144675000I-150000J0D01*
G01*
G37*
G36*
G01*
X147596000Y-143675000D02*
X146346000Y-143675000D01*
G75*
G02*
X146196000Y-143525000I0J150000D01*
G01*
X146196000Y-143225000D01*
G75*
G02*
X146346000Y-143075000I150000J0D01*
G01*
X147596000Y-143075000D01*
G75*
G02*
X147746000Y-143225000I0J-150000D01*
G01*
X147746000Y-143525000D01*
G75*
G02*
X147596000Y-143675000I-150000J0D01*
G01*
G37*
G36*
G01*
X147596000Y-142675000D02*
X146346000Y-142675000D01*
G75*
G02*
X146196000Y-142525000I0J150000D01*
G01*
X146196000Y-142225000D01*
G75*
G02*
X146346000Y-142075000I150000J0D01*
G01*
X147596000Y-142075000D01*
G75*
G02*
X147746000Y-142225000I0J-150000D01*
G01*
X147746000Y-142525000D01*
G75*
G02*
X147596000Y-142675000I-150000J0D01*
G01*
G37*
G36*
G01*
X147596000Y-141675000D02*
X146346000Y-141675000D01*
G75*
G02*
X146196000Y-141525000I0J150000D01*
G01*
X146196000Y-141225000D01*
G75*
G02*
X146346000Y-141075000I150000J0D01*
G01*
X147596000Y-141075000D01*
G75*
G02*
X147746000Y-141225000I0J-150000D01*
G01*
X147746000Y-141525000D01*
G75*
G02*
X147596000Y-141675000I-150000J0D01*
G01*
G37*
G36*
G01*
X151496000Y-146275000D02*
X150196000Y-146275000D01*
G75*
G02*
X149946000Y-146025000I0J250000D01*
G01*
X149946000Y-145325000D01*
G75*
G02*
X150196000Y-145075000I250000J0D01*
G01*
X151496000Y-145075000D01*
G75*
G02*
X151746000Y-145325000I0J-250000D01*
G01*
X151746000Y-146025000D01*
G75*
G02*
X151496000Y-146275000I-250000J0D01*
G01*
G37*
G36*
G01*
X151496000Y-140675000D02*
X150196000Y-140675000D01*
G75*
G02*
X149946000Y-140425000I0J250000D01*
G01*
X149946000Y-139725000D01*
G75*
G02*
X150196000Y-139475000I250000J0D01*
G01*
X151496000Y-139475000D01*
G75*
G02*
X151746000Y-139725000I0J-250000D01*
G01*
X151746000Y-140425000D01*
G75*
G02*
X151496000Y-140675000I-250000J0D01*
G01*
G37*
G36*
G01*
X94671000Y-135765000D02*
X94671000Y-136869000D01*
G75*
G02*
X94533000Y-137007000I-138000J0D01*
G01*
X92709000Y-137007000D01*
G75*
G02*
X92571000Y-136869000I0J138000D01*
G01*
X92571000Y-135765000D01*
G75*
G02*
X92709000Y-135627000I138000J0D01*
G01*
X94533000Y-135627000D01*
G75*
G02*
X94671000Y-135765000I0J-138000D01*
G01*
G37*
G36*
G01*
X103771000Y-135765000D02*
X103771000Y-136869000D01*
G75*
G02*
X103633000Y-137007000I-138000J0D01*
G01*
X101809000Y-137007000D01*
G75*
G02*
X101671000Y-136869000I0J138000D01*
G01*
X101671000Y-135765000D01*
G75*
G02*
X101809000Y-135627000I138000J0D01*
G01*
X103633000Y-135627000D01*
G75*
G02*
X103771000Y-135765000I0J-138000D01*
G01*
G37*
G36*
G01*
X94671000Y-140245000D02*
X94671000Y-141349000D01*
G75*
G02*
X94533000Y-141487000I-138000J0D01*
G01*
X92709000Y-141487000D01*
G75*
G02*
X92571000Y-141349000I0J138000D01*
G01*
X92571000Y-140245000D01*
G75*
G02*
X92709000Y-140107000I138000J0D01*
G01*
X94533000Y-140107000D01*
G75*
G02*
X94671000Y-140245000I0J-138000D01*
G01*
G37*
G36*
G01*
X103771000Y-140245000D02*
X103771000Y-141349000D01*
G75*
G02*
X103633000Y-141487000I-138000J0D01*
G01*
X101809000Y-141487000D01*
G75*
G02*
X101671000Y-141349000I0J138000D01*
G01*
X101671000Y-140245000D01*
G75*
G02*
X101809000Y-140107000I138000J0D01*
G01*
X103633000Y-140107000D01*
G75*
G02*
X103771000Y-140245000I0J-138000D01*
G01*
G37*
D13*
X123190000Y-186110750D03*
X123190000Y-182110750D03*
G36*
G01*
X76004000Y-172819000D02*
X76904000Y-172819000D01*
G75*
G02*
X77154000Y-173069000I0J-250000D01*
G01*
X77154000Y-173594000D01*
G75*
G02*
X76904000Y-173844000I-250000J0D01*
G01*
X76004000Y-173844000D01*
G75*
G02*
X75754000Y-173594000I0J250000D01*
G01*
X75754000Y-173069000D01*
G75*
G02*
X76004000Y-172819000I250000J0D01*
G01*
G37*
G36*
G01*
X76004000Y-174644000D02*
X76904000Y-174644000D01*
G75*
G02*
X77154000Y-174894000I0J-250000D01*
G01*
X77154000Y-175419000D01*
G75*
G02*
X76904000Y-175669000I-250000J0D01*
G01*
X76004000Y-175669000D01*
G75*
G02*
X75754000Y-175419000I0J250000D01*
G01*
X75754000Y-174894000D01*
G75*
G02*
X76004000Y-174644000I250000J0D01*
G01*
G37*
G36*
G01*
X42319000Y-131249000D02*
X42319000Y-132149000D01*
G75*
G02*
X42069000Y-132399000I-250000J0D01*
G01*
X41544000Y-132399000D01*
G75*
G02*
X41294000Y-132149000I0J250000D01*
G01*
X41294000Y-131249000D01*
G75*
G02*
X41544000Y-130999000I250000J0D01*
G01*
X42069000Y-130999000D01*
G75*
G02*
X42319000Y-131249000I0J-250000D01*
G01*
G37*
G36*
G01*
X40494000Y-131249000D02*
X40494000Y-132149000D01*
G75*
G02*
X40244000Y-132399000I-250000J0D01*
G01*
X39719000Y-132399000D01*
G75*
G02*
X39469000Y-132149000I0J250000D01*
G01*
X39469000Y-131249000D01*
G75*
G02*
X39719000Y-130999000I250000J0D01*
G01*
X40244000Y-130999000D01*
G75*
G02*
X40494000Y-131249000I0J-250000D01*
G01*
G37*
D10*
X66803000Y-185547000D03*
X70103000Y-185547000D03*
G36*
G01*
X110899000Y-134424000D02*
X110899000Y-135324000D01*
G75*
G02*
X110649000Y-135574000I-250000J0D01*
G01*
X110124000Y-135574000D01*
G75*
G02*
X109874000Y-135324000I0J250000D01*
G01*
X109874000Y-134424000D01*
G75*
G02*
X110124000Y-134174000I250000J0D01*
G01*
X110649000Y-134174000D01*
G75*
G02*
X110899000Y-134424000I0J-250000D01*
G01*
G37*
G36*
G01*
X109074000Y-134424000D02*
X109074000Y-135324000D01*
G75*
G02*
X108824000Y-135574000I-250000J0D01*
G01*
X108299000Y-135574000D01*
G75*
G02*
X108049000Y-135324000I0J250000D01*
G01*
X108049000Y-134424000D01*
G75*
G02*
X108299000Y-134174000I250000J0D01*
G01*
X108824000Y-134174000D01*
G75*
G02*
X109074000Y-134424000I0J-250000D01*
G01*
G37*
G36*
G01*
X122763000Y-171494000D02*
X122563000Y-171494000D01*
G75*
G02*
X122463000Y-171394000I0J100000D01*
G01*
X122463000Y-170119000D01*
G75*
G02*
X122563000Y-170019000I100000J0D01*
G01*
X122763000Y-170019000D01*
G75*
G02*
X122863000Y-170119000I0J-100000D01*
G01*
X122863000Y-171394000D01*
G75*
G02*
X122763000Y-171494000I-100000J0D01*
G01*
G37*
G36*
G01*
X123413000Y-171494000D02*
X123213000Y-171494000D01*
G75*
G02*
X123113000Y-171394000I0J100000D01*
G01*
X123113000Y-170119000D01*
G75*
G02*
X123213000Y-170019000I100000J0D01*
G01*
X123413000Y-170019000D01*
G75*
G02*
X123513000Y-170119000I0J-100000D01*
G01*
X123513000Y-171394000D01*
G75*
G02*
X123413000Y-171494000I-100000J0D01*
G01*
G37*
G36*
G01*
X124063000Y-171494000D02*
X123863000Y-171494000D01*
G75*
G02*
X123763000Y-171394000I0J100000D01*
G01*
X123763000Y-170119000D01*
G75*
G02*
X123863000Y-170019000I100000J0D01*
G01*
X124063000Y-170019000D01*
G75*
G02*
X124163000Y-170119000I0J-100000D01*
G01*
X124163000Y-171394000D01*
G75*
G02*
X124063000Y-171494000I-100000J0D01*
G01*
G37*
G36*
G01*
X124713000Y-171494000D02*
X124513000Y-171494000D01*
G75*
G02*
X124413000Y-171394000I0J100000D01*
G01*
X124413000Y-170119000D01*
G75*
G02*
X124513000Y-170019000I100000J0D01*
G01*
X124713000Y-170019000D01*
G75*
G02*
X124813000Y-170119000I0J-100000D01*
G01*
X124813000Y-171394000D01*
G75*
G02*
X124713000Y-171494000I-100000J0D01*
G01*
G37*
G36*
G01*
X125363000Y-171494000D02*
X125163000Y-171494000D01*
G75*
G02*
X125063000Y-171394000I0J100000D01*
G01*
X125063000Y-170119000D01*
G75*
G02*
X125163000Y-170019000I100000J0D01*
G01*
X125363000Y-170019000D01*
G75*
G02*
X125463000Y-170119000I0J-100000D01*
G01*
X125463000Y-171394000D01*
G75*
G02*
X125363000Y-171494000I-100000J0D01*
G01*
G37*
G36*
G01*
X126013000Y-171494000D02*
X125813000Y-171494000D01*
G75*
G02*
X125713000Y-171394000I0J100000D01*
G01*
X125713000Y-170119000D01*
G75*
G02*
X125813000Y-170019000I100000J0D01*
G01*
X126013000Y-170019000D01*
G75*
G02*
X126113000Y-170119000I0J-100000D01*
G01*
X126113000Y-171394000D01*
G75*
G02*
X126013000Y-171494000I-100000J0D01*
G01*
G37*
G36*
G01*
X126663000Y-171494000D02*
X126463000Y-171494000D01*
G75*
G02*
X126363000Y-171394000I0J100000D01*
G01*
X126363000Y-170119000D01*
G75*
G02*
X126463000Y-170019000I100000J0D01*
G01*
X126663000Y-170019000D01*
G75*
G02*
X126763000Y-170119000I0J-100000D01*
G01*
X126763000Y-171394000D01*
G75*
G02*
X126663000Y-171494000I-100000J0D01*
G01*
G37*
G36*
G01*
X127313000Y-171494000D02*
X127113000Y-171494000D01*
G75*
G02*
X127013000Y-171394000I0J100000D01*
G01*
X127013000Y-170119000D01*
G75*
G02*
X127113000Y-170019000I100000J0D01*
G01*
X127313000Y-170019000D01*
G75*
G02*
X127413000Y-170119000I0J-100000D01*
G01*
X127413000Y-171394000D01*
G75*
G02*
X127313000Y-171494000I-100000J0D01*
G01*
G37*
G36*
G01*
X127963000Y-171494000D02*
X127763000Y-171494000D01*
G75*
G02*
X127663000Y-171394000I0J100000D01*
G01*
X127663000Y-170119000D01*
G75*
G02*
X127763000Y-170019000I100000J0D01*
G01*
X127963000Y-170019000D01*
G75*
G02*
X128063000Y-170119000I0J-100000D01*
G01*
X128063000Y-171394000D01*
G75*
G02*
X127963000Y-171494000I-100000J0D01*
G01*
G37*
G36*
G01*
X128613000Y-171494000D02*
X128413000Y-171494000D01*
G75*
G02*
X128313000Y-171394000I0J100000D01*
G01*
X128313000Y-170119000D01*
G75*
G02*
X128413000Y-170019000I100000J0D01*
G01*
X128613000Y-170019000D01*
G75*
G02*
X128713000Y-170119000I0J-100000D01*
G01*
X128713000Y-171394000D01*
G75*
G02*
X128613000Y-171494000I-100000J0D01*
G01*
G37*
G36*
G01*
X129263000Y-171494000D02*
X129063000Y-171494000D01*
G75*
G02*
X128963000Y-171394000I0J100000D01*
G01*
X128963000Y-170119000D01*
G75*
G02*
X129063000Y-170019000I100000J0D01*
G01*
X129263000Y-170019000D01*
G75*
G02*
X129363000Y-170119000I0J-100000D01*
G01*
X129363000Y-171394000D01*
G75*
G02*
X129263000Y-171494000I-100000J0D01*
G01*
G37*
G36*
G01*
X129913000Y-171494000D02*
X129713000Y-171494000D01*
G75*
G02*
X129613000Y-171394000I0J100000D01*
G01*
X129613000Y-170119000D01*
G75*
G02*
X129713000Y-170019000I100000J0D01*
G01*
X129913000Y-170019000D01*
G75*
G02*
X130013000Y-170119000I0J-100000D01*
G01*
X130013000Y-171394000D01*
G75*
G02*
X129913000Y-171494000I-100000J0D01*
G01*
G37*
G36*
G01*
X129913000Y-165769000D02*
X129713000Y-165769000D01*
G75*
G02*
X129613000Y-165669000I0J100000D01*
G01*
X129613000Y-164394000D01*
G75*
G02*
X129713000Y-164294000I100000J0D01*
G01*
X129913000Y-164294000D01*
G75*
G02*
X130013000Y-164394000I0J-100000D01*
G01*
X130013000Y-165669000D01*
G75*
G02*
X129913000Y-165769000I-100000J0D01*
G01*
G37*
G36*
G01*
X129263000Y-165769000D02*
X129063000Y-165769000D01*
G75*
G02*
X128963000Y-165669000I0J100000D01*
G01*
X128963000Y-164394000D01*
G75*
G02*
X129063000Y-164294000I100000J0D01*
G01*
X129263000Y-164294000D01*
G75*
G02*
X129363000Y-164394000I0J-100000D01*
G01*
X129363000Y-165669000D01*
G75*
G02*
X129263000Y-165769000I-100000J0D01*
G01*
G37*
G36*
G01*
X128613000Y-165769000D02*
X128413000Y-165769000D01*
G75*
G02*
X128313000Y-165669000I0J100000D01*
G01*
X128313000Y-164394000D01*
G75*
G02*
X128413000Y-164294000I100000J0D01*
G01*
X128613000Y-164294000D01*
G75*
G02*
X128713000Y-164394000I0J-100000D01*
G01*
X128713000Y-165669000D01*
G75*
G02*
X128613000Y-165769000I-100000J0D01*
G01*
G37*
G36*
G01*
X127963000Y-165769000D02*
X127763000Y-165769000D01*
G75*
G02*
X127663000Y-165669000I0J100000D01*
G01*
X127663000Y-164394000D01*
G75*
G02*
X127763000Y-164294000I100000J0D01*
G01*
X127963000Y-164294000D01*
G75*
G02*
X128063000Y-164394000I0J-100000D01*
G01*
X128063000Y-165669000D01*
G75*
G02*
X127963000Y-165769000I-100000J0D01*
G01*
G37*
G36*
G01*
X127313000Y-165769000D02*
X127113000Y-165769000D01*
G75*
G02*
X127013000Y-165669000I0J100000D01*
G01*
X127013000Y-164394000D01*
G75*
G02*
X127113000Y-164294000I100000J0D01*
G01*
X127313000Y-164294000D01*
G75*
G02*
X127413000Y-164394000I0J-100000D01*
G01*
X127413000Y-165669000D01*
G75*
G02*
X127313000Y-165769000I-100000J0D01*
G01*
G37*
G36*
G01*
X126663000Y-165769000D02*
X126463000Y-165769000D01*
G75*
G02*
X126363000Y-165669000I0J100000D01*
G01*
X126363000Y-164394000D01*
G75*
G02*
X126463000Y-164294000I100000J0D01*
G01*
X126663000Y-164294000D01*
G75*
G02*
X126763000Y-164394000I0J-100000D01*
G01*
X126763000Y-165669000D01*
G75*
G02*
X126663000Y-165769000I-100000J0D01*
G01*
G37*
G36*
G01*
X126013000Y-165769000D02*
X125813000Y-165769000D01*
G75*
G02*
X125713000Y-165669000I0J100000D01*
G01*
X125713000Y-164394000D01*
G75*
G02*
X125813000Y-164294000I100000J0D01*
G01*
X126013000Y-164294000D01*
G75*
G02*
X126113000Y-164394000I0J-100000D01*
G01*
X126113000Y-165669000D01*
G75*
G02*
X126013000Y-165769000I-100000J0D01*
G01*
G37*
G36*
G01*
X125363000Y-165769000D02*
X125163000Y-165769000D01*
G75*
G02*
X125063000Y-165669000I0J100000D01*
G01*
X125063000Y-164394000D01*
G75*
G02*
X125163000Y-164294000I100000J0D01*
G01*
X125363000Y-164294000D01*
G75*
G02*
X125463000Y-164394000I0J-100000D01*
G01*
X125463000Y-165669000D01*
G75*
G02*
X125363000Y-165769000I-100000J0D01*
G01*
G37*
G36*
G01*
X124713000Y-165769000D02*
X124513000Y-165769000D01*
G75*
G02*
X124413000Y-165669000I0J100000D01*
G01*
X124413000Y-164394000D01*
G75*
G02*
X124513000Y-164294000I100000J0D01*
G01*
X124713000Y-164294000D01*
G75*
G02*
X124813000Y-164394000I0J-100000D01*
G01*
X124813000Y-165669000D01*
G75*
G02*
X124713000Y-165769000I-100000J0D01*
G01*
G37*
G36*
G01*
X124063000Y-165769000D02*
X123863000Y-165769000D01*
G75*
G02*
X123763000Y-165669000I0J100000D01*
G01*
X123763000Y-164394000D01*
G75*
G02*
X123863000Y-164294000I100000J0D01*
G01*
X124063000Y-164294000D01*
G75*
G02*
X124163000Y-164394000I0J-100000D01*
G01*
X124163000Y-165669000D01*
G75*
G02*
X124063000Y-165769000I-100000J0D01*
G01*
G37*
G36*
G01*
X123413000Y-165769000D02*
X123213000Y-165769000D01*
G75*
G02*
X123113000Y-165669000I0J100000D01*
G01*
X123113000Y-164394000D01*
G75*
G02*
X123213000Y-164294000I100000J0D01*
G01*
X123413000Y-164294000D01*
G75*
G02*
X123513000Y-164394000I0J-100000D01*
G01*
X123513000Y-165669000D01*
G75*
G02*
X123413000Y-165769000I-100000J0D01*
G01*
G37*
G36*
G01*
X122763000Y-165769000D02*
X122563000Y-165769000D01*
G75*
G02*
X122463000Y-165669000I0J100000D01*
G01*
X122463000Y-164394000D01*
G75*
G02*
X122563000Y-164294000I100000J0D01*
G01*
X122763000Y-164294000D01*
G75*
G02*
X122863000Y-164394000I0J-100000D01*
G01*
X122863000Y-165669000D01*
G75*
G02*
X122763000Y-165769000I-100000J0D01*
G01*
G37*
D16*
X70713600Y-160528000D03*
X75311000Y-160528000D03*
G36*
G01*
X105570000Y-150823000D02*
X106520000Y-150823000D01*
G75*
G02*
X106770000Y-151073000I0J-250000D01*
G01*
X106770000Y-151573000D01*
G75*
G02*
X106520000Y-151823000I-250000J0D01*
G01*
X105570000Y-151823000D01*
G75*
G02*
X105320000Y-151573000I0J250000D01*
G01*
X105320000Y-151073000D01*
G75*
G02*
X105570000Y-150823000I250000J0D01*
G01*
G37*
G36*
G01*
X105570000Y-152723000D02*
X106520000Y-152723000D01*
G75*
G02*
X106770000Y-152973000I0J-250000D01*
G01*
X106770000Y-153473000D01*
G75*
G02*
X106520000Y-153723000I-250000J0D01*
G01*
X105570000Y-153723000D01*
G75*
G02*
X105320000Y-153473000I0J250000D01*
G01*
X105320000Y-152973000D01*
G75*
G02*
X105570000Y-152723000I250000J0D01*
G01*
G37*
D14*
X141605000Y-145668000D03*
X141605000Y-142368000D03*
D17*
X107061000Y-187185000D03*
X109601000Y-187185000D03*
X112141000Y-187185000D03*
X114681000Y-187185000D03*
X117221000Y-187185000D03*
X117221000Y-178575000D03*
X114681000Y-178575000D03*
X112141000Y-178575000D03*
X109601000Y-178575000D03*
X107061000Y-178575000D03*
M02*
