M48
INCH,TZ
T1C0.0120
T2C0.0299
T3C0.0472
T4C0.0512
T5C0.1260
%
G90
G05
T1
X15450Y-58450
X15450Y-58950
X15850Y-72800
X15950Y-58450
X15950Y-58950
X16200Y-72800
X16900Y-64350
X17250Y-65750
X17600Y-67100
X17950Y-68400
X17950Y-71000
X18255Y-69695
X19750Y-47700
X19750Y-48050
X20650Y-56350
X21150Y-58450
X21150Y-59050
X21150Y-59650
X21600Y-48400
X21900Y-64750
X21900Y-65950
X22300Y-64750
X22300Y-65950
X22700Y-64750
X22700Y-65950
X23100Y-65100
X23100Y-65600
X23200Y-60050
X23500Y-68200
X23500Y-69550
X23650Y-53550
X23650Y-54050
X23850Y-60050
X24050Y-68200
X24050Y-69550
X24550Y-68200
X24550Y-69550
X24750Y-54550
X24750Y-54950
X24750Y-55300
X24900Y-47700
X24900Y-48050
X25200Y-60050
X25200Y-60500
X25600Y-53050
X25600Y-56650
X25950Y-56650
X26000Y-53050
X26250Y-48350
X27500Y-51550
X27500Y-52050
X27500Y-52550
X27500Y-54050
X27600Y-72350
X28100Y-72350
X29100Y-52550
X29200Y-65000
X29203Y-64614
X29450Y-52550
X29450Y-53050
X30050Y-47700
X30050Y-48050
X30150Y-54550
X30150Y-55050
X30350Y-64500
X30350Y-65650
X30600Y-68950
X30850Y-53050
X31100Y-65700
X31100Y-66150
X31600Y-68950
X31650Y-48350
X32400Y-51050
X33481Y-55619
X33481Y-57519
X33600Y-70150
X33600Y-73750
X35150Y-47700
X35150Y-48050
X35800Y-59950
X35850Y-55250
X35850Y-56350
X35850Y-60900
X36450Y-72200
X37632Y-60332
X37818Y-55432
X39150Y-70200
X39150Y-73800
X39568Y-55432
X39618Y-60332
X40774Y-56324
X40850Y-63000
X40950Y-60900
X41900Y-61250
X42100Y-63000
X42655Y-73695
X42850Y-60850
X45000Y-63000
X45300Y-63000
X45655Y-73695
X45700Y-64900
X46000Y-54250
X46050Y-64050
X46200Y-50400
X46200Y-51000
X46200Y-52400
X46250Y-48200
X46250Y-48800
X46350Y-64500
X47310Y-58200
X47324Y-62900
X47350Y-49085
X47350Y-49685
X47450Y-61150
X47500Y-56700
X47500Y-62400
X47610Y-58200
X47624Y-62900
X47650Y-71635
X47650Y-72135
X47800Y-49835
X47900Y-70935
X48300Y-49835
X48500Y-70935
X48750Y-49085
X48750Y-49685
X49100Y-70935
X50200Y-63300
X50850Y-62400
X51100Y-64265
X51100Y-66350
X51107Y-66693
X51400Y-54500
X51400Y-55800
X51400Y-57100
X51400Y-58400
X51400Y-62300
X51440Y-59700
X51450Y-61000
X51900Y-60350
X51900Y-63050
X52308Y-67190
X52314Y-55236
X52750Y-64950
X53186Y-59064
X53186Y-67186
X53186Y-67600
X53600Y-56450
X53600Y-63200
X53600Y-67350
X53600Y-67750
X54050Y-52850
X54050Y-53250
X54350Y-49950
X54450Y-57750
X54450Y-67350
X54800Y-49950
X54850Y-53700
X55350Y-66150
X55350Y-66550
X57850Y-57250
X57850Y-57600
X57850Y-61450
X57850Y-61800
X57850Y-65600
X57850Y-65950
X59350Y-56250
X59350Y-60450
X59350Y-64600
X59400Y-66335
T2
X50686Y-52292
X50814Y-69677
X51186Y-51292
X51314Y-68677
X51686Y-52292
X51814Y-69677
X52186Y-51292
X52314Y-68677
X52686Y-52292
X52814Y-69677
X53186Y-51292
X53314Y-68677
X53686Y-52292
X53814Y-69677
X54186Y-51292
X54314Y-68677
T3
X13850Y-49572
X13850Y-50950
X13850Y-52328
X13850Y-54322
X13850Y-55700
X13850Y-57078
X13850Y-59122
X13850Y-60500
X13850Y-61878
X13850Y-63872
X13850Y-65250
X13850Y-66628
X13850Y-68672
X13850Y-70050
X13850Y-71428
T4
X21966Y-72718
X23934Y-72718
T5
X11700Y-47200
X11700Y-73800
X58300Y-47185
X58300Y-73785
T0
M30
