G04 #@! TF.GenerationSoftware,KiCad,Pcbnew,6.0.10-86aedd382b~118~ubuntu18.04.1*
G04 #@! TF.CreationDate,2024-12-06T10:37:32-07:00*
G04 #@! TF.ProjectId,mss-cascade-adv,6d73732d-6361-4736-9361-64652d616476,rev?*
G04 #@! TF.SameCoordinates,Original*
G04 #@! TF.FileFunction,Soldermask,Bot*
G04 #@! TF.FilePolarity,Negative*
%FSLAX46Y46*%
G04 Gerber Fmt 4.6, Leading zero omitted, Abs format (unit mm)*
G04 Created by KiCad (PCBNEW 6.0.10-86aedd382b~118~ubuntu18.04.1) date 2024-12-06 10:37:32*
%MOMM*%
%LPD*%
G01*
G04 APERTURE LIST*
%ADD10C,6.552400*%
%ADD11C,2.452400*%
%ADD12C,1.143000*%
%ADD13C,3.352400*%
%ADD14C,1.652400*%
%ADD15C,2.652400*%
%ADD16C,2.152400*%
G04 APERTURE END LIST*
D10*
X29718000Y-119888000D03*
G36*
G01*
X34029000Y-173200800D02*
X36329000Y-173200800D01*
G75*
G02*
X36405200Y-173277000I0J-76200D01*
G01*
X36405200Y-175577000D01*
G75*
G02*
X36329000Y-175653200I-76200J0D01*
G01*
X34029000Y-175653200D01*
G75*
G02*
X33952800Y-175577000I0J76200D01*
G01*
X33952800Y-173277000D01*
G75*
G02*
X34029000Y-173200800I76200J0D01*
G01*
G37*
D11*
X35179000Y-177927000D03*
X35179000Y-181427000D03*
G36*
G01*
X34029000Y-124686800D02*
X36329000Y-124686800D01*
G75*
G02*
X36405200Y-124763000I0J-76200D01*
G01*
X36405200Y-127063000D01*
G75*
G02*
X36329000Y-127139200I-76200J0D01*
G01*
X34029000Y-127139200D01*
G75*
G02*
X33952800Y-127063000I0J76200D01*
G01*
X33952800Y-124763000D01*
G75*
G02*
X34029000Y-124686800I76200J0D01*
G01*
G37*
X35179000Y-129413000D03*
X35179000Y-132913000D03*
D12*
X76581000Y-137287000D03*
X75565000Y-132207000D03*
X77597000Y-132207000D03*
D13*
X127797500Y-183328750D03*
X139227500Y-183328750D03*
G36*
G01*
X128241300Y-177728750D02*
X128241300Y-176228750D01*
G75*
G02*
X128317500Y-176152550I76200J0D01*
G01*
X129817500Y-176152550D01*
G75*
G02*
X129893700Y-176228750I0J-76200D01*
G01*
X129893700Y-177728750D01*
G75*
G02*
X129817500Y-177804950I-76200J0D01*
G01*
X128317500Y-177804950D01*
G75*
G02*
X128241300Y-177728750I0J76200D01*
G01*
G37*
D14*
X130337500Y-174438750D03*
X131607500Y-176978750D03*
X132877500Y-174438750D03*
X134147500Y-176978750D03*
X135417500Y-174438750D03*
X136687500Y-176978750D03*
X137957500Y-174438750D03*
G36*
G01*
X34029000Y-148943800D02*
X36329000Y-148943800D01*
G75*
G02*
X36405200Y-149020000I0J-76200D01*
G01*
X36405200Y-151320000D01*
G75*
G02*
X36329000Y-151396200I-76200J0D01*
G01*
X34029000Y-151396200D01*
G75*
G02*
X33952800Y-151320000I0J76200D01*
G01*
X33952800Y-149020000D01*
G75*
G02*
X34029000Y-148943800I76200J0D01*
G01*
G37*
D11*
X35179000Y-153670000D03*
X35179000Y-157170000D03*
G36*
G01*
X54466800Y-185954000D02*
X54466800Y-183454000D01*
G75*
G02*
X54543000Y-183377800I76200J0D01*
G01*
X57043000Y-183377800D01*
G75*
G02*
X57119200Y-183454000I0J-76200D01*
G01*
X57119200Y-185954000D01*
G75*
G02*
X57043000Y-186030200I-76200J0D01*
G01*
X54543000Y-186030200D01*
G75*
G02*
X54466800Y-185954000I0J76200D01*
G01*
G37*
D15*
X60793000Y-184704000D03*
G36*
G01*
X34029000Y-136751800D02*
X36329000Y-136751800D01*
G75*
G02*
X36405200Y-136828000I0J-76200D01*
G01*
X36405200Y-139128000D01*
G75*
G02*
X36329000Y-139204200I-76200J0D01*
G01*
X34029000Y-139204200D01*
G75*
G02*
X33952800Y-139128000I0J76200D01*
G01*
X33952800Y-136828000D01*
G75*
G02*
X34029000Y-136751800I76200J0D01*
G01*
G37*
D11*
X35179000Y-141478000D03*
X35179000Y-144978000D03*
G36*
G01*
X34029000Y-161008800D02*
X36329000Y-161008800D01*
G75*
G02*
X36405200Y-161085000I0J-76200D01*
G01*
X36405200Y-163385000D01*
G75*
G02*
X36329000Y-163461200I-76200J0D01*
G01*
X34029000Y-163461200D01*
G75*
G02*
X33952800Y-163385000I0J76200D01*
G01*
X33952800Y-161085000D01*
G75*
G02*
X34029000Y-161008800I76200J0D01*
G01*
G37*
X35179000Y-165735000D03*
X35179000Y-169235000D03*
D13*
X138902500Y-123932750D03*
X127472500Y-123932750D03*
G36*
G01*
X138458700Y-129532750D02*
X138458700Y-131032750D01*
G75*
G02*
X138382500Y-131108950I-76200J0D01*
G01*
X136882500Y-131108950D01*
G75*
G02*
X136806300Y-131032750I0J76200D01*
G01*
X136806300Y-129532750D01*
G75*
G02*
X136882500Y-129456550I76200J0D01*
G01*
X138382500Y-129456550D01*
G75*
G02*
X138458700Y-129532750I0J-76200D01*
G01*
G37*
D14*
X136362500Y-132822750D03*
X135092500Y-130282750D03*
X133822500Y-132822750D03*
X132552500Y-130282750D03*
X131282500Y-132822750D03*
X130012500Y-130282750D03*
X128742500Y-132822750D03*
D10*
X29718000Y-187452000D03*
X148082000Y-187412750D03*
X148082000Y-119848750D03*
D16*
X30988000Y-181483000D03*
X30988000Y-162179000D03*
X30988000Y-141478000D03*
X31002000Y-174371000D03*
X60833000Y-188849000D03*
X30988000Y-125857000D03*
X30988000Y-153670000D03*
X30988000Y-165735000D03*
X78994000Y-164592000D03*
X30988000Y-145034000D03*
X30988000Y-177927000D03*
X30988000Y-169291000D03*
X30988000Y-132969000D03*
X30988000Y-137922000D03*
X30988000Y-129413000D03*
X55753000Y-188849000D03*
M02*
