M48
INCH
T69C0.020
T68C0.045
T67C0.039
T66C0.128
T65C0.129
T64C0.048
T63C0.030
T62C0.038
%
T69
X001300Y031350
X001950Y014850
X002550Y014850
X004250Y030900
X004450Y026550
X006250Y025850
X007050Y015200
X007050Y014600
X007100Y031600
X007100Y031000
X007350Y034250
X007650Y015200
X007650Y014600
X007800Y034650
X008050Y026500
X008250Y015200
X008250Y014600
X008400Y034650
X008450Y022500
X008550Y019400
X008700Y031600
X008700Y031000
X008950Y022500
X010300Y023500
X010400Y034650
X010400Y008900
X010500Y009650
X010750Y006800
X010800Y023500
X011000Y009650
X011250Y006400
X011450Y035150
X011600Y024850
X011800Y009600
X012250Y034250
X012450Y026400
X012600Y035350
X012800Y009600
X013100Y035350
X013100Y020900
X013100Y020300
X013600Y029700
X013600Y029050
X013650Y024950
X013650Y024400
X013800Y020900
X013800Y020300
X013800Y015200
X013800Y014600
X013800Y009800
X014350Y007800
X014400Y020900
X014400Y020300
X014400Y015200
X014400Y014600
X014450Y022700
X014450Y022200
X014450Y021700
X014600Y004900
X014650Y001650
X014850Y007800
X014950Y020900
X014950Y020300
X015000Y015200
X015000Y014600
X015000Y010550
X015000Y010050
X015300Y009350
X015400Y023900
X015400Y023400
X015400Y022900
X015700Y019200
X017100Y010450
X017200Y006850
X017350Y019900
X017700Y019200
X017828Y006372
X017850Y025950
X017900Y029850
X018150Y019900
X018500Y032350
X018750Y025250
X018750Y024500
X018750Y023950
X018800Y029500
X018850Y018550
X018850Y017950
X018850Y017400
X019450Y018550
X019450Y017950
X019450Y017400
X019600Y007300
X019650Y019150
X019800Y008900
X019950Y005950
X020050Y018550
X020050Y017950
X020050Y017400
X020250Y010100
X020250Y009596
X020600Y003200
X021500Y020600
X021500Y004700
X021550Y009600
X021900Y005950
X022200Y004900
X022550Y009600
X023100Y004200
X023250Y029400
X023550Y009800
X023800Y028500
X023950Y026450
X023950Y025850
X023950Y025250
X023950Y024650
X024000Y004200
X024000Y003600
X024000Y003000
X024400Y007900
X024450Y023350
X024500Y022850
X024500Y022350
X024550Y026450
X024550Y025850
X024550Y025250
X024550Y024650
X024600Y004200
X024600Y003600
X024600Y003000
X024750Y010550
X024750Y010050
X025000Y008500
X025000Y007900
X025050Y009350
X025100Y027350
X025300Y026250
X025400Y027800
X025600Y011500
X025600Y008500
X025600Y007900
X026200Y008500
X026200Y007900
X026650Y021000
X026650Y020400
X026650Y019850
X027000Y011200
X027000Y010600
X027250Y021000
X027250Y020400
X027250Y019850
X027600Y011200
X027600Y010600
X027850Y021000
X027850Y020400
X027850Y019850
X028200Y011200
X028200Y010600
X028500Y008000
X028500Y004900
X028650Y028800
X028850Y006850
X029100Y007300
X029100Y004900
X029200Y027750
X029400Y026250
X029400Y006850
X029500Y028800
X029600Y024250
X029600Y023650
X029700Y007300
X030200Y024250
X030200Y023650
X030400Y029400
X031200Y026100
X031200Y025550
X031750Y026100
X031750Y025550
X036050Y007000
X036050Y006400
X036650Y007000
X036650Y006400
X037250Y007000
X037250Y006400
T63
X006450Y008450
X006450Y007450
X006450Y006450
X006450Y005450
X006800Y029500
X007300Y028500
X007450Y007950
X007450Y006950
X007450Y005950
X007450Y004950
X007800Y029500
X008300Y028500
X008800Y029500
X009300Y028500
X031450Y008450
X031450Y007450
X031450Y006450
X031450Y005450
X032450Y007950
X032450Y006950
X032450Y005950
X032450Y004950
T62
X005450Y002200
X006450Y002200
X017650Y028700
X017650Y027700
X017650Y026700
X018650Y028700
X018650Y027700
X018650Y026700
T67
X016900Y033700
X016900Y032700
X016900Y031700
X026900Y033700
X026900Y032700
X026900Y031700
T68
X027700Y016050
X028700Y016050
X029700Y016050
T64
X003500Y029550
X003500Y028550
X003500Y027550
X003500Y026550
X003500Y025550
X003500Y024550
X003500Y023550
X003500Y022550
X003500Y020350
X003500Y018350
X009600Y002200
X011600Y002200
X013600Y002200
X019250Y033250
X024250Y033250
X027500Y002200
X029400Y033250
X029500Y002200
X034400Y033250
X035500Y029550
X035500Y028550
X035500Y027550
X035500Y026550
X035500Y025550
X035500Y024550
X035500Y023550
X035500Y022550
X035500Y020350
X035500Y018350
T66
X003950Y008950
X003950Y004450
X006050Y032000
X010050Y032000
X034950Y008950
X034950Y004450
T65
X001700Y034300
X001700Y001700
X037300Y034300
X037300Y001700
M30
