G04 start of page 8 for group -4079 idx -4079 *
G04 Title: (unknown), topsilk *
G04 Creator: pcb 20140316 *
G04 CreationDate: Thu 03 Dec 2015 05:56:45 PM GMT UTC *
G04 For: ndholmes *
G04 Format: Gerber/RS-274X *
G04 PCB-Dimensions (mil): 3900.00 3600.00 *
G04 PCB-Coordinate-Origin: lower left *
%MOIN*%
%FSLAX25Y25*%
%LNTOPSILK*%
%ADD99C,0.0200*%
%ADD98C,0.0080*%
%ADD97C,0.0100*%
G54D97*X389500Y500D02*Y359500D01*
X500D01*
X186000Y309000D02*X184000Y311000D01*
X186000Y309000D02*Y308500D01*
X184500Y307000D01*
X500Y359500D02*Y500D01*
X389500D01*
X186000Y303000D02*G75*G02X183000Y306000I0J3000D01*G01*
G75*G02X186000Y309000I3000J0D01*G01*
Y303000D02*G75*G03X188500Y305500I0J2500D01*G01*
G54D98*X304500Y353500D02*X306500D01*
X307000Y354000D01*
Y355000D02*Y354000D01*
X306500Y355500D02*X307000Y355000D01*
X305000Y355500D02*X306500D01*
X305000Y357500D02*Y353500D01*
X304500Y357500D02*X306500D01*
X307000Y357000D01*
Y356000D01*
X306500Y355500D02*X307000Y356000D01*
X310500Y357500D02*Y353500D01*
X312000Y357500D02*X312500Y357000D01*
Y354000D01*
X312000Y353500D02*X312500Y354000D01*
X310000Y353500D02*X312000D01*
X310000Y357500D02*X312000D01*
X313700Y355500D02*X315200D01*
X313700Y353500D02*X315700D01*
X313700Y357500D02*Y353500D01*
Y357500D02*X315700D01*
X316900D02*X318900D01*
X317900D02*Y353500D01*
X320100Y355500D02*X321600D01*
X320100Y353500D02*X322100D01*
X320100Y357500D02*Y353500D01*
Y357500D02*X322100D01*
X323800Y353500D02*X325300D01*
X323300Y354000D02*X323800Y353500D01*
X323300Y357000D02*Y354000D01*
Y357000D02*X323800Y357500D01*
X325300D01*
X326500D02*X328500D01*
X327500D02*Y353500D01*
X329700Y357000D02*Y354000D01*
Y357000D02*X330200Y357500D01*
X331200D01*
X331700Y357000D01*
Y354000D01*
X331200Y353500D02*X331700Y354000D01*
X330200Y353500D02*X331200D01*
X329700Y354000D02*X330200Y353500D01*
X332900Y357500D02*X334900D01*
X335400Y357000D01*
Y356000D01*
X334900Y355500D02*X335400Y356000D01*
X333400Y355500D02*X334900D01*
X333400Y357500D02*Y353500D01*
Y355500D02*X335400Y353500D01*
X275000Y347000D02*X277000D01*
X276000Y348000D02*Y346000D01*
X350500Y306000D02*X352500D01*
X353000Y306500D01*
Y307500D02*Y306500D01*
X352500Y308000D02*X353000Y307500D01*
X351000Y308000D02*X352500D01*
X351000Y310000D02*Y306000D01*
X350500Y310000D02*X352500D01*
X353000Y309500D01*
Y308500D01*
X352500Y308000D02*X353000Y308500D01*
X356000Y308000D02*X357500D01*
X356000Y306000D02*X358000D01*
X356000Y310000D02*Y306000D01*
Y310000D02*X358000D01*
X359200D02*Y306000D01*
Y310000D02*Y309500D01*
X361700Y307000D01*
Y310000D02*Y306000D01*
X363400Y310000D02*Y306000D01*
X364900Y310000D02*X365400Y309500D01*
Y306500D01*
X364900Y306000D02*X365400Y306500D01*
X362900Y306000D02*X364900D01*
X362900Y310000D02*X364900D01*
X370400D02*X370900Y309500D01*
X368900Y310000D02*X370400D01*
X368400Y309500D02*X368900Y310000D01*
X368400Y309500D02*Y308500D01*
X368900Y308000D01*
X370400D01*
X370900Y307500D01*
Y306500D01*
X370400Y306000D02*X370900Y306500D01*
X368900Y306000D02*X370400D01*
X368400Y306500D02*X368900Y306000D01*
X372100Y310000D02*X373100D01*
X372600D02*Y306000D01*
X372100D02*X373100D01*
X376300Y310000D02*X376800Y309500D01*
X374800Y310000D02*X376300D01*
X374300Y309500D02*X374800Y310000D01*
X374300Y309500D02*Y306500D01*
X374800Y306000D01*
X376300D01*
X376800Y306500D01*
Y307500D02*Y306500D01*
X376300Y308000D02*X376800Y307500D01*
X375300Y308000D02*X376300D01*
X378000Y310000D02*Y306000D01*
Y310000D02*Y309500D01*
X380500Y307000D01*
Y310000D02*Y306000D01*
X381700Y309500D02*Y306000D01*
Y309500D02*X382200Y310000D01*
X383700D01*
X384200Y309500D01*
Y306000D01*
X381700Y308000D02*X384200D01*
X385400Y310000D02*Y306000D01*
X387400D01*
X373500Y277000D02*X375500D01*
X376000Y276500D01*
Y275500D01*
X375500Y275000D02*X376000Y275500D01*
X374000Y275000D02*X375500D01*
X374000Y277000D02*Y273000D01*
Y275000D02*X376000Y273000D01*
X377200Y275000D02*X378700D01*
X377200Y273000D02*X379200D01*
X377200Y277000D02*Y273000D01*
Y277000D02*X379200D01*
X380900D02*Y273000D01*
X382400Y277000D02*X382900Y276500D01*
Y273500D01*
X382400Y273000D02*X382900Y273500D01*
X380400Y273000D02*X382400D01*
X380400Y277000D02*X382400D01*
X386400Y273000D02*X387400D01*
X386900Y277000D02*Y273000D01*
X385900Y276000D02*X386900Y277000D01*
X373500Y287500D02*Y287000D01*
X374500Y286000D01*
X375500Y287000D01*
Y287500D02*Y287000D01*
X374500Y286000D02*Y283500D01*
X376700Y287500D02*Y283500D01*
X378700D01*
X379900Y287500D02*Y283500D01*
X381400Y285000D01*
X382900Y283500D01*
Y287500D02*Y283500D01*
X386400D02*X387400D01*
X386900Y287500D02*Y283500D01*
X385900Y286500D02*X386900Y287500D01*
X370500Y267500D02*X372500D01*
X373000Y267000D01*
Y266000D01*
X372500Y265500D02*X373000Y266000D01*
X371000Y265500D02*X372500D01*
X371000Y267500D02*Y263500D01*
Y265500D02*X373000Y263500D01*
X374700D02*X375700D01*
X375200Y267500D02*Y263500D01*
X374200Y266500D02*X375200Y267500D01*
X378700Y267000D02*Y263500D01*
Y267000D02*X379200Y267500D01*
X380700D01*
X381200Y267000D01*
Y263500D01*
X378700Y265500D02*X381200D01*
X382400Y267500D02*Y263500D01*
X384400D01*
X385600Y267500D02*X387600D01*
X386600D02*Y263500D01*
X373500Y257500D02*X374000Y257000D01*
X372000Y257500D02*X373500D01*
X371500Y257000D02*X372000Y257500D01*
X371500Y257000D02*Y254000D01*
X372000Y253500D01*
X373500D01*
X374000Y254000D01*
Y255000D02*Y254000D01*
X373500Y255500D02*X374000Y255000D01*
X372500Y255500D02*X373500D01*
X375200Y257500D02*X377200D01*
X377700Y257000D01*
Y256000D01*
X377200Y255500D02*X377700Y256000D01*
X375700Y255500D02*X377200D01*
X375700Y257500D02*Y253500D01*
Y255500D02*X377700Y253500D01*
X378900Y257500D02*Y253500D01*
Y257500D02*Y257000D01*
X381400Y254500D01*
Y257500D02*Y253500D01*
X384400Y257000D02*X384900Y257500D01*
X386400D01*
X386900Y257000D01*
Y256000D01*
X384400Y253500D02*X386900Y256000D01*
X384400Y253500D02*X386900D01*
X372000Y247500D02*Y247000D01*
X373000Y246000D01*
X374000Y247000D01*
Y247500D02*Y247000D01*
X373000Y246000D02*Y243500D01*
X375200Y247500D02*Y243500D01*
X377200D01*
X378400Y247500D02*Y243500D01*
X379900Y245000D01*
X381400Y243500D01*
Y247500D02*Y243500D01*
X384400Y247000D02*X384900Y247500D01*
X386400D01*
X386900Y247000D01*
Y246000D01*
X384400Y243500D02*X386900Y246000D01*
X384400Y243500D02*X386900D01*
X372000Y237500D02*X374000D01*
X374500Y237000D01*
Y236000D01*
X374000Y235500D02*X374500Y236000D01*
X372500Y235500D02*X374000D01*
X372500Y237500D02*Y233500D01*
Y235500D02*X374500Y233500D01*
X375700Y235500D02*X377200D01*
X375700Y233500D02*X377700D01*
X375700Y237500D02*Y233500D01*
Y237500D02*X377700D01*
X379400D02*Y233500D01*
X380900Y237500D02*X381400Y237000D01*
Y234000D01*
X380900Y233500D02*X381400Y234000D01*
X378900Y233500D02*X380900D01*
X378900Y237500D02*X380900D01*
X384400Y237000D02*X384900Y237500D01*
X386400D01*
X386900Y237000D01*
Y236000D01*
X384400Y233500D02*X386900Y236000D01*
X384400Y233500D02*X386900D01*
X369500Y227500D02*X371500D01*
X372000Y227000D01*
Y226000D01*
X371500Y225500D02*X372000Y226000D01*
X370000Y225500D02*X371500D01*
X370000Y227500D02*Y223500D01*
Y225500D02*X372000Y223500D01*
X373200Y227000D02*X373700Y227500D01*
X375200D01*
X375700Y227000D01*
Y226000D01*
X373200Y223500D02*X375700Y226000D01*
X373200Y223500D02*X375700D01*
X378700Y227000D02*Y223500D01*
Y227000D02*X379200Y227500D01*
X380700D01*
X381200Y227000D01*
Y223500D01*
X378700Y225500D02*X381200D01*
X382400Y227500D02*Y223500D01*
X384400D01*
X385600Y227500D02*X387600D01*
X386600D02*Y223500D01*
X378000Y203500D02*X380000D01*
X379000Y204500D02*Y202500D01*
X381200Y205500D02*X383200D01*
X381200D02*Y203500D01*
X381700Y204000D01*
X382700D01*
X383200Y203500D01*
Y202000D01*
X382700Y201500D02*X383200Y202000D01*
X381700Y201500D02*X382700D01*
X381200Y202000D02*X381700Y201500D01*
X384400Y205500D02*Y202500D01*
X385400Y201500D01*
X386400Y202500D01*
Y205500D02*Y202500D01*
X378500Y185500D02*X379000Y185000D01*
X377000Y185500D02*X378500D01*
X376500Y185000D02*X377000Y185500D01*
X376500Y185000D02*Y182000D01*
X377000Y181500D01*
X378500D01*
X379000Y182000D01*
Y183000D02*Y182000D01*
X378500Y183500D02*X379000Y183000D01*
X377500Y183500D02*X378500D01*
X380200Y185500D02*Y181500D01*
Y185500D02*Y185000D01*
X382700Y182500D01*
Y185500D02*Y181500D01*
X384400Y185500D02*Y181500D01*
X385900Y185500D02*X386400Y185000D01*
Y182000D01*
X385900Y181500D02*X386400Y182000D01*
X383900Y181500D02*X385900D01*
X383900Y185500D02*X385900D01*
X375000Y297500D02*X375500Y297000D01*
X373500Y297500D02*X375000D01*
X373000Y297000D02*X373500Y297500D01*
X373000Y297000D02*Y294000D01*
X373500Y293500D01*
X375000D01*
X375500Y294000D01*
Y295000D02*Y294000D01*
X375000Y295500D02*X375500Y295000D01*
X374000Y295500D02*X375000D01*
X376700Y297500D02*X378700D01*
X379200Y297000D01*
Y296000D01*
X378700Y295500D02*X379200Y296000D01*
X377200Y295500D02*X378700D01*
X377200Y297500D02*Y293500D01*
Y295500D02*X379200Y293500D01*
X380400Y297500D02*Y293500D01*
Y297500D02*Y297000D01*
X382900Y294500D01*
Y297500D02*Y293500D01*
X386400D02*X387400D01*
X386900Y297500D02*Y293500D01*
X385900Y296500D02*X386900Y297500D01*
X290500Y252000D02*X292500Y250000D01*
X290500D02*X292500Y252000D01*
X290500Y251000D02*X292500D01*
X291500Y252000D02*Y250000D01*
X280000Y7000D02*Y3000D01*
X279500Y7000D02*X281500D01*
X282000Y6500D01*
Y5500D01*
X281500Y5000D02*X282000Y5500D01*
X280000Y5000D02*X281500D01*
X283200Y7000D02*Y3000D01*
X284700Y4500D01*
X286200Y3000D01*
Y7000D02*Y3000D01*
X287400Y7000D02*X289400D01*
X289900Y6500D01*
Y5500D01*
X289400Y5000D02*X289900Y5500D01*
X287900Y5000D02*X289400D01*
X287900Y7000D02*Y3000D01*
Y5000D02*X289900Y3000D01*
X195000Y5500D02*X197000D01*
X196000Y6500D02*Y4500D01*
X214000Y10500D02*Y6500D01*
X213500Y10500D02*X215500D01*
X216000Y10000D01*
Y9000D01*
X215500Y8500D02*X216000Y9000D01*
X214000Y8500D02*X215500D01*
X217200Y10500D02*Y6500D01*
X218700Y8000D01*
X220200Y6500D01*
Y10500D02*Y6500D01*
X221400Y10500D02*X223400D01*
X223900Y10000D01*
Y9000D01*
X223400Y8500D02*X223900Y9000D01*
X221900Y8500D02*X223400D01*
X221900Y10500D02*Y6500D01*
Y8500D02*X223900Y6500D01*
X2000Y80000D02*X6000D01*
X4500Y78500D01*
X6000Y77000D01*
X2000D02*X6000D01*
Y73800D02*X5500Y73300D01*
X6000Y75300D02*Y73800D01*
X5500Y75800D02*X6000Y75300D01*
X4500Y75800D02*X5500D01*
X4500D02*X4000Y75300D01*
Y73800D01*
X3500Y73300D01*
X2500D02*X3500D01*
X2000Y73800D02*X2500Y73300D01*
X2000Y75300D02*Y73800D01*
X2500Y75800D02*X2000Y75300D01*
X6000Y70100D02*X5500Y69600D01*
X6000Y71600D02*Y70100D01*
X5500Y72100D02*X6000Y71600D01*
X4500Y72100D02*X5500D01*
X4500D02*X4000Y71600D01*
Y70100D01*
X3500Y69600D01*
X2500D02*X3500D01*
X2000Y70100D02*X2500Y69600D01*
X2000Y71600D02*Y70100D01*
X2500Y72100D02*X2000Y71600D01*
Y66600D02*X5500D01*
X6000Y66100D01*
Y64600D01*
X5500Y64100D01*
X2000D02*X5500D01*
X4000Y66600D02*Y64100D01*
Y61100D02*Y59600D01*
X2000Y61100D02*Y59100D01*
Y61100D02*X6000D01*
Y59100D01*
X2000Y57400D02*X3500D01*
X4000Y56900D01*
Y56400D01*
X3500Y55900D01*
X2000D02*X3500D01*
X4000Y57900D02*X3500Y57400D01*
X2000Y52700D02*X6000D01*
X2000Y53200D02*X2500Y52700D01*
X2000Y54200D02*Y53200D01*
X2500Y54700D02*X2000Y54200D01*
X2500Y54700D02*X3500D01*
X4000Y54200D01*
Y53200D01*
X3500Y52700D01*
X383000Y53000D02*X387000D01*
X383000D02*X384500Y54500D01*
X383000Y56000D01*
X387000D01*
X383000Y59200D02*X383500Y59700D01*
X383000Y59200D02*Y57700D01*
X383500Y57200D02*X383000Y57700D01*
X383500Y57200D02*X384500D01*
X385000Y57700D01*
Y59200D02*Y57700D01*
Y59200D02*X385500Y59700D01*
X386500D01*
X387000Y59200D02*X386500Y59700D01*
X387000Y59200D02*Y57700D01*
X386500Y57200D02*X387000Y57700D01*
X383000Y62900D02*X383500Y63400D01*
X383000Y62900D02*Y61400D01*
X383500Y60900D02*X383000Y61400D01*
X383500Y60900D02*X384500D01*
X385000Y61400D01*
Y62900D02*Y61400D01*
Y62900D02*X385500Y63400D01*
X386500D01*
X387000Y62900D02*X386500Y63400D01*
X387000Y62900D02*Y61400D01*
X386500Y60900D02*X387000Y61400D01*
Y68400D02*Y66400D01*
Y68400D02*X386500Y68900D01*
X385500D02*X386500D01*
X385000Y68400D02*X385500Y68900D01*
X385000Y68400D02*Y66900D01*
X383000D02*X387000D01*
X383000Y68400D02*Y66400D01*
Y68400D02*X383500Y68900D01*
X384500D01*
X385000Y68400D02*X384500Y68900D01*
X387000Y73900D02*Y72400D01*
X386500Y71900D02*X387000Y72400D01*
X385500Y71900D02*X386500D01*
X385500D02*X385000Y72400D01*
Y73400D02*Y72400D01*
Y73400D02*X385500Y73900D01*
X386000D02*Y71900D01*
X385500Y73900D02*X386000D01*
X385500Y75600D02*X387000D01*
X385500D02*X385000Y76100D01*
Y76600D02*Y76100D01*
Y76600D02*X385500Y77100D01*
X387000D01*
X385000Y75100D02*X385500Y75600D01*
X383000Y80300D02*X387000D01*
Y79800D02*X386500Y80300D01*
X387000Y79800D02*Y78800D01*
X386500Y78300D02*X387000Y78800D01*
X385500Y78300D02*X386500D01*
X385500D02*X385000Y78800D01*
Y79800D02*Y78800D01*
Y79800D02*X385500Y80300D01*
X309000Y17000D02*Y13500D01*
Y17000D02*X309500Y17500D01*
X311000D01*
X311500Y17000D01*
Y13500D01*
X309000Y15500D02*X311500D01*
X313200Y13500D02*X314700D01*
X312700Y14000D02*X313200Y13500D01*
X312700Y17000D02*Y14000D01*
Y17000D02*X313200Y17500D01*
X314700D01*
X315900Y14000D02*X318900Y17000D01*
X320600Y17500D02*Y13500D01*
X322100Y17500D02*X322600Y17000D01*
Y14000D01*
X322100Y13500D02*X322600Y14000D01*
X320100Y13500D02*X322100D01*
X320100Y17500D02*X322100D01*
X324300Y13500D02*X325800D01*
X323800Y14000D02*X324300Y13500D01*
X323800Y17000D02*Y14000D01*
Y17000D02*X324300Y17500D01*
X325800D01*
X214000Y12500D02*X215000D01*
X214500Y16500D02*Y12500D01*
X213500Y15500D02*X214500Y16500D01*
X216200Y16000D02*X216700Y16500D01*
X218200D01*
X218700Y16000D01*
Y15000D01*
X216200Y12500D02*X218700Y15000D01*
X216200Y12500D02*X218700D01*
X219900Y16500D02*Y13500D01*
X220900Y12500D01*
X221900Y13500D01*
Y16500D02*Y13500D01*
X309500Y20000D02*X310500D01*
X310000Y24000D02*Y20000D01*
X309000Y23000D02*X310000Y24000D01*
X311700Y23500D02*X312200Y24000D01*
X313700D01*
X314200Y23500D01*
Y22500D01*
X311700Y20000D02*X314200Y22500D01*
X311700Y20000D02*X314200D01*
X315400Y22000D02*X317400D01*
X318600Y23500D02*X319100Y24000D01*
X320600D01*
X321100Y23500D01*
Y22500D01*
X318600Y20000D02*X321100Y22500D01*
X318600Y20000D02*X321100D01*
X322300Y20500D02*X322800Y20000D01*
X322300Y23500D02*Y20500D01*
Y23500D02*X322800Y24000D01*
X323800D01*
X324300Y23500D01*
Y20500D01*
X323800Y20000D02*X324300Y20500D01*
X322800Y20000D02*X323800D01*
X322300Y21000D02*X324300Y23000D01*
X325500Y24000D02*Y21000D01*
X326500Y20000D01*
X327500Y21000D01*
Y24000D02*Y21000D01*
X14500Y104500D02*Y100500D01*
Y102000D02*X15000Y102500D01*
X16000D01*
X16500Y102000D01*
Y100500D01*
X18200Y104500D02*Y101000D01*
X18700Y100500D01*
X17700Y103000D02*X18700D01*
X20200Y104500D02*Y101000D01*
X20700Y100500D01*
X19700Y103000D02*X20700D01*
X22200Y102000D02*Y99000D01*
X21700Y102500D02*X22200Y102000D01*
X22700Y102500D01*
X23700D01*
X24200Y102000D01*
Y101000D01*
X23700Y100500D02*X24200Y101000D01*
X22700Y100500D02*X23700D01*
X22200Y101000D02*X22700Y100500D01*
X25400Y103000D02*X25900D01*
X25400Y102000D02*X25900D01*
X27100Y101000D02*X30100Y104000D01*
X31300Y101000D02*X34300Y104000D01*
X35500Y102500D02*Y101000D01*
X36000Y100500D01*
X36500D01*
X37000Y101000D01*
Y102500D02*Y101000D01*
X37500Y100500D01*
X38000D01*
X38500Y101000D01*
Y102500D02*Y101000D01*
X39700Y102500D02*Y101000D01*
X40200Y100500D01*
X40700D01*
X41200Y101000D01*
Y102500D02*Y101000D01*
X41700Y100500D01*
X42200D01*
X42700Y101000D01*
Y102500D02*Y101000D01*
X43900Y102500D02*Y101000D01*
X44400Y100500D01*
X44900D01*
X45400Y101000D01*
Y102500D02*Y101000D01*
X45900Y100500D01*
X46400D01*
X46900Y101000D01*
Y102500D02*Y101000D01*
X48100Y100500D02*X48600D01*
X49800Y103500D02*Y103000D01*
Y102000D02*Y100500D01*
X52300Y102500D02*X52800Y102000D01*
X51300Y102500D02*X52300D01*
X50800Y102000D02*X51300Y102500D01*
X50800Y102000D02*Y101000D01*
X51300Y100500D01*
X52800Y102500D02*Y101000D01*
X53300Y100500D01*
X51300D02*X52300D01*
X52800Y101000D01*
X55000Y100500D02*X56500D01*
X57000Y101000D01*
X56500Y101500D02*X57000Y101000D01*
X55000Y101500D02*X56500D01*
X54500Y102000D02*X55000Y101500D01*
X54500Y102000D02*X55000Y102500D01*
X56500D01*
X57000Y102000D01*
X54500Y101000D02*X55000Y100500D01*
X58700Y102500D02*X60200D01*
X58200Y102000D02*X58700Y102500D01*
X58200Y102000D02*Y101000D01*
X58700Y100500D01*
X60200D01*
X62900Y102500D02*X63400Y102000D01*
X61900Y102500D02*X62900D01*
X61400Y102000D02*X61900Y102500D01*
X61400Y102000D02*Y101000D01*
X61900Y100500D01*
X63400Y102500D02*Y101000D01*
X63900Y100500D01*
X61900D02*X62900D01*
X63400Y101000D01*
X65100Y104500D02*Y101000D01*
X65600Y100500D01*
X67100D02*X68600D01*
X66600Y101000D02*X67100Y100500D01*
X66600Y102000D02*Y101000D01*
Y102000D02*X67100Y102500D01*
X68100D01*
X68600Y102000D01*
X66600Y101500D02*X68600D01*
Y102000D02*Y101500D01*
X71800Y104500D02*Y100500D01*
X71300D02*X71800Y101000D01*
X70300Y100500D02*X71300D01*
X69800Y101000D02*X70300Y100500D01*
X69800Y102000D02*Y101000D01*
Y102000D02*X70300Y102500D01*
X71300D01*
X71800Y102000D01*
X73000Y100500D02*X73500D01*
X75200Y102500D02*X76700D01*
X74700Y102000D02*X75200Y102500D01*
X74700Y102000D02*Y101000D01*
X75200Y100500D01*
X76700D01*
X77900Y102000D02*Y101000D01*
Y102000D02*X78400Y102500D01*
X79400D01*
X79900Y102000D01*
Y101000D01*
X79400Y100500D02*X79900Y101000D01*
X78400Y100500D02*X79400D01*
X77900Y101000D02*X78400Y100500D01*
X81600Y102000D02*Y100500D01*
Y102000D02*X82100Y102500D01*
X82600D01*
X83100Y102000D01*
Y100500D01*
Y102000D02*X83600Y102500D01*
X84100D01*
X84600Y102000D01*
Y100500D01*
X81100Y102500D02*X81600Y102000D01*
X204000Y81000D02*X206000Y79000D01*
X204000D02*X206000Y81000D01*
X204000Y80000D02*X206000D01*
X205000Y81000D02*Y79000D01*
X106000Y81000D02*X108000Y79000D01*
X106000D02*X108000Y81000D01*
X106000Y80000D02*X108000D01*
X107000Y81000D02*Y79000D01*
X95000Y6500D02*Y3000D01*
Y6500D02*X95500Y7000D01*
X97000D01*
X97500Y6500D01*
Y3000D01*
X95000Y5000D02*X97500D01*
X114000Y7000D02*X114500Y6500D01*
X112500Y7000D02*X114000D01*
X112000Y6500D02*X112500Y7000D01*
X112000Y6500D02*Y3500D01*
X112500Y3000D01*
X114000D01*
X114500Y3500D01*
Y4500D02*Y3500D01*
X114000Y5000D02*X114500Y4500D01*
X113000Y5000D02*X114000D01*
X115700Y7000D02*Y3000D01*
Y7000D02*Y6500D01*
X118200Y4000D01*
Y7000D02*Y3000D01*
X119900Y7000D02*Y3000D01*
X121400Y7000D02*X121900Y6500D01*
Y3500D01*
X121400Y3000D02*X121900Y3500D01*
X119400Y3000D02*X121400D01*
X119400Y7000D02*X121400D01*
X135000Y3000D02*X137000D01*
X137500Y3500D01*
Y4500D02*Y3500D01*
X137000Y5000D02*X137500Y4500D01*
X135500Y5000D02*X137000D01*
X135500Y7000D02*Y3000D01*
X135000Y7000D02*X137000D01*
X137500Y6500D01*
Y5500D01*
X137000Y5000D02*X137500Y5500D01*
X79500Y10000D02*X83000D01*
X79500D02*X79000Y10500D01*
Y12000D02*Y10500D01*
Y12000D02*X79500Y12500D01*
X83000D01*
X81000D02*Y10000D01*
X79000Y13700D02*X82500D01*
X83000Y14200D01*
Y15200D02*Y14200D01*
Y15200D02*X82500Y15700D01*
X79000D02*X82500D01*
X79000Y16900D02*X79500D01*
X82000Y19400D01*
X83000D01*
X82000Y16900D02*X83000D01*
X82000D02*X79500Y19400D01*
X79000D02*X79500D01*
Y25000D02*X82500D01*
X79500D02*X79000Y25500D01*
Y26500D02*Y25500D01*
Y26500D02*X79500Y27000D01*
X82500D01*
X83000Y26500D02*X82500Y27000D01*
X83000Y26500D02*Y25500D01*
X82500Y25000D02*X83000Y25500D01*
Y30200D02*Y28700D01*
X82500Y28200D02*X83000Y28700D01*
X79500Y28200D02*X82500D01*
X79500D02*X79000Y28700D01*
Y30200D02*Y28700D01*
X83000Y33400D02*Y31900D01*
X82500Y31400D02*X83000Y31900D01*
X79500Y31400D02*X82500D01*
X79500D02*X79000Y31900D01*
Y33400D02*Y31900D01*
X2000Y267500D02*X4000D01*
X4500Y267000D01*
Y266000D01*
X4000Y265500D02*X4500Y266000D01*
X2500Y265500D02*X4000D01*
X2500Y267500D02*Y263500D01*
Y265500D02*X4500Y263500D01*
X6200D02*X7200D01*
X6700Y267500D02*Y263500D01*
X5700Y266500D02*X6700Y267500D01*
X10200Y267000D02*Y263500D01*
Y267000D02*X10700Y267500D01*
X12200D01*
X12700Y267000D01*
Y263500D01*
X10200Y265500D02*X12700D01*
X13900Y267500D02*Y263500D01*
X15900D01*
X17100Y267500D02*X19100D01*
X18100D02*Y263500D01*
X2000Y277500D02*X4000D01*
X4500Y277000D01*
Y276000D01*
X4000Y275500D02*X4500Y276000D01*
X2500Y275500D02*X4000D01*
X2500Y277500D02*Y273500D01*
Y275500D02*X4500Y273500D01*
X5700Y275500D02*X7200D01*
X5700Y273500D02*X7700D01*
X5700Y277500D02*Y273500D01*
Y277500D02*X7700D01*
X9400D02*Y273500D01*
X10900Y277500D02*X11400Y277000D01*
Y274000D01*
X10900Y273500D02*X11400Y274000D01*
X8900Y273500D02*X10900D01*
X8900Y277500D02*X10900D01*
X14900Y273500D02*X15900D01*
X15400Y277500D02*Y273500D01*
X14400Y276500D02*X15400Y277500D01*
X2000Y287500D02*Y287000D01*
X3000Y286000D01*
X4000Y287000D01*
Y287500D02*Y287000D01*
X3000Y286000D02*Y283500D01*
X5200Y287500D02*Y283500D01*
X7200D01*
X8400Y287500D02*Y283500D01*
X9900Y285000D01*
X11400Y283500D01*
Y287500D02*Y283500D01*
X14900D02*X15900D01*
X15400Y287500D02*Y283500D01*
X14400Y286500D02*X15400Y287500D01*
X4500Y297500D02*X5000Y297000D01*
X3000Y297500D02*X4500D01*
X2500Y297000D02*X3000Y297500D01*
X2500Y297000D02*Y294000D01*
X3000Y293500D01*
X4500D01*
X5000Y294000D01*
Y295000D02*Y294000D01*
X4500Y295500D02*X5000Y295000D01*
X3500Y295500D02*X4500D01*
X6200Y297500D02*X8200D01*
X8700Y297000D01*
Y296000D01*
X8200Y295500D02*X8700Y296000D01*
X6700Y295500D02*X8200D01*
X6700Y297500D02*Y293500D01*
Y295500D02*X8700Y293500D01*
X9900Y297500D02*Y293500D01*
Y297500D02*Y297000D01*
X12400Y294500D01*
Y297500D02*Y293500D01*
X15900D02*X16900D01*
X16400Y297500D02*Y293500D01*
X15400Y296500D02*X16400Y297500D01*
X4500Y325500D02*X5000Y326000D01*
X6000D01*
X6500Y325500D01*
Y322500D01*
X6000Y322000D02*X6500Y322500D01*
X5000Y322000D02*X6000D01*
X4500Y322500D02*X5000Y322000D01*
Y324000D02*X6500D01*
X7700Y322000D02*X8200D01*
X9400Y325500D02*X9900Y326000D01*
X10900D01*
X11400Y325500D01*
Y322500D01*
X10900Y322000D02*X11400Y322500D01*
X9900Y322000D02*X10900D01*
X9400Y322500D02*X9900Y322000D01*
Y324000D02*X11400D01*
X12600Y326000D02*Y323000D01*
X13600Y322000D01*
X14600Y323000D01*
Y326000D02*Y323000D01*
X4500Y320500D02*Y316500D01*
X4000Y320500D02*X6000D01*
X6500Y320000D01*
Y319000D01*
X6000Y318500D02*X6500Y319000D01*
X4500Y318500D02*X6000D01*
X7700Y320500D02*Y316500D01*
X9200Y318000D01*
X10700Y316500D01*
Y320500D02*Y316500D01*
X11900Y320500D02*X13900D01*
X14400Y320000D01*
Y319000D01*
X13900Y318500D02*X14400Y319000D01*
X12400Y318500D02*X13900D01*
X12400Y320500D02*Y316500D01*
Y318500D02*X14400Y316500D01*
X63500Y357500D02*X64500D01*
X64000D02*Y353500D01*
X63500D02*X64500D01*
X65700Y357500D02*X67700D01*
X68200Y357000D01*
Y356000D01*
X67700Y355500D02*X68200Y356000D01*
X66200Y355500D02*X67700D01*
X66200Y357500D02*Y353500D01*
Y355500D02*X68200Y353500D01*
X71700Y357500D02*Y353500D01*
X73200Y357500D02*X73700Y357000D01*
Y354000D01*
X73200Y353500D02*X73700Y354000D01*
X71200Y353500D02*X73200D01*
X71200Y357500D02*X73200D01*
X74900Y355500D02*X76400D01*
X74900Y353500D02*X76900D01*
X74900Y357500D02*Y353500D01*
Y357500D02*X76900D01*
X78100D02*X80100D01*
X79100D02*Y353500D01*
X81300Y355500D02*X82800D01*
X81300Y353500D02*X83300D01*
X81300Y357500D02*Y353500D01*
Y357500D02*X83300D01*
X85000Y353500D02*X86500D01*
X84500Y354000D02*X85000Y353500D01*
X84500Y357000D02*Y354000D01*
Y357000D02*X85000Y357500D01*
X86500D01*
X87700D02*X89700D01*
X88700D02*Y353500D01*
X90900Y357000D02*Y354000D01*
Y357000D02*X91400Y357500D01*
X92400D01*
X92900Y357000D01*
Y354000D01*
X92400Y353500D02*X92900Y354000D01*
X91400Y353500D02*X92400D01*
X90900Y354000D02*X91400Y353500D01*
X94100Y357500D02*X96100D01*
X96600Y357000D01*
Y356000D01*
X96100Y355500D02*X96600Y356000D01*
X94600Y355500D02*X96100D01*
X94600Y357500D02*Y353500D01*
Y355500D02*X96600Y353500D01*
X140000Y355500D02*X144000D01*
Y356000D02*Y354000D01*
X143500Y353500D01*
X142500D02*X143500D01*
X142000Y354000D02*X142500Y353500D01*
X142000Y355500D02*Y354000D01*
X140000Y352300D02*X144000D01*
X140000D02*X141500Y350800D01*
X140000Y349300D01*
X144000D01*
Y348100D02*Y346100D01*
X143500Y345600D01*
X142500D02*X143500D01*
X142000Y346100D02*X142500Y345600D01*
X142000Y347600D02*Y346100D01*
X140000Y347600D02*X144000D01*
X142000D02*X140000Y345600D01*
X135000Y350000D02*Y349000D01*
X131000Y349500D02*X135000D01*
X131000Y350000D02*Y349000D01*
X135000Y347800D02*Y345800D01*
X134500Y345300D01*
X133500D02*X134500D01*
X133000Y345800D02*X133500Y345300D01*
X133000Y347300D02*Y345800D01*
X131000Y347300D02*X135000D01*
X133000D02*X131000Y345300D01*
X154000Y327500D02*X156000D01*
X155000Y328500D02*Y326500D01*
X149000Y354500D02*X152500D01*
X153000Y354000D01*
Y352500D01*
X152500Y352000D01*
X149000D02*X152500D01*
X151000Y354500D02*Y352000D01*
X149000Y350300D02*Y348800D01*
X149500Y350800D02*X149000Y350300D01*
X149500Y350800D02*X152500D01*
X153000Y350300D01*
Y348800D01*
Y347600D02*Y345600D01*
X149000Y346600D02*X153000D01*
X127000Y327500D02*X129000D01*
X128000Y328500D02*Y326500D01*
X4500Y257500D02*X5000Y257000D01*
X3000Y257500D02*X4500D01*
X2500Y257000D02*X3000Y257500D01*
X2500Y257000D02*Y254000D01*
X3000Y253500D01*
X4500D01*
X5000Y254000D01*
Y255000D02*Y254000D01*
X4500Y255500D02*X5000Y255000D01*
X3500Y255500D02*X4500D01*
X6200Y257500D02*X8200D01*
X8700Y257000D01*
Y256000D01*
X8200Y255500D02*X8700Y256000D01*
X6700Y255500D02*X8200D01*
X6700Y257500D02*Y253500D01*
Y255500D02*X8700Y253500D01*
X9900Y257500D02*Y253500D01*
Y257500D02*Y257000D01*
X12400Y254500D01*
Y257500D02*Y253500D01*
X15400Y257000D02*X15900Y257500D01*
X17400D01*
X17900Y257000D01*
Y256000D01*
X15400Y253500D02*X17900Y256000D01*
X15400Y253500D02*X17900D01*
X2000Y247500D02*Y247000D01*
X3000Y246000D01*
X4000Y247000D01*
Y247500D02*Y247000D01*
X3000Y246000D02*Y243500D01*
X5200Y247500D02*Y243500D01*
X7200D01*
X8400Y247500D02*Y243500D01*
X9900Y245000D01*
X11400Y243500D01*
Y247500D02*Y243500D01*
X14400Y247000D02*X14900Y247500D01*
X16400D01*
X16900Y247000D01*
Y246000D01*
X14400Y243500D02*X16900Y246000D01*
X14400Y243500D02*X16900D01*
X2000Y237500D02*X4000D01*
X4500Y237000D01*
Y236000D01*
X4000Y235500D02*X4500Y236000D01*
X2500Y235500D02*X4000D01*
X2500Y237500D02*Y233500D01*
Y235500D02*X4500Y233500D01*
X5700Y235500D02*X7200D01*
X5700Y233500D02*X7700D01*
X5700Y237500D02*Y233500D01*
Y237500D02*X7700D01*
X9400D02*Y233500D01*
X10900Y237500D02*X11400Y237000D01*
Y234000D01*
X10900Y233500D02*X11400Y234000D01*
X8900Y233500D02*X10900D01*
X8900Y237500D02*X10900D01*
X14400Y237000D02*X14900Y237500D01*
X16400D01*
X16900Y237000D01*
Y236000D01*
X14400Y233500D02*X16900Y236000D01*
X14400Y233500D02*X16900D01*
X2500Y309500D02*Y306000D01*
Y309500D02*X3000Y310000D01*
X4500D01*
X5000Y309500D01*
Y306000D01*
X2500Y308000D02*X5000D01*
X8000D02*X9500D01*
X8000Y306000D02*X10000D01*
X8000Y310000D02*Y306000D01*
Y310000D02*X10000D01*
X11200D02*Y306000D01*
Y310000D02*Y309500D01*
X13700Y307000D01*
Y310000D02*Y306000D01*
X15400Y310000D02*Y306000D01*
X16900Y310000D02*X17400Y309500D01*
Y306500D01*
X16900Y306000D02*X17400Y306500D01*
X14900Y306000D02*X16900D01*
X14900Y310000D02*X16900D01*
X22400D02*X22900Y309500D01*
X20900Y310000D02*X22400D01*
X20400Y309500D02*X20900Y310000D01*
X20400Y309500D02*Y308500D01*
X20900Y308000D01*
X22400D01*
X22900Y307500D01*
Y306500D01*
X22400Y306000D02*X22900Y306500D01*
X20900Y306000D02*X22400D01*
X20400Y306500D02*X20900Y306000D01*
X24100Y310000D02*X25100D01*
X24600D02*Y306000D01*
X24100D02*X25100D01*
X28300Y310000D02*X28800Y309500D01*
X26800Y310000D02*X28300D01*
X26300Y309500D02*X26800Y310000D01*
X26300Y309500D02*Y306500D01*
X26800Y306000D01*
X28300D01*
X28800Y306500D01*
Y307500D02*Y306500D01*
X28300Y308000D02*X28800Y307500D01*
X27300Y308000D02*X28300D01*
X30000Y310000D02*Y306000D01*
Y310000D02*Y309500D01*
X32500Y307000D01*
Y310000D02*Y306000D01*
X33700Y309500D02*Y306000D01*
Y309500D02*X34200Y310000D01*
X35700D01*
X36200Y309500D01*
Y306000D01*
X33700Y308000D02*X36200D01*
X37400Y310000D02*Y306000D01*
X39400D01*
X32000Y313500D02*X34000D01*
X33000Y314500D02*Y312500D01*
X202500Y357000D02*Y353500D01*
Y357000D02*X203000Y357500D01*
X204500D01*
X205000Y357000D01*
Y353500D01*
X202500Y355500D02*X205000D01*
X208500Y357500D02*Y353500D01*
X210000Y357500D02*X210500Y357000D01*
Y354000D01*
X210000Y353500D02*X210500Y354000D01*
X208000Y353500D02*X210000D01*
X208000Y357500D02*X210000D01*
X211700Y355500D02*X213200D01*
X211700Y353500D02*X213700D01*
X211700Y357500D02*Y353500D01*
Y357500D02*X213700D01*
X214900D02*X216900D01*
X215900D02*Y353500D01*
X218100Y355500D02*X219600D01*
X218100Y353500D02*X220100D01*
X218100Y357500D02*Y353500D01*
Y357500D02*X220100D01*
X221800Y353500D02*X223300D01*
X221300Y354000D02*X221800Y353500D01*
X221300Y357000D02*Y354000D01*
Y357000D02*X221800Y357500D01*
X223300D01*
X224500D02*X226500D01*
X225500D02*Y353500D01*
X227700Y357000D02*Y354000D01*
Y357000D02*X228200Y357500D01*
X229200D01*
X229700Y357000D01*
Y354000D01*
X229200Y353500D02*X229700Y354000D01*
X228200Y353500D02*X229200D01*
X227700Y354000D02*X228200Y353500D01*
X230900Y357500D02*X232900D01*
X233400Y357000D01*
Y356000D01*
X232900Y355500D02*X233400Y356000D01*
X231400Y355500D02*X232900D01*
X231400Y357500D02*Y353500D01*
Y355500D02*X233400Y353500D01*
X172500Y345000D02*X174500D01*
X173500Y346000D02*Y344000D01*
X158500Y256000D02*X160500Y254000D01*
X158500D02*X160500Y256000D01*
X158500Y255000D02*X160500D01*
X159500Y256000D02*Y254000D01*
X191000Y310000D02*Y306000D01*
Y310000D02*X192500Y308500D01*
X194000Y310000D01*
Y306000D01*
X195200Y309500D02*Y306500D01*
Y309500D02*X195700Y310000D01*
X196700D01*
X197200Y309500D01*
Y306500D01*
X196700Y306000D02*X197200Y306500D01*
X195700Y306000D02*X196700D01*
X195200Y306500D02*X195700Y306000D01*
X198400Y310000D02*X200400D01*
X200900Y309500D01*
Y308500D01*
X200400Y308000D02*X200900Y308500D01*
X198900Y308000D02*X200400D01*
X198900Y310000D02*Y306000D01*
Y308000D02*X200900Y306000D01*
X202100Y308000D02*X203600D01*
X202100Y306000D02*X204100D01*
X202100Y310000D02*Y306000D01*
Y310000D02*X204100D01*
X193000Y303500D02*X193500Y303000D01*
X191500Y303500D02*X193000D01*
X191000Y303000D02*X191500Y303500D01*
X191000Y303000D02*Y302000D01*
X191500Y301500D01*
X193000D01*
X193500Y301000D01*
Y300000D01*
X193000Y299500D02*X193500Y300000D01*
X191500Y299500D02*X193000D01*
X191000Y300000D02*X191500Y299500D01*
X194700Y301500D02*X196200D01*
X194700Y299500D02*X196700D01*
X194700Y303500D02*Y299500D01*
Y303500D02*X196700D01*
X197900D02*Y299500D01*
Y303500D02*Y303000D01*
X200400Y300500D01*
Y303500D02*Y299500D01*
X203600Y303500D02*X204100Y303000D01*
X202100Y303500D02*X203600D01*
X201600Y303000D02*X202100Y303500D01*
X201600Y303000D02*Y302000D01*
X202100Y301500D01*
X203600D01*
X204100Y301000D01*
Y300000D01*
X203600Y299500D02*X204100Y300000D01*
X202100Y299500D02*X203600D01*
X201600Y300000D02*X202100Y299500D01*
X205300Y303500D02*X206300D01*
X205800D02*Y299500D01*
X205300D02*X206300D01*
X207500Y303500D02*X209500D01*
X208500D02*Y299500D01*
X210700Y303500D02*X211700D01*
X211200D02*Y299500D01*
X210700D02*X211700D01*
X212900Y303500D02*Y300500D01*
X213900Y299500D01*
X214900Y300500D01*
Y303500D02*Y300500D01*
X216100Y301500D02*X217600D01*
X216100Y299500D02*X218100D01*
X216100Y303500D02*Y299500D01*
Y303500D02*X218100D01*
X2000Y227500D02*X4000D01*
X4500Y227000D01*
Y226000D01*
X4000Y225500D02*X4500Y226000D01*
X2500Y225500D02*X4000D01*
X2500Y227500D02*Y223500D01*
Y225500D02*X4500Y223500D01*
X5700Y227000D02*X6200Y227500D01*
X7700D01*
X8200Y227000D01*
Y226000D01*
X5700Y223500D02*X8200Y226000D01*
X5700Y223500D02*X8200D01*
X11200Y227000D02*Y223500D01*
Y227000D02*X11700Y227500D01*
X13200D01*
X13700Y227000D01*
Y223500D01*
X11200Y225500D02*X13700D01*
X14900Y227500D02*Y223500D01*
X16900D01*
X18100Y227500D02*X20100D01*
X19100D02*Y223500D01*
X2000Y203500D02*X4000D01*
X3000Y204500D02*Y202500D01*
X5200Y205500D02*X7200D01*
X5200D02*Y203500D01*
X5700Y204000D01*
X6700D01*
X7200Y203500D01*
Y202000D01*
X6700Y201500D02*X7200Y202000D01*
X5700Y201500D02*X6700D01*
X5200Y202000D02*X5700Y201500D01*
X8400Y205500D02*Y202500D01*
X9400Y201500D01*
X10400Y202500D01*
Y205500D02*Y202500D01*
X4500Y185500D02*X5000Y185000D01*
X3000Y185500D02*X4500D01*
X2500Y185000D02*X3000Y185500D01*
X2500Y185000D02*Y182000D01*
X3000Y181500D01*
X4500D01*
X5000Y182000D01*
Y183000D02*Y182000D01*
X4500Y183500D02*X5000Y183000D01*
X3500Y183500D02*X4500D01*
X6200Y185500D02*Y181500D01*
Y185500D02*Y185000D01*
X8700Y182500D01*
Y185500D02*Y181500D01*
X10400Y185500D02*Y181500D01*
X11900Y185500D02*X12400Y185000D01*
Y182000D01*
X11900Y181500D02*X12400Y182000D01*
X9900Y181500D02*X11900D01*
X9900Y185500D02*X11900D01*
X49500Y130500D02*X51500Y128500D01*
X49500D02*X51500Y130500D01*
X49500Y129500D02*X51500D01*
X50500Y130500D02*Y128500D01*
X117500Y130000D02*X119500Y128000D01*
X117500D02*X119500Y130000D01*
X117500Y129000D02*X119500D01*
X118500Y130000D02*Y128000D01*
X14500Y124500D02*X15500D01*
X15000D02*Y120500D01*
X14500D02*X15500D01*
X16700Y122000D02*Y121000D01*
Y122000D02*X17200Y122500D01*
X18200D01*
X18700Y122000D01*
Y121000D01*
X18200Y120500D02*X18700Y121000D01*
X17200Y120500D02*X18200D01*
X16700Y121000D02*X17200Y120500D01*
X19900Y122500D02*Y121000D01*
X20400Y120500D01*
X20900D01*
X21400Y121000D01*
Y122500D02*Y121000D01*
X21900Y120500D01*
X22400D01*
X22900Y121000D01*
Y122500D02*Y121000D01*
X25600Y122500D02*X26100Y122000D01*
X24600Y122500D02*X25600D01*
X24100Y122000D02*X24600Y122500D01*
X24100Y122000D02*Y121000D01*
X24600Y120500D01*
X26100Y122500D02*Y121000D01*
X26600Y120500D01*
X24600D02*X25600D01*
X26100Y121000D01*
X31600Y124500D02*X32100Y124000D01*
X30100Y124500D02*X31600D01*
X29600Y124000D02*X30100Y124500D01*
X29600Y124000D02*Y123000D01*
X30100Y122500D01*
X31600D01*
X32100Y122000D01*
Y121000D01*
X31600Y120500D02*X32100Y121000D01*
X30100Y120500D02*X31600D01*
X29600Y121000D02*X30100Y120500D01*
X33800Y122500D02*X35300D01*
X33300Y122000D02*X33800Y122500D01*
X33300Y122000D02*Y121000D01*
X33800Y120500D01*
X35300D01*
X38000Y122500D02*X38500Y122000D01*
X37000Y122500D02*X38000D01*
X36500Y122000D02*X37000Y122500D01*
X36500Y122000D02*Y121000D01*
X37000Y120500D01*
X38500Y122500D02*Y121000D01*
X39000Y120500D01*
X37000D02*X38000D01*
X38500Y121000D01*
X40200Y124500D02*Y121000D01*
X40700Y120500D01*
X42200D02*X43700D01*
X41700Y121000D02*X42200Y120500D01*
X41700Y122000D02*Y121000D01*
Y122000D02*X42200Y122500D01*
X43200D01*
X43700Y122000D01*
X41700Y121500D02*X43700D01*
Y122000D02*Y121500D01*
X46900Y124500D02*Y120500D01*
X46400D02*X46900Y121000D01*
X45400Y120500D02*X46400D01*
X44900Y121000D02*X45400Y120500D01*
X44900Y122000D02*Y121000D01*
Y122000D02*X45400Y122500D01*
X46400D01*
X46900Y122000D01*
X49900Y122500D02*X51400D01*
X49900Y120500D02*X51900D01*
X49900Y124500D02*Y120500D01*
Y124500D02*X51900D01*
X53600Y122000D02*Y120500D01*
Y122000D02*X54100Y122500D01*
X54600D01*
X55100Y122000D01*
Y120500D01*
X53100Y122500D02*X53600Y122000D01*
X57800Y122500D02*X58300Y122000D01*
X56800Y122500D02*X57800D01*
X56300Y122000D02*X56800Y122500D01*
X56300Y122000D02*Y121000D01*
X56800Y120500D01*
X57800D01*
X58300Y121000D01*
X56300Y119500D02*X56800Y119000D01*
X57800D01*
X58300Y119500D01*
Y122500D02*Y119500D01*
X59500Y123500D02*Y123000D01*
Y122000D02*Y120500D01*
X61000Y122000D02*Y120500D01*
Y122000D02*X61500Y122500D01*
X62000D01*
X62500Y122000D01*
Y120500D01*
X60500Y122500D02*X61000Y122000D01*
X64200Y120500D02*X65700D01*
X63700Y121000D02*X64200Y120500D01*
X63700Y122000D02*Y121000D01*
Y122000D02*X64200Y122500D01*
X65200D01*
X65700Y122000D01*
X63700Y121500D02*X65700D01*
Y122000D02*Y121500D01*
X67400Y120500D02*X68900D01*
X66900Y121000D02*X67400Y120500D01*
X66900Y122000D02*Y121000D01*
Y122000D02*X67400Y122500D01*
X68400D01*
X68900Y122000D01*
X66900Y121500D02*X68900D01*
Y122000D02*Y121500D01*
X70600Y122000D02*Y120500D01*
Y122000D02*X71100Y122500D01*
X72100D01*
X70100D02*X70600Y122000D01*
X73300Y123500D02*Y123000D01*
Y122000D02*Y120500D01*
X74800Y122000D02*Y120500D01*
Y122000D02*X75300Y122500D01*
X75800D01*
X76300Y122000D01*
Y120500D01*
X74300Y122500D02*X74800Y122000D01*
X79000Y122500D02*X79500Y122000D01*
X78000Y122500D02*X79000D01*
X77500Y122000D02*X78000Y122500D01*
X77500Y122000D02*Y121000D01*
X78000Y120500D01*
X79000D01*
X79500Y121000D01*
X77500Y119500D02*X78000Y119000D01*
X79000D01*
X79500Y119500D01*
Y122500D02*Y119500D01*
X14500Y117500D02*Y113500D01*
Y117500D02*X16000Y116000D01*
X17500Y117500D01*
Y113500D01*
X20700Y117500D02*X21200Y117000D01*
X19200Y117500D02*X20700D01*
X18700Y117000D02*X19200Y117500D01*
X18700Y117000D02*Y116000D01*
X19200Y115500D01*
X20700D01*
X21200Y115000D01*
Y114000D01*
X20700Y113500D02*X21200Y114000D01*
X19200Y113500D02*X20700D01*
X18700Y114000D02*X19200Y113500D01*
X24400Y117500D02*X24900Y117000D01*
X22900Y117500D02*X24400D01*
X22400Y117000D02*X22900Y117500D01*
X22400Y117000D02*Y116000D01*
X22900Y115500D01*
X24400D01*
X24900Y115000D01*
Y114000D01*
X24400Y113500D02*X24900Y114000D01*
X22900Y113500D02*X24400D01*
X22400Y114000D02*X22900Y113500D01*
X26100Y115500D02*X28100D01*
X29800Y113500D02*X31300D01*
X29300Y114000D02*X29800Y113500D01*
X29300Y117000D02*Y114000D01*
Y117000D02*X29800Y117500D01*
X31300D01*
X32500Y117000D02*Y113500D01*
Y117000D02*X33000Y117500D01*
X34500D01*
X35000Y117000D01*
Y113500D01*
X32500Y115500D02*X35000D01*
X38200Y117500D02*X38700Y117000D01*
X36700Y117500D02*X38200D01*
X36200Y117000D02*X36700Y117500D01*
X36200Y117000D02*Y116000D01*
X36700Y115500D01*
X38200D01*
X38700Y115000D01*
Y114000D01*
X38200Y113500D02*X38700Y114000D01*
X36700Y113500D02*X38200D01*
X36200Y114000D02*X36700Y113500D01*
X40400D02*X41900D01*
X39900Y114000D02*X40400Y113500D01*
X39900Y117000D02*Y114000D01*
Y117000D02*X40400Y117500D01*
X41900D01*
X43100Y117000D02*Y113500D01*
Y117000D02*X43600Y117500D01*
X45100D01*
X45600Y117000D01*
Y113500D01*
X43100Y115500D02*X45600D01*
X47300Y117500D02*Y113500D01*
X48800Y117500D02*X49300Y117000D01*
Y114000D01*
X48800Y113500D02*X49300Y114000D01*
X46800Y113500D02*X48800D01*
X46800Y117500D02*X48800D01*
X50500Y115500D02*X52000D01*
X50500Y113500D02*X52500D01*
X50500Y117500D02*Y113500D01*
Y117500D02*X52500D01*
X55500Y115500D02*Y114500D01*
X56500Y113500D01*
X57500Y114500D01*
Y115500D02*Y114500D01*
X59200Y113500D02*X60200D01*
X59700Y117500D02*Y113500D01*
X58700Y116500D02*X59700Y117500D01*
X61400Y113500D02*X61900D01*
X63100Y114000D02*X63600Y113500D01*
X63100Y117000D02*Y114000D01*
Y117000D02*X63600Y117500D01*
X64600D01*
X65100Y117000D01*
Y114000D01*
X64600Y113500D02*X65100Y114000D01*
X63600Y113500D02*X64600D01*
X63100Y114500D02*X65100Y116500D01*
X14500Y107000D02*X15000Y106500D01*
X14500Y110000D02*X15000Y110500D01*
X14500Y110000D02*Y107000D01*
X16700Y106500D02*X18200D01*
X16200Y107000D02*X16700Y106500D01*
X16200Y110000D02*Y107000D01*
Y110000D02*X16700Y110500D01*
X18200D01*
X19400D02*X19900Y110000D01*
Y107000D01*
X19400Y106500D02*X19900Y107000D01*
X22900Y110000D02*X23400Y110500D01*
X24900D01*
X25400Y110000D01*
Y109000D01*
X22900Y106500D02*X25400Y109000D01*
X22900Y106500D02*X25400D01*
X26600Y107000D02*X27100Y106500D01*
X26600Y110000D02*Y107000D01*
Y110000D02*X27100Y110500D01*
X28100D01*
X28600Y110000D01*
Y107000D01*
X28100Y106500D02*X28600Y107000D01*
X27100Y106500D02*X28100D01*
X26600Y107500D02*X28600Y109500D01*
X30300Y106500D02*X31300D01*
X30800Y110500D02*Y106500D01*
X29800Y109500D02*X30800Y110500D01*
X32500D02*X34500D01*
X32500D02*Y108500D01*
X33000Y109000D01*
X34000D01*
X34500Y108500D01*
Y107000D01*
X34000Y106500D02*X34500Y107000D01*
X33000Y106500D02*X34000D01*
X32500Y107000D02*X33000Y106500D01*
X38000D02*X39500D01*
X37500Y107000D02*X38000Y106500D01*
X37500Y110000D02*Y107000D01*
Y110000D02*X38000Y110500D01*
X39500D01*
X41200Y106500D02*X42700D01*
X40700Y107000D02*X41200Y106500D01*
X40700Y110000D02*Y107000D01*
Y110000D02*X41200Y110500D01*
X42700D01*
X45700Y106500D02*X47700D01*
X48200Y107000D01*
Y108000D02*Y107000D01*
X47700Y108500D02*X48200Y108000D01*
X46200Y108500D02*X47700D01*
X46200Y110500D02*Y106500D01*
X45700Y110500D02*X47700D01*
X48200Y110000D01*
Y109000D01*
X47700Y108500D02*X48200Y109000D01*
X49400Y110500D02*Y110000D01*
X50400Y109000D01*
X51400Y110000D01*
Y110500D02*Y110000D01*
X50400Y109000D02*Y106500D01*
X52600Y108500D02*X54600D01*
X57800Y110500D02*X58300Y110000D01*
X56300Y110500D02*X57800D01*
X55800Y110000D02*X56300Y110500D01*
X55800Y110000D02*Y109000D01*
X56300Y108500D01*
X57800D01*
X58300Y108000D01*
Y107000D01*
X57800Y106500D02*X58300Y107000D01*
X56300Y106500D02*X57800D01*
X55800Y107000D02*X56300Y106500D01*
X59500Y110000D02*Y106500D01*
Y110000D02*X60000Y110500D01*
X61500D01*
X62000Y110000D01*
Y106500D01*
X59500Y108500D02*X62000D01*
X35000Y162500D02*X37000Y160500D01*
X35000D02*X37000Y162500D01*
X35000Y161500D02*X37000D01*
X36000Y162500D02*Y160500D01*
G54D97*X228245Y26393D02*Y25607D01*
X233755Y26393D02*Y25607D01*
X204107Y7745D02*X204893D01*
X204107Y13255D02*X204893D01*
X205750Y36150D02*Y25520D01*
X224250Y36150D02*Y25520D01*
X205750Y36150D02*X209000D01*
X221000D02*X224250D01*
X205750Y25520D02*X205929D01*
X224071D02*X224250D01*
X278300Y75700D02*Y46300D01*
X258700Y75700D02*X278300D01*
X258700Y46300D02*X278300D01*
X258700Y75700D02*Y46300D01*
X256500Y50000D02*Y46000D01*
G54D99*X309200Y97000D02*X380500D01*
X309200Y37000D02*X380500D01*
X309200Y97000D02*Y37000D01*
X380500D02*X380520Y97000D01*
G54D97*X230890Y77799D02*Y65201D01*
X217110D02*X230890D01*
X217110Y77799D02*Y65201D01*
Y77799D02*X230890D01*
X265000Y9200D02*X305000D01*
X265000Y39200D02*X305000D01*
X265000Y34800D02*X305000D01*
X265000Y39200D02*Y9200D01*
X305000Y39200D02*Y9200D01*
X283107Y178755D02*X283893D01*
X283107Y173245D02*X283893D01*
X264165Y168374D02*X309835D01*
X264165Y134910D02*X309835D01*
Y168374D02*Y134910D01*
X264165Y168374D02*Y134910D01*
X367800Y213500D02*Y173500D01*
X337800Y213500D02*Y173500D01*
X342200Y213500D02*Y173500D01*
X337800D02*X367800D01*
X337800Y213500D02*X367800D01*
X49500Y27000D02*X69500D01*
X49500D02*Y17000D01*
X69500D01*
Y27000D02*Y17000D01*
X59500Y27000D02*Y17000D01*
X69500D01*
X106000Y83500D02*X145000D01*
Y114500D02*Y83500D01*
X106000Y114500D02*X145000D01*
X106000Y96500D02*Y83500D01*
Y114500D02*Y101500D01*
Y96500D02*G75*G03X106000Y101500I0J2500D01*G01*
X105607Y42245D02*X106393D01*
X105607Y47755D02*X106393D01*
X127607Y42245D02*X128393D01*
X127607Y47755D02*X128393D01*
X94745Y92393D02*Y91607D01*
X100255Y92393D02*Y91607D01*
X129890Y77799D02*Y65201D01*
X116110D02*X129890D01*
X116110Y77799D02*Y65201D01*
Y77799D02*X129890D01*
G54D99*X8500Y37000D02*X79800D01*
X8500Y97000D02*X79800D01*
Y37000D01*
X8500Y97000D02*X8480Y37000D01*
G54D97*X86000Y9200D02*X146000D01*
X86000Y39200D02*X146000D01*
X86000Y34800D02*X146000D01*
X86000Y39200D02*Y9200D01*
X146000Y39200D02*Y9200D01*
X13000Y164000D02*X32000D01*
X13000D02*Y133000D01*
X32000D01*
Y164000D02*Y151000D01*
Y146000D02*Y133000D01*
Y151000D02*G75*G03X32000Y146000I0J-2500D01*G01*
X295607Y77245D02*X296393D01*
X295607Y82755D02*X296393D01*
X154745Y80893D02*Y80107D01*
X160255Y80893D02*Y80107D01*
X154701Y97610D02*X167299D01*
X154701Y111390D02*Y97610D01*
Y111390D02*X167299D01*
Y97610D01*
X188745Y92350D02*Y91564D01*
X194255Y92350D02*Y91564D01*
X252701Y97610D02*X265299D01*
X252701Y111390D02*Y97610D01*
Y111390D02*X265299D01*
Y97610D01*
X282400Y91400D02*X273700Y102300D01*
Y132200D02*Y102300D01*
Y132200D02*X308300D01*
Y102300D01*
X299600Y91400D01*
X282400D02*X299600D01*
X195245Y26393D02*Y25607D01*
X200755Y26393D02*Y25607D01*
X204390Y49799D02*Y37201D01*
X190610D02*X204390D01*
X190610Y49799D02*Y37201D01*
Y49799D02*X204390D01*
X181107Y7745D02*X181893D01*
X181107Y13255D02*X181893D01*
X203500Y83500D02*X242500D01*
Y114500D02*Y83500D01*
X203500Y114500D02*X242500D01*
X203500Y96500D02*Y83500D01*
Y114500D02*Y101500D01*
Y96500D02*G75*G03X203500Y101500I0J2500D01*G01*
X180390Y49799D02*Y37201D01*
X166610D02*X180390D01*
X166610Y49799D02*Y37201D01*
Y49799D02*X180390D01*
X162600Y32800D02*Y18900D01*
X149800Y32800D02*X162600D01*
X149800D02*Y18900D01*
X162600D01*
X162500Y51900D02*Y38000D01*
X149700Y51900D02*X162500D01*
X149700D02*Y38000D01*
X162500D01*
X167701Y26741D02*X180299D01*
Y19259D01*
X167701D02*X180299D01*
X167701Y26741D02*Y19259D01*
X171500Y292000D02*Y262000D01*
X191500D01*
Y292000D01*
X171500D01*
Y282000D02*X181500D01*
Y292000D01*
X176745Y248893D02*Y248107D01*
X182255Y248893D02*Y248107D01*
X175245Y209850D02*Y209064D01*
X180755Y209850D02*Y209064D01*
X167000Y159000D02*Y139000D01*
X121000Y159000D02*X167000D01*
X121000Y139000D02*X167000D01*
X121000Y159000D02*Y139000D01*
Y159000D02*X123000Y149000D01*
X121000Y139000D02*X123000Y149000D01*
X322564Y295755D02*X323350D01*
X322564Y290245D02*X323350D01*
X306755Y304893D02*Y304107D01*
X301245Y304893D02*Y304107D01*
X240100Y308700D02*Y300300D01*
X248900Y308700D02*Y300300D01*
X241940Y298900D03*
X280390Y302799D02*Y290201D01*
X266610D02*X280390D01*
X266610Y302799D02*Y290201D01*
Y302799D02*X280390D01*
X235255Y304850D02*Y304064D01*
X229745Y304850D02*Y304064D01*
X287600Y308700D02*Y300300D01*
X296400Y308700D02*Y300300D01*
X289440Y298900D03*
X303255Y265850D02*Y265064D01*
X297745Y265850D02*Y265064D01*
X299201Y280759D02*X311799D01*
X299201Y288241D02*Y280759D01*
Y288241D02*X311799D01*
Y280759D01*
X265064Y352755D02*X265850D01*
X265064Y347245D02*X265850D01*
X284500Y313250D02*X353500D01*
X284500Y351750D02*X353500D01*
Y313250D01*
X284500Y351750D02*Y313250D01*
X269100Y236800D02*Y245200D01*
X277900Y236800D02*Y245200D01*
X270940Y235400D03*
X288500Y284500D02*Y250500D01*
X257500Y284500D02*X288500D01*
X257500D02*Y250500D01*
X275500D02*X288500D01*
X257500D02*X270500D01*
X275500D02*G75*G03X270500Y250500I-2500J0D01*G01*
X240259Y287799D02*Y275201D01*
Y287799D02*X247741D01*
Y275201D01*
X240259D02*X247741D01*
X259400Y313050D02*X278600D01*
X259400Y340950D02*X278600D01*
X259400D02*Y313050D01*
X277000Y340950D02*Y313050D01*
X342000Y219500D02*X367500D01*
X342000Y301500D02*X367500D01*
X342000D02*Y219500D01*
X344000Y301500D02*Y219500D01*
X367500Y301500D02*Y219500D01*
X321353Y227315D02*X333951D01*
Y213535D01*
X321353D01*
Y227315D01*
X321201Y245890D02*X333799D01*
Y232110D01*
X321201D01*
Y245890D01*
X322607Y279745D02*X323393D01*
X322607Y285255D02*X323393D01*
X314500Y263000D02*X328400D01*
Y275800D02*Y263000D01*
X314500Y275800D02*X328400D01*
X314500D02*Y263000D01*
X52701Y232610D02*X65299D01*
X52701Y246390D02*Y232610D01*
Y246390D02*X65299D01*
Y232610D01*
X52853Y262185D02*X65451D01*
X52853Y275965D02*Y262185D01*
Y275965D02*X65451D01*
Y262185D01*
X87255Y235893D02*Y235107D01*
X81745Y235893D02*Y235107D01*
X59259Y196799D02*Y184201D01*
Y196799D02*X66741D01*
Y184201D01*
X59259D02*X66741D01*
X99500Y159000D02*Y139000D01*
X53500Y159000D02*X99500D01*
X53500Y139000D02*X99500D01*
X53500Y159000D02*Y139000D01*
Y159000D02*X55500Y149000D01*
X53500Y139000D02*X55500Y149000D01*
X111400Y342900D02*X125300D01*
X111400D02*Y330100D01*
X125300D01*
Y342900D02*Y330100D01*
X111701Y326241D02*X124299D01*
Y318759D01*
X111701D01*
Y326241D01*
G54D99*X54500Y351000D02*Y279700D01*
X106500Y351000D02*Y279700D01*
X54500D02*X106500D01*
Y351000D02*X54500Y351020D01*
G54D97*X113250Y306729D02*Y296099D01*
X131750Y306729D02*Y296099D01*
X113250Y306729D02*X116500D01*
X128500D02*X131750D01*
X113250Y296099D02*X113429D01*
X131571D02*X131750D01*
X34000Y317500D02*X47900D01*
Y330300D02*Y317500D01*
X34000Y330300D02*X47900D01*
X34000D02*Y317500D01*
X22500Y301500D02*X48000D01*
X22500Y219500D02*X48000D01*
Y301500D02*Y219500D01*
X46000Y301500D02*Y219500D01*
X22500Y301500D02*Y219500D01*
X22200Y213500D02*Y173500D01*
X52200Y213500D02*Y173500D01*
X47800Y213500D02*Y173500D01*
X22200Y213500D02*X52200D01*
X22200Y173500D02*X52200D01*
X36201Y348741D02*X48799D01*
Y341259D01*
X36201D01*
Y348741D01*
X23107Y319755D02*X23893D01*
X23107Y314245D02*X23893D01*
X158169Y294436D02*Y293650D01*
X152659Y294436D02*Y293650D01*
X135798Y337393D02*Y336607D01*
X130288Y337393D02*Y336607D01*
X152390Y316299D02*Y303701D01*
X138610D02*X152390D01*
X138610Y316299D02*Y303701D01*
Y316299D02*X152390D01*
X144755Y337393D02*Y336607D01*
X139245Y337393D02*Y336607D01*
X164107Y352712D02*X164893D01*
X164107Y347202D02*X164893D01*
X87607Y273755D02*X88393D01*
X87607Y268245D02*X88393D01*
G54D98*X155659Y248259D02*Y196841D01*
X101341D02*X155659D01*
X101341Y251159D02*Y196841D01*
Y251159D02*X152759D01*
X155659Y248259D01*
X152759Y249259D02*G75*G03X152759Y249259I0J-1000D01*G01*
G54D97*X201255Y267850D02*Y267064D01*
X195745Y267850D02*Y267064D01*
X203890Y250799D02*Y238201D01*
X190110D02*X203890D01*
X190110Y250799D02*Y238201D01*
Y250799D02*X203890D01*
X217273Y272234D02*X229871D01*
X217273Y286014D02*Y272234D01*
Y286014D02*X229871D01*
Y272234D01*
X154755Y337436D02*Y336650D01*
X149245Y337436D02*Y336650D01*
X159400Y313050D02*X178600D01*
X159400Y340950D02*X178600D01*
X159400D02*Y313050D01*
X177000Y340950D02*Y313050D01*
X183000Y351750D02*X252000D01*
X183000Y313250D02*X252000D01*
X183000Y351750D02*Y313250D01*
X252000Y351750D02*Y313250D01*
X213100Y208000D02*X196900D01*
X213100Y230000D02*X196900D01*
X213100Y208000D02*Y230000D01*
X196900Y208000D02*Y230000D01*
X233100Y208000D02*X216900D01*
X233100Y230000D02*X216900D01*
X233100Y208000D02*Y230000D01*
X216900Y208000D02*Y230000D01*
G54D98*X291807Y89150D02*X293807D01*
X294307Y88650D01*
Y87650D01*
X293807Y87150D02*X294307Y87650D01*
X292307Y87150D02*X293807D01*
X292307Y89150D02*Y85150D01*
Y87150D02*X294307Y85150D01*
X295507Y88650D02*X296007Y89150D01*
X297507D01*
X298007Y88650D01*
Y87650D01*
X295507Y85150D02*X298007Y87650D01*
X295507Y85150D02*X298007D01*
X299207Y85650D02*X299707Y85150D01*
X299207Y86650D02*Y85650D01*
Y86650D02*X299707Y87150D01*
X300707D01*
X301207Y86650D01*
Y85650D01*
X300707Y85150D02*X301207Y85650D01*
X299707Y85150D02*X300707D01*
X299207Y87650D02*X299707Y87150D01*
X299207Y88650D02*Y87650D01*
Y88650D02*X299707Y89150D01*
X300707D01*
X301207Y88650D01*
Y87650D01*
X300707Y87150D02*X301207Y87650D01*
X301157Y69500D02*X302657D01*
Y66000D01*
X302157Y65500D02*X302657Y66000D01*
X301657Y65500D02*X302157D01*
X301157Y66000D02*X301657Y65500D01*
X303857Y69000D02*X304357Y69500D01*
X305857D01*
X306357Y69000D01*
Y68000D01*
X303857Y65500D02*X306357Y68000D01*
X303857Y65500D02*X306357D01*
X296000Y46000D02*X297500D01*
Y42500D01*
X297000Y42000D02*X297500Y42500D01*
X296500Y42000D02*X297000D01*
X296000Y42500D02*X296500Y42000D01*
X298700Y45500D02*X299200Y46000D01*
X300200D01*
X300700Y45500D01*
Y42500D01*
X300200Y42000D02*X300700Y42500D01*
X299200Y42000D02*X300200D01*
X298700Y42500D02*X299200Y42000D01*
Y44000D02*X300700D01*
X312500Y141500D02*Y138000D01*
X313000Y137500D01*
X314000D01*
X314500Y138000D01*
Y141500D02*Y138000D01*
X315700Y141000D02*X316200Y141500D01*
X317200D01*
X317700Y141000D01*
Y138000D01*
X317200Y137500D02*X317700Y138000D01*
X316200Y137500D02*X317200D01*
X315700Y138000D02*X316200Y137500D01*
Y139500D02*X317700D01*
X251500Y61000D02*Y57500D01*
X252000Y57000D01*
X253000D01*
X253500Y57500D01*
Y61000D02*Y57500D01*
X255200Y57000D02*X256200D01*
X255700Y61000D02*Y57000D01*
X254700Y60000D02*X255700Y61000D01*
X258000Y91149D02*X259500D01*
X257500Y91649D02*X258000Y91149D01*
X257500Y94649D02*Y91649D01*
Y94649D02*X258000Y95149D01*
X259500D01*
X261200Y91149D02*X262200D01*
X261700Y95149D02*Y91149D01*
X260700Y94149D02*X261700Y95149D01*
X263900Y91149D02*X264900D01*
X264400Y95149D02*Y91149D01*
X263400Y94149D02*X264400Y95149D01*
X234000Y73000D02*X236000D01*
X236500Y72500D01*
Y71500D01*
X236000Y71000D02*X236500Y71500D01*
X234500Y71000D02*X236000D01*
X234500Y73000D02*Y69000D01*
Y71000D02*X236500Y69000D01*
X238200D02*X239200D01*
X238700Y73000D02*Y69000D01*
X237700Y72000D02*X238700Y73000D01*
X240400D02*X242400D01*
X240400D02*Y71000D01*
X240900Y71500D01*
X241900D01*
X242400Y71000D01*
Y69500D01*
X241900Y69000D02*X242400Y69500D01*
X240900Y69000D02*X241900D01*
X240400Y69500D02*X240900Y69000D01*
X123500Y123000D02*Y119500D01*
X124000Y119000D01*
X125000D01*
X125500Y119500D01*
Y123000D02*Y119500D01*
X126700Y119000D02*X129200Y121500D01*
Y123000D02*Y121500D01*
X126700Y123000D02*X129200D01*
X221000Y121500D02*Y118000D01*
X221500Y117500D01*
X222500D01*
X223000Y118000D01*
Y121500D02*Y118000D01*
X224200D02*X224700Y117500D01*
X224200Y119000D02*Y118000D01*
Y119000D02*X224700Y119500D01*
X225700D01*
X226200Y119000D01*
Y118000D01*
X225700Y117500D02*X226200Y118000D01*
X224700Y117500D02*X225700D01*
X224200Y120000D02*X224700Y119500D01*
X224200Y121000D02*Y120000D01*
Y121000D02*X224700Y121500D01*
X225700D01*
X226200Y121000D01*
Y120000D01*
X225700Y119500D02*X226200Y120000D01*
X266477Y122059D02*X267977D01*
X265977Y122559D02*X266477Y122059D01*
X265977Y125559D02*Y122559D01*
Y125559D02*X266477Y126059D01*
X267977D01*
X269677Y122059D02*X270677D01*
X270177Y126059D02*Y122059D01*
X269177Y125059D02*X270177Y126059D01*
X162807Y82150D02*X164807D01*
X165307Y81650D01*
Y80650D01*
X164807Y80150D02*X165307Y80650D01*
X163307Y80150D02*X164807D01*
X163307Y82150D02*Y78150D01*
Y80150D02*X165307Y78150D01*
X166507Y81650D02*X167007Y82150D01*
X168507D01*
X169007Y81650D01*
Y80650D01*
X166507Y78150D02*X169007Y80650D01*
X166507Y78150D02*X169007D01*
X170207D02*X172707Y80650D01*
Y82150D02*Y80650D01*
X170207Y82150D02*X172707D01*
X158000Y114000D02*X159500D01*
X157500Y114500D02*X158000Y114000D01*
X157500Y117500D02*Y114500D01*
Y117500D02*X158000Y118000D01*
X159500D01*
X161200Y114000D02*X162200D01*
X161700Y118000D02*Y114000D01*
X160700Y117000D02*X161700Y118000D01*
X163400Y114500D02*X163900Y114000D01*
X163400Y117500D02*Y114500D01*
Y117500D02*X163900Y118000D01*
X164900D01*
X165400Y117500D01*
Y114500D01*
X164900Y114000D02*X165400Y114500D01*
X163900Y114000D02*X164900D01*
X163400Y115000D02*X165400Y117000D01*
X181307Y91650D02*X182807D01*
X180807Y92150D02*X181307Y91650D01*
X180807Y95150D02*Y92150D01*
Y95150D02*X181307Y95650D01*
X182807D01*
X184007Y91650D02*X186007Y93650D01*
Y95150D02*Y93650D01*
X185507Y95650D02*X186007Y95150D01*
X184507Y95650D02*X185507D01*
X184007Y95150D02*X184507Y95650D01*
X184007Y95150D02*Y94150D01*
X184507Y93650D01*
X186007D01*
X236500Y20500D02*X238000D01*
X236000Y21000D02*X236500Y20500D01*
X236000Y24000D02*Y21000D01*
Y24000D02*X236500Y24500D01*
X238000D01*
X239200Y24000D02*X239700Y24500D01*
X240700D01*
X241200Y24000D01*
Y21000D01*
X240700Y20500D02*X241200Y21000D01*
X239700Y20500D02*X240700D01*
X239200Y21000D02*X239700Y20500D01*
Y22500D02*X241200D01*
X221500Y43000D02*Y39500D01*
X222000Y39000D01*
X223000D01*
X223500Y39500D01*
Y43000D02*Y39500D01*
X224700Y42500D02*X225200Y43000D01*
X226700D01*
X227200Y42500D01*
Y41500D01*
X224700Y39000D02*X227200Y41500D01*
X224700Y39000D02*X227200D01*
X187500Y23500D02*X189000D01*
X187000Y24000D02*X187500Y23500D01*
X187000Y27000D02*Y24000D01*
Y27000D02*X187500Y27500D01*
X189000D01*
X190200Y25500D02*X192200Y27500D01*
X190200Y25500D02*X192700D01*
X192200Y27500D02*Y23500D01*
X193000Y56000D02*X195000D01*
X195500Y55500D01*
Y54500D01*
X195000Y54000D02*X195500Y54500D01*
X193500Y54000D02*X195000D01*
X193500Y56000D02*Y52000D01*
Y54000D02*X195500Y52000D01*
X197200D02*X198200D01*
X197700Y56000D02*Y52000D01*
X196700Y55000D02*X197700Y56000D01*
X199400Y54000D02*X201400Y56000D01*
X199400Y54000D02*X201900D01*
X201400Y56000D02*Y52000D01*
X169000Y56000D02*X171000D01*
X171500Y55500D01*
Y54500D01*
X171000Y54000D02*X171500Y54500D01*
X169500Y54000D02*X171000D01*
X169500Y56000D02*Y52000D01*
Y54000D02*X171500Y52000D01*
X173200D02*X174200D01*
X173700Y56000D02*Y52000D01*
X172700Y55000D02*X173700Y56000D01*
X175400Y55500D02*X175900Y56000D01*
X177400D01*
X177900Y55500D01*
Y54500D01*
X175400Y52000D02*X177900Y54500D01*
X175400Y52000D02*X177900D01*
X152300Y16700D02*Y13700D01*
Y16700D02*X152800Y17200D01*
X153800D01*
X154300Y16700D01*
Y13700D01*
X153800Y13200D02*X154300Y13700D01*
X152800Y13200D02*X153800D01*
X152300Y13700D02*X152800Y13200D01*
X153300Y14200D02*X154300Y13200D01*
X155500Y16700D02*X156000Y17200D01*
X157000D01*
X157500Y16700D01*
Y13700D01*
X157000Y13200D02*X157500Y13700D01*
X156000Y13200D02*X157000D01*
X155500Y13700D02*X156000Y13200D01*
Y15200D02*X157500D01*
X153500Y57500D02*Y54500D01*
Y57500D02*X154000Y58000D01*
X155000D01*
X155500Y57500D01*
Y54500D01*
X155000Y54000D02*X155500Y54500D01*
X154000Y54000D02*X155000D01*
X153500Y54500D02*X154000Y54000D01*
X154500Y55000D02*X155500Y54000D01*
X156700Y56000D02*X158700Y58000D01*
X156700Y56000D02*X159200D01*
X158700Y58000D02*Y54000D01*
X168500Y32500D02*X170500D01*
X171000Y32000D01*
Y31000D01*
X170500Y30500D02*X171000Y31000D01*
X169000Y30500D02*X170500D01*
X169000Y32500D02*Y28500D01*
Y30500D02*X171000Y28500D01*
X172200Y32000D02*X172700Y32500D01*
X174200D01*
X174700Y32000D01*
Y31000D01*
X172200Y28500D02*X174700Y31000D01*
X172200Y28500D02*X174700D01*
X177400Y32500D02*X177900Y32000D01*
X176400Y32500D02*X177400D01*
X175900Y32000D02*X176400Y32500D01*
X175900Y32000D02*Y29000D01*
X176400Y28500D01*
X177400Y30500D02*X177900Y30000D01*
X175900Y30500D02*X177400D01*
X176400Y28500D02*X177400D01*
X177900Y29000D01*
Y30000D02*Y29000D01*
X191307Y12650D02*Y8650D01*
X192807Y12650D02*X193307Y12150D01*
Y9150D01*
X192807Y8650D02*X193307Y9150D01*
X190807Y8650D02*X192807D01*
X190807Y12650D02*X192807D01*
X194507Y8650D02*X196507Y10650D01*
Y12150D02*Y10650D01*
X196007Y12650D02*X196507Y12150D01*
X195007Y12650D02*X196007D01*
X194507Y12150D02*X195007Y12650D01*
X194507Y12150D02*Y11150D01*
X195007Y10650D01*
X196507D01*
X164807Y11650D02*X166807D01*
X167307Y11150D01*
Y10150D01*
X166807Y9650D02*X167307Y10150D01*
X165307Y9650D02*X166807D01*
X165307Y11650D02*Y7650D01*
Y9650D02*X167307Y7650D01*
X169007D02*X170007D01*
X169507Y11650D02*Y7650D01*
X168507Y10650D02*X169507Y11650D01*
X171207Y8150D02*X171707Y7650D01*
X171207Y9150D02*Y8150D01*
Y9150D02*X171707Y9650D01*
X172707D01*
X173207Y9150D01*
Y8150D01*
X172707Y7650D02*X173207Y8150D01*
X171707Y7650D02*X172707D01*
X171207Y10150D02*X171707Y9650D01*
X171207Y11150D02*Y10150D01*
Y11150D02*X171707Y11650D01*
X172707D01*
X173207Y11150D01*
Y10150D01*
X172707Y9650D02*X173207Y10150D01*
X259000Y247000D02*Y243500D01*
X259500Y243000D01*
X260500D01*
X261000Y243500D01*
Y247000D02*Y243500D01*
X263700Y247000D02*X264200Y246500D01*
X262700Y247000D02*X263700D01*
X262200Y246500D02*X262700Y247000D01*
X262200Y246500D02*Y243500D01*
X262700Y243000D01*
X263700Y245000D02*X264200Y244500D01*
X262200Y245000D02*X263700D01*
X262700Y243000D02*X263700D01*
X264200Y243500D01*
Y244500D02*Y243500D01*
X258500Y298000D02*X260500D01*
X261000Y297500D01*
Y296500D01*
X260500Y296000D02*X261000Y296500D01*
X259000Y296000D02*X260500D01*
X259000Y298000D02*Y294000D01*
Y296000D02*X261000Y294000D01*
X262200Y298000D02*X264200D01*
X262200D02*Y296000D01*
X262700Y296500D01*
X263700D01*
X264200Y296000D01*
Y294500D01*
X263700Y294000D02*X264200Y294500D01*
X262700Y294000D02*X263700D01*
X262200Y294500D02*X262700Y294000D01*
X289100Y297036D02*Y293036D01*
X290600Y297036D02*X291100Y296536D01*
Y293536D01*
X290600Y293036D02*X291100Y293536D01*
X288600Y293036D02*X290600D01*
X288600Y297036D02*X290600D01*
X292300Y293036D02*X294800Y295536D01*
Y297036D02*Y295536D01*
X292300Y297036D02*X294800D01*
X269307Y173650D02*X270807D01*
X268807Y174150D02*X269307Y173650D01*
X268807Y177150D02*Y174150D01*
Y177150D02*X269307Y177650D01*
X270807D01*
X272007Y177150D02*X272507Y177650D01*
X274007D01*
X274507Y177150D01*
Y176150D01*
X272007Y173650D02*X274507Y176150D01*
X272007Y173650D02*X274507D01*
X326500Y201500D02*X328000D01*
Y198000D01*
X327500Y197500D02*X328000Y198000D01*
X327000Y197500D02*X327500D01*
X326500Y198000D02*X327000Y197500D01*
X329700D02*X330700D01*
X330200Y201500D02*Y197500D01*
X329200Y200500D02*X330200Y201500D01*
X331900Y198000D02*X332400Y197500D01*
X331900Y201000D02*Y198000D01*
Y201000D02*X332400Y201500D01*
X333400D01*
X333900Y201000D01*
Y198000D01*
X333400Y197500D02*X333900Y198000D01*
X332400Y197500D02*X333400D01*
X331900Y198500D02*X333900Y200500D01*
X307652Y219425D02*X309652D01*
X310152Y218925D01*
Y217925D01*
X309652Y217425D02*X310152Y217925D01*
X308152Y217425D02*X309652D01*
X308152Y219425D02*Y215425D01*
Y217425D02*X310152Y215425D01*
X311352Y218925D02*X311852Y219425D01*
X313352D01*
X313852Y218925D01*
Y217925D01*
X311352Y215425D02*X313852Y217925D01*
X311352Y215425D02*X313852D01*
X315052Y217425D02*X317052Y219425D01*
X315052Y217425D02*X317552D01*
X317052Y219425D02*Y215425D01*
X308000Y241000D02*X310000D01*
X310500Y240500D01*
Y239500D01*
X310000Y239000D02*X310500Y239500D01*
X308500Y239000D02*X310000D01*
X308500Y241000D02*Y237000D01*
Y239000D02*X310500Y237000D01*
X311700Y240500D02*X312200Y241000D01*
X313700D01*
X314200Y240500D01*
Y239500D01*
X311700Y237000D02*X314200Y239500D01*
X311700Y237000D02*X314200D01*
X315400Y240500D02*X315900Y241000D01*
X316900D01*
X317400Y240500D01*
Y237500D01*
X316900Y237000D02*X317400Y237500D01*
X315900Y237000D02*X316900D01*
X315400Y237500D02*X315900Y237000D01*
Y239000D02*X317400D01*
X331000Y272500D02*Y269000D01*
X331500Y268500D01*
X332500D01*
X333000Y269000D01*
Y272500D02*Y269000D01*
X334200Y272500D02*X336200D01*
X334200D02*Y270500D01*
X334700Y271000D01*
X335700D01*
X336200Y270500D01*
Y269000D01*
X335700Y268500D02*X336200Y269000D01*
X334700Y268500D02*X335700D01*
X334200Y269000D02*X334700Y268500D01*
X201500Y236000D02*X203500D01*
X204000Y235500D01*
Y234500D01*
X203500Y234000D02*X204000Y234500D01*
X202000Y234000D02*X203500D01*
X202000Y236000D02*Y232000D01*
Y234000D02*X204000Y232000D01*
X205700D02*X206700D01*
X206200Y236000D02*Y232000D01*
X205200Y235000D02*X206200Y236000D01*
X207900Y232000D02*X210400Y234500D01*
Y236000D02*Y234500D01*
X207900Y236000D02*X210400D01*
X221000Y236500D02*X223000D01*
X223500Y236000D01*
Y235000D01*
X223000Y234500D02*X223500Y235000D01*
X221500Y234500D02*X223000D01*
X221500Y236500D02*Y232500D01*
Y234500D02*X223500Y232500D01*
X225200D02*X226200D01*
X225700Y236500D02*Y232500D01*
X224700Y235500D02*X225700Y236500D01*
X228900D02*X229400Y236000D01*
X227900Y236500D02*X228900D01*
X227400Y236000D02*X227900Y236500D01*
X227400Y236000D02*Y233000D01*
X227900Y232500D01*
X228900Y234500D02*X229400Y234000D01*
X227400Y234500D02*X228900D01*
X227900Y232500D02*X228900D01*
X229400Y233000D01*
Y234000D02*Y233000D01*
X238801Y272224D02*X240801D01*
X241301Y271724D01*
Y270724D01*
X240801Y270224D02*X241301Y270724D01*
X239301Y270224D02*X240801D01*
X239301Y272224D02*Y268224D01*
Y270224D02*X241301Y268224D01*
X242501D02*X245001Y270724D01*
Y272224D02*Y270724D01*
X242501Y272224D02*X245001D01*
X356000Y319000D02*X358000D01*
X357000D02*Y315000D01*
X359200Y318500D02*X359700Y319000D01*
X361200D01*
X361700Y318500D01*
Y317500D01*
X359200Y315000D02*X361700Y317500D01*
X359200Y315000D02*X361700D01*
X335500Y307000D02*X337000D01*
Y303500D01*
X336500Y303000D02*X337000Y303500D01*
X336000Y303000D02*X336500D01*
X335500Y303500D02*X336000Y303000D01*
X338200Y303500D02*X338700Y303000D01*
X338200Y304500D02*Y303500D01*
Y304500D02*X338700Y305000D01*
X339700D01*
X340200Y304500D01*
Y303500D01*
X339700Y303000D02*X340200Y303500D01*
X338700Y303000D02*X339700D01*
X338200Y305500D02*X338700Y305000D01*
X338200Y306500D02*Y305500D01*
Y306500D02*X338700Y307000D01*
X339700D01*
X340200Y306500D01*
Y305500D01*
X339700Y305000D02*X340200Y305500D01*
X331393Y291150D02*X332893D01*
X330893Y291650D02*X331393Y291150D01*
X330893Y294650D02*Y291650D01*
Y294650D02*X331393Y295150D01*
X332893D01*
X335593D02*X336093Y294650D01*
X334593Y295150D02*X335593D01*
X334093Y294650D02*X334593Y295150D01*
X334093Y294650D02*Y291650D01*
X334593Y291150D01*
X335593Y293150D02*X336093Y292650D01*
X334093Y293150D02*X335593D01*
X334593Y291150D02*X335593D01*
X336093Y291650D01*
Y292650D02*Y291650D01*
X308721Y307150D02*X310721D01*
X311221Y306650D01*
Y305650D01*
X310721Y305150D02*X311221Y305650D01*
X309221Y305150D02*X310721D01*
X309221Y307150D02*Y303150D01*
Y305150D02*X311221Y303150D01*
X312421Y305150D02*X314421Y307150D01*
X312421Y305150D02*X314921D01*
X314421Y307150D02*Y303150D01*
X303000Y278000D02*X305000D01*
X305500Y277500D01*
Y276500D01*
X305000Y276000D02*X305500Y276500D01*
X303500Y276000D02*X305000D01*
X303500Y278000D02*Y274000D01*
Y276000D02*X305500Y274000D01*
X308200Y278000D02*X308700Y277500D01*
X307200Y278000D02*X308200D01*
X306700Y277500D02*X307200Y278000D01*
X306700Y277500D02*Y274500D01*
X307200Y274000D01*
X308200Y276000D02*X308700Y275500D01*
X306700Y276000D02*X308200D01*
X307200Y274000D02*X308200D01*
X308700Y274500D01*
Y275500D02*Y274500D01*
X331307Y285064D02*X333307D01*
X333807Y284564D01*
Y283564D01*
X333307Y283064D02*X333807Y283564D01*
X331807Y283064D02*X333307D01*
X331807Y285064D02*Y281064D01*
Y283064D02*X333807Y281064D01*
X335007Y284564D02*X335507Y285064D01*
X337007D01*
X337507Y284564D01*
Y283564D01*
X335007Y281064D02*X337507Y283564D01*
X335007Y281064D02*X337507D01*
X163500Y289500D02*X165000D01*
Y286000D01*
X164500Y285500D02*X165000Y286000D01*
X164000Y285500D02*X164500D01*
X163500Y286000D02*X164000Y285500D01*
X166200Y287500D02*X168200Y289500D01*
X166200Y287500D02*X168700D01*
X168200Y289500D02*Y285500D01*
X146764Y286064D02*X148764D01*
X149264Y285564D01*
Y284564D01*
X148764Y284064D02*X149264Y284564D01*
X147264Y284064D02*X148764D01*
X147264Y286064D02*Y282064D01*
Y284064D02*X149264Y282064D01*
X150464Y285564D02*X150964Y286064D01*
X152464D01*
X152964Y285564D01*
Y284564D01*
X150464Y282064D02*X152964Y284564D01*
X150464Y282064D02*X152964D01*
X154164D02*X156164Y284064D01*
Y285564D02*Y284064D01*
X155664Y286064D02*X156164Y285564D01*
X154664Y286064D02*X155664D01*
X154164Y285564D02*X154664Y286064D01*
X154164Y285564D02*Y284564D01*
X154664Y284064D01*
X156164D01*
X100657Y276000D02*X102157D01*
Y272500D01*
X101657Y272000D02*X102157Y272500D01*
X101157Y272000D02*X101657D01*
X100657Y272500D02*X101157Y272000D01*
X104857Y276000D02*X105357Y275500D01*
X103857Y276000D02*X104857D01*
X103357Y275500D02*X103857Y276000D01*
X103357Y275500D02*Y272500D01*
X103857Y272000D01*
X104857Y274000D02*X105357Y273500D01*
X103357Y274000D02*X104857D01*
X103857Y272000D02*X104857D01*
X105357Y272500D01*
Y273500D02*Y272500D01*
X74850Y269650D02*X76350D01*
X74350Y270150D02*X74850Y269650D01*
X74350Y273150D02*Y270150D01*
Y273150D02*X74850Y273650D01*
X76350D01*
X77550D02*X79550D01*
X77550D02*Y271650D01*
X78050Y272150D01*
X79050D01*
X79550Y271650D01*
Y270150D01*
X79050Y269650D02*X79550Y270150D01*
X78050Y269650D02*X79050D01*
X77550Y270150D02*X78050Y269650D01*
X144000Y266500D02*Y263000D01*
X144500Y262500D01*
X145500D01*
X146000Y263000D01*
Y266500D02*Y263000D01*
X147700Y262500D02*X148700D01*
X148200Y266500D02*Y262500D01*
X147200Y265500D02*X148200Y266500D01*
X149900Y263000D02*X150400Y262500D01*
X149900Y266000D02*Y263000D01*
Y266000D02*X150400Y266500D01*
X151400D01*
X151900Y266000D01*
Y263000D01*
X151400Y262500D02*X151900Y263000D01*
X150400Y262500D02*X151400D01*
X149900Y263500D02*X151900Y265500D01*
X54000Y229799D02*X56000D01*
X56500Y229299D01*
Y228299D01*
X56000Y227799D02*X56500Y228299D01*
X54500Y227799D02*X56000D01*
X54500Y229799D02*Y225799D01*
Y227799D02*X56500Y225799D01*
X57700Y229299D02*X58200Y229799D01*
X59700D01*
X60200Y229299D01*
Y228299D01*
X57700Y225799D02*X60200Y228299D01*
X57700Y225799D02*X60200D01*
X61400Y229299D02*X61900Y229799D01*
X63400D01*
X63900Y229299D01*
Y228299D01*
X61400Y225799D02*X63900Y228299D01*
X61400Y225799D02*X63900D01*
X173807Y217650D02*X175307D01*
X173307Y218150D02*X173807Y217650D01*
X173307Y221150D02*Y218150D01*
Y221150D02*X173807Y221650D01*
X175307D01*
X177007Y217650D02*X178007D01*
X177507Y221650D02*Y217650D01*
X176507Y220650D02*X177507Y221650D01*
X179207Y221150D02*X179707Y221650D01*
X180707D01*
X181207Y221150D01*
Y218150D01*
X180707Y217650D02*X181207Y218150D01*
X179707Y217650D02*X180707D01*
X179207Y218150D02*X179707Y217650D01*
Y219650D02*X181207D01*
X273100Y232700D02*Y228700D01*
X274600Y232700D02*X275100Y232200D01*
Y229200D01*
X274600Y228700D02*X275100Y229200D01*
X272600Y228700D02*X274600D01*
X272600Y232700D02*X274600D01*
X277800D02*X278300Y232200D01*
X276800Y232700D02*X277800D01*
X276300Y232200D02*X276800Y232700D01*
X276300Y232200D02*Y229200D01*
X276800Y228700D01*
X277800Y230700D02*X278300Y230200D01*
X276300Y230700D02*X277800D01*
X276800Y228700D02*X277800D01*
X278300Y229200D01*
Y230200D02*Y229200D01*
X45500Y315000D02*Y312000D01*
Y315000D02*X46000Y315500D01*
X47000D01*
X47500Y315000D01*
Y312000D01*
X47000Y311500D02*X47500Y312000D01*
X46000Y311500D02*X47000D01*
X45500Y312000D02*X46000Y311500D01*
X46500Y312500D02*X47500Y311500D01*
X49200D02*X50200D01*
X49700Y315500D02*Y311500D01*
X48700Y314500D02*X49700Y315500D01*
X220850Y310650D02*X222850D01*
X223350Y310150D01*
Y309150D01*
X222850Y308650D02*X223350Y309150D01*
X221350Y308650D02*X222850D01*
X221350Y310650D02*Y306650D01*
Y308650D02*X223350Y306650D01*
X224550Y310150D02*X225050Y310650D01*
X226050D01*
X226550Y310150D01*
Y307150D01*
X226050Y306650D02*X226550Y307150D01*
X225050Y306650D02*X226050D01*
X224550Y307150D02*X225050Y306650D01*
Y308650D02*X226550D01*
X46500Y308500D02*X48000D01*
Y305000D01*
X47500Y304500D02*X48000Y305000D01*
X47000Y304500D02*X47500D01*
X46500Y305000D02*X47000Y304500D01*
X49200D02*X51700Y307000D01*
Y308500D02*Y307000D01*
X49200Y308500D02*X51700D01*
X159414Y311000D02*X161414D01*
X161914Y310500D01*
Y309500D01*
X161414Y309000D02*X161914Y309500D01*
X159914Y309000D02*X161414D01*
X159914Y311000D02*Y307000D01*
Y309000D02*X161914Y307000D01*
X163114D02*X165114Y309000D01*
Y310500D02*Y309000D01*
X164614Y311000D02*X165114Y310500D01*
X163614Y311000D02*X164614D01*
X163114Y310500D02*X163614Y311000D01*
X163114Y310500D02*Y309500D01*
X163614Y309000D01*
X165114D01*
X273000Y311000D02*X275000D01*
X275500Y310500D01*
Y309500D01*
X275000Y309000D02*X275500Y309500D01*
X273500Y309000D02*X275000D01*
X273500Y311000D02*Y307000D01*
Y309000D02*X275500Y307000D01*
X277200D02*X278200D01*
X277700Y311000D02*Y307000D01*
X276700Y310000D02*X277700Y311000D01*
X279400Y307500D02*X279900Y307000D01*
X279400Y310500D02*Y307500D01*
Y310500D02*X279900Y311000D01*
X280900D01*
X281400Y310500D01*
Y307500D01*
X280900Y307000D02*X281400Y307500D01*
X279900Y307000D02*X280900D01*
X279400Y308000D02*X281400Y310000D01*
X130337Y313000D02*Y309500D01*
X130837Y309000D01*
X131837D01*
X132337Y309500D01*
Y313000D02*Y309500D01*
X133537Y311000D02*X135537Y313000D01*
X133537Y311000D02*X136037D01*
X135537Y313000D02*Y309000D01*
X131393Y329193D02*Y325193D01*
X132893Y329193D02*X133393Y328693D01*
Y325693D01*
X132893Y325193D02*X133393Y325693D01*
X130893Y325193D02*X132893D01*
X130893Y329193D02*X132893D01*
X134593Y325693D02*X135093Y325193D01*
X134593Y326693D02*Y325693D01*
Y326693D02*X135093Y327193D01*
X136093D01*
X136593Y326693D01*
Y325693D01*
X136093Y325193D02*X136593Y325693D01*
X135093Y325193D02*X136093D01*
X134593Y327693D02*X135093Y327193D01*
X134593Y328693D02*Y327693D01*
Y328693D02*X135093Y329193D01*
X136093D01*
X136593Y328693D01*
Y327693D01*
X136093Y327193D02*X136593Y327693D01*
X143000Y300500D02*X145000D01*
X145500Y300000D01*
Y299000D01*
X145000Y298500D02*X145500Y299000D01*
X143500Y298500D02*X145000D01*
X143500Y300500D02*Y296500D01*
Y298500D02*X145500Y296500D01*
X147200D02*X148200D01*
X147700Y300500D02*Y296500D01*
X146700Y299500D02*X147700Y300500D01*
X127000Y320000D02*X129000D01*
X129500Y319500D01*
Y318500D01*
X129000Y318000D02*X129500Y318500D01*
X127500Y318000D02*X129000D01*
X127500Y320000D02*Y316000D01*
Y318000D02*X129500Y316000D01*
X131200D02*X132200D01*
X131700Y320000D02*Y316000D01*
X130700Y319000D02*X131700Y320000D01*
X133400Y316000D02*X135400Y318000D01*
Y319500D02*Y318000D01*
X134900Y320000D02*X135400Y319500D01*
X133900Y320000D02*X134900D01*
X133400Y319500D02*X133900Y320000D01*
X133400Y319500D02*Y318500D01*
X133900Y318000D01*
X135400D01*
X146850Y329150D02*Y325150D01*
X148350Y329150D02*X148850Y328650D01*
Y325650D01*
X148350Y325150D02*X148850Y325650D01*
X146350Y325150D02*X148350D01*
X146350Y329150D02*X148350D01*
X150050Y327150D02*X152050Y329150D01*
X150050Y327150D02*X152550D01*
X152050Y329150D02*Y325150D01*
X139350Y329150D02*Y325150D01*
X140850Y329150D02*X141350Y328650D01*
Y325650D01*
X140850Y325150D02*X141350Y325650D01*
X138850Y325150D02*X140850D01*
X138850Y329150D02*X140850D01*
X143050Y325150D02*X144050D01*
X143550Y329150D02*Y325150D01*
X142550Y328150D02*X143550Y329150D01*
X50348Y259925D02*X52348D01*
X52848Y259425D01*
Y258425D01*
X52348Y257925D02*X52848Y258425D01*
X50848Y257925D02*X52348D01*
X50848Y259925D02*Y255925D01*
Y257925D02*X52848Y255925D01*
X54048Y259425D02*X54548Y259925D01*
X56048D01*
X56548Y259425D01*
Y258425D01*
X54048Y255925D02*X56548Y258425D01*
X54048Y255925D02*X56548D01*
X58248D02*X59248D01*
X58748Y259925D02*Y255925D01*
X57748Y258925D02*X58748Y259925D01*
X194000Y253500D02*X195500D01*
X193500Y254000D02*X194000Y253500D01*
X193500Y257000D02*Y254000D01*
Y257000D02*X194000Y257500D01*
X195500D01*
X196700Y253500D02*X199200Y256000D01*
Y257500D02*Y256000D01*
X196700Y257500D02*X199200D01*
X296350Y252650D02*X297850D01*
X295850Y253150D02*X296350Y252650D01*
X295850Y256150D02*Y253150D01*
Y256150D02*X296350Y256650D01*
X297850D01*
X299550Y252650D02*X300550D01*
X300050Y256650D02*Y252650D01*
X299050Y255650D02*X300050Y256650D01*
X301750Y253150D02*X302250Y252650D01*
X301750Y254150D02*Y253150D01*
Y254150D02*X302250Y254650D01*
X303250D01*
X303750Y254150D01*
Y253150D01*
X303250Y252650D02*X303750Y253150D01*
X302250Y252650D02*X303250D01*
X301750Y255150D02*X302250Y254650D01*
X301750Y256150D02*Y255150D01*
Y256150D02*X302250Y256650D01*
X303250D01*
X303750Y256150D01*
Y255150D01*
X303250Y254650D02*X303750Y255150D01*
X79307Y244150D02*X80807D01*
X78807Y244650D02*X79307Y244150D01*
X78807Y247650D02*Y244650D01*
Y247650D02*X79307Y248150D01*
X80807D01*
X82507Y244150D02*X83507D01*
X83007Y248150D02*Y244150D01*
X82007Y247150D02*X83007Y248150D01*
X84707Y246150D02*X86707Y248150D01*
X84707Y246150D02*X87207D01*
X86707Y248150D02*Y244150D01*
X166807Y250650D02*X168307D01*
X166307Y251150D02*X166807Y250650D01*
X166307Y254150D02*Y251150D01*
Y254150D02*X166807Y254650D01*
X168307D01*
X170007Y250650D02*X171007D01*
X170507Y254650D02*Y250650D01*
X169507Y253650D02*X170507Y254650D01*
X172207D02*X174207D01*
X172207D02*Y252650D01*
X172707Y253150D01*
X173707D01*
X174207Y252650D01*
Y251150D01*
X173707Y250650D02*X174207Y251150D01*
X172707Y250650D02*X173707D01*
X172207Y251150D02*X172707Y250650D01*
X59500Y33500D02*X61000D01*
Y30000D01*
X60500Y29500D02*X61000Y30000D01*
X60000Y29500D02*X60500D01*
X59500Y30000D02*X60000Y29500D01*
X62700Y33500D02*Y29500D01*
X62200Y33500D02*X64200D01*
X64700Y33000D01*
Y32000D01*
X64200Y31500D02*X64700Y32000D01*
X62700Y31500D02*X64200D01*
X66400Y29500D02*X67400D01*
X66900Y33500D02*Y29500D01*
X65900Y32500D02*X66900Y33500D01*
X83157Y70500D02*X84657D01*
Y67000D01*
X84157Y66500D02*X84657Y67000D01*
X83657Y66500D02*X84157D01*
X83157Y67000D02*X83657Y66500D01*
X86357D02*X87357D01*
X86857Y70500D02*Y66500D01*
X85857Y69500D02*X86857Y70500D01*
X89500Y45500D02*X91000D01*
Y42000D01*
X90500Y41500D02*X91000Y42000D01*
X90000Y41500D02*X90500D01*
X89500Y42000D02*X90000Y41500D01*
X92200Y45500D02*X94200D01*
X92200D02*Y43500D01*
X92700Y44000D01*
X93700D01*
X94200Y43500D01*
Y42000D01*
X93700Y41500D02*X94200Y42000D01*
X92700Y41500D02*X93700D01*
X92200Y42000D02*X92700Y41500D01*
X38000Y339000D02*X40000D01*
X40500Y338500D01*
Y337500D01*
X40000Y337000D02*X40500Y337500D01*
X38500Y337000D02*X40000D01*
X38500Y339000D02*Y335000D01*
Y337000D02*X40500Y335000D01*
X41700Y338500D02*X42200Y339000D01*
X43700D01*
X44200Y338500D01*
Y337500D01*
X41700Y335000D02*X44200Y337500D01*
X41700Y335000D02*X44200D01*
X45400Y335500D02*X45900Y335000D01*
X45400Y338500D02*Y335500D01*
Y338500D02*X45900Y339000D01*
X46900D01*
X47400Y338500D01*
Y335500D01*
X46900Y335000D02*X47400Y335500D01*
X45900Y335000D02*X46900D01*
X45400Y336000D02*X47400Y338000D01*
X35000Y139000D02*Y135500D01*
X35500Y135000D01*
X36500D01*
X37000Y135500D01*
Y139000D02*Y135500D01*
X38200Y135000D02*X40200Y137000D01*
Y138500D02*Y137000D01*
X39700Y139000D02*X40200Y138500D01*
X38700Y139000D02*X39700D01*
X38200Y138500D02*X38700Y139000D01*
X38200Y138500D02*Y137500D01*
X38700Y137000D01*
X40200D01*
X19807Y326650D02*Y322650D01*
X21307Y326650D02*X21807Y326150D01*
Y323150D01*
X21307Y322650D02*X21807Y323150D01*
X19307Y322650D02*X21307D01*
X19307Y326650D02*X21307D01*
X23507Y322650D02*X24507D01*
X24007Y326650D02*Y322650D01*
X23007Y325650D02*X24007Y326650D01*
X25707Y323150D02*X26207Y322650D01*
X25707Y326150D02*Y323150D01*
Y326150D02*X26207Y326650D01*
X27207D01*
X27707Y326150D01*
Y323150D01*
X27207Y322650D02*X27707Y323150D01*
X26207Y322650D02*X27207D01*
X25707Y323650D02*X27707Y325650D01*
X55000Y213500D02*X56500D01*
Y210000D01*
X56000Y209500D02*X56500Y210000D01*
X55500Y209500D02*X56000D01*
X55000Y210000D02*X55500Y209500D01*
X57700D02*X59700Y211500D01*
Y213000D02*Y211500D01*
X59200Y213500D02*X59700Y213000D01*
X58200Y213500D02*X59200D01*
X57700Y213000D02*X58200Y213500D01*
X57700Y213000D02*Y212000D01*
X58200Y211500D01*
X59700D01*
X140500Y178000D02*X141000Y177500D01*
X139000Y178000D02*X140500D01*
X138500Y177500D02*X139000Y178000D01*
X138500Y177500D02*Y176500D01*
X139000Y176000D01*
X140500D01*
X141000Y175500D01*
Y174500D01*
X140500Y174000D02*X141000Y174500D01*
X139000Y174000D02*X140500D01*
X138500Y174500D02*X139000Y174000D01*
X142200Y178000D02*Y174000D01*
X143700Y175500D01*
X145200Y174000D01*
Y178000D02*Y174000D01*
X146400Y177500D02*X146900Y178000D01*
X148400D01*
X148900Y177500D01*
Y176500D01*
X146400Y174000D02*X148900Y176500D01*
X146400Y174000D02*X148900D01*
X55500Y201500D02*Y199500D01*
X55000Y199000D01*
X54000D02*X55000D01*
X53500Y199500D02*X54000Y199000D01*
X53500Y201000D02*Y199500D01*
X51500Y201000D02*X55500D01*
X53500D02*X51500Y199000D01*
Y197300D02*Y196300D01*
Y196800D02*X55500D01*
X54500Y197800D02*X55500Y196800D01*
X51500Y194600D02*Y193600D01*
Y194100D02*X55500D01*
X54500Y195100D02*X55500Y194100D01*
X73000Y178000D02*X73500Y177500D01*
X71500Y178000D02*X73000D01*
X71000Y177500D02*X71500Y178000D01*
X71000Y177500D02*Y176500D01*
X71500Y176000D01*
X73000D01*
X73500Y175500D01*
Y174500D01*
X73000Y174000D02*X73500Y174500D01*
X71500Y174000D02*X73000D01*
X71000Y174500D02*X71500Y174000D01*
X74700Y178000D02*Y174000D01*
X76200Y175500D01*
X77700Y174000D01*
Y178000D02*Y174000D01*
X79400D02*X80400D01*
X79900Y178000D02*Y174000D01*
X78900Y177000D02*X79900Y178000D01*
X98307Y50150D02*X99807D01*
X97807Y50650D02*X98307Y50150D01*
X97807Y53650D02*Y50650D01*
Y53650D02*X98307Y54150D01*
X99807D01*
X101507Y50150D02*X102507D01*
X102007Y54150D02*Y50150D01*
X101007Y53150D02*X102007Y54150D01*
X105207D02*X105707Y53650D01*
X104207Y54150D02*X105207D01*
X103707Y53650D02*X104207Y54150D01*
X103707Y53650D02*Y50650D01*
X104207Y50150D01*
X105207Y52150D02*X105707Y51650D01*
X103707Y52150D02*X105207D01*
X104207Y50150D02*X105207D01*
X105707Y50650D01*
Y51650D02*Y50650D01*
X137307Y43150D02*X138807D01*
X136807Y43650D02*X137307Y43150D01*
X136807Y46650D02*Y43650D01*
Y46650D02*X137307Y47150D01*
X138807D01*
X140507Y43150D02*X141507D01*
X141007Y47150D02*Y43150D01*
X140007Y46150D02*X141007Y47150D01*
X142707Y43150D02*X145207Y45650D01*
Y47150D02*Y45650D01*
X142707Y47150D02*X145207D01*
X85350Y92650D02*X86850D01*
X84850Y93150D02*X85350Y92650D01*
X84850Y96150D02*Y93150D01*
Y96150D02*X85350Y96650D01*
X86850D01*
X88050Y93150D02*X88550Y92650D01*
X88050Y94150D02*Y93150D01*
Y94150D02*X88550Y94650D01*
X89550D01*
X90050Y94150D01*
Y93150D01*
X89550Y92650D02*X90050Y93150D01*
X88550Y92650D02*X89550D01*
X88050Y95150D02*X88550Y94650D01*
X88050Y96150D02*Y95150D01*
Y96150D02*X88550Y96650D01*
X89550D01*
X90050Y96150D01*
Y95150D01*
X89550Y94650D02*X90050Y95150D01*
X132500Y70500D02*X134500D01*
X135000Y70000D01*
Y69000D01*
X134500Y68500D02*X135000Y69000D01*
X133000Y68500D02*X134500D01*
X133000Y70500D02*Y66500D01*
Y68500D02*X135000Y66500D01*
X136700D02*X137700D01*
X137200Y70500D02*Y66500D01*
X136200Y69500D02*X137200Y70500D01*
X138900Y70000D02*X139400Y70500D01*
X140400D01*
X140900Y70000D01*
Y67000D01*
X140400Y66500D02*X140900Y67000D01*
X139400Y66500D02*X140400D01*
X138900Y67000D02*X139400Y66500D01*
Y68500D02*X140900D01*
X119700Y350100D02*Y347100D01*
Y350100D02*X120200Y350600D01*
X121200D01*
X121700Y350100D01*
Y347100D01*
X121200Y346600D02*X121700Y347100D01*
X120200Y346600D02*X121200D01*
X119700Y347100D02*X120200Y346600D01*
X120700Y347600D02*X121700Y346600D01*
X122900Y350100D02*X123400Y350600D01*
X124900D01*
X125400Y350100D01*
Y349100D01*
X122900Y346600D02*X125400Y349100D01*
X122900Y346600D02*X125400D01*
X173893Y352607D02*Y348607D01*
X175393Y352607D02*X175893Y352107D01*
Y349107D01*
X175393Y348607D02*X175893Y349107D01*
X173393Y348607D02*X175393D01*
X173393Y352607D02*X175393D01*
X177093Y352107D02*X177593Y352607D01*
X179093D01*
X179593Y352107D01*
Y351107D01*
X177093Y348607D02*X179593Y351107D01*
X177093Y348607D02*X179593D01*
X274721Y354150D02*Y350150D01*
X276221Y354150D02*X276721Y353650D01*
Y350650D01*
X276221Y350150D02*X276721Y350650D01*
X274221Y350150D02*X276221D01*
X274221Y354150D02*X276221D01*
X277921Y353650D02*X278421Y354150D01*
X279421D01*
X279921Y353650D01*
Y350650D01*
X279421Y350150D02*X279921Y350650D01*
X278421Y350150D02*X279421D01*
X277921Y350650D02*X278421Y350150D01*
Y352150D02*X279921D01*
X203850Y268650D02*X205350D01*
X203350Y269150D02*X203850Y268650D01*
X203350Y272150D02*Y269150D01*
Y272150D02*X203850Y272650D01*
X205350D01*
X207050Y268650D02*X208050D01*
X207550Y272650D02*Y268650D01*
X206550Y271650D02*X207550Y272650D01*
X209250Y272150D02*X209750Y272650D01*
X211250D01*
X211750Y272150D01*
Y271150D01*
X209250Y268650D02*X211750Y271150D01*
X209250Y268650D02*X211750D01*
X221428Y292376D02*X223428D01*
X223928Y291876D01*
Y290876D01*
X223428Y290376D02*X223928Y290876D01*
X221928Y290376D02*X223428D01*
X221928Y292376D02*Y288376D01*
Y290376D02*X223928Y288376D01*
X225128Y288876D02*X225628Y288376D01*
X225128Y289876D02*Y288876D01*
Y289876D02*X225628Y290376D01*
X226628D01*
X227128Y289876D01*
Y288876D01*
X226628Y288376D02*X227128Y288876D01*
X225628Y288376D02*X226628D01*
X225128Y290876D02*X225628Y290376D01*
X225128Y291876D02*Y290876D01*
Y291876D02*X225628Y292376D01*
X226628D01*
X227128Y291876D01*
Y290876D01*
X226628Y290376D02*X227128Y290876D01*
X244600Y296950D02*Y292950D01*
X246100Y296950D02*X246600Y296450D01*
Y293450D01*
X246100Y292950D02*X246600Y293450D01*
X244100Y292950D02*X246100D01*
X244100Y296950D02*X246100D01*
X247800D02*X249800D01*
X247800D02*Y294950D01*
X248300Y295450D01*
X249300D01*
X249800Y294950D01*
Y293450D01*
X249300Y292950D02*X249800Y293450D01*
X248300Y292950D02*X249300D01*
X247800Y293450D02*X248300Y292950D01*
X253633Y345015D02*X255633D01*
X254633D02*Y341015D01*
X257333D02*X258333D01*
X257833Y345015D02*Y341015D01*
X256833Y344015D02*X257833Y345015D01*
M02*
