G04 start of page 3 for group 1 idx 1 *
G04 Title: (unknown), solder *
G04 Creator: pcb 20140316 *
G04 CreationDate: Sat 17 Sep 2016 09:25:40 PM GMT UTC *
G04 For: ndholmes *
G04 Format: Gerber/RS-274X *
G04 PCB-Dimensions (mil): 3900.00 3600.00 *
G04 PCB-Coordinate-Origin: lower left *
%MOIN*%
%FSLAX25Y25*%
%LNBOTTOM*%
%ADD64C,0.0450*%
%ADD63C,0.0390*%
%ADD62C,0.1280*%
%ADD61C,0.1285*%
%ADD60C,0.0480*%
%ADD59C,0.0300*%
%ADD58C,0.0380*%
%ADD57C,0.0787*%
%ADD56C,0.1440*%
%ADD55C,0.2937*%
%ADD54C,0.0800*%
%ADD53C,0.0700*%
%ADD52C,0.0600*%
%ADD51C,0.0350*%
%ADD50C,0.0200*%
%ADD49C,0.0250*%
%ADD48C,0.0100*%
%ADD47C,0.0400*%
%ADD46C,0.0001*%
G54D46*G36*
X342500Y195500D02*X88099D01*
X87935Y195769D01*
X87628Y196128D01*
X87269Y196435D01*
X86866Y196681D01*
X86430Y196862D01*
X85971Y196972D01*
X85500Y197009D01*
X85029Y196972D01*
X84570Y196862D01*
X84134Y196681D01*
X83731Y196435D01*
X83372Y196128D01*
X83065Y195769D01*
X82901Y195500D01*
X48000D01*
Y213500D01*
X342500D01*
Y195500D01*
G37*
G36*
X296758Y193500D02*X323500D01*
Y111500D01*
X296758D01*
Y154571D01*
X301251Y154582D01*
X301557Y154655D01*
X301848Y154775D01*
X302116Y154940D01*
X302356Y155144D01*
X302560Y155384D01*
X302725Y155652D01*
X302845Y155943D01*
X302918Y156249D01*
X302937Y156563D01*
X302918Y164751D01*
X302845Y165057D01*
X302725Y165348D01*
X302560Y165616D01*
X302356Y165856D01*
X302116Y166060D01*
X301848Y166225D01*
X301557Y166345D01*
X301251Y166418D01*
X300937Y166437D01*
X296758Y166428D01*
Y193500D01*
G37*
G36*
X287002D02*X296758D01*
Y166428D01*
X292749Y166418D01*
X292443Y166345D01*
X292152Y166225D01*
X291884Y166060D01*
X291644Y165856D01*
X291440Y165616D01*
X291275Y165348D01*
X291155Y165057D01*
X291082Y164751D01*
X291063Y164437D01*
X291066Y163196D01*
X290939Y163107D01*
X290826Y162996D01*
X290732Y162870D01*
X290658Y162730D01*
X290608Y162580D01*
X290581Y162424D01*
X290579Y162266D01*
X290602Y162110D01*
X290652Y161960D01*
X290778Y161608D01*
X290866Y161244D01*
X290919Y160874D01*
X290937Y160500D01*
X290919Y160126D01*
X290866Y159756D01*
X290778Y159392D01*
X290656Y159039D01*
X290606Y158889D01*
X290583Y158734D01*
X290585Y158576D01*
X290612Y158421D01*
X290662Y158272D01*
X290736Y158133D01*
X290830Y158007D01*
X290942Y157897D01*
X291071Y157806D01*
X291078Y157802D01*
X291082Y156249D01*
X291155Y155943D01*
X291275Y155652D01*
X291440Y155384D01*
X291644Y155144D01*
X291884Y154940D01*
X292152Y154775D01*
X292443Y154655D01*
X292749Y154582D01*
X293063Y154563D01*
X296758Y154571D01*
Y111500D01*
X287002D01*
Y154556D01*
X287564Y154583D01*
X288123Y154663D01*
X288672Y154796D01*
X289206Y154981D01*
X289348Y155050D01*
X289477Y155142D01*
X289591Y155252D01*
X289685Y155379D01*
X289759Y155519D01*
X289809Y155668D01*
X289836Y155824D01*
X289838Y155982D01*
X289815Y156139D01*
X289768Y156290D01*
X289698Y156431D01*
X289607Y156561D01*
X289496Y156674D01*
X289370Y156768D01*
X289230Y156842D01*
X289080Y156892D01*
X288924Y156919D01*
X288766Y156921D01*
X288610Y156898D01*
X288460Y156848D01*
X288108Y156722D01*
X287744Y156634D01*
X287374Y156581D01*
X287002Y156563D01*
Y164437D01*
X287374Y164419D01*
X287744Y164366D01*
X288108Y164278D01*
X288461Y164156D01*
X288611Y164106D01*
X288766Y164083D01*
X288924Y164085D01*
X289079Y164112D01*
X289228Y164162D01*
X289367Y164236D01*
X289493Y164330D01*
X289603Y164442D01*
X289694Y164571D01*
X289764Y164712D01*
X289811Y164862D01*
X289833Y165018D01*
X289832Y165175D01*
X289805Y165331D01*
X289754Y165480D01*
X289681Y165619D01*
X289587Y165745D01*
X289475Y165855D01*
X289346Y165946D01*
X289204Y166013D01*
X288672Y166204D01*
X288123Y166337D01*
X287564Y166417D01*
X287002Y166444D01*
Y193500D01*
G37*
G36*
X39493D02*X82535D01*
X82638Y193070D01*
X82819Y192634D01*
X83065Y192231D01*
X83372Y191872D01*
X83731Y191565D01*
X84000Y191401D01*
Y190059D01*
X83995Y190000D01*
X84014Y189765D01*
X84069Y189535D01*
X84159Y189317D01*
X84283Y189116D01*
X84283Y189115D01*
X84436Y188936D01*
X84481Y188898D01*
X88398Y184981D01*
X88436Y184936D01*
X88616Y184783D01*
X88817Y184659D01*
X89035Y184569D01*
X89265Y184514D01*
X89500Y184495D01*
X89559Y184500D01*
X181441D01*
X181500Y184495D01*
X181735Y184514D01*
X181735Y184514D01*
X181965Y184569D01*
X182183Y184659D01*
X182384Y184783D01*
X182564Y184936D01*
X182602Y184981D01*
X185019Y187398D01*
X185064Y187436D01*
X185217Y187615D01*
X185217Y187616D01*
X185341Y187817D01*
X185431Y188035D01*
X185486Y188265D01*
X185505Y188500D01*
X185500Y188559D01*
Y191379D01*
X186121Y192000D01*
X193535D01*
X193528Y191971D01*
X193491Y191500D01*
X193528Y191029D01*
X193638Y190570D01*
X193819Y190134D01*
X194065Y189731D01*
X194372Y189372D01*
X194731Y189065D01*
X195134Y188819D01*
X195570Y188638D01*
X196029Y188528D01*
X196500Y188491D01*
X196971Y188528D01*
X197430Y188638D01*
X197866Y188819D01*
X198269Y189065D01*
X198628Y189372D01*
X198935Y189731D01*
X199181Y190134D01*
X199362Y190570D01*
X199472Y191029D01*
X199500Y191500D01*
X199472Y191971D01*
X199362Y192430D01*
X199181Y192866D01*
X198935Y193269D01*
X198737Y193500D01*
X287002D01*
Y166444D01*
X287000Y166444D01*
X286436Y166417D01*
X285877Y166337D01*
X285328Y166204D01*
X284794Y166019D01*
X284652Y165950D01*
X284523Y165858D01*
X284409Y165748D01*
X284315Y165621D01*
X284241Y165481D01*
X284191Y165332D01*
X284164Y165176D01*
X284162Y165018D01*
X284185Y164861D01*
X284232Y164710D01*
X284302Y164569D01*
X284393Y164439D01*
X284504Y164326D01*
X284630Y164232D01*
X284770Y164158D01*
X284920Y164108D01*
X285076Y164081D01*
X285234Y164079D01*
X285390Y164102D01*
X285540Y164152D01*
X285892Y164278D01*
X286256Y164366D01*
X286626Y164419D01*
X287000Y164437D01*
X287002Y164437D01*
Y156563D01*
X287000Y156563D01*
X286626Y156581D01*
X286256Y156634D01*
X285892Y156722D01*
X285539Y156844D01*
X285389Y156894D01*
X285234Y156917D01*
X285076Y156915D01*
X284921Y156888D01*
X284772Y156838D01*
X284633Y156764D01*
X284507Y156670D01*
X284397Y156558D01*
X284306Y156429D01*
X284236Y156288D01*
X284189Y156138D01*
X284167Y155982D01*
X284168Y155825D01*
X284195Y155669D01*
X284246Y155520D01*
X284319Y155381D01*
X284413Y155255D01*
X284525Y155145D01*
X284654Y155054D01*
X284796Y154987D01*
X285328Y154796D01*
X285877Y154663D01*
X286436Y154583D01*
X287000Y154556D01*
X287002Y154556D01*
Y111500D01*
X256121D01*
X255602Y112019D01*
X255564Y112064D01*
X255384Y112217D01*
X255183Y112341D01*
X254965Y112431D01*
X254735Y112486D01*
X254735Y112486D01*
X254500Y112505D01*
X254441Y112500D01*
X250099D01*
X249935Y112769D01*
X249628Y113128D01*
X249269Y113435D01*
X248866Y113681D01*
X248430Y113862D01*
X247971Y113972D01*
X247500Y114009D01*
X247029Y113972D01*
X246570Y113862D01*
X246134Y113681D01*
X245731Y113435D01*
X245372Y113128D01*
X245065Y112769D01*
X244819Y112366D01*
X244638Y111930D01*
X244535Y111500D01*
X194500D01*
Y114757D01*
X197743Y118000D01*
X272882D01*
X273000Y117991D01*
X273471Y118028D01*
X273471Y118028D01*
X273930Y118138D01*
X274366Y118319D01*
X274769Y118565D01*
X275128Y118872D01*
X275204Y118962D01*
X279038Y122796D01*
X279128Y122872D01*
X279434Y123231D01*
X279435Y123231D01*
X279681Y123634D01*
X279862Y124070D01*
X279972Y124529D01*
X280009Y125000D01*
X280000Y125118D01*
Y155375D01*
X280500Y155682D01*
X281211Y156289D01*
X281818Y157000D01*
X282235Y157679D01*
X282324Y157664D01*
X282482Y157662D01*
X282639Y157685D01*
X282790Y157732D01*
X282931Y157802D01*
X283061Y157893D01*
X283174Y158004D01*
X283268Y158130D01*
X283342Y158270D01*
X283392Y158420D01*
X283419Y158576D01*
X283421Y158734D01*
X283398Y158890D01*
X283348Y159040D01*
X283222Y159392D01*
X283134Y159756D01*
X283081Y160126D01*
X283063Y160500D01*
X283081Y160874D01*
X283134Y161244D01*
X283222Y161608D01*
X283344Y161961D01*
X283394Y162111D01*
X283417Y162266D01*
X283415Y162424D01*
X283388Y162579D01*
X283338Y162728D01*
X283264Y162867D01*
X283170Y162993D01*
X283058Y163103D01*
X282929Y163194D01*
X282788Y163264D01*
X282638Y163311D01*
X282482Y163333D01*
X282325Y163332D01*
X282237Y163317D01*
X281818Y164000D01*
X281211Y164711D01*
X280500Y165318D01*
X279704Y165806D01*
X278840Y166164D01*
X277932Y166382D01*
X277000Y166455D01*
X276068Y166382D01*
X275160Y166164D01*
X274296Y165806D01*
X273500Y165318D01*
X272789Y164711D01*
X272182Y164000D01*
X271694Y163204D01*
X271336Y162340D01*
X271118Y161432D01*
X271045Y160500D01*
X271118Y159568D01*
X271336Y158660D01*
X271694Y157796D01*
X272182Y157000D01*
X272789Y156289D01*
X273500Y155682D01*
X274000Y155375D01*
Y126243D01*
X271757Y124000D01*
X196618D01*
X196500Y124009D01*
X196029Y123972D01*
X195570Y123862D01*
X195134Y123681D01*
X194731Y123435D01*
X194731Y123434D01*
X194372Y123128D01*
X194296Y123038D01*
X189462Y118204D01*
X189372Y118128D01*
X189065Y117769D01*
X188819Y117366D01*
X188638Y116930D01*
X188528Y116471D01*
X188528Y116471D01*
X188491Y116000D01*
X188500Y115882D01*
Y111500D01*
X39493D01*
Y180645D01*
X39578Y180681D01*
X39679Y180743D01*
X39769Y180819D01*
X39845Y180909D01*
X39905Y181011D01*
X40122Y181480D01*
X40289Y181969D01*
X40409Y182472D01*
X40482Y182984D01*
X40506Y183500D01*
X40482Y184016D01*
X40409Y184528D01*
X40289Y185031D01*
X40122Y185520D01*
X39910Y185992D01*
X39849Y186093D01*
X39772Y186184D01*
X39682Y186261D01*
X39580Y186323D01*
X39493Y186360D01*
Y193500D01*
G37*
G36*
X35002D02*X39493D01*
Y186360D01*
X39471Y186369D01*
X39355Y186397D01*
X39237Y186406D01*
X39119Y186397D01*
X39003Y186370D01*
X38893Y186324D01*
X38792Y186262D01*
X38702Y186186D01*
X38624Y186095D01*
X38562Y185994D01*
X38516Y185885D01*
X38489Y185769D01*
X38479Y185651D01*
X38488Y185532D01*
X38516Y185417D01*
X38563Y185308D01*
X38721Y184968D01*
X38842Y184612D01*
X38930Y184247D01*
X38982Y183875D01*
X39000Y183500D01*
X38982Y183125D01*
X38930Y182753D01*
X38842Y182388D01*
X38721Y182032D01*
X38567Y181690D01*
X38520Y181582D01*
X38493Y181467D01*
X38483Y181349D01*
X38493Y181232D01*
X38521Y181117D01*
X38566Y181008D01*
X38628Y180907D01*
X38705Y180818D01*
X38795Y180741D01*
X38895Y180680D01*
X39004Y180635D01*
X39119Y180607D01*
X39237Y180598D01*
X39355Y180608D01*
X39469Y180635D01*
X39493Y180645D01*
Y111500D01*
X35002D01*
Y177994D01*
X35516Y178018D01*
X36028Y178091D01*
X36531Y178211D01*
X37020Y178378D01*
X37492Y178590D01*
X37593Y178651D01*
X37684Y178728D01*
X37761Y178818D01*
X37823Y178920D01*
X37869Y179029D01*
X37897Y179145D01*
X37906Y179263D01*
X37897Y179381D01*
X37870Y179497D01*
X37824Y179607D01*
X37762Y179708D01*
X37686Y179798D01*
X37595Y179876D01*
X37494Y179938D01*
X37385Y179984D01*
X37269Y180011D01*
X37151Y180021D01*
X37032Y180012D01*
X36917Y179984D01*
X36808Y179937D01*
X36468Y179779D01*
X36112Y179658D01*
X35747Y179570D01*
X35375Y179518D01*
X35002Y179500D01*
Y187500D01*
X35375Y187482D01*
X35747Y187430D01*
X36112Y187342D01*
X36468Y187221D01*
X36810Y187067D01*
X36918Y187020D01*
X37033Y186993D01*
X37151Y186983D01*
X37268Y186993D01*
X37383Y187021D01*
X37492Y187066D01*
X37593Y187128D01*
X37682Y187205D01*
X37759Y187295D01*
X37820Y187395D01*
X37865Y187504D01*
X37893Y187619D01*
X37902Y187737D01*
X37892Y187855D01*
X37865Y187969D01*
X37819Y188078D01*
X37757Y188179D01*
X37681Y188269D01*
X37591Y188345D01*
X37489Y188405D01*
X37020Y188622D01*
X36531Y188789D01*
X36028Y188909D01*
X35516Y188982D01*
X35002Y189006D01*
Y193500D01*
G37*
G36*
X30507D02*X35002D01*
Y189006D01*
X35000Y189006D01*
X34484Y188982D01*
X33972Y188909D01*
X33469Y188789D01*
X32980Y188622D01*
X32508Y188410D01*
X32407Y188349D01*
X32316Y188272D01*
X32239Y188182D01*
X32177Y188080D01*
X32131Y187971D01*
X32103Y187855D01*
X32094Y187737D01*
X32103Y187619D01*
X32130Y187503D01*
X32176Y187393D01*
X32238Y187292D01*
X32314Y187202D01*
X32405Y187124D01*
X32506Y187062D01*
X32615Y187016D01*
X32731Y186989D01*
X32849Y186979D01*
X32968Y186988D01*
X33083Y187016D01*
X33192Y187063D01*
X33532Y187221D01*
X33888Y187342D01*
X34253Y187430D01*
X34625Y187482D01*
X35000Y187500D01*
X35002Y187500D01*
Y179500D01*
X35000Y179500D01*
X34625Y179518D01*
X34253Y179570D01*
X33888Y179658D01*
X33532Y179779D01*
X33190Y179933D01*
X33082Y179980D01*
X32967Y180007D01*
X32849Y180017D01*
X32732Y180007D01*
X32617Y179979D01*
X32508Y179934D01*
X32407Y179872D01*
X32318Y179795D01*
X32241Y179705D01*
X32180Y179605D01*
X32135Y179496D01*
X32107Y179381D01*
X32098Y179263D01*
X32108Y179145D01*
X32135Y179031D01*
X32181Y178922D01*
X32243Y178821D01*
X32319Y178731D01*
X32409Y178655D01*
X32511Y178595D01*
X32980Y178378D01*
X33469Y178211D01*
X33972Y178091D01*
X34484Y178018D01*
X35000Y177994D01*
X35002Y177994D01*
Y111500D01*
X30507D01*
Y180640D01*
X30529Y180631D01*
X30645Y180603D01*
X30763Y180594D01*
X30881Y180603D01*
X30997Y180630D01*
X31107Y180676D01*
X31208Y180738D01*
X31298Y180814D01*
X31376Y180905D01*
X31438Y181006D01*
X31484Y181115D01*
X31511Y181231D01*
X31521Y181349D01*
X31512Y181468D01*
X31484Y181583D01*
X31437Y181692D01*
X31279Y182032D01*
X31158Y182388D01*
X31070Y182753D01*
X31018Y183125D01*
X31000Y183500D01*
X31018Y183875D01*
X31070Y184247D01*
X31158Y184612D01*
X31279Y184968D01*
X31433Y185310D01*
X31480Y185418D01*
X31507Y185533D01*
X31517Y185651D01*
X31507Y185768D01*
X31479Y185883D01*
X31434Y185992D01*
X31372Y186093D01*
X31295Y186182D01*
X31205Y186259D01*
X31105Y186320D01*
X30996Y186365D01*
X30881Y186393D01*
X30763Y186402D01*
X30645Y186392D01*
X30531Y186365D01*
X30507Y186355D01*
Y193500D01*
G37*
G36*
X3000Y111500D02*Y193500D01*
X30507D01*
Y186355D01*
X30422Y186319D01*
X30321Y186257D01*
X30231Y186181D01*
X30155Y186091D01*
X30095Y185989D01*
X29878Y185520D01*
X29711Y185031D01*
X29591Y184528D01*
X29518Y184016D01*
X29494Y183500D01*
X29518Y182984D01*
X29591Y182472D01*
X29711Y181969D01*
X29878Y181480D01*
X30090Y181008D01*
X30151Y180907D01*
X30228Y180816D01*
X30318Y180739D01*
X30420Y180677D01*
X30507Y180640D01*
Y111500D01*
X3000D01*
G37*
G36*
X368500Y217500D02*X387000D01*
Y192000D01*
X368500D01*
Y217500D01*
G37*
G36*
X309000Y274000D02*X320500D01*
Y205500D01*
X309000D01*
Y274000D01*
G37*
G36*
X314000Y303000D02*X331000D01*
Y276000D01*
X314000D01*
Y303000D01*
G37*
G36*
X266495Y286500D02*X283901D01*
X284065Y286231D01*
X284372Y285872D01*
X284731Y285565D01*
X284838Y285500D01*
X266495D01*
Y286500D01*
G37*
G36*
Y259500D02*X293882D01*
X294000Y259491D01*
X294118Y259500D01*
X301882D01*
X302000Y259491D01*
X302470Y259528D01*
X302471Y259528D01*
X302930Y259638D01*
X303366Y259819D01*
X303769Y260065D01*
X304128Y260372D01*
X304205Y260462D01*
X306038Y262296D01*
X306128Y262372D01*
X306434Y262731D01*
X306435Y262731D01*
X306500Y262838D01*
Y215500D01*
X266495D01*
Y259500D01*
G37*
G36*
Y291250D02*X301000D01*
Y265743D01*
X300757Y265500D01*
X294118D01*
X294000Y265509D01*
X293882Y265500D01*
X266495D01*
Y276000D01*
X289401D01*
X289565Y275731D01*
X289872Y275372D01*
X290231Y275065D01*
X290634Y274819D01*
X291070Y274638D01*
X291529Y274528D01*
X292000Y274491D01*
X292471Y274528D01*
X292930Y274638D01*
X293366Y274819D01*
X293769Y275065D01*
X294128Y275372D01*
X294435Y275731D01*
X294681Y276134D01*
X294862Y276570D01*
X294972Y277029D01*
X295000Y277500D01*
X294972Y277971D01*
X294862Y278430D01*
X294681Y278866D01*
X294435Y279269D01*
X294128Y279628D01*
X293769Y279935D01*
X293366Y280181D01*
X292930Y280362D01*
X292471Y280472D01*
X292000Y280509D01*
X291529Y280472D01*
X291070Y280362D01*
X290634Y280181D01*
X290231Y279935D01*
X289872Y279628D01*
X289565Y279269D01*
X289401Y279000D01*
X266495D01*
Y282500D01*
X290941D01*
X291000Y282495D01*
X291235Y282514D01*
X291235Y282514D01*
X291465Y282569D01*
X291683Y282659D01*
X291884Y282783D01*
X292064Y282936D01*
X292102Y282981D01*
X294223Y285101D01*
X294529Y285028D01*
X295000Y284991D01*
X295471Y285028D01*
X295930Y285138D01*
X296366Y285319D01*
X296769Y285565D01*
X297128Y285872D01*
X297435Y286231D01*
X297681Y286634D01*
X297862Y287070D01*
X297972Y287529D01*
X298000Y288000D01*
X297972Y288471D01*
X297862Y288930D01*
X297681Y289366D01*
X297435Y289769D01*
X297128Y290128D01*
X296769Y290435D01*
X296366Y290681D01*
X295930Y290862D01*
X295471Y290972D01*
X295000Y291009D01*
X294529Y290972D01*
X294070Y290862D01*
X293634Y290681D01*
X293231Y290435D01*
X292872Y290128D01*
X292565Y289769D01*
X292319Y289366D01*
X292138Y288930D01*
X292028Y288471D01*
X291991Y288000D01*
X292028Y287529D01*
X292101Y287223D01*
X290379Y285500D01*
X288162D01*
X288269Y285565D01*
X288628Y285872D01*
X288935Y286231D01*
X289181Y286634D01*
X289362Y287070D01*
X289472Y287529D01*
X289500Y288000D01*
X289472Y288471D01*
X289362Y288930D01*
X289181Y289366D01*
X288935Y289769D01*
X288628Y290128D01*
X288269Y290435D01*
X287866Y290681D01*
X287430Y290862D01*
X286971Y290972D01*
X286500Y291009D01*
X286029Y290972D01*
X285570Y290862D01*
X285134Y290681D01*
X284731Y290435D01*
X284372Y290128D01*
X284065Y289769D01*
X283901Y289500D01*
X266495D01*
Y291250D01*
G37*
G36*
Y304000D02*X306500D01*
Y295662D01*
X306435Y295769D01*
X306128Y296128D01*
X305769Y296435D01*
X305366Y296681D01*
X304930Y296862D01*
X304471Y296972D01*
X304000Y297009D01*
X303529Y296972D01*
X303070Y296862D01*
X302800Y296750D01*
X266495D01*
Y304000D01*
G37*
G36*
Y279000D02*X265059D01*
X265000Y279005D01*
X264765Y278986D01*
X264535Y278931D01*
X264317Y278841D01*
X264116Y278717D01*
X264115Y278717D01*
X263936Y278564D01*
X263898Y278519D01*
X260379Y275000D01*
X254118D01*
X254471Y275028D01*
X254930Y275138D01*
X255366Y275319D01*
X255769Y275565D01*
X256128Y275872D01*
X256435Y276231D01*
X256599Y276500D01*
X258941D01*
X259000Y276495D01*
X259235Y276514D01*
X259235Y276514D01*
X259465Y276569D01*
X259683Y276659D01*
X259884Y276783D01*
X260064Y276936D01*
X260102Y276981D01*
X265621Y282500D01*
X266495D01*
Y279000D01*
G37*
G36*
X190500Y222500D02*Y265055D01*
X190551Y265106D01*
X190619Y265202D01*
X190670Y265308D01*
X190818Y265716D01*
X190922Y266137D01*
X190984Y266567D01*
X191005Y267000D01*
X190984Y267433D01*
X190922Y267863D01*
X190818Y268284D01*
X190675Y268694D01*
X190622Y268800D01*
X190553Y268896D01*
X190500Y268950D01*
Y274915D01*
X190522Y274951D01*
X190793Y275605D01*
X190958Y276294D01*
X191000Y277000D01*
X190958Y277706D01*
X190793Y278395D01*
X190522Y279049D01*
X190500Y279085D01*
Y284915D01*
X190522Y284951D01*
X190793Y285605D01*
X190958Y286294D01*
X191000Y287000D01*
X190958Y287706D01*
X190793Y288395D01*
X190522Y289049D01*
X190500Y289085D01*
Y293338D01*
X190681Y293634D01*
X190862Y294070D01*
X190972Y294529D01*
X191000Y295000D01*
X190972Y295471D01*
X190862Y295930D01*
X190681Y296366D01*
X190500Y296662D01*
Y304000D01*
X266495D01*
Y296750D01*
X233700D01*
X233430Y296862D01*
X232971Y296972D01*
X232500Y297009D01*
X232029Y296972D01*
X231570Y296862D01*
X231134Y296681D01*
X230731Y296435D01*
X230372Y296128D01*
X230065Y295769D01*
X229819Y295366D01*
X229638Y294930D01*
X229528Y294471D01*
X229491Y294000D01*
X229528Y293529D01*
X229638Y293070D01*
X229819Y292634D01*
X230065Y292231D01*
X230372Y291872D01*
X230731Y291565D01*
X231134Y291319D01*
X231570Y291138D01*
X232029Y291028D01*
X232500Y290991D01*
X232971Y291028D01*
X233430Y291138D01*
X233700Y291250D01*
X266495D01*
Y289500D01*
X255500D01*
X255500Y289500D01*
X241059D01*
X241000Y289505D01*
X240765Y289486D01*
X240535Y289431D01*
X240317Y289341D01*
X240116Y289217D01*
X240115Y289217D01*
X239936Y289064D01*
X239898Y289019D01*
X238777Y287899D01*
X238471Y287972D01*
X238000Y288009D01*
X237529Y287972D01*
X237070Y287862D01*
X236634Y287681D01*
X236231Y287435D01*
X235872Y287128D01*
X235565Y286769D01*
X235319Y286366D01*
X235138Y285930D01*
X235028Y285471D01*
X234991Y285000D01*
X235028Y284529D01*
X235138Y284070D01*
X235319Y283634D01*
X235565Y283231D01*
X235872Y282872D01*
X236231Y282565D01*
X236634Y282319D01*
X237070Y282138D01*
X237529Y282028D01*
X238000Y281991D01*
X238471Y282028D01*
X238930Y282138D01*
X239366Y282319D01*
X239769Y282565D01*
X240128Y282872D01*
X240435Y283231D01*
X240681Y283634D01*
X240862Y284070D01*
X240972Y284529D01*
X241000Y285000D01*
X240972Y285471D01*
X240899Y285777D01*
X241621Y286500D01*
X255500D01*
X255500Y286500D01*
X266495D01*
Y285500D01*
X265059D01*
X265000Y285505D01*
X264765Y285486D01*
X264535Y285431D01*
X264317Y285341D01*
X264116Y285217D01*
X264115Y285217D01*
X263936Y285064D01*
X263898Y285019D01*
X258379Y279500D01*
X256599D01*
X256435Y279769D01*
X256128Y280128D01*
X255769Y280435D01*
X255366Y280681D01*
X254930Y280862D01*
X254471Y280972D01*
X254000Y281009D01*
X253529Y280972D01*
X253070Y280862D01*
X252634Y280681D01*
X252231Y280435D01*
X251872Y280128D01*
X251565Y279769D01*
X251319Y279366D01*
X251138Y278930D01*
X251028Y278471D01*
X250991Y278000D01*
X251028Y277529D01*
X251138Y277070D01*
X251319Y276634D01*
X251415Y276477D01*
X251000Y276509D01*
X250529Y276472D01*
X250070Y276362D01*
X249634Y276181D01*
X249231Y275935D01*
X248872Y275628D01*
X248565Y275269D01*
X248319Y274866D01*
X248138Y274430D01*
X248028Y273971D01*
X247991Y273500D01*
X248028Y273029D01*
X248138Y272570D01*
X248319Y272134D01*
X248565Y271731D01*
X248872Y271372D01*
X249231Y271065D01*
X249634Y270819D01*
X250070Y270638D01*
X250529Y270528D01*
X251000Y270491D01*
X251471Y270528D01*
X251930Y270638D01*
X252366Y270819D01*
X252769Y271065D01*
X253128Y271372D01*
X253435Y271731D01*
X253599Y272000D01*
X260941D01*
X261000Y271995D01*
X261235Y272014D01*
X261235Y272014D01*
X261465Y272069D01*
X261683Y272159D01*
X261884Y272283D01*
X262064Y272436D01*
X262102Y272481D01*
X265621Y276000D01*
X266495D01*
Y265500D01*
X253118D01*
X253000Y265509D01*
X252529Y265472D01*
X252070Y265362D01*
X251634Y265181D01*
X251231Y264935D01*
X250872Y264628D01*
X250565Y264269D01*
X250319Y263866D01*
X250138Y263430D01*
X250028Y262971D01*
X249991Y262500D01*
X250028Y262029D01*
X250138Y261570D01*
X250319Y261134D01*
X250565Y260731D01*
X250872Y260372D01*
X251231Y260065D01*
X251634Y259819D01*
X252070Y259638D01*
X252529Y259528D01*
X253000Y259491D01*
X253118Y259500D01*
X266495D01*
Y215500D01*
X238559D01*
X238735Y215514D01*
X238735Y215514D01*
X238965Y215569D01*
X239183Y215659D01*
X239384Y215783D01*
X239564Y215936D01*
X239602Y215981D01*
X244223Y220601D01*
X244529Y220528D01*
X245000Y220491D01*
X245471Y220528D01*
X245930Y220638D01*
X246366Y220819D01*
X246769Y221065D01*
X247128Y221372D01*
X247435Y221731D01*
X247681Y222134D01*
X247862Y222570D01*
X247972Y223029D01*
X248000Y223500D01*
X247972Y223971D01*
X247862Y224430D01*
X247681Y224866D01*
X247435Y225269D01*
X247128Y225628D01*
X246769Y225935D01*
X246662Y226000D01*
X246769Y226065D01*
X247128Y226372D01*
X247435Y226731D01*
X247681Y227134D01*
X247862Y227570D01*
X247972Y228029D01*
X248000Y228500D01*
X247972Y228971D01*
X247862Y229430D01*
X247681Y229866D01*
X247435Y230269D01*
X247128Y230628D01*
X246769Y230935D01*
X246388Y231168D01*
X246628Y231372D01*
X246935Y231731D01*
X247181Y232134D01*
X247362Y232570D01*
X247472Y233029D01*
X247500Y233500D01*
X247472Y233971D01*
X247362Y234430D01*
X247181Y234866D01*
X246935Y235269D01*
X246628Y235628D01*
X246269Y235935D01*
X245866Y236181D01*
X245430Y236362D01*
X244971Y236472D01*
X244500Y236509D01*
X244029Y236472D01*
X243570Y236362D01*
X243134Y236181D01*
X242731Y235935D01*
X242372Y235628D01*
X242065Y235269D01*
X241901Y235000D01*
X241059D01*
X241000Y235005D01*
X240765Y234986D01*
X240535Y234931D01*
X240317Y234841D01*
X240116Y234717D01*
X240115Y234717D01*
X239936Y234564D01*
X239898Y234519D01*
X236981Y231602D01*
X236936Y231564D01*
X236783Y231384D01*
X236659Y231183D01*
X236569Y230965D01*
X236514Y230735D01*
X236514Y230735D01*
X236495Y230500D01*
X236500Y230441D01*
Y223121D01*
X235879Y222500D01*
X190500D01*
G37*
G36*
X293992Y314000D02*X305257D01*
X308000Y311257D01*
Y301000D01*
X293992D01*
Y314000D01*
G37*
G36*
Y357500D02*X328500D01*
Y301000D01*
X314000D01*
Y312382D01*
X314009Y312500D01*
X313972Y312971D01*
X313972Y312971D01*
X313862Y313430D01*
X313681Y313866D01*
X313435Y314269D01*
X313128Y314628D01*
X313038Y314704D01*
X308704Y319038D01*
X308628Y319128D01*
X308269Y319435D01*
X307866Y319681D01*
X307430Y319862D01*
X306971Y319972D01*
X306500Y320009D01*
X306382Y320000D01*
X293992D01*
Y326984D01*
X294000Y326983D01*
X294863Y327051D01*
X295705Y327253D01*
X296505Y327584D01*
X297243Y328037D01*
X297901Y328599D01*
X298463Y329257D01*
X298916Y329995D01*
X299247Y330795D01*
X299449Y331637D01*
X299500Y332500D01*
X299449Y333363D01*
X299247Y334205D01*
X298916Y335005D01*
X298463Y335743D01*
X297901Y336401D01*
X297243Y336963D01*
X296505Y337416D01*
X295705Y337747D01*
X294863Y337949D01*
X294000Y338017D01*
X293992Y338016D01*
Y357500D01*
G37*
G36*
X242492Y314000D02*X264987D01*
X265454Y313454D01*
X266052Y312942D01*
X266723Y312531D01*
X267450Y312230D01*
X268215Y312046D01*
X269000Y311985D01*
X269785Y312046D01*
X270550Y312230D01*
X271277Y312531D01*
X271948Y312942D01*
X272546Y313454D01*
X273013Y314000D01*
X293992D01*
Y301000D01*
X242492D01*
Y314000D01*
G37*
G36*
X273250Y357500D02*X293992D01*
Y338016D01*
X293137Y337949D01*
X292295Y337747D01*
X291495Y337416D01*
X290757Y336963D01*
X290099Y336401D01*
X289537Y335743D01*
X289084Y335005D01*
X288753Y334205D01*
X288551Y333363D01*
X288483Y332500D01*
X288551Y331637D01*
X288753Y330795D01*
X289084Y329995D01*
X289537Y329257D01*
X290099Y328599D01*
X290757Y328037D01*
X291495Y327584D01*
X292295Y327253D01*
X293137Y327051D01*
X293992Y326984D01*
Y320000D01*
X273250D01*
Y324366D01*
X273469Y324723D01*
X273770Y325450D01*
X273954Y326215D01*
X274000Y327000D01*
X273954Y327785D01*
X273770Y328550D01*
X273469Y329277D01*
X273250Y329634D01*
Y334248D01*
X273368Y334257D01*
X273482Y334285D01*
X273592Y334330D01*
X273692Y334391D01*
X273782Y334468D01*
X273859Y334558D01*
X273920Y334658D01*
X273965Y334768D01*
X273993Y334882D01*
X274000Y335000D01*
Y339000D01*
X273993Y339118D01*
X273965Y339232D01*
X273920Y339342D01*
X273859Y339442D01*
X273782Y339532D01*
X273692Y339609D01*
X273592Y339670D01*
X273482Y339715D01*
X273368Y339743D01*
X273250Y339752D01*
Y357500D01*
G37*
G36*
Y320000D02*X273013D01*
X272546Y320546D01*
X271948Y321058D01*
X271277Y321469D01*
X270550Y321770D01*
X269785Y321954D01*
X269196Y322000D01*
X269785Y322046D01*
X270550Y322230D01*
X271277Y322531D01*
X271948Y322942D01*
X272546Y323454D01*
X273058Y324052D01*
X273250Y324366D01*
Y320000D01*
G37*
G36*
X269000Y357500D02*X273250D01*
Y339752D01*
X273132Y339743D01*
X273018Y339715D01*
X272908Y339670D01*
X272808Y339609D01*
X272718Y339532D01*
X272641Y339442D01*
X272580Y339342D01*
X272535Y339232D01*
X272507Y339118D01*
X272500Y339000D01*
Y335000D01*
X272507Y334882D01*
X272535Y334768D01*
X272580Y334658D01*
X272641Y334558D01*
X272718Y334468D01*
X272808Y334391D01*
X272908Y334330D01*
X273018Y334285D01*
X273132Y334257D01*
X273250Y334248D01*
Y329634D01*
X273058Y329948D01*
X272546Y330546D01*
X271948Y331058D01*
X271277Y331469D01*
X270550Y331770D01*
X269785Y331954D01*
X269196Y332000D01*
X271000D01*
X271118Y332007D01*
X271232Y332035D01*
X271342Y332080D01*
X271442Y332141D01*
X271532Y332218D01*
X271609Y332308D01*
X271670Y332408D01*
X271715Y332518D01*
X271743Y332632D01*
X271752Y332750D01*
X271743Y332868D01*
X271715Y332982D01*
X271670Y333092D01*
X271609Y333192D01*
X271532Y333282D01*
X271442Y333359D01*
X271342Y333420D01*
X271232Y333465D01*
X271118Y333493D01*
X271000Y333500D01*
X269000D01*
Y340500D01*
X271000D01*
X271118Y340507D01*
X271232Y340535D01*
X271342Y340580D01*
X271442Y340641D01*
X271532Y340718D01*
X271609Y340808D01*
X271670Y340908D01*
X271715Y341018D01*
X271743Y341132D01*
X271752Y341250D01*
X271743Y341368D01*
X271715Y341482D01*
X271670Y341592D01*
X271609Y341692D01*
X271532Y341782D01*
X271442Y341859D01*
X271342Y341920D01*
X271232Y341965D01*
X271118Y341993D01*
X271000Y342000D01*
X269000D01*
Y357500D01*
G37*
G36*
X264750D02*X269000D01*
Y342000D01*
X267000D01*
X266882Y341993D01*
X266768Y341965D01*
X266658Y341920D01*
X266558Y341859D01*
X266468Y341782D01*
X266391Y341692D01*
X266330Y341592D01*
X266285Y341482D01*
X266257Y341368D01*
X266248Y341250D01*
X266257Y341132D01*
X266285Y341018D01*
X266330Y340908D01*
X266391Y340808D01*
X266468Y340718D01*
X266558Y340641D01*
X266658Y340580D01*
X266768Y340535D01*
X266882Y340507D01*
X267000Y340500D01*
X269000D01*
Y333500D01*
X267000D01*
X266882Y333493D01*
X266768Y333465D01*
X266658Y333420D01*
X266558Y333359D01*
X266468Y333282D01*
X266391Y333192D01*
X266330Y333092D01*
X266285Y332982D01*
X266257Y332868D01*
X266248Y332750D01*
X266257Y332632D01*
X266285Y332518D01*
X266330Y332408D01*
X266391Y332308D01*
X266468Y332218D01*
X266558Y332141D01*
X266658Y332080D01*
X266768Y332035D01*
X266882Y332007D01*
X267000Y332000D01*
X268804D01*
X268215Y331954D01*
X267450Y331770D01*
X266723Y331469D01*
X266052Y331058D01*
X265454Y330546D01*
X264942Y329948D01*
X264750Y329634D01*
Y334248D01*
X264868Y334257D01*
X264982Y334285D01*
X265092Y334330D01*
X265192Y334391D01*
X265282Y334468D01*
X265359Y334558D01*
X265420Y334658D01*
X265465Y334768D01*
X265493Y334882D01*
X265500Y335000D01*
Y339000D01*
X265493Y339118D01*
X265465Y339232D01*
X265420Y339342D01*
X265359Y339442D01*
X265282Y339532D01*
X265192Y339609D01*
X265092Y339670D01*
X264982Y339715D01*
X264868Y339743D01*
X264750Y339752D01*
Y357500D01*
G37*
G36*
X242492D02*X264750D01*
Y339752D01*
X264632Y339743D01*
X264518Y339715D01*
X264408Y339670D01*
X264308Y339609D01*
X264218Y339532D01*
X264141Y339442D01*
X264080Y339342D01*
X264035Y339232D01*
X264007Y339118D01*
X264000Y339000D01*
Y335000D01*
X264007Y334882D01*
X264035Y334768D01*
X264080Y334658D01*
X264141Y334558D01*
X264218Y334468D01*
X264308Y334391D01*
X264408Y334330D01*
X264518Y334285D01*
X264632Y334257D01*
X264750Y334248D01*
Y329634D01*
X264531Y329277D01*
X264230Y328550D01*
X264046Y327785D01*
X263985Y327000D01*
X264046Y326215D01*
X264230Y325450D01*
X264531Y324723D01*
X264558Y324679D01*
X262879Y323000D01*
X242492D01*
Y326984D01*
X242500Y326983D01*
X243363Y327051D01*
X244205Y327253D01*
X245005Y327584D01*
X245743Y328037D01*
X246401Y328599D01*
X246963Y329257D01*
X247416Y329995D01*
X247747Y330795D01*
X247949Y331637D01*
X248000Y332500D01*
X247949Y333363D01*
X247747Y334205D01*
X247416Y335005D01*
X246963Y335743D01*
X246401Y336401D01*
X245743Y336963D01*
X245005Y337416D01*
X244205Y337747D01*
X243363Y337949D01*
X242500Y338017D01*
X242492Y338016D01*
Y357500D01*
G37*
G36*
X173250Y314000D02*X242492D01*
Y301000D01*
X180662D01*
X180366Y301181D01*
X179930Y301362D01*
X179471Y301472D01*
X179000Y301509D01*
X178529Y301472D01*
X178070Y301362D01*
X177634Y301181D01*
X177338Y301000D01*
X173250D01*
Y314000D01*
G37*
G36*
X192500Y357500D02*X242492D01*
Y338016D01*
X241637Y337949D01*
X240795Y337747D01*
X239995Y337416D01*
X239257Y336963D01*
X238599Y336401D01*
X238037Y335743D01*
X237584Y335005D01*
X237253Y334205D01*
X237051Y333363D01*
X236983Y332500D01*
X237051Y331637D01*
X237253Y330795D01*
X237584Y329995D01*
X238037Y329257D01*
X238599Y328599D01*
X239257Y328037D01*
X239995Y327584D01*
X240795Y327253D01*
X241637Y327051D01*
X242492Y326984D01*
Y323000D01*
X192500D01*
Y327007D01*
X196735Y327014D01*
X196965Y327069D01*
X197183Y327159D01*
X197384Y327283D01*
X197564Y327436D01*
X197717Y327616D01*
X197841Y327817D01*
X197931Y328035D01*
X197986Y328265D01*
X198000Y328500D01*
X197986Y336735D01*
X197931Y336965D01*
X197841Y337183D01*
X197717Y337384D01*
X197564Y337564D01*
X197384Y337717D01*
X197183Y337841D01*
X196965Y337931D01*
X196735Y337986D01*
X196500Y338000D01*
X192500Y337993D01*
Y357500D01*
G37*
G36*
X173250D02*X192500D01*
Y337993D01*
X188265Y337986D01*
X188035Y337931D01*
X187817Y337841D01*
X187616Y337717D01*
X187436Y337564D01*
X187283Y337384D01*
X187159Y337183D01*
X187069Y336965D01*
X187014Y336735D01*
X187000Y336500D01*
X187014Y328265D01*
X187069Y328035D01*
X187159Y327817D01*
X187283Y327616D01*
X187436Y327436D01*
X187616Y327283D01*
X187817Y327159D01*
X188035Y327069D01*
X188265Y327014D01*
X188500Y327000D01*
X192500Y327007D01*
Y323000D01*
X187965D01*
X187972Y323029D01*
X188000Y323500D01*
X187972Y323971D01*
X187862Y324430D01*
X187681Y324866D01*
X187435Y325269D01*
X187128Y325628D01*
X186769Y325935D01*
X186366Y326181D01*
X185930Y326362D01*
X185471Y326472D01*
X185000Y326509D01*
X184529Y326472D01*
X184070Y326362D01*
X183634Y326181D01*
X183231Y325935D01*
X182872Y325628D01*
X182565Y325269D01*
X182319Y324866D01*
X182138Y324430D01*
X182028Y323971D01*
X181991Y323500D01*
X182028Y323029D01*
X182138Y322570D01*
X182319Y322134D01*
X182565Y321731D01*
X182872Y321372D01*
X183231Y321065D01*
X183634Y320819D01*
X184070Y320638D01*
X184529Y320528D01*
X185000Y320491D01*
X185471Y320528D01*
X185777Y320601D01*
X185898Y320481D01*
X185936Y320436D01*
X186115Y320283D01*
X186116Y320283D01*
X186317Y320159D01*
X186535Y320069D01*
X186765Y320014D01*
X186941Y320000D01*
X173250D01*
Y324366D01*
X173469Y324723D01*
X173770Y325450D01*
X173954Y326215D01*
X174000Y327000D01*
X173954Y327785D01*
X173770Y328550D01*
X173469Y329277D01*
X173250Y329634D01*
Y334248D01*
X173368Y334257D01*
X173482Y334285D01*
X173592Y334330D01*
X173692Y334391D01*
X173782Y334468D01*
X173859Y334558D01*
X173920Y334658D01*
X173965Y334768D01*
X173993Y334882D01*
X174000Y335000D01*
Y339000D01*
X173993Y339118D01*
X173965Y339232D01*
X173920Y339342D01*
X173859Y339442D01*
X173782Y339532D01*
X173692Y339609D01*
X173592Y339670D01*
X173482Y339715D01*
X173368Y339743D01*
X173250Y339752D01*
Y357500D01*
G37*
G36*
Y320000D02*X173013D01*
X172546Y320546D01*
X171948Y321058D01*
X171277Y321469D01*
X170550Y321770D01*
X169785Y321954D01*
X169196Y322000D01*
X169785Y322046D01*
X170550Y322230D01*
X171277Y322531D01*
X171948Y322942D01*
X172546Y323454D01*
X173058Y324052D01*
X173250Y324366D01*
Y320000D01*
G37*
G36*
X169000Y311985D02*X169785Y312046D01*
X170550Y312230D01*
X171277Y312531D01*
X171948Y312942D01*
X172546Y313454D01*
X173013Y314000D01*
X173250D01*
Y301000D01*
X169000D01*
Y311985D01*
G37*
G36*
Y357500D02*X173250D01*
Y339752D01*
X173132Y339743D01*
X173018Y339715D01*
X172908Y339670D01*
X172808Y339609D01*
X172718Y339532D01*
X172641Y339442D01*
X172580Y339342D01*
X172535Y339232D01*
X172507Y339118D01*
X172500Y339000D01*
Y335000D01*
X172507Y334882D01*
X172535Y334768D01*
X172580Y334658D01*
X172641Y334558D01*
X172718Y334468D01*
X172808Y334391D01*
X172908Y334330D01*
X173018Y334285D01*
X173132Y334257D01*
X173250Y334248D01*
Y329634D01*
X173058Y329948D01*
X172546Y330546D01*
X171948Y331058D01*
X171277Y331469D01*
X170550Y331770D01*
X169785Y331954D01*
X169196Y332000D01*
X171000D01*
X171118Y332007D01*
X171232Y332035D01*
X171342Y332080D01*
X171442Y332141D01*
X171532Y332218D01*
X171609Y332308D01*
X171670Y332408D01*
X171715Y332518D01*
X171743Y332632D01*
X171752Y332750D01*
X171743Y332868D01*
X171715Y332982D01*
X171670Y333092D01*
X171609Y333192D01*
X171532Y333282D01*
X171442Y333359D01*
X171342Y333420D01*
X171232Y333465D01*
X171118Y333493D01*
X171000Y333500D01*
X169000D01*
Y340500D01*
X171000D01*
X171118Y340507D01*
X171232Y340535D01*
X171342Y340580D01*
X171442Y340641D01*
X171532Y340718D01*
X171609Y340808D01*
X171670Y340908D01*
X171715Y341018D01*
X171743Y341132D01*
X171752Y341250D01*
X171743Y341368D01*
X171715Y341482D01*
X171670Y341592D01*
X171609Y341692D01*
X171532Y341782D01*
X171442Y341859D01*
X171342Y341920D01*
X171232Y341965D01*
X171118Y341993D01*
X171000Y342000D01*
X169000D01*
Y357500D01*
G37*
G36*
X164750Y314366D02*X164942Y314052D01*
X165454Y313454D01*
X166052Y312942D01*
X166723Y312531D01*
X167450Y312230D01*
X168215Y312046D01*
X169000Y311985D01*
X169000D01*
Y301000D01*
X164750D01*
Y314366D01*
G37*
G36*
Y324366D02*X164942Y324052D01*
X165454Y323454D01*
X166052Y322942D01*
X166723Y322531D01*
X167450Y322230D01*
X168215Y322046D01*
X168804Y322000D01*
X168215Y321954D01*
X167450Y321770D01*
X166723Y321469D01*
X166052Y321058D01*
X165454Y320546D01*
X164942Y319948D01*
X164750Y319634D01*
Y324366D01*
G37*
G36*
Y357500D02*X169000D01*
Y342000D01*
X167000D01*
X166882Y341993D01*
X166768Y341965D01*
X166658Y341920D01*
X166558Y341859D01*
X166468Y341782D01*
X166391Y341692D01*
X166330Y341592D01*
X166285Y341482D01*
X166257Y341368D01*
X166248Y341250D01*
X166257Y341132D01*
X166285Y341018D01*
X166330Y340908D01*
X166391Y340808D01*
X166468Y340718D01*
X166558Y340641D01*
X166658Y340580D01*
X166768Y340535D01*
X166882Y340507D01*
X167000Y340500D01*
X169000D01*
Y333500D01*
X167000D01*
X166882Y333493D01*
X166768Y333465D01*
X166658Y333420D01*
X166558Y333359D01*
X166468Y333282D01*
X166391Y333192D01*
X166330Y333092D01*
X166285Y332982D01*
X166257Y332868D01*
X166248Y332750D01*
X166257Y332632D01*
X166285Y332518D01*
X166330Y332408D01*
X166391Y332308D01*
X166468Y332218D01*
X166558Y332141D01*
X166658Y332080D01*
X166768Y332035D01*
X166882Y332007D01*
X167000Y332000D01*
X168804D01*
X168215Y331954D01*
X167450Y331770D01*
X166723Y331469D01*
X166052Y331058D01*
X165454Y330546D01*
X164942Y329948D01*
X164750Y329634D01*
Y334248D01*
X164868Y334257D01*
X164982Y334285D01*
X165092Y334330D01*
X165192Y334391D01*
X165282Y334468D01*
X165359Y334558D01*
X165420Y334658D01*
X165465Y334768D01*
X165493Y334882D01*
X165500Y335000D01*
Y339000D01*
X165493Y339118D01*
X165465Y339232D01*
X165420Y339342D01*
X165359Y339442D01*
X165282Y339532D01*
X165192Y339609D01*
X165092Y339670D01*
X164982Y339715D01*
X164868Y339743D01*
X164750Y339752D01*
Y357500D01*
G37*
G36*
X154500D02*X164750D01*
Y339752D01*
X164632Y339743D01*
X164518Y339715D01*
X164408Y339670D01*
X164308Y339609D01*
X164218Y339532D01*
X164141Y339442D01*
X164080Y339342D01*
X164035Y339232D01*
X164007Y339118D01*
X164000Y339000D01*
Y335000D01*
X164007Y334882D01*
X164035Y334768D01*
X164080Y334658D01*
X164141Y334558D01*
X164218Y334468D01*
X164308Y334391D01*
X164408Y334330D01*
X164518Y334285D01*
X164632Y334257D01*
X164750Y334248D01*
Y329634D01*
X164531Y329277D01*
X164230Y328550D01*
X164046Y327785D01*
X163985Y327000D01*
X164046Y326215D01*
X164230Y325450D01*
X164531Y324723D01*
X164750Y324366D01*
Y319634D01*
X164531Y319277D01*
X164230Y318550D01*
X164046Y317785D01*
X163985Y317000D01*
X164046Y316215D01*
X164230Y315450D01*
X164531Y314723D01*
X164750Y314366D01*
Y301000D01*
X154500D01*
Y357500D01*
G37*
G36*
X387000Y215000D02*X354992D01*
Y220007D01*
X359235Y220014D01*
X359465Y220069D01*
X359683Y220159D01*
X359884Y220283D01*
X360064Y220436D01*
X360217Y220616D01*
X360341Y220817D01*
X360431Y221035D01*
X360486Y221265D01*
X360500Y221500D01*
X360486Y229735D01*
X360431Y229965D01*
X360341Y230183D01*
X360217Y230384D01*
X360064Y230564D01*
X359884Y230717D01*
X359683Y230841D01*
X359465Y230931D01*
X359235Y230986D01*
X359000Y231000D01*
X358181Y230999D01*
X358243Y231037D01*
X358901Y231599D01*
X359463Y232257D01*
X359916Y232995D01*
X360247Y233795D01*
X360449Y234637D01*
X360500Y235500D01*
X360449Y236363D01*
X360247Y237205D01*
X359916Y238005D01*
X359463Y238743D01*
X358901Y239401D01*
X358243Y239963D01*
X357505Y240416D01*
X357301Y240500D01*
X357505Y240584D01*
X358243Y241037D01*
X358901Y241599D01*
X359463Y242257D01*
X359916Y242995D01*
X360247Y243795D01*
X360449Y244637D01*
X360500Y245500D01*
X360449Y246363D01*
X360247Y247205D01*
X359916Y248005D01*
X359463Y248743D01*
X358901Y249401D01*
X358243Y249963D01*
X357505Y250416D01*
X357301Y250500D01*
X357505Y250584D01*
X358243Y251037D01*
X358901Y251599D01*
X359463Y252257D01*
X359916Y252995D01*
X360247Y253795D01*
X360449Y254637D01*
X360500Y255500D01*
X360449Y256363D01*
X360247Y257205D01*
X359916Y258005D01*
X359463Y258743D01*
X358901Y259401D01*
X358243Y259963D01*
X357505Y260416D01*
X357301Y260500D01*
X357505Y260584D01*
X358243Y261037D01*
X358901Y261599D01*
X359463Y262257D01*
X359916Y262995D01*
X360247Y263795D01*
X360449Y264637D01*
X360500Y265500D01*
X360449Y266363D01*
X360247Y267205D01*
X359916Y268005D01*
X359463Y268743D01*
X358901Y269401D01*
X358243Y269963D01*
X357505Y270416D01*
X357301Y270500D01*
X357505Y270584D01*
X358243Y271037D01*
X358901Y271599D01*
X359463Y272257D01*
X359916Y272995D01*
X360247Y273795D01*
X360449Y274637D01*
X360500Y275500D01*
X360449Y276363D01*
X360247Y277205D01*
X359916Y278005D01*
X359463Y278743D01*
X358901Y279401D01*
X358243Y279963D01*
X357505Y280416D01*
X357301Y280500D01*
X357505Y280584D01*
X358243Y281037D01*
X358901Y281599D01*
X359463Y282257D01*
X359916Y282995D01*
X360247Y283795D01*
X360449Y284637D01*
X360500Y285500D01*
X360449Y286363D01*
X360247Y287205D01*
X359916Y288005D01*
X359463Y288743D01*
X358901Y289401D01*
X358243Y289963D01*
X357505Y290416D01*
X357301Y290500D01*
X357505Y290584D01*
X358243Y291037D01*
X358901Y291599D01*
X359463Y292257D01*
X359916Y292995D01*
X360247Y293795D01*
X360449Y294637D01*
X360500Y295500D01*
X360449Y296363D01*
X360247Y297205D01*
X359916Y298005D01*
X359463Y298743D01*
X358901Y299401D01*
X358243Y299963D01*
X357505Y300416D01*
X356705Y300747D01*
X355863Y300949D01*
X355000Y301017D01*
X354992Y301016D01*
Y357000D01*
X365829D01*
X363753Y355728D01*
X361876Y354124D01*
X360272Y352247D01*
X358982Y350142D01*
X358038Y347862D01*
X357461Y345461D01*
X357268Y343000D01*
X357461Y340539D01*
X358038Y338138D01*
X358982Y335858D01*
X360272Y333753D01*
X361876Y331876D01*
X363753Y330272D01*
X365858Y328982D01*
X368138Y328038D01*
X370539Y327461D01*
X373000Y327268D01*
X375461Y327461D01*
X377862Y328038D01*
X380142Y328982D01*
X382247Y330272D01*
X384124Y331876D01*
X385728Y333753D01*
X387000Y335829D01*
Y215000D01*
G37*
G36*
X354992D02*X344000D01*
Y327007D01*
X348235Y327014D01*
X348465Y327069D01*
X348683Y327159D01*
X348884Y327283D01*
X349064Y327436D01*
X349217Y327616D01*
X349341Y327817D01*
X349431Y328035D01*
X349486Y328265D01*
X349500Y328500D01*
X349486Y336735D01*
X349431Y336965D01*
X349341Y337183D01*
X349217Y337384D01*
X349064Y337564D01*
X348884Y337717D01*
X348683Y337841D01*
X348465Y337931D01*
X348235Y337986D01*
X348000Y338000D01*
X344000Y337993D01*
Y357000D01*
X354992D01*
Y301016D01*
X354137Y300949D01*
X353295Y300747D01*
X352495Y300416D01*
X351757Y299963D01*
X351099Y299401D01*
X350537Y298743D01*
X350084Y298005D01*
X349753Y297205D01*
X349551Y296363D01*
X349483Y295500D01*
X349551Y294637D01*
X349753Y293795D01*
X350084Y292995D01*
X350537Y292257D01*
X351099Y291599D01*
X351757Y291037D01*
X352495Y290584D01*
X352699Y290500D01*
X352495Y290416D01*
X351757Y289963D01*
X351099Y289401D01*
X350537Y288743D01*
X350084Y288005D01*
X349753Y287205D01*
X349551Y286363D01*
X349483Y285500D01*
X349551Y284637D01*
X349753Y283795D01*
X350084Y282995D01*
X350537Y282257D01*
X351099Y281599D01*
X351757Y281037D01*
X352495Y280584D01*
X352699Y280500D01*
X352495Y280416D01*
X351757Y279963D01*
X351099Y279401D01*
X350537Y278743D01*
X350084Y278005D01*
X349753Y277205D01*
X349551Y276363D01*
X349483Y275500D01*
X349551Y274637D01*
X349753Y273795D01*
X350084Y272995D01*
X350537Y272257D01*
X351099Y271599D01*
X351757Y271037D01*
X352495Y270584D01*
X352699Y270500D01*
X352495Y270416D01*
X351757Y269963D01*
X351099Y269401D01*
X350537Y268743D01*
X350084Y268005D01*
X349753Y267205D01*
X349551Y266363D01*
X349483Y265500D01*
X349551Y264637D01*
X349753Y263795D01*
X350084Y262995D01*
X350537Y262257D01*
X351099Y261599D01*
X351757Y261037D01*
X352495Y260584D01*
X352699Y260500D01*
X352495Y260416D01*
X351757Y259963D01*
X351099Y259401D01*
X350537Y258743D01*
X350084Y258005D01*
X349753Y257205D01*
X349551Y256363D01*
X349483Y255500D01*
X349551Y254637D01*
X349753Y253795D01*
X350084Y252995D01*
X350537Y252257D01*
X351099Y251599D01*
X351757Y251037D01*
X352495Y250584D01*
X352699Y250500D01*
X352495Y250416D01*
X351757Y249963D01*
X351099Y249401D01*
X350537Y248743D01*
X350084Y248005D01*
X349753Y247205D01*
X349551Y246363D01*
X349483Y245500D01*
X349551Y244637D01*
X349753Y243795D01*
X350084Y242995D01*
X350537Y242257D01*
X351099Y241599D01*
X351757Y241037D01*
X352495Y240584D01*
X352699Y240500D01*
X352495Y240416D01*
X351757Y239963D01*
X351099Y239401D01*
X350537Y238743D01*
X350084Y238005D01*
X349753Y237205D01*
X349551Y236363D01*
X349483Y235500D01*
X349551Y234637D01*
X349753Y233795D01*
X350084Y232995D01*
X350537Y232257D01*
X351099Y231599D01*
X351757Y231037D01*
X351837Y230988D01*
X350765Y230986D01*
X350535Y230931D01*
X350317Y230841D01*
X350116Y230717D01*
X349936Y230564D01*
X349783Y230384D01*
X349659Y230183D01*
X349569Y229965D01*
X349514Y229735D01*
X349500Y229500D01*
X349514Y221265D01*
X349569Y221035D01*
X349659Y220817D01*
X349783Y220616D01*
X349936Y220436D01*
X350116Y220283D01*
X350317Y220159D01*
X350535Y220069D01*
X350765Y220014D01*
X351000Y220000D01*
X354992Y220007D01*
Y215000D01*
G37*
G36*
X344000D02*X324500D01*
Y357000D01*
X344000D01*
Y337993D01*
X339765Y337986D01*
X339535Y337931D01*
X339317Y337841D01*
X339116Y337717D01*
X338936Y337564D01*
X338783Y337384D01*
X338659Y337183D01*
X338569Y336965D01*
X338514Y336735D01*
X338500Y336500D01*
X338514Y328265D01*
X338569Y328035D01*
X338659Y327817D01*
X338783Y327616D01*
X338936Y327436D01*
X339116Y327283D01*
X339317Y327159D01*
X339535Y327069D01*
X339765Y327014D01*
X340000Y327000D01*
X344000Y327007D01*
Y215000D01*
G37*
G36*
X320000Y145500D02*X387000D01*
Y112500D01*
X320000D01*
Y145500D01*
G37*
G36*
X359493Y213500D02*X365000D01*
Y195500D01*
X359493D01*
Y200645D01*
X359578Y200681D01*
X359679Y200743D01*
X359769Y200819D01*
X359845Y200909D01*
X359905Y201011D01*
X360122Y201480D01*
X360289Y201969D01*
X360409Y202472D01*
X360482Y202984D01*
X360506Y203500D01*
X360482Y204016D01*
X360409Y204528D01*
X360289Y205031D01*
X360122Y205520D01*
X359910Y205992D01*
X359849Y206093D01*
X359772Y206184D01*
X359682Y206261D01*
X359580Y206323D01*
X359493Y206360D01*
Y213500D01*
G37*
G36*
X355002D02*X359493D01*
Y206360D01*
X359471Y206369D01*
X359355Y206397D01*
X359237Y206406D01*
X359119Y206397D01*
X359003Y206370D01*
X358893Y206324D01*
X358792Y206262D01*
X358702Y206186D01*
X358624Y206095D01*
X358562Y205994D01*
X358516Y205885D01*
X358489Y205769D01*
X358479Y205651D01*
X358488Y205532D01*
X358516Y205417D01*
X358563Y205308D01*
X358721Y204968D01*
X358842Y204612D01*
X358930Y204247D01*
X358982Y203875D01*
X359000Y203500D01*
X358982Y203125D01*
X358930Y202753D01*
X358842Y202388D01*
X358721Y202032D01*
X358567Y201690D01*
X358520Y201582D01*
X358493Y201467D01*
X358483Y201349D01*
X358493Y201232D01*
X358521Y201117D01*
X358566Y201008D01*
X358628Y200907D01*
X358705Y200818D01*
X358795Y200741D01*
X358895Y200680D01*
X359004Y200635D01*
X359119Y200607D01*
X359237Y200598D01*
X359355Y200608D01*
X359469Y200635D01*
X359493Y200645D01*
Y195500D01*
X355002D01*
Y197994D01*
X355516Y198018D01*
X356028Y198091D01*
X356531Y198211D01*
X357020Y198378D01*
X357492Y198590D01*
X357593Y198651D01*
X357684Y198728D01*
X357761Y198818D01*
X357823Y198920D01*
X357869Y199029D01*
X357897Y199145D01*
X357906Y199263D01*
X357897Y199381D01*
X357870Y199497D01*
X357824Y199607D01*
X357762Y199708D01*
X357686Y199798D01*
X357595Y199876D01*
X357494Y199938D01*
X357385Y199984D01*
X357269Y200011D01*
X357151Y200021D01*
X357032Y200012D01*
X356917Y199984D01*
X356808Y199937D01*
X356468Y199779D01*
X356112Y199658D01*
X355747Y199570D01*
X355375Y199518D01*
X355002Y199500D01*
Y207500D01*
X355375Y207482D01*
X355747Y207430D01*
X356112Y207342D01*
X356468Y207221D01*
X356810Y207067D01*
X356918Y207020D01*
X357033Y206993D01*
X357151Y206983D01*
X357268Y206993D01*
X357383Y207021D01*
X357492Y207066D01*
X357593Y207128D01*
X357682Y207205D01*
X357759Y207295D01*
X357820Y207395D01*
X357865Y207504D01*
X357893Y207619D01*
X357902Y207737D01*
X357892Y207855D01*
X357865Y207969D01*
X357819Y208078D01*
X357757Y208179D01*
X357681Y208269D01*
X357591Y208345D01*
X357489Y208405D01*
X357020Y208622D01*
X356531Y208789D01*
X356028Y208909D01*
X355516Y208982D01*
X355002Y209006D01*
Y213500D01*
G37*
G36*
X350507D02*X355002D01*
Y209006D01*
X355000Y209006D01*
X354484Y208982D01*
X353972Y208909D01*
X353469Y208789D01*
X352980Y208622D01*
X352508Y208410D01*
X352407Y208349D01*
X352316Y208272D01*
X352239Y208182D01*
X352177Y208080D01*
X352131Y207971D01*
X352103Y207855D01*
X352094Y207737D01*
X352103Y207619D01*
X352130Y207503D01*
X352176Y207393D01*
X352238Y207292D01*
X352314Y207202D01*
X352405Y207124D01*
X352506Y207062D01*
X352615Y207016D01*
X352731Y206989D01*
X352849Y206979D01*
X352968Y206988D01*
X353083Y207016D01*
X353192Y207063D01*
X353532Y207221D01*
X353888Y207342D01*
X354253Y207430D01*
X354625Y207482D01*
X355000Y207500D01*
X355002Y207500D01*
Y199500D01*
X355000Y199500D01*
X354625Y199518D01*
X354253Y199570D01*
X353888Y199658D01*
X353532Y199779D01*
X353190Y199933D01*
X353082Y199980D01*
X352967Y200007D01*
X352849Y200017D01*
X352732Y200007D01*
X352617Y199979D01*
X352508Y199934D01*
X352407Y199872D01*
X352318Y199795D01*
X352241Y199705D01*
X352180Y199605D01*
X352135Y199496D01*
X352107Y199381D01*
X352098Y199263D01*
X352108Y199145D01*
X352135Y199031D01*
X352181Y198922D01*
X352243Y198821D01*
X352319Y198731D01*
X352409Y198655D01*
X352511Y198595D01*
X352980Y198378D01*
X353469Y198211D01*
X353972Y198091D01*
X354484Y198018D01*
X355000Y197994D01*
X355002Y197994D01*
Y195500D01*
X350507D01*
Y200640D01*
X350529Y200631D01*
X350645Y200603D01*
X350763Y200594D01*
X350881Y200603D01*
X350997Y200630D01*
X351107Y200676D01*
X351208Y200738D01*
X351298Y200814D01*
X351376Y200905D01*
X351438Y201006D01*
X351484Y201115D01*
X351511Y201231D01*
X351521Y201349D01*
X351512Y201468D01*
X351484Y201583D01*
X351437Y201692D01*
X351279Y202032D01*
X351158Y202388D01*
X351070Y202753D01*
X351018Y203125D01*
X351000Y203500D01*
X351018Y203875D01*
X351070Y204247D01*
X351158Y204612D01*
X351279Y204968D01*
X351433Y205310D01*
X351480Y205418D01*
X351507Y205533D01*
X351517Y205651D01*
X351507Y205768D01*
X351479Y205883D01*
X351434Y205992D01*
X351372Y206093D01*
X351295Y206182D01*
X351205Y206259D01*
X351105Y206320D01*
X350996Y206365D01*
X350881Y206393D01*
X350763Y206402D01*
X350645Y206392D01*
X350531Y206365D01*
X350507Y206355D01*
Y213500D01*
G37*
G36*
X333000D02*X350507D01*
Y206355D01*
X350422Y206319D01*
X350321Y206257D01*
X350231Y206181D01*
X350155Y206091D01*
X350095Y205989D01*
X349878Y205520D01*
X349711Y205031D01*
X349591Y204528D01*
X349518Y204016D01*
X349494Y203500D01*
X349518Y202984D01*
X349591Y202472D01*
X349711Y201969D01*
X349878Y201480D01*
X350090Y201008D01*
X350151Y200907D01*
X350228Y200816D01*
X350318Y200739D01*
X350420Y200677D01*
X350507Y200640D01*
Y195500D01*
X333000D01*
Y213500D01*
G37*
G36*
X359750Y193500D02*X387000D01*
Y141500D01*
X359750D01*
Y180248D01*
X359868Y180257D01*
X359982Y180285D01*
X360092Y180330D01*
X360192Y180391D01*
X360282Y180468D01*
X360359Y180558D01*
X360420Y180658D01*
X360465Y180768D01*
X360493Y180882D01*
X360500Y181000D01*
Y186000D01*
X360493Y186118D01*
X360465Y186232D01*
X360420Y186342D01*
X360359Y186442D01*
X360282Y186532D01*
X360192Y186609D01*
X360092Y186670D01*
X359982Y186715D01*
X359868Y186743D01*
X359750Y186752D01*
Y193500D01*
G37*
G36*
X355000D02*X359750D01*
Y186752D01*
X359632Y186743D01*
X359518Y186715D01*
X359408Y186670D01*
X359308Y186609D01*
X359218Y186532D01*
X359141Y186442D01*
X359080Y186342D01*
X359035Y186232D01*
X359007Y186118D01*
X359000Y186000D01*
Y181000D01*
X359007Y180882D01*
X359035Y180768D01*
X359080Y180658D01*
X359141Y180558D01*
X359218Y180468D01*
X359308Y180391D01*
X359408Y180330D01*
X359518Y180285D01*
X359632Y180257D01*
X359750Y180248D01*
Y141500D01*
X355000D01*
Y178000D01*
X357500D01*
X357618Y178007D01*
X357732Y178035D01*
X357842Y178080D01*
X357942Y178141D01*
X358032Y178218D01*
X358109Y178308D01*
X358170Y178408D01*
X358215Y178518D01*
X358243Y178632D01*
X358252Y178750D01*
X358243Y178868D01*
X358215Y178982D01*
X358170Y179092D01*
X358109Y179192D01*
X358032Y179282D01*
X357942Y179359D01*
X357842Y179420D01*
X357732Y179465D01*
X357618Y179493D01*
X357500Y179500D01*
X355000D01*
Y187500D01*
X357500D01*
X357618Y187507D01*
X357732Y187535D01*
X357842Y187580D01*
X357942Y187641D01*
X358032Y187718D01*
X358109Y187808D01*
X358170Y187908D01*
X358215Y188018D01*
X358243Y188132D01*
X358252Y188250D01*
X358243Y188368D01*
X358215Y188482D01*
X358170Y188592D01*
X358109Y188692D01*
X358032Y188782D01*
X357942Y188859D01*
X357842Y188920D01*
X357732Y188965D01*
X357618Y188993D01*
X357500Y189000D01*
X355000D01*
Y193500D01*
G37*
G36*
X350250D02*X355000D01*
Y189000D01*
X352500D01*
X352382Y188993D01*
X352268Y188965D01*
X352158Y188920D01*
X352058Y188859D01*
X351968Y188782D01*
X351891Y188692D01*
X351830Y188592D01*
X351785Y188482D01*
X351757Y188368D01*
X351748Y188250D01*
X351757Y188132D01*
X351785Y188018D01*
X351830Y187908D01*
X351891Y187808D01*
X351968Y187718D01*
X352058Y187641D01*
X352158Y187580D01*
X352268Y187535D01*
X352382Y187507D01*
X352500Y187500D01*
X355000D01*
Y179500D01*
X352500D01*
X352382Y179493D01*
X352268Y179465D01*
X352158Y179420D01*
X352058Y179359D01*
X351968Y179282D01*
X351891Y179192D01*
X351830Y179092D01*
X351785Y178982D01*
X351757Y178868D01*
X351748Y178750D01*
X351757Y178632D01*
X351785Y178518D01*
X351830Y178408D01*
X351891Y178308D01*
X351968Y178218D01*
X352058Y178141D01*
X352158Y178080D01*
X352268Y178035D01*
X352382Y178007D01*
X352500Y178000D01*
X355000D01*
Y141500D01*
X350250D01*
Y180248D01*
X350368Y180257D01*
X350482Y180285D01*
X350592Y180330D01*
X350692Y180391D01*
X350782Y180468D01*
X350859Y180558D01*
X350920Y180658D01*
X350965Y180768D01*
X350993Y180882D01*
X351000Y181000D01*
Y186000D01*
X350993Y186118D01*
X350965Y186232D01*
X350920Y186342D01*
X350859Y186442D01*
X350782Y186532D01*
X350692Y186609D01*
X350592Y186670D01*
X350482Y186715D01*
X350368Y186743D01*
X350250Y186752D01*
Y193500D01*
G37*
G36*
X314000D02*X350250D01*
Y186752D01*
X350132Y186743D01*
X350018Y186715D01*
X349908Y186670D01*
X349808Y186609D01*
X349718Y186532D01*
X349641Y186442D01*
X349580Y186342D01*
X349535Y186232D01*
X349507Y186118D01*
X349500Y186000D01*
Y181000D01*
X349507Y180882D01*
X349535Y180768D01*
X349580Y180658D01*
X349641Y180558D01*
X349718Y180468D01*
X349808Y180391D01*
X349908Y180330D01*
X350018Y180285D01*
X350132Y180257D01*
X350250Y180248D01*
Y141500D01*
X314000D01*
Y193500D01*
G37*
G36*
X328220Y76959D02*X328399Y77250D01*
X329568D01*
X331250Y75568D01*
Y43932D01*
X329068Y41750D01*
X328220D01*
Y46959D01*
X328522Y47451D01*
X328793Y48105D01*
X328958Y48794D01*
X329000Y49500D01*
X328958Y50206D01*
X328793Y50895D01*
X328522Y51549D01*
X328220Y52041D01*
Y56959D01*
X328522Y57451D01*
X328793Y58105D01*
X328958Y58794D01*
X329000Y59500D01*
X328958Y60206D01*
X328793Y60895D01*
X328522Y61549D01*
X328220Y62041D01*
Y67044D01*
X328271Y67083D01*
X328326Y67139D01*
X328370Y67204D01*
X328564Y67556D01*
X328721Y67926D01*
X328844Y68309D01*
X328933Y68700D01*
X328987Y69099D01*
X329004Y69500D01*
X328987Y69901D01*
X328933Y70300D01*
X328844Y70691D01*
X328721Y71074D01*
X328564Y71444D01*
X328374Y71798D01*
X328329Y71863D01*
X328274Y71920D01*
X328220Y71960D01*
Y76959D01*
G37*
G36*
Y52041D02*X328152Y52153D01*
X327692Y52692D01*
X327153Y53152D01*
X326549Y53522D01*
X325895Y53793D01*
X325206Y53958D01*
X324500Y54014D01*
X324493Y54013D01*
Y54987D01*
X324500Y54986D01*
X325206Y55042D01*
X325895Y55207D01*
X326549Y55478D01*
X327153Y55848D01*
X327692Y56308D01*
X328152Y56847D01*
X328220Y56959D01*
Y52041D01*
G37*
G36*
Y41750D02*X324493D01*
Y44987D01*
X324500Y44986D01*
X325206Y45042D01*
X325895Y45207D01*
X326549Y45478D01*
X327153Y45848D01*
X327692Y46308D01*
X328152Y46847D01*
X328220Y46959D01*
Y41750D01*
G37*
G36*
X324493Y74987D02*X324500Y74986D01*
X325206Y75042D01*
X325895Y75207D01*
X326549Y75478D01*
X327153Y75848D01*
X327692Y76308D01*
X328152Y76847D01*
X328220Y76959D01*
Y71960D01*
X328210Y71968D01*
X328140Y72004D01*
X328065Y72030D01*
X327987Y72044D01*
X327908Y72045D01*
X327829Y72033D01*
X327754Y72010D01*
X327683Y71975D01*
X327618Y71929D01*
X327561Y71874D01*
X327513Y71811D01*
X327476Y71741D01*
X327451Y71666D01*
X327437Y71588D01*
X327436Y71508D01*
X327448Y71430D01*
X327471Y71354D01*
X327507Y71284D01*
X327657Y71010D01*
X327779Y70723D01*
X327875Y70426D01*
X327944Y70121D01*
X327986Y69812D01*
X328000Y69500D01*
X327986Y69188D01*
X327944Y68879D01*
X327875Y68574D01*
X327779Y68277D01*
X327657Y67990D01*
X327510Y67714D01*
X327474Y67645D01*
X327451Y67569D01*
X327440Y67491D01*
X327441Y67413D01*
X327454Y67335D01*
X327480Y67261D01*
X327516Y67191D01*
X327564Y67128D01*
X327620Y67073D01*
X327684Y67028D01*
X327755Y66993D01*
X327830Y66970D01*
X327908Y66959D01*
X327987Y66960D01*
X328064Y66973D01*
X328139Y66999D01*
X328208Y67035D01*
X328220Y67044D01*
Y62041D01*
X328152Y62153D01*
X327692Y62692D01*
X327153Y63152D01*
X326549Y63522D01*
X325895Y63793D01*
X325206Y63958D01*
X324500Y64014D01*
X324493Y64013D01*
Y64996D01*
X324500Y64996D01*
X324901Y65013D01*
X325300Y65067D01*
X325691Y65156D01*
X326074Y65279D01*
X326444Y65436D01*
X326798Y65626D01*
X326863Y65671D01*
X326920Y65726D01*
X326968Y65790D01*
X327004Y65860D01*
X327030Y65935D01*
X327044Y66013D01*
X327045Y66092D01*
X327033Y66171D01*
X327010Y66246D01*
X326975Y66317D01*
X326929Y66382D01*
X326874Y66439D01*
X326811Y66487D01*
X326741Y66524D01*
X326666Y66549D01*
X326588Y66563D01*
X326508Y66564D01*
X326430Y66552D01*
X326354Y66529D01*
X326284Y66493D01*
X326010Y66343D01*
X325723Y66221D01*
X325426Y66125D01*
X325121Y66056D01*
X324812Y66014D01*
X324500Y66000D01*
X324493Y66000D01*
Y73000D01*
X324500Y73000D01*
X324812Y72986D01*
X325121Y72944D01*
X325426Y72875D01*
X325723Y72779D01*
X326010Y72657D01*
X326286Y72510D01*
X326355Y72474D01*
X326431Y72451D01*
X326509Y72440D01*
X326587Y72441D01*
X326665Y72454D01*
X326739Y72480D01*
X326809Y72516D01*
X326872Y72564D01*
X326927Y72620D01*
X326972Y72684D01*
X327007Y72755D01*
X327030Y72830D01*
X327041Y72908D01*
X327040Y72987D01*
X327027Y73064D01*
X327001Y73139D01*
X326965Y73208D01*
X326917Y73271D01*
X326861Y73326D01*
X326796Y73370D01*
X326444Y73564D01*
X326074Y73721D01*
X325691Y73844D01*
X325300Y73933D01*
X324901Y73987D01*
X324500Y74004D01*
X324493Y74004D01*
Y74987D01*
G37*
G36*
Y84500D02*X327879D01*
X330632Y81747D01*
X330500Y81757D01*
X330412Y81750D01*
X328399D01*
X328152Y82153D01*
X327692Y82692D01*
X327153Y83152D01*
X326549Y83522D01*
X325895Y83793D01*
X325206Y83958D01*
X324500Y84014D01*
X324493Y84013D01*
Y84500D01*
G37*
G36*
X349487Y119000D02*X387000D01*
Y24171D01*
X385728Y26247D01*
X384124Y28124D01*
X382247Y29728D01*
X380142Y31018D01*
X377862Y31962D01*
X375461Y32539D01*
X373000Y32732D01*
X370539Y32539D01*
X368138Y31962D01*
X365858Y31018D01*
X363753Y29728D01*
X361876Y28124D01*
X360272Y26247D01*
X358982Y24142D01*
X358038Y21862D01*
X357461Y19461D01*
X357268Y17000D01*
X357461Y14539D01*
X358038Y12138D01*
X358982Y9858D01*
X360272Y7753D01*
X361876Y5876D01*
X363753Y4272D01*
X365829Y3000D01*
X349487D01*
Y36276D01*
X349500Y36275D01*
X350787Y36376D01*
X352042Y36677D01*
X353234Y37171D01*
X354335Y37846D01*
X355316Y38684D01*
X356154Y39665D01*
X356829Y40766D01*
X357323Y41958D01*
X357624Y43213D01*
X357700Y44500D01*
X357624Y45787D01*
X357323Y47042D01*
X356829Y48234D01*
X356154Y49335D01*
X355316Y50316D01*
X354335Y51154D01*
X353234Y51829D01*
X352042Y52323D01*
X350787Y52624D01*
X349500Y52725D01*
X349487Y52724D01*
Y81276D01*
X349500Y81275D01*
X350787Y81376D01*
X352042Y81677D01*
X353234Y82171D01*
X354335Y82846D01*
X355316Y83684D01*
X356154Y84665D01*
X356829Y85766D01*
X357323Y86958D01*
X357624Y88213D01*
X357700Y89500D01*
X357624Y90787D01*
X357323Y92042D01*
X356829Y93234D01*
X356154Y94335D01*
X355316Y95316D01*
X354335Y96154D01*
X353234Y96829D01*
X352042Y97323D01*
X350787Y97624D01*
X349500Y97725D01*
X349487Y97724D01*
Y119000D01*
G37*
G36*
X324493D02*X349487D01*
Y97724D01*
X348213Y97624D01*
X346958Y97323D01*
X345766Y96829D01*
X344665Y96154D01*
X343684Y95316D01*
X342846Y94335D01*
X342171Y93234D01*
X341677Y92042D01*
X341376Y90787D01*
X341275Y89500D01*
X341376Y88213D01*
X341677Y86958D01*
X342171Y85766D01*
X342846Y84665D01*
X343684Y83684D01*
X344665Y82846D01*
X345766Y82171D01*
X346958Y81677D01*
X348213Y81376D01*
X349487Y81276D01*
Y52724D01*
X348213Y52624D01*
X346958Y52323D01*
X345766Y51829D01*
X344665Y51154D01*
X343684Y50316D01*
X342846Y49335D01*
X342171Y48234D01*
X341677Y47042D01*
X341376Y45787D01*
X341275Y44500D01*
X341376Y43213D01*
X341677Y41958D01*
X342171Y40766D01*
X342846Y39665D01*
X343684Y38684D01*
X344665Y37846D01*
X345766Y37171D01*
X346958Y36677D01*
X348213Y36376D01*
X349487Y36276D01*
Y3000D01*
X324493D01*
Y35250D01*
X331691D01*
X331750Y35245D01*
X331985Y35264D01*
X331985Y35264D01*
X332215Y35319D01*
X332433Y35409D01*
X332634Y35533D01*
X332814Y35686D01*
X332852Y35731D01*
X337519Y40398D01*
X337564Y40436D01*
X337717Y40615D01*
X337717Y40616D01*
X337841Y40817D01*
X337931Y41035D01*
X337986Y41265D01*
X338005Y41500D01*
X338000Y41559D01*
Y77941D01*
X338005Y78000D01*
X337986Y78235D01*
X337986Y78235D01*
X337931Y78465D01*
X337841Y78683D01*
X337717Y78884D01*
X337564Y79064D01*
X337519Y79102D01*
X329602Y87019D01*
X329564Y87064D01*
X329384Y87217D01*
X329183Y87341D01*
X328965Y87431D01*
X328735Y87486D01*
X328500Y87505D01*
X328441Y87500D01*
X324493D01*
Y119000D01*
G37*
G36*
Y3000D02*X294990D01*
Y15481D01*
X295000Y15480D01*
X296020Y15560D01*
X297015Y15799D01*
X297960Y16191D01*
X298832Y16725D01*
X299610Y17390D01*
X300275Y18168D01*
X300809Y19040D01*
X301201Y19985D01*
X301440Y20980D01*
X301500Y22000D01*
X301440Y23020D01*
X301201Y24015D01*
X300809Y24960D01*
X300275Y25832D01*
X299610Y26610D01*
X298832Y27275D01*
X297960Y27809D01*
X297015Y28201D01*
X296020Y28440D01*
X295000Y28520D01*
X294990Y28519D01*
Y46389D01*
X305648Y35731D01*
X305686Y35686D01*
X305866Y35533D01*
X306067Y35409D01*
X306285Y35319D01*
X306515Y35264D01*
X306750Y35245D01*
X306809Y35250D01*
X324493D01*
Y3000D01*
G37*
G36*
X294990D02*X275000D01*
Y15810D01*
X279345Y15820D01*
X279682Y15901D01*
X280002Y16034D01*
X280297Y16215D01*
X280560Y16440D01*
X280785Y16703D01*
X280966Y16998D01*
X281099Y17318D01*
X281180Y17655D01*
X281200Y18000D01*
X281180Y26345D01*
X281099Y26682D01*
X280966Y27002D01*
X280785Y27297D01*
X280560Y27560D01*
X280297Y27785D01*
X280002Y27966D01*
X279682Y28099D01*
X279345Y28180D01*
X279000Y28200D01*
X275000Y28190D01*
Y47000D01*
X294379D01*
X294990Y46389D01*
Y28519D01*
X293980Y28440D01*
X292985Y28201D01*
X292040Y27809D01*
X291168Y27275D01*
X290390Y26610D01*
X289725Y25832D01*
X289191Y24960D01*
X288799Y24015D01*
X288560Y23020D01*
X288480Y22000D01*
X288560Y20980D01*
X288799Y19985D01*
X289191Y19040D01*
X289725Y18168D01*
X290390Y17390D01*
X291168Y16725D01*
X292040Y16191D01*
X292985Y15799D01*
X293980Y15560D01*
X294990Y15481D01*
Y3000D01*
G37*
G36*
X275000D02*X250245D01*
Y47000D01*
X275000D01*
Y28190D01*
X270655Y28180D01*
X270318Y28099D01*
X269998Y27966D01*
X269703Y27785D01*
X269440Y27560D01*
X269215Y27297D01*
X269034Y27002D01*
X268901Y26682D01*
X268820Y26345D01*
X268800Y26000D01*
X268820Y17655D01*
X268901Y17318D01*
X269034Y16998D01*
X269215Y16703D01*
X269440Y16440D01*
X269703Y16215D01*
X269998Y16034D01*
X270318Y15901D01*
X270655Y15820D01*
X271000Y15800D01*
X275000Y15810D01*
Y3000D01*
G37*
G36*
X320780Y46959D02*X320848Y46847D01*
X321308Y46308D01*
X321847Y45848D01*
X322451Y45478D01*
X323105Y45207D01*
X323794Y45042D01*
X324493Y44987D01*
Y41750D01*
X320780D01*
Y46959D01*
G37*
G36*
Y56959D02*X320848Y56847D01*
X321308Y56308D01*
X321847Y55848D01*
X322451Y55478D01*
X323105Y55207D01*
X323794Y55042D01*
X324493Y54987D01*
Y54013D01*
X323794Y53958D01*
X323105Y53793D01*
X322451Y53522D01*
X321847Y53152D01*
X321308Y52692D01*
X320848Y52153D01*
X320780Y52041D01*
Y56959D01*
G37*
G36*
Y76959D02*X320848Y76847D01*
X321308Y76308D01*
X321847Y75848D01*
X322451Y75478D01*
X323105Y75207D01*
X323794Y75042D01*
X324493Y74987D01*
Y74004D01*
X324099Y73987D01*
X323700Y73933D01*
X323309Y73844D01*
X322926Y73721D01*
X322556Y73564D01*
X322202Y73374D01*
X322137Y73329D01*
X322080Y73274D01*
X322032Y73210D01*
X321996Y73140D01*
X321970Y73065D01*
X321956Y72987D01*
X321955Y72908D01*
X321967Y72829D01*
X321990Y72754D01*
X322025Y72683D01*
X322071Y72618D01*
X322126Y72561D01*
X322189Y72513D01*
X322259Y72476D01*
X322334Y72451D01*
X322412Y72437D01*
X322492Y72436D01*
X322570Y72448D01*
X322646Y72471D01*
X322716Y72507D01*
X322990Y72657D01*
X323277Y72779D01*
X323574Y72875D01*
X323879Y72944D01*
X324188Y72986D01*
X324493Y73000D01*
Y66000D01*
X324188Y66014D01*
X323879Y66056D01*
X323574Y66125D01*
X323277Y66221D01*
X322990Y66343D01*
X322714Y66490D01*
X322645Y66526D01*
X322569Y66549D01*
X322491Y66560D01*
X322413Y66559D01*
X322335Y66546D01*
X322261Y66520D01*
X322191Y66484D01*
X322128Y66436D01*
X322073Y66380D01*
X322028Y66316D01*
X321993Y66245D01*
X321970Y66170D01*
X321959Y66092D01*
X321960Y66013D01*
X321973Y65936D01*
X321999Y65861D01*
X322035Y65792D01*
X322083Y65729D01*
X322139Y65674D01*
X322204Y65630D01*
X322556Y65436D01*
X322926Y65279D01*
X323309Y65156D01*
X323700Y65067D01*
X324099Y65013D01*
X324493Y64996D01*
Y64013D01*
X323794Y63958D01*
X323105Y63793D01*
X322451Y63522D01*
X321847Y63152D01*
X321308Y62692D01*
X320848Y62153D01*
X320780Y62041D01*
Y67040D01*
X320790Y67032D01*
X320860Y66996D01*
X320935Y66970D01*
X321013Y66956D01*
X321092Y66955D01*
X321171Y66967D01*
X321246Y66990D01*
X321317Y67025D01*
X321382Y67071D01*
X321439Y67126D01*
X321487Y67189D01*
X321524Y67259D01*
X321549Y67334D01*
X321563Y67412D01*
X321564Y67492D01*
X321552Y67570D01*
X321529Y67646D01*
X321493Y67716D01*
X321343Y67990D01*
X321221Y68277D01*
X321125Y68574D01*
X321056Y68879D01*
X321014Y69188D01*
X321000Y69500D01*
X321014Y69812D01*
X321056Y70121D01*
X321125Y70426D01*
X321221Y70723D01*
X321343Y71010D01*
X321490Y71286D01*
X321526Y71355D01*
X321549Y71431D01*
X321560Y71509D01*
X321559Y71587D01*
X321546Y71665D01*
X321520Y71739D01*
X321484Y71809D01*
X321436Y71872D01*
X321380Y71927D01*
X321316Y71972D01*
X321245Y72007D01*
X321170Y72030D01*
X321092Y72041D01*
X321013Y72040D01*
X320936Y72027D01*
X320861Y72001D01*
X320792Y71965D01*
X320780Y71956D01*
Y76959D01*
G37*
G36*
Y83025D02*X320965Y83069D01*
X321183Y83159D01*
X321384Y83283D01*
X321564Y83436D01*
X321602Y83481D01*
X322621Y84500D01*
X324493D01*
Y84013D01*
X323794Y83958D01*
X323105Y83793D01*
X322451Y83522D01*
X321847Y83152D01*
X321308Y82692D01*
X320848Y82153D01*
X320780Y82041D01*
Y83025D01*
G37*
G36*
X314493Y79987D02*X314500Y79986D01*
X315206Y80042D01*
X315895Y80207D01*
X316549Y80478D01*
X317153Y80848D01*
X317692Y81308D01*
X318152Y81847D01*
X318522Y82451D01*
X318749Y83000D01*
X320441D01*
X320500Y82995D01*
X320735Y83014D01*
X320735Y83014D01*
X320780Y83025D01*
Y82041D01*
X320478Y81549D01*
X320207Y80895D01*
X320042Y80206D01*
X319986Y79500D01*
X320042Y78794D01*
X320207Y78105D01*
X320478Y77451D01*
X320780Y76959D01*
Y71956D01*
X320729Y71917D01*
X320674Y71861D01*
X320630Y71796D01*
X320436Y71444D01*
X320279Y71074D01*
X320156Y70691D01*
X320067Y70300D01*
X320013Y69901D01*
X319996Y69500D01*
X320013Y69099D01*
X320067Y68700D01*
X320156Y68309D01*
X320279Y67926D01*
X320436Y67556D01*
X320626Y67202D01*
X320671Y67137D01*
X320726Y67080D01*
X320780Y67040D01*
Y62041D01*
X320478Y61549D01*
X320207Y60895D01*
X320042Y60206D01*
X319986Y59500D01*
X320042Y58794D01*
X320207Y58105D01*
X320478Y57451D01*
X320780Y56959D01*
Y52041D01*
X320478Y51549D01*
X320207Y50895D01*
X320042Y50206D01*
X319986Y49500D01*
X320042Y48794D01*
X320207Y48105D01*
X320478Y47451D01*
X320780Y46959D01*
Y41750D01*
X317432D01*
X314493Y44689D01*
Y49987D01*
X314500Y49986D01*
X315206Y50042D01*
X315895Y50207D01*
X316549Y50478D01*
X317153Y50848D01*
X317692Y51308D01*
X318152Y51847D01*
X318522Y52451D01*
X318793Y53105D01*
X318958Y53794D01*
X319000Y54500D01*
X318958Y55206D01*
X318793Y55895D01*
X318522Y56549D01*
X318152Y57153D01*
X317692Y57692D01*
X317153Y58152D01*
X316549Y58522D01*
X315895Y58793D01*
X315206Y58958D01*
X314500Y59014D01*
X314493Y59013D01*
Y59987D01*
X314500Y59986D01*
X315206Y60042D01*
X315895Y60207D01*
X316549Y60478D01*
X317153Y60848D01*
X317692Y61308D01*
X318152Y61847D01*
X318522Y62451D01*
X318793Y63105D01*
X318958Y63794D01*
X319000Y64500D01*
X318958Y65206D01*
X318793Y65895D01*
X318522Y66549D01*
X318152Y67153D01*
X317692Y67692D01*
X317153Y68152D01*
X316549Y68522D01*
X315895Y68793D01*
X315206Y68958D01*
X314500Y69014D01*
X314493Y69013D01*
Y69987D01*
X314500Y69986D01*
X315206Y70042D01*
X315895Y70207D01*
X316549Y70478D01*
X317153Y70848D01*
X317692Y71308D01*
X318152Y71847D01*
X318522Y72451D01*
X318793Y73105D01*
X318958Y73794D01*
X319000Y74500D01*
X318958Y75206D01*
X318793Y75895D01*
X318522Y76549D01*
X318152Y77153D01*
X317692Y77692D01*
X317153Y78152D01*
X316549Y78522D01*
X315895Y78793D01*
X315206Y78958D01*
X314500Y79014D01*
X314493Y79013D01*
Y79987D01*
G37*
G36*
Y119000D02*X324493D01*
Y87500D01*
X322059D01*
X322000Y87505D01*
X321765Y87486D01*
X321535Y87431D01*
X321317Y87341D01*
X321116Y87217D01*
X321115Y87217D01*
X320936Y87064D01*
X320898Y87019D01*
X319879Y86000D01*
X318749D01*
X318522Y86549D01*
X318152Y87153D01*
X317692Y87692D01*
X317153Y88152D01*
X316549Y88522D01*
X315895Y88793D01*
X315206Y88958D01*
X314500Y89014D01*
X314493Y89013D01*
Y119000D01*
G37*
G36*
Y69013D02*X313794Y68958D01*
X313105Y68793D01*
X312451Y68522D01*
X311847Y68152D01*
X311308Y67692D01*
X310848Y67153D01*
X310601Y66750D01*
X307900D01*
X307707Y66868D01*
X307321Y67028D01*
X306916Y67125D01*
X306500Y67158D01*
X306084Y67125D01*
X305679Y67028D01*
X305293Y66868D01*
X305201Y66812D01*
X310616Y72226D01*
X310848Y71847D01*
X311308Y71308D01*
X311847Y70848D01*
X312451Y70478D01*
X313105Y70207D01*
X313794Y70042D01*
X314493Y69987D01*
Y69013D01*
G37*
G36*
Y44689D02*X304216Y54966D01*
X304123Y55352D01*
X303958Y55752D01*
X303732Y56121D01*
X303451Y56451D01*
X303121Y56732D01*
X302752Y56958D01*
X302520Y57054D01*
X302707Y57132D01*
X303062Y57349D01*
X303374Y57626D01*
X307998Y62250D01*
X310601D01*
X310848Y61847D01*
X311308Y61308D01*
X311847Y60848D01*
X312451Y60478D01*
X313105Y60207D01*
X313794Y60042D01*
X314493Y59987D01*
Y59013D01*
X313794Y58958D01*
X313105Y58793D01*
X312451Y58522D01*
X311847Y58152D01*
X311308Y57692D01*
X310848Y57153D01*
X310478Y56549D01*
X310207Y55895D01*
X310042Y55206D01*
X309986Y54500D01*
X310042Y53794D01*
X310207Y53105D01*
X310478Y52451D01*
X310848Y51847D01*
X311308Y51308D01*
X311847Y50848D01*
X312451Y50478D01*
X313105Y50207D01*
X313794Y50042D01*
X314493Y49987D01*
Y44689D01*
G37*
G36*
X250245Y118000D02*X272882D01*
X273000Y117991D01*
X273471Y118028D01*
X273471Y118028D01*
X273930Y118138D01*
X274366Y118319D01*
X274769Y118565D01*
X275128Y118872D01*
X275204Y118962D01*
X275243Y119000D01*
X314493D01*
Y89013D01*
X313794Y88958D01*
X313105Y88793D01*
X312451Y88522D01*
X311847Y88152D01*
X311308Y87692D01*
X310848Y87153D01*
X310478Y86549D01*
X310207Y85895D01*
X310042Y85206D01*
X309986Y84500D01*
X310042Y83794D01*
X310207Y83105D01*
X310478Y82451D01*
X310848Y81847D01*
X311308Y81308D01*
X311847Y80848D01*
X312451Y80478D01*
X313105Y80207D01*
X313794Y80042D01*
X314493Y79987D01*
Y79013D01*
X313794Y78958D01*
X313105Y78793D01*
X312451Y78522D01*
X311847Y78152D01*
X311308Y77692D01*
X310848Y77153D01*
X310601Y76750D01*
X310591D01*
X310252Y76958D01*
X309852Y77123D01*
X309432Y77225D01*
X309000Y77258D01*
X308568Y77225D01*
X308148Y77123D01*
X307748Y76958D01*
X307379Y76732D01*
X307055Y76445D01*
X296611Y66000D01*
X295662D01*
X295769Y66065D01*
X296128Y66372D01*
X296435Y66731D01*
X296681Y67134D01*
X296862Y67570D01*
X296972Y68029D01*
X297000Y68500D01*
X296972Y68971D01*
X296862Y69430D01*
X296681Y69866D01*
X296585Y70023D01*
X297000Y69991D01*
X297471Y70028D01*
X297930Y70138D01*
X298366Y70319D01*
X298769Y70565D01*
X299128Y70872D01*
X299435Y71231D01*
X299681Y71634D01*
X299862Y72070D01*
X299972Y72529D01*
X300000Y73000D01*
X299972Y73471D01*
X299862Y73930D01*
X299681Y74366D01*
X299435Y74769D01*
X299128Y75128D01*
X298769Y75435D01*
X298366Y75681D01*
X297930Y75862D01*
X297471Y75972D01*
X297000Y76009D01*
X296529Y75972D01*
X296070Y75862D01*
X295634Y75681D01*
X295231Y75435D01*
X295015Y75250D01*
X292985D01*
X292769Y75435D01*
X292366Y75681D01*
X291930Y75862D01*
X291471Y75972D01*
X291000Y76009D01*
X290529Y75972D01*
X290070Y75862D01*
X289634Y75681D01*
X289231Y75435D01*
X289015Y75250D01*
X250245D01*
Y90511D01*
X250500Y90491D01*
X250971Y90528D01*
X251430Y90638D01*
X251866Y90819D01*
X252269Y91065D01*
X252628Y91372D01*
X252935Y91731D01*
X253181Y92134D01*
X253362Y92570D01*
X253472Y93029D01*
X253500Y93500D01*
X253472Y93971D01*
X253362Y94430D01*
X253181Y94866D01*
X252935Y95269D01*
X252628Y95628D01*
X252269Y95935D01*
X251866Y96181D01*
X251430Y96362D01*
X250971Y96472D01*
X250500Y96509D01*
X250245Y96489D01*
Y99289D01*
X250362Y99570D01*
X250472Y100029D01*
X250500Y100500D01*
X250472Y100971D01*
X250362Y101430D01*
X250245Y101711D01*
Y104289D01*
X250362Y104570D01*
X250472Y105029D01*
X250500Y105500D01*
X250472Y105971D01*
X250362Y106430D01*
X250245Y106711D01*
Y109500D01*
X253879D01*
X254500Y108879D01*
Y92059D01*
X254495Y92000D01*
X254514Y91765D01*
X254569Y91535D01*
X254659Y91317D01*
X254783Y91116D01*
X254936Y90936D01*
X254981Y90898D01*
X256898Y88981D01*
X256936Y88936D01*
X257115Y88783D01*
X257116Y88783D01*
X257317Y88659D01*
X257535Y88569D01*
X257765Y88514D01*
X258000Y88495D01*
X258059Y88500D01*
X266379D01*
X266500Y88379D01*
Y81059D01*
X266495Y81000D01*
X266514Y80765D01*
X266569Y80535D01*
X266659Y80317D01*
X266783Y80116D01*
X266783Y80115D01*
X266936Y79936D01*
X266981Y79898D01*
X267898Y78981D01*
X267936Y78936D01*
X268115Y78783D01*
X268116Y78783D01*
X268317Y78659D01*
X268535Y78569D01*
X268765Y78514D01*
X269000Y78495D01*
X269059Y78500D01*
X282401D01*
X282565Y78231D01*
X282872Y77872D01*
X283231Y77565D01*
X283634Y77319D01*
X284070Y77138D01*
X284529Y77028D01*
X285000Y76991D01*
X285471Y77028D01*
X285930Y77138D01*
X286366Y77319D01*
X286769Y77565D01*
X287128Y77872D01*
X287435Y78231D01*
X287681Y78634D01*
X287862Y79070D01*
X287972Y79529D01*
X288000Y80000D01*
X287972Y80471D01*
X287862Y80930D01*
X287681Y81366D01*
X287435Y81769D01*
X287128Y82128D01*
X286769Y82435D01*
X286366Y82681D01*
X285930Y82862D01*
X285471Y82972D01*
X285000Y83009D01*
X284529Y82972D01*
X284070Y82862D01*
X283634Y82681D01*
X283231Y82435D01*
X282872Y82128D01*
X282565Y81769D01*
X282401Y81500D01*
X269621D01*
X269500Y81621D01*
Y88941D01*
X269505Y89000D01*
X269486Y89235D01*
X269431Y89465D01*
X269341Y89683D01*
X269217Y89884D01*
X269064Y90064D01*
X269019Y90102D01*
X268102Y91019D01*
X268064Y91064D01*
X267884Y91217D01*
X267683Y91341D01*
X267465Y91431D01*
X267235Y91486D01*
X267000Y91505D01*
X266941Y91500D01*
X258621D01*
X257500Y92621D01*
Y109441D01*
X257505Y109500D01*
X257486Y109735D01*
X257486Y109735D01*
X257431Y109965D01*
X257341Y110183D01*
X257217Y110384D01*
X257064Y110564D01*
X257019Y110602D01*
X255602Y112019D01*
X255564Y112064D01*
X255384Y112217D01*
X255183Y112341D01*
X254965Y112431D01*
X254735Y112486D01*
X254735Y112486D01*
X254500Y112505D01*
X254441Y112500D01*
X250245D01*
Y118000D01*
G37*
G36*
Y106711D02*X250181Y106866D01*
X249935Y107269D01*
X249628Y107628D01*
X249269Y107935D01*
X248866Y108181D01*
X248700Y108250D01*
X248866Y108319D01*
X249269Y108565D01*
X249628Y108872D01*
X249935Y109231D01*
X250099Y109500D01*
X250245D01*
Y106711D01*
G37*
G36*
Y101711D02*X250181Y101866D01*
X249935Y102269D01*
X249628Y102628D01*
X249269Y102935D01*
X249162Y103000D01*
X249269Y103065D01*
X249628Y103372D01*
X249935Y103731D01*
X250181Y104134D01*
X250245Y104289D01*
Y101711D01*
G37*
G36*
Y96489D02*X250029Y96472D01*
X249570Y96362D01*
X249134Y96181D01*
X249000Y96099D01*
Y97901D01*
X249269Y98065D01*
X249628Y98372D01*
X249935Y98731D01*
X250181Y99134D01*
X250245Y99289D01*
Y96489D01*
G37*
G36*
X135495Y96346D02*X135565Y96231D01*
X135872Y95872D01*
X136231Y95565D01*
X136634Y95319D01*
X137070Y95138D01*
X137529Y95028D01*
X137882Y95000D01*
X136621D01*
X135495Y96126D01*
Y96346D01*
G37*
G36*
Y119000D02*X190257D01*
X189462Y118204D01*
X189372Y118128D01*
X189065Y117769D01*
X188819Y117366D01*
X188638Y116930D01*
X188528Y116471D01*
X188528Y116471D01*
X188491Y116000D01*
X188500Y115882D01*
Y86500D01*
X135495D01*
Y90000D01*
X150941D01*
X151000Y89995D01*
X151235Y90014D01*
X151235Y90014D01*
X151465Y90069D01*
X151683Y90159D01*
X151884Y90283D01*
X152064Y90436D01*
X152102Y90481D01*
X152223Y90601D01*
X152529Y90528D01*
X153000Y90491D01*
X153471Y90528D01*
X153930Y90638D01*
X154366Y90819D01*
X154769Y91065D01*
X155128Y91372D01*
X155435Y91731D01*
X155681Y92134D01*
X155862Y92570D01*
X155972Y93029D01*
X156000Y93500D01*
X155972Y93971D01*
X155862Y94430D01*
X155681Y94866D01*
X155435Y95269D01*
X155128Y95628D01*
X154769Y95935D01*
X154366Y96181D01*
X153930Y96362D01*
X153471Y96472D01*
X153000Y96509D01*
X152529Y96472D01*
X152070Y96362D01*
X151634Y96181D01*
X151500Y96099D01*
Y97901D01*
X151769Y98065D01*
X152128Y98372D01*
X152435Y98731D01*
X152681Y99134D01*
X152862Y99570D01*
X152972Y100029D01*
X153000Y100500D01*
X152972Y100971D01*
X152862Y101430D01*
X152681Y101866D01*
X152435Y102269D01*
X152128Y102628D01*
X151769Y102935D01*
X151662Y103000D01*
X151769Y103065D01*
X152128Y103372D01*
X152435Y103731D01*
X152681Y104134D01*
X152862Y104570D01*
X152972Y105029D01*
X153000Y105500D01*
X152972Y105971D01*
X152862Y106430D01*
X152681Y106866D01*
X152435Y107269D01*
X152128Y107628D01*
X151769Y107935D01*
X151366Y108181D01*
X150930Y108362D01*
X150471Y108472D01*
X150000Y108509D01*
X149529Y108472D01*
X149070Y108362D01*
X148634Y108181D01*
X148231Y107935D01*
X147872Y107628D01*
X147565Y107269D01*
X147401Y107000D01*
X140059D01*
X140000Y107005D01*
X139765Y106986D01*
X139535Y106931D01*
X139317Y106841D01*
X139116Y106717D01*
X139115Y106717D01*
X138936Y106564D01*
X138898Y106519D01*
X136981Y104602D01*
X136936Y104564D01*
X136783Y104384D01*
X136659Y104183D01*
X136569Y103965D01*
X136514Y103735D01*
X136514Y103735D01*
X136495Y103500D01*
X136500Y103441D01*
Y100599D01*
X136231Y100435D01*
X135872Y100128D01*
X135565Y99769D01*
X135495Y99654D01*
Y119000D01*
G37*
G36*
Y52250D02*X223169D01*
X223116Y52217D01*
X223115Y52217D01*
X222936Y52064D01*
X222898Y52019D01*
X222777Y51899D01*
X222471Y51972D01*
X222000Y52009D01*
X221529Y51972D01*
X221070Y51862D01*
X220634Y51681D01*
X220231Y51435D01*
X219872Y51128D01*
X219565Y50769D01*
X219319Y50366D01*
X219138Y49930D01*
X219028Y49471D01*
X218991Y49000D01*
X219028Y48529D01*
X219138Y48070D01*
X219319Y47634D01*
X219565Y47231D01*
X219872Y46872D01*
X220231Y46565D01*
X220634Y46319D01*
X221070Y46138D01*
X221529Y46028D01*
X222000Y45991D01*
X222471Y46028D01*
X222930Y46138D01*
X223366Y46319D01*
X223769Y46565D01*
X224128Y46872D01*
X224435Y47231D01*
X224681Y47634D01*
X224862Y48070D01*
X224972Y48529D01*
X225000Y49000D01*
X224972Y49471D01*
X224965Y49500D01*
X227882D01*
X227529Y49472D01*
X227070Y49362D01*
X226634Y49181D01*
X226231Y48935D01*
X225872Y48628D01*
X225565Y48269D01*
X225319Y47866D01*
X225138Y47430D01*
X225028Y46971D01*
X224991Y46500D01*
X225028Y46029D01*
X225138Y45570D01*
X225319Y45134D01*
X225565Y44731D01*
X225872Y44372D01*
X226231Y44065D01*
X226634Y43819D01*
X227070Y43638D01*
X227529Y43528D01*
X228000Y43491D01*
X228471Y43528D01*
X228930Y43638D01*
X229366Y43819D01*
X229769Y44065D01*
X230128Y44372D01*
X230435Y44731D01*
X230681Y45134D01*
X230862Y45570D01*
X230972Y46029D01*
X231000Y46500D01*
X230972Y46971D01*
X230965Y47000D01*
X250245D01*
Y3000D01*
X135495D01*
Y16523D01*
X136000Y16483D01*
X136863Y16551D01*
X137705Y16753D01*
X138505Y17084D01*
X139243Y17537D01*
X139901Y18099D01*
X140463Y18757D01*
X140916Y19495D01*
X141247Y20295D01*
X141449Y21137D01*
X141500Y22000D01*
X141449Y22863D01*
X141247Y23705D01*
X140916Y24505D01*
X140463Y25243D01*
X139901Y25901D01*
X139243Y26463D01*
X138505Y26916D01*
X137705Y27247D01*
X136863Y27449D01*
X136000Y27517D01*
X135495Y27477D01*
Y52250D01*
G37*
G36*
Y57250D02*X197515D01*
X197731Y57065D01*
X198134Y56819D01*
X198300Y56750D01*
X135495D01*
Y57250D01*
G37*
G36*
Y80500D02*X191382D01*
X191500Y80491D01*
X191618Y80500D01*
X195882D01*
X196000Y80491D01*
X196471Y80528D01*
X196471Y80528D01*
X196930Y80638D01*
X197366Y80819D01*
X197769Y81065D01*
X198128Y81372D01*
X198204Y81462D01*
X200038Y83296D01*
X200128Y83372D01*
X200434Y83731D01*
X200435Y83731D01*
X200681Y84134D01*
X200862Y84570D01*
X200972Y85029D01*
X201009Y85500D01*
X201000Y85618D01*
Y89000D01*
X200972Y89471D01*
X200862Y89930D01*
X200681Y90366D01*
X200435Y90769D01*
X200128Y91128D01*
X199769Y91435D01*
X199366Y91681D01*
X198930Y91862D01*
X198471Y91972D01*
X198000Y92009D01*
X197529Y91972D01*
X197070Y91862D01*
X196634Y91681D01*
X196231Y91435D01*
X195872Y91128D01*
X195565Y90769D01*
X195319Y90366D01*
X195138Y89930D01*
X195028Y89471D01*
X195028Y89471D01*
X194991Y89000D01*
X195000Y88882D01*
Y86743D01*
X194757Y86500D01*
X194500D01*
Y114757D01*
X197743Y118000D01*
X250245D01*
Y112500D01*
X250099D01*
X249935Y112769D01*
X249628Y113128D01*
X249269Y113435D01*
X248866Y113681D01*
X248430Y113862D01*
X247971Y113972D01*
X247500Y114009D01*
X247029Y113972D01*
X246570Y113862D01*
X246134Y113681D01*
X245731Y113435D01*
X245372Y113128D01*
X245065Y112769D01*
X244819Y112366D01*
X244638Y111930D01*
X244528Y111471D01*
X244491Y111000D01*
X244528Y110529D01*
X244638Y110070D01*
X244819Y109634D01*
X245065Y109231D01*
X245372Y108872D01*
X245731Y108565D01*
X246134Y108319D01*
X246300Y108250D01*
X246134Y108181D01*
X245731Y107935D01*
X245372Y107628D01*
X245065Y107269D01*
X244901Y107000D01*
X237559D01*
X237500Y107005D01*
X237265Y106986D01*
X237035Y106931D01*
X236817Y106841D01*
X236616Y106717D01*
X236615Y106717D01*
X236436Y106564D01*
X236398Y106519D01*
X234481Y104602D01*
X234436Y104564D01*
X234283Y104384D01*
X234159Y104183D01*
X234069Y103965D01*
X234014Y103735D01*
X234014Y103735D01*
X233995Y103500D01*
X234000Y103441D01*
Y100599D01*
X233731Y100435D01*
X233372Y100128D01*
X233065Y99769D01*
X232819Y99366D01*
X232638Y98930D01*
X232528Y98471D01*
X232491Y98000D01*
X232528Y97529D01*
X232638Y97070D01*
X232819Y96634D01*
X233065Y96231D01*
X233372Y95872D01*
X233731Y95565D01*
X234134Y95319D01*
X234570Y95138D01*
X235029Y95028D01*
X235382Y95000D01*
X234121D01*
X232102Y97019D01*
X232064Y97064D01*
X231884Y97217D01*
X231683Y97341D01*
X231465Y97431D01*
X231235Y97486D01*
X231235Y97486D01*
X231000Y97505D01*
X230941Y97500D01*
X228099D01*
X227935Y97769D01*
X227628Y98128D01*
X227269Y98435D01*
X226866Y98681D01*
X226430Y98862D01*
X225971Y98972D01*
X225500Y99009D01*
X225029Y98972D01*
X224570Y98862D01*
X224134Y98681D01*
X223731Y98435D01*
X223372Y98128D01*
X223065Y97769D01*
X222819Y97366D01*
X222638Y96930D01*
X222528Y96471D01*
X222491Y96000D01*
X222528Y95529D01*
X222638Y95070D01*
X222699Y94922D01*
X220602Y97019D01*
X220564Y97064D01*
X220384Y97217D01*
X220183Y97341D01*
X219965Y97431D01*
X219735Y97486D01*
X219500Y97505D01*
X219441Y97500D01*
X218099D01*
X217935Y97769D01*
X217628Y98128D01*
X217269Y98435D01*
X216866Y98681D01*
X216430Y98862D01*
X215971Y98972D01*
X215500Y99009D01*
X215029Y98972D01*
X214570Y98862D01*
X214134Y98681D01*
X213731Y98435D01*
X213372Y98128D01*
X213065Y97769D01*
X212819Y97366D01*
X212638Y96930D01*
X212528Y96471D01*
X212491Y96000D01*
X212528Y95529D01*
X212638Y95070D01*
X212819Y94634D01*
X213065Y94231D01*
X213372Y93872D01*
X213731Y93565D01*
X214134Y93319D01*
X214570Y93138D01*
X215029Y93028D01*
X215500Y92991D01*
X215971Y93028D01*
X216430Y93138D01*
X216866Y93319D01*
X217269Y93565D01*
X217628Y93872D01*
X217935Y94231D01*
X218099Y94500D01*
X218879D01*
X222898Y90481D01*
X222936Y90436D01*
X223116Y90283D01*
X223317Y90159D01*
X223535Y90069D01*
X223765Y90014D01*
X224000Y89995D01*
X224059Y90000D01*
X248441D01*
X248500Y89995D01*
X248735Y90014D01*
X248735Y90014D01*
X248965Y90069D01*
X249183Y90159D01*
X249384Y90283D01*
X249564Y90436D01*
X249602Y90481D01*
X249723Y90601D01*
X250029Y90528D01*
X250245Y90511D01*
Y75250D01*
X197985D01*
X197769Y75435D01*
X197366Y75681D01*
X196930Y75862D01*
X196471Y75972D01*
X196000Y76009D01*
X195529Y75972D01*
X195070Y75862D01*
X194634Y75681D01*
X194231Y75435D01*
X194015Y75250D01*
X135495D01*
Y80500D01*
G37*
G36*
X120493Y52250D02*X135495D01*
Y27477D01*
X135137Y27449D01*
X134295Y27247D01*
X133495Y26916D01*
X132757Y26463D01*
X132099Y25901D01*
X131537Y25243D01*
X131084Y24505D01*
X130753Y23705D01*
X130551Y22863D01*
X130483Y22000D01*
X130551Y21137D01*
X130753Y20295D01*
X131084Y19495D01*
X131537Y18757D01*
X132099Y18099D01*
X132757Y17537D01*
X133495Y17084D01*
X134295Y16753D01*
X135137Y16551D01*
X135495Y16523D01*
Y3000D01*
X120493D01*
Y19145D01*
X120578Y19181D01*
X120679Y19243D01*
X120769Y19319D01*
X120845Y19409D01*
X120905Y19511D01*
X121122Y19980D01*
X121289Y20469D01*
X121409Y20972D01*
X121482Y21484D01*
X121506Y22000D01*
X121482Y22516D01*
X121409Y23028D01*
X121289Y23531D01*
X121122Y24020D01*
X120910Y24492D01*
X120849Y24593D01*
X120772Y24684D01*
X120682Y24761D01*
X120580Y24823D01*
X120493Y24860D01*
Y52250D01*
G37*
G36*
X116002D02*X120493D01*
Y24860D01*
X120471Y24869D01*
X120355Y24897D01*
X120237Y24906D01*
X120119Y24897D01*
X120003Y24870D01*
X119893Y24824D01*
X119792Y24762D01*
X119702Y24686D01*
X119624Y24595D01*
X119562Y24494D01*
X119516Y24385D01*
X119489Y24269D01*
X119479Y24151D01*
X119488Y24032D01*
X119516Y23917D01*
X119563Y23808D01*
X119721Y23468D01*
X119842Y23112D01*
X119930Y22747D01*
X119982Y22375D01*
X120000Y22000D01*
X119982Y21625D01*
X119930Y21253D01*
X119842Y20888D01*
X119721Y20532D01*
X119567Y20190D01*
X119520Y20082D01*
X119493Y19967D01*
X119483Y19849D01*
X119493Y19732D01*
X119521Y19617D01*
X119566Y19508D01*
X119628Y19407D01*
X119705Y19318D01*
X119795Y19241D01*
X119895Y19180D01*
X120004Y19135D01*
X120119Y19107D01*
X120237Y19098D01*
X120355Y19108D01*
X120469Y19135D01*
X120493Y19145D01*
Y3000D01*
X116002D01*
Y16494D01*
X116516Y16518D01*
X117028Y16591D01*
X117531Y16711D01*
X118020Y16878D01*
X118492Y17090D01*
X118593Y17151D01*
X118684Y17228D01*
X118761Y17318D01*
X118823Y17420D01*
X118869Y17529D01*
X118897Y17645D01*
X118906Y17763D01*
X118897Y17881D01*
X118870Y17997D01*
X118824Y18107D01*
X118762Y18208D01*
X118686Y18298D01*
X118595Y18376D01*
X118494Y18438D01*
X118385Y18484D01*
X118269Y18511D01*
X118151Y18521D01*
X118032Y18512D01*
X117917Y18484D01*
X117808Y18437D01*
X117468Y18279D01*
X117112Y18158D01*
X116747Y18070D01*
X116375Y18018D01*
X116002Y18000D01*
Y26000D01*
X116375Y25982D01*
X116747Y25930D01*
X117112Y25842D01*
X117468Y25721D01*
X117810Y25567D01*
X117918Y25520D01*
X118033Y25493D01*
X118151Y25483D01*
X118268Y25493D01*
X118383Y25521D01*
X118492Y25566D01*
X118593Y25628D01*
X118682Y25705D01*
X118759Y25795D01*
X118820Y25895D01*
X118865Y26004D01*
X118893Y26119D01*
X118902Y26237D01*
X118892Y26355D01*
X118865Y26469D01*
X118819Y26578D01*
X118757Y26679D01*
X118681Y26769D01*
X118591Y26845D01*
X118489Y26905D01*
X118020Y27122D01*
X117531Y27289D01*
X117028Y27409D01*
X116516Y27482D01*
X116002Y27506D01*
Y52250D01*
G37*
G36*
X111507D02*X116002D01*
Y27506D01*
X116000Y27506D01*
X115484Y27482D01*
X114972Y27409D01*
X114469Y27289D01*
X113980Y27122D01*
X113508Y26910D01*
X113407Y26849D01*
X113316Y26772D01*
X113239Y26682D01*
X113177Y26580D01*
X113131Y26471D01*
X113103Y26355D01*
X113094Y26237D01*
X113103Y26119D01*
X113130Y26003D01*
X113176Y25893D01*
X113238Y25792D01*
X113314Y25702D01*
X113405Y25624D01*
X113506Y25562D01*
X113615Y25516D01*
X113731Y25489D01*
X113849Y25479D01*
X113968Y25488D01*
X114083Y25516D01*
X114192Y25563D01*
X114532Y25721D01*
X114888Y25842D01*
X115253Y25930D01*
X115625Y25982D01*
X116000Y26000D01*
X116002Y26000D01*
Y18000D01*
X116000Y18000D01*
X115625Y18018D01*
X115253Y18070D01*
X114888Y18158D01*
X114532Y18279D01*
X114190Y18433D01*
X114082Y18480D01*
X113967Y18507D01*
X113849Y18517D01*
X113732Y18507D01*
X113617Y18479D01*
X113508Y18434D01*
X113407Y18372D01*
X113318Y18295D01*
X113241Y18205D01*
X113180Y18105D01*
X113135Y17996D01*
X113107Y17881D01*
X113098Y17763D01*
X113108Y17645D01*
X113135Y17531D01*
X113181Y17422D01*
X113243Y17321D01*
X113319Y17231D01*
X113409Y17155D01*
X113511Y17095D01*
X113980Y16878D01*
X114469Y16711D01*
X114972Y16591D01*
X115484Y16518D01*
X116000Y16494D01*
X116002Y16494D01*
Y3000D01*
X111507D01*
Y19140D01*
X111529Y19131D01*
X111645Y19103D01*
X111763Y19094D01*
X111881Y19103D01*
X111997Y19130D01*
X112107Y19176D01*
X112208Y19238D01*
X112298Y19314D01*
X112376Y19405D01*
X112438Y19506D01*
X112484Y19615D01*
X112511Y19731D01*
X112521Y19849D01*
X112512Y19968D01*
X112484Y20083D01*
X112437Y20192D01*
X112279Y20532D01*
X112158Y20888D01*
X112070Y21253D01*
X112018Y21625D01*
X112000Y22000D01*
X112018Y22375D01*
X112070Y22747D01*
X112158Y23112D01*
X112279Y23468D01*
X112433Y23810D01*
X112480Y23918D01*
X112507Y24033D01*
X112517Y24151D01*
X112507Y24268D01*
X112479Y24383D01*
X112434Y24492D01*
X112372Y24593D01*
X112295Y24682D01*
X112205Y24759D01*
X112105Y24820D01*
X111996Y24865D01*
X111881Y24893D01*
X111763Y24902D01*
X111645Y24892D01*
X111531Y24865D01*
X111507Y24855D01*
Y52250D01*
G37*
G36*
X96000D02*X111507D01*
Y24855D01*
X111422Y24819D01*
X111321Y24757D01*
X111231Y24681D01*
X111155Y24591D01*
X111095Y24489D01*
X110878Y24020D01*
X110711Y23531D01*
X110591Y23028D01*
X110518Y22516D01*
X110494Y22000D01*
X110518Y21484D01*
X110591Y20972D01*
X110711Y20469D01*
X110878Y19980D01*
X111090Y19508D01*
X111151Y19407D01*
X111228Y19316D01*
X111318Y19239D01*
X111420Y19177D01*
X111507Y19140D01*
Y3000D01*
X96000D01*
Y16507D01*
X100235Y16514D01*
X100465Y16569D01*
X100683Y16659D01*
X100884Y16783D01*
X101064Y16936D01*
X101217Y17116D01*
X101341Y17317D01*
X101431Y17535D01*
X101486Y17765D01*
X101500Y18000D01*
X101486Y26235D01*
X101431Y26465D01*
X101341Y26683D01*
X101217Y26884D01*
X101064Y27064D01*
X100884Y27217D01*
X100683Y27341D01*
X100465Y27431D01*
X100235Y27486D01*
X100000Y27500D01*
X96000Y27493D01*
Y52250D01*
G37*
G36*
X64493Y17507D02*X67735Y17514D01*
X67965Y17569D01*
X68183Y17659D01*
X68384Y17783D01*
X68564Y17936D01*
X68717Y18116D01*
X68841Y18317D01*
X68931Y18535D01*
X68986Y18765D01*
X69000Y19000D01*
X68986Y25235D01*
X68931Y25465D01*
X68841Y25683D01*
X68717Y25884D01*
X68564Y26064D01*
X68384Y26217D01*
X68183Y26341D01*
X67965Y26431D01*
X67735Y26486D01*
X67500Y26500D01*
X66750Y26498D01*
Y39250D01*
X76412D01*
X76500Y39243D01*
X76853Y39271D01*
X76853Y39271D01*
X77197Y39354D01*
X77525Y39489D01*
X77827Y39674D01*
X78096Y39904D01*
X78153Y39971D01*
X90432Y52250D01*
X96000D01*
Y27493D01*
X91765Y27486D01*
X91535Y27431D01*
X91317Y27341D01*
X91116Y27217D01*
X90936Y27064D01*
X90783Y26884D01*
X90659Y26683D01*
X90569Y26465D01*
X90514Y26235D01*
X90500Y26000D01*
X90514Y17765D01*
X90569Y17535D01*
X90659Y17317D01*
X90783Y17116D01*
X90936Y16936D01*
X91116Y16783D01*
X91317Y16659D01*
X91535Y16569D01*
X91765Y16514D01*
X92000Y16500D01*
X96000Y16507D01*
Y3000D01*
X64493D01*
Y17507D01*
G37*
G36*
X74493Y54987D02*X74500Y54986D01*
X75206Y55042D01*
X75895Y55207D01*
X76549Y55478D01*
X77153Y55848D01*
X77692Y56308D01*
X78152Y56847D01*
X78399Y57250D01*
X135495D01*
Y56750D01*
X89588D01*
X89500Y56757D01*
X89147Y56729D01*
X88803Y56646D01*
X88475Y56511D01*
X88173Y56326D01*
X88173Y56326D01*
X87904Y56096D01*
X87847Y56029D01*
X75568Y43750D01*
X74493D01*
Y44987D01*
X74500Y44986D01*
X75206Y45042D01*
X75895Y45207D01*
X76549Y45478D01*
X77153Y45848D01*
X77692Y46308D01*
X78152Y46847D01*
X78522Y47451D01*
X78793Y48105D01*
X78958Y48794D01*
X79000Y49500D01*
X78958Y50206D01*
X78793Y50895D01*
X78522Y51549D01*
X78152Y52153D01*
X77692Y52692D01*
X77153Y53152D01*
X76549Y53522D01*
X75895Y53793D01*
X75206Y53958D01*
X74500Y54014D01*
X74493Y54013D01*
Y54987D01*
G37*
G36*
Y64485D02*X74500Y64485D01*
X75285Y64546D01*
X76050Y64730D01*
X76777Y65031D01*
X77448Y65442D01*
X78046Y65954D01*
X78558Y66552D01*
X78969Y67223D01*
X78980Y67250D01*
X80568D01*
X85597Y62221D01*
X85654Y62154D01*
X85923Y61924D01*
X85923Y61924D01*
X86119Y61804D01*
X86207Y61750D01*
X78399D01*
X78152Y62153D01*
X77692Y62692D01*
X77153Y63152D01*
X76549Y63522D01*
X75895Y63793D01*
X75206Y63958D01*
X74500Y64014D01*
X74493Y64013D01*
Y64485D01*
G37*
G36*
Y74987D02*X74500Y74986D01*
X75206Y75042D01*
X75895Y75207D01*
X76549Y75478D01*
X77153Y75848D01*
X77692Y76308D01*
X78152Y76847D01*
X78399Y77250D01*
X79068D01*
X89347Y66971D01*
X89404Y66904D01*
X89673Y66674D01*
X89673Y66674D01*
X89975Y66489D01*
X90303Y66354D01*
X90647Y66271D01*
X91000Y66243D01*
X91088Y66250D01*
X97500D01*
X97500Y66250D01*
X105054D01*
X105065Y66231D01*
X105263Y66000D01*
X88182D01*
X83153Y71029D01*
X83096Y71096D01*
X82827Y71326D01*
X82525Y71511D01*
X82197Y71646D01*
X81853Y71729D01*
X81853Y71729D01*
X81500Y71757D01*
X81412Y71750D01*
X78980D01*
X78969Y71777D01*
X78558Y72448D01*
X78046Y73046D01*
X77448Y73558D01*
X76777Y73969D01*
X76050Y74270D01*
X75285Y74454D01*
X74500Y74515D01*
X74493Y74515D01*
Y74987D01*
G37*
G36*
Y88825D02*X91847Y71471D01*
X91904Y71404D01*
X92173Y71174D01*
X92173Y71174D01*
X92361Y71059D01*
X92475Y70989D01*
X92803Y70854D01*
X93147Y70771D01*
X93147D01*
X93412Y70750D01*
X91932D01*
X81653Y81029D01*
X81596Y81096D01*
X81327Y81326D01*
X81025Y81511D01*
X80697Y81646D01*
X80353Y81729D01*
X80353Y81729D01*
X80000Y81757D01*
X79912Y81750D01*
X78399D01*
X78152Y82153D01*
X77692Y82692D01*
X77153Y83152D01*
X76549Y83522D01*
X75895Y83793D01*
X75206Y83958D01*
X74500Y84014D01*
X74493Y84013D01*
Y88825D01*
G37*
G36*
X68220Y71959D02*X68522Y72451D01*
X68793Y73105D01*
X68958Y73794D01*
X69000Y74500D01*
X68958Y75206D01*
X68793Y75895D01*
X68522Y76549D01*
X68220Y77041D01*
Y81959D01*
X68522Y82451D01*
X68793Y83105D01*
X68958Y83794D01*
X69000Y84500D01*
X68958Y85206D01*
X68793Y85895D01*
X68522Y86549D01*
X68220Y87041D01*
Y90250D01*
X73068D01*
X74493Y88825D01*
Y84013D01*
X73794Y83958D01*
X73105Y83793D01*
X72451Y83522D01*
X71847Y83152D01*
X71308Y82692D01*
X70848Y82153D01*
X70478Y81549D01*
X70207Y80895D01*
X70042Y80206D01*
X69986Y79500D01*
X70042Y78794D01*
X70207Y78105D01*
X70478Y77451D01*
X70848Y76847D01*
X71308Y76308D01*
X71847Y75848D01*
X72451Y75478D01*
X73105Y75207D01*
X73794Y75042D01*
X74493Y74987D01*
Y74515D01*
X73715Y74454D01*
X72950Y74270D01*
X72223Y73969D01*
X71552Y73558D01*
X70954Y73046D01*
X70442Y72448D01*
X70031Y71777D01*
X69730Y71050D01*
X69546Y70285D01*
X69485Y69500D01*
X69546Y68715D01*
X69730Y67950D01*
X70031Y67223D01*
X70442Y66552D01*
X70954Y65954D01*
X71552Y65442D01*
X72223Y65031D01*
X72950Y64730D01*
X73715Y64546D01*
X74493Y64485D01*
Y64013D01*
X73794Y63958D01*
X73105Y63793D01*
X72451Y63522D01*
X71847Y63152D01*
X71308Y62692D01*
X70848Y62153D01*
X70478Y61549D01*
X70207Y60895D01*
X70042Y60206D01*
X69986Y59500D01*
X70042Y58794D01*
X70207Y58105D01*
X70478Y57451D01*
X70848Y56847D01*
X71308Y56308D01*
X71847Y55848D01*
X72451Y55478D01*
X73105Y55207D01*
X73794Y55042D01*
X74493Y54987D01*
Y54013D01*
X73794Y53958D01*
X73105Y53793D01*
X72451Y53522D01*
X71847Y53152D01*
X71308Y52692D01*
X70848Y52153D01*
X70478Y51549D01*
X70207Y50895D01*
X70042Y50206D01*
X69986Y49500D01*
X70042Y48794D01*
X70207Y48105D01*
X70478Y47451D01*
X70848Y46847D01*
X71308Y46308D01*
X71847Y45848D01*
X72451Y45478D01*
X73105Y45207D01*
X73794Y45042D01*
X74493Y44987D01*
Y43750D01*
X68220D01*
Y51959D01*
X68522Y52451D01*
X68793Y53105D01*
X68958Y53794D01*
X69000Y54500D01*
X68958Y55206D01*
X68793Y55895D01*
X68522Y56549D01*
X68220Y57041D01*
Y62044D01*
X68271Y62083D01*
X68326Y62139D01*
X68370Y62204D01*
X68564Y62556D01*
X68721Y62926D01*
X68844Y63309D01*
X68933Y63700D01*
X68987Y64099D01*
X69004Y64500D01*
X68987Y64901D01*
X68933Y65300D01*
X68844Y65691D01*
X68721Y66074D01*
X68564Y66444D01*
X68374Y66798D01*
X68329Y66863D01*
X68274Y66920D01*
X68220Y66960D01*
Y71959D01*
G37*
G36*
Y43750D02*X66750D01*
Y50601D01*
X67153Y50848D01*
X67692Y51308D01*
X68152Y51847D01*
X68220Y51959D01*
Y43750D01*
G37*
G36*
Y87041D02*X68152Y87153D01*
X67692Y87692D01*
X67153Y88152D01*
X66549Y88522D01*
X65895Y88793D01*
X65206Y88958D01*
X64500Y89014D01*
X64493Y89013D01*
Y90250D01*
X68220D01*
Y87041D01*
G37*
G36*
Y77041D02*X68152Y77153D01*
X67692Y77692D01*
X67153Y78152D01*
X66549Y78522D01*
X65895Y78793D01*
X65206Y78958D01*
X64500Y79014D01*
X64493Y79013D01*
Y79987D01*
X64500Y79986D01*
X65206Y80042D01*
X65895Y80207D01*
X66549Y80478D01*
X67153Y80848D01*
X67692Y81308D01*
X68152Y81847D01*
X68220Y81959D01*
Y77041D01*
G37*
G36*
X64493Y69987D02*X64500Y69986D01*
X65206Y70042D01*
X65895Y70207D01*
X66549Y70478D01*
X67153Y70848D01*
X67692Y71308D01*
X68152Y71847D01*
X68220Y71959D01*
Y66960D01*
X68210Y66968D01*
X68140Y67004D01*
X68065Y67030D01*
X67987Y67044D01*
X67908Y67045D01*
X67829Y67033D01*
X67754Y67010D01*
X67683Y66975D01*
X67618Y66929D01*
X67561Y66874D01*
X67513Y66811D01*
X67476Y66741D01*
X67451Y66666D01*
X67437Y66588D01*
X67436Y66508D01*
X67448Y66430D01*
X67471Y66354D01*
X67507Y66284D01*
X67657Y66010D01*
X67779Y65723D01*
X67875Y65426D01*
X67944Y65121D01*
X67986Y64812D01*
X68000Y64500D01*
X67986Y64188D01*
X67944Y63879D01*
X67875Y63574D01*
X67779Y63277D01*
X67657Y62990D01*
X67510Y62714D01*
X67474Y62645D01*
X67451Y62569D01*
X67440Y62491D01*
X67441Y62413D01*
X67454Y62335D01*
X67480Y62261D01*
X67516Y62191D01*
X67564Y62128D01*
X67620Y62073D01*
X67684Y62028D01*
X67755Y61993D01*
X67830Y61970D01*
X67908Y61959D01*
X67987Y61960D01*
X68064Y61973D01*
X68139Y61999D01*
X68208Y62035D01*
X68220Y62044D01*
Y57041D01*
X68152Y57153D01*
X67692Y57692D01*
X67153Y58152D01*
X66549Y58522D01*
X65895Y58793D01*
X65206Y58958D01*
X64500Y59014D01*
X64493Y59013D01*
Y59996D01*
X64500Y59996D01*
X64901Y60013D01*
X65300Y60067D01*
X65691Y60156D01*
X66074Y60279D01*
X66444Y60436D01*
X66798Y60626D01*
X66863Y60671D01*
X66920Y60726D01*
X66968Y60790D01*
X67004Y60860D01*
X67030Y60935D01*
X67044Y61013D01*
X67045Y61092D01*
X67033Y61171D01*
X67010Y61246D01*
X66975Y61317D01*
X66929Y61382D01*
X66874Y61439D01*
X66811Y61487D01*
X66741Y61524D01*
X66666Y61549D01*
X66588Y61563D01*
X66508Y61564D01*
X66430Y61552D01*
X66354Y61529D01*
X66284Y61493D01*
X66010Y61343D01*
X65723Y61221D01*
X65426Y61125D01*
X65121Y61056D01*
X64812Y61014D01*
X64500Y61000D01*
X64493Y61000D01*
Y68000D01*
X64500Y68000D01*
X64812Y67986D01*
X65121Y67944D01*
X65426Y67875D01*
X65723Y67779D01*
X66010Y67657D01*
X66286Y67510D01*
X66355Y67474D01*
X66431Y67451D01*
X66509Y67440D01*
X66587Y67441D01*
X66665Y67454D01*
X66739Y67480D01*
X66809Y67516D01*
X66872Y67564D01*
X66927Y67620D01*
X66972Y67684D01*
X67007Y67755D01*
X67030Y67830D01*
X67041Y67908D01*
X67040Y67987D01*
X67027Y68064D01*
X67001Y68139D01*
X66965Y68208D01*
X66917Y68271D01*
X66861Y68326D01*
X66796Y68370D01*
X66444Y68564D01*
X66074Y68721D01*
X65691Y68844D01*
X65300Y68933D01*
X64901Y68987D01*
X64500Y69004D01*
X64493Y69004D01*
Y69987D01*
G37*
G36*
Y79013D02*X63794Y78958D01*
X63105Y78793D01*
X62451Y78522D01*
X61847Y78152D01*
X61308Y77692D01*
X60848Y77153D01*
X60727Y76955D01*
X59250Y78432D01*
Y88568D01*
X60932Y90250D01*
X64493D01*
Y89013D01*
X63794Y88958D01*
X63105Y88793D01*
X62451Y88522D01*
X61847Y88152D01*
X61308Y87692D01*
X60848Y87153D01*
X60478Y86549D01*
X60207Y85895D01*
X60042Y85206D01*
X59986Y84500D01*
X60042Y83794D01*
X60207Y83105D01*
X60478Y82451D01*
X60848Y81847D01*
X61308Y81308D01*
X61847Y80848D01*
X62451Y80478D01*
X63105Y80207D01*
X63794Y80042D01*
X64493Y79987D01*
Y79013D01*
G37*
G36*
X60780Y17682D02*X60817Y17659D01*
X61035Y17569D01*
X61265Y17514D01*
X61500Y17500D01*
X64493Y17507D01*
Y3000D01*
X60780D01*
Y17682D01*
G37*
G36*
Y51959D02*X60848Y51847D01*
X61308Y51308D01*
X61847Y50848D01*
X62250Y50601D01*
Y41588D01*
X62243Y41500D01*
X62250Y41412D01*
Y26488D01*
X61265Y26486D01*
X61035Y26431D01*
X60817Y26341D01*
X60780Y26318D01*
Y51959D01*
G37*
G36*
Y71959D02*X60848Y71847D01*
X61308Y71308D01*
X61847Y70848D01*
X62451Y70478D01*
X63105Y70207D01*
X63794Y70042D01*
X64493Y69987D01*
Y69004D01*
X64099Y68987D01*
X63700Y68933D01*
X63309Y68844D01*
X62926Y68721D01*
X62556Y68564D01*
X62202Y68374D01*
X62137Y68329D01*
X62080Y68274D01*
X62032Y68210D01*
X61996Y68140D01*
X61970Y68065D01*
X61956Y67987D01*
X61955Y67908D01*
X61967Y67829D01*
X61990Y67754D01*
X62025Y67683D01*
X62071Y67618D01*
X62126Y67561D01*
X62189Y67513D01*
X62259Y67476D01*
X62334Y67451D01*
X62412Y67437D01*
X62492Y67436D01*
X62570Y67448D01*
X62646Y67471D01*
X62716Y67507D01*
X62990Y67657D01*
X63277Y67779D01*
X63574Y67875D01*
X63879Y67944D01*
X64188Y67986D01*
X64493Y68000D01*
Y61000D01*
X64188Y61014D01*
X63879Y61056D01*
X63574Y61125D01*
X63277Y61221D01*
X62990Y61343D01*
X62714Y61490D01*
X62645Y61526D01*
X62569Y61549D01*
X62491Y61560D01*
X62413Y61559D01*
X62335Y61546D01*
X62261Y61520D01*
X62191Y61484D01*
X62128Y61436D01*
X62073Y61380D01*
X62028Y61316D01*
X61993Y61245D01*
X61970Y61170D01*
X61959Y61092D01*
X61960Y61013D01*
X61973Y60936D01*
X61999Y60861D01*
X62035Y60792D01*
X62083Y60729D01*
X62139Y60674D01*
X62204Y60630D01*
X62556Y60436D01*
X62926Y60279D01*
X63309Y60156D01*
X63700Y60067D01*
X64099Y60013D01*
X64493Y59996D01*
Y59013D01*
X63794Y58958D01*
X63105Y58793D01*
X62451Y58522D01*
X61847Y58152D01*
X61308Y57692D01*
X60848Y57153D01*
X60780Y57041D01*
Y62040D01*
X60790Y62032D01*
X60860Y61996D01*
X60935Y61970D01*
X61013Y61956D01*
X61092Y61955D01*
X61171Y61967D01*
X61246Y61990D01*
X61317Y62025D01*
X61382Y62071D01*
X61439Y62126D01*
X61487Y62189D01*
X61524Y62259D01*
X61549Y62334D01*
X61563Y62412D01*
X61564Y62492D01*
X61552Y62570D01*
X61529Y62646D01*
X61493Y62716D01*
X61343Y62990D01*
X61221Y63277D01*
X61125Y63574D01*
X61056Y63879D01*
X61014Y64188D01*
X61000Y64500D01*
X61014Y64812D01*
X61056Y65121D01*
X61125Y65426D01*
X61221Y65723D01*
X61343Y66010D01*
X61490Y66286D01*
X61526Y66355D01*
X61549Y66431D01*
X61560Y66509D01*
X61559Y66587D01*
X61546Y66665D01*
X61520Y66739D01*
X61484Y66809D01*
X61436Y66872D01*
X61380Y66927D01*
X61316Y66972D01*
X61245Y67007D01*
X61170Y67030D01*
X61092Y67041D01*
X61013Y67040D01*
X60936Y67027D01*
X60861Y67001D01*
X60792Y66965D01*
X60780Y66956D01*
Y71959D01*
G37*
G36*
X58113Y73205D02*X58347Y72971D01*
X58404Y72904D01*
X58673Y72674D01*
X58673Y72674D01*
X58975Y72489D01*
X59303Y72354D01*
X59647Y72271D01*
X60000Y72243D01*
X60088Y72250D01*
X60601D01*
X60780Y71959D01*
Y66956D01*
X60729Y66917D01*
X60674Y66861D01*
X60630Y66796D01*
X60436Y66444D01*
X60279Y66074D01*
X60156Y65691D01*
X60067Y65300D01*
X60013Y64901D01*
X59996Y64500D01*
X60013Y64099D01*
X60067Y63700D01*
X60156Y63309D01*
X60279Y62926D01*
X60436Y62556D01*
X60626Y62202D01*
X60671Y62137D01*
X60726Y62080D01*
X60780Y62040D01*
Y57041D01*
X60478Y56549D01*
X60207Y55895D01*
X60042Y55206D01*
X59986Y54500D01*
X60042Y53794D01*
X60207Y53105D01*
X60478Y52451D01*
X60780Y51959D01*
Y26318D01*
X60616Y26217D01*
X60436Y26064D01*
X60283Y25884D01*
X60159Y25683D01*
X60069Y25465D01*
X60014Y25235D01*
X60000Y25000D01*
X60014Y18765D01*
X60069Y18535D01*
X60159Y18317D01*
X60283Y18116D01*
X60436Y17936D01*
X60616Y17783D01*
X60780Y17682D01*
Y3000D01*
X58113D01*
Y19853D01*
X58156Y19860D01*
X58268Y19897D01*
X58373Y19952D01*
X58468Y20022D01*
X58551Y20106D01*
X58619Y20202D01*
X58670Y20308D01*
X58818Y20716D01*
X58922Y21137D01*
X58984Y21567D01*
X59005Y22000D01*
X58984Y22433D01*
X58922Y22863D01*
X58818Y23284D01*
X58675Y23694D01*
X58622Y23800D01*
X58553Y23896D01*
X58470Y23981D01*
X58375Y24051D01*
X58269Y24106D01*
X58157Y24143D01*
X58113Y24151D01*
Y73205D01*
G37*
G36*
X107000Y89000D02*X106972Y89471D01*
X106862Y89930D01*
X106681Y90366D01*
X106435Y90769D01*
X106128Y91128D01*
X105769Y91435D01*
X105366Y91681D01*
X104930Y91862D01*
X104471Y91972D01*
X104000Y92009D01*
X103529Y91972D01*
X103070Y91862D01*
X102634Y91681D01*
X102231Y91435D01*
X101872Y91128D01*
X101565Y90769D01*
X101319Y90366D01*
X101138Y89930D01*
X101028Y89471D01*
X101028Y89471D01*
X100991Y89000D01*
X101000Y88882D01*
Y86118D01*
X100991Y86000D01*
X101028Y85529D01*
Y85529D01*
X101049Y85440D01*
X101138Y85070D01*
X101319Y84634D01*
X101565Y84231D01*
X101565Y84231D01*
X101872Y83872D01*
X101962Y83796D01*
X104296Y81462D01*
X104372Y81372D01*
X104731Y81066D01*
X104731Y81065D01*
X105134Y80819D01*
X105570Y80638D01*
X106029Y80528D01*
X106500Y80491D01*
X106618Y80500D01*
X135495D01*
Y75250D01*
X94432D01*
X75653Y94029D01*
X75596Y94096D01*
X75327Y94326D01*
X75025Y94511D01*
X74697Y94646D01*
X74353Y94729D01*
X74353Y94729D01*
X74000Y94757D01*
X73912Y94750D01*
X60088D01*
X60000Y94757D01*
X59647Y94729D01*
X59303Y94646D01*
X58975Y94511D01*
X58673Y94326D01*
X58673Y94326D01*
X58404Y94096D01*
X58347Y94029D01*
X58113Y93795D01*
Y119000D01*
X135495D01*
Y99654D01*
X135319Y99366D01*
X135138Y98930D01*
X135028Y98471D01*
X134991Y98000D01*
X135028Y97529D01*
X135138Y97070D01*
X135319Y96634D01*
X135495Y96346D01*
Y96126D01*
X134602Y97019D01*
X134564Y97064D01*
X134384Y97217D01*
X134183Y97341D01*
X133965Y97431D01*
X133735Y97486D01*
X133735Y97486D01*
X133500Y97505D01*
X133441Y97500D01*
X130599D01*
X130435Y97769D01*
X130128Y98128D01*
X129769Y98435D01*
X129366Y98681D01*
X128930Y98862D01*
X128471Y98972D01*
X128000Y99009D01*
X127529Y98972D01*
X127070Y98862D01*
X126634Y98681D01*
X126231Y98435D01*
X125872Y98128D01*
X125565Y97769D01*
X125319Y97366D01*
X125138Y96930D01*
X125028Y96471D01*
X124991Y96000D01*
X125028Y95529D01*
X125138Y95070D01*
X125199Y94922D01*
X123102Y97019D01*
X123064Y97064D01*
X122884Y97217D01*
X122683Y97341D01*
X122465Y97431D01*
X122235Y97486D01*
X122000Y97505D01*
X121941Y97500D01*
X120599D01*
X120435Y97769D01*
X120128Y98128D01*
X119769Y98435D01*
X119366Y98681D01*
X118930Y98862D01*
X118471Y98972D01*
X118000Y99009D01*
X117529Y98972D01*
X117070Y98862D01*
X116634Y98681D01*
X116231Y98435D01*
X115872Y98128D01*
X115565Y97769D01*
X115319Y97366D01*
X115138Y96930D01*
X115028Y96471D01*
X114991Y96000D01*
X115028Y95529D01*
X115138Y95070D01*
X115319Y94634D01*
X115565Y94231D01*
X115872Y93872D01*
X116231Y93565D01*
X116634Y93319D01*
X117070Y93138D01*
X117529Y93028D01*
X118000Y92991D01*
X118471Y93028D01*
X118930Y93138D01*
X119366Y93319D01*
X119769Y93565D01*
X120128Y93872D01*
X120435Y94231D01*
X120599Y94500D01*
X121379D01*
X125398Y90481D01*
X125436Y90436D01*
X125616Y90283D01*
X125817Y90159D01*
X126035Y90069D01*
X126265Y90014D01*
X126500Y89995D01*
X126559Y90000D01*
X135495D01*
Y86500D01*
X107743D01*
X107000Y87243D01*
Y89000D01*
G37*
G36*
X58113Y93795D02*X55471Y91153D01*
X55404Y91096D01*
X55174Y90827D01*
X54989Y90525D01*
X54854Y90197D01*
X54771Y89853D01*
X54771Y89853D01*
X54743Y89500D01*
X54750Y89412D01*
Y77588D01*
X54743Y77500D01*
X54771Y77147D01*
Y77147D01*
X54854Y76803D01*
X54989Y76475D01*
X55059Y76361D01*
X55174Y76173D01*
X55174Y76173D01*
X55404Y75904D01*
X55471Y75847D01*
X58113Y73205D01*
Y24151D01*
X58040Y24163D01*
X57921Y24164D01*
X57804Y24146D01*
X57691Y24110D01*
X57585Y24057D01*
X57488Y23988D01*
X57404Y23905D01*
X57333Y23809D01*
X57279Y23704D01*
X57241Y23592D01*
X57222Y23475D01*
X57221Y23356D01*
X57239Y23239D01*
X57277Y23126D01*
X57376Y22855D01*
X57444Y22575D01*
X57486Y22289D01*
X57500Y22000D01*
X57486Y21711D01*
X57444Y21425D01*
X57376Y21145D01*
X57280Y20872D01*
X57242Y20761D01*
X57225Y20644D01*
X57225Y20526D01*
X57245Y20409D01*
X57282Y20297D01*
X57336Y20193D01*
X57406Y20098D01*
X57491Y20015D01*
X57587Y19946D01*
X57692Y19893D01*
X57805Y19857D01*
X57921Y19840D01*
X58039Y19841D01*
X58113Y19853D01*
Y3000D01*
X54502D01*
Y17495D01*
X54933Y17516D01*
X55363Y17578D01*
X55784Y17682D01*
X56194Y17825D01*
X56300Y17878D01*
X56396Y17947D01*
X56481Y18030D01*
X56551Y18125D01*
X56606Y18231D01*
X56643Y18343D01*
X56663Y18460D01*
X56664Y18579D01*
X56646Y18696D01*
X56610Y18809D01*
X56557Y18915D01*
X56488Y19012D01*
X56405Y19096D01*
X56309Y19167D01*
X56204Y19221D01*
X56092Y19259D01*
X55975Y19278D01*
X55856Y19279D01*
X55739Y19261D01*
X55626Y19223D01*
X55355Y19124D01*
X55075Y19056D01*
X54789Y19014D01*
X54502Y19000D01*
Y25000D01*
X54789Y24986D01*
X55075Y24944D01*
X55355Y24876D01*
X55628Y24780D01*
X55739Y24742D01*
X55856Y24725D01*
X55974Y24725D01*
X56091Y24745D01*
X56203Y24782D01*
X56307Y24836D01*
X56402Y24906D01*
X56485Y24991D01*
X56554Y25087D01*
X56607Y25192D01*
X56643Y25305D01*
X56660Y25421D01*
X56659Y25539D01*
X56640Y25656D01*
X56603Y25768D01*
X56548Y25873D01*
X56478Y25968D01*
X56394Y26051D01*
X56298Y26119D01*
X56192Y26170D01*
X55784Y26318D01*
X55363Y26422D01*
X54933Y26484D01*
X54502Y26505D01*
Y119000D01*
X58113D01*
Y93795D01*
G37*
G36*
X54502Y3000D02*X50887D01*
Y19849D01*
X50960Y19837D01*
X51079Y19836D01*
X51196Y19854D01*
X51309Y19890D01*
X51415Y19943D01*
X51512Y20012D01*
X51596Y20095D01*
X51667Y20191D01*
X51721Y20296D01*
X51759Y20408D01*
X51778Y20525D01*
X51779Y20644D01*
X51761Y20761D01*
X51723Y20874D01*
X51624Y21145D01*
X51556Y21425D01*
X51514Y21711D01*
X51500Y22000D01*
X51514Y22289D01*
X51556Y22575D01*
X51624Y22855D01*
X51720Y23128D01*
X51758Y23239D01*
X51775Y23356D01*
X51775Y23474D01*
X51755Y23591D01*
X51718Y23703D01*
X51664Y23807D01*
X51594Y23902D01*
X51509Y23985D01*
X51413Y24054D01*
X51308Y24107D01*
X51195Y24143D01*
X51079Y24160D01*
X50961Y24159D01*
X50887Y24147D01*
Y119000D01*
X54502D01*
Y26505D01*
X54500Y26505D01*
X54067Y26484D01*
X53637Y26422D01*
X53216Y26318D01*
X52806Y26175D01*
X52700Y26122D01*
X52604Y26053D01*
X52519Y25970D01*
X52449Y25875D01*
X52394Y25769D01*
X52357Y25657D01*
X52337Y25540D01*
X52336Y25421D01*
X52354Y25304D01*
X52390Y25191D01*
X52443Y25085D01*
X52512Y24988D01*
X52595Y24904D01*
X52691Y24833D01*
X52796Y24779D01*
X52908Y24741D01*
X53025Y24722D01*
X53144Y24721D01*
X53261Y24739D01*
X53374Y24777D01*
X53645Y24876D01*
X53925Y24944D01*
X54211Y24986D01*
X54500Y25000D01*
X54502Y25000D01*
Y19000D01*
X54500Y19000D01*
X54211Y19014D01*
X53925Y19056D01*
X53645Y19124D01*
X53372Y19220D01*
X53261Y19258D01*
X53144Y19275D01*
X53026Y19275D01*
X52909Y19255D01*
X52797Y19218D01*
X52693Y19164D01*
X52598Y19094D01*
X52515Y19009D01*
X52446Y18913D01*
X52393Y18808D01*
X52357Y18695D01*
X52340Y18579D01*
X52341Y18461D01*
X52360Y18344D01*
X52397Y18232D01*
X52452Y18127D01*
X52522Y18032D01*
X52606Y17949D01*
X52702Y17881D01*
X52808Y17830D01*
X53216Y17682D01*
X53637Y17578D01*
X54067Y17516D01*
X54500Y17495D01*
X54502Y17495D01*
Y3000D01*
G37*
G36*
X50887D02*X39487D01*
Y36276D01*
X39500Y36275D01*
X40787Y36376D01*
X42042Y36677D01*
X43234Y37171D01*
X44335Y37846D01*
X45316Y38684D01*
X46154Y39665D01*
X46829Y40766D01*
X47323Y41958D01*
X47624Y43213D01*
X47700Y44500D01*
X47624Y45787D01*
X47323Y47042D01*
X46829Y48234D01*
X46154Y49335D01*
X45316Y50316D01*
X44335Y51154D01*
X43234Y51829D01*
X42042Y52323D01*
X40787Y52624D01*
X39500Y52725D01*
X39487Y52724D01*
Y81276D01*
X39500Y81275D01*
X40787Y81376D01*
X42042Y81677D01*
X43234Y82171D01*
X44335Y82846D01*
X45316Y83684D01*
X46154Y84665D01*
X46829Y85766D01*
X47323Y86958D01*
X47624Y88213D01*
X47700Y89500D01*
X47624Y90787D01*
X47323Y92042D01*
X46829Y93234D01*
X46154Y94335D01*
X45316Y95316D01*
X44335Y96154D01*
X43234Y96829D01*
X42042Y97323D01*
X40787Y97624D01*
X39500Y97725D01*
X39487Y97724D01*
Y119000D01*
X50887D01*
Y24147D01*
X50844Y24140D01*
X50732Y24103D01*
X50627Y24048D01*
X50532Y23978D01*
X50449Y23894D01*
X50381Y23798D01*
X50330Y23692D01*
X50182Y23284D01*
X50078Y22863D01*
X50016Y22433D01*
X49995Y22000D01*
X50016Y21567D01*
X50078Y21137D01*
X50182Y20716D01*
X50325Y20306D01*
X50378Y20200D01*
X50447Y20104D01*
X50530Y20019D01*
X50625Y19949D01*
X50731Y19894D01*
X50843Y19857D01*
X50887Y19849D01*
Y3000D01*
G37*
G36*
X39487D02*X24171D01*
X26247Y4272D01*
X28124Y5876D01*
X29728Y7753D01*
X31018Y9858D01*
X31962Y12138D01*
X32539Y14539D01*
X32684Y17000D01*
X32539Y19461D01*
X31962Y21862D01*
X31018Y24142D01*
X29728Y26247D01*
X28124Y28124D01*
X26247Y29728D01*
X24142Y31018D01*
X21862Y31962D01*
X19461Y32539D01*
X17000Y32732D01*
X14539Y32539D01*
X12138Y31962D01*
X9858Y31018D01*
X7753Y29728D01*
X5876Y28124D01*
X4272Y26247D01*
X3000Y24171D01*
Y119000D01*
X39487D01*
Y97724D01*
X38213Y97624D01*
X36958Y97323D01*
X35766Y96829D01*
X34665Y96154D01*
X33684Y95316D01*
X32846Y94335D01*
X32171Y93234D01*
X31677Y92042D01*
X31376Y90787D01*
X31275Y89500D01*
X31376Y88213D01*
X31677Y86958D01*
X32171Y85766D01*
X32846Y84665D01*
X33684Y83684D01*
X34665Y82846D01*
X35766Y82171D01*
X36958Y81677D01*
X38213Y81376D01*
X39487Y81276D01*
Y52724D01*
X38213Y52624D01*
X36958Y52323D01*
X35766Y51829D01*
X34665Y51154D01*
X33684Y50316D01*
X32846Y49335D01*
X32171Y48234D01*
X31677Y47042D01*
X31376Y45787D01*
X31275Y44500D01*
X31376Y43213D01*
X31677Y41958D01*
X32171Y40766D01*
X32846Y39665D01*
X33684Y38684D01*
X34665Y37846D01*
X35766Y37171D01*
X36958Y36677D01*
X38213Y36376D01*
X39487Y36276D01*
Y3000D01*
G37*
G36*
X39750Y213500D02*X58000D01*
Y195500D01*
X39750D01*
Y200248D01*
X39868Y200257D01*
X39982Y200285D01*
X40092Y200330D01*
X40192Y200391D01*
X40282Y200468D01*
X40359Y200558D01*
X40420Y200658D01*
X40465Y200768D01*
X40493Y200882D01*
X40500Y201000D01*
Y206000D01*
X40493Y206118D01*
X40465Y206232D01*
X40420Y206342D01*
X40359Y206442D01*
X40282Y206532D01*
X40192Y206609D01*
X40092Y206670D01*
X39982Y206715D01*
X39868Y206743D01*
X39750Y206752D01*
Y213500D01*
G37*
G36*
X35000D02*X39750D01*
Y206752D01*
X39632Y206743D01*
X39518Y206715D01*
X39408Y206670D01*
X39308Y206609D01*
X39218Y206532D01*
X39141Y206442D01*
X39080Y206342D01*
X39035Y206232D01*
X39007Y206118D01*
X39000Y206000D01*
Y201000D01*
X39007Y200882D01*
X39035Y200768D01*
X39080Y200658D01*
X39141Y200558D01*
X39218Y200468D01*
X39308Y200391D01*
X39408Y200330D01*
X39518Y200285D01*
X39632Y200257D01*
X39750Y200248D01*
Y195500D01*
X35000D01*
Y198000D01*
X37500D01*
X37618Y198007D01*
X37732Y198035D01*
X37842Y198080D01*
X37942Y198141D01*
X38032Y198218D01*
X38109Y198308D01*
X38170Y198408D01*
X38215Y198518D01*
X38243Y198632D01*
X38252Y198750D01*
X38243Y198868D01*
X38215Y198982D01*
X38170Y199092D01*
X38109Y199192D01*
X38032Y199282D01*
X37942Y199359D01*
X37842Y199420D01*
X37732Y199465D01*
X37618Y199493D01*
X37500Y199500D01*
X35000D01*
Y207500D01*
X37500D01*
X37618Y207507D01*
X37732Y207535D01*
X37842Y207580D01*
X37942Y207641D01*
X38032Y207718D01*
X38109Y207808D01*
X38170Y207908D01*
X38215Y208018D01*
X38243Y208132D01*
X38252Y208250D01*
X38243Y208368D01*
X38215Y208482D01*
X38170Y208592D01*
X38109Y208692D01*
X38032Y208782D01*
X37942Y208859D01*
X37842Y208920D01*
X37732Y208965D01*
X37618Y208993D01*
X37500Y209000D01*
X35000D01*
Y213500D01*
G37*
G36*
X30250D02*X35000D01*
Y209000D01*
X32500D01*
X32382Y208993D01*
X32268Y208965D01*
X32158Y208920D01*
X32058Y208859D01*
X31968Y208782D01*
X31891Y208692D01*
X31830Y208592D01*
X31785Y208482D01*
X31757Y208368D01*
X31748Y208250D01*
X31757Y208132D01*
X31785Y208018D01*
X31830Y207908D01*
X31891Y207808D01*
X31968Y207718D01*
X32058Y207641D01*
X32158Y207580D01*
X32268Y207535D01*
X32382Y207507D01*
X32500Y207500D01*
X35000D01*
Y199500D01*
X32500D01*
X32382Y199493D01*
X32268Y199465D01*
X32158Y199420D01*
X32058Y199359D01*
X31968Y199282D01*
X31891Y199192D01*
X31830Y199092D01*
X31785Y198982D01*
X31757Y198868D01*
X31748Y198750D01*
X31757Y198632D01*
X31785Y198518D01*
X31830Y198408D01*
X31891Y198308D01*
X31968Y198218D01*
X32058Y198141D01*
X32158Y198080D01*
X32268Y198035D01*
X32382Y198007D01*
X32500Y198000D01*
X35000D01*
Y195500D01*
X30250D01*
Y200248D01*
X30368Y200257D01*
X30482Y200285D01*
X30592Y200330D01*
X30692Y200391D01*
X30782Y200468D01*
X30859Y200558D01*
X30920Y200658D01*
X30965Y200768D01*
X30993Y200882D01*
X31000Y201000D01*
Y206000D01*
X30993Y206118D01*
X30965Y206232D01*
X30920Y206342D01*
X30859Y206442D01*
X30782Y206532D01*
X30692Y206609D01*
X30592Y206670D01*
X30482Y206715D01*
X30368Y206743D01*
X30250Y206752D01*
Y213500D01*
G37*
G36*
X22000D02*X30250D01*
Y206752D01*
X30132Y206743D01*
X30018Y206715D01*
X29908Y206670D01*
X29808Y206609D01*
X29718Y206532D01*
X29641Y206442D01*
X29580Y206342D01*
X29535Y206232D01*
X29507Y206118D01*
X29500Y206000D01*
Y201000D01*
X29507Y200882D01*
X29535Y200768D01*
X29580Y200658D01*
X29641Y200558D01*
X29718Y200468D01*
X29808Y200391D01*
X29908Y200330D01*
X30018Y200285D01*
X30132Y200257D01*
X30250Y200248D01*
Y195500D01*
X22000D01*
Y213500D01*
G37*
G36*
X113000Y203000D02*X98000D01*
Y262338D01*
X98065Y262231D01*
X98372Y261872D01*
X98731Y261565D01*
X99134Y261319D01*
X99570Y261138D01*
X100029Y261028D01*
X100500Y260991D01*
X100971Y261028D01*
X101430Y261138D01*
X101866Y261319D01*
X102269Y261565D01*
X102628Y261872D01*
X102935Y262231D01*
X103099Y262500D01*
X113000D01*
Y203000D01*
G37*
G36*
X98000Y301000D02*X141000D01*
Y283000D01*
X98000D01*
Y301000D01*
G37*
G36*
X113000D01*
Y265500D01*
X103099D01*
X102935Y265769D01*
X102628Y266128D01*
X102269Y266435D01*
X101866Y266681D01*
X101430Y266862D01*
X100971Y266972D01*
X100500Y267009D01*
X100029Y266972D01*
X99570Y266862D01*
X99134Y266681D01*
X98731Y266435D01*
X98372Y266128D01*
X98065Y265769D01*
X98000Y265662D01*
Y301000D01*
G37*
G36*
X111000Y211500D02*Y262500D01*
X121901D01*
X122065Y262231D01*
X122372Y261872D01*
X122731Y261565D01*
X123134Y261319D01*
X123570Y261138D01*
X124029Y261028D01*
X124500Y260991D01*
X124971Y261028D01*
X125430Y261138D01*
X125866Y261319D01*
X126269Y261565D01*
X126628Y261872D01*
X126935Y262231D01*
X127181Y262634D01*
X127362Y263070D01*
X127472Y263529D01*
X127500Y264000D01*
X127472Y264471D01*
X127362Y264930D01*
X127181Y265366D01*
X126935Y265769D01*
X126628Y266128D01*
X126269Y266435D01*
X125866Y266681D01*
X125430Y266862D01*
X124971Y266972D01*
X124500Y267009D01*
X124029Y266972D01*
X123570Y266862D01*
X123134Y266681D01*
X122731Y266435D01*
X122372Y266128D01*
X122065Y265769D01*
X121901Y265500D01*
X111000D01*
Y270500D01*
X131000D01*
Y246059D01*
X130995Y246000D01*
X131014Y245765D01*
X131069Y245535D01*
X131159Y245317D01*
X131283Y245116D01*
X131436Y244936D01*
X131481Y244898D01*
X133398Y242981D01*
X133436Y242936D01*
X133615Y242783D01*
X133616Y242783D01*
X133805Y242667D01*
X133819Y242634D01*
X134065Y242231D01*
X134372Y241872D01*
X134731Y241565D01*
X135134Y241319D01*
X135570Y241138D01*
X136029Y241028D01*
X136500Y240991D01*
X136971Y241028D01*
X137430Y241138D01*
X137866Y241319D01*
X138269Y241565D01*
X138628Y241872D01*
X138935Y242231D01*
X139181Y242634D01*
X139362Y243070D01*
X139472Y243529D01*
X139500Y244000D01*
X139472Y244471D01*
X139362Y244930D01*
X139181Y245366D01*
X138935Y245769D01*
X138628Y246128D01*
X138269Y246435D01*
X137866Y246681D01*
X137700Y246750D01*
X137866Y246819D01*
X138269Y247065D01*
X138628Y247372D01*
X138935Y247731D01*
X139181Y248134D01*
X139362Y248570D01*
X139472Y249029D01*
X139500Y249500D01*
X139472Y249971D01*
X139362Y250430D01*
X139181Y250866D01*
X138935Y251269D01*
X138628Y251628D01*
X138269Y251935D01*
X138000Y252099D01*
Y270500D01*
X141000D01*
Y211500D01*
X111000D01*
G37*
G36*
X89280Y290679D02*X89395Y290707D01*
X90049Y290978D01*
X90653Y291348D01*
X91192Y291808D01*
X91652Y292347D01*
X92022Y292951D01*
X92293Y293605D01*
X92458Y294294D01*
X92500Y295000D01*
X92458Y295706D01*
X92293Y296395D01*
X92022Y297049D01*
X91652Y297653D01*
X91192Y298192D01*
X90653Y298652D01*
X90049Y299022D01*
X89395Y299293D01*
X89280Y299321D01*
Y350000D01*
X93000D01*
Y323321D01*
X92677Y322542D01*
X92376Y321287D01*
X92275Y320000D01*
X92376Y318713D01*
X92677Y317458D01*
X93000Y316679D01*
Y289504D01*
X92599Y289487D01*
X92200Y289433D01*
X91809Y289344D01*
X91426Y289221D01*
X91056Y289064D01*
X90702Y288874D01*
X90637Y288829D01*
X90580Y288774D01*
X90532Y288710D01*
X90496Y288640D01*
X90470Y288565D01*
X90456Y288487D01*
X90455Y288408D01*
X90467Y288329D01*
X90490Y288254D01*
X90525Y288183D01*
X90571Y288118D01*
X90626Y288061D01*
X90689Y288013D01*
X90759Y287976D01*
X90834Y287951D01*
X90912Y287937D01*
X90992Y287936D01*
X91070Y287948D01*
X91146Y287971D01*
X91216Y288007D01*
X91490Y288157D01*
X91777Y288279D01*
X92074Y288375D01*
X92379Y288444D01*
X92688Y288486D01*
X93000Y288500D01*
Y281500D01*
X92688Y281514D01*
X92379Y281556D01*
X92074Y281625D01*
X91777Y281721D01*
X91490Y281843D01*
X91214Y281990D01*
X91145Y282026D01*
X91069Y282049D01*
X90991Y282060D01*
X90913Y282059D01*
X90835Y282046D01*
X90761Y282020D01*
X90691Y281984D01*
X90628Y281936D01*
X90573Y281880D01*
X90528Y281816D01*
X90493Y281745D01*
X90470Y281670D01*
X90459Y281592D01*
X90460Y281513D01*
X90473Y281436D01*
X90499Y281361D01*
X90535Y281292D01*
X90583Y281229D01*
X90639Y281174D01*
X90704Y281130D01*
X91056Y280936D01*
X91426Y280779D01*
X91809Y280656D01*
X92200Y280567D01*
X92599Y280513D01*
X93000Y280496D01*
Y216000D01*
X89280D01*
Y282540D01*
X89290Y282532D01*
X89360Y282496D01*
X89435Y282470D01*
X89513Y282456D01*
X89592Y282455D01*
X89671Y282467D01*
X89746Y282490D01*
X89817Y282525D01*
X89882Y282571D01*
X89939Y282626D01*
X89987Y282689D01*
X90024Y282759D01*
X90049Y282834D01*
X90063Y282912D01*
X90064Y282992D01*
X90052Y283070D01*
X90029Y283146D01*
X89993Y283216D01*
X89843Y283490D01*
X89721Y283777D01*
X89625Y284074D01*
X89556Y284379D01*
X89514Y284688D01*
X89500Y285000D01*
X89514Y285312D01*
X89556Y285621D01*
X89625Y285926D01*
X89721Y286223D01*
X89843Y286510D01*
X89990Y286786D01*
X90026Y286855D01*
X90049Y286931D01*
X90060Y287009D01*
X90059Y287087D01*
X90046Y287165D01*
X90020Y287239D01*
X89984Y287309D01*
X89936Y287372D01*
X89880Y287427D01*
X89816Y287472D01*
X89745Y287507D01*
X89670Y287530D01*
X89592Y287541D01*
X89513Y287540D01*
X89436Y287527D01*
X89361Y287501D01*
X89292Y287465D01*
X89280Y287456D01*
Y290679D01*
G37*
G36*
Y299321D02*X88706Y299458D01*
X88000Y299514D01*
X87294Y299458D01*
X86605Y299293D01*
X86056Y299065D01*
X81500Y303621D01*
Y339379D01*
X85019Y342898D01*
X85064Y342936D01*
X85217Y343115D01*
X85217Y343116D01*
X85341Y343317D01*
X85431Y343535D01*
X85486Y343765D01*
X85497Y343899D01*
X85769Y344065D01*
X86128Y344372D01*
X86435Y344731D01*
X86681Y345134D01*
X86862Y345570D01*
X86972Y346029D01*
X87000Y346500D01*
X86972Y346971D01*
X86862Y347430D01*
X86681Y347866D01*
X86435Y348269D01*
X86128Y348628D01*
X85769Y348935D01*
X85366Y349181D01*
X84930Y349362D01*
X84471Y349472D01*
X84000Y349509D01*
X83529Y349472D01*
X83070Y349362D01*
X82634Y349181D01*
X82231Y348935D01*
X81872Y348628D01*
X81565Y348269D01*
X81319Y347866D01*
X81138Y347430D01*
X81028Y346971D01*
X80996Y346567D01*
X80972Y346971D01*
X80862Y347430D01*
X80681Y347866D01*
X80435Y348269D01*
X80128Y348628D01*
X79769Y348935D01*
X79637Y349015D01*
X80621Y350000D01*
X89280D01*
Y299321D01*
G37*
G36*
X86720Y290679D02*X87294Y290542D01*
X88000Y290486D01*
X88706Y290542D01*
X89280Y290679D01*
Y287456D01*
X89229Y287417D01*
X89174Y287361D01*
X89130Y287296D01*
X88936Y286944D01*
X88779Y286574D01*
X88656Y286191D01*
X88567Y285800D01*
X88513Y285401D01*
X88496Y285000D01*
X88513Y284599D01*
X88567Y284200D01*
X88656Y283809D01*
X88779Y283426D01*
X88936Y283056D01*
X89126Y282702D01*
X89171Y282637D01*
X89226Y282580D01*
X89280Y282540D01*
Y216000D01*
X86720D01*
Y282544D01*
X86771Y282583D01*
X86826Y282639D01*
X86870Y282704D01*
X87064Y283056D01*
X87221Y283426D01*
X87344Y283809D01*
X87433Y284200D01*
X87487Y284599D01*
X87504Y285000D01*
X87487Y285401D01*
X87433Y285800D01*
X87344Y286191D01*
X87221Y286574D01*
X87064Y286944D01*
X86874Y287298D01*
X86829Y287363D01*
X86774Y287420D01*
X86720Y287460D01*
Y290679D01*
G37*
G36*
X83002Y297877D02*X83935Y296944D01*
X83707Y296395D01*
X83542Y295706D01*
X83486Y295000D01*
X83542Y294294D01*
X83707Y293605D01*
X83978Y292951D01*
X84348Y292347D01*
X84808Y291808D01*
X85347Y291348D01*
X85951Y290978D01*
X86605Y290707D01*
X86720Y290679D01*
Y287460D01*
X86710Y287468D01*
X86640Y287504D01*
X86565Y287530D01*
X86487Y287544D01*
X86408Y287545D01*
X86329Y287533D01*
X86254Y287510D01*
X86183Y287475D01*
X86118Y287429D01*
X86061Y287374D01*
X86013Y287311D01*
X85976Y287241D01*
X85951Y287166D01*
X85937Y287088D01*
X85936Y287008D01*
X85948Y286930D01*
X85971Y286854D01*
X86007Y286784D01*
X86157Y286510D01*
X86279Y286223D01*
X86375Y285926D01*
X86444Y285621D01*
X86486Y285312D01*
X86500Y285000D01*
X86486Y284688D01*
X86444Y284379D01*
X86375Y284074D01*
X86279Y283777D01*
X86157Y283490D01*
X86010Y283214D01*
X85974Y283145D01*
X85951Y283069D01*
X85940Y282991D01*
X85941Y282913D01*
X85954Y282835D01*
X85980Y282761D01*
X86016Y282691D01*
X86064Y282628D01*
X86120Y282573D01*
X86184Y282528D01*
X86255Y282493D01*
X86330Y282470D01*
X86408Y282459D01*
X86487Y282460D01*
X86564Y282473D01*
X86639Y282499D01*
X86708Y282535D01*
X86720Y282544D01*
Y216000D01*
X83002D01*
Y263341D01*
X83181Y263634D01*
X83362Y264070D01*
X83472Y264529D01*
X83500Y265000D01*
X83472Y265471D01*
X83362Y265930D01*
X83181Y266366D01*
X83002Y266659D01*
Y280496D01*
X83401Y280513D01*
X83800Y280567D01*
X84191Y280656D01*
X84574Y280779D01*
X84944Y280936D01*
X85298Y281126D01*
X85363Y281171D01*
X85420Y281226D01*
X85468Y281290D01*
X85504Y281360D01*
X85530Y281435D01*
X85544Y281513D01*
X85545Y281592D01*
X85533Y281671D01*
X85510Y281746D01*
X85475Y281817D01*
X85429Y281882D01*
X85374Y281939D01*
X85311Y281987D01*
X85241Y282024D01*
X85166Y282049D01*
X85088Y282063D01*
X85008Y282064D01*
X84930Y282052D01*
X84854Y282029D01*
X84784Y281993D01*
X84510Y281843D01*
X84223Y281721D01*
X83926Y281625D01*
X83621Y281556D01*
X83312Y281514D01*
X83002Y281500D01*
Y288500D01*
X83312Y288486D01*
X83621Y288444D01*
X83926Y288375D01*
X84223Y288279D01*
X84510Y288157D01*
X84786Y288010D01*
X84855Y287974D01*
X84931Y287951D01*
X85009Y287940D01*
X85087Y287941D01*
X85165Y287954D01*
X85239Y287980D01*
X85309Y288016D01*
X85372Y288064D01*
X85427Y288120D01*
X85472Y288184D01*
X85507Y288255D01*
X85530Y288330D01*
X85541Y288408D01*
X85540Y288487D01*
X85527Y288564D01*
X85501Y288639D01*
X85465Y288708D01*
X85417Y288771D01*
X85361Y288826D01*
X85296Y288870D01*
X84944Y289064D01*
X84574Y289221D01*
X84191Y289344D01*
X83800Y289433D01*
X83401Y289487D01*
X83002Y289504D01*
Y297877D01*
G37*
G36*
Y216000D02*X71495D01*
Y263500D01*
X77901D01*
X78065Y263231D01*
X78372Y262872D01*
X78731Y262565D01*
X79134Y262319D01*
X79570Y262138D01*
X80029Y262028D01*
X80500Y261991D01*
X80971Y262028D01*
X81430Y262138D01*
X81866Y262319D01*
X82269Y262565D01*
X82628Y262872D01*
X82935Y263231D01*
X83002Y263341D01*
Y216000D01*
G37*
G36*
X79280Y290679D02*X79395Y290707D01*
X80049Y290978D01*
X80653Y291348D01*
X81192Y291808D01*
X81652Y292347D01*
X82022Y292951D01*
X82293Y293605D01*
X82458Y294294D01*
X82500Y295000D01*
X82458Y295706D01*
X82293Y296395D01*
X82022Y297049D01*
X81652Y297653D01*
X81192Y298192D01*
X80653Y298652D01*
X80049Y299022D01*
X79500Y299249D01*
Y301379D01*
X83002Y297877D01*
Y289504D01*
X83000Y289504D01*
X82599Y289487D01*
X82200Y289433D01*
X81809Y289344D01*
X81426Y289221D01*
X81056Y289064D01*
X80702Y288874D01*
X80637Y288829D01*
X80580Y288774D01*
X80532Y288710D01*
X80496Y288640D01*
X80470Y288565D01*
X80456Y288487D01*
X80455Y288408D01*
X80467Y288329D01*
X80490Y288254D01*
X80525Y288183D01*
X80571Y288118D01*
X80626Y288061D01*
X80689Y288013D01*
X80759Y287976D01*
X80834Y287951D01*
X80912Y287937D01*
X80992Y287936D01*
X81070Y287948D01*
X81146Y287971D01*
X81216Y288007D01*
X81490Y288157D01*
X81777Y288279D01*
X82074Y288375D01*
X82379Y288444D01*
X82688Y288486D01*
X83000Y288500D01*
X83002Y288500D01*
Y281500D01*
X83000Y281500D01*
X82688Y281514D01*
X82379Y281556D01*
X82074Y281625D01*
X81777Y281721D01*
X81490Y281843D01*
X81214Y281990D01*
X81145Y282026D01*
X81069Y282049D01*
X80991Y282060D01*
X80913Y282059D01*
X80835Y282046D01*
X80761Y282020D01*
X80691Y281984D01*
X80628Y281936D01*
X80573Y281880D01*
X80528Y281816D01*
X80493Y281745D01*
X80470Y281670D01*
X80459Y281592D01*
X80460Y281513D01*
X80473Y281436D01*
X80499Y281361D01*
X80535Y281292D01*
X80583Y281229D01*
X80639Y281174D01*
X80704Y281130D01*
X81056Y280936D01*
X81426Y280779D01*
X81809Y280656D01*
X82200Y280567D01*
X82599Y280513D01*
X83000Y280496D01*
X83002Y280496D01*
Y266659D01*
X82935Y266769D01*
X82628Y267128D01*
X82269Y267435D01*
X81866Y267681D01*
X81430Y267862D01*
X80971Y267972D01*
X80500Y268009D01*
X80029Y267972D01*
X79570Y267862D01*
X79280Y267742D01*
Y282540D01*
X79290Y282532D01*
X79360Y282496D01*
X79435Y282470D01*
X79513Y282456D01*
X79592Y282455D01*
X79671Y282467D01*
X79746Y282490D01*
X79817Y282525D01*
X79882Y282571D01*
X79939Y282626D01*
X79987Y282689D01*
X80024Y282759D01*
X80049Y282834D01*
X80063Y282912D01*
X80064Y282992D01*
X80052Y283070D01*
X80029Y283146D01*
X79993Y283216D01*
X79843Y283490D01*
X79721Y283777D01*
X79625Y284074D01*
X79556Y284379D01*
X79514Y284688D01*
X79500Y285000D01*
X79514Y285312D01*
X79556Y285621D01*
X79625Y285926D01*
X79721Y286223D01*
X79843Y286510D01*
X79990Y286786D01*
X80026Y286855D01*
X80049Y286931D01*
X80060Y287009D01*
X80059Y287087D01*
X80046Y287165D01*
X80020Y287239D01*
X79984Y287309D01*
X79936Y287372D01*
X79880Y287427D01*
X79816Y287472D01*
X79745Y287507D01*
X79670Y287530D01*
X79592Y287541D01*
X79513Y287540D01*
X79436Y287527D01*
X79361Y287501D01*
X79292Y287465D01*
X79280Y287456D01*
Y290679D01*
G37*
G36*
X71495Y280753D02*X71605Y280707D01*
X72294Y280542D01*
X73000Y280486D01*
X73706Y280542D01*
X74395Y280707D01*
X75049Y280978D01*
X75653Y281348D01*
X76192Y281808D01*
X76652Y282347D01*
X77022Y282951D01*
X77293Y283605D01*
X77458Y284294D01*
X77500Y285000D01*
X77458Y285706D01*
X77293Y286395D01*
X77022Y287049D01*
X76652Y287653D01*
X76192Y288192D01*
X75653Y288652D01*
X75049Y289022D01*
X74500Y289249D01*
Y292169D01*
X74808Y291808D01*
X75347Y291348D01*
X75951Y290978D01*
X76605Y290707D01*
X77294Y290542D01*
X78000Y290486D01*
X78706Y290542D01*
X79280Y290679D01*
Y287456D01*
X79229Y287417D01*
X79174Y287361D01*
X79130Y287296D01*
X78936Y286944D01*
X78779Y286574D01*
X78656Y286191D01*
X78567Y285800D01*
X78513Y285401D01*
X78496Y285000D01*
X78513Y284599D01*
X78567Y284200D01*
X78656Y283809D01*
X78779Y283426D01*
X78936Y283056D01*
X79126Y282702D01*
X79171Y282637D01*
X79226Y282580D01*
X79280Y282540D01*
Y267742D01*
X79134Y267681D01*
X78731Y267435D01*
X78372Y267128D01*
X78065Y266769D01*
X77901Y266500D01*
X71495D01*
Y280753D01*
G37*
G36*
Y292164D02*X71500Y292169D01*
Y289249D01*
X71495Y289247D01*
Y292164D01*
G37*
G36*
Y340267D02*X71731Y340065D01*
X72000Y339901D01*
Y339059D01*
X71995Y339000D01*
X72014Y338765D01*
X72069Y338535D01*
X72159Y338317D01*
X72283Y338116D01*
X72436Y337936D01*
X72481Y337898D01*
X74500Y335879D01*
Y302121D01*
X71981Y299602D01*
X71936Y299564D01*
X71783Y299384D01*
X71659Y299183D01*
X71569Y298965D01*
X71514Y298735D01*
X71514Y298735D01*
X71495Y298500D01*
X71500Y298441D01*
Y297831D01*
X71495Y297836D01*
Y340267D01*
G37*
G36*
Y357500D02*X93000D01*
Y353000D01*
X80059D01*
X80000Y353005D01*
X79765Y352986D01*
X79535Y352931D01*
X79317Y352841D01*
X79116Y352717D01*
X79115Y352717D01*
X78936Y352564D01*
X78898Y352519D01*
X76981Y350602D01*
X76936Y350564D01*
X76783Y350384D01*
X76659Y350183D01*
X76569Y349965D01*
X76514Y349735D01*
X76514Y349735D01*
X76495Y349500D01*
X76500Y349441D01*
Y349099D01*
X76231Y348935D01*
X75872Y348628D01*
X75565Y348269D01*
X75319Y347866D01*
X75138Y347430D01*
X75028Y346971D01*
X74991Y346500D01*
X75028Y346029D01*
X75138Y345570D01*
X75319Y345134D01*
X75565Y344731D01*
X75872Y344372D01*
X76231Y344065D01*
X76500Y343901D01*
Y342500D01*
X76472Y342971D01*
X76362Y343430D01*
X76181Y343866D01*
X75935Y344269D01*
X75628Y344628D01*
X75269Y344935D01*
X74866Y345181D01*
X74430Y345362D01*
X73971Y345472D01*
X73500Y345509D01*
X73029Y345472D01*
X72570Y345362D01*
X72134Y345181D01*
X71731Y344935D01*
X71495Y344733D01*
Y357500D01*
G37*
G36*
X60487Y256274D02*X60731Y256065D01*
X61134Y255819D01*
X61570Y255638D01*
X62029Y255528D01*
X62500Y255491D01*
X62971Y255528D01*
X63430Y255638D01*
X63866Y255819D01*
X64269Y256065D01*
X64628Y256372D01*
X64935Y256731D01*
X65181Y257134D01*
X65362Y257570D01*
X65472Y258029D01*
X65500Y258500D01*
X65472Y258971D01*
X65362Y259430D01*
X65181Y259866D01*
X64935Y260269D01*
X64628Y260628D01*
X64269Y260935D01*
X64000Y261099D01*
Y262379D01*
X65121Y263500D01*
X71495D01*
Y216000D01*
X60487D01*
Y256274D01*
G37*
G36*
Y357500D02*X71495D01*
Y344733D01*
X71372Y344628D01*
X71065Y344269D01*
X70819Y343866D01*
X70638Y343430D01*
X70528Y342971D01*
X70491Y342500D01*
X70528Y342029D01*
X70638Y341570D01*
X70819Y341134D01*
X71065Y340731D01*
X71372Y340372D01*
X71495Y340267D01*
Y297836D01*
X71192Y298192D01*
X70653Y298652D01*
X70049Y299022D01*
X69395Y299293D01*
X68706Y299458D01*
X68000Y299514D01*
X67294Y299458D01*
X66605Y299293D01*
X65951Y299022D01*
X65347Y298652D01*
X64808Y298192D01*
X64348Y297653D01*
X63978Y297049D01*
X63707Y296395D01*
X63542Y295706D01*
X63486Y295000D01*
X63542Y294294D01*
X63707Y293605D01*
X63978Y292951D01*
X64348Y292347D01*
X64808Y291808D01*
X65347Y291348D01*
X65951Y290978D01*
X66605Y290707D01*
X67294Y290542D01*
X68000Y290486D01*
X68706Y290542D01*
X69395Y290707D01*
X70049Y290978D01*
X70653Y291348D01*
X71192Y291808D01*
X71495Y292164D01*
Y289247D01*
X70951Y289022D01*
X70347Y288652D01*
X69808Y288192D01*
X69348Y287653D01*
X68978Y287049D01*
X68707Y286395D01*
X68542Y285706D01*
X68486Y285000D01*
X68542Y284294D01*
X68707Y283605D01*
X68978Y282951D01*
X69348Y282347D01*
X69808Y281808D01*
X70347Y281348D01*
X70951Y280978D01*
X71495Y280753D01*
Y266500D01*
X64559D01*
X64500Y266505D01*
X64265Y266486D01*
X64035Y266431D01*
X63817Y266341D01*
X63616Y266217D01*
X63615Y266217D01*
X63436Y266064D01*
X63398Y266019D01*
X61481Y264102D01*
X61436Y264064D01*
X61283Y263884D01*
X61159Y263683D01*
X61069Y263465D01*
X61014Y263235D01*
X61014Y263235D01*
X60995Y263000D01*
X61000Y262941D01*
Y261099D01*
X60731Y260935D01*
X60487Y260726D01*
Y311776D01*
X60500Y311775D01*
X61787Y311876D01*
X63042Y312177D01*
X64234Y312671D01*
X65335Y313346D01*
X66316Y314184D01*
X67154Y315165D01*
X67829Y316266D01*
X68323Y317458D01*
X68624Y318713D01*
X68700Y320000D01*
X68624Y321287D01*
X68323Y322542D01*
X67829Y323734D01*
X67154Y324835D01*
X66316Y325816D01*
X65335Y326654D01*
X64234Y327329D01*
X63042Y327823D01*
X61787Y328124D01*
X60500Y328225D01*
X60487Y328224D01*
Y357500D01*
G37*
G36*
X43495D02*X60487D01*
Y328224D01*
X59213Y328124D01*
X57958Y327823D01*
X56766Y327329D01*
X55665Y326654D01*
X54684Y325816D01*
X53846Y324835D01*
X53171Y323734D01*
X52677Y322542D01*
X52376Y321287D01*
X52275Y320000D01*
X52376Y318713D01*
X52677Y317458D01*
X53171Y316266D01*
X53846Y315165D01*
X54684Y314184D01*
X55665Y313346D01*
X56766Y312671D01*
X57958Y312177D01*
X59213Y311876D01*
X60487Y311776D01*
Y260726D01*
X60372Y260628D01*
X60065Y260269D01*
X59819Y259866D01*
X59638Y259430D01*
X59528Y258971D01*
X59491Y258500D01*
X59528Y258029D01*
X59638Y257570D01*
X59819Y257134D01*
X60065Y256731D01*
X60372Y256372D01*
X60487Y256274D01*
Y216000D01*
X43495D01*
Y262669D01*
X43570Y262638D01*
X44029Y262528D01*
X44500Y262491D01*
X44971Y262528D01*
X45430Y262638D01*
X45866Y262819D01*
X46269Y263065D01*
X46628Y263372D01*
X46935Y263731D01*
X47181Y264134D01*
X47362Y264570D01*
X47472Y265029D01*
X47500Y265500D01*
X47472Y265971D01*
X47362Y266430D01*
X47181Y266866D01*
X46935Y267269D01*
X46628Y267628D01*
X46269Y267935D01*
X45866Y268181D01*
X45430Y268362D01*
X44971Y268472D01*
X44500Y268509D01*
X44029Y268472D01*
X44000Y268465D01*
Y306401D01*
X44269Y306565D01*
X44628Y306872D01*
X44935Y307231D01*
X45181Y307634D01*
X45362Y308070D01*
X45472Y308529D01*
X45500Y309000D01*
X45472Y309471D01*
X45362Y309930D01*
X45181Y310366D01*
X44935Y310769D01*
X44628Y311128D01*
X44269Y311435D01*
X43866Y311681D01*
X43495Y311835D01*
Y357500D01*
G37*
G36*
X34992D02*X43495D01*
Y311835D01*
X43430Y311862D01*
X42971Y311972D01*
X42500Y312009D01*
X42029Y311972D01*
X41570Y311862D01*
X41134Y311681D01*
X40731Y311435D01*
X40372Y311128D01*
X40065Y310769D01*
X39819Y310366D01*
X39638Y309930D01*
X39528Y309471D01*
X39491Y309000D01*
X39528Y308529D01*
X39638Y308070D01*
X39819Y307634D01*
X40065Y307231D01*
X40372Y306872D01*
X40731Y306565D01*
X41000Y306401D01*
Y267559D01*
X40995Y267500D01*
X41014Y267265D01*
X41069Y267035D01*
X41159Y266817D01*
X41283Y266616D01*
X41283Y266615D01*
X41436Y266436D01*
X41481Y266398D01*
X41601Y266277D01*
X41528Y265971D01*
X41491Y265500D01*
X41528Y265029D01*
X41638Y264570D01*
X41819Y264134D01*
X42065Y263731D01*
X42372Y263372D01*
X42731Y263065D01*
X43134Y262819D01*
X43495Y262669D01*
Y216000D01*
X34992D01*
Y219984D01*
X35000Y219983D01*
X35863Y220051D01*
X36705Y220253D01*
X37505Y220584D01*
X38243Y221037D01*
X38901Y221599D01*
X39463Y222257D01*
X39916Y222995D01*
X40247Y223795D01*
X40449Y224637D01*
X40500Y225500D01*
X40449Y226363D01*
X40247Y227205D01*
X39916Y228005D01*
X39463Y228743D01*
X38901Y229401D01*
X38243Y229963D01*
X37505Y230416D01*
X37301Y230500D01*
X37505Y230584D01*
X38243Y231037D01*
X38901Y231599D01*
X39463Y232257D01*
X39916Y232995D01*
X40247Y233795D01*
X40449Y234637D01*
X40500Y235500D01*
X40449Y236363D01*
X40247Y237205D01*
X39916Y238005D01*
X39463Y238743D01*
X38901Y239401D01*
X38243Y239963D01*
X37505Y240416D01*
X37301Y240500D01*
X37505Y240584D01*
X38243Y241037D01*
X38901Y241599D01*
X39463Y242257D01*
X39916Y242995D01*
X40247Y243795D01*
X40449Y244637D01*
X40500Y245500D01*
X40449Y246363D01*
X40247Y247205D01*
X39916Y248005D01*
X39463Y248743D01*
X38901Y249401D01*
X38243Y249963D01*
X37505Y250416D01*
X37301Y250500D01*
X37505Y250584D01*
X38243Y251037D01*
X38901Y251599D01*
X39463Y252257D01*
X39916Y252995D01*
X40247Y253795D01*
X40449Y254637D01*
X40500Y255500D01*
X40449Y256363D01*
X40247Y257205D01*
X39916Y258005D01*
X39463Y258743D01*
X38901Y259401D01*
X38243Y259963D01*
X37505Y260416D01*
X37301Y260500D01*
X37505Y260584D01*
X38243Y261037D01*
X38901Y261599D01*
X39463Y262257D01*
X39916Y262995D01*
X40247Y263795D01*
X40449Y264637D01*
X40500Y265500D01*
X40449Y266363D01*
X40247Y267205D01*
X39916Y268005D01*
X39463Y268743D01*
X38901Y269401D01*
X38243Y269963D01*
X37505Y270416D01*
X37301Y270500D01*
X37505Y270584D01*
X38243Y271037D01*
X38901Y271599D01*
X39463Y272257D01*
X39916Y272995D01*
X40247Y273795D01*
X40449Y274637D01*
X40500Y275500D01*
X40449Y276363D01*
X40247Y277205D01*
X39916Y278005D01*
X39463Y278743D01*
X38901Y279401D01*
X38243Y279963D01*
X37505Y280416D01*
X37301Y280500D01*
X37505Y280584D01*
X38243Y281037D01*
X38901Y281599D01*
X39463Y282257D01*
X39916Y282995D01*
X40247Y283795D01*
X40449Y284637D01*
X40500Y285500D01*
X40449Y286363D01*
X40247Y287205D01*
X39916Y288005D01*
X39463Y288743D01*
X38901Y289401D01*
X38243Y289963D01*
X38163Y290012D01*
X39235Y290014D01*
X39465Y290069D01*
X39683Y290159D01*
X39884Y290283D01*
X40064Y290436D01*
X40217Y290616D01*
X40341Y290817D01*
X40431Y291035D01*
X40486Y291265D01*
X40500Y291500D01*
X40486Y299735D01*
X40431Y299965D01*
X40341Y300183D01*
X40217Y300384D01*
X40064Y300564D01*
X39884Y300717D01*
X39683Y300841D01*
X39465Y300931D01*
X39235Y300986D01*
X39000Y301000D01*
X34992Y300993D01*
Y357500D01*
G37*
G36*
X22978D02*X34992D01*
Y300993D01*
X30765Y300986D01*
X30535Y300931D01*
X30317Y300841D01*
X30116Y300717D01*
X29936Y300564D01*
X29783Y300384D01*
X29659Y300183D01*
X29569Y299965D01*
X29514Y299735D01*
X29500Y299500D01*
X29514Y291265D01*
X29569Y291035D01*
X29659Y290817D01*
X29783Y290616D01*
X29936Y290436D01*
X30116Y290283D01*
X30317Y290159D01*
X30535Y290069D01*
X30765Y290014D01*
X31000Y290000D01*
X31819Y290001D01*
X31757Y289963D01*
X31099Y289401D01*
X30537Y288743D01*
X30084Y288005D01*
X29753Y287205D01*
X29551Y286363D01*
X29483Y285500D01*
X29551Y284637D01*
X29753Y283795D01*
X30084Y282995D01*
X30537Y282257D01*
X31099Y281599D01*
X31757Y281037D01*
X32495Y280584D01*
X32699Y280500D01*
X32495Y280416D01*
X31757Y279963D01*
X31099Y279401D01*
X30537Y278743D01*
X30084Y278005D01*
X29753Y277205D01*
X29551Y276363D01*
X29483Y275500D01*
X29551Y274637D01*
X29753Y273795D01*
X30084Y272995D01*
X30537Y272257D01*
X31099Y271599D01*
X31757Y271037D01*
X32495Y270584D01*
X32699Y270500D01*
X32495Y270416D01*
X31757Y269963D01*
X31099Y269401D01*
X30537Y268743D01*
X30084Y268005D01*
X29753Y267205D01*
X29551Y266363D01*
X29483Y265500D01*
X29551Y264637D01*
X29753Y263795D01*
X30084Y262995D01*
X30537Y262257D01*
X31099Y261599D01*
X31757Y261037D01*
X32495Y260584D01*
X32699Y260500D01*
X32495Y260416D01*
X31757Y259963D01*
X31099Y259401D01*
X30537Y258743D01*
X30084Y258005D01*
X29753Y257205D01*
X29551Y256363D01*
X29483Y255500D01*
X29551Y254637D01*
X29753Y253795D01*
X30084Y252995D01*
X30537Y252257D01*
X31099Y251599D01*
X31757Y251037D01*
X32495Y250584D01*
X32699Y250500D01*
X32495Y250416D01*
X31757Y249963D01*
X31099Y249401D01*
X30537Y248743D01*
X30084Y248005D01*
X29753Y247205D01*
X29551Y246363D01*
X29483Y245500D01*
X29551Y244637D01*
X29753Y243795D01*
X30084Y242995D01*
X30537Y242257D01*
X31099Y241599D01*
X31757Y241037D01*
X32495Y240584D01*
X32699Y240500D01*
X32495Y240416D01*
X31757Y239963D01*
X31099Y239401D01*
X30537Y238743D01*
X30084Y238005D01*
X29753Y237205D01*
X29551Y236363D01*
X29483Y235500D01*
X29551Y234637D01*
X29753Y233795D01*
X30084Y232995D01*
X30537Y232257D01*
X31099Y231599D01*
X31757Y231037D01*
X32495Y230584D01*
X32699Y230500D01*
X32495Y230416D01*
X31757Y229963D01*
X31099Y229401D01*
X30537Y228743D01*
X30084Y228005D01*
X29753Y227205D01*
X29551Y226363D01*
X29483Y225500D01*
X29551Y224637D01*
X29753Y223795D01*
X30084Y222995D01*
X30537Y222257D01*
X31099Y221599D01*
X31757Y221037D01*
X32495Y220584D01*
X33295Y220253D01*
X34137Y220051D01*
X34992Y219984D01*
Y216000D01*
X3000D01*
Y335829D01*
X4272Y333753D01*
X5876Y331876D01*
X7753Y330272D01*
X9858Y328982D01*
X12138Y328038D01*
X14539Y327461D01*
X17000Y327268D01*
X19461Y327461D01*
X21862Y328038D01*
X24142Y328982D01*
X26247Y330272D01*
X28124Y331876D01*
X29728Y333753D01*
X31018Y335858D01*
X31962Y338138D01*
X32539Y340539D01*
X32684Y343000D01*
X32539Y345461D01*
X31962Y347862D01*
X31018Y350142D01*
X29728Y352247D01*
X28124Y354124D01*
X26247Y355728D01*
X24142Y357018D01*
X22978Y357500D01*
G37*
G36*
X159000Y303500D02*X153500D01*
Y342441D01*
X153505Y342500D01*
X153486Y342735D01*
X153431Y342965D01*
X153341Y343183D01*
X153217Y343384D01*
X153064Y343564D01*
X153019Y343602D01*
X149102Y347519D01*
X149064Y347564D01*
X148884Y347717D01*
X148683Y347841D01*
X148465Y347931D01*
X148235Y347986D01*
X148235Y347986D01*
X148000Y348005D01*
X147941Y348000D01*
X106599D01*
X106435Y348269D01*
X106128Y348628D01*
X105769Y348935D01*
X105366Y349181D01*
X104930Y349362D01*
X104471Y349472D01*
X104000Y349509D01*
X103529Y349472D01*
X103070Y349362D01*
X102634Y349181D01*
X102231Y348935D01*
X101872Y348628D01*
X101565Y348269D01*
X101319Y347866D01*
X101138Y347430D01*
X101028Y346971D01*
X100991Y346500D01*
X101028Y346029D01*
X101138Y345570D01*
X101319Y345134D01*
X101565Y344731D01*
X101872Y344372D01*
X102231Y344065D01*
X102634Y343819D01*
X103070Y343638D01*
X103529Y343528D01*
X104000Y343491D01*
X104471Y343528D01*
X104930Y343638D01*
X105366Y343819D01*
X105769Y344065D01*
X106128Y344372D01*
X106435Y344731D01*
X106599Y345000D01*
X120838D01*
X120731Y344935D01*
X120372Y344628D01*
X120065Y344269D01*
X119819Y343866D01*
X119638Y343430D01*
X119528Y342971D01*
X119491Y342500D01*
X119528Y342029D01*
X119638Y341570D01*
X119819Y341134D01*
X120065Y340731D01*
X120372Y340372D01*
X120731Y340065D01*
X121134Y339819D01*
X121570Y339638D01*
X122029Y339528D01*
X122500Y339491D01*
X122971Y339528D01*
X123430Y339638D01*
X123866Y339819D01*
X124269Y340065D01*
X124628Y340372D01*
X124935Y340731D01*
X125099Y341000D01*
X147879D01*
X148500Y340379D01*
Y303500D01*
X100487D01*
Y311776D01*
X100500Y311775D01*
X101787Y311876D01*
X103042Y312177D01*
X104234Y312671D01*
X105335Y313346D01*
X106316Y314184D01*
X107154Y315165D01*
X107829Y316266D01*
X108323Y317458D01*
X108624Y318713D01*
X108700Y320000D01*
X108624Y321287D01*
X108323Y322542D01*
X107829Y323734D01*
X107154Y324835D01*
X106316Y325816D01*
X105335Y326654D01*
X104234Y327329D01*
X103042Y327823D01*
X101787Y328124D01*
X100500Y328225D01*
X100487Y328224D01*
Y350000D01*
X111901D01*
X112065Y349731D01*
X112372Y349372D01*
X112731Y349065D01*
X113134Y348819D01*
X113570Y348638D01*
X114029Y348528D01*
X114500Y348491D01*
X114971Y348528D01*
X115430Y348638D01*
X115866Y348819D01*
X116269Y349065D01*
X116628Y349372D01*
X116935Y349731D01*
X117181Y350134D01*
X117362Y350570D01*
X117472Y351029D01*
X117500Y351500D01*
X117472Y351971D01*
X117362Y352430D01*
X117181Y352866D01*
X116935Y353269D01*
X116628Y353628D01*
X116269Y353935D01*
X115866Y354181D01*
X115430Y354362D01*
X114971Y354472D01*
X114500Y354509D01*
X114029Y354472D01*
X113570Y354362D01*
X113134Y354181D01*
X112731Y353935D01*
X112372Y353628D01*
X112065Y353269D01*
X111901Y353000D01*
X100487D01*
Y357500D01*
X159000D01*
Y303500D01*
G37*
G36*
X100487Y353000D02*X86000D01*
Y357500D01*
X100487D01*
Y353000D01*
G37*
G36*
Y303500D02*X86000D01*
Y344263D01*
X86128Y344372D01*
X86435Y344731D01*
X86681Y345134D01*
X86862Y345570D01*
X86972Y346029D01*
X87000Y346500D01*
X86972Y346971D01*
X86862Y347430D01*
X86681Y347866D01*
X86435Y348269D01*
X86128Y348628D01*
X86000Y348737D01*
Y350000D01*
X100487D01*
Y328224D01*
X99213Y328124D01*
X97958Y327823D01*
X96766Y327329D01*
X95665Y326654D01*
X94684Y325816D01*
X93846Y324835D01*
X93171Y323734D01*
X92677Y322542D01*
X92376Y321287D01*
X92275Y320000D01*
X92376Y318713D01*
X92677Y317458D01*
X93171Y316266D01*
X93846Y315165D01*
X94684Y314184D01*
X95665Y313346D01*
X96766Y312671D01*
X97958Y312177D01*
X99213Y311876D01*
X100487Y311776D01*
Y303500D01*
G37*
G36*
X179500Y263644D02*Y263328D01*
X178748Y262576D01*
Y263100D01*
X179153Y263348D01*
X179500Y263644D01*
G37*
G36*
X190113Y309000D02*X196500D01*
Y222500D01*
X190113D01*
Y238023D01*
X190181Y238134D01*
X190362Y238570D01*
X190472Y239029D01*
X190500Y239500D01*
X190472Y239971D01*
X190362Y240430D01*
X190181Y240866D01*
X190113Y240977D01*
Y243523D01*
X190181Y243634D01*
X190362Y244070D01*
X190472Y244529D01*
X190500Y245000D01*
X190472Y245471D01*
X190362Y245930D01*
X190181Y246366D01*
X190113Y246477D01*
Y264853D01*
X190156Y264860D01*
X190268Y264897D01*
X190373Y264952D01*
X190468Y265022D01*
X190551Y265106D01*
X190619Y265202D01*
X190670Y265308D01*
X190818Y265716D01*
X190922Y266137D01*
X190984Y266567D01*
X191005Y267000D01*
X190984Y267433D01*
X190922Y267863D01*
X190818Y268284D01*
X190675Y268694D01*
X190622Y268800D01*
X190553Y268896D01*
X190470Y268981D01*
X190375Y269051D01*
X190269Y269106D01*
X190157Y269143D01*
X190113Y269151D01*
Y274302D01*
X190152Y274347D01*
X190522Y274951D01*
X190793Y275605D01*
X190958Y276294D01*
X191000Y277000D01*
X190958Y277706D01*
X190793Y278395D01*
X190522Y279049D01*
X190152Y279653D01*
X190113Y279698D01*
Y284302D01*
X190152Y284347D01*
X190522Y284951D01*
X190793Y285605D01*
X190958Y286294D01*
X191000Y287000D01*
X190958Y287706D01*
X190793Y288395D01*
X190522Y289049D01*
X190152Y289653D01*
X190113Y289698D01*
Y292860D01*
X190128Y292872D01*
X190435Y293231D01*
X190681Y293634D01*
X190862Y294070D01*
X190972Y294529D01*
X191000Y295000D01*
X190972Y295471D01*
X190862Y295930D01*
X190681Y296366D01*
X190435Y296769D01*
X190128Y297128D01*
X190113Y297140D01*
Y309000D01*
G37*
G36*
Y289698D02*X189692Y290192D01*
X189153Y290652D01*
X188549Y291022D01*
X187895Y291293D01*
X187206Y291458D01*
X186625Y291504D01*
X187223Y292101D01*
X187529Y292028D01*
X188000Y291991D01*
X188471Y292028D01*
X188930Y292138D01*
X189366Y292319D01*
X189769Y292565D01*
X190113Y292860D01*
Y289698D01*
G37*
G36*
Y279698D02*X189692Y280192D01*
X189153Y280652D01*
X188549Y281022D01*
X187895Y281293D01*
X187206Y281458D01*
X186502Y281514D01*
Y282486D01*
X187206Y282542D01*
X187895Y282707D01*
X188549Y282978D01*
X189153Y283348D01*
X189692Y283808D01*
X190113Y284302D01*
Y279698D01*
G37*
G36*
Y246477D02*X189935Y246769D01*
X189628Y247128D01*
X189269Y247435D01*
X188866Y247681D01*
X188430Y247862D01*
X187971Y247972D01*
X187500Y248009D01*
X187029Y247972D01*
X186570Y247862D01*
X186502Y247834D01*
Y262495D01*
X186933Y262516D01*
X187363Y262578D01*
X187784Y262682D01*
X188194Y262825D01*
X188300Y262878D01*
X188396Y262947D01*
X188481Y263030D01*
X188551Y263125D01*
X188606Y263231D01*
X188643Y263343D01*
X188663Y263460D01*
X188664Y263579D01*
X188646Y263696D01*
X188610Y263809D01*
X188557Y263915D01*
X188488Y264012D01*
X188405Y264096D01*
X188309Y264167D01*
X188204Y264221D01*
X188092Y264259D01*
X187975Y264278D01*
X187856Y264279D01*
X187739Y264261D01*
X187626Y264223D01*
X187355Y264124D01*
X187075Y264056D01*
X186789Y264014D01*
X186502Y264000D01*
Y270000D01*
X186789Y269986D01*
X187075Y269944D01*
X187355Y269876D01*
X187628Y269780D01*
X187739Y269742D01*
X187856Y269725D01*
X187974Y269725D01*
X188091Y269745D01*
X188203Y269782D01*
X188307Y269836D01*
X188402Y269906D01*
X188485Y269991D01*
X188554Y270087D01*
X188607Y270192D01*
X188643Y270305D01*
X188660Y270421D01*
X188659Y270539D01*
X188640Y270656D01*
X188603Y270768D01*
X188548Y270873D01*
X188478Y270968D01*
X188394Y271051D01*
X188298Y271119D01*
X188192Y271170D01*
X187784Y271318D01*
X187363Y271422D01*
X186933Y271484D01*
X186502Y271505D01*
Y272486D01*
X187206Y272542D01*
X187895Y272707D01*
X188549Y272978D01*
X189153Y273348D01*
X189692Y273808D01*
X190113Y274302D01*
Y269151D01*
X190040Y269163D01*
X189921Y269164D01*
X189804Y269146D01*
X189691Y269110D01*
X189585Y269057D01*
X189488Y268988D01*
X189404Y268905D01*
X189333Y268809D01*
X189279Y268704D01*
X189241Y268592D01*
X189222Y268475D01*
X189221Y268356D01*
X189239Y268239D01*
X189277Y268126D01*
X189376Y267855D01*
X189444Y267575D01*
X189486Y267289D01*
X189500Y267000D01*
X189486Y266711D01*
X189444Y266425D01*
X189376Y266145D01*
X189280Y265872D01*
X189242Y265761D01*
X189225Y265644D01*
X189225Y265526D01*
X189245Y265409D01*
X189282Y265297D01*
X189336Y265193D01*
X189406Y265098D01*
X189491Y265015D01*
X189587Y264946D01*
X189692Y264893D01*
X189805Y264857D01*
X189921Y264840D01*
X190039Y264841D01*
X190113Y264853D01*
Y246477D01*
G37*
G36*
Y240977D02*X189935Y241269D01*
X189628Y241628D01*
X189269Y241935D01*
X188866Y242181D01*
X188700Y242250D01*
X188866Y242319D01*
X189269Y242565D01*
X189628Y242872D01*
X189935Y243231D01*
X190113Y243523D01*
Y240977D01*
G37*
G36*
Y222500D02*X186502D01*
Y236666D01*
X186570Y236638D01*
X187029Y236528D01*
X187500Y236491D01*
X187971Y236528D01*
X188430Y236638D01*
X188866Y236819D01*
X189269Y237065D01*
X189628Y237372D01*
X189935Y237731D01*
X190113Y238023D01*
Y222500D01*
G37*
G36*
X186502Y309000D02*X190113D01*
Y297140D01*
X189769Y297435D01*
X189366Y297681D01*
X188930Y297862D01*
X188471Y297972D01*
X188000Y298009D01*
X187529Y297972D01*
X187070Y297862D01*
X186634Y297681D01*
X186502Y297600D01*
Y309000D01*
G37*
G36*
Y281514D02*X186500Y281514D01*
X185794Y281458D01*
X185105Y281293D01*
X184451Y281022D01*
X183847Y280652D01*
X183500Y280356D01*
Y281172D01*
X185056Y282727D01*
X185105Y282707D01*
X185794Y282542D01*
X186500Y282486D01*
X186502Y282486D01*
Y281514D01*
G37*
G36*
Y247834D02*X186134Y247681D01*
X185731Y247435D01*
X185438Y247184D01*
X178748Y253874D01*
Y256510D01*
X178971Y256528D01*
X179430Y256638D01*
X179866Y256819D01*
X180269Y257065D01*
X180628Y257372D01*
X180935Y257731D01*
X181181Y258134D01*
X181362Y258570D01*
X181472Y259029D01*
X181500Y259500D01*
X181490Y259662D01*
X182859Y261030D01*
X182919Y261081D01*
X183123Y261320D01*
X183123Y261321D01*
X183288Y261589D01*
X183408Y261880D01*
X183481Y262186D01*
X183506Y262500D01*
X183500Y262578D01*
Y265004D01*
X183512Y265012D01*
X183596Y265095D01*
X183667Y265191D01*
X183721Y265296D01*
X183759Y265408D01*
X183778Y265525D01*
X183779Y265644D01*
X183761Y265761D01*
X183723Y265874D01*
X183624Y266145D01*
X183556Y266425D01*
X183514Y266711D01*
X183500Y267000D01*
X183514Y267289D01*
X183556Y267575D01*
X183624Y267855D01*
X183720Y268128D01*
X183758Y268239D01*
X183775Y268356D01*
X183775Y268474D01*
X183755Y268591D01*
X183718Y268703D01*
X183664Y268807D01*
X183594Y268902D01*
X183509Y268985D01*
X183500Y268992D01*
Y273644D01*
X183847Y273348D01*
X184451Y272978D01*
X185105Y272707D01*
X185794Y272542D01*
X186500Y272486D01*
X186502Y272486D01*
Y271505D01*
X186500Y271505D01*
X186067Y271484D01*
X185637Y271422D01*
X185216Y271318D01*
X184806Y271175D01*
X184700Y271122D01*
X184604Y271053D01*
X184519Y270970D01*
X184449Y270875D01*
X184394Y270769D01*
X184357Y270657D01*
X184337Y270540D01*
X184336Y270421D01*
X184354Y270304D01*
X184390Y270191D01*
X184443Y270085D01*
X184512Y269988D01*
X184595Y269904D01*
X184691Y269833D01*
X184796Y269779D01*
X184908Y269741D01*
X185025Y269722D01*
X185144Y269721D01*
X185261Y269739D01*
X185374Y269777D01*
X185645Y269876D01*
X185925Y269944D01*
X186211Y269986D01*
X186500Y270000D01*
X186502Y270000D01*
Y264000D01*
X186500Y264000D01*
X186211Y264014D01*
X185925Y264056D01*
X185645Y264124D01*
X185372Y264220D01*
X185261Y264258D01*
X185144Y264275D01*
X185026Y264275D01*
X184909Y264255D01*
X184797Y264218D01*
X184693Y264164D01*
X184598Y264094D01*
X184515Y264009D01*
X184446Y263913D01*
X184393Y263808D01*
X184357Y263695D01*
X184340Y263579D01*
X184341Y263461D01*
X184360Y263344D01*
X184397Y263232D01*
X184452Y263127D01*
X184522Y263032D01*
X184606Y262949D01*
X184702Y262881D01*
X184808Y262830D01*
X185216Y262682D01*
X185637Y262578D01*
X186067Y262516D01*
X186500Y262495D01*
X186502Y262495D01*
Y247834D01*
G37*
G36*
Y222500D02*X178748D01*
Y246131D01*
X184601Y240277D01*
X184528Y239971D01*
X184491Y239500D01*
X184528Y239029D01*
X184638Y238570D01*
X184819Y238134D01*
X185065Y237731D01*
X185372Y237372D01*
X185731Y237065D01*
X186134Y236819D01*
X186502Y236666D01*
Y222500D01*
G37*
G36*
X178748Y309000D02*X186502D01*
Y297600D01*
X186231Y297435D01*
X185872Y297128D01*
X185565Y296769D01*
X185319Y296366D01*
X185138Y295930D01*
X185028Y295471D01*
X184991Y295000D01*
X185028Y294529D01*
X185101Y294223D01*
X184879Y294000D01*
X178748D01*
Y295511D01*
X179000Y295491D01*
X179471Y295528D01*
X179930Y295638D01*
X180366Y295819D01*
X180769Y296065D01*
X181128Y296372D01*
X181435Y296731D01*
X181681Y297134D01*
X181862Y297570D01*
X181972Y298029D01*
X182000Y298500D01*
X181972Y298971D01*
X181862Y299430D01*
X181681Y299866D01*
X181435Y300269D01*
X181128Y300628D01*
X180769Y300935D01*
X180366Y301181D01*
X179930Y301362D01*
X179471Y301472D01*
X179000Y301509D01*
X178748Y301489D01*
Y309000D01*
G37*
G36*
Y294000D02*X172059D01*
X172000Y294005D01*
X171765Y293986D01*
X171535Y293931D01*
X171317Y293841D01*
X171116Y293717D01*
X171115Y293717D01*
X170936Y293564D01*
X170898Y293519D01*
X169500Y292121D01*
Y294879D01*
X171621Y297000D01*
X176401D01*
X176565Y296731D01*
X176872Y296372D01*
X177231Y296065D01*
X177634Y295819D01*
X178070Y295638D01*
X178529Y295528D01*
X178748Y295511D01*
Y294000D01*
G37*
G36*
Y262576D02*X178668Y262496D01*
X178500Y262509D01*
X178029Y262472D01*
X177570Y262362D01*
X177134Y262181D01*
X176731Y261935D01*
X176372Y261628D01*
X176065Y261269D01*
X175819Y260866D01*
X175638Y260430D01*
X175528Y259971D01*
X175491Y259500D01*
X175528Y259029D01*
X175638Y258570D01*
X175819Y258134D01*
X176065Y257731D01*
X176372Y257372D01*
X176731Y257065D01*
X177134Y256819D01*
X177570Y256638D01*
X178029Y256528D01*
X178500Y256491D01*
X178748Y256510D01*
Y253874D01*
X172000Y260621D01*
Y266824D01*
X172042Y266294D01*
X172207Y265605D01*
X172478Y264951D01*
X172848Y264347D01*
X173308Y263808D01*
X173847Y263348D01*
X174451Y262978D01*
X175105Y262707D01*
X175794Y262542D01*
X176500Y262486D01*
X177206Y262542D01*
X177895Y262707D01*
X178549Y262978D01*
X178748Y263100D01*
Y262576D01*
G37*
G36*
X153500Y309000D02*X178748D01*
Y301489D01*
X178529Y301472D01*
X178070Y301362D01*
X177634Y301181D01*
X177231Y300935D01*
X176872Y300628D01*
X176565Y300269D01*
X176401Y300000D01*
X171059D01*
X171000Y300005D01*
X170765Y299986D01*
X170535Y299931D01*
X170317Y299841D01*
X170116Y299717D01*
X170115Y299717D01*
X169936Y299564D01*
X169898Y299519D01*
X166981Y296602D01*
X166936Y296564D01*
X166783Y296384D01*
X166659Y296183D01*
X166569Y295965D01*
X166514Y295735D01*
X166514Y295735D01*
X166495Y295500D01*
X166500Y295441D01*
Y290500D01*
X166500Y290500D01*
Y259059D01*
X166495Y259000D01*
X166514Y258765D01*
X166569Y258535D01*
X166659Y258317D01*
X166783Y258116D01*
X166783Y258115D01*
X166936Y257936D01*
X166981Y257898D01*
X178748Y246131D01*
Y222500D01*
X151121D01*
X147399Y226223D01*
X147472Y226529D01*
X147500Y227000D01*
X147472Y227471D01*
X147362Y227930D01*
X147181Y228366D01*
X146935Y228769D01*
X146628Y229128D01*
X146269Y229435D01*
X145866Y229681D01*
X145430Y229862D01*
X144971Y229972D01*
X144500Y230009D01*
X144029Y229972D01*
X143570Y229862D01*
X143134Y229681D01*
X143000Y229599D01*
Y273000D01*
X147441D01*
X147500Y272995D01*
X147735Y273014D01*
X147735Y273014D01*
X147965Y273069D01*
X148183Y273159D01*
X148384Y273283D01*
X148564Y273436D01*
X148602Y273481D01*
X153019Y277898D01*
X153064Y277936D01*
X153217Y278115D01*
X153217Y278116D01*
X153341Y278317D01*
X153431Y278535D01*
X153486Y278765D01*
X153505Y279000D01*
X153500Y279059D01*
Y309000D01*
G37*
G36*
X115000Y281000D02*X148500D01*
Y280621D01*
X145879Y278000D01*
X135059D01*
X135000Y278005D01*
X134765Y277986D01*
X134535Y277931D01*
X134317Y277841D01*
X134116Y277717D01*
X134115Y277717D01*
X133936Y277564D01*
X133898Y277519D01*
X131481Y275102D01*
X131436Y275064D01*
X131283Y274884D01*
X131159Y274683D01*
X131069Y274465D01*
X131014Y274235D01*
X131014Y274235D01*
X130995Y274000D01*
X131000Y273941D01*
Y265500D01*
X127099D01*
X126935Y265769D01*
X126628Y266128D01*
X126269Y266435D01*
X125866Y266681D01*
X125430Y266862D01*
X124971Y266972D01*
X124500Y267009D01*
X124029Y266972D01*
X123570Y266862D01*
X123134Y266681D01*
X122731Y266435D01*
X122372Y266128D01*
X122065Y265769D01*
X121901Y265500D01*
X115000D01*
Y281000D01*
G37*
G36*
X98000Y301000D02*X148500D01*
Y280621D01*
X145879Y278000D01*
X135059D01*
X135000Y278005D01*
X134765Y277986D01*
X134535Y277931D01*
X134317Y277841D01*
X134116Y277717D01*
X134115Y277717D01*
X133936Y277564D01*
X133898Y277519D01*
X131481Y275102D01*
X131436Y275064D01*
X131283Y274884D01*
X131159Y274683D01*
X131069Y274465D01*
X131014Y274235D01*
X131014Y274235D01*
X130995Y274000D01*
X131000Y273941D01*
Y265500D01*
X127099D01*
X126935Y265769D01*
X126628Y266128D01*
X126269Y266435D01*
X125866Y266681D01*
X125430Y266862D01*
X124971Y266972D01*
X124500Y267009D01*
X124029Y266972D01*
X123570Y266862D01*
X123134Y266681D01*
X122731Y266435D01*
X122372Y266128D01*
X122065Y265769D01*
X121901Y265500D01*
X103099D01*
X102935Y265769D01*
X102628Y266128D01*
X102269Y266435D01*
X101866Y266681D01*
X101430Y266862D01*
X100971Y266972D01*
X100500Y267009D01*
X100029Y266972D01*
X99570Y266862D01*
X99134Y266681D01*
X98731Y266435D01*
X98372Y266128D01*
X98065Y265769D01*
X98000Y265662D01*
Y301000D01*
G37*
G36*
X3000Y230500D02*X19000D01*
Y189000D01*
X3000D01*
Y230500D01*
G37*
G54D47*X277000Y125000D02*Y160500D01*
G54D48*X194500Y193500D02*X196500Y191500D01*
X194500Y193500D02*X195500Y192500D01*
G54D49*X64500Y22000D02*Y54500D01*
X74500Y69500D02*X81500D01*
X86500Y64500D01*
X64500Y41500D02*X76500D01*
X89500Y54500D01*
X86000Y65000D02*X87250Y63750D01*
X91000Y68500D02*X80000Y79500D01*
X74500D01*
X74000Y92500D02*X93500Y73000D01*
G54D47*X104000Y89000D02*Y86000D01*
X106500Y83500D01*
G54D49*X99000Y68500D02*X91000D01*
X64500Y74500D02*X60000D01*
X57000Y77500D01*
Y89500D01*
X60000Y92500D01*
X74000D01*
X74500Y59500D02*X291500D01*
X87250Y63750D02*X298250D01*
X89500Y54500D02*X291500D01*
X97500Y68500D02*X294000D01*
X93500Y73000D02*X226000D01*
G54D48*X285000Y80000D02*X269000D01*
X268000Y81000D01*
G54D47*X106500Y83500D02*X196000D01*
G54D49*X289000Y54500D02*X301500D01*
G54D48*X271500Y51000D02*X298000D01*
X302500Y46500D01*
X271000Y48500D02*X295000D01*
X300500Y43000D01*
X274000Y48500D02*X230000D01*
X228000Y46500D01*
X150000Y105500D02*X140000D01*
X138000Y103500D01*
Y98000D01*
X128000Y96000D02*X133500D01*
X118000D02*X122000D01*
X126500Y91500D01*
X133500Y96000D02*X136000Y93500D01*
X148000D01*
X150000Y95500D01*
X126500Y91500D02*X151000D01*
X153000Y93500D01*
X150000Y95500D02*Y100500D01*
Y341000D02*Y280000D01*
X146500Y276500D01*
X144500Y222000D02*X146000D01*
X149000Y219000D01*
X150500Y221000D02*X144500Y227000D01*
X122500Y342500D02*X148500D01*
X150000Y341000D01*
X148500Y346000D02*X152000Y342500D01*
X148000Y346500D02*X150000Y344500D01*
X146500Y276500D02*X135000D01*
X132500Y274000D01*
X152000Y342500D02*Y279000D01*
X147500Y274500D01*
X138500D01*
X136500Y272500D01*
X124500Y264000D02*X117500D01*
X136500Y272500D02*Y249500D01*
Y244000D02*X134500D01*
X132500Y246000D01*
Y249000D01*
Y274000D02*Y246000D01*
X78000Y295000D02*Y340500D01*
X80000Y340000D02*Y303000D01*
X88000Y295000D01*
X84000Y346500D02*Y344000D01*
X80000Y340000D01*
X73500Y342500D02*Y339000D01*
X76000Y336500D01*
X78000Y337500D02*Y349500D01*
X80000Y351500D01*
X76000Y336500D02*Y301500D01*
X73000Y298500D01*
X100500Y264000D02*X124000D01*
X73000Y298500D02*Y285000D01*
X42500Y309000D02*Y267500D01*
X44500Y265500D01*
X62500Y258500D02*Y263000D01*
X64500Y265000D01*
X80500D01*
X104000Y346500D02*X148000D01*
X80000Y351500D02*X114500D01*
X187500Y239500D02*X168000Y259000D01*
X187500Y245000D02*X185500D01*
X170500Y260000D01*
X184000Y192000D02*X185500Y193500D01*
X184000Y192000D02*X184750Y192750D01*
X185500Y193500D02*X194500D01*
X144500Y217000D02*X238500D01*
X149000Y219000D02*X237500D01*
X238000Y230500D02*Y222500D01*
X236500Y221000D01*
X150500D01*
X177000Y192000D02*X169000D01*
X157000D02*X171500D01*
X87500Y188000D02*X85500Y190000D01*
Y194000D01*
X181500Y186000D02*X89500D01*
X86750Y188750D01*
X184000Y189500D02*Y192000D01*
Y190000D02*Y188500D01*
X181500Y186000D01*
X168000Y259000D02*Y292500D01*
X170500Y260000D02*Y291000D01*
G54D50*X181500Y282000D02*Y262500D01*
X178500Y259500D01*
G54D48*X185500Y292500D02*X188000Y295000D01*
X179000Y298500D02*X171000D01*
X168000Y295500D01*
Y290500D01*
X170500Y291000D02*X172000Y292500D01*
X185500D01*
G54D50*X186500Y287000D02*X181500Y282000D01*
G54D51*X304000Y294000D02*X232500D01*
G54D48*X255500Y288000D02*X286500D01*
X265000Y284000D02*X291000D01*
X295000Y288000D01*
X241000D02*X238000Y285000D01*
X261000Y273500D02*X265000Y277500D01*
X269000Y327000D02*X263500Y321500D01*
G54D47*X304000Y294000D02*Y264500D01*
X311000Y312500D02*Y278000D01*
Y277500D02*Y268500D01*
X169000Y317000D02*X306500D01*
X311000Y312500D01*
G54D48*X263500Y321500D02*X187000D01*
X185000Y323500D01*
X238500Y217000D02*X245000Y223500D01*
X237500Y219000D02*X240000Y221500D01*
Y226500D01*
X242000Y228500D01*
X245000D01*
X244500Y233500D02*X241000D01*
X238000Y230500D01*
X265000Y277500D02*X292000D01*
X251000Y273500D02*X261000D01*
G54D47*X304000Y264500D02*X302500Y263000D01*
X302000Y262500D02*X304000Y264500D01*
X302000Y262500D02*X253000D01*
G54D48*X254000Y278000D02*X259000D01*
X265000Y284000D01*
X257000Y288000D02*X241000D01*
X247500Y105500D02*X237500D01*
X235500Y103500D01*
Y98000D01*
X225500Y96000D02*X231000D01*
X233500Y93500D01*
X245500D01*
X247500Y95500D01*
Y100500D01*
X248500Y91500D02*X250500Y93500D01*
X224000Y91500D02*X248500D01*
X268000Y81000D02*Y89000D01*
X267000Y90000D01*
X258000D01*
X256000Y92000D01*
X257000Y91000D01*
G54D49*X224000Y73000D02*X297000D01*
X314500Y64500D02*X306500D01*
X301500Y59500D01*
X287000D01*
G54D48*X275500Y51000D02*X224000D01*
X222000Y49000D01*
X215500Y96000D02*X219500D01*
G54D47*X191500Y87000D02*Y116000D01*
X196500Y121000D01*
X196000Y83500D02*X198000Y85500D01*
Y89000D01*
X191500Y88000D02*Y83500D01*
G54D48*X219500Y96000D02*X224000Y91500D01*
G54D47*X196500Y121000D02*X273000D01*
X277000Y125000D01*
G54D48*X247500Y111000D02*X254500D01*
X256000Y109500D01*
Y92000D01*
G54D49*X298250Y63750D02*X309000Y74500D01*
X301500Y54500D02*X316500Y39500D01*
G54D48*X306750Y36750D02*X298500Y45000D01*
X299500Y49500D02*X308000Y41000D01*
G54D49*X309000Y74500D02*X314500D01*
X316500Y39500D02*X330000D01*
X333500Y43000D01*
G54D48*X331750Y36750D02*X306750D01*
G54D49*X333500Y43000D02*Y76500D01*
G54D48*X336500Y78000D02*Y41500D01*
X328500Y86000D02*X336500Y78000D01*
G54D49*X333500Y76500D02*X330500Y79500D01*
X324500D01*
G54D48*X314500Y84500D02*X320500D01*
X322000Y86000D01*
X328500D01*
X336500Y41500D02*X331750Y36750D01*
G54D46*G36*
X61500Y25000D02*Y19000D01*
X67500D01*
Y25000D01*
X61500D01*
G37*
G54D52*X54500Y22000D03*
G54D53*X64500Y84500D03*
X74500Y79500D03*
X64500Y74500D03*
X74500Y69500D03*
X64500Y64500D03*
X74500Y59500D03*
X64500Y54500D03*
X74500Y49500D03*
G54D46*G36*
X92000Y26000D02*Y18000D01*
X100000D01*
Y26000D01*
X92000D01*
G37*
G54D54*X116000Y22000D03*
X136000D03*
G54D55*X373000Y17000D03*
G54D46*G36*
X173500Y290000D02*Y284000D01*
X179500D01*
Y290000D01*
X173500D01*
G37*
G54D52*X176500Y277000D03*
Y267000D03*
X186500Y287000D03*
Y277000D03*
Y267000D03*
G54D53*X93000Y285000D03*
X83000D03*
X73000D03*
X88000Y295000D03*
X78000D03*
X68000D03*
G54D56*X100500Y320000D03*
X60500D03*
G54D46*G36*
X31000Y299500D02*Y291500D01*
X39000D01*
Y299500D01*
X31000D01*
G37*
G54D54*X35000Y285500D03*
Y275500D03*
Y265500D03*
Y255500D03*
X294000Y332500D03*
X242500D03*
G54D46*G36*
X265500Y340500D02*Y333500D01*
X272500D01*
Y340500D01*
X265500D01*
G37*
G54D53*X269000Y327000D03*
Y317000D03*
G54D46*G36*
X165500Y340500D02*Y333500D01*
X172500D01*
Y340500D01*
X165500D01*
G37*
G54D53*X169000Y327000D03*
Y317000D03*
G54D46*G36*
X188500Y336500D02*Y328500D01*
X196500D01*
Y336500D01*
X188500D01*
G37*
G54D53*X324500Y49500D03*
G54D56*X349500Y44500D03*
G54D53*X314500Y54500D03*
X324500Y59500D03*
Y69500D03*
Y79500D03*
G54D56*X349500Y89500D03*
G54D53*X314500Y64500D03*
Y74500D03*
Y84500D03*
G54D46*G36*
X271000Y26000D02*Y18000D01*
X279000D01*
Y26000D01*
X271000D01*
G37*
G54D57*X277000Y160500D03*
X287000D03*
G54D46*G36*
X293063Y164437D02*Y156563D01*
X300937D01*
Y164437D01*
X293063D01*
G37*
G54D54*X295000Y22000D03*
G54D55*X17000Y17000D03*
Y343000D03*
G54D54*X35000Y245500D03*
Y235500D03*
Y225500D03*
G54D46*G36*
X31000Y207500D02*Y199500D01*
X39000D01*
Y207500D01*
X31000D01*
G37*
G54D54*X35000Y183500D03*
G54D56*X39500Y89500D03*
Y44500D03*
G54D55*X373000Y343000D03*
G54D46*G36*
X340000Y336500D02*Y328500D01*
X348000D01*
Y336500D01*
X340000D01*
G37*
G36*
X351000Y187500D02*Y179500D01*
X359000D01*
Y187500D01*
X351000D01*
G37*
G54D54*X355000Y203500D03*
G54D46*G36*
X351000Y229500D02*Y221500D01*
X359000D01*
Y229500D01*
X351000D01*
G37*
G54D54*X355000Y235500D03*
Y245500D03*
Y255500D03*
Y265500D03*
Y275500D03*
Y285500D03*
Y295500D03*
G54D47*X288500Y68500D03*
X294000D03*
X291000Y73000D03*
X297000D03*
X285000Y80000D03*
X308000Y41000D03*
X247500Y105500D03*
X235500Y98000D03*
X247500Y100500D03*
Y111000D03*
X250500Y93500D03*
X244000Y79000D03*
X250000D03*
Y85000D03*
X256000Y79000D03*
X262000D03*
X256000Y85000D03*
X262000D03*
X270000Y106000D03*
Y112000D03*
X276000D03*
X282000D03*
X276000Y106000D03*
X282000D03*
X208000Y17000D03*
X228000Y46500D03*
X253000Y23500D03*
Y17500D03*
X247000Y23500D03*
Y17500D03*
X253000Y11500D03*
X247000D03*
X112500Y64000D03*
X107500Y68000D03*
X347000Y63500D03*
X353000D03*
X359000D03*
Y69500D03*
X347000D03*
X353000D03*
X178276Y63724D03*
X199500Y59500D03*
X219000D03*
X172000Y68500D03*
X196000Y73000D03*
X225500Y96000D03*
X222000Y49000D03*
X215500Y96000D03*
X202500Y95957D03*
Y101000D03*
X198000Y89000D03*
X128000Y96000D03*
X118000D03*
X105000Y96500D03*
X110000D03*
X104000Y89000D03*
X148500Y78000D03*
X143500D03*
X365000Y122000D03*
X370000D03*
Y117000D03*
X375000Y131000D03*
X365000Y117000D03*
X375000Y136000D03*
X368500Y155500D03*
X373500D03*
X368500Y150500D03*
X373500D03*
X84000Y346500D03*
X73500Y342500D03*
X104000Y346500D03*
X78000D03*
X87000Y310000D03*
Y316000D03*
X71000Y310000D03*
Y316000D03*
X42500Y309000D03*
X13000Y313500D03*
X150000Y105500D03*
X138000Y98000D03*
X150000Y100500D03*
X171000Y104500D03*
X153000Y93500D03*
X138000Y146000D03*
X144000D03*
X150000D03*
X138000Y152000D03*
X144000D03*
X150000D03*
X136000Y297000D03*
Y290500D03*
X136500Y249500D03*
Y244000D03*
X144500Y217000D03*
Y222000D03*
Y227000D03*
X131000Y209000D03*
X138000D03*
X144000D03*
X131000Y203000D03*
X138000D03*
X144000D03*
X114500Y351500D03*
X108000Y235000D03*
X122500Y342500D03*
X124500Y264000D03*
X126000Y353500D03*
X131000D03*
X103000Y235000D03*
X84500Y225000D03*
X89500D03*
X85500Y194000D03*
X70500Y146000D03*
X76500D03*
X82500D03*
X70500Y152000D03*
X76500D03*
X82500D03*
X80500Y265000D03*
X100500Y264000D03*
X62500Y258500D03*
X44500Y265500D03*
X25500Y148500D03*
X19500D03*
X178500Y259500D03*
X154000Y229000D03*
Y234000D03*
Y239000D03*
X177000Y192000D03*
X157000D03*
X173500Y199000D03*
X149500Y209000D03*
Y203000D03*
X266500Y204000D03*
Y198500D03*
X272500Y204000D03*
Y210000D03*
Y198500D03*
X278500Y204000D03*
Y210000D03*
Y198500D03*
X266500Y210000D03*
X244500Y233500D03*
X296000Y236500D03*
Y242500D03*
X302000Y236500D03*
Y242500D03*
X304000Y294000D03*
X286500Y288000D03*
X295000D03*
X292000Y277500D03*
X294000Y262500D03*
X312000Y261000D03*
X317500D03*
X312000Y255500D03*
X317500D03*
X331000Y258000D03*
X239500Y258500D03*
X245500D03*
Y264500D03*
X321000Y301500D03*
X327000D03*
X321000Y307500D03*
X327000D03*
X321000Y317500D03*
X327000D03*
X321000Y323500D03*
X327000D03*
X232500Y294000D03*
X254000Y278000D03*
X251000Y273500D03*
X253000Y262500D03*
X238000Y285000D03*
X239500Y246500D03*
Y252500D03*
X245500Y246500D03*
Y252500D03*
X187500Y245000D03*
Y252500D03*
X215000Y206000D03*
X196500Y191500D03*
X187500Y239500D03*
X245000Y223500D03*
Y228500D03*
X181500Y199000D03*
X188500Y179500D03*
X194500D03*
X200500D03*
X188500Y185500D03*
X194500D03*
X200500D03*
X188500Y174000D03*
X194500D03*
X200500D03*
X179000Y298500D03*
X185000Y323500D03*
X188000Y295000D03*
X239500Y264500D03*
G54D50*G54D58*G54D59*G54D60*G54D61*G54D58*G54D59*G54D62*G54D60*G54D63*G54D60*G54D59*G54D62*G54D59*G54D62*G54D59*G54D60*G54D64*G54D60*G54D61*G54D60*G54D62*G54D61*G54D60*M02*
