G04 start of page 6 for group -4063 idx -4063 *
G04 Title: (unknown), componentmask *
G04 Creator: pcb 20140316 *
G04 CreationDate: Sat 17 Sep 2016 09:25:40 PM GMT UTC *
G04 For: ndholmes *
G04 Format: Gerber/RS-274X *
G04 PCB-Dimensions (mil): 3900.00 3600.00 *
G04 PCB-Coordinate-Origin: lower left *
%MOIN*%
%FSLAX25Y25*%
%LNTOPMASK*%
%ADD96R,0.0290X0.0290*%
%ADD95R,0.0420X0.0420*%
%ADD94R,0.0330X0.0330*%
%ADD93R,0.0490X0.0490*%
%ADD92R,0.0520X0.0520*%
%ADD91C,0.0600*%
%ADD90R,0.0530X0.0530*%
%ADD89R,0.0187X0.0187*%
%ADD88R,0.0300X0.0300*%
%ADD87R,0.0235X0.0235*%
%ADD86R,0.0690X0.0690*%
%ADD85R,0.0227X0.0227*%
%ADD84R,0.0400X0.0400*%
%ADD83R,0.1005X0.1005*%
%ADD82R,0.0438X0.0438*%
%ADD81R,0.0572X0.0572*%
%ADD80C,0.0900*%
%ADD79C,0.1500*%
%ADD78C,0.2997*%
%ADD77C,0.0860*%
%ADD76C,0.0760*%
%ADD75C,0.0660*%
%ADD74C,0.0001*%
G54D74*G36*
X61200Y25300D02*Y18700D01*
X67800D01*
Y25300D01*
X61200D01*
G37*
G54D75*X54500Y22000D03*
G54D76*X64500Y84500D03*
X74500Y79500D03*
X64500Y74500D03*
X74500Y69500D03*
X64500Y64500D03*
X74500Y59500D03*
X64500Y54500D03*
X74500Y49500D03*
G54D74*G36*
X91700Y26300D02*Y17700D01*
X100300D01*
Y26300D01*
X91700D01*
G37*
G54D77*X116000Y22000D03*
X136000D03*
G54D78*X373000Y17000D03*
G54D74*G36*
X173200Y290300D02*Y283700D01*
X179800D01*
Y290300D01*
X173200D01*
G37*
G54D75*X176500Y277000D03*
Y267000D03*
X186500Y287000D03*
Y277000D03*
Y267000D03*
G54D76*X93000Y285000D03*
X83000D03*
X73000D03*
X88000Y295000D03*
X78000D03*
X68000D03*
G54D79*X100500Y320000D03*
X60500D03*
G54D74*G36*
X30700Y299800D02*Y291200D01*
X39300D01*
Y299800D01*
X30700D01*
G37*
G54D77*X35000Y285500D03*
Y275500D03*
Y265500D03*
Y255500D03*
X294000Y332500D03*
X242500D03*
G54D74*G36*
X265200Y340800D02*Y333200D01*
X272800D01*
Y340800D01*
X265200D01*
G37*
G54D76*X269000Y327000D03*
Y317000D03*
G54D74*G36*
X165200Y340800D02*Y333200D01*
X172800D01*
Y340800D01*
X165200D01*
G37*
G54D76*X169000Y327000D03*
Y317000D03*
G54D74*G36*
X188200Y336800D02*Y328200D01*
X196800D01*
Y336800D01*
X188200D01*
G37*
G54D76*X324500Y49500D03*
G54D79*X349500Y44500D03*
G54D76*X314500Y54500D03*
X324500Y59500D03*
Y69500D03*
Y79500D03*
G54D79*X349500Y89500D03*
G54D76*X314500Y64500D03*
Y74500D03*
Y84500D03*
G54D74*G36*
X270700Y26300D02*Y17700D01*
X279300D01*
Y26300D01*
X270700D01*
G37*
G54D80*X277000Y160500D03*
X287000D03*
G54D74*G36*
X292500Y165000D02*Y156000D01*
X301500D01*
Y165000D01*
X292500D01*
G37*
G54D77*X295000Y22000D03*
G54D78*X17000Y17000D03*
Y343000D03*
G54D77*X35000Y245500D03*
Y235500D03*
Y225500D03*
G54D74*G36*
X30700Y207800D02*Y199200D01*
X39300D01*
Y207800D01*
X30700D01*
G37*
G54D77*X35000Y183500D03*
G54D79*X39500Y89500D03*
Y44500D03*
G54D78*X373000Y343000D03*
G54D74*G36*
X339700Y336800D02*Y328200D01*
X348300D01*
Y336800D01*
X339700D01*
G37*
G36*
X350700Y187800D02*Y179200D01*
X359300D01*
Y187800D01*
X350700D01*
G37*
G54D77*X355000Y203500D03*
G54D74*G36*
X350700Y229800D02*Y221200D01*
X359300D01*
Y229800D01*
X350700D01*
G37*
G54D77*X355000Y235500D03*
Y245500D03*
Y255500D03*
Y265500D03*
Y275500D03*
Y285500D03*
Y295500D03*
G54D81*X155021Y297586D02*X155807D01*
X155021Y290500D02*X155807D01*
G54D82*X116594Y296689D02*Y292595D01*
X122500Y304405D02*Y292595D01*
G54D83*Y308029D02*Y306139D01*
G54D74*G36*
X119195Y303258D02*X122459Y299994D01*
X120615Y298150D01*
X117351Y301414D01*
X119195Y303258D01*
G37*
G36*
X122541Y299994D02*X125805Y303258D01*
X127649Y301414D01*
X124385Y298150D01*
X122541Y299994D01*
G37*
G54D82*X128406Y296689D02*Y292595D01*
G54D81*X132650Y340543D02*X133436D01*
X132650Y333457D02*X133436D01*
G54D84*X114000Y340400D02*X114600D01*
X122200Y336500D02*X122800D01*
X114000Y332600D02*X114600D01*
G54D85*X113717Y324075D02*X115587D01*
X113717Y320925D02*X115587D01*
X120413D02*X122283D01*
X120413Y324075D02*X122283D01*
G54D84*X44700Y320000D02*X45300D01*
X36500Y323900D02*X37100D01*
G54D81*X19957Y317393D02*Y316607D01*
X27043Y317393D02*Y316607D01*
G54D84*X44700Y327800D02*X45300D01*
G54D85*X38217Y346575D02*X40087D01*
X38217Y343425D02*X40087D01*
X44913D02*X46783D01*
X44913Y346575D02*X46783D01*
G54D81*X261914Y350393D02*Y349607D01*
X269000Y350393D02*Y349607D01*
G54D85*X150224Y314283D02*Y312413D01*
X147075Y314283D02*Y312413D01*
X143925Y314283D02*Y312413D01*
X140776Y314283D02*Y312413D01*
Y307587D02*Y305717D01*
X143925Y307587D02*Y305717D01*
X147075Y307587D02*Y305717D01*
X150224Y307587D02*Y305717D01*
G54D81*X151607Y340586D02*X152393D01*
X151607Y333500D02*X152393D01*
X141607Y340543D02*X142393D01*
X160957Y350350D02*Y349564D01*
X168043Y350350D02*Y349564D01*
X141607Y333457D02*X142393D01*
G54D85*X61565Y264351D02*X63435D01*
X61565Y267500D02*X63435D01*
X61565Y270650D02*X63435D01*
X61565Y273799D02*X63435D01*
X54869D02*X56739D01*
X54869Y270650D02*X56739D01*
X54869Y267500D02*X56739D01*
X54869Y264351D02*X56739D01*
G54D81*X84457Y271393D02*Y270607D01*
X91543Y271393D02*Y270607D01*
G54D85*X242425Y279087D02*Y277217D01*
Y285783D02*Y283913D01*
X245575Y279087D02*Y277217D01*
Y285783D02*Y283913D01*
G54D81*X198107Y271000D02*X198893D01*
G54D85*X225985Y274400D02*X227855D01*
X225985Y277549D02*X227855D01*
X225985Y280699D02*X227855D01*
X225985Y283848D02*X227855D01*
G54D81*X198107Y263914D02*X198893D01*
G54D85*X201724Y248783D02*Y246913D01*
Y242087D02*Y240217D01*
X198575Y248783D02*Y246913D01*
Y242087D02*Y240217D01*
X195425Y248783D02*Y246913D01*
X192276Y248783D02*Y246913D01*
Y242087D02*Y240217D01*
X195425Y242087D02*Y240217D01*
G54D86*X205000Y224750D02*X205001D01*
X225000D02*X225001D01*
G54D87*X241940Y301213D02*Y300760D01*
X244500Y301213D02*Y300760D01*
X247060Y301213D02*Y300760D01*
Y308240D02*Y307787D01*
X244500Y308240D02*Y307787D01*
X241940Y308240D02*Y307787D01*
G54D81*X300107Y269000D02*X300893D01*
X300107Y261914D02*X300893D01*
X319414Y293393D02*Y292607D01*
X326500Y293393D02*Y292607D01*
X303607Y308043D02*X304393D01*
X303607Y300957D02*X304393D01*
G54D85*X307913Y282925D02*X309783D01*
X307913Y286075D02*X309783D01*
X301217D02*X303087D01*
X301217Y282925D02*X303087D01*
G54D84*X326200Y265500D02*X326800D01*
X326200Y273300D02*X326800D01*
X318000Y269400D02*X318600D01*
G54D87*X270940Y237713D02*Y237260D01*
X273500Y237713D02*Y237260D01*
X276060Y237713D02*Y237260D01*
X273500Y244740D02*Y244287D01*
X270940Y244740D02*Y244287D01*
X276060Y244740D02*Y244287D01*
G54D88*X280000Y252500D02*X286500D01*
X280000Y257500D02*X286500D01*
X280000Y262500D02*X286500D01*
X280000Y267500D02*X286500D01*
X280000Y272500D02*X286500D01*
X280000Y277500D02*X286500D01*
X280000Y282500D02*X286500D01*
G54D85*X278224Y300783D02*Y298913D01*
X275075Y300783D02*Y298913D01*
X271925Y300783D02*Y298913D01*
Y294087D02*Y292217D01*
X275075Y294087D02*Y292217D01*
X278224Y294087D02*Y292217D01*
G54D87*X289440Y301213D02*Y300760D01*
Y308240D02*Y307787D01*
X292000Y301213D02*Y300760D01*
Y308240D02*Y307787D01*
X294560Y301213D02*Y300760D01*
Y308240D02*Y307787D01*
G54D85*X323369Y225149D02*X325239D01*
X330065D02*X331935D01*
X323369Y222000D02*X325239D01*
X330065D02*X331935D01*
X323369Y218850D02*X325239D01*
X323369Y215701D02*X325239D01*
X330065D02*X331935D01*
X330065Y218850D02*X331935D01*
X323217Y243724D02*X325087D01*
X323217Y240575D02*X325087D01*
X323217Y237425D02*X325087D01*
X323217Y234276D02*X325087D01*
X329913D02*X331783D01*
X329913Y237425D02*X331783D01*
X329913Y240575D02*X331783D01*
X329913Y243724D02*X331783D01*
X61413Y234776D02*X63283D01*
X61413Y237925D02*X63283D01*
X61413Y241075D02*X63283D01*
X61413Y244224D02*X63283D01*
X54717D02*X56587D01*
X54717Y241075D02*X56587D01*
X54717Y237925D02*X56587D01*
X54717Y234776D02*X56587D01*
X61425Y188087D02*Y186217D01*
X64575Y188087D02*Y186217D01*
Y194783D02*Y192913D01*
X61425Y194783D02*Y192913D01*
G54D81*X84107Y239043D02*X84893D01*
X84107Y231957D02*X84893D01*
G54D89*X93728Y247622D02*X98154D01*
X93728Y244473D02*X98154D01*
X93728Y241323D02*X98154D01*
X93728Y238174D02*X98154D01*
X93728Y235024D02*X98154D01*
X93728Y231874D02*X98154D01*
X93728Y228725D02*X98154D01*
X93728Y225575D02*X98154D01*
X93728Y222426D02*X98154D01*
X93728Y219276D02*X98154D01*
X93728Y216126D02*X98154D01*
X93728Y212977D02*X98154D01*
X93728Y209827D02*X98154D01*
X93728Y206678D02*X98154D01*
X93728Y203528D02*X98154D01*
X93728Y200378D02*X98154D01*
G54D85*X219289Y283848D02*X221159D01*
G54D81*X232107Y308000D02*X232893D01*
X232107Y300914D02*X232893D01*
G54D85*X219289Y280699D02*X221159D01*
X219289Y277549D02*X221159D01*
X219289Y274400D02*X221159D01*
G54D88*X259500Y282500D02*X266000D01*
X259500Y277500D02*X266000D01*
X259500Y272500D02*X266000D01*
G54D85*X268776Y300783D02*Y298913D01*
Y294087D02*Y292217D01*
G54D88*X259500Y267500D02*X266000D01*
X259500Y262500D02*X266000D01*
X259500Y257500D02*X266000D01*
X259500Y252500D02*X266000D01*
G54D81*X177607Y205914D02*X178393D01*
X177607Y213000D02*X178393D01*
X179107Y244957D02*X179893D01*
X179107Y252043D02*X179893D01*
G54D90*X201099Y211950D02*X201100D01*
X208900D02*X208901D01*
X221099D02*X221100D01*
X228900D02*X228901D01*
G54D89*X152122Y258772D02*Y254346D01*
X148973Y258772D02*Y254346D01*
X145823Y258772D02*Y254346D01*
X142674Y258772D02*Y254346D01*
X139524Y258772D02*Y254346D01*
X136374Y258772D02*Y254346D01*
X133225Y258772D02*Y254346D01*
X130075Y258772D02*Y254346D01*
X126926Y258772D02*Y254346D01*
X123776Y258772D02*Y254346D01*
X120626Y258772D02*Y254346D01*
X117477Y258772D02*Y254346D01*
X114327Y258772D02*Y254346D01*
X111178Y258772D02*Y254346D01*
X108028Y258772D02*Y254346D01*
X104878Y258772D02*Y254346D01*
Y193654D02*Y189228D01*
X108027Y193654D02*Y189228D01*
X111177Y193654D02*Y189228D01*
X114326Y193654D02*Y189228D01*
X117476Y193654D02*Y189228D01*
X120626Y193654D02*Y189228D01*
X123775Y193654D02*Y189228D01*
X126925Y193654D02*Y189228D01*
X130074Y193654D02*Y189228D01*
X133224Y193654D02*Y189228D01*
X136374Y193654D02*Y189228D01*
X139523Y193654D02*Y189228D01*
X142673Y193654D02*Y189228D01*
X145822Y193654D02*Y189228D01*
X148972Y193654D02*Y189228D01*
X152122Y193654D02*Y189228D01*
X158846Y200378D02*X163272D01*
X158846Y203527D02*X163272D01*
X158846Y206677D02*X163272D01*
X158846Y209826D02*X163272D01*
X158846Y212976D02*X163272D01*
X158846Y216126D02*X163272D01*
X158846Y219275D02*X163272D01*
X158846Y222425D02*X163272D01*
X158846Y225574D02*X163272D01*
X158846Y228724D02*X163272D01*
X158846Y231874D02*X163272D01*
X158846Y235023D02*X163272D01*
X158846Y238173D02*X163272D01*
X158846Y241322D02*X163272D01*
X158846Y244472D02*X163272D01*
X158846Y247622D02*X163272D01*
G54D85*X127724Y75783D02*Y73913D01*
X124575Y75783D02*Y73913D01*
X121425Y75783D02*Y73913D01*
X118276Y75783D02*Y73913D01*
G54D81*X157107Y84043D02*X157893D01*
X159043Y10893D02*Y10107D01*
X151957Y10893D02*Y10107D01*
X159043Y45893D02*Y45107D01*
X151957Y45893D02*Y45107D01*
G54D87*X154440Y27213D02*Y26760D01*
X157000Y27213D02*Y26760D01*
X159560Y27213D02*Y26760D01*
Y34240D02*Y33787D01*
X157000Y34240D02*Y33787D01*
X154440Y34240D02*Y33787D01*
G54D81*X97107Y88457D02*X97893D01*
X97107Y95543D02*X97893D01*
G54D88*X108000Y92000D02*Y85500D01*
X113000Y92000D02*Y85500D01*
X118000Y92000D02*Y85500D01*
X123000Y92000D02*Y85500D01*
X128000Y92000D02*Y85500D01*
X133000Y92000D02*Y85500D01*
X138000Y92000D02*Y85500D01*
X143000Y92000D02*Y85500D01*
G54D85*X118276Y69087D02*Y67217D01*
X121425Y69087D02*Y67217D01*
X124575Y69087D02*Y67217D01*
X127724Y69087D02*Y67217D01*
G54D91*X136700Y63000D03*
G54D88*X138200Y64500D02*Y61500D01*
G54D91*X143500Y63000D03*
G54D88*X142000Y64500D02*Y61500D01*
X143000Y112500D02*Y106000D01*
X138000Y112500D02*Y106000D01*
X133000Y112500D02*Y106000D01*
X128000Y112500D02*Y106000D01*
G54D92*X124000Y168550D02*Y163350D01*
X134000Y168550D02*Y163350D01*
X144000Y168550D02*Y163350D01*
X154000Y168550D02*Y163350D01*
X164000Y168550D02*Y163350D01*
X134000Y134650D02*Y129450D01*
X144000Y134650D02*Y129450D01*
X154000Y134650D02*Y129450D01*
X164000Y134650D02*Y129450D01*
G54D88*X123000Y112500D02*Y106000D01*
X118000Y112500D02*Y106000D01*
X113000Y112500D02*Y106000D01*
X108000Y112500D02*Y106000D01*
G54D92*X124000Y134650D02*Y129450D01*
X56500Y134650D02*Y129450D01*
X66500Y134650D02*Y129450D01*
X76500Y134650D02*Y129450D01*
X86500Y134650D02*Y129450D01*
X96500Y134650D02*Y129450D01*
X76500Y168550D02*Y163350D01*
X86500Y168550D02*Y163350D01*
X96500Y168550D02*Y163350D01*
X56500Y168550D02*Y163350D01*
X66500Y168550D02*Y163350D01*
G54D88*X30000Y162000D02*Y155500D01*
X25000Y162000D02*Y155500D01*
X20000Y162000D02*Y155500D01*
X15000Y162000D02*Y155500D01*
Y141500D02*Y135000D01*
X20000Y141500D02*Y135000D01*
X25000Y141500D02*Y135000D01*
X30000Y141500D02*Y135000D01*
G54D85*X163413Y99776D02*X165283D01*
X156717D02*X158587D01*
X163413Y102925D02*X165283D01*
X156717D02*X158587D01*
X163413Y106075D02*X165283D01*
X156717D02*X158587D01*
X163413Y109224D02*X165283D01*
X156717D02*X158587D01*
X261413Y99776D02*X263283D01*
X254717D02*X256587D01*
G54D93*X291000Y103500D02*Y94500D01*
G54D85*X261413Y102925D02*X263283D01*
X261413Y106075D02*X263283D01*
X261413Y109224D02*X263283D01*
X254717D02*X256587D01*
X254717Y106075D02*X256587D01*
X254717Y102925D02*X256587D01*
X202224Y47783D02*Y45913D01*
Y41087D02*Y39217D01*
G54D94*X263500Y50950D02*Y48550D01*
X273500Y50950D02*Y48550D01*
G54D91*X233000Y41400D03*
G54D88*X231500Y39900D02*X234500D01*
G54D81*X208043Y10893D02*Y10107D01*
X212957Y24393D02*Y23607D01*
X220043Y24393D02*Y23607D01*
X200957Y10893D02*Y10107D01*
G54D91*X233000Y34600D03*
G54D88*X231500Y36100D02*X234500D01*
G54D91*X232500Y51200D03*
G54D88*X231000Y52700D02*X234000D01*
G54D91*X232500Y58000D03*
G54D88*X231000Y56500D02*X234000D01*
G54D81*X299543Y80393D02*Y79607D01*
X292457Y80393D02*Y79607D01*
X157107Y76957D02*X157893D01*
G54D94*X273500Y73450D02*Y71050D01*
X263500Y73450D02*Y71050D01*
G54D88*X235500Y92000D02*Y85500D01*
X240500Y92000D02*Y85500D01*
G54D85*X228724Y75783D02*Y73913D01*
X225575Y75783D02*Y73913D01*
X222425Y75783D02*Y73913D01*
X219276Y75783D02*Y73913D01*
Y69087D02*Y67217D01*
G54D91*X164000Y69000D03*
G54D88*X162500Y67500D02*X165500D01*
G54D85*X222425Y69087D02*Y67217D01*
X225575Y69087D02*Y67217D01*
X228724Y69087D02*Y67217D01*
X199075Y47783D02*Y45913D01*
X195925Y47783D02*Y45913D01*
X192776Y47783D02*Y45913D01*
Y41087D02*Y39217D01*
X195925Y41087D02*Y39217D01*
X199075Y41087D02*Y39217D01*
X178224Y47783D02*Y45913D01*
Y41087D02*Y39217D01*
X178413Y18276D02*X180283D01*
X178413Y21425D02*X180283D01*
X178413Y24575D02*X180283D01*
X178413Y27724D02*X180283D01*
X175075Y47783D02*Y45913D01*
Y41087D02*Y39217D01*
X171925Y47783D02*Y45913D01*
Y41087D02*Y39217D01*
X171717Y27724D02*X173587D01*
X171717Y24575D02*X173587D01*
X171717Y21425D02*X173587D01*
X171717Y18276D02*X173587D01*
X168776Y47783D02*Y45913D01*
Y41087D02*Y39217D01*
G54D91*X164000Y62200D03*
G54D88*X162500Y63700D02*X165500D01*
G54D81*X191107Y88414D02*X191893D01*
G54D88*X205500Y92000D02*Y85500D01*
G54D81*X191107Y95500D02*X191893D01*
G54D88*X210500Y92000D02*Y85500D01*
X215500Y92000D02*Y85500D01*
X220500Y92000D02*Y85500D01*
X225500Y92000D02*Y85500D01*
X230500Y92000D02*Y85500D01*
G54D81*X351414Y120893D02*Y120107D01*
G54D95*X340900Y121100D02*Y119900D01*
G54D81*X358500Y120893D02*Y120107D01*
X376107Y115543D02*X376893D01*
X376107Y108457D02*X376893D01*
X365043Y109393D02*Y108607D01*
X357957Y109393D02*Y108607D01*
G54D88*X240500Y112500D02*Y106000D01*
X235500Y112500D02*Y106000D01*
X230500Y112500D02*Y106000D01*
X225500Y112500D02*Y106000D01*
X220500Y112500D02*Y106000D01*
X215500Y112500D02*Y106000D01*
X210500Y112500D02*Y106000D01*
X205500Y112500D02*Y106000D01*
G54D93*X291000Y129100D02*Y120000D01*
G54D81*X279957Y176393D02*Y175607D01*
X287043Y176393D02*Y175607D01*
G54D96*X323800Y130300D02*X345200D01*
Y135900D02*Y130300D01*
G54D74*G36*
X338031Y131450D02*X344050Y137469D01*
X346596Y134923D01*
X340577Y128904D01*
X338031Y131450D01*
G37*
G36*
X342250Y133250D02*Y129650D01*
X345850D01*
Y133250D01*
X342250D01*
G37*
G54D96*X323800Y151700D02*X345200D01*
X323800D02*Y146100D01*
X345200Y151700D02*Y146100D01*
G54D74*G36*
X323150Y152350D02*Y148750D01*
X326750D01*
Y152350D01*
X323150D01*
G37*
G36*
X342250D02*Y148750D01*
X345850D01*
Y152350D01*
X342250D01*
G37*
G36*
X322404Y147077D02*X328423Y153096D01*
X330969Y150550D01*
X324950Y144531D01*
X322404Y147077D01*
G37*
G36*
X340577Y153096D02*X346596Y147077D01*
X344050Y144531D01*
X338031Y150550D01*
X340577Y153096D01*
G37*
G54D81*X354607Y151457D02*X355393D01*
X354607Y158543D02*X355393D01*
G54D95*X328000Y121100D02*Y119900D01*
G54D96*X323800Y135900D02*Y130300D01*
G54D74*G36*
X324950Y137469D02*X330969Y131450D01*
X328423Y128904D01*
X322404Y134923D01*
X324950Y137469D01*
G37*
G36*
X323150Y133250D02*Y129650D01*
X326750D01*
Y133250D01*
X323150D01*
G37*
G54D88*X354700Y143300D02*X356300D01*
X354700Y135500D02*X356300D01*
X362900D02*X364500D01*
X362900Y139400D02*X364500D01*
X362900Y143300D02*X364500D01*
M02*
