G04 start of page 7 for group -4062 idx -4062 *
G04 Title: (unknown), soldermask *
G04 Creator: pcb 20140316 *
G04 CreationDate: Sat 17 Sep 2016 09:25:40 PM GMT UTC *
G04 For: ndholmes *
G04 Format: Gerber/RS-274X *
G04 PCB-Dimensions (mil): 3900.00 3600.00 *
G04 PCB-Coordinate-Origin: lower left *
%MOIN*%
%FSLAX25Y25*%
%LNBOTTOMMASK*%
%ADD103C,0.0900*%
%ADD102C,0.1500*%
%ADD101C,0.2997*%
%ADD100C,0.0860*%
%ADD99C,0.0760*%
%ADD98C,0.0660*%
%ADD97C,0.0001*%
G54D97*G36*
X61200Y25300D02*Y18700D01*
X67800D01*
Y25300D01*
X61200D01*
G37*
G54D98*X54500Y22000D03*
G54D99*X64500Y84500D03*
X74500Y79500D03*
X64500Y74500D03*
X74500Y69500D03*
X64500Y64500D03*
X74500Y59500D03*
X64500Y54500D03*
X74500Y49500D03*
G54D97*G36*
X91700Y26300D02*Y17700D01*
X100300D01*
Y26300D01*
X91700D01*
G37*
G54D100*X116000Y22000D03*
X136000D03*
G54D101*X373000Y17000D03*
G54D97*G36*
X173200Y290300D02*Y283700D01*
X179800D01*
Y290300D01*
X173200D01*
G37*
G54D98*X176500Y277000D03*
Y267000D03*
X186500Y287000D03*
Y277000D03*
Y267000D03*
G54D99*X93000Y285000D03*
X83000D03*
X73000D03*
X88000Y295000D03*
X78000D03*
X68000D03*
G54D102*X100500Y320000D03*
X60500D03*
G54D97*G36*
X30700Y299800D02*Y291200D01*
X39300D01*
Y299800D01*
X30700D01*
G37*
G54D100*X35000Y285500D03*
Y275500D03*
Y265500D03*
Y255500D03*
X294000Y332500D03*
X242500D03*
G54D97*G36*
X265200Y340800D02*Y333200D01*
X272800D01*
Y340800D01*
X265200D01*
G37*
G54D99*X269000Y327000D03*
Y317000D03*
G54D97*G36*
X165200Y340800D02*Y333200D01*
X172800D01*
Y340800D01*
X165200D01*
G37*
G54D99*X169000Y327000D03*
Y317000D03*
G54D97*G36*
X188200Y336800D02*Y328200D01*
X196800D01*
Y336800D01*
X188200D01*
G37*
G54D99*X324500Y49500D03*
G54D102*X349500Y44500D03*
G54D99*X314500Y54500D03*
X324500Y59500D03*
Y69500D03*
Y79500D03*
G54D102*X349500Y89500D03*
G54D99*X314500Y64500D03*
Y74500D03*
Y84500D03*
G54D97*G36*
X270700Y26300D02*Y17700D01*
X279300D01*
Y26300D01*
X270700D01*
G37*
G54D103*X277000Y160500D03*
X287000D03*
G54D97*G36*
X292500Y165000D02*Y156000D01*
X301500D01*
Y165000D01*
X292500D01*
G37*
G54D100*X295000Y22000D03*
G54D101*X17000Y17000D03*
Y343000D03*
G54D100*X35000Y245500D03*
Y235500D03*
Y225500D03*
G54D97*G36*
X30700Y207800D02*Y199200D01*
X39300D01*
Y207800D01*
X30700D01*
G37*
G54D100*X35000Y183500D03*
G54D102*X39500Y89500D03*
Y44500D03*
G54D101*X373000Y343000D03*
G54D97*G36*
X339700Y336800D02*Y328200D01*
X348300D01*
Y336800D01*
X339700D01*
G37*
G36*
X350700Y187800D02*Y179200D01*
X359300D01*
Y187800D01*
X350700D01*
G37*
G54D100*X355000Y203500D03*
G54D97*G36*
X350700Y229800D02*Y221200D01*
X359300D01*
Y229800D01*
X350700D01*
G37*
G54D100*X355000Y235500D03*
Y245500D03*
Y255500D03*
Y265500D03*
Y275500D03*
Y285500D03*
Y295500D03*
M02*
